<?xml version="1.0" encoding="UTF-8"?>
<svg enable-background="new 0 0 864.4 631.7" version="1.1" viewBox="0 0 864.4 631.7" xml:space="preserve" xmlns="http://www.w3.org/2000/svg">
<style type="text/css">
	.st0{fill:url(#e);}
	.st1{fill:url(#f);}
	.st2{fill:#F1F2F2;}
	.st3{fill:url(#g);}
	.st4{fill:url(#h);}
	.st5{fill:none;stroke:#F1F2F2;stroke-miterlimit:10;}
	.st6{fill:#FFFFFF;stroke:#F1F2F2;stroke-miterlimit:10;}
</style>
		<linearGradient id="e" x1="432.2" x2="432.2" y1="841.7" y2="211.1" gradientTransform="translate(0 -210)" gradientUnits="userSpaceOnUse">
		<stop stop-color="#E2DFDE" offset=".5237"/>
		<stop stop-color="#8DC4DA" offset=".7248"/>
		<stop stop-color="#0361AB" offset=".9944"/>
	</linearGradient>
	<path class="st0" d="m0 1.1h864.4v630.6h-864.4v-630.6z"/>
	<linearGradient id="f" x1="432.2" x2="432.2" y1="634.28" y2="259.89" gradientUnits="userSpaceOnUse">
		<stop stop-color="#0361AB" offset=".5344"/>
		<stop stop-color="#9DD8D7" offset=".9986"/>
	</linearGradient>
	<path class="st1" d="m422 259.9c-20.1 10.7-45.6 22.1-76 31-22.8 6.7-43.7 10.6-62 13-68.1-5.4-103-14.8-104.4-28-0.3-3 1-6.3 4.4-10l-117 50c3.5 5.1-48 0.5-67-28v343.8c0 5.8 864.4 0 864.4 0v-371.8c-10.4 41-220.4 50-220.4 50s-288-20-222-50z"/>
	<path class="st2" d="m0.3 287.6c2.7 3.2 5.7 6.2 8.9 9s6.5 5.3 10 7.6 7.2 4.3 11 5.9 7.8 2.9 11.8 3.7 8.1 1.3 12.2 1.2 8.1-0.6 12.1-1.6c4.1-1 8-2.2 12-3.5s8-2.7 11.9-4.3c3.9-1.5 7.9-3.1 11.8-4.7s7.8-3.3 11.7-5c7.8-3.4 15.4-7 23.1-10.6s15.3-7.3 22.9-11.1l11.3-5.8c3.8-1.9 7.6-3.9 11.3-5.8l10.5-5.5-5.7 10.4c-0.8 1.5-1.4 3-1.6 4.4-0.1 0.7-0.1 1.4-0.1 2.1v0.5c0 0.2 0.1 0.5 0.1 0.7 0 0.1 0.1 0.3 0.1 0.4s0.1 0.3 0.2 0.5c1 2.7 3.5 5.2 6.4 7.3s6.3 3.9 9.8 5.4 7.1 2.8 10.8 4c7.4 2.3 15.1 4 22.8 5.4s15.6 2.4 23.4 3c7.9 0.7 15.7 1 23.6 0.9s15.7-0.8 23.6-1.8c3.9-0.5 7.8-1.1 11.7-1.8s7.8-1.5 11.6-2.4c1.9-0.5 3.9-0.9 5.8-1.4l5.7-1.5c3.8-1.1 7.6-2.2 11.3-3.5 15-4.9 29.5-11.4 43.7-18.5 7.1-3.6 14-7.4 21-11.2l5.3-2.8c1.8-0.9 3.5-1.9 5.5-2.7 0.5-0.2 1-0.4 1.7-0.6 0.2 0 0.4-0.1 0.7-0.1h0.5c0.2 0 0.5 0 1 0.3 0.3-0.2 1.4 1.6 1.2 1.3 0.3 0.9 0 1.7-0.1 1.9-0.3 0.6-0.5 0.8-0.6 0.9-0.6 0.6-1 0.9-1.5 1.2l-1.3 0.9c-1.7 1.1-3.3 2.1-4.8 3.3-1.5 1.1-2.9 2.3-3.9 3.6-0.5 0.6-0.9 1.3-1.1 1.9-0.1 0.3-0.2 0.6-0.2 0.8v0.4c0 0.3 0.1 0.3 0.1 0.4 0.2 0.9 1.3 2.2 2.6 3.2s2.9 2 4.6 2.8c3.4 1.7 7 3 10.7 4.2s7.5 2.2 11.3 3.2c15.2 3.7 30.9 6.3 46.5 8.5 15.7 2.2 31.4 3.9 47.2 5.3s31.6 2.4 47.4 3.3 31.6 1.4 47.5 1.7c15.8 0.4 31.6 0.2 47.4-0.2s31.6-1.3 47.4-2.6c15.8-1.2 31.5-3 47.1-5.3 15.6-2.4 31.2-5.4 46.2-10.1 7.5-2.3 14.9-5.1 21.8-8.8 3.4-1.9 6.7-4 9.7-6.6 2.9-2.5 5.5-5.6 7.1-9.2l0.7 0.3c-1.4 3.8-3.9 7.2-6.8 10s-6.2 5.2-9.6 7.4c-6.9 4.2-14.3 7.4-21.8 10.2-15.1 5.4-30.7 9.2-46.4 12.1-15.7 3-31.5 5.1-47.4 6.8s-31.8 2.8-47.7 3.6c-15.9 0.7-31.9 1-47.9 0.8-8-0.1-15.9-0.3-23.9-0.6s-15.9-0.7-23.9-1.1c-15.9-0.9-31.8-2.3-47.7-3.9s-31.7-3.6-47.5-6c-7.9-1.2-15.8-2.6-23.6-4.2-7.9-1.6-15.7-3.3-23.4-5.5s-15.5-4.6-22.9-8.5c-1.8-1-3.7-2.1-5.4-3.6-0.9-0.7-1.7-1.6-2.5-2.6s-1.4-2.2-1.7-3.7c-0.1-0.4-0.1-0.9-0.1-1.1v-1.2c0.1-0.7 0.3-1.5 0.5-2.1 0.5-1.3 1.2-2.3 2-3.2 1.5-1.8 3.2-3.1 5-4.3 1.7-1.2 3.5-2.2 5.2-3.3l1.2-0.8c0.4-0.2 0.8-0.5 0.9-0.6l-0.2 0.3s-0.3 0.7 0 1.5c-0.3-0.4 0.8 1.3 0.9 1 0.4 0.2 0.5 0.2 0.6 0.2h0.2-0.1c-0.3 0.1-0.7 0.2-1.1 0.4-1.7 0.7-3.5 1.6-5.3 2.4l-5.3 2.7c-7.1 3.6-14.2 7.2-21.4 10.6-14.4 6.8-29.1 13.1-44.3 18-7.6 2.5-15.3 4.7-23 6.5-3.9 0.9-7.8 1.8-11.7 2.5-3.9 0.8-7.8 1.5-11.8 2.1-3.9 0.6-7.9 1.2-11.9 1.6s-8 0.8-12 1c-8 0.4-16 0.4-24 0s-16-1-24-2.1-15.9-2.6-23.7-4.8c-3.9-1.1-7.8-2.3-11.6-3.9s-7.6-3.4-11.2-5.9c-1.8-1.2-3.5-2.6-5.1-4.3s-3-3.7-3.9-6.1l-0.3-0.9-0.3-1.1c-0.1-0.3-0.1-0.5-0.2-0.8v-0.2l-0.1-0.4-0.1-0.5c-0.1-1.3-0.1-2.6 0.1-3.9 0.4-2.5 1.3-4.8 2.4-6.8l4.8 4.9c-3.8 2-7.6 4-11.4 5.9l-11.5 5.7c-7.7 3.7-15.4 7.4-23.1 11-7.8 3.6-15.6 7-23.5 10.2-3.9 1.6-7.9 3.2-11.9 4.8s-8 3-12.1 4.4c-4 1.4-8.1 2.7-12.3 4-4.1 1.2-8.4 2.3-12.6 3.2-4.3 0.9-8.8 1.3-13.2 1.2s-8.8-0.7-13.1-1.8c-8.5-2.2-16.4-6.2-23.4-11.3-3.5-2.6-6.7-5.4-9.8-8.4-3-3.1-5.9-6.3-8.4-9.8l0.9-0.5z"/>
	<linearGradient id="g" x1="432.2" x2="432.2" y1="631.7" y2="269.89" gradientUnits="userSpaceOnUse">
		<stop stop-color="#0361AB" offset="0"/>
		<stop stop-color="#7CBDC5" offset="1"/>
	</linearGradient>
	<path class="st3" d="m381 358.9c-68.3 38.8-134.8 36-160 4-4.9-6.2-13.5-20.1-12-46.5-21.9 14.3-58.9 34.6-109 44.5-41.1 8.1-76.2 6.2-100 3v267.8h864.4s-5.4-304.9 0-299.8c-20.4-49-208.4-62-208.4-62 67 80-275 89-275 89z"/>
	<path class="st2" d="m0.1 363.5c4.5 0.5 9.1 1.1 13.6 1.4 4.5 0.5 9.1 0.7 13.6 0.9l6.8 0.2 6.8 0.1c4.5 0 9.1-0.1 13.6-0.4 2.3-0.1 4.5-0.3 6.8-0.4l3.4-0.3 3.4-0.4 3.4-0.4 3.4-0.5c2.2-0.3 4.5-0.6 6.7-1 4.5-0.7 8.9-1.6 13.3-2.6 2.2-0.5 4.4-1 6.6-1.6s4.4-1.1 6.5-1.8l3.2-1 3.2-1c2.2-0.7 4.4-1.4 6.5-2.1l6.3-2.3 6.3-2.4c2.1-0.8 4.2-1.7 6.3-2.5 2.1-0.9 4.2-1.7 6.3-2.6l6.3-2.7 6.2-2.8c2.1-0.9 4.1-1.9 6.2-2.8s4.1-1.9 6.2-2.9c4.1-1.9 8.2-4 12.2-6l12.2-6.2 6-3.1 6.2-3.3 5.6-3-0.5 6.5c-0.3 4.3-0.5 8.5-0.4 12.7 0.2 4.2 0.7 8.4 1.6 12.5s2.2 8.1 4 11.8c0.9 1.9 1.9 3.7 3.1 5.4l0.4 0.6 0.1 0.2 0.1 0.1s0.1 0.1 0-0.1l0.3 0.3 1 1.3 1 1.3 1 1.1c2.7 3 5.9 5.9 9.3 8.3 3.5 2.4 7.2 4.4 11.1 6.2s8 3.1 12.2 4.2 8.5 1.9 12.7 2.5c2.2 0.2 4.3 0.5 6.5 0.6 1.1 0.1 2.2 0.2 3.3 0.2l3.3 0.1c2.2 0.1 4.4 0 6.5 0 2.2-0.1 4.4-0.2 6.5-0.4 2.2-0.2 4.4-0.3 6.5-0.6l3.3-0.4 3.2-0.5c4.3-0.7 8.6-1.6 12.9-2.6 2.1-0.5 4.2-1.1 6.4-1.6l6.3-1.9c2.1-0.7 4.2-1.4 6.2-2.1 2.1-0.8 4.1-1.5 6.2-2.3 2-0.8 4.1-1.6 6.1-2.5l6-2.7c2-0.9 4-1.9 5.9-2.8l5.9-3 0.2-0.1h0.3c7-0.6 13.9-1.1 20.9-1.8l20.9-2c13.9-1.4 27.8-2.9 41.7-4.6 6.9-0.8 13.9-1.7 20.8-2.6s13.8-1.8 20.7-2.8 13.8-2 20.7-3.1 13.8-2.2 20.6-3.4c13.7-2.4 27.4-5 40.9-8.2s26.9-6.8 39.8-11.4c6.5-2.3 12.8-4.9 18.8-7.9s11.8-6.5 16.3-10.9c4.6-4.3 7.5-9.6 7.1-15.1-0.2-2.8-1.1-5.6-2.5-8.3s-3.3-5.3-5.4-7.8l-5.7-6.6 8.6-0.2c4.7-0.1 9.3-0.2 14-0.2h3.5l3.5 0.1c2.3 0.1 4.7 0.1 7 0.2 4.7 0.3 9.3 0.5 14 0.9 4.7 0.3 9.3 0.9 13.9 1.4 2.3 0.2 4.6 0.6 6.9 0.9s4.6 0.6 6.9 1l6.9 1.2 3.4 0.6 3.4 0.7 6.8 1.5c2.3 0.5 4.5 1.1 6.8 1.7s4.5 1.1 6.8 1.8l6.7 2c4.5 1.3 8.9 2.9 13.3 4.4l3.3 1.1 3.3 1.3 6.5 2.6c2.2 0.8 4.3 1.8 6.4 2.7l6.4 2.9 1.6 0.7 1.6 0.8 3.1 1.6 6.2 3.1c1 0.5 2.1 1.1 3.1 1.6l3 1.7 6.1 3.5c4 2.3 7.9 4.8 11.8 7.4s7.7 5.2 11.4 7.9 7.4 5.6 11 8.5l-0.5 0.6c-3.8-2.7-7.6-5.2-11.5-7.7s-7.8-4.9-11.8-7.3c-4-2.3-8-4.6-12.1-6.7l-6.2-3.1-3.1-1.6c-1-0.5-2-1-3.1-1.5l-6.3-2.8-3.1-1.4-1.6-0.7-1.6-0.6-6.4-2.5c-2.1-0.8-4.2-1.7-6.4-2.5l-6.5-2.3-3.2-1.1-3.3-1c-4.4-1.3-8.7-2.8-13.2-3.9l-6.6-1.8c-2.2-0.6-4.5-1-6.7-1.5s-4.5-1-6.7-1.5l-6.7-1.3-3.4-0.6-3.4-0.5-6.8-1c-2.3-0.4-4.5-0.6-6.8-0.9s-4.5-0.6-6.8-0.8c-4.6-0.4-9.1-0.9-13.7-1.1-4.6-0.3-9.1-0.5-13.7-0.6-2.3-0.1-4.6-0.1-6.9-0.1h-6.8c-4.6 0-9.1 0.2-13.7 0.3l3-6.8c2.5 2.8 4.7 5.9 6.6 9.3 1.8 3.5 3.3 7.4 3.6 11.6 0 0.5 0.1 1 0.1 1.6v2.8l-0.1 0.4c-0.1 0.5-0.1 1.1-0.3 1.6-0.4 2.1-1.1 4.1-2 6-1.8 3.7-4.4 6.8-7.2 9.5s-5.8 4.9-8.9 7c-3.1 2-6.3 3.8-9.5 5.4-6.5 3.2-13.1 5.9-19.9 8.2-13.5 4.6-27.2 8.1-40.9 11.2-13.8 3-27.6 5.5-41.4 7.7-6.9 1.1-13.9 2.1-20.8 3.1-6.9 0.9-13.9 1.8-20.9 2.6-13.9 1.6-27.9 3-41.8 4.2-14 1.2-27.9 2.3-41.9 3.2l-41.9 2.7 0.5-0.2-6 3-6 2.8c-2 0.9-4.1 1.8-6.1 2.7s-4.1 1.7-6.2 2.5-4.2 1.5-6.3 2.3l-6.3 2.1-6.4 1.9c-2.1 0.6-4.3 1.2-6.4 1.7-4.3 1.1-8.7 2-13 2.8l-3.3 0.6-3.3 0.5c-2.2 0.3-4.4 0.6-6.6 0.8-2.2 0.3-4.4 0.3-6.7 0.5l-3.3 0.1c-1.1 0-2.2 0.1-3.4 0.1h-3.4c-1.1 0-2.2-0.1-3.4-0.1-2.2 0-4.5-0.3-6.7-0.4-4.5-0.5-8.9-1-13.3-2.1-4.4-1-8.8-2.2-13-3.9s-8.4-3.7-12.3-6.2l-2.9-1.9c-0.9-0.7-1.8-1.4-2.8-2.1-0.9-0.7-1.8-1.5-2.6-2.3-0.9-0.7-1.7-1.6-2.5-2.5l-1.2-1.3-1.1-1.3-1.1-1.3-0.3-0.3-0.3-0.4-0.5-0.7c-1.4-1.9-2.6-3.9-3.7-6s-2-4.2-2.9-6.4c-0.8-2.2-1.5-4.4-2-6.7-1.1-4.5-1.7-9.1-2-13.7s-0.1-9.2 0.3-13.7l5 3.6-0.5 0.3-0.8 0.4-1.5 0.8-3 1.6-6.1 3.2c-4.1 2.1-8.2 4.2-12.3 6.2s-8.3 4-12.4 5.9c-2.1 1-4.2 1.9-6.3 2.9-2.1 0.9-4.2 1.9-6.3 2.8l-6.3 2.7-6.4 2.6c-2.1 0.9-4.3 1.7-6.4 2.5s-4.3 1.7-6.5 2.5l-6.5 2.4-6.6 2.2c-2.2 0.8-4.4 1.3-6.6 2l-3.3 1-3.4 0.9c-2.2 0.6-4.5 1.1-6.7 1.6-2.3 0.5-4.5 1-6.8 1.4-4.5 0.9-9.1 1.6-13.7 2.2l-3.4 0.4c-1.1 0.1-2.3 0.2-3.4 0.3l-3.4 0.3-3.5 0.2-3.4 0.2-3.5 0.1c-2.3 0.1-4.6 0.2-6.9 0.2-4.6 0.1-9.2-0.1-13.8-0.3l-6.9-0.4-6.9-0.6c-4.6-0.5-9.1-1-13.6-1.8-4.5-0.7-9-1.6-13.5-2.4l0.5-0.3z"/>
	<linearGradient id="h" x1="439" x2="439" y1="634.28" y2="324.94" gradientUnits="userSpaceOnUse">
		<stop stop-color="#0084A1" offset="0"/>
		<stop stop-color="#93C4C9" offset="1"/>
	</linearGradient>
	<path class="st4" d="m242.8 395.1s180-28.4 151-62.8 258 62.8 258 62.8 168-2.9 160-22.6l59.4 14.7v244.1s-864.4 6.7-864.4 0 0-245.1 0-245.1c26 38.3 236 8.9 236 8.9z"/>
	<path class="st5" d="m-41 172.9"/>
	<path class="st2" d="m4.8 388.3c-0.5 0.1-1 0.2-1.5 0.2s-1 0.1-1.4 0.1l-1.4 0.1h-1.4l2.5-4.5c2.4 2 5.5 3.6 8.6 4.9 3.2 1.3 6.5 2.3 9.9 3.1 6.9 1.8 13.9 2.9 20.9 3.8 14.1 1.6 28.4 2.3 42.6 2.4 14.3 0.2 28.6-0.1 42.9-0.7s28.6-1.5 42.9-2.4c14.3-1 28.6-2.1 42.9-3.5s28.6-2.9 42.8-4.9c7.1-1 14.2-2 21.3-3.2s14.1-2.5 21.2-3.9c14.1-2.9 28-6.2 41.7-10.5 6.8-2.1 13.6-4.4 20.2-7.2 3.3-1.4 6.5-2.8 9.7-4.4s6.2-3.3 9.1-5.3c2.8-2 5.5-4.2 7.4-6.8 0.9-1.3 1.6-2.7 1.9-4 0.3-1.4 0.2-2.7-0.3-4-0.2-0.7-0.6-1.3-1-1.9-0.2-0.3-0.4-0.6-0.7-0.9-0.1-0.2-0.2-0.3-0.4-0.4l-0.4-0.5c-0.7-0.8-1.3-1.6-1.8-2.8-0.3-0.6-0.5-1.3-0.6-2.2s0.2-2.1 0.8-2.9c0.6-0.9 1.4-1.4 2-1.7 0.7-0.3 1.3-0.5 1.8-0.6 1.1-0.3 2.2-0.4 3.2-0.4 2-0.1 3.9 0 5.8 0.2 7.4 0.7 14.6 2.2 21.7 3.7 7.1 1.6 14.1 3.3 21.1 5.1s14 3.7 20.9 5.7 13.9 4 20.8 6.1c13.8 4.1 27.6 8.4 41.3 12.6l41.3 12.7 20.6 6.2c6.9 2.1 13.7 4.1 20.6 6s13.8 3.8 20.7 5.4c3.4 0.8 6.9 1.6 10.3 2.2 1.7 0.3 3.4 0.6 5 0.8s3.3 0.3 4.6 0.3h0.8c3.3 0.4 6.7 0.8 10 1.1 1.7 0.2 3.3 0.3 5 0.4s3.3 0.3 5 0.4c3.3 0.2 6.7 0.4 10 0.5l5 0.2 5 0.1c3.3 0 6.7 0 10-0.1s6.7-0.2 10-0.4 6.7-0.5 10-0.8 6.7-0.7 10-1.1c6.7-0.9 13.3-1.9 19.9-3.3 3.3-0.7 6.6-1.4 9.9-2.1 3.3-0.8 6.5-1.6 9.8-2.4 3.3-0.9 6.5-1.7 9.8-2.7 3.2-0.9 6.5-1.9 9.7-2.9s6.4-2.1 9.7-3.1l9.6-3.3 1.3-0.5 1.1 0.7 3.2 2.2 3.2 2.1c1.1 0.7 2.2 1.3 3.3 2 1.1 0.6 2.2 1.3 3.4 1.9 2.3 1.2 4.6 2.4 7 3.4l3.6 1.5c1.2 0.4 2.4 0.9 3.6 1.3s2.5 0.8 3.7 1.1 2.5 0.7 3.8 0.9c1.3 0.3 2.5 0.5 3.8 0.7s2.6 0.4 3.8 0.5c2.6 0.2 5.2 0.3 7.7 0.1 1.3-0.1 2.6-0.2 3.9-0.4s2.6-0.5 3.7-0.9l0.4 0.9c-1.3 0.5-2.6 0.9-3.9 1.2s-2.6 0.6-4 0.8c-1.3 0.2-2.7 0.3-4 0.4s-2.7 0.1-4 0.1-2.7-0.1-4-0.2-2.7-0.2-4-0.5c-1.3-0.2-2.7-0.4-4-0.7s-2.6-0.6-3.9-0.9-2.6-0.7-3.9-1.1-2.6-0.8-3.8-1.3c-2.5-0.9-5-2-7.5-3.1-1.2-0.5-2.4-1.2-3.6-1.8s-2.4-1.3-3.6-1.9l-3.5-2-3.4-2.1 2.4 0.3c-6.3 2.6-12.7 5.2-19.1 7.5-3.2 1.2-6.5 2.3-9.7 3.4s-6.5 2.2-9.8 3.2-6.6 2-9.9 2.9-6.7 1.7-10 2.5c-6.7 1.6-13.5 2.9-20.3 4.1-6.8 1.1-13.7 2-20.6 2.6-3.4 0.3-6.9 0.5-10.3 0.7-3.5 0.2-6.9 0.3-10.4 0.4l-5.2 0.1h-5.2c-3.5-0.1-6.9-0.2-10.4-0.4-1.7-0.1-3.4-0.2-5.2-0.3-1.7-0.1-3.4-0.2-5.2-0.4-3.4-0.3-6.9-0.6-10.3-0.9h0.8c-2.3 0.1-4.2-0.1-6.2-0.3-1.9-0.2-3.8-0.5-5.6-0.8-3.7-0.7-7.3-1.4-10.8-2.3-7.1-1.7-14.1-3.6-21.1-5.6s-13.9-4-20.8-6.1-13.8-4.3-20.6-6.5c-13.7-4.4-27.4-8.8-41.1-13.3l-41-13.4-20.5-6.5c-6.8-2.2-13.7-4.3-20.6-6.4s-13.7-4.1-20.6-5.9-13.8-3.5-20.7-4.5c-1.7-0.2-3.4-0.4-5-0.4-0.8 0-1.6 0.1-2.2 0.2-0.3 0.1-0.6 0.1-0.7 0.2-0.2 0.1-0.2 0.1-0.1 0s0.1-0.4 0.1-0.4 0 0.2 0.1 0.4c0.2 0.5 0.6 1.1 1.1 1.7l0.4 0.5c0.2 0.2 0.3 0.4 0.5 0.6 0.3 0.4 0.6 0.9 0.9 1.3 0.5 0.9 1 1.9 1.3 2.9 0.7 2.1 0.8 4.5 0.2 6.6-0.5 2.1-1.6 4-2.8 5.6-2.5 3.2-5.5 5.5-8.6 7.5-6.3 4-12.9 7-19.7 9.7-6.8 2.6-13.6 4.9-20.6 7-13.9 4.1-27.9 7.6-41.9 10.8-7 1.6-14.1 3.1-21.2 4.5s-14.1 2.8-21.2 4.1c-28.4 5.3-57 9.6-85.7 12.2-14.4 1.4-28.8 2.3-43.3 2.7s-28.9 0.6-43.4 0.1c-7.2-0.3-14.5-0.6-21.7-1.2s-14.5-1.3-21.7-2.5c-7.2-1.1-14.4-2.6-21.5-4.7-3.6-1.1-7.1-2.3-10.5-3.9s-6.8-3.5-9.8-6.3l2.5-4.5c0.4 0.3 0.8 0.5 1.1 0.8l1.1 0.9c0.4 0.3 0.7 0.6 1.1 0.9s0.7 0.7 1 1l-0.5 0.7z"/>
	<path class="st2" d="m439 120.9c0.9-0.8 1.9-1.5 2.9-2.2s1.9-1.5 2.8-2.2 1.8-1.5 2.8-2.3c0.9-0.7 1.8-1.6 2.7-2.4l1.3-1.2 1.3-1.2 1.3-1.2 1.2-1.3 1.2-1.3c0.4-0.4 0.8-0.9 1.2-1.3l1.1-1.3 1.1-1.4 1.1-1.4 1-1.4 1-1.4 0.9-1.5c0.3-0.5 0.6-1 0.8-1.5l0.7-1.5c0.5-1 0.9-2 1.3-3.1l0.3-0.8 0.2-0.8 0.5-1.6c0.3-1.1 0.5-2.2 0.7-3.2 0.2-1.1 0.3-2.2 0.4-3.3l0.1-3.3 0.3-8.3 5.1 6.5 2.1 2.7c0.7 0.9 1.5 1.7 2.3 2.6 0.7 0.9 1.6 1.7 2.4 2.5s1.7 1.6 2.5 2.3c0.8 0.8 1.8 1.5 2.7 2.2s1.9 1.3 2.8 2 2 1.2 3 1.8 2 1.1 3.1 1.6c1 0.5 2.1 0.9 3.2 1.4s2.2 0.8 3.3 1.2 2.3 0.6 3.4 1c1.1 0.3 2.3 0.5 3.5 0.8 1.2 0.2 2.3 0.4 3.5 0.7 1.2 0.2 2.4 0.3 3.6 0.5l3.6 0.4 3.6 0.3c-1.2 0.2-2.4 0.4-3.6 0.6l-3.7 0.4c-1.2 0.1-2.5 0.1-3.7 0.2h-3.7c-1.2-0.1-2.5-0.2-3.7-0.3-1.2-0.2-2.5-0.3-3.7-0.6s-2.5-0.5-3.7-0.9-2.5-0.7-3.6-1.2c-1.2-0.5-2.4-0.9-3.5-1.4-1.2-0.5-2.3-1.1-3.4-1.7s-2.2-1.3-3.3-2-2.1-1.4-3.1-2.3c-1-0.8-2-1.6-2.9-2.5s-1.9-1.7-2.7-2.7-1.7-1.9-2.5-2.8l-2.4-3 5.4-1.8c-0.1 1.3-0.1 2.6-0.2 3.9-0.2 1.3-0.3 2.6-0.6 3.9s-0.6 2.5-1 3.8l-0.6 1.8-0.3 0.9-0.4 0.9c-0.5 1.2-1 2.4-1.7 3.5-0.6 1.1-1.3 2.2-2 3.3l-1.1 1.6-1.2 1.5-1.2 1.5-1.3 1.4c-0.4 0.5-0.9 0.9-1.3 1.4l-1.4 1.3c-0.5 0.4-0.9 0.9-1.4 1.3l-1.4 1.2-1.4 1.2-1.6 0.6-1.5 1.1-1.5 1c-1 0.7-2.1 1.3-3.1 1.9-1.1 0.6-2.1 1.2-3.2 1.8-1.1 0.5-2.2 1.1-3.3 1.6-1.2 0.5-2.3 1-3.4 1.5z"/>
	<path class="st2" d="m319 172.9c0.4-0.6 0.8-1.2 1.2-1.7 0.4-0.6 0.8-1.2 1.2-1.7 0.4-0.6 0.8-1.2 1.1-1.7 0.4-0.6 0.7-1.2 1.1-1.8 0.3-0.6 0.7-1.2 1-1.8l0.9-1.8c0.2-0.6 0.6-1.2 0.7-1.8 0.2-0.6 0.5-1.2 0.6-1.9 0.2-0.6 0.4-1.2 0.5-1.9 0.1-0.6 0.2-1.3 0.3-1.9l0.1-0.9v-0.9c0-0.6 0-1.2-0.1-1.9 0-0.6-0.1-1.2-0.2-1.8s-0.3-1.2-0.4-1.8l-0.6-1.8-0.7-1.8-2.6-6.4 6 3.2c1.4 0.7 2.8 1.5 4.3 2.1 0.7 0.3 1.4 0.7 2.2 1 0.7 0.3 1.5 0.6 2.2 0.9 1.5 0.6 3 1.2 4.5 1.7 1.5 0.6 3.1 1.1 4.6 1.6s3.1 1 4.7 1.5l4.7 1.4 4.8 1.4 4.8 1.5c-1.7 0.1-3.4 0-5 0-0.8 0-1.7-0.1-2.5-0.1-0.8-0.1-1.7-0.1-2.5-0.2-3.3-0.3-6.7-0.8-10-1.5-1.7-0.3-3.3-0.7-4.9-1.2s-3.3-0.9-4.9-1.5l-2.4-0.9c-0.8-0.3-1.6-0.7-2.4-1-1.6-0.7-3.1-1.5-4.6-2.3l3.5-3.2c0.3 0.7 0.6 1.4 0.8 2.2 0.2 0.7 0.4 1.5 0.6 2.2 0.1 0.8 0.3 1.5 0.4 2.3s0.2 1.5 0.1 2.3c0 0.8 0 1.6-0.1 2.3l-0.1 1.2-0.2 1.1c-0.1 0.8-0.4 1.5-0.6 2.2s-0.5 1.4-0.8 2.1-0.7 1.3-1 2-0.8 1.3-1.2 1.9-0.9 1.2-1.3 1.8-0.9 1.1-1.4 1.7-1 1.1-1.5 1.6-1 1-1.6 1.5-1.1 1-1.6 1.4c-0.6 0.3-1.1 0.7-1.7 1.1z"/>
	<path class="st2" d="m599 208.9c0.4-1.3 0.9-2.5 1.3-3.7l1.3-3.7c0.4-1.2 0.8-2.5 1.2-3.7s0.8-2.5 1.1-3.7l0.5-1.9 0.5-1.9c0.3-1.3 0.6-2.5 0.9-3.8s0.5-2.5 0.7-3.8 0.4-2.5 0.5-3.8 0.3-2.5 0.3-3.8l0.1-1.9v-1.9l-0.1-1.9-0.2-1.8c-0.1-0.6-0.1-1.2-0.2-1.8l-0.3-1.8c-0.2-1.2-0.6-2.4-0.9-3.5-0.1-0.3-0.1-0.6-0.2-0.9l-0.3-0.8-0.6-1.7c-0.4-1.1-1-2.2-1.5-3.3-0.6-1.1-1.2-2.1-1.8-3.1l-5.2-9.1 9.5 4.2 4.9 2.2 4.9 2.1 5 2c1.7 0.7 3.3 1.2 5 1.9 1.7 0.6 3.4 1.2 5 1.8 1.7 0.6 3.4 1.1 5.1 1.7s3.4 1 5.1 1.6c1.7 0.5 3.4 1 5.2 1.5 1.7 0.5 3.5 0.9 5.2 1.4s3.5 0.8 5.2 1.3c0.9 0.2 1.7 0.4 2.6 0.6l2.6 0.6c1.8 0.4 3.5 0.7 5.3 1.1l5.3 1c1.8 0.3 3.6 0.6 5.3 0.9l5.4 0.9c1.8 0.3 3.6 0.5 5.4 0.8-1.8 0.1-3.6 0.3-5.5 0.4l-5.5 0.1c-1.8 0-3.7 0-5.5-0.1s-3.7-0.1-5.5-0.3-3.7-0.3-5.5-0.5-3.7-0.4-5.5-0.6c-1.8-0.3-3.6-0.5-5.4-0.8s-3.6-0.6-5.4-1-3.6-0.7-5.4-1.2c-1.8-0.4-3.6-0.9-5.3-1.4-1.8-0.5-3.6-0.9-5.3-1.5-1.8-0.6-3.5-1.1-5.3-1.7-1.7-0.6-3.5-1.2-5.2-1.9s-3.4-1.3-5.1-2l-5.1-2.2-5-2.3 4.3-4.9c0.7 1.3 1.4 2.5 2 3.8s1.2 2.6 1.6 4l0.6 2 0.3 1c0.1 0.3 0.2 0.7 0.2 1 0.3 1.4 0.6 2.8 0.8 4.2l0.2 2.1c0.1 0.7 0.1 1.4 0.1 2.1l0.1 2.1-0.1 2.1c0 0.7-0.1 1.4-0.1 2.1l-0.3 2.1c-0.1 1.4-0.4 2.7-0.7 4.1-0.2 1.4-0.6 2.7-1 4-0.3 1.3-0.8 2.6-1.2 3.9s-0.9 2.5-1.4 3.8c-0.2 0.6-0.5 1.2-0.7 1.9l-0.8 1.8c-0.5 1.2-1.1 2.4-1.7 3.6s-1.2 2.4-1.9 3.5c-0.7 1.2-1.3 2.3-2 3.4-0.5 0.8-1.2 1.9-1.9 3z"/>
	<path class="st6" d="m508.5 525c14.3-27.2 46.7-39.9 97-38 3.4-7.3 7.9-16.9 13-28 0 0-6.6 20.6 0 22.7 5 3.9 19 10.3 19 10.3h-26s-22.5 19-38.5 33-64.5 0-64.5 0z"/>
	<path class="st6" d="m661.3 494.6c8.3-13.6 27-19.9 56.1-19 2-3.7 4.5-8.5 7.5-14 0 0-3.8 10.3 0 11.4 2.9 2 11 5.1 11 5.1h-15s-13 9.5-22.3 16.5-37.3 0-37.3 0z"/>
	<path class="st6" d="m622.2 450.6c10.8-11.7 30.4-14.2 58.8-7.5 2.7-3.2 6.1-7.4 10.1-12.2 0 0-5.8 9.3-2.2 11.1 2.4 2.5 9.8 7.2 9.8 7.2l-14.8-3s-14.6 6.7-25.1 11.8c-10.5 5-36.6-7.4-36.6-7.4z"/>
	<path class="st6" d="m710.8 498.1c8.4-8.1 24-9.5 46.7-4.2 2.1-2.2 4.7-5.1 7.9-8.5 0 0-4.4 6.5-1.6 7.8 2 1.8 7.9 5.3 7.9 5.3l-11.8-2.4s-11.5 4.5-19.8 7.9-29.3-5.9-29.3-5.9z"/>
	<path class="st6" d="m375.2 555.8c8.5-32.7 39.5-53.9 92.8-63.6 1.8-8.7 4.2-20.1 6.9-33.2 0 0-2 23.7 5.4 24.5 6.2 3.1 22.4 6.6 22.4 6.6l-27.3 6.1s-19.1 25.7-32.5 44.6-67.7 15-67.7 15z"/>
</svg>
