<?xml version="1.0" encoding="UTF-8" standalone="no"?>
<!-- Created with Inkscape (http://www.inkscape.org/) -->

<svg
   xmlns:dc="http://purl.org/dc/elements/1.1/"
   xmlns:cc="http://creativecommons.org/ns#"
   xmlns:rdf="http://www.w3.org/1999/02/22-rdf-syntax-ns#"
   xmlns:svg="http://www.w3.org/2000/svg"
   xmlns="http://www.w3.org/2000/svg"
   xmlns:sodipodi="http://sodipodi.sourceforge.net/DTD/sodipodi-0.dtd"
   xmlns:inkscape="http://www.inkscape.org/namespaces/inkscape"
   width="210mm"
   height="297mm"
   viewBox="0 0 744.09448819 1052.3622047"
   id="svg2"
   version="1.1"
   inkscape:version="0.91 r"
   sodipodi:docname="water.svg">
  <defs
     id="defs4" />
  <sodipodi:namedview
     id="base"
     pagecolor="#ffffff"
     bordercolor="#666666"
     borderopacity="1.0"
     inkscape:pageopacity="0.0"
     inkscape:pageshadow="2"
     inkscape:zoom="0.7"
     inkscape:cx="135"
     inkscape:cy="677.27946"
     inkscape:document-units="px"
     inkscape:current-layer="layer3"
     showgrid="false"
     inkscape:snap-bbox="false"
     inkscape:object-paths="false"
     inkscape:window-width="1366"
     inkscape:window-height="716"
     inkscape:window-x="0"
     inkscape:window-y="0"
     inkscape:window-maximized="1" />
  <metadata
     id="metadata7">
    <rdf:RDF>
      <cc:Work
         rdf:about="">
        <dc:format>image/svg+xml</dc:format>
        <dc:type
           rdf:resource="http://purl.org/dc/dcmitype/StillImage" />
        <dc:title></dc:title>
      </cc:Work>
    </rdf:RDF>
  </metadata>
  <g
     inkscape:label="Layer 1"
     inkscape:groupmode="layer"
     id="layer1">
    <rect
       style="fill:#552200;stroke-width:8.19999981;stroke-miterlimit:4;stroke-dasharray:none"
       id="rect4172"
       width="742.85712"
       height="1060"
       x="2.8571429"
       y="-4.7806525" />
    <path
       style="fill:none;fill-rule:evenodd;stroke:#ffb380;stroke-width:1px;stroke-linecap:butt;stroke-linejoin:miter;stroke-opacity:1"
       d="m 231.42857,49.505062 c 88.23075,51.298828 237.50834,86.960118 325.71429,42.857143 14.65553,-7.327766 28.41378,-40.157643 40,-28.571429 10.49517,10.495178 20.99508,74.413824 25.71428,88.571424 8.18904,24.56711 32.85976,37.14808 45.71429,62.85715 51.90854,103.81707 11.63696,227.73785 -14.28572,331.42857 -14.8625,59.45 20,182.33939 20,257.14286 0,45.99367 40.92615,130.50242 37.14286,134.28571 -21.10239,21.10239 -40.75832,37.90118 -77.14286,74.28571 C 604.19183,1042.4561 365.63548,1000.776 360,989.50506 c -2.44643,-4.89286 -67.66505,12.39014 -77.14286,14.28574 -84.22395,16.8448 -175.246,-6.91467 -219.999997,-62.85717 C 37.263622,908.94173 68.972664,827.45039 48.571429,786.64792 39.635299,768.77566 13.340006,675.19933 14.285714,672.3622 30.77372,622.89819 82.857143,580.38163 82.857143,518.07649 c 0,-40.6894 -57.557886,-41.24509 -57.142857,-40 0.3515,1.0545 2.857143,-28.86093 2.857143,-31.42857 0,-28.82058 2.857142,-66.93708 2.857142,-105.71429 0,-24.80072 44.175538,-36.48552 34.285715,-105.71428 C 59.611135,192.4973 10.891399,182.54515 28.571429,129.50506 52.840196,56.698759 171.32153,-10.601983 231.42857,49.505062 Z"
       id="path4176"
       inkscape:connector-curvature="0" />
    <path
       style="fill:#0000ff;stroke:#ffb380;stroke-width:23.4285717;stroke-miterlimit:4;stroke-dasharray:none"
       d="m 503.85714,1016.579 c -46.61928,-5.4057 -101.28243,-15.1348 -123.36428,-21.95674 -25.38349,-7.84197 -35.67349,-7.52031 -75.20715,2.35074 -29.11929,7.2707 -37.8951,8.2032 -77.14285,8.1964 -37.44744,-0.01 -47.71975,-1.0019 -66.52502,-6.44628 C 118.46235,986.22889 79.246717,961.83269 63.16968,937.47815 L 55.285714,925.535 56.11294,865.29455 56.940163,805.05412 47.121134,777.92863 C 32.605361,737.82815 15.950625,675.72943 17.791241,668.5694 19.434301,662.17789 34.801523,634.87832 56.525483,599.75875 71.437351,575.6518 81.18238,550.44418 83.851514,529.074 87.402431,500.64395 74.585857,484.66378 42.758774,477.83809 l -14.960866,-3.20854 1.546713,-21.86912 c 0.850692,-12.028 2.295286,-43.72625 3.21021,-70.44054 l 1.663497,-48.57143 12.884341,-18.9108 c 16.652862,-24.44199 20.789371,-36.59705 20.789371,-61.0892 0,-25.29191 -3.989097,-36.3068 -21.927657,-60.54769 C 27.888887,168.77484 24.002747,155.65402 29.064355,136.14102 43.588689,80.148262 111.14638,29.687418 171.80605,29.523011 c 25.05476,-0.06791 35.88528,3.498368 56.43416,18.582629 17.54615,12.880056 48.95759,27.387016 86.27459,39.844782 84.16577,28.097588 164.21431,33.188188 221.92886,14.113328 19.80117,-6.544362 24.8822,-9.675742 37.23394,-22.946917 7.86703,-8.452603 16.17623,-15.368371 18.46489,-15.368371 5.34002,0 13.4878,21.975346 21.71642,58.571428 7.85475,34.93317 12.11886,43.65054 32.55463,66.55333 17.93023,20.09478 23.96329,30.77285 32.61857,57.73238 C 688.02566,274.61879 691,295.7449 691,331.61066 c 0,44.62089 -6.4362,85.39134 -25.14477,159.28066 -15.24826,60.22286 -15.9074,64.35391 -15.72769,98.57143 0.128,24.35603 3.01675,54.79614 9.08346,95.71428 4.89274,33 10.20854,76.71429 11.81289,97.14286 3.82434,48.69646 6.38028,60.4452 24.26054,111.51617 l 15.0352,42.94477 -39.8162,38.15997 c -25.3956,24.33923 -43.64003,39.5253 -50.37409,41.9298 -13.4612,4.8066 -73.6062,4.6557 -116.2722,-0.2916 z"
       id="path4180"
       inkscape:connector-curvature="0" />
  </g>
  <g
     inkscape:groupmode="layer"
     id="layer2"
     inkscape:label="Layer 2" />
  <path
     style="opacity:0.52599996;fill:#00ffff;stroke:#f4e3d7;stroke-width:8.19999981;stroke-miterlimit:4;stroke-dasharray:none"
     id="path4197"
     d="m 199.27601,204.84751 c 10.22132,3.41234 20.73815,5.49643 31.40367,6.87234 4.64717,0.22475 9.36651,1.40819 14.04295,0.78821 3.93615,-0.52185 7.70565,-2.25628 11.36372,-3.69408 5.98494,-2.24945 12.12021,-4.07702 18.2814,-5.77753 2.78188,-0.98901 5.21759,-0.54212 7.30009,1.49901 1.64799,1.94417 1.75207,4.71284 1.93341,7.1544 1.0341,2.84601 1.80649,5.72386 2.32128,8.7285 0.63313,1.92587 -0.1009,4.32624 1.04145,6.0531 3.58247,1.87699 10.38724,0.92553 14.37874,0.94255 13.94005,-0.81489 27.5206,0.64507 41.16512,3.36789 8.00325,1.78065 15.98917,3.66973 24.11914,4.77887 2.30206,0.36754 4.61825,0.43437 6.94258,0.42976 3.02225,-0.0229 6.04453,-0.0385 9.06686,-0.0475 2.89633,-0.006 5.79267,-0.009 8.68901,-0.01 0,0 2.6e-4,10 2.6e-4,10 l 0,0 c -2.89544,7.6e-4 -5.79088,0.003 -8.68631,0.01 -3.02266,0.009 -6.04527,0.0246 -9.06785,0.0475 -2.36972,0.005 -4.73205,-0.06 -7.07955,-0.43067 -8.15179,-1.1024 -16.16059,-2.98274 -24.18148,-4.7799 -13.69253,-2.74363 -26.9818,-4.17374 -40.97204,-3.36595 -4.80691,-0.0205 -10.69908,0.81589 -15.21961,-0.97833 -1.80183,-1.63969 -1.18988,-3.85012 -1.59975,-6.11629 -0.47492,-3.02511 -0.84009,-6.07581 -2.42794,-8.7442 -0.0823,-2.31521 -0.094,-5.06168 -1.24824,-7.07381 -1.70425,-2.07196 -3.63451,-2.40487 -6.20544,-1.46857 -6.1275,1.69744 -12.22991,3.52098 -18.17823,5.77421 -9.8159,3.82389 -15.29117,4.66349 -25.90748,2.91201 -10.67507,-1.36889 -21.22685,-3.39865 -31.4409,-6.87289 0,0 0.16514,-9.99863 0.16514,-9.99863 z"
     inkscape:connector-curvature="0" />
  <path
     style="opacity:0.52599996;fill:#00ffff;stroke:#f4e3d7;stroke-width:8.19999981;stroke-miterlimit:4;stroke-dasharray:none"
     id="path4199"
     d="m 201.3717,394.57796 c 5.35004,-3.98985 11.31814,-6.84654 17.67476,-8.78488 4.89182,-1.43152 9.57467,0.11313 13.76556,2.69214 5.06125,3.1513 8.25382,7.9844 11.9286,12.48144 3.65651,4.11987 8.12949,6.88998 12.83806,9.66797 7.40731,3.61936 13.97354,8.63547 20.70742,13.33579 2.29349,0.98717 3.77068,5.09999 6.38507,5.42523 1.5187,-3.61067 4.76218,-6.30362 7.99443,-8.3777 5.2497,-2.69458 10.6486,-5.188 16.16262,-7.34016 6.56291,-2.77192 13.3355,-4.72541 20.38633,-5.66708 6.27794,-1.13592 12.55994,-2.27663 18.89539,-3.04512 2.29788,-0.075 4.74755,-0.89153 6.97653,-0.14039 2.63975,1.67211 3.93652,4.54166 6.32267,6.52632 5.85386,3.77869 11.03025,8.42939 16.479,12.75456 6.86862,5.05219 15.35864,6.49789 23.60905,7.64069 9.08615,0.88836 18.26467,1.31172 27.17203,3.43944 4.86959,1.57037 9.44881,2.90871 14.56647,2.45555 5.42054,-0.70224 10.87771,-0.94782 16.29092,-1.69567 0,0 0.13625,9.99907 0.13625,9.99907 l 0,0 c -5.43061,0.73899 -10.90292,0.99931 -16.34031,1.69622 -5.23197,0.44825 -9.9227,-0.80065 -14.89064,-2.45798 -8.86307,-2.1715 -18.023,-2.53569 -27.07169,-3.43757 -8.41488,-1.15424 -17.07251,-2.62651 -24.14138,-7.66217 -5.45849,-4.31249 -10.58649,-9.01908 -16.46749,-12.7538 -2.68794,-1.94429 -3.73857,-4.32018 -6.06684,-6.51274 -1.78143,-1.0353 -4.52575,0.32535 -6.45325,0.14774 -6.33052,0.77585 -12.60684,1.92151 -18.88296,3.04495 -6.97067,0.94511 -13.65613,2.92451 -20.1453,5.66096 -5.43673,2.1568 -10.81355,4.57499 -15.95553,7.33023 -3.49143,2.35994 -5.64424,5.58823 -8.6611,8.39429 -2.93747,-0.20491 -4.69101,-3.90671 -6.90927,-5.44343 -6.71499,-4.68694 -13.23555,-9.73899 -20.63059,-13.3314 -2.83876,-1.6702 -5.99698,-3.231 -8.58923,-5.29102 -2.17935,-1.7319 -0.99579,-1.30532 -2.94353,-3.14295 -0.50155,-0.4732 -1.09493,-0.83846 -1.64239,-1.25768 -3.75056,-4.31693 -6.59514,-9.36502 -11.63025,-12.4599 -3.85835,-2.59564 -8.29038,-4.06219 -12.89614,-2.68029 -6.23403,1.93639 -12.08071,4.80105 -17.29904,8.76658 0,0 -0.67423,-9.97724 -0.67423,-9.97724 z"
     inkscape:connector-curvature="0" />
  <path
     style="opacity:0.52599996;fill:#00ffff;stroke:#f4e3d7;stroke-width:8.19999981;stroke-miterlimit:4;stroke-dasharray:none"
     id="path4201"
     d="m 160.91963,671.38773 c 6.02522,-6.55379 11.15223,-13.81066 16.7469,-20.70511 5.03826,-6.04719 9.24865,-12.8615 15.17512,-18.1022 1.49667,-1.04324 3.50183,-3.56053 4.92327,-1.33112 0.71611,6.90055 0.25752,13.89596 0.21541,20.83509 -0.029,4.97768 -0.0427,9.95544 -0.0518,14.93319 -0.007,5.96821 -0.0125,-3.74065 0.23435,-6.47314 0.0908,-1.00474 0.36168,2.10527 1.69277,3.36744 7.69713,2.81962 15.89315,3.78241 23.97794,4.81253 11.51244,0.80391 22.99577,1.55764 34.47351,2.79321 5.15706,0.57639 2.74231,0.16081 7.25892,1.15831 0,0 -0.22074,9.99756 -0.22074,9.99756 l 0,0 c -4.40384,-1.00462 -2.02798,-0.58396 -7.14547,-1.15645 -11.48412,-1.23756 -22.97308,-1.99629 -34.49271,-2.79343 -8.25236,-1.04756 -16.55907,-2.10764 -24.45381,-4.82989 -5.32472,-2.91846 -2.30928,-12.0161 -2.88719,-16.75332 0.0102,-4.97796 0.0255,-9.95593 0.0557,-14.93381 0.005,-0.87206 0.0105,-1.74413 0.0149,-2.61619 0.0528,-10.35793 0.0913,13.59141 -0.0194,1.56769 0.0794,-0.3435 0.79902,-0.98211 0.44727,-0.95843 -1.20331,0.081 -2.27412,1.97437 -3.28984,2.35385 -5.78594,5.32339 -9.97942,12.09586 -15.01637,18.08926 -5.54037,6.94015 -10.79037,14.09434 -16.74394,20.70484 0,0 -0.89485,-9.95988 -0.89485,-9.95988 z"
     inkscape:connector-curvature="0" />
  <path
     style="opacity:0.52599996;fill:#00ffff;stroke:#f4e3d7;stroke-width:8.19999981;stroke-miterlimit:4;stroke-dasharray:none"
     id="path4203"
     d="m 158.11762,880.29628 c 3.70904,-4.11163 8.47181,-6.83937 13.58885,-8.78775 7.26437,-2.64065 13.79661,-6.54813 21.04169,-9.30368 9.20871,-3.38071 18.84347,-5.0195 28.56149,-5.98667 3.60412,0.0674 7.54492,-1.07204 11.06999,-0.02 3.56327,2.38076 2.61358,8.93271 2.70841,12.69552 0.10655,9.18833 0.0687,18.37801 0.0112,27.56667 -0.003,0.46943 -0.047,1.87628 -0.0104,1.40828 0.2532,-3.23482 0.0224,-6.53034 0.66032,-9.71173 0.0911,-0.45427 0.94255,-0.10602 1.35189,-0.32306 2.8433,-1.50758 4.10676,-2.84468 7.4809,-4.31866 5.55738,-1.80052 10.87313,-4.22488 16.36867,-6.18652 2.04447,-0.83623 4.18041,-1.24708 6.37127,-1.41455 0.22283,-0.40232 0.3377,-0.84612 0.45546,-1.28657 0,0 1.15152,9.93348 1.15152,9.93348 l 0,0 c -0.39584,0.64757 -0.76211,1.10906 -1.52895,1.35278 -2.1045,0.16841 -4.14245,0.60594 -6.10478,1.40892 -5.46548,1.97239 -10.77516,4.34993 -16.29394,6.18367 -8.42067,3.83346 -11.8555,10.77386 -11.46044,-6.92385 0.01,-1.75405 0.0155,-2.61193 0.0223,-4.44816 0.004,-1.02808 0.005,-4.11233 0.009,-3.08425 0.0611,14.28074 -0.0138,2.62016 -0.0273,-0.27622 -0.0646,-3.61332 0.74957,-9.6611 -1.4959,-12.58121 -3.21165,-1.30034 -7.30206,0.29364 -10.63992,0.025 -9.63109,0.96481 -19.17728,2.60499 -28.29557,5.98048 -7.21743,2.7796 -13.76844,6.70158 -21.03867,9.30357 -4.99466,1.95677 -9.55704,4.73272 -13.17271,8.76371 0,0 -0.78459,-9.96917 -0.78459,-9.96917 z"
     inkscape:connector-curvature="0" />
  <path
     style="opacity:0.52599996;fill:#00ffff;stroke:#f4e3d7;stroke-width:8.19999981;stroke-miterlimit:4;stroke-dasharray:none"
     id="path4205"
     d="m 451.18306,889.53732 c 11.30329,-2.48148 22.37867,-5.61264 33.31703,-9.38661 9.35198,-3.17702 18.11828,-7.77914 27.2427,-11.46696 5.85273,-2.34994 11.9127,-4.00981 18.23531,-3.23425 5.93983,3.18394 5.00321,10.54019 3.28434,16.648 -0.60202,1.55867 -0.84557,3.14316 -0.99752,4.79371 0.0638,-3.3504 -0.93767,-6.89612 0.19138,-10.0512 0.38935,-1.08803 2.30834,-0.11556 3.46305,-0.16097 7.16306,-0.28168 14.32926,-0.42843 21.49647,-0.54947 9.00838,0.28313 17.93138,-0.72918 26.83991,-1.91992 3.90548,-0.26153 7.48532,-1.01023 11.11469,-2.38908 3.06831,-0.62205 5.7086,-2.22563 8.65447,-3.24054 0.42468,-0.13431 0.84935,-0.26861 1.27402,-0.40292 0,0 0.30899,9.99522 0.30899,9.99522 l 0,0 c -0.41577,0.13402 -0.83154,0.26804 -1.24732,0.40206 -2.91409,1.03026 -5.57613,2.61134 -8.6256,3.23953 -3.6928,1.41627 -7.39207,2.07206 -11.34657,2.39485 -8.94696,1.19229 -17.9093,2.20062 -26.9557,1.92079 -7.15718,0.12097 -14.31359,0.26606 -21.46657,0.54937 -1.13457,0.0449 -2.86882,1.16268 -3.4026,0.1605 -1.56648,-2.94111 -1.1692,-6.56118 -1.7538,-9.84177 0.21355,-1.64788 0.66423,-3.22317 1.13872,-4.81346 0.94601,-4.01693 0.0865,-0.73379 0.33445,7.96565 0.0105,0.36866 0.1461,-0.73003 0.13176,-1.09856 -0.067,-1.72166 -1.22016,-2.69984 -2.56189,-3.60257 -6.14914,-0.79626 -12.03909,0.955 -17.72281,3.22753 -9.1198,3.75413 -17.93692,8.26722 -27.29838,11.46897 -10.96876,3.76795 -22.07643,6.89253 -33.40358,9.3891 0,0 -0.24495,-9.997 -0.24495,-9.997 z"
     inkscape:connector-curvature="0" />
  <path
     style="opacity:0.52599996;fill:#00ffff;stroke:#f4e3d7;stroke-width:8.19999981;stroke-miterlimit:4;stroke-dasharray:none"
     id="path4207"
     d="m 409.54619,688.86771 c 7.51154,-5.83798 16.04329,-10.31537 24.25301,-15.11022 5.09258,-2.50875 10.77601,-6.704 16.55665,-4.22301 3.22948,2.54515 5.09454,6.52664 6.95757,10.12415 1.81446,5.49026 5.92051,9.51005 10.41983,12.93728 5.37591,3.79979 11.70902,4.89164 18.08669,5.69912 5.60786,0.52888 11.24538,0.56124 16.87304,0.56132 3.68751,-0.41271 7.12475,-1.10173 9.88844,-3.67398 0.99397,-1.73878 1.01915,-3.65677 1.03236,-5.59752 -0.0504,-3.98858 -0.0127,-1.36918 -0.019,7.85901 0,0 1.55322,-9.87864 1.55322,-9.87864 l 0,0 c 0.0169,11.21354 0.0677,7.24688 0.002,11.90097 -0.10524,2.08196 -0.39406,4.07903 -1.85061,5.69039 -3.05257,2.51657 -6.72188,3.2976 -10.60616,3.69977 -5.66944,-9e-5 -11.34839,-0.0348 -16.99828,-0.56211 -6.53635,-0.81856 -13.03564,-1.92171 -18.60014,-5.71875 -4.60716,-3.34337 -9.11024,-7.41543 -10.88281,-12.97774 -1.72464,-3.51861 -3.59778,-7.24751 -6.30537,-10.07338 -5.0808,-2.80546 -11.06368,2.20939 -15.57803,4.21911 -8.13466,4.76779 -16.65539,9.15715 -23.99755,15.0934 0,0 -0.78459,-9.96917 -0.78459,-9.96917 z"
     inkscape:connector-curvature="0" />
  <path
     style="opacity:0.52599996;fill:#00ffff;stroke:#f4e3d7;stroke-width:8.19999981;stroke-miterlimit:4;stroke-dasharray:none"
     id="path4209"
     d="m 435.65742,540.29224 c 5.38994,-5.27772 12.06943,-6.36662 19.26433,-7.06584 7.18288,-0.2712 13.69834,2.57634 20.07624,5.52242 2.75774,1.17054 5.34191,2.45863 7.50109,4.56269 1.40516,1.77266 1.05022,4.07187 1.42845,6.16593 0.68096,3.22578 1.5552,6.15054 4.31204,8.12864 2.11097,1.52867 3.18074,-0.1332 5.16995,-1.27216 5.06104,-1.9897 10.13009,-3.67069 14.67574,-6.70075 4.5484,-3.65316 9.82847,-6.3053 15.24091,-8.41829 3.91071,-1.6763 7.43098,-4.07168 11.18291,-6.02734 2.37236,-1.31192 4.73854,-2.81484 6.91577,-4.46709 0.33201,-0.26461 0.66402,-0.52921 0.99603,-0.79382 0,0 0.66526,9.97784 0.66526,9.97784 l 0,0 c -0.34272,0.26531 -0.68545,0.53061 -1.02817,0.79592 -2.26355,1.61136 -4.59994,3.19784 -7.05959,4.47518 -3.74909,2.04249 -7.35654,4.3402 -11.29726,6.03228 -5.35167,2.12454 -10.50558,4.82309 -15.0361,8.4085 -4.59734,2.9625 -9.69582,4.61734 -14.7269,6.70359 -2.20102,1.31338 -3.83974,2.89801 -6.28933,1.26868 -3.06965,-1.93704 -4.39892,-4.64041 -5.02197,-8.19614 -0.72738,-2.0057 -0.23593,-4.08207 -0.92702,-6.11296 -1.98803,-2.17224 -4.43974,-3.41882 -7.13653,-4.54015 -6.20535,-2.89882 -12.53611,-5.76478 -19.54401,-5.51345 -7.05584,0.6947 -13.43111,1.85513 -18.68761,7.04357 0,0 -0.67423,-9.97725 -0.67423,-9.97725 z"
     inkscape:connector-curvature="0" />
  <g
     inkscape:groupmode="layer"
     id="layer3"
     inkscape:label="Layer 3">
    <path
       style="fill:none;fill-rule:evenodd;stroke:#0000ff;stroke-width:1px;stroke-linecap:butt;stroke-linejoin:miter;stroke-opacity:1"
       d="M 222.85714,132.3622 C 24.229098,49.395861 154.53776,309.00096 131.42857,355.21935 c -4.04198,8.08395 -40.885812,33.3999 -28.57143,45.71428 33.02343,33.02343 37.05789,51.25864 57.14286,91.42857 35.72763,71.45527 -26.62723,163.77009 -62.857143,200 -36.274014,36.27402 33.944893,55.54388 42.857143,60 12.55166,6.27583 -5.79826,128.90734 -8.57143,140 -14.3847,57.53882 185.71429,37.79185 185.71429,11.42858 0,-30.36793 185.88943,99.82482 248.57143,37.14285 65.13675,-65.13675 88.8419,-99.72952 8.57142,-180 -12.23242,-12.23242 26.45062,-65.06612 25.71429,-62.85714 -5.77402,17.32206 -21.8105,-93.80465 -5.71429,-174.28571 19.41292,-97.06458 63.87435,-220.27425 -8.57142,-268.57143 -21.52477,-14.34985 0.30119,-31.12738 -20,-51.42857 -4.76191,-4.76191 -7.55137,14.28571 -14.28572,14.28571 -82.89677,0 -278.07632,2.65214 -328.57143,-85.71429 z"
       id="path4212"
       inkscape:connector-curvature="0" />
    <path
       style="opacity:0.52599996;fill:#000080;stroke:#00ffff;stroke-width:23.4285717;stroke-miterlimit:4;stroke-dasharray:none"
       d="m 512.42857,1004.7004 c -34.94637,-4.2768 -91.66037,-14.14154 -122.50626,-21.30854 -40.64571,-9.444 -40.1854,-9.45946 -100.35088,3.3706 -24.13685,5.14709 -35.2233,5.89614 -71.42857,4.82612 -39.17763,-1.15786 -44.88346,-2.0232 -66.45862,-10.07903 -31.47476,-11.7522 -54.613526,-26.20849 -70.892351,-44.29109 l -13.41242,-14.89857 1.4856,-58.57143 1.485602,-58.57143 -15.099094,-45.71428 C 46.947075,734.31989 37.910996,704.0086 35.1714,692.10432 l -4.981083,-21.64417 16.597614,-28.35583 c 39.932966,-68.22266 49.926355,-92.66166 49.926355,-122.09577 0,-25.07892 -13.123269,-42.3576 -38.571429,-50.78486 -6.285714,-2.08154 -12.461222,-4.61909 -13.723351,-5.63897 -1.262129,-1.01992 -1.145546,-29.6034 0.259073,-63.51886 l 2.553854,-61.66448 11.76383,-18.05584 c 16.309428,-25.03267 20.575166,-38.83988 20.575166,-66.59708 0,-28.97524 -3.888995,-40.46477 -23.379763,-69.0725 C 43.121139,165.49159 41.037736,160.57902 41.270269,149.49194 41.635219,132.09126 51.697485,112.12115 70.133926,92.207593 99.410029,60.585909 135.31455,43.748462 173.46919,43.748462 c 21.01655,0 23.19604,0.620445 40.58432,11.553312 44.28822,27.846202 105.43132,51.141926 165.80378,63.171786 41.74197,8.31754 110.31651,9.06674 140.62162,1.53634 27.87329,-6.92613 45.50849,-15.19411 56.41946,-26.451355 5.22957,-5.395546 10.40094,-9.810083 11.49197,-9.810083 1.091,0 4.75786,10.607143 8.14855,23.571428 14.95737,57.1896 16.63348,61.13025 36.25434,85.23575 33.32223,40.93856 43.92834,74.48901 43.90957,138.89971 -0.0143,47.49585 -4.14511,74.61148 -23.6384,155.15025 -14.65529,60.55015 -14.86454,62.04143 -14.63363,104.28572 0.16172,29.59414 2.57126,59.65694 7.78592,97.14286 4.15342,29.85714 9.51225,73.32797 11.90851,96.60185 5.406,52.5062 6.9424,59.62469 23.49386,108.85235 l 13.36145,39.73988 -26.38737,25.28174 c -14.51308,13.90495 -32.88128,30.41483 -40.81825,36.68866 l -14.43089,11.40694 -46.172,-0.4281 c -25.3946,-0.2354 -50.02914,-0.9001 -54.74343,-1.4771 z M 502.20689,888.3816 c 22.145,-9.03951 22.20105,-9.0426 24.63822,-1.36382 1.86983,5.89134 3.0762,6.06237 31.43389,4.45648 16.2192,-0.91848 34.71654,-3.23603 41.10523,-5.15014 C 610.31691,883.04863 611,882.20592 611,871.99438 l 0,-10.84958 -10.71429,3.72866 c -5.89285,2.05077 -21.66471,4.54966 -35.04854,5.55306 -22.27854,1.67026 -24.63394,1.34454 -27.88137,-3.85543 -4.85123,-7.76803 -15.85423,-7.23683 -38.00606,1.83491 -10.09237,4.13309 -26.06403,9.708 -35.4926,12.38872 -13.72783,3.90308 -17.33017,6.14708 -18.08308,11.26454 -1.94392,13.2122 0.50845,14.29737 20.01183,8.8552 9.9392,-2.7734 26.32862,-8.41317 36.421,-12.53286 z M 256,895.47998 c 16.17321,-6.14326 17.85714,-7.55509 17.85714,-14.97149 0,-6.85743 -1.17607,-8.1886 -7.23462,-8.1886 -3.97905,0 -11.69333,1.86297 -17.14286,4.13991 l -9.90823,4.13995 0,-12.61083 c 0,-9.40517 -1.3614,-13.33943 -5.35564,-15.47709 -8.38592,-4.488 -35.92886,1.28392 -59.46644,12.46189 l -20.89221,9.92166 0,13.496 0,13.49602 6.43699,-6.04722 c 9.76688,-9.17552 38.75329,-21.4516 54.14345,-22.9304 l 13.70528,-1.31692 0,12.64923 c 0,11.30503 4.32014,20.90011 8.46428,18.79929 0.84465,-0.42818 9.57143,-3.8308 19.39286,-7.5614 z M 515.68511,709.13126 c 5.94712,-4.93566 4.03726,-23.60737 -2.54225,-24.85426 -3.04475,-0.577 -5,0.81032 -5,3.54769 0,3.49726 -3.21315,4.4952 -14.47355,4.4952 -18.0498,0 -23.74211,-3.00126 -32.74685,-17.26571 -9.03906,-14.31875 -14.7598,-14.43672 -37.8446,-0.78035 -16.87109,9.98052 -17.79215,11.0898 -17.79215,21.42857 0,10.27775 3.34649,14.18872 7.0346,8.2212 0.91169,-1.47508 8.8666,-6.80657 17.67763,-11.84774 14.74157,-8.43426 16.24377,-8.76594 18.82349,-4.15626 7.26931,12.98958 18.42237,21.79826 30.75,24.28638 15.16103,3.06 30.27203,1.77342 36.11368,-3.07472 z m -334.06662,-44.01231 9.18991,-11.37049 0.0958,9.08163 c 0.17014,16.12863 5.44229,18.48394 50.0958,22.37997 11,0.95977 22.33437,2.42266 25.18749,3.25089 4.47068,1.2978 5.06289,-0.009 4.28572,-9.46043 L 269.57143,668.03418 251,665.93863 c -10.21429,-1.15254 -25.32143,-2.8522 -33.57143,-3.777 l -15,-1.68148 0,-16.93729 c 0,-14.96526 -0.65748,-16.93726 -5.64702,-16.93726 -3.52676,0 -12.09258,7.77749 -22.81392,20.71429 -15.40689,18.59057 -17.16276,22.03246 -17.12638,33.57143 l 0.0405,12.85714 7.77339,-8.62951 c 4.27536,-4.74623 11.90885,-13.74623 16.9633,-20 z M 521,558.598 c 25.69883,-13.59074 25.7148,-13.60614 26.59286,-25.6528 0.93371,-12.81068 -0.5608,-14.38245 -7.79646,-8.19934 -2.48089,2.11997 -14.47297,9.28037 -26.64911,15.91194 l -22.1384,12.05746 -2.8434,-7.47874 c -5.0346,-13.242 -32.89695,-20.19974 -49.8882,-12.458 C 432.07963,535.60235 431,537.9644 431,548.70018 l 0,12.60588 7.52817,-5.92166 c 13.58857,-10.68877 33.60906,-6.99731 39.58217,7.29835 5.46232,13.07317 11.54026,12.49431 42.88966,-4.08475 z m -56.24634,-118.58462 0.89651,-10.87795 -10.01431,1.87872 c -5.50786,1.03328 -19.41129,0.41985 -30.89652,-1.36317 -11.4852,-1.78303 -24.95571,-3.87906 -29.93448,-4.65786 -4.97875,-0.7788 -16.1936,-6.96137 -24.92195,-13.73906 l -15.86968,-12.32308 -17.93517,2.60465 c -9.86437,1.43257 -25.99196,6.31595 -35.83911,10.85195 l -17.90391,8.24728 -13.52466,-8.95594 c -7.43857,-4.9258 -18.96023,-13.86809 -25.60369,-19.87177 -13.45126,-12.15592 -21.03292,-13.42683 -36.39547,-6.10095 -8.95185,4.26886 -10.09693,6.051 -10.09693,15.71429 0,5.99469 0.61178,10.8994 1.35951,10.8994 0.74773,0 5.56916,-2.56663 10.71429,-5.7036 12.96634,-7.9056 15.47397,-7.38531 30.93378,6.41789 7.4801,6.67857 20.38178,16.48954 28.6704,21.80214 12.10471,7.75857 15.95238,9.00917 19.55326,6.35543 11.13784,-8.20829 34.40481,-17.16686 48.76876,-18.77766 14.90354,-1.67129 16.36211,-1.23963 28.27097,8.3668 16.84785,13.59054 47.58117,21.30269 81.72903,20.50891 l 17.14285,-0.39848 0.89652,-10.87794 z m -69.46795,-199.12206 0,-10 L 371,228.97356 c -13.35714,-1.05477 -32,-3.29732 -41.42857,-4.98346 -9.42857,-1.68612 -21.92753,-3.07313 -27.77545,-3.08223 -9.53536,-0.0149 -10.87461,-0.95052 -12.9778,-9.06698 -3.55727,-13.72796 -9.11184,-15.79343 -27.16697,-10.10205 -20.97617,6.61215 -35.97808,6.11649 -61.3655,-2.02752 -5.85631,-1.87864 -6.42857,-1.1486 -6.42857,8.20104 0,8.56406 1.30083,10.76005 7.85715,13.26397 15.10283,5.76792 44.77154,6.53103 59.45124,1.52916 7.54025,-2.56922 14.06511,-4.67131 14.49969,-4.67131 0.43457,0 1.64087,4.53484 2.68067,10.07742 2.44825,13.05027 7.79643,15.59908 33.18057,15.81304 11.49617,0.0969 29.25925,1.9285 39.47354,4.07022 10.21429,2.14173 24.35714,3.66959 31.42857,3.39525 12.69412,-0.49247 12.85714,-0.6256 12.85714,-10.49879 z"
       id="path4216"
       inkscape:connector-curvature="0" />
    <path
       style="opacity:1;fill:#ffff00;stroke:#00ff00;stroke-width:8.19999981;stroke-miterlimit:4;stroke-dasharray:none"
       id="path4218"
       d="m 117.20907,334.62579 c -1.48161,4.91865 -3.99044,9.31471 -6.54005,13.73374 -3.47091,4.03587 -6.30051,8.59128 -8.89777,13.24278 -2.23755,3.93091 -3.128213,8.43163 -3.584217,12.88521 -0.02298,11.94774 -2.505651,-12.37426 0.309574,-7.69219 2.300183,2.05395 5.804953,1.78596 8.607563,1.17171 4.05769,-1.10962 7.35768,-4.50173 10.23915,-7.45674 3.11627,-4.08954 6.29966,-8.1355 8.68249,-12.7039 0.59184,-2.25309 1.9944,-3.52808 3.30706,-5.27252 0.98192,-1.04066 1.00161,-2.37512 1.13475,-3.73498 0.13698,-4.25693 2.15681,-8.11731 -0.39117,11.19372 -0.0541,0.41037 -0.69774,-0.44735 -1.06394,-0.64029 -1.21792,-0.64169 -1.39136,-0.61792 -2.76888,-1.03751 -2.96766,-0.79614 -6.04844,-0.94719 -9.10331,-1.05881 -2.52328,-0.054 -5.04742,-0.0353 -7.57107,-0.0248 -7.07051,0.004 -3.5035,1.18893 -1.65319,-12.61193 3.41004,-0.21816 5.9319,-1.81397 8.66774,-3.62141 2.07564,-0.72644 3.54504,-2.1577 5.34026,-3.29186 0.94246,-0.66387 2.07333,-0.88576 3.16684,-1.16787 0,0 0.33208,12.62308 0.33208,12.62308 l 0,0 c -0.96226,0.27106 -1.92561,0.51947 -2.73099,1.14887 -1.70392,1.32668 -3.4802,2.27394 -5.37437,3.29389 -2.92677,1.91381 -5.8112,3.41104 -9.40268,3.64275 -1.85342,-13.79309 -5.42321,-12.58859 1.64907,-12.64297 2.54066,-0.0106 5.08181,-0.029 7.62212,0.0249 3.15814,0.11383 6.3404,0.27345 9.41512,1.06379 7.1978,2.00695 7.51589,4.82995 5.66275,15.60548 -0.27525,1.4474 -0.7565,2.71947 -1.78855,3.81161 -1.32276,1.62361 -2.30691,3.27287 -3.0933,5.25127 -2.53778,4.55633 -5.74904,8.70685 -9.04339,12.73765 -3.1053,3.07468 -6.62036,6.44958 -10.97396,7.49335 -3.40112,0.68197 -7.01115,0.66041 -10.056107,-1.22502 -3.666405,-4.31605 -1.209559,-11.79884 -0.949757,-17.37368 0.607915,-4.51706 1.729278,-8.99867 4.087054,-12.9485 2.69088,-4.59981 5.58173,-9.07806 8.90235,-13.24327 2.53083,-4.39266 4.78817,-8.87498 6.36125,-13.71365 0,0 1.49948,12.53811 1.49948,12.53811 z"
       inkscape:connector-curvature="0" />
    <path
       style="opacity:1;fill:#ffff00;stroke:#00ff00;stroke-width:8.19999981;stroke-miterlimit:4;stroke-dasharray:none"
       id="path4222"
       d="m 624.34651,322.54915 c -4.38439,2.46157 -8.06472,5.96277 -11.63837,9.45632 -1.85215,2.14491 -2.78307,4.49824 -3.17212,7.25263 -0.0132,0.35609 -0.0318,0.71202 -0.0397,1.06827 -0.0106,0.48203 -0.0147,8.43363 -0.009,4.19254 0.0138,-10.33803 -0.0253,-14.86794 0.0142,-9.86445 0.13969,2.3374 2.45704,2.68374 4.23935,3.58824 2.02031,1.25301 4.31495,1.66261 6.63225,1.94896 1.9362,-0.6147 2.91373,-1.71094 3.86064,-3.43452 -0.22312,-2.1986 1.8657,-3.00353 2.59561,-4.69985 0.46696,-2.37149 0.65163,-4.7955 0.76976,-7.20759 0.0385,-4.57826 -0.006,-11.94057 0.007,9.06354 1.8e-4,0.27422 -0.0522,-0.57368 -0.21552,-0.79394 -1.18076,-0.63447 -1.9173,-1.67245 -3.09199,-2.33326 -0.94774,-0.59664 -2.03528,-0.6289 -3.12042,-0.68532 -1.2402,-0.013 -2.11309,-0.38715 -2.68579,0.78251 -0.65727,1.31225 0.0801,2.56057 -1.0796,3.58302 -1.41912,0.73675 -1.67376,1.11057 -2.04541,2.58131 -0.15134,1.16254 -0.12881,2.36816 -0.12273,3.54772 0.0864,4.13785 8.1e-4,0.1472 0.011,-11.11576 6.4e-4,-0.70123 0.084,1.58398 0.6473,2.00165 1.78478,0.65008 3.21852,0.21203 4.87875,-0.4728 2.69721,-1.64089 4.87925,-5.19561 6.43188,-7.99483 2.06682,-3.75306 3.15701,-8.33331 5.85244,-11.69841 1.95805,-2.24789 2.47211,-4.90957 2.91702,-7.76105 0.45551,-4.40805 1.61553,-10.8083 -0.0514,10.06549 -0.0208,0.26091 -0.42332,-0.31513 -0.66239,-0.42168 -0.51587,-0.22992 -1.06726,-0.28062 -1.61534,-0.36584 -1.82627,-0.10393 -3.66085,0.006 -5.48852,0.0577 -2.17505,0.0523 -1.44347,-0.32686 -1.54337,1.30723 0.0442,0.98109 0.0193,1.96325 0.0328,2.94511 0,0 -1.9731,-12.47234 -1.9731,-12.47234 l 0,0 c 0.0173,-0.99957 0.003,-2.01443 0.26195,-2.98818 0.59935,-1.44349 1.79138,-1.45479 3.18617,-1.41922 1.90001,-0.0535 3.80618,-0.16371 5.70508,-0.0564 7.89946,1.06506 4.89187,8.91095 3.90398,15.85297 -0.579,2.90802 -1.52771,5.52576 -3.47093,7.82639 -2.2746,3.68389 -3.6641,7.89631 -5.75486,11.6887 -1.88972,2.93698 -3.98937,6.54843 -7.24725,8.05259 -2.03076,0.80182 -3.86935,1.03903 -6.01184,0.4654 -5.4292,-2.50299 -1.56052,-11.54776 -1.96651,-15.97152 0.0417,-1.21624 0.0499,-2.46631 0.53271,-3.60517 0.54189,-1.18381 1.50076,-1.69962 2.34347,-2.61452 0.13681,-1.31139 0.2592,-2.60425 1.23338,-3.59735 1.16248,-0.9818 2.38904,-0.92495 3.84497,-0.82995 1.25235,0.0618 2.54786,0.0793 3.67105,0.70012 1.32756,0.66395 2.26983,1.525 3.23593,2.3411 5.72628,2.73572 1.05134,11.27233 1.3491,16.8189 -0.18099,2.45774 -0.28315,5.0471 -1.39413,7.2867 -1.19649,1.46672 -2.03999,2.86098 -2.59247,4.69953 -1.30721,1.87918 -2.9883,3.10924 -5.29091,3.49841 -2.44798,-0.29215 -4.93288,-0.66272 -7.08024,-1.96232 -2.04442,-1.06976 -4.54389,-1.49435 -5.60183,-3.72747 -0.0806,-6.77554 -0.39272,-13.62017 0.24819,-20.376 0.63021,-2.80907 1.96354,-5.22907 3.94966,-7.33693 3.66057,-3.5253 7.45926,-6.9923 11.92802,-9.47534 0,0 0.68208,12.60902 0.68208,12.60902 z"
       inkscape:connector-curvature="0" />
    <path
       style="opacity:1;fill:#ffff00;stroke:#00ff00;stroke-width:8.19999981;stroke-miterlimit:4;stroke-dasharray:none"
       id="path4224"
       d="m 615.53056,937.51237 c -4.70622,3.74834 -9.30863,7.51067 -13.0391,12.25363 -1.65542,2.69301 -1.60235,5.76536 -1.63372,8.8169 0.0199,5.59916 -0.004,-0.64075 0.0139,-9.70861 6.6e-4,-0.32778 0.007,0.65552 0.0121,0.98326 0.0152,0.9623 0.016,1.8967 0.1528,2.8494 1.02318,2.23659 3.25357,1.10376 5.02795,0.59193 5.20613,-2.12755 8.88294,-6.85274 12.15564,-11.30091 2.18447,-3.10666 4.62094,-5.84139 5.91899,-9.45557 -0.96462,-4.88405 0.0664,-0.0423 -0.3321,10.25125 -0.0144,0.37218 -0.16852,-0.72596 -0.27219,-1.0837 -0.27846,-0.96098 -0.57475,-1.47675 -1.31729,-2.12613 -1.01223,-0.79136 -2.11004,-0.90315 -3.34554,-0.95048 -2.59184,-0.40194 -3.71091,1.12112 -5.70911,2.60047 -1.87479,1.67255 -3.63889,3.45478 -5.6441,5.02343 -1.68178,1.02806 -2.43242,2.60025 -3.17252,4.34595 -0.618,1.89296 -0.50224,4.00786 -0.53657,5.99282 0.24309,1.73046 -1.08634,2.32454 -2.61752,2.43434 -1.09606,-0.0626 -2.18909,-0.17406 -3.28218,-0.27562 -0.94806,-0.0766 -1.90193,-0.0718 -2.85281,-0.0793 -1.34103,0.15365 -2.99219,-0.42079 -4.15146,0.33561 -3.85501,3.53524 -2.24271,10.44915 -0.46956,-10.3017 3.59554,-0.34583 6.39947,-3.11231 8.99679,-5.40109 2.02994,-1.24836 3.95991,-1.97886 5.09686,-4.13951 0.20164,-1.76143 0.62585,-2.55954 2.076,-3.6912 0.53377,-1.91139 1.87231,-3.25548 2.42022,-5.14617 0.58324,-2.72537 2.63815,-4.66477 3.67514,-7.20097 0.63318,-1.36287 0.61221,-2.85298 0.64478,-4.32552 0.0292,0.43929 -0.0184,-0.99759 -0.0103,-0.74827 0.63338,19.48775 1.85208,8.7096 -2.20897,17.78391 -1.07194,2.75948 -3.35667,5.08359 -4.10841,7.95511 -0.33334,2.00674 -2.30935,2.7958 -4.07225,3.20512 -1.33681,0.29498 -2.70203,0.28769 -4.0624,0.28437 -0.53706,-0.002 -1.07398,-0.0132 -1.61081,-0.0282 0,0 0.04,-12.62739 0.04,-12.62739 l 0,0 c 0.52451,0.0152 1.04914,0.0259 1.5739,0.0281 1.2562,0.003 2.51825,0.0181 3.74851,-0.28055 1.65358,-0.45347 2.45265,-1.43347 2.84806,-3.1153 1.2806,-2.72075 2.96748,-5.23796 4.23303,-7.96974 4.24022,-8.12038 5.45319,-4.09149 5.54068,7.9948 -0.12372,1.53043 -0.38581,3.01233 -1.11218,4.38818 -1.1957,2.41099 -3.03584,4.484 -3.60481,7.19268 -0.86152,1.78945 -1.78603,3.64892 -3.01695,5.2039 -1.03289,1.0732 -0.91743,2.44011 -1.72427,3.66063 -1.43022,1.94035 -3.54946,2.78601 -5.46414,4.1712 -2.94433,2.51622 -6.09404,5.28153 -10.15354,5.43075 -1.2817,-7.95933 -5.31248,-11.60306 0.20126,-14.93978 1.52504,-0.51026 3.0881,-0.33486 4.68475,-0.34646 0.9866,0.008 1.97621,0.004 2.96004,0.0799 1.01753,0.0948 2.03539,0.18593 3.05337,0.27558 1.12174,-0.1369 0.70597,-1.46055 0.78956,-2.28498 0.0821,-2.05392 0.0806,-4.19256 1.04687,-6.06153 0.90836,-1.78623 2.06415,-3.27635 3.75317,-4.39855 1.97399,-1.6014 3.68229,-3.47976 5.69014,-5.02644 2.10663,-1.55156 3.81058,-3.05324 6.55862,-2.62592 1.45854,0.0526 2.83238,0.16373 4.09819,0.97572 5.49036,3.49366 3.53413,12.7496 2.62493,18.0984 -1.53405,3.53276 -4.09786,6.33921 -6.25949,9.49171 -3.54875,4.54199 -7.38196,9.36143 -12.96457,11.34957 -2.37682,0.68106 -4.97952,1.52923 -6.84569,-0.67217 -2.17974,-3.11462 0.0599,-16.14058 -0.65768,-19.14336 0.13215,-3.19837 0.4226,-6.28463 2.4513,-8.91704 3.87066,-4.69197 8.57334,-8.45905 13.28809,-12.27343 0,0 0.87657,12.59699 0.87657,12.59699 z"
       inkscape:connector-curvature="0" />
    <path
       style="opacity:1;fill:#ffff00;stroke:#00ff00;stroke-width:8.19999981;stroke-miterlimit:4;stroke-dasharray:none"
       id="path4226"
       d="m 198.61149,942.51238 c 4.21515,-1.22092 7.95779,-2.27714 11.65513,0.55035 4.29119,4.08978 4.97399,14.47156 -0.40941,17.45639 -2.37723,1.01045 -5.08307,1.18729 -7.59287,0.69896 -3.32385,-1.06763 -6.72009,-1.73414 -10.17333,-2.20384 -1.83614,-0.0598 -3.28989,-0.46422 -4.22165,-2.12414 -2.04929,-5.5694 -2.67429,-13.26649 2.95694,-15.8558 3.06453,-1.61207 6.57039,-2.49027 9.97538,-3.10526 2.03085,-0.2533 4.01586,-1.08836 5.41164,0.72489 1.26684,6.30742 0.54591,13.96824 0.54259,19.93698 4.6e-4,2.07874 0.40213,3.6026 -1.34849,4.93252 -1.65292,1.00765 -3.4964,-0.49501 -5.01523,-1.17234 -2.23409,-0.62907 -4.44435,-0.65221 -6.59083,-1.61729 -1.93534,-0.84794 -3.52281,-2.06528 -4.92691,-3.62945 -0.57962,-0.67524 -0.79994,-1.48253 -1.02872,-2.3159 0,0 1.71605,-12.5103 1.71605,-12.5103 l 0,0 c 0.10975,0.75384 0.24097,1.50288 0.40869,2.2464 1.23909,1.5638 2.54705,2.8059 4.39749,3.59452 2.08597,1.0828 4.26346,1.00158 6.49847,1.61348 1.01426,0.35965 2.63978,1.87801 3.54371,1.20287 0.85696,-1.34035 0.12929,-3.30535 0.37672,-4.8175 0.008,22.06237 0.15842,10.15722 -0.13634,5.06638 0.26867,-2.1697 -1.68518,-0.63176 -3.61768,-0.62992 -3.2979,0.62638 -6.65489,1.49376 -9.61879,3.09369 -0.58544,0.32501 -1.57082,1.83109 -1.63669,1.16473 -1.80763,-18.28656 -0.11294,-14.7853 -0.37834,-10.45716 0.30747,1.76337 1.08211,1.99093 2.86146,2.03229 3.48498,0.46714 6.92885,1.08704 10.2724,2.20556 2.11065,0.51262 4.58222,0.35078 6.53119,-0.67688 0.87754,-0.96441 0.87457,-2.25147 0.883,-2.03689 0.89486,22.79693 1.99417,13.06332 -0.57101,9.77902 -3.07857,-2.97022 -6.51885,-1.5905 -10.2842,-0.52805 0,0 -0.48037,-12.61831 -0.48037,-12.61831 z"
       inkscape:connector-curvature="0" />
    <path
       style="opacity:1;fill:#ffff00;stroke:#00ff00;stroke-width:8.19999981;stroke-miterlimit:4;stroke-dasharray:none"
       id="path4228"
       d="m 109.47957,800.84498 c -5.47453,-2.08096 -11.029619,-4.14838 -16.257068,-6.8029 -3.33307,-1.37553 -6.166268,-3.62486 -9.278737,-5.37754 -2.31729,-1.31407 -3.674006,-3.61726 -5.465821,-5.50314 -4.509923,-4.47691 -1.573969,-14.7365 -1.338007,-18.86806 4.263667,-2.73782 9.640455,-4.28563 14.599732,-5.50991 3.222848,-0.79171 6.513619,-1.19198 9.824441,-1.31899 2.3016,-0.0536 4.60422,-0.0223 6.90615,-0.009 2.96645,0.54617 5.55489,1.63009 7.77452,3.67235 2.12459,1.84007 1.85616,4.43595 1.92241,7.04056 0.62165,8.91693 0.7146,17.34147 -3.17597,25.23319 -1.07801,2.31486 -3.10233,4.28577 -5.58034,5.0025 -1.90846,0.40347 -3.87961,0.35475 -5.8209,0.33628 -2.96398,-0.80571 -5.520504,-3.11443 -7.76637,-5.1691 -2.78717,-3.661 -5.762364,-7.03894 -9.115022,-10.1898 -1.730235,-2.23153 -4.479695,-3.19996 -6.322286,-5.27293 -1.006724,-1.14007 -1.281787,-2.49094 -1.400119,-3.95667 0.554428,-4.37553 0.39124,-8.9035 1.663284,-13.12661 0.1961,-0.65104 10.652584,3.32466 11.584384,3.68665 3.609606,1.60918 7.206273,3.22607 10.668099,5.13701 1.27535,0.81134 2.89161,1.33074 3.66728,2.69934 1.17948,1.1141 1.87088,2.55794 2.4867,4.02953 1.12604,1.33089 -1.39388,1.37877 -1.4438,0.17978 0.83635,18.78848 1.18489,12.3186 -2.73707,7.5133 -0.95773,-1.39504 -2.1384,-2.13292 -3.73135,-2.58693 0,0 0.33069,-12.62312 0.33069,-12.62312 l 0,0 c 1.79285,0.45399 3.40601,1.04688 4.49909,2.63047 4.74806,5.47229 4.04344,7.84581 3.60217,17.54014 -0.0762,1.27348 -2.23978,1.18634 -2.03811,-0.11781 -0.48207,-1.39147 -0.95654,-2.9938 -2.06398,-3.98554 -1.91361,-1.7261 -0.0859,0.27151 -0.51263,-1.04075 -0.24984,-0.76822 -2.35458,-0.93464 -2.70014,-1.62725 -3.407777,-1.91329 -6.944973,-3.51805 -10.502626,-5.12968 -2.424527,-0.97759 -4.898732,-1.69256 -7.324949,-2.65878 -0.601518,-0.23956 -1.190427,-0.51389 -1.805177,-0.71709 -0.432252,-0.14288 -1.265043,0.13228 -1.328082,-0.31859 -0.55251,-3.95167 -0.259487,-7.976 -0.389231,-11.96399 3.72e-4,1.33052 -0.13202,2.70565 0.625479,3.86161 1.540116,2.34283 4.431218,2.99091 6.134509,5.25717 3.296955,3.20432 6.609641,6.29562 9.136892,10.19149 1.863819,2.00963 4.368615,3.94187 6.794465,5.13071 1.79986,0.0173 3.63925,0.0866 5.40114,-0.32971 2.17776,-0.87254 3.64606,-2.83414 4.57265,-4.92951 0.89092,-1.90717 1.52584,-3.60614 1.94271,-5.68031 0.16136,-0.8029 0.3741,-3.23123 0.44817,-2.41563 0.24616,2.71057 0.27257,15.37858 0.24723,7.88611 -0.0227,-2.25482 0.59959,-5.1127 -0.95081,-6.9268 -1.90998,-2.02855 -4.07475,-3.03189 -6.80044,-3.63414 -2.28303,-0.0136 -4.56677,-0.0452 -6.84947,0.008 -3.224787,0.12755 -6.427674,0.53219 -9.563857,1.31528 -4.306727,1.09371 -10.195761,2.47651 -13.445847,5.4286 -0.937864,-26.09904 -1.63933,-8.74247 0.88134,-6.26152 1.798077,1.80005 3.074482,3.92385 5.07629,5.47803 3.183859,1.60783 5.895863,4.08048 9.269748,5.37711 5.11543,2.76032 10.725756,4.68351 16.129006,6.79737 0,0 -0.48037,12.61831 -0.48037,12.61831 z"
       inkscape:connector-curvature="0" />
    <path
       sodipodi:type="spiral"
       style="fill:#800080;fill-rule:evenodd;stroke:#000000;stroke-width:1px;stroke-linecap:butt;stroke-linejoin:miter;stroke-opacity:1"
       id="path4234"
       sodipodi:cx="614.28571"
       sodipodi:cy="940.93365"
       sodipodi:expansion="1"
       sodipodi:revolution="3"
       sodipodi:radius="15.386185"
       sodipodi:argument="-16.08847"
       sodipodi:t0="0"
       d="m 614.28571,940.93365 c -0.71627,0.28651 -0.73959,-0.82415 -0.4762,-1.19047 0.71378,-0.9927 2.19461,-0.56682 2.85715,0.23809 1.18512,1.43981 0.4873,3.56067 -0.95238,4.52381 -2.11279,1.41345 -4.94821,0.41358 -6.19048,-1.66666 -1.65574,-2.77263 -0.34281,-6.34376 2.38095,-7.85714 3.42757,-1.90444 7.74323,-0.27367 9.52381,3.09523 2.15653,4.08018 0.20549,9.14491 -3.80951,11.19048 -4.73155,2.41063 -10.54799,0.13791 -12.85715,-4.5238 -2.66602,-5.38214 -0.0707,-11.95199 5.23808,-14.52382 6.03224,-2.92227 13.35664,-0.004 16.19048,5.95237 3.17915,6.68199 -0.0628,14.76176 -6.66665,17.85715 -7.33151,3.43647 -16.16723,-0.12935 -19.52381,-7.38094" />
    <path
       sodipodi:type="spiral"
       style="fill:#ff0000;fill-rule:evenodd;stroke:#ff00ff;stroke-width:1px;stroke-linecap:butt;stroke-linejoin:miter;stroke-opacity:1"
       id="path4236"
       sodipodi:cx="204.28572"
       sodipodi:cy="948.07648"
       sodipodi:expansion="1"
       sodipodi:revolution="3"
       sodipodi:radius="9.1473207"
       sodipodi:argument="-16.604019"
       sodipodi:t0="0"
       d="m 204.28572,948.07648 c -0.2865,0.35813 -0.6241,-0.20952 -0.59524,-0.47619 0.0782,-0.72268 0.96901,-0.93643 1.54762,-0.71429 1.03501,0.39736 1.2957,1.6989 0.83334,2.61905 -0.67854,1.35036 -2.4382,1.66426 -3.69048,0.95238 -1.66909,-0.94882 -2.03669,-3.18078 -1.07143,-4.7619 1.21468,-1.98969 3.9249,-2.41112 5.83333,-1.19048 2.31136,1.47835 2.78669,4.66989 1.30953,6.90476 -1.74079,2.63371 -5.41543,3.16298 -7.97619,1.42857 -2.9565,-2.00244 -3.53976,-6.16132 -1.54762,-9.04761 2.26359,-3.27959 6.90747,-3.91688 10.11904,-1.66668 3.6029,2.52439 4.29423,7.65381 1.78572,11.19048 -2.78492,3.92637 -8.40027,4.67177 -12.2619,1.90477" />
    <path
       sodipodi:type="spiral"
       style="fill:#ffff00;fill-rule:evenodd;stroke:#ff0000;stroke-width:1px;stroke-linecap:butt;stroke-linejoin:miter;stroke-opacity:1"
       id="path4238"
       sodipodi:cx="100"
       sodipodi:cy="772.36218"
       sodipodi:expansion="1"
       sodipodi:revolution="3"
       sodipodi:radius="13.552619"
       sodipodi:argument="-16.957008"
       sodipodi:t0="0"
       d="m 100,772.36218 c -0.214879,0.64464 -0.974971,0.0284 -1.071428,-0.35714 -0.261394,-1.04477 0.867519,-1.79819 1.785718,-1.78571 1.64243,0.0223 2.6715,1.69823 2.5,3.21428 -0.25169,2.22487 -2.53728,3.56256 -4.642864,3.21429 -2.806417,-0.4642 -4.460677,-3.37888 -3.928568,-6.07144 0.669606,-3.3883 4.221618,-5.36235 7.500002,-4.64285 3.97057,0.87142 6.26608,5.06498 5.35714,8.92858 -1.07115,4.55312 -5.90871,7.17107 -10.357149,6.07142 -5.135894,-1.26959 -8.076923,-6.75271 -6.785706,-11.78572 1.467162,-5.71883 7.596879,-8.98337 13.214295,-7.49999 6.30188,1.66413 9.89025,8.44118 8.21427,14.64286 -1.86065,6.88504 -9.28559,10.79747 -16.071433,8.92856" />
    <path
       sodipodi:type="spiral"
       style="fill:#ff0000;fill-rule:evenodd;stroke:#ff0000;stroke-width:1px;stroke-linecap:butt;stroke-linejoin:miter;stroke-opacity:1"
       id="path4240"
       sodipodi:cx="112.85714"
       sodipodi:cy="350.93362"
       sodipodi:expansion="1"
       sodipodi:revolution="3"
       sodipodi:radius="10.101525"
       sodipodi:argument="-17.136862"
       sodipodi:t0="0"
       d="m 112.85714,350.93362 c -0.0716,0.50139 -0.71119,0.15082 -0.83333,-0.11904 -0.33099,-0.73131 0.39642,-1.43434 1.07143,-1.54762 1.20742,-0.20263 2.18553,0.88917 2.2619,2.02381 0.11208,1.66513 -1.38566,2.95084 -2.97619,2.97619 -2.11993,0.0338 -3.72168,-1.88309 -3.69048,-3.92858 0.0393,-2.57403 2.38088,-4.49527 4.88096,-4.40476 3.02793,0.10963 5.27045,2.87884 5.11904,5.83334 -0.17843,3.48178 -3.37691,6.04662 -6.78572,5.83333 -3.9356,-0.24625 -6.82343,-3.87506 -6.54761,-7.7381 0.31341,-4.38943 4.37326,-7.60072 8.69048,-7.2619 4.84327,0.38011 8.37835,4.8715 7.97619,9.64286 -0.44648,5.29712 -5.36978,9.15622 -10.59525,8.69047" />
  </g>
</svg>
