<?xml version="1.0" encoding="UTF-8" standalone="no"?>
<svg
   xmlns:dc="http://purl.org/dc/elements/1.1/"
   xmlns:cc="http://creativecommons.org/ns#"
   xmlns:rdf="http://www.w3.org/1999/02/22-rdf-syntax-ns#"
   xmlns:svg="http://www.w3.org/2000/svg"
   xmlns="http://www.w3.org/2000/svg"
   xmlns:sodipodi="http://sodipodi.sourceforge.net/DTD/sodipodi-0.dtd"
   xmlns:inkscape="http://www.inkscape.org/namespaces/inkscape"
   viewBox="0 0 157.58 258.42"
   id="svg2"
   version="1.1"
   inkscape:version="0.91 r13725"
   sodipodi:docname="footprints1.svg">
  <metadata
     id="metadata16">
    <rdf:RDF>
      <cc:Work
         rdf:about="">
        <dc:format>image/svg+xml</dc:format>
        <dc:type
           rdf:resource="http://purl.org/dc/dcmitype/StillImage" />
      </cc:Work>
    </rdf:RDF>
  </metadata>
  <defs
     id="defs14" />
  <sodipodi:namedview
     pagecolor="#ffffff"
     bordercolor="#666666"
     borderopacity="1"
     objecttolerance="10"
     gridtolerance="10"
     guidetolerance="10"
     inkscape:pageopacity="0"
     inkscape:pageshadow="2"
     inkscape:window-width="1920"
     inkscape:window-height="1022"
     id="namedview12"
     showgrid="false"
     inkscape:zoom="0.91324196"
     inkscape:cx="80.980001"
     inkscape:cy="129.21001"
     inkscape:window-x="0"
     inkscape:window-y="0"
     inkscape:window-maximized="1"
     inkscape:current-layer="svg2" />
  <g
     fill="#fff"
     id="g6">
    <path
       d="m72.472 124.81c-10.97 3.8879-20.656 6.367-34.571 10.792 5.4558 69.547 69.327 41.82 34.571-10.792zm-3.1642-12.619c0.18684-9.6633-0.31101-18.977 3.781-28.164 4.6484-9.8507 5.3912-18.491 2.8197-32.796-4.6773-26.019-14.565-42.241-27.918-45.803-28.482-4.2447-32.01 24.309-32.701 45.196-1.5723 11.689 8.1067 61.712 19.811 70.185 11.502-3.0035 22.796-5.9504 34.206-8.6174z"
       id="path8" />
    <path
       d="m93.548 186.6c10.97 3.8879 20.656 6.367 34.571 10.792-5.4558 69.547-69.327 41.82-34.571-10.792zm3.1642-12.619c-0.18684-9.6633 0.31101-18.977-3.781-28.164-4.6484-9.8507-5.3912-18.491-2.8197-32.796 4.6773-26.019 14.565-42.241 27.918-45.803 28.482-4.2447 32.01 24.309 32.701 45.196 1.5723 11.689-8.1067 61.712-19.811 70.185-11.502-3.0035-22.796-5.9504-34.206-8.6174z"
       id="path10" />
  </g>
  <path
     style="fill:#a05a2c;fill-opacity:1;stroke:#000000;stroke-width:2.19000006;stroke-miterlimit:4;stroke-dasharray:none;stroke-opacity:1"
     d="M 33.141798,117.8597 C 27.968214,112.14295 21.135095,91.607701 17.614357,71.19582 14.683794,54.205539 16.079915,31.937885 20.760871,21.010015 23.133033,15.472113 28.84633,9.1826314 33.130971,7.392394 35.07835,6.5787275 39.569836,5.9130003 43.112053,5.9130003 c 5.224541,0 7.274692,0.5684803 10.859685,3.0112502 11.301962,7.7010175 19.059071,24.5444765 22.19359,48.1902295 1.358818,10.25046 0.456482,17.330394 -3.313184,25.996024 -1.499788,3.447679 -2.810811,9.799401 -3.540563,17.153516 l -1.158863,11.67851 -15.680111,3.92524 c -8.62406,2.15888 -16.107851,3.92524 -16.630648,3.92524 -0.522796,0 -1.737868,-0.86999 -2.700161,-1.93331 z"
     id="path4146"
     inkscape:connector-curvature="0" />
  <path
     style="fill:#a05a2c;fill-opacity:1;stroke:#000000;stroke-width:2.19000006;stroke-miterlimit:4;stroke-dasharray:none;stroke-opacity:1"
     d="m 116.677,178.41273 c -7.52812,-1.91685 -15.04256,-3.82747 -16.698748,-4.24582 -2.909072,-0.73482 -3.011831,-1.01072 -3.028355,-8.13101 -0.01803,-7.7706 -1.579501,-15.13453 -5.510017,-25.98539 -1.997017,-5.51311 -2.293418,-8.15534 -1.842535,-16.425 1.357869,-24.904729 12.166535,-48.379292 25.102195,-54.517667 10.43448,-4.951482 23.64995,0.213747 29.46309,11.515564 5.32203,10.347001 7.37527,31.077783 4.79748,48.438313 -3.29434,22.18629 -10.84578,45.83906 -16.16917,50.64543 l -2.42644,2.19077 -13.6875,-3.48519 z"
     id="path4148"
     inkscape:connector-curvature="0" />
  <path
     style="fill:#a05a2c;fill-opacity:1;stroke:#000000;stroke-width:2.19000006;stroke-miterlimit:4;stroke-dasharray:none;stroke-opacity:1"
     d="m 95.264635,237.00301 c -1.237427,-0.50115 -3.797484,-2.67382 -5.689016,-4.82816 -5.838104,-6.64923 -7.230773,-16.10388 -3.983999,-27.04685 1.951963,-6.57892 6.356284,-15.82576 8.030843,-16.86069 0.929391,-0.5744 32.608587,8.60475 33.796477,9.79263 0.9811,0.98111 -3.43319,18.97228 -5.90915,24.08367 -3.28582,6.78328 -5.52044,9.48088 -10.84936,13.09718 -4.27711,2.90253 -10.750622,3.64349 -15.395795,1.76222 z"
     id="path4150"
     inkscape:connector-curvature="0" />
  <path
     style="fill:#a05a2c;fill-opacity:1;stroke:#000000;stroke-width:2.19000006;stroke-miterlimit:4;stroke-dasharray:none;stroke-opacity:1"
     d="m 56.794304,174.46163 c -7.338683,-3.63261 -13.279912,-12.92218 -16.208288,-25.3429 -3.204215,-13.5907 -3.807011,-12.78119 13.421657,-18.02435 8.270255,-2.51686 15.775952,-4.86114 16.679327,-5.2095 3.601941,-1.38896 11.140659,17.16736 11.239549,27.66581 0.07647,8.11925 -1.703539,13.24442 -6.058925,17.44535 -6.333949,6.10932 -11.745844,7.09266 -19.07332,3.46559 z"
     id="path4152"
     inkscape:connector-curvature="0" />
</svg>
