<?xml version="1.0" encoding="UTF-8" standalone="no"?>
<svg
   xmlns:dc="http://purl.org/dc/elements/1.1/"
   xmlns:cc="http://creativecommons.org/ns#"
   xmlns:rdf="http://www.w3.org/1999/02/22-rdf-syntax-ns#"
   xmlns:svg="http://www.w3.org/2000/svg"
   xmlns="http://www.w3.org/2000/svg"
   xmlns:sodipodi="http://sodipodi.sourceforge.net/DTD/sodipodi-0.dtd"
   xmlns:inkscape="http://www.inkscape.org/namespaces/inkscape"
   viewBox="0 0 1118 894"
   id="svg2"
   version="1.1"
   inkscape:version="0.91 r13725"
   sodipodi:docname="droplet.svg">
  <metadata
     id="metadata68">
    <rdf:RDF>
      <cc:Work
         rdf:about="">
        <dc:format>image/svg+xml</dc:format>
        <dc:type
           rdf:resource="http://purl.org/dc/dcmitype/StillImage" />
        <dc:title></dc:title>
      </cc:Work>
    </rdf:RDF>
  </metadata>
  <defs
     id="defs66" />
  <sodipodi:namedview
     pagecolor="#ffffff"
     bordercolor="#666666"
     borderopacity="1"
     objecttolerance="10"
     gridtolerance="10"
     guidetolerance="10"
     inkscape:pageopacity="0"
     inkscape:pageshadow="2"
     inkscape:window-width="1920"
     inkscape:window-height="1022"
     id="namedview64"
     showgrid="false"
     inkscape:zoom="0.2639821"
     inkscape:cx="790.72617"
     inkscape:cy="447"
     inkscape:window-x="0"
     inkscape:window-y="0"
     inkscape:window-maximized="1"
     inkscape:current-layer="svg2" />
  <path
     style="fill:#7aeff9;fill-rule:evenodd;stroke:#7aeff9"
     inkscape:connector-curvature="0"
     id="path6"
     d="m 740,710 1,0 q -1,1 -5,7 -6,6 -20,19 -14,13 -27,22 -13,10 -27,16 -13,8 -24,12 -10,4 -28,8 l -18,4 -3,1 -3,0 0,-2 1,0 0,-1 1,0 0,-6 15,-6 q 15,-6 32,-12 17,-8 18,-8 l 1,0 1,-1 1,-1 17,-10 q 17,-9 37,-23 19,-13 24,-15 4,-2 4,-3 0,-1 2,-1 z" />
  <path
     style="fill:#19e8f8;fill-rule:evenodd;stroke:#19e8f8"
     inkscape:connector-curvature="0"
     id="path8"
     d="m 347,666 -7,-15 4,0 8,16 q 9,17 10,17 1,0 1,1 l 0,1 -1,0 q -1,0 -2,-1 l -2,-1 -1,0 0,-1 -1,0 0,-1 -1,-1 q -1,-1 -8,-15 z" />
  <path
     style="fill:#11a9e9;fill-rule:evenodd;stroke:#11a9e9"
     inkscape:connector-curvature="0"
     id="path10"
     d="m 637,584 0,1 3,0 3,-1 q 1,0 2,-1 2,-1 6,-8 l 5,-7 0,-2 1,0 0,-1 1,0 0,-2 1,0 0,-1 1,0 0,3 -2,17 q -2,17 6,27 8,10 10,14 2,4 3,5 l 1,1 0,1 1,0 0,1 3,6 q 4,6 4,7 l 0,1 -1,0 q -1,-1 -1,-1 l -1,0 0,1 -1,0 0,1 -1,0 -1,1 -1,1 -1,0 -2,4 q -2,3 -2,3 -1,1 -1,1 l -1,0 q 0,0 0,1 -1,1 -1,1 l -1,0 0,1 -1,0 0,1 -2,0 0,1 q -1,0 -8,6 -7,7 -8,6 -1,-1 -1,0 0,1 -4,3 -3,2 -4,4 -1,2 -4,4 -3,2 -5,5 -2,2 -3,2 -2,0 -3,2 -1,1 -1,1 -1,-1 -4,1 -4,3 -5,1 -1,-1 -4,0 -2,1 -3,-3 -2,-4 -4,-4 l -1,1 -10,0 q -1,0 -7,-1 -5,-1 -16,-1 -10,0 -18,-1 l -8,-1 0,-2 -2,0 0,-1 -1,0 0,-1 -1,0 0,-1 -1,0 0,-1 2,0 0,-1 -1,0 0,-1 1,0 q 1,0 3,-1 1,-1 4,-5 4,-4 6,-11 2,-6 4,-14 0,-8 -1,-14 -1,-6 -5,-21 -2,-15 -3,-19 -1,-4 -3,-12 -2,-8 -4,-12 -2,-4 -8,-12 -6,-9 -10,-12 -3,-4 -15,-10 -12,-7 -25,-13 -12,-7 -12,-8 0,-1 -8,-1 -7,1 -30,9 l -23,8 -2,0 -1,1 -1,0 0,-1 -1,-1 0,-25 q 0,-25 2,-37 l 2,-12 0,-7 1,0 0,2 1,1 0,1 1,1 1,1 1,4 q 2,3 7,6 5,2 14,2 10,0 24,-12 14,-10 18,-10 5,0 22,6 16,6 30,15 15,9 20,15 6,4 12,9 5,5 18,18 14,13 21,22 7,9 10,15 3,5 4,5 1,0 9,17 8,16 10,17 1,0 1,1 z" />
  <path
     style="fill:#7482bf;fill-rule:evenodd;stroke:#7482bf"
     inkscape:connector-curvature="0"
     id="path12"
     d="m 534,122 1,0 q 1,1 2,2 l 0,1 q -1,1 -7,19 -6,18 -12,34 l -7,15 0,-1 -1,-2 0,-1 -1,0 0,1 -4,0 0,1 -1,0 0,-2 1,-1 1,-1 8,-19 q 10,-20 14,-32 4,-12 5,-12 l 0,-1 q 1,0 1,-1 z" />
  <path
     style="fill:#0990dc;fill-rule:evenodd;stroke:#0990dc"
     inkscape:connector-curvature="0"
     id="path14"
     d="m 336,622 2,0 9,20 q 9,20 15,30 6,10 15,21 9,11 14,17 5,5 5,5 l 0,1 1,-1 1,-1 0,1 1,0 0,1 1,0 0,-4 2,0 0,-3 1,0 1,-1 2,0 0,-1 8,9 q 8,10 9,10 l 0,1 q 0,1 1,1 0,0 0,1 l 1,0 q 0,1 1,1 0,0 0,1 l 1,0 q 0,1 1,1 0,0 0,1 l 1,0 q 0,1 1,1 0,0 0,1 l 1,0 q 0,1 1,1 0,0 0,1 l 1,0 4,5 q 3,5 4,6 l 1,1 0,2 1,0 0,1 1,0 0,1 1,1 0,1 -1,0 -1,1 -5,0 -1,-1 -1,-1 -1,0 q 0,0 -9,-6 -10,-6 -24,-19 -14,-12 -18,-15 -4,-4 -5,-6 -1,-3 -2,-3 -1,-1 -7,-10 l -7,-9 q -1,-1 -1,-1 l 0,-1 q 0,0 -9,-16 l -9,-17 0,-1 q 0,-1 -1,-2 -1,-1 -3,-10 l -2,-8 -1,-2 q -1,-1 -1,-3 l -1,-2 1,0 0,-1 z" />
  <path
     style="fill:#9aecf9;fill-rule:evenodd;stroke:#9aecf9"
     inkscape:connector-curvature="0"
     id="path16"
     d="m 610,212 0,-1 1,0 0,1 1,0 2,2 q 2,2 3,2 l 1,0 0,1 1,0 q 0,1 1,1 0,0 0,1 l 1,0 24,47 q 23,48 37,83 14,35 22,64 8,29 12,55 4,26 4,56 0,30 -5,46 -5,17 -14,33 -9,17 -11,19 -2,4 -3,4 -1,0 -1,1 -1,1 -1,2 l -1,0 0,1 -2,0 0,1 -1,0 0,-1 -1,0 0,1 -1,0 0,-1 -1,0 0,-1 -1,-1 q -1,-1 -3,-5 -2,-4 -10,-14 -8,-10 -6,-27 l 2,-17 0,-5 q 0,-3 1,-5 l 0,-2 1,0 0,-1 1,0 0,-1 1,0 0,-2 1,-3 q 1,-3 3,-19 4,-16 5,-39 1,-22 2,-21 1,1 1,-6 0,-7 -3,-26 -3,-19 -9,-50 -8,-31 -22,-71 -14,-41 -23,-62 l -9,-21 0,-2 -1,-1 q -1,-1 -1,-8 l 0,-7 2,0 0,-1 z" />
  <path
     style="fill:#0160a5;fill-rule:evenodd;stroke:#0160a5"
     inkscape:connector-curvature="0"
     id="path18"
     d="m 366,436 1,0 -5,19 q -4,19 -7,35 -3,15 -3,24 l 0,32 q 0,25 4,47 4,22 9,35 5,13 11,27 6,14 10,22 6,8 6,9 0,0 0,1 l 1,0 1,3 q 2,2 2,3 l 0,1 5,6 q 5,6 5,6 l 0,2 -2,0 -1,1 -1,0 0,3 -2,0 0,4 -1,0 0,-1 -1,0 0,-1 -1,1 -1,1 0,-1 q 0,0 -5,-5 -5,-6 -14,-17 -9,-11 -15,-21 -6,-10 -15,-30 l -9,-20 0,-4 -1,-2 q -1,-2 -1,-4 -2,-3 -6,-24 -4,-22 -4,-44 0,-23 0,-28 l 1,-6 0,-4 1,-3 0,-3 q 0,-3 2,-12 2,-8 4,-18 l 3,-9 0,2 1,0 1,-1 1,0 0,2 1,0 0,-1 1,0 0,-2 1,0 0,-1 1,0 0,-1 q 0,-1 2,-4 1,-3 2,-3 2,0 6,-4 4,-4 6,-5 l 1,-1 0,-1 q 1,0 2,-3 2,-2 3,-2 z" />
  <path
     style="fill:#576bbe;fill-rule:evenodd;stroke:#576bbe"
     inkscape:connector-curvature="0"
     id="path20"
     d="m 568,96 -1,-8 1,0 q 1,0 9,20 9,20 9,22 l 0,1 1,1 0,2 1,2 q 1,2 1,3 l 1,0 2,7 q 4,8 4,9 l 0,1 1,1 1,1 0,1 1,1 0,1 -1,0 -1,-1 -2,0 0,-2 q -1,-1 -2,0 -2,0 -2,-1 0,-1 -1,-1 0,1 -3,1 -2,0 -3,2 l 0,2 -1,0 -1,1 -1,-2 -1,-1 0,-3 q 0,-3 -6,-27 -6,-24 -6,-33 z" />
  <path
     style="fill:#1de1fc;fill-rule:evenodd;stroke:#1de1fc"
     inkscape:connector-curvature="0"
     id="path22"
     d="m 394,689 -2,-3 8,7 q 9,7 31,18 22,11 37,16 16,5 26,4 11,-1 26,-3 15,-4 26,-6 11,-2 17,-3 6,-1 8,-1 l 4,0 3,-1 2,0 0,1 -1,0 0,1 -1,0 0,1 -1,0 0,1 q -1,0 -3,1 l -2,2 0,3 -1,1 -1,1 0,2 1,0 0,1 1,0 0,1 1,0 0,1 2,0 33,3 q 32,3 32,4 0,1 2,1 2,1 2,2 0,1 2,1 1,0 1,1 0,2 1,2 0,1 1,2 1,0 1,4 -1,3 0,4 2,0 2,2 l 0,1 1,0 1,1 2,0 -1,1 -1,1 -1,0 q -1,0 -18,8 -17,6 -32,12 l -15,6 0,6 -1,0 0,1 -1,0 0,2 q 0,0 -1,0 0,1 -27,1 -27,0 -46,-4 -19,-4 -38,-12 l -18,-8 0,-3 -2,0 0,-2 1,-1 1,-2 0,-1 1,0 0,1 3,0 6,2 q 6,2 12,2 l 5,0 -1,0 0,-1 -1,0 0,-1 -2,0 -1,-1 -1,-1 -1,0 -2,-1 q -1,-1 -11,-7 -10,-8 -20,-15 l -10,-8 0,-1 q -1,0 -1,0 0,-1 -1,-1 l 0,-1 q -1,0 -1,0 0,-1 -1,-1 l 0,-1 q -1,0 -1,0 0,-1 -1,-1 l 0,-1 q -1,0 -1,0 0,-1 -1,-1 l 0,-1 q -1,0 -1,0 0,-1 -1,-1 l 0,-1 q -1,0 -9,-10 l -8,-9 0,-1 q 0,0 -5,-6 l -5,-6 0,-1 q 0,-1 -2,-4 z" />
  <path
     style="fill:#7f9dd5;fill-rule:evenodd;stroke:#7f9dd5"
     inkscape:connector-curvature="0"
     id="path24"
     d="m 598,160 q 0,0 0,1 l 1,0 12,25 q 13,24 13,24 l 0,1 q -1,1 -4,-2 -4,-3 -4,-2 l 0,3 2,2 q 0,2 1,3 l 1,1 0,1 1,1 0,1 -2,0 0,-1 -1,-1 0,-1 -1,0 q -1,0 -3,-2 l -2,-2 -1,0 0,-1 -1,0 0,2 -2,0 0,7 q 0,7 1,8 l 1,1 0,2 -1,-1 -1,0 0,2 -1,0 -1,1 -1,1 -1,0 0,-2 -1,0 0,-2 -1,-1 0,-1 q 0,-1 -3,-8 -3,-8 -10,-33 l -7,-25 1,-1 1,0 0,-2 q 1,-2 3,-2 3,0 3,-1 1,0 1,1 0,1 3,1 3,0 3,1 1,1 1,1 z" />
  <path
     style="fill:#1db2ed;fill-rule:evenodd;stroke:#1db2ed"
     inkscape:connector-curvature="0"
     id="path26"
     d="m 426,730 -3,-3 5,5 q 6,4 11,9 5,5 19,15 15,10 16,11 l 2,1 1,0 1,1 1,1 2,0 0,1 1,0 0,1 1,0 -5,0 q -6,0 -12,-2 l -6,-2 -3,0 0,-1 -1,0 0,-1 -1,0 0,-1 -1,0 q 0,-1 -6,-3 l -6,-4 -1,0 -1,-1 -1,-1 4,0 1,-1 1,0 0,-1 -1,-1 0,-1 -1,0 0,-1 -1,0 0,-2 -1,-1 q -1,-1 -7,-8 l -6,-6 q 0,0 -2,-4 z" />
  <path
     style="fill:#84bbdf;fill-rule:evenodd;stroke:#84bbdf"
     inkscape:connector-curvature="0"
     id="path28"
     d="m 608,231 0,-1 1,0 1,1 9,21 q 9,21 23,62 14,40 22,71 6,31 9,50 3,19 3,26 0,7 -1,6 -1,-1 -2,21 -1,23 -5,39 -2,16 -3,19 l -1,3 0,2 -1,0 0,1 -1,0 0,1 -1,0 0,-2 1,-2 0,-46 q 0,-46 -4,-69 -2,-22 -6,-38 -2,-15 -10,-42 -6,-27 -22,-72 l -14,-45 -1,-1 q -1,-1 -1,-2 l 1,0 1,-1 1,-1 1,0 0,-1 z" />
  <path
     style="fill:#0b93e9;fill-rule:evenodd;stroke:#0b93e9"
     inkscape:connector-curvature="0"
     id="path30"
     d="m 766,620 0,-1 1,1 1,2 0,2 1,0 q 1,0 2,2 1,3 1,2 0,-1 1,0 0,1 2,1 1,0 2,2 l 0,2 1,0 1,-1 2,0 0,1 1,0 0,-1 q 0,-1 1,-1 l 1,0 -7,17 q -7,17 -14,29 -7,13 -14,23 -7,10 -8,10 l -1,0 q -1,0 -1,1 l -1,0 q 0,1 -4,3 -5,2 -24,15 -20,14 -37,23 l -17,10 -2,0 -1,-1 -1,0 0,-1 q 0,-2 -2,-2 -1,-1 0,-4 0,-4 -1,-4 -1,-1 -1,-2 -1,0 -1,-2 0,-1 -1,-1 -2,0 -2,-1 0,-1 -2,-2 -2,0 -2,-1 0,-1 -32,-4 l -33,-3 -2,0 0,-1 -1,0 0,-1 -1,0 0,-1 -1,0 0,-2 1,-1 1,-1 0,-3 2,-2 q 2,-1 3,-1 l 0,-1 1,0 0,-1 1,0 0,-1 1,0 0,-1 9,-7 q 9,-8 10,-8 l 0,-1 1,0 0,-1 -1,-4 -1,-3 0,-1 -1,0 0,-1 -1,0 0,-1 9,0 1,-1 q 2,0 4,4 1,4 3,3 3,-1 4,0 1,2 5,-1 3,-2 4,-1 0,0 1,-1 1,-2 3,-2 1,0 3,-2 2,-3 5,-5 3,-2 4,-4 1,-2 4,-4 4,-2 4,-3 0,-1 1,0 1,1 8,-6 7,-6 8,-6 l 0,-1 2,0 0,-1 1,0 0,-1 1,-1 1,-1 1,-1 1,0 0,2 -1,0 0,1 -1,0 0,3 -1,1 -1,1 -4,9 q -6,8 -6,12 l 0,3 1,0 0,1 1,0 1,1 1,1 8,-1 q 8,-1 14,-3 7,-4 21,-8 14,-4 20,-7 7,-3 14,-11 7,-7 15,-20 6,-13 7,-14 l 1,-1 0,-2 1,-1 1,-2 z" />
  <path
     style="fill:#41f6fb;fill-rule:evenodd;stroke:#41f6fb"
     inkscape:connector-curvature="0"
     id="path32"
     d="m 360,688 -2,-4 1,0 q 1,0 2,1 l 1,0 q 0,1 0,1 l 1,0 7,9 q 6,9 7,10 1,0 2,3 1,2 5,6 4,3 18,15 14,13 24,19 9,6 9,6 l 1,0 1,1 1,1 1,0 1,1 1,1 1,0 6,4 q 6,2 6,3 l 1,0 0,1 1,0 0,6 -1,0 0,1 1,0 0,3 -1,0 -1,-1 -1,-1 -2,0 -1,-1 q -2,-1 -8,-4 -6,-3 -20,-13 -13,-10 -26,-24 -14,-14 -24,-26 -10,-13 -12,-18 z" />
  <path
     style="fill:#036dc3;fill-rule:evenodd;stroke:#036dc3"
     inkscape:connector-curvature="0"
     id="path34"
     d="m 595,233 1,0 0,1 1,-1 1,-1 0,1 1,0 0,1 2,0 0,1 1,0 0,-1 1,-1 0,-1 1,0 0,2 q 0,1 1,2 l 1,1 14,45 q 16,45 22,72 8,27 10,42 4,16 6,38 4,23 4,69 l 0,46 -1,2 0,4 q -1,2 -1,5 l 0,2 -1,0 0,1 -1,0 0,2 -1,0 0,1 -1,0 0,2 -5,7 q -4,7 -6,8 -1,1 -2,1 l -3,1 -3,0 0,-1 q 0,-1 -1,-1 -2,-1 -10,-17 -8,-17 -9,-17 -1,0 -4,-5 -3,-6 -10,-15 -7,-9 -21,-22 -13,-13 -18,-18 -6,-5 -12,-9 -5,-6 -20,-15 -14,-9 -30,-15 -17,-6 -22,-6 -4,0 -18,10 -14,12 -24,12 -9,0 -14,-2 -5,-3 -7,-6 l -1,-4 -1,-1 -1,-1 0,-1 -1,-1 0,-4 q 1,-3 1,-10 2,-8 8,-32 6,-25 16,-51 10,-26 24,-55 l 14,-30 1,-2 1,-1 0,-2 1,0 0,-1 1,0 0,6 1,1 1,1 0,8 q 0,9 0,12 l 0,2 -1,2 0,2 2,0 0,-2 q 1,-1 1,-2 l 1,-2 0,-1 2,0 0,1 -1,1 0,2 -1,1 q -1,2 -1,4 l 0,4 0,-2 1,-1 1,-1 0,-1 1,-1 1,-1 0,-1 1,2 q 1,2 3,-1 2,-3 4,-7 2,-4 4,-4 1,0 4,-6 2,-6 4,-8 2,-2 5,-7 2,-5 4,-5 1,-1 11,-19 10,-18 14,-24 4,-7 7,-8 3,-2 3,-3 0,-1 3,0 3,0 5,2 3,2 16,12 14,10 16,12 3,2 3,3 z" />
  <path
     style="fill:#839ed8;fill-rule:evenodd;stroke:#839ed8"
     inkscape:connector-curvature="0"
     id="path36"
     d="m 624,211 30,51 q 30,50 43,78 13,27 21,46 6,20 10,34 4,13 6,31 4,18 4,52 0,34 -5,57 -5,23 -11,42 -6,18 -15,33 -8,15 -9,17 0,2 -1,3 l -1,1 0,1 -1,0 0,1 -1,0 0,1 -1,0 0,1 -2,0 0,-2 -1,-2 0,-2 q 0,-1 -2,-5 l -2,-4 0,-1 q 0,0 -1,0 l 0,-1 q -1,-1 -3,-7 l -3,-5 1,0 0,-1 1,0 0,1 1,0 0,-1 2,0 0,-1 1,0 q 0,-1 1,-2 0,-1 1,-1 1,0 3,-4 2,-2 11,-19 9,-16 14,-33 5,-16 5,-46 0,-30 -4,-56 -4,-26 -12,-55 -8,-29 -22,-64 -14,-35 -37,-83 l -24,-47 0,-1 q -1,0 -1,0 l 0,-2 -1,-1 q -1,-1 -1,-3 l -2,-2 0,-3 q 0,-1 4,2 3,3 4,2 z" />
  <path
     style="fill:#0a51bb;fill-rule:evenodd;stroke:#0a51bb"
     inkscape:connector-curvature="0"
     id="path38"
     d="m 391,336 12,-17 0,1 q 0,2 1,2 1,0 -7,13 -8,13 -20,35 -13,22 -21,40 -10,19 -14,32 -4,12 -4,14 l 0,2 -1,2 0,1 -3,9 q -2,10 -4,18 -2,9 -2,12 l 0,3 -1,3 0,4 -1,0 0,-11 -1,2 q -1,2 -1,1 0,-2 -1,-2 l -1,0 0,-2 q 0,-1 2,-10 2,-10 8,-32 6,-21 14,-37 6,-16 20,-41 14,-24 25,-42 z" />
  <path
     style="fill:#13cff2;fill-rule:evenodd;stroke:#13cff2"
     inkscape:connector-curvature="0"
     id="path40"
     d="m 332,628 -4,-13 2,1 q 2,0 2,2 l 0,1 1,0 0,1 1,0 0,2 1,0 0,1 1,2 q 0,2 1,3 l 1,2 2,8 q 2,9 3,10 1,1 1,2 l 0,1 -4,0 0,-1 -1,-2 -1,-1 0,-1 q 0,-2 -1,-3 -1,-1 -5,-15 z" />
  <path
     style="fill:#0237b0;fill-rule:evenodd;stroke:#0237b0"
     inkscape:connector-curvature="0"
     id="path42"
     d="m 589,133 1,-1 1,0 q 0,0 1,1 0,1 0,1 l 1,0 13,24 q 12,24 26,46 14,22 26,40 13,18 14,19 1,0 16,21 14,20 29,42 15,21 31,50 18,30 26,53 10,23 14,45 6,21 8,38 2,18 1,38 -1,20 -3,39 -4,19 -6,29 -4,11 -4,12 l 0,1 -1,1 -1,0 0,1 -1,0 0,-1 -2,0 -1,1 -1,0 0,-2 q -1,-2 -2,-2 -2,0 -2,-1 -1,-1 -1,0 0,1 -1,-2 -1,-2 -2,-2 l -1,0 0,-2 -1,-2 -1,-1 0,1 -1,2 -1,1 0,2 -1,1 q -1,1 -7,14 -8,13 -15,20 -7,8 -14,11 -6,3 -20,7 -14,4 -21,8 -6,2 -14,3 l -8,1 -1,-1 -1,-1 -1,0 0,-1 -1,0 0,-3 q 0,-4 6,-12 l 4,-9 1,-1 1,-1 0,-4 q 0,0 1,-1 1,0 1,0 l 0,-1 q 0,0 2,-3 l 2,-4 1,0 1,-1 1,-1 1,0 0,-1 1,0 0,-1 2,0 1,1 2,4 q 2,4 2,5 l 0,2 1,2 0,2 2,0 0,-1 1,0 0,-1 1,0 0,-1 1,0 0,-1 1,-1 q 1,-1 1,-3 1,-2 9,-17 9,-15 15,-33 6,-19 11,-42 5,-23 5,-57 0,-34 -4,-52 -2,-18 -6,-31 -4,-14 -10,-34 -8,-19 -21,-46 -13,-28 -43,-78 l -30,-51 0,-1 q 0,0 -13,-24 l -12,-25 0,-1 q -1,0 -1,0 l 0,-2 -1,-1 -1,-1 0,-1 q 0,-1 -4,-9 l -2,-7 -1,0 q 0,-1 -1,-3 l -1,-2 1,0 1,-1 z" />
  <path
     style="fill:#0661d3;fill-rule:evenodd;stroke:#0661d3"
     inkscape:connector-curvature="0"
     id="path44"
     d="m 448,287 1,0 -14,26 q -13,26 -20,39 -6,14 -6,14 l -1,0 q 0,0 0,1 -1,1 -2,2 0,1 -2,1 l -1,0 -1,1 q -2,0 -2,1 l 0,1 -1,0 -1,1 -1,0 0,1 -1,0 0,1 -2,0 0,1 -1,0 0,-1 1,-1 0,-2 1,-1 1,-1 0,-1 1,-2 q 1,-1 5,-10 6,-9 8,-14 4,-5 7,-10 3,-6 15,-24 l 10,-17 1,0 0,-1 2,-2 q 2,-3 3,-3 z" />
  <path
     style="fill:#02c1f4;fill-rule:evenodd;stroke:#02c1f4"
     inkscape:connector-curvature="0"
     id="path46"
     d="m 408,366 1,0 -8,22 q -7,21 -12,40 -5,19 -7,37 -2,18 -2,51 0,32 1,34 l 0,2 -1,0 0,5 -1,0 0,-1 -2,0 0,2 -2,0 0,-1 -1,-1 0,-2 -1,-2 q 0,-2 -1,-2 -1,0 -1,-2 0,-2 -2,-2 -2,-1 -4,-12 l -1,-12 -1,0 0,1 -1,0 0,-2 -1,0 0,-1 -1,0 0,-2 -3,0 0,1 -1,0 0,2 -1,0 0,-1 -1,0 0,1 -1,0 0,1 -1,0 0,-8 q 0,-9 2,-17 0,-8 6,-34 l 6,-26 q 1,-1 1,-1 l 0,-1 q 1,-1 5,-13 6,-13 13,-29 l 8,-16 1,0 0,-1 2,0 0,-1 1,0 0,-1 1,0 1,-1 1,0 0,-1 q 0,-1 2,-1 l 1,-1 1,0 q 2,0 2,-2 1,-2 2,-2 z" />
  <path
     style="fill:#0230a4;fill-rule:evenodd;stroke:#0230a4"
     inkscape:connector-curvature="0"
     id="path48"
     d="m 557,44 0,-1 1,0 q 1,0 4,10 2,10 6,20 4,10 4,11 l 0,1 q 0,0 -1,1 -1,1 -1,0 -1,0 -2,1 l -1,1 1,8 q 0,9 6,33 6,24 6,27 l 0,3 1,1 1,2 7,25 q 7,25 10,33 3,7 3,8 l 0,1 1,1 0,3 -1,1 0,1 -1,0 0,-1 -2,0 0,-1 -1,0 0,-1 -1,1 -1,1 0,-1 -1,0 q 0,-1 -3,-3 -2,-2 -16,-12 -13,-10 -16,-12 -2,-2 -5,-2 -3,-1 -3,0 0,1 -3,3 -3,1 -7,8 -4,6 -14,24 -10,18 -11,19 -2,0 -4,5 -3,5 -5,7 -2,2 -4,8 -3,6 -4,6 -2,0 -4,4 -2,4 -4,7 -2,3 -3,1 l -1,-2 0,1 -1,1 -1,1 0,1 -1,1 -1,1 0,2 0,-4 q 0,-2 1,-4 l 1,-1 0,-2 -1,0 0,1 -1,0 q 0,1 -1,2 l 0,2 -2,0 0,-2 1,-2 0,-2 q 0,-3 0,-12 l 0,-8 -1,-1 -1,-1 0,-8 q 0,-1 8,-16 8,-15 15,-33 l 8,-18 7,-15 q 6,-16 12,-34 6,-18 7,-19 l 0,-1 4,-10 q 3,-10 4,-14 l 1,-4 0,-7 -1,1 -1,1 0,2 -1,1 -1,2 0,1 -1,1 -1,2 0,-1 -1,0 0,-3 1,-1 0,-3 8,-23 q 8,-23 9,-25 z" />
  <path
     style="fill:#0a8dde;fill-rule:evenodd;stroke:#0a8dde"
     inkscape:connector-curvature="0"
     id="path50"
     d="m 325,501 1,-2 0,11 1,0 -1,6 q 0,5 0,28 0,22 4,44 4,21 6,24 0,2 1,4 l 1,2 0,4 -2,0 0,1 -1,0 0,-1 -1,0 0,-2 -1,0 0,-1 -1,0 0,-1 q 0,-2 -2,-2 l -2,-1 q 0,0 -4,-21 -4,-22 -5,-44 -1,-22 1,-34 l 2,-13 0,-3 1,0 q 1,0 1,2 0,1 1,-1 z" />
  <path
     style="fill:#97d4f4;fill-rule:evenodd;stroke:#97d4f4"
     inkscape:connector-curvature="0"
     id="path52"
     d="m 506,190 3,0 0,-1 1,0 0,1 1,2 0,1 -8,18 q -7,18 -15,33 -8,15 -8,16 l 0,2 -1,0 0,1 -1,0 0,2 -1,1 -1,2 -14,30 q -14,29 -24,55 -10,26 -16,51 -6,24 -8,32 0,7 -1,10 l 0,2 -1,0 0,7 -2,12 q -2,12 -2,37 l 0,25 -1,10 q -1,10 -5,25 -2,15 -4,22 0,8 -1,13 l -1,5 0,4 -1,-1 -1,-1 0,-3 -1,-1 -1,-2 0,-2 q 0,-1 -2,-4 0,-2 -4,-20 l -4,-19 -1,-1 0,-4 q -1,-2 -1,-34 0,-33 2,-51 2,-18 7,-37 5,-19 12,-40 l 7,-21 q 0,0 1,-1 1,-1 6,-14 7,-13 20,-38 l 13,-26 q 0,0 1,0 l 0,-1 24,-41 q 25,-42 27,-48 4,-6 4,-6 l 0,-1 1,0 0,-1 1,0 z" />
  <path
     style="fill:#0bebfc;fill-rule:evenodd;stroke:#0bebfc"
     inkscape:connector-curvature="0"
     id="path54"
     d="m 543,678 -1,0 0,1 1,0 0,1 -2,0 0,1 1,0 0,1 1,0 0,1 1,0 0,1 2,0 0,2 8,1 q 8,1 18,1 11,0 16,1 6,1 7,1 l 1,0 0,1 1,0 0,1 1,0 0,1 1,3 1,4 0,1 -1,0 0,1 q -1,0 -10,8 l -9,7 -2,0 -3,1 -4,0 q -2,0 -8,1 -6,1 -17,3 -11,2 -26,6 -15,2 -26,3 -10,1 -26,-4 -15,-5 -37,-16 -22,-11 -30,-18 l -8,-6 0,-1 q -1,0 -1,0 0,-1 -6,-9 -4,-8 -10,-22 -6,-14 -11,-27 -5,-13 -9,-35 -4,-22 -4,-47 l 0,-24 1,0 0,-1 1,0 0,-1 1,0 0,1 1,0 0,-2 1,0 0,-1 3,0 0,2 1,0 0,1 1,0 0,2 1,0 0,-1 1,0 1,12 q 2,11 4,12 2,0 2,2 0,2 1,2 1,0 1,2 l 1,2 0,2 1,1 0,1 2,0 0,-2 2,0 0,1 1,0 0,-5 1,0 0,2 1,1 4,19 q 4,18 4,20 2,3 2,4 l 0,2 1,2 1,1 0,3 1,1 1,1 0,-4 1,-5 q 1,-5 1,-13 2,-7 4,-22 4,-15 5,-25 l 1,-10 1,1 0,1 1,0 1,-1 2,0 23,-8 q 23,-8 30,-9 8,0 8,1 0,1 12,8 13,6 25,13 12,6 15,10 4,3 10,12 6,8 8,12 2,4 4,12 2,8 3,12 1,4 3,19 4,15 5,21 1,6 1,14 -2,8 -4,14 -2,7 -6,11 -3,4 -4,5 -2,1 -3,1 z" />
  <path
     style="fill:#03278b;fill-rule:evenodd;stroke:#03278b"
     inkscape:connector-curvature="0"
     id="path58"
     d="m 532,115 0,1 q 1,0 2,0 1,0 1,2 -1,1 -1,2 l 0,2 q -1,0 -1,1 l 0,1 q -1,0 -5,12 -4,12 -14,32 l -8,19 -1,1 -1,1 0,3 q 0,0 -4,6 -2,6 -27,48 l -24,41 -1,0 q 0,1 0,1 -1,0 -3,2 l -2,2 0,1 -1,0 -10,17 q -12,18 -15,24 -3,5 -7,10 -2,5 -8,14 -4,9 -5,10 l -1,2 0,1 -1,1 -1,1 0,2 -1,1 0,1 -8,16 q -7,16 -13,29 -4,12 -5,13 l 0,1 q -1,0 -1,0 l 0,1 -2,2 q -2,2 -3,2 l 0,1 -1,1 q -2,1 -6,5 -4,4 -6,4 -1,0 -2,3 -2,3 -2,4 l 0,1 -1,0 0,1 -1,0 0,2 -1,0 0,1 -1,0 0,-2 -1,0 -1,1 -1,0 0,-3 1,-2 0,-2 q 0,-2 4,-14 4,-13 14,-32 8,-18 21,-40 12,-22 20,-35 8,-13 7,-13 -1,0 -1,-2 l 0,-1 19,-25 q 18,-26 19,-28 1,-3 4,-6 3,-2 17,-23 14,-21 25,-37 11,-17 27,-51 18,-34 18,-34 z" />
  <path
     style="fill:#1835a6;fill-rule:evenodd;stroke:#1835a6"
     inkscape:connector-curvature="0"
     id="path60"
     d="m 572,85 9,21 q 9,21 9,22 l 0,1 1,1 1,1 0,1 1,1 0,1 -2,0 0,-1 -1,-1 -1,1 -1,1 -1,0 0,-2 -1,-1 0,-1 q 0,-2 -9,-22 -8,-20 -9,-20 l -1,0 1,-1 q 1,-1 2,-1 0,1 1,0 1,-1 1,-1 z" />
  <path
     style="fill:#2545ae;fill-rule:evenodd;stroke:#2545ae"
     inkscape:connector-curvature="0"
     id="path62"
     d="m 545,90 1,-1 0,7 -1,4 q -1,4 -4,14 l -4,10 q -1,-1 -2,-1 l -2,0 0,-1 q 1,-1 1,-4 1,-2 0,-2 -1,0 -2,0 l 0,-1 3,-9 q 3,-8 4,-8 l 0,1 1,0 0,1 1,-2 1,-1 0,-1 1,-2 1,-1 0,-2 1,-1 z" />
</svg>
