<?xml version="1.0" encoding="UTF-8" standalone="no"?>
<svg
   xmlns:dc="http://purl.org/dc/elements/1.1/"
   xmlns:cc="http://creativecommons.org/ns#"
   xmlns:rdf="http://www.w3.org/1999/02/22-rdf-syntax-ns#"
   xmlns:svg="http://www.w3.org/2000/svg"
   xmlns="http://www.w3.org/2000/svg"
   xmlns:sodipodi="http://sodipodi.sourceforge.net/DTD/sodipodi-0.dtd"
   xmlns:inkscape="http://www.inkscape.org/namespaces/inkscape"
   viewBox="0 0 385.09449 385.36219"
   id="svg2"
   version="1.1"
   inkscape:version="0.91 r13725"
   sodipodi:docname="slime.svg"
   width="385.09448"
   height="385.36218">
  <metadata
     id="metadata18">
    <rdf:RDF>
      <cc:Work
         rdf:about="">
        <dc:format>image/svg+xml</dc:format>
        <dc:type
           rdf:resource="http://purl.org/dc/dcmitype/StillImage" />
        <dc:title></dc:title>
      </cc:Work>
    </rdf:RDF>
  </metadata>
  <defs
     id="defs16" />
  <sodipodi:namedview
     pagecolor="#ffffff"
     bordercolor="#666666"
     borderopacity="1"
     objecttolerance="10"
     gridtolerance="10"
     guidetolerance="10"
     inkscape:pageopacity="0"
     inkscape:pageshadow="2"
     inkscape:window-width="1056"
     inkscape:window-height="732"
     id="namedview14"
     showgrid="false"
     inkscape:zoom="0.31714784"
     inkscape:cx="-321.35243"
     inkscape:cy="526.18109"
     inkscape:window-x="0"
     inkscape:window-y="0"
     inkscape:window-maximized="0"
     inkscape:current-layer="svg2" />
  <path
     d="m 315.27539,258.11268 c 0,31.58623 -60.41471,57.22109 -134.85677,57.22109 -74.44205,0 -134.856763,-25.63486 -134.856763,-57.22109 0,-31.58624 60.414713,-57.2211 134.856763,-57.2211 74.44206,0 134.85677,25.63486 134.85677,57.2211 z"
     stroke-miterlimit="40"
     id="path4"
     inkscape:connector-curvature="0"
     style="fill:#008bff;fill-opacity:0.82744996;stroke:#008aff;stroke-width:6.25815439;stroke-miterlimit:40" />
  <path
     d="m 315.2609,258.11609 c 0,31.586 -60.413,57.221 -134.85,57.221 -74.437,0 -134.850003,-25.635 -134.850003,-57.221 10.967,-33.207 10.587,-107.79002 69.007003,-130.53012 36.124,-15.219 61.857,-63.35913 116.42,-51.7091 23.09,12.26604 46.672,45.2291 64.725,61.8701 16.728,21.62812 15.015,99.82712 19.551,120.37012 z"
     stroke-miterlimit="40"
     id="path6"
     inkscape:connector-curvature="0"
     style="fill:#008bff;fill-opacity:0.82744996;stroke:#008aff;stroke-width:6.25810003;stroke-miterlimit:40" />
  <path
     d="m 244.60538,211.79527 c -6.4427,0 -11.656,14.543 -11.656,32.438 0,17.895 5.2136,32.406 11.656,32.406 6.4424,0 11.687,-14.511 11.688,-32.406 10e-4,-17.895 -5.2448,-32.437 -11.688,-32.438 z m 3.4062,4.5312 c 2.5085,1e-5 4.5312,6.3604 4.5312,14.219 0,7.8586 -2.0228,14.25 -4.5312,14.25 -2.5084,0 -4.5625,-6.3917 -4.5625,-14.25 0,-7.8583 2.054,-14.219 4.5625,-14.219 z"
     stroke-miterlimit="40"
     id="path8"
     inkscape:connector-curvature="0"
     style="fill:#003bff;fill-opacity:0.82744996;stroke:#005cff;stroke-width:7.08659983;stroke-miterlimit:40" />
  <path
     d="m 192.32761,220.68429 c -6.4427,0 -11.656,14.511 -11.656,32.406 0,17.895 5.2136,32.438 11.656,32.438 6.4424,0 11.687,-14.543 11.688,-32.438 10e-4,-17.895 -5.2448,-32.406 -11.688,-32.406 z m 4.125,5.5938 c 2.5085,1e-5 4.5312,6.3917 4.5312,14.25 0,7.8583 -2.0228,14.219 -4.5312,14.219 -2.5084,0 -4.5625,-6.3604 -4.5625,-14.219 0,-7.8586 2.054,-14.25 4.5625,-14.25 z"
     stroke-miterlimit="40"
     id="path10"
     inkscape:connector-curvature="0"
     style="fill:#003bff;fill-opacity:0.82744996;stroke:#005cff;stroke-width:7.08659983;stroke-miterlimit:40" />
  <path
     d="m 166.0609,113.45597 c 0.69018,19.742 29.057,-4.6546 37.656,-10.21901 1.4439,-17.85006 -28.661,-0.19063 -37.656,10.21901 z m -26.25,24.812 c -0.74421,-10.414 -26.133,7.52668 -51.586001,28.73412 -28.075002,29.496 -28.609002,71.316 -31.608002,97.527 2.2408,5.1124 20.182002,23.113 38.721002,27.196 21.587001,-17.41 -0.56857,-92.073 22.240001,-122.48 7.1528,-10.894 21.189,-10.951 23.014,-31.53912 l -0.78125,0.5625 z"
     id="path12"
     inkscape:connector-curvature="0"
     style="opacity:0.3;fill:#00faff;fill-opacity:0.82744996" />
</svg>
