<?xml version="1.0" encoding="UTF-8"?>
<svg version="1.0" viewBox="0 0 1840 2301.9" xmlns="http://www.w3.org/2000/svg">
 <g transform="translate(104.14 1170.7)">
  <path d="m1451.8-347.46l35.975-14.39 46.431 0.53896c14.39 25.849 44.821 43.677 43.17 77.546l-50.428 24.244s-10.244-4.1524-16.515 9.077c-6.169 13.015-19.694-9.4988-19.46-15.473s11.192-7.9944 11.192-7.9944l30.379-7.195v-18.387l-80.744-47.967z" fill="#e8d8d0" fill-rule="evenodd" stroke="#000" stroke-linecap="round" stroke-linejoin="round" stroke-width="3.4"/>
  <path d="m202.86 289.51l-114.29 482.86-62.857 297.14-13.274 67.738 156.13-1.845 88.571-348.75 22.857-220 68.571-128.57 37.143-37.143 22.857 331.43-25.714 228.57-26.637 175.39 151.34-1.7558 3.8691-236.49 14.286-220 22.857-277.14 25.714-151.43-368.57-5.7143-2.8572 45.714z" fill="#e3d7d1" fill-rule="evenodd" stroke="#000" stroke-linecap="round" stroke-linejoin="round" stroke-width="3.4"/>
  <path d="m305.71-696.21l25.714-102.86 62.857-71.429h111.43l97.143 111.43 17.143 82.857 2.8571 100-68.571 71.429-22.857 22.857 108.57 88.571-242.86 102.86-68.571-214.29 31.429-65.714-40-28.571-11.429-22.857v-20l8.5714-14.286 28.571 5.7143 20 20 8.5714-37.143-68.571-28.571z" fill="#e8d8d0" fill-rule="evenodd" stroke="#000" stroke-linecap="round" stroke-linejoin="round" stroke-width="3.4"/>
  <path d="m331.77-616.08l14.39 19.986 35.975 8.7939-12.791-32.777 43.17 15.989 4.8668-31.234 23.114-18.331 67.953-6.3956 8.7939 4.7967 4.7967-11.192 20.786-0.79944 4.7967 19.187 7.195 27.981 11.992 2.3983 7.9944-43.969-20.786-9.5933 4.7686-57.083-122.29 43.492-41.571 47.967-35.975-10.393-15.989 8.7939-19.986 8.7939-4.7967 14.39 6.3956 5.5961 2.3983-17.588 26.382 2.3983-1.5989 3.1978-19.986 5.5961z" fill="#d9cfca" fill-rule="evenodd" stroke="#000" stroke-linecap="round" stroke-linejoin="round" stroke-width="3.4"/>
  <path d="m282.89-648.62l74.902 12.47 39.772 37.293 12.687-44.276 22.364-28.147 69.827-3.1865 48.78-43.902v36.585l26.829-51.22 12.195 31.707 29.268-48.78-51.22-131.71-46.341-87.805-17.073 43.902-56.098-53.659 24.39 48.78-112.2-21.951 24.39 14.634-85.366 29.268-43.902 80.488-11.251 90.205 33.202 46.381 4.8387 42.919z" fill="#5f3b2c" fill-rule="evenodd" stroke="#000" stroke-linecap="round" stroke-linejoin="round" stroke-width="3.4"/>
  <path d="m180.09 211.7l480.89 60.173 7.3171 121.95-41.463 234.15-75.61 334.15-17.073 92.683-109.76 21.951-100 24.39 7.3171-87.805 31.707-114.63-17.073-173.17-7.3171-141.46 9.7561 170.73-9.7561 117.07-41.463 90.244-36.585 70.732-136.59-21.951-87.805-68.293-31.707-78.049s53.659-119.51 56.098-129.27c2.439-9.7561 46.341-158.54 46.341-158.54l12.195-134.15 31.707-141.46 28.867-89.442z" fill="#e45c23" fill-rule="evenodd" stroke="#000" stroke-linecap="round" stroke-linejoin="round" stroke-width="3.4"/>
  <path d="m941.46 367c80.929-56.759 170.23-103.33 238.01-176.69 58.084-53.152 108.14-102.54 159.64-173.11s119.74-159.55 122.93-259.08c7.0241-77.533 17.998-156.32 11.784-233.88-14.635-72.043-13.168-150.28-43.766-216.16-53.851-115.95-122.68-229.46-209.22-326.93-42.047-57.507-93.643-105.99-152.55-145.86" fill="none" stroke="#000" stroke-linecap="round" stroke-linejoin="round" stroke-width="12"/>
  <path d="m591.59-616.08l12.484 42.529-20.479-4.9555v-30.379l7.9944-7.195z" fill="#aea9a7" fill-rule="evenodd" stroke="#000" stroke-linecap="round" stroke-linejoin="round" stroke-width="3.4"/>
  <path d="m583.59-635.26c5.5961-7.9944 29.579-13.591 29.579-13.591l2.3983-10.393-10.393-1.5989 8.7939-15.189-22.384 11.992-9.5933 22.384 1.5989 6.3956z" fill="#aea9a7" fill-rule="evenodd" stroke="#000" stroke-linecap="round" stroke-linejoin="round" stroke-width="3.4"/>
  <path d="m547.62-656.85l8.0365 38.373-17.63 10.393-42.371 7.9944-9.5933-2.3983 7.9944-7.195-1.5989-4.7967h-13.591l15.989-17.588 24.783-18.387 19.986-5.5961 3.9972-5.5961 3.9972 4.7967z" fill="#aea9a7" fill-rule="evenodd" stroke="#000" stroke-linecap="round" stroke-linejoin="round" stroke-width="3.4"/>
  <path d="m502.85-564.11l-29.568 12.791-0.71183 18.809 62.258-3.6194 59.159-3.1978v-7.9944l11.992-20.786-54.362 8.7939-3.9972 12.791-31.178-1.5989-13.591-15.989z" fill="#f6dace" fill-rule="evenodd" stroke="#000" stroke-linecap="round" stroke-linejoin="round" stroke-width="3.4"/>
  <path d="m446.09-411.42l-15.989-40.772s-83.142-13.591-86.34-13.591-125.04 4.863-125.04 4.863l-0.46752 21.651 151.89-8.9267 71.151 41.571 4.7967-4.7967z" fill="#d9cfca" fill-rule="evenodd" stroke="#000" stroke-linecap="round" stroke-linejoin="round" stroke-width="3.4"/>
  <path d="m214.29 249.51l45.714-522.86-191.43-74.286-108.57-65.714-17.143-82.857 180.66-45.264 116.48 10.978 114.29-14.286 77.143-42.857 20 5.7143 45.714 51.429v17.143l-31.429 51.429-22.857 51.429-82.857-40-251.43 17.143 205.71 68.571 282.86-34.286 48.571-108.57 140 71.429 377.14 68.571 191.43 20 88.571-11.429 91.429-5.7143 37.909 83.191s-16.784 12.189-23.36 17.148c-6.4518 4.8648-36.391 15.564-36.391 15.564l-18.158 41.241-54.286 8.5714-28.571-22.857-11.429-22.857h-48.571l-557.14-60-114.29 128.57-94.286 377.14-14.286 74.286-357.14-25.714z" fill="#e8d8d0" fill-rule="evenodd" stroke="#000" stroke-linecap="round" stroke-linejoin="round" stroke-width="3.4"/>
  <path d="m209.76-552.52l9.7561 100h141.46l87.805 26.829 23.723-122.11 168.96 34.301 197.56 65.854 343.9 51.22 190.24 46.341-41.463 131.71-239.02-29.268-231.71 17.073-126.83 21.951-46.341 424.39v73.171l-135.37-5.4878-183.89 3.1376-84.929-22.041-137.28 2.4401 24.39-102.44 19.512-236.59-14.634-143.9-4.878-48.78-221.71-101.21-33.06-37.438-18.399-41.837 21.951-41.463 51.22-46.341 121.95-21.951 117.07 2.439z" fill="#a3d47a" fill-rule="evenodd" stroke="#000" stroke-linecap="round" stroke-linejoin="round" stroke-width="3.4"/>
  <path transform="translate(-104.14 -1170.7)" d="m586.74 631.92l-6.5619 1.0936s-12.577 14.217 3.8278 16.952c16.405 2.7341 34.45 2.7341 34.45 2.7341l6.0151-22.967-37.731-9.296-1e-5 11.483z" fill="#e8d8d0" fill-rule="evenodd" stroke="#000" stroke-width="3.4"/>
  <path d="m482.86-512.95l-70.351 15.189 13.591 22.384-34.376-2.3983 35.975 36.774-41.571-27.981-79.944-10.393-21.585 5.5961s4.7967 15.989 10.393 15.989 98.332 10.393 98.332 10.393l40.772 29.579 51.164-73.549-2.3983-21.585z" fill="#d9cfca" fill-rule="evenodd" stroke="#000" stroke-linecap="round" stroke-linejoin="round" stroke-width="3.4"/>
  <path d="m465.85-508.61l1268.3 148.78-7.317-12.195-1263.4-156.1 2.439 19.512z" fill="#af8e7f" fill-rule="evenodd" stroke="#000" stroke-linecap="round" stroke-linejoin="round" stroke-width="3.4"/>
  <path d="m649.58-505.29l-57.165-34.844-75.344-2.583-12.896 20.242 145.41 17.184z" fill="#cdaf4d" fill-rule="evenodd" stroke="#000" stroke-linecap="round" stroke-linejoin="round" stroke-width="3.4927"/>
  <path d="m1412.6-257.13c3.1978 2.3983 44.769 37.574 44.769 37.574l-15.989 18.387 54.362-5.5961 15.989-41.571-11.992-24.783-30.895-33.333-39.456-12.235-37.185 40.309-25.972-2.7349-8.7939 20.786 18.387 16.788 24.783-1.5989 11.992-11.992z" fill="#f6dace" fill-rule="evenodd" stroke="#000" stroke-linecap="round" stroke-linejoin="round" stroke-width="3.4"/>
  <path d="m1463.7-341.41c10.393 5.5961 78.735 47.42 79.661 47.713 0.6418 0.20336 7.6387 5.6905 2.3785 13.114s-46.735 7.4681-46.735 7.4681l-32.777-34.376-36.774-10.393-35.176 39.972" fill="none" stroke="#000" stroke-linecap="round" stroke-linejoin="round" stroke-width="3.4"/>
  <path d="m1484.6-361.86l81.543-31.978s60.675 3.4901 71.151 11.192c10.727 7.8868-9.3093 21.511-9.3093 21.511l-64.24-2.3247-57.56 47.167-43.486-26.066 21.901-19.503z" fill="#d9cfca" fill-rule="evenodd" stroke="#000" stroke-linecap="round" stroke-linejoin="round" stroke-width="3.4"/>
  <path d="m1417.8-269.69l-21.585 19.986 19.69 19.797 35.176 30.379 34.672-7.8058s-3.1169-31.437-15.852-44.39c-12.735-12.953-52.101-17.966-52.101-17.966z" fill="#d9cfca" fill-rule="evenodd" stroke="#000" stroke-linecap="round" stroke-linejoin="round" stroke-width="3.4"/>
  <path d="m323.77-851.91v63.156l19.986-75.947 2.3983 59.159 37.574-79.944-22.384 105.53 39.173-107.92 31.178 87.939-10.393-80.744 49.566 71.151-18.387-48.766 68.752 68.752-21.585-82.343 69.552 86.34-16.788-59.159 39.173 52.763-58.359-140.7-5.5961 47.967-2.3983-63.956-30.379 49.566-12.791-41.571-3.9972 31.178-73.549-29.579 55.961 37.574-111.12-19.187 37.574 19.187-79.145-3.9972 22.384 22.384-38.373-1.5989-23.983 94.334 55.961-61.557z" fill="#8c482c" fill-rule="evenodd" stroke="#000" stroke-linecap="round" stroke-linejoin="round" stroke-width="3.4"/>
  <path d="m367.74 1090.7l-23.184-9.5933 21.585-27.981-8.7939-24.783 44.769-25.582 11.192-27.181-13.591-16.788 47.167-1.5989-53.563-31.178 65.554 10.393 16.788-49.566-52.763 9.5933-6.3956-18.387 68.752-27.181-57.56-26.382 17.588-13.591 72.749 28.78 4.7967-17.588-41.571-3.9972s-0.79944-12.791 4.7967-12.791h44.769l-3.9972-23.184-70.351-23.184 123.91 0.79944 13.591 13.591-61.557 282.2-164.69 35.176z" fill="#d4541e" fill-rule="evenodd" stroke="#000" stroke-linecap="round" stroke-linejoin="round" stroke-width="3.4"/>
  <path d="m259.02 1032.4l-135.11-19.986 34.376-8.7939-46.368-23.983-3.1978-21.585 19.986-17.588 20.786-59.958 61.557-55.162-44.769 6.3956 10.393-17.588 28.78 1.5989-51.164-18.387 61.557-15.989-42.371-21.585 8.7939-9.5933 31.178-3.9972-44.769-19.986 37.574-6.3956-13.591-8.7939 19.187-22.384-31.978-28.78 31.978 9.5933-9.5933-9.5933 21.585-8.7939-3.1978-15.989-14.39-39.972 60.758-14.39-38.373-27.181 71.95 2.3983-78.346-91.137 70.351 11.992 28.78 16.788 14.39 7.195 2.3983 67.153v20.786l10.393 169.48-9.5933 115.12-79.944 159.09z" fill="#d4541e" fill-rule="evenodd" stroke="#000" stroke-linecap="round" stroke-linejoin="round" stroke-width="3.4"/>
  <path d="m154.29 282.5l36.774 3.9972 19.986 23.983-29.579 26.382 11.192 36.774-34.376-6.3956-8.7939 66.354-15.989 7.195-7.9944 94.334-10.393 30.379 7.9944 111.92-36.774 14.39 9.5933 65.554-9.5933 23.983-22.384-28.78 18.387 53.563-10.393 65.554 52.763-5.5961s8.7939 65.554-15.189 64.755c-23.983-0.79944-23.566-3.3606-23.566-3.3606l39.555 21.748-34.086 7.9027 2.1082 24.075-12.791-3.9972-43.969-34.376-32.777-78.346 56.761-127.11 31.178-111.92 15.989-50.365 10.393-137.5 35.975-155.09z" fill="#e07243" fill-rule="evenodd" stroke="#000" stroke-linecap="round" stroke-linejoin="round" stroke-width="3.4"/>
  <path d="m689.92 288.89l-60.558-2.464-60.558 7.0914-60.558-12.02-79.669 3.2693 129.43-60.632-112.72-27.981-17.588-23.184 42.371 15.989-30.379-32.777s31.178 10.393 33.577 7.195c2.3983-3.1978 74.348-57.56 74.348-57.56l19.986-37.574 23.184 7.195-15.189 35.176-63.956 71.95 15.989 12.791 95.134-74.348-4.7967-51.964-25.582-65.554 36.774 56.761-1.5989-171.08 22.384 47.167 29.579 4.7967-1.5989-78.346 15.989 15.189 14.39-79.145 20.276 44.26-38.664 348.27v97.532z" fill="#8dc35f" fill-rule="evenodd" stroke="#000" stroke-linecap="round" stroke-linejoin="round" stroke-width="3.4"/>
  <path d="m745.08-209.96l-20.786 0.79944 8.7939-70.351 4.7967 19.187 18.387-70.351 32.777-36.774-30.379 74.348 7.9944 24.783 21.585-77.546 78.346-79.145-61.557 103.13-6.3956 55.162 40.772-80.744 58.359-27.981-79.145 93.535 79.944-24.783 21.585-32.777 35.176 3.9972-19.986 33.577-53.563 23.184-3.1978 19.986 110.32-17.588-7.9944 23.983 64.755-10.393 52.763 4.7967 76.747-45.568 41.571-11.192s-39.173 40.772-49.566 51.164c-10.393 10.393 87.139-19.187 87.139-19.187l-29.579 29.579-33.577 18.387-99.931-15.189-227.84 19.187-118.32 20.786z" fill="#8dc35f" fill-rule="evenodd" stroke="#000" stroke-linecap="round" stroke-linejoin="round" stroke-width="3.4"/>
  <path d="m172.68-247.53l-3.9972-18.387-145.43-66.619 31.112-14.124-55.961-9.5933-64.42-44.57-9.1286-37.773 74.348 45.568-48.83-50.235 95.33 23.383-24.916-27.51 103.26 23.38 29.447-24.18 38.304 17.513 12.061-9.5185 1.2656 18.99 12.362-0.76802 1.3658-16.162 18.126-1.536-25.125 40.248-6.3956 71.95-7.9944 67.153-24.783 12.791z" fill="#8dc35f" fill-rule="evenodd" stroke="#000" stroke-linecap="round" stroke-linejoin="round" stroke-width="3.4"/>
  <path d="m217.45-458.59l0.79945 36.774-195.06 12.791" fill="none" stroke="#000" stroke-linecap="round" stroke-linejoin="round" stroke-width="3.4"/>
  <path d="m507.32-503.74l19.512 21.951 82.927 7.3171 36.585-14.634-139.02-14.634z" fill="#cdaf4d" fill-rule="evenodd" stroke="#000" stroke-linecap="round" stroke-linejoin="round" stroke-width="3.4"/>
  <path d="m1094-1149.6l-25.73-7.7997-596.84 641.15 465.14 888.12 16.859-11.338 16.216-7.1027" fill="none" stroke="#000" stroke-linecap="round" stroke-linejoin="round" stroke-width="5"/>
  <path d="m436.5-572.91l-6.3956 9.5933 8.7939 11.192-21.585 0.79945 0.79944 35.176 47.167 3.1978-3.9972 15.989-29.579 67.153-91.936-36.774 27.181-15.989-7.9944-4.7967-44.769 12.791 17.588-25.582-115.12-3.9972 27.181 20.786-13.591 11.992-4.7967-13.591-4.7967 11.192 23.184 17.588 115.12 3.1978 80.744 32.777s43.17-88.738 43.17-91.936v-26.382l-1.5989-12.791-27.981-14.39-16.788-7.195z" fill="#f6dace" fill-rule="evenodd" stroke="#000" stroke-linecap="round" stroke-linejoin="round" stroke-width="3.4"/>
  <path d="m429.3-471.38c0.79944 5.5961 26.382 38.373 26.382 38.373l15.189-39.173-41.571 0.79944z" fill="#e0cfc7" fill-rule="evenodd" stroke="#000" stroke-linecap="round" stroke-linejoin="round" stroke-width="3.4"/>
  <path transform="translate(-104.14 -1170.7)" d="m1600.3 843.75s4.3964 4.3965 6.8389 7.3275 9.9182 5.3341 9.9182 5.3341l33.145-14.578-6.8607-30.249-18.644-4.4007-20.706 2.8154-28.128 1.166-25.036 7.9697 49.472 24.614z" fill="#d9cfca" fill-rule="evenodd"/>
  <path transform="translate(-104.14 -1170.7)" d="m1807.1 796.34l-0.5154 11.34 31.957 3.608-0.5154-11.855-30.926-3.0926z" fill="#faf8e8" fill-rule="evenodd" stroke="#000" stroke-linecap="round" stroke-linejoin="round" stroke-width="3.4"/>
 </g>
</svg>
