<?xml version="1.0" encoding="UTF-8"?>
<!DOCTYPE svg  PUBLIC '-//W3C//DTD SVG 1.1//EN'  'http://www.w3.org/Graphics/SVG/1.1/DTD/svg11.dtd'>
<svg enable-background="new 0 0 1735.869 1735.869" version="1.1" viewBox="0 0 1735.869 1735.869" xml:space="preserve" xmlns="http://www.w3.org/2000/svg">
<g transform="translate(0 -62.362)">
		<path d="m1620.7 923.78h47.25v-95.11h-47.25v-6.659h47.25v-99.681h-47.25v-6.659h47.25v-95.11h-47.25v-6.659h47.25v-176.06h-47.25v-6.659h47.25v-95.11h-47.25v-6.659h47.25v-99.681h-47.25v-6.659h47.25v-92.775h-92.775v47.25h-6.659v-47.25h-99.681v47.25h-6.659v-47.25h-95.11v47.25h-6.659v-47.25h-176.06v47.25h-6.659v-47.25h-95.11v47.25h-6.659v-47.25h-99.681v47.25h-6.659v-47.25h-95.11v47.25h-13.045v-47.25h-95.11v47.25h-6.659v-47.25h-99.681v47.25h-6.659v-47.25h-95.11v47.25h-6.659v-47.25h-176.06v47.25h-6.659v-47.25h-95.11v47.25h-6.659v-47.25h-99.681v47.25h-6.659v-47.25h-92.775v92.775h47.25v6.659h-47.25v99.681h47.25v6.659h-47.25v95.11h47.25v6.659h-47.25v176.06h47.25v6.659h-47.25v95.11h47.25v6.659h-47.25v99.681h47.25v6.659h-47.25v95.11h47.25v13.045h-47.25v95.11h47.25v6.659h-47.25v99.681h47.25v6.659h-47.25v95.11h47.25v6.659h-47.25v176.06h47.25v6.659h-47.25v95.11h47.25v6.659h-47.25v99.681h47.25v6.659h-47.25v92.775h92.775v-47.25h6.659v47.25h99.681v-47.25h6.659v47.25h95.11v-47.25h6.659v47.25h176.06v-47.25h6.659v47.25h95.11v-47.25h6.659v47.25h99.681v-47.25h6.659v47.25h95.11v-47.25h13.045v47.25h95.11v-47.25h6.659v47.25h99.681v-47.25h6.659v47.25h95.11v-47.25h6.659v47.25h176.06v-47.25h6.659v47.25h95.11v-47.25h6.659v47.25h99.681v-47.25h6.659v47.25h92.775v-92.775h-47.25v-6.659h47.25v-99.681h-47.25v-6.659h47.25v-95.11h-47.25v-6.659h47.25v-176.06h-47.25v-6.659h47.25v-95.11h-47.25v-6.659h47.25v-99.681h-47.25v-6.659h47.25v-95.11h-47.25v-13.044zm44.853-791.08v87.981h-47.25v11.453h47.25v94.887h-47.25v11.453h47.25v90.316h-47.25v11.453h47.25v171.26h-47.25v11.453h47.25v90.316h-47.25v11.453h47.25v94.887h-47.25v11.453h47.25v90.316h-47.25v17.839h47.25v90.315h-47.25v11.453h47.25v94.887h-47.25v11.453h47.25v90.316h-47.25v11.453h47.25v171.26h-47.25v11.453h47.25v90.316h-47.25v11.453h47.25v94.887h-47.25v11.453h47.25v87.981h-87.981v-47.25h-11.453v47.25h-94.887v-47.25h-11.453v47.25h-90.316v-47.25h-11.453v47.25h-171.26v-47.25h-11.453v47.25h-90.316v-47.25h-11.453v47.25h-94.887v-47.25h-11.453v47.25h-90.316v-47.25h-17.839v47.25h-90.316v-47.25h-11.453v47.25h-94.887v-47.25h-11.453v47.25h-90.317v-47.25h-11.453v47.25h-171.26v-47.25h-11.453v47.25h-90.316v-47.25h-11.453v47.25h-94.887v-47.25h-11.453v47.25h-87.981v-87.981h47.25v-11.453h-47.25v-94.887h47.25v-11.453h-47.25v-90.316h47.25v-11.453h-47.25v-171.26h47.25v-11.453h-47.25v-90.316h47.25v-11.453h-47.25v-94.887h47.25v-11.453h-47.25v-90.315h47.25v-17.839h-47.25v-90.316h47.25v-11.453h-47.25v-94.887h47.25v-11.453h-47.25v-90.316h47.25v-11.453h-47.25v-171.26h47.25v-11.453h-47.25v-90.316h47.25v-11.453h-47.25v-94.887h47.25v-11.453h-47.25v-87.981h87.981v47.25h11.453v-47.25h94.887v47.25h11.453v-47.25h90.316v47.25h11.453v-47.25h171.26v47.25h11.453v-47.25h90.316v47.25h11.453v-47.25h94.887v47.25h11.454v-47.25h90.316v47.25h17.839v-47.25h90.316v47.25h11.453v-47.25h94.887v47.25h11.453v-47.25h90.316v47.25h11.453v-47.25h171.26v47.25h11.453v-47.25h90.316v47.25h11.453v-47.25h94.887v47.25h11.453v-47.25h87.981z"/>
		<path d="m1611.7 914.79h47.25v-77.132h-47.25v-24.637h47.25v-81.704h-47.25v-24.637h47.25v-77.132h-47.25v-24.637h47.25v-74.224h-47.25v-0.148h-0.148v-9.335h0.148v-0.148h47.25v-74.224h-47.25v-24.637h47.25v-77.131h-47.25v-24.637h47.25v-81.703h-47.25v-24.637h47.25v-74.797h-74.797v47.25h-24.637v-47.25h-81.704v47.25h-24.637v-47.25h-77.132v47.25h-24.637v-47.25h-74.224v47.25h-0.148v0.148h-9.334v-0.148h-0.148v-47.25h-74.224v47.25h-24.637v-47.25h-77.132v47.25h-24.637v-47.25h-81.704v47.25h-24.637v-47.25h-77.132v47.25h-31.022v-47.25h-77.132v47.25h-24.637v-47.25h-81.704v47.25h-24.637v-47.25h-77.132v47.25h-24.637v-47.25h-74.224v47.25h-0.148v0.148h-9.335v-0.148h-0.148v-47.25h-74.224v47.25h-24.635v-47.25h-77.132v47.25h-24.637v-47.25h-81.704v47.25h-24.637v-47.25h-74.797v74.797h47.25v24.637h-47.25v81.704h47.25v24.637h-47.25v77.132h47.25v24.637h-47.25v74.224h47.25v0.148h0.148v9.335h-0.148v0.148h-47.25v74.224h47.25v24.637h-47.25v77.132h47.25v24.637h-47.25v81.704h47.25v24.637h-47.25v77.132h47.25v31.022h-47.25v77.132h47.25v24.637h-47.25v81.704h47.25v24.637h-47.25v77.132h47.25v24.637h-47.25v74.224h47.25v0.148h0.148v9.335h-0.148v0.148h-47.25v74.224h47.25v24.637h-47.25v77.132h47.25v24.637h-47.25v81.704h47.25v24.637h-47.25v74.797h74.797v-47.25h24.637v47.25h81.704v-47.25h24.637v47.25h77.132v-47.25h24.637v47.25h74.224v-47.25h0.148v-0.148h9.335v0.148h0.148v47.25h74.224v-47.25h24.637v47.25h77.132v-47.25h24.637v47.25h81.704v-47.25h24.637v47.25h77.132v-47.25h31.022v47.25h77.132v-47.25h24.637v47.25h81.704v-47.25h24.637v47.25h77.132v-47.25h24.637v47.25h74.224v-47.25h0.148v-0.148h9.334v0.148h0.148v47.25h74.224v-47.25h24.637v47.25h77.132v-47.25h24.637v47.25h81.704v-47.25h24.637v47.25h74.797v-74.797h-47.25v-24.637h47.25v-81.704h-47.25v-24.637h47.25v-77.132h-47.25v-24.637h47.25v-74.224h-47.25v-0.148h-0.148v-9.335h0.148v-0.148h47.25v-74.224h-47.25v-24.637h47.25v-77.132h-47.25v-24.637h47.25v-81.704h-47.25v-24.637h47.25v-77.132h-47.25v-31.024zm40.858-769.11v62.013h-47.25v37.421h47.25v68.919h-47.25v37.421h47.25v64.348h-47.25v37.421h47.25v61.44h-47.25v0.148h-0.148v22.119h0.148v0.148h47.25v61.44h-47.25v37.421h47.25v64.348h-47.25v37.421h47.25v68.919h-47.25v37.421h47.25v64.348h-47.25v43.806h47.25v64.348h-47.25v37.421h47.25v68.919h-47.25v37.421h47.25v64.348h-47.25v37.421h47.25v61.44h-47.25v0.148h-0.148v22.119h0.148v0.148h47.25v61.44h-47.25v37.421h47.25v64.348h-47.25v37.421h47.25v68.919h-47.25v37.421h47.25v62.013h-62.013v-47.25h-37.421v47.25h-68.92v-47.25h-37.421v47.25h-64.348v-47.25h-37.421v47.25h-61.44v-47.25h-0.148v-0.148h-22.119v0.148h-0.148v47.25h-61.44v-47.25h-37.421v47.25h-64.348v-47.25h-37.421v47.25h-68.919v-47.25h-37.421v47.25h-64.348v-47.25h-43.806v47.25h-64.348v-47.25h-37.421v47.25h-68.919v-47.25h-37.421v47.25h-64.348v-47.25h-37.421v47.25h-61.44v-47.25h-0.148v-0.148h-22.119v0.148h-0.148v47.25h-61.44v-47.25h-37.421v47.25h-64.347v-47.25h-37.421v47.25h-68.919v-47.25h-37.421v47.25h-62.013v-62.013h47.25v-37.421h-47.25v-68.919h47.25v-37.421h-47.25v-64.348h47.25v-37.421h-47.25v-61.44h47.25v-0.148h0.148v-22.119h-0.148v-0.148h-47.25v-61.44h47.25v-37.421h-47.25v-64.348h47.25v-37.421h-47.25v-68.919h47.25v-37.421h-47.25v-64.348h47.25v-43.806h-47.25v-64.348h47.25v-37.421h-47.25v-68.919h47.25v-37.421h-47.25v-64.348h47.25v-37.421h-47.25v-61.44h47.25v-0.148h0.148v-22.119h-0.148v-0.148h-47.25v-61.44h47.25v-37.421h-47.25v-64.348h47.25v-37.421h-47.25v-68.919h47.25v-37.421h-47.25v-62.013h62.013v47.25h37.421v-47.25h68.919v47.25h37.421v-47.25h64.348v47.25h37.421v-47.25h61.44v47.25h0.148v0.148h22.119v-0.148h0.148v-47.25h61.44v47.25h37.421v-47.25h64.348v47.25h37.421v-47.25h68.919v47.25h37.421v-47.25h64.348v47.25h43.806v-47.25h64.348v47.25h37.421v-47.25h68.919v47.25h37.421v-47.25h64.348v47.25h37.421v-47.25h61.44v47.25h0.148v0.148h22.119v-0.148h0.148v-47.25h61.44v47.25h37.421v-47.25h64.348v47.25h37.421v-47.25h68.919v47.25h37.421v-47.25h62.013z"/>
		<path d="m1584.7 887.82h47.25v-23.199h-47.25v-78.57h47.25v-27.77h-47.25v-78.57h47.25v-23.199h-47.25v-78.57h47.25v-20.291h-47.25v-0.148h-0.148v-63.268h0.148v-0.148h47.25v-20.291h-47.25v-78.57h47.25v-23.199h-47.25v-78.57h47.25v-27.77h-47.25v-52.184h-52.184v-47.25h-27.77v47.25h-78.57v-47.25h-23.199v47.25h-78.57v-47.25h-20.291v47.25h-0.148v0.148h-63.268v-0.148h-0.148v-47.25h-20.291v47.25h-78.57v-47.25h-23.199v47.25h-78.57v-47.25h-27.77v47.25h-78.57v-47.25h-23.199v47.25h-84.956v-47.25h-23.199v47.25h-78.57v-47.25h-27.77v47.25h-78.57v-47.25h-23.199v47.25h-78.57v-47.25h-20.291v47.25h-0.148v0.148h-63.268v-0.148h-0.148v-47.25h-20.291v47.25h-78.57v-47.25h-23.199v47.25h-78.57v-47.25h-27.77v47.25h-52.183v52.184h-47.25v27.77h47.25v78.57h-47.25v23.199h47.25v78.57h-47.25v20.291h47.25v0.148h0.148v63.268h-0.148v0.148h-47.25v20.291h47.25v78.57h-47.25v23.199h47.25v78.57h-47.25v27.77h47.25v78.57h-47.25v23.199h47.25v84.956h-47.25v23.199h47.25v78.57h-47.25v27.77h47.25v78.57h-47.25v23.199h47.25v78.57h-47.25v20.291h47.25v0.148h0.148v63.268h-0.148v0.148h-47.25v20.291h47.25v78.57h-47.25v23.199h47.25v78.57h-47.25v27.771h47.25v52.184h52.184v47.25h27.77v-47.25h78.57v47.25h23.199v-47.25h78.57v47.25h20.291v-47.25h0.148v-0.148h63.268v0.148h0.148v47.25h20.291v-47.25h78.57v47.25h23.199v-47.25h78.57v47.25h27.77v-47.25h78.57v47.25h23.199v-47.25h84.956v47.25h23.199v-47.25h78.57v47.25h27.77v-47.25h78.57v47.25h23.199v-47.25h78.57v47.25h20.291v-47.25h0.148v-0.148h63.268v0.148h0.148v47.25h20.291v-47.25h78.57v47.25h23.199v-47.25h78.57v47.25h27.77v-47.25h52.184v-52.184h47.25v-27.771h-47.25v-78.57h47.25v-23.199h-47.25v-78.57h47.25v-20.291h-47.25v-0.148h-0.148v-63.268h0.148v-0.148h47.25v-20.291h-47.25v-78.57h47.25v-23.199h-47.25v-78.57h47.25v-27.77h-47.25v-78.57h47.25v-23.199h-47.25v-84.956zm26.386 785.66v20.864h20.864v-20.864h-20.864zm-1486.4 0h-20.864v20.864h20.864v-20.864zm0-1486.4v-20.864h-20.864v20.864h20.864zm1486.4 0h20.864v-20.864h-20.864v20.864zm-28.783 28.783v52.184h47.25v22.976h-47.25v83.364h47.25v18.405h-47.25v83.364h47.25v15.497h-47.25v0.148h-0.148v68.062h0.148v0.148h47.25v15.497h-47.25v83.364h47.25v18.405h-47.25v83.364h47.25v22.976h-47.25v83.364h47.25v18.405h-47.25v89.75h47.25v18.405h-47.25v83.364h47.25v22.976h-47.25v83.364h47.25v18.405h-47.25v83.364h47.25v15.497h-47.25v0.148h-0.148v68.062h0.148v0.148h47.25v15.497h-47.25v83.364h47.25v18.405h-47.25v83.364h47.25v22.976h-47.25v52.184h-52.184v47.25h-22.976v-47.25h-83.364v47.25h-18.405v-47.25h-83.364v47.25h-15.497v-47.25h-0.148v-0.148h-68.062v0.148h-0.148v47.25h-15.497v-47.25h-83.364v47.25h-18.405v-47.25h-83.364v47.25h-22.976v-47.25h-83.364v47.25h-18.405v-47.25h-89.75v47.25h-18.405v-47.25h-83.364v47.25h-22.976v-47.25h-83.364v47.25h-18.405v-47.25h-83.364v47.25h-15.497v-47.25h-0.148v-0.148h-68.062v0.148h-0.148v47.25h-15.497v-47.25h-83.364v47.25h-18.405v-47.25h-83.364v47.25h-22.976v-47.25h-52.184v-52.184h-47.25v-22.976h47.25v-83.364h-47.25v-18.405h47.25v-83.364h-47.25v-15.497h47.25v-0.148h0.148v-68.062h-0.148v-0.148h-47.25v-15.497h47.25v-83.364h-47.25v-18.405h47.25v-83.364h-47.25v-22.976h47.25v-83.364h-47.25v-18.405h47.25v-89.75h-47.25v-18.405h47.25v-83.364h-47.25v-22.976h47.25v-83.364h-47.25v-18.405h47.25v-83.364h-47.25v-15.497h47.25v-0.148h0.148v-68.062h-0.148v-0.148h-47.25v-15.497h47.25v-83.364h-47.25v-18.405h47.25v-83.363h-47.25v-22.976h47.25v-52.184h52.184v-47.25h22.976v47.25h83.364v-47.25h18.405v47.25h83.364v-47.25h15.497v47.25h0.148v0.148h68.062v-0.148h0.148v-47.25h15.497v47.25h83.364v-47.25h18.405v47.25h83.364v-47.25h22.976v47.25h83.364v-47.25h18.405v47.25h89.75v-47.25h18.405v47.25h83.364v-47.25h22.976v47.25h83.364v-47.25h18.405v47.25h83.364v-47.25h15.497v47.25h0.148v0.148h68.062v-0.148h0.148v-47.25h15.497v47.25h83.364v-47.25h18.405v47.25h83.364v-47.25h22.976v47.25h52.184zm47.25 1476h-16.07v-16.07h16.07v16.07zm-1523.3 0v-16.07h16.07v16.07h-16.07zm0-1523.3h16.07v16.07h-16.07v-16.07zm1523.3 0v16.07h-16.07v-16.07h16.07z"/>
		<path d="m1587.2 210.99v52.184h47.25v32.789h-47.25v73.551h47.25v28.217h-47.25v73.551h47.25v25.31h-47.25v0.148h-0.148v58.249h0.148v0.148h47.25v25.31h-47.25v73.551h47.25v28.217h-47.25v73.551h47.25v32.789h-47.25v73.551h47.25v28.217h-47.25v79.937h47.25v28.218h-47.25v73.551h47.25v32.789h-47.25v73.551h47.25v28.217h-47.25v73.551h47.25v25.31h-47.25v0.148h-0.148v58.249h0.148v0.148h47.25v25.31h-47.25v73.551h47.25v28.218h-47.25v73.551h47.25v32.789h-47.25v52.184h-52.184v47.25h-32.789v-47.25h-73.551v47.25h-28.218v-47.25h-73.551v47.25h-25.31v-47.25h-0.148v-0.148h-58.249v0.148h-0.148v47.25h-25.31v-47.25h-73.551v47.25h-28.218v-47.25h-73.551v47.25h-32.789v-47.25h-73.552v47.25h-28.217v-47.25h-79.937v47.25h-28.217v-47.25h-73.551v47.25h-32.789v-47.25h-73.551v47.25h-28.217v-47.25h-73.551v47.25h-25.31v-47.25h-0.148v-0.148h-58.249v0.148h-0.148v47.25h-25.31v-47.25h-73.551v47.25h-28.217v-47.25h-73.551v47.25h-32.789v-47.25h-52.187v-52.184h-47.25v-32.789h47.25v-73.551h-47.25v-28.218h47.25v-73.551h-47.25v-25.31h47.25v-0.148h0.148v-58.249h-0.148v-0.148h-47.25v-25.31h47.25v-73.551h-47.25v-28.217h47.25v-73.551h-47.25v-32.789h47.25v-73.551h-47.25v-28.218h47.25v-79.937h-47.25v-28.217h47.25v-73.549h-47.25v-32.79h47.25v-73.551h-47.25v-28.217h47.25v-73.552h-47.25v-25.31h47.25v-0.148h0.148v-58.249h-0.148v-0.148h-47.25v-25.31h47.25v-73.551h-47.25v-28.217h47.25v-73.551h-47.25v-32.789h47.25v-52.184h52.184v-47.25h32.789v47.25h73.551v-47.25h28.217v47.25h73.551v-47.25h25.31v47.25h0.148v0.148h58.249v-0.148h0.148v-47.25h25.31v47.25h73.551v-47.25h28.217v47.25h73.551v-47.25h32.789v47.25h73.551v-47.25h28.217v47.25h79.937v-47.25h28.217v47.25h73.551v-47.25h32.789v47.25h73.551v-47.25h28.218v47.25h73.551v-47.25h25.31v47.25h0.148v0.148h58.249v-0.148h0.148v-47.25h25.31v47.25h73.551v-47.25h28.218v47.25h73.551v-47.25h32.789v47.25h52.188zm47.25 1485.9h-25.883v-25.883h25.883v25.883zm-1533.1 0v-25.883h25.883v25.883h-25.883zm0-1533.1h25.883v25.883h-25.883v-25.883zm1533.1 0v25.883h-25.883v-25.883h25.883zm-31.464 742.37h47.25v-59.791h-47.25v-41.978h47.25v-64.363h-47.25v-41.978h47.25v-59.791h-47.25v-41.978h47.25v-56.883h-47.25v-0.148h-0.148v-26.676h0.148v-0.148h47.25v-56.881h-47.25v-41.978h47.25v-59.791h-47.25v-41.978h47.25v-64.363h-47.25v-41.978h47.25v-57.456h-57.456v47.25h-41.978v-47.25h-64.363v47.25h-41.978v-47.25h-59.791v47.25h-41.978v-47.25h-56.883v47.25h-0.148v0.148h-26.676v-0.148h-0.148v-47.25h-56.883v47.25h-41.978v-47.25h-59.791v47.25h-41.978v-47.25h-64.363v47.25h-41.978v-47.25h-59.791v47.25h-48.363v-47.25h-59.791v47.25h-41.978v-47.25h-64.363v47.25h-41.978v-47.25h-59.791v47.25h-41.978v-47.25h-56.883v47.25h-0.148v0.148h-26.676v-0.148h-0.148v-47.25h-56.883v47.25h-41.974v-47.25h-59.791v47.25h-41.978v-47.25h-64.363v47.25h-41.978v-47.25h-57.456v57.456h47.25v41.978h-47.25v64.363h47.25v41.978h-47.25v59.791h47.25v41.978h-47.25v56.883h47.25v0.148h0.148v26.676h-0.148v0.148h-47.25v56.883h47.25v41.978h-47.25v59.791h47.25v41.978h-47.25v64.363h47.25v41.978h-47.25v59.791h47.25v48.363h-47.25v59.791h47.25v41.978h-47.25v64.363h47.25v41.978h-47.25v59.791h47.25v41.978h-47.25v56.883h47.25v0.148h0.148v26.676h-0.148v0.148h-47.25v56.883h47.25v41.978h-47.25v59.791h47.25v41.978h-47.25v64.363h47.25v41.978h-47.25v57.456h57.456v-47.25h41.978v47.25h64.363v-47.25h41.978v47.25h59.791v-47.25h41.978v47.25h56.883v-47.25h0.148v-0.148h26.676v0.148h0.148v47.25h56.883v-47.25h41.978v47.25h59.791v-47.25h41.978v47.25h64.363v-47.25h41.978v47.25h59.791v-47.25h48.363v47.25h59.791v-47.25h41.978v47.25h64.363v-47.25h41.978v47.25h59.791v-47.25h41.978v47.25h56.883v-47.25h0.148v-0.148h26.676v0.148h0.148v47.25h56.883v-47.25h41.978v47.25h59.791v-47.25h41.978v47.25h64.363v-47.25h41.978v47.25h57.456v-57.456h-47.25v-41.978h47.25v-64.363h-47.25v-41.978h47.25v-59.791h-47.25v-41.978h47.25v-56.883h-47.25v-0.148h-0.148v-26.676h0.148v-0.148h47.25v-56.883h-47.25v-41.978h47.25v-59.791h-47.25v-41.978h47.25v-64.363h-47.25v-41.978h47.25v-59.791h-47.25v-48.365zm45.253-756.16v53.461h-47.25v45.973h47.25v60.368h-47.25v45.973h47.25v55.796h-47.25v45.973h47.25v52.888h-47.25v0.148h-0.148v30.671h0.148v0.148h47.25v52.888h-47.25v45.973h47.25v55.796h-47.25v45.973h47.25v60.368h-47.25v45.973h47.25v55.796h-47.25v52.358h47.25v55.796h-47.25v45.973h47.25v60.368h-47.25v45.973h47.25v55.796h-47.25v45.973h47.25v52.888h-47.25v0.148h-0.148v30.671h0.148v0.148h47.25v52.888h-47.25v45.973h47.25v55.796h-47.25v45.973h47.25v60.368h-47.25v45.973h47.25v53.461h-53.461v-47.25h-45.973v47.25h-60.368v-47.25h-45.973v47.25h-55.796v-47.25h-45.973v47.25h-52.888v-47.25h-0.148v-0.148h-30.671v0.148h-0.148v47.25h-52.888v-47.25h-45.973v47.25h-55.796v-47.25h-45.973v47.25h-60.368v-47.25h-45.971v47.25h-55.796v-47.25h-52.358v47.25h-55.796v-47.25h-45.973v47.25h-60.368v-47.25h-45.973v47.25h-55.796v-47.25h-45.973v47.25h-52.888v-47.25h-0.148v-0.148h-30.671v0.148h-0.148v47.25h-52.888v-47.25h-45.973v47.25h-55.796v-47.25h-45.973v47.25h-60.368v-47.25h-45.973v47.25h-53.46v-53.461h47.25v-45.973h-47.25v-60.368h47.25v-45.973h-47.25v-55.796h47.25v-45.973h-47.25v-52.888h47.25v-0.148h0.148v-30.671h-0.148v-0.148h-47.25v-52.888h47.25v-45.973h-47.25v-55.796h47.25v-45.973h-47.25v-60.368h47.25v-45.973h-47.25v-55.796h47.25v-52.358h-47.25v-55.796h47.25v-45.973h-47.25v-60.368h47.25v-45.973h-47.25v-55.796h47.25v-45.974h-47.25v-52.888h47.25v-0.148h0.148v-30.671h-0.148v-0.148h-47.25v-52.888h47.25v-45.973h-47.25v-55.796h47.25v-45.973h-47.25v-60.368h47.25v-45.973h-47.25v-53.461h53.461v47.25h45.973v-47.25h60.368v47.25h45.973v-47.25h55.796v47.25h45.973v-47.25h52.888v47.25h0.148v0.148h30.671v-0.148h0.148v-47.25h52.888v47.25h45.973v-47.25h55.796v47.25h45.973v-47.25h60.368v47.25h45.973v-47.25h55.796v47.25h52.358v-47.25h55.796v47.25h45.973v-47.25h60.368v47.25h45.973v-47.25h55.796v47.25h45.973v-47.25h52.888v47.25h0.148v0.148h30.671v-0.148h0.148v-47.25h52.888v47.25h45.973v-47.25h55.796v47.25h45.973v-47.25h60.368v47.25h45.973v-47.25h53.458zm-59.042 742.37h47.25v-32.213h-47.25v-69.556h47.25v-36.784h-47.25v-69.556h47.25v-32.213h-47.25v-69.556h47.25v-29.305h-47.25v-0.148h-0.148v-54.254h0.148v-0.148h47.25v-29.305h-47.25v-69.556h47.25v-32.212h-47.25v-69.556h47.25v-36.784h-47.25v-52.184h-52.184v-47.25h-36.784v47.25h-69.556v-47.25h-32.213v47.25h-69.556v-47.25h-29.305v47.25h-0.148v0.148h-54.254v-0.148h-0.148v-47.25h-29.305v47.25h-69.556v-47.25h-32.213v47.25h-69.556v-47.25h-36.784v47.25h-69.556v-47.25h-32.213v47.25h-75.942v-47.25h-32.213v47.25h-69.556v-47.25h-36.784v47.25h-69.556v-47.25h-32.213v47.25h-69.556v-47.25h-29.305v47.25h-0.148v0.148h-54.254v-0.148h-0.148v-47.25h-29.305v47.25h-69.555v-47.25h-32.213v47.25h-69.556v-47.25h-36.784v47.25h-52.184v52.184h-47.25v36.784h47.25v69.556h-47.25v32.213h47.25v69.556h-47.25v29.305h47.25v0.148h0.148v54.254h-0.148v0.148h-47.25v29.305h47.25v69.556h-47.25v32.213h47.25v69.556h-47.25v36.784h47.25v69.556h-47.25v32.213h47.25v75.942h-47.25v32.213h47.25v69.556h-47.25v36.784h47.25v69.556h-47.25v32.213h47.25v69.556h-47.25v29.305h47.25v0.148h0.148v54.254h-0.148v0.146h-47.25v29.305h47.25v69.556h-47.25v32.213h47.25v69.556h-47.25v36.784h47.25v52.184h52.184v47.25h36.784v-47.25h69.556v47.25h32.213v-47.25h69.556v47.25h29.305v-47.25h0.148v-0.148h54.254v0.148h0.148v47.25h29.305v-47.25h69.556v47.25h32.213v-47.25h69.556v47.25h36.784v-47.25h69.556v47.25h32.213v-47.25h75.942v47.25h32.213v-47.25h69.556v47.25h36.784v-47.25h69.556v47.25h32.213v-47.25h69.556v47.25h29.305v-47.25h0.148v-0.148h54.254v0.148h0.148v47.25h29.305v-47.25h69.556v47.25h32.213v-47.25h69.556v47.25h36.784v-47.25h52.184v-52.184h47.25v-36.784h-47.25v-69.556h47.25v-32.213h-47.25v-69.556h47.25v-29.305h-47.25v-0.148h-0.148v-54.254h0.148v-0.148h47.25v-29.305h-47.25v-69.556h47.25v-32.213h-47.25v-69.556h47.25v-36.784h-47.25v-69.556h47.25v-32.213h-47.25v-75.941zm17.372 776.64v29.878h29.878v-29.878h-29.878zm-1477.3 0h-29.878v29.878h29.878v-29.878zm0-1477.3v-29.878h-29.878v29.878h29.878zm1477.3 0h29.878v-29.878h-29.878v29.878z"/>
</g>
</svg>
