<?xml version='1.0' encoding='utf-8'?>
<svg xmlns="http://www.w3.org/2000/svg" version="1.1" id="Layer_1" x="0px" y="0px" viewBox="0 0 1659.098 1659.098" style="enable-background:new 0 0 1659.098 1659.098;"> <g> <path d="M109.268,1517.628H98.951v31.282l-38.453,24.055v-43.639h18.757v11.698l-9.379,2.055v13.906 c6.817-3.098,11.825-5.374,19.695-8.95c0-11.313,0-19.124,0-30.407c-14.555,0-26.173,0-40.328,0c0,34.157,0,46.987,0,81.139 c9.563-8.233,53.34-45.922,60.023-51.676C109.268,1541.4,109.268,1523.717,109.268,1517.628z"/> <path d="M60.499,1461.263h38.453v31.905H79.256v-11.698h9.379v-11.698c-6.817,0-11.825,0-19.695,0c0,13.057,0,22.073,0,35.095 c4.562,0,35.771,0,40.328,0c0-23.28,0-32.025,0-55.302c-6.684,0-50.46,0-60.023,0c0,10.682,0,43.873,0,55.302h11.254V1461.263z"/> <path d="M109.268,1381.501H98.951v43.603H60.499v-31.905h18.757v11.698h-9.379v11.698c6.817,0,11.825,0,19.695,0 c0-13.057,0-22.072,0-35.095c-14.555,0-26.173,0-40.328,0c0,21.717,0,36.252,0,55.302c9.563,0,53.34,0,60.023,0 C109.268,1426.12,109.268,1392.93,109.268,1381.501z"/> <path d="M60.499,1325.136h38.453v31.905H79.256v-11.698h9.379v-11.698c-6.817,0-11.825,0-19.695,0c0,13.057,0,22.073,0,35.095 c4.562,0,35.771,0,40.328,0c0-11.729,0-30.263,0-55.301c-6.684,0-50.46,0-60.023,0c0,10.682,0,43.873,0,55.301h11.254V1325.136z"/> <path d="M109.268,1245.374H98.951v43.603H60.499v-31.905h18.757v11.698h-9.379v11.698c6.817,0,11.825,0,19.695,0 c0-13.057,0-22.073,0-35.095c-14.555,0-26.173,0-40.328,0c0,21.717,0,36.252,0,55.301c9.563,0,53.34,0,60.023,0 C109.268,1289.993,109.268,1256.803,109.268,1245.374z"/> <path d="M60.499,1189.009h38.453v31.905H79.256v-11.698h9.379v-11.698c-6.817,0-11.825,0-19.695,0c0,13.057,0,22.072,0,35.095 c4.562,0,35.771,0,40.328,0c0-11.729,0-30.263,0-55.302c-6.684,0-50.46,0-60.023,0c0,10.682,0,43.873,0,55.302h11.254V1189.009z"/> <path d="M109.268,1108.184H98.951v43.603H60.499v-31.905h18.757v11.698h-9.379v11.698c6.817,0,11.825,0,19.695,0 c0-13.057,0-22.073,0-35.095c-14.555,0-26.173,0-40.328,0c0,23.28,0,32.024,0,55.302c9.563,0,53.34,0,60.023,0 C109.268,1152.803,109.268,1119.612,109.268,1108.184z"/> <path d="M60.499,1052.882h38.453v31.905H79.256v-11.698h9.379v-11.698c-6.817,0-11.825,0-19.695,0c0,13.057,0,22.073,0,35.095 c4.562,0,35.771,0,40.328,0c0-23.28,0-32.024,0-55.302c-6.589,0-53.141,0-60.023,0c0,10.682,0,43.873,0,55.302h11.254V1052.882z"/> <path d="M109.268,972.057H98.951v43.603H60.499v-31.905h18.757v11.698h-9.379v11.698c6.817,0,11.825,0,19.695,0 c0-13.057,0-22.072,0-35.095c-14.555,0-26.173,0-40.328,0c0,21.717,0,36.252,0,55.302c9.563,0,53.34,0,60.023,0 C109.268,1016.676,109.268,983.486,109.268,972.057z"/> <path d="M60.499,915.692h38.453v31.905H79.256v-11.698h9.379V924.2c-6.817,0-11.825,0-19.695,0c0,13.057,0,22.073,0,35.095 c4.562,0,35.771,0,40.328,0c0-23.28,0-32.024,0-55.302c-6.684,0-50.46,0-60.023,0c0,10.682,0,43.873,0,55.302h11.254V915.692z"/> <path d="M109.268,835.93H98.951v43.603H60.499v-31.905h18.757v11.698h-9.379v11.698c6.817,0,11.825,0,19.695,0 c0-11.371,0-21.5,0-35.095c-14.555,0-26.173,0-40.328,0c0,21.717,0,36.252,0,55.302c9.563,0,53.34,0,60.023,0 C109.268,880.549,109.268,847.359,109.268,835.93z"/> <path d="M60.499,779.565h38.453v31.905H79.256v-11.698h9.379v-11.698c-6.817,0-11.825,0-19.695,0c0,13.057,0,22.072,0,35.095 c4.562,0,35.771,0,40.328,0c0-23.28,0-32.024,0-55.302c-6.684,0-50.46,0-60.023,0c0,10.682,0,43.873,0,55.302h11.254V779.565z"/> <path d="M109.268,699.803H98.951v43.603H60.499v-31.905h18.757V723.2h-9.379v11.698c6.817,0,11.825,0,19.695,0 c0-13.057,0-22.072,0-35.095c-14.555,0-26.173,0-40.328,0c0,21.717,0,36.252,0,55.302c9.563,0,53.34,0,60.023,0 C109.268,744.422,109.268,711.232,109.268,699.803z"/> <path d="M60.499,643.438h38.453v31.905H79.256v-11.698h9.379v-11.698c-6.817,0-11.825,0-19.695,0c0,13.057,0,22.073,0,35.095 c4.562,0,35.771,0,40.328,0c0-23.28,0-32.024,0-55.302c-6.684,0-50.46,0-60.023,0c0,10.682,0,43.873,0,55.302h11.254V643.438z"/> <path d="M109.268,562.613H98.951v43.603H60.499v-31.905h18.757v11.698h-9.379v11.698c6.817,0,11.825,0,19.695,0 c0-13.057,0-22.072,0-35.095c-14.555,0-26.173,0-40.328,0c0,21.717,0,36.252,0,55.302c9.563,0,53.34,0,60.023,0 C109.268,607.232,109.268,574.041,109.268,562.613z"/> <path d="M60.499,507.311h38.453v31.905H79.256v-11.698h9.379v-11.698c-6.817,0-11.825,0-19.695,0c0,13.057,0,22.072,0,35.095 c4.562,0,35.771,0,40.328,0c0-23.28,0-32.025,0-55.302c-6.684,0-50.46,0-60.023,0c0,10.682,0,43.873,0,55.302h11.254V507.311z"/> <path d="M109.268,426.486H98.951v43.603H60.499v-31.905h18.757v11.698h-9.379v11.698c6.817,0,11.825,0,19.695,0 c0-13.057,0-22.072,0-35.095c-14.555,0-26.173,0-40.328,0c0,23.28,0,32.024,0,55.302c5.909,0,53.072,0,60.023,0 C109.268,471.105,109.268,437.915,109.268,426.486z"/> <path d="M60.499,370.121h38.453v31.905H79.256v-11.698h9.379v-11.698c-6.817,0-11.825,0-19.695,0c0,13.613,0,23.738,0,35.095 c4.562,0,35.771,0,40.328,0c0-11.729,0-30.263,0-55.302c-6.684,0-50.46,0-60.023,0c0,10.682,0,43.873,0,55.302h11.254V370.121z"/> <path d="M109.268,290.359H98.951v43.603H60.499v-31.905h18.757v11.698h-9.379v11.698c6.817,0,11.825,0,19.695,0 c0-11.371,0-21.5,0-35.095c-14.555,0-26.173,0-40.328,0c0,21.717,0,36.252,0,55.302c9.563,0,53.34,0,60.023,0 C109.268,334.978,109.268,301.788,109.268,290.359z"/> <path d="M60.499,233.994h38.453v31.905H79.256V254.2h9.379v-11.698c-6.817,0-11.825,0-19.695,0c0,13.057,0,22.072,0,35.095 c4.562,0,35.771,0,40.328,0c0-23.28,0-32.025,0-55.302c-6.684,0-50.46,0-60.023,0c0,10.682,0,43.873,0,55.302h11.254V233.994z"/> <path d="M109.268,154.232H98.951v43.603H60.499V165.93h18.757v11.698h-9.379v11.698c6.817,0,11.825,0,19.695,0 c0-13.057,0-22.073,0-35.095c-14.555,0-26.173,0-40.328,0c0,23.28,0,32.024,0,55.302c5.909,0,53.072,0,60.023,0 C109.268,198.851,109.268,165.661,109.268,154.232z"/> <path d="M60.499,86.133l38.453,24.055v19.584H79.256v-11.698l9.379,2.055v-9.491c-6.817-3.098-11.825-5.374-19.695-8.95 c0,14.801,0,25.021,0,39.783c4.562,0,35.771,0,40.328,0c0-12.403,0-17.062,0-29.463c-6.589-5.673-53.141-45.751-60.023-51.676 c0,15.673,0,64.371,0,81.14h11.254V86.133z"/> <path d="M1541.39,117.708H117.708V1541.39H1541.39V117.708z M1530.135,1530.135H128.963V128.963h1401.172V1530.135z"/> <path d="M141.47,109.268V98.951h-31.282L86.133,60.499h43.639v18.757h-11.698l-2.055-9.379h-13.906 c3.098,6.817,5.374,11.825,8.95,19.695c11.313,0,19.124,0,30.407,0c0-14.555,0-26.173,0-40.328c-34.157,0-46.987,0-81.14,0 c8.234,9.563,45.922,53.34,51.676,60.023C117.698,109.268,135.381,109.268,141.47,109.268z"/> <path d="M209.534,49.244c-10.682,0-43.873,0-55.302,0v11.254h43.603v38.453H165.93V79.256h11.698v9.379h11.698 c0-6.817,0-11.825,0-19.695c-13.057,0-22.072,0-35.095,0c0,4.562,0,35.771,0,40.328c23.28,0,32.024,0,55.302,0 C209.534,102.584,209.534,58.808,209.534,49.244z"/> <path d="M277.597,98.951h-43.603V60.499h31.905v18.757H254.2v-9.379h-11.698c0,6.817,0,11.825,0,19.695c13.057,0,22.072,0,35.095,0 c0-14.555,0-26.173,0-40.328c-21.717,0-36.252,0-55.302,0c0,9.563,0,53.34,0,60.023c10.682,0,43.873,0,55.302,0V98.951z"/> <path d="M345.66,49.244c-10.682,0-43.873,0-55.302,0v11.254h43.603v38.453h-31.905V79.256h11.698v9.379h11.698 c0-6.817,0-11.825,0-19.695c-13.057,0-22.073,0-35.095,0c0,4.562,0,35.771,0,40.328c11.729,0,30.263,0,55.302,0 C345.66,102.584,345.66,58.808,345.66,49.244z"/> <path d="M413.724,98.951h-43.603V60.499h31.905v18.757h-11.698v-9.379h-11.698c0,6.817,0,11.825,0,19.695 c13.057,0,22.073,0,35.095,0c0-14.555,0-26.173,0-40.328c-21.717,0-36.252,0-55.302,0c0,9.563,0,53.34,0,60.023 c10.682,0,43.873,0,55.302,0V98.951z"/> <path d="M481.787,49.244c-10.682,0-43.873,0-55.302,0v11.254h43.603v38.453h-31.905V79.256h11.698v9.379h11.698 c0-6.817,0-11.825,0-19.695c-13.057,0-22.073,0-35.095,0c0,4.562,0,35.771,0,40.328c11.729,0,30.263,0,55.302,0 C481.787,102.584,481.787,58.808,481.787,49.244z"/> <path d="M550.914,98.951h-43.603V60.499h31.905v18.757h-11.698v-9.379h-11.698c0,6.817,0,11.825,0,19.695 c13.057,0,22.073,0,35.095,0c0-14.555,0-26.173,0-40.328c-23.28,0-32.024,0-55.301,0c0,9.563,0,53.34,0,60.023 c10.682,0,43.873,0,55.301,0V98.951z"/> <path d="M617.914,49.244c-10.682,0-43.873,0-55.302,0v11.254h43.603v38.453h-31.905V79.256h11.698v9.379h11.698 c0-6.817,0-11.825,0-19.695c-13.057,0-22.073,0-35.095,0c0,4.562,0,35.771,0,40.328c23.28,0,32.024,0,55.302,0 C617.914,102.679,617.914,56.126,617.914,49.244z"/> <path d="M687.041,98.951h-43.603V60.499h31.905v18.757h-11.698v-9.379h-11.698c0,6.817,0,11.825,0,19.695 c13.057,0,22.073,0,35.095,0c0-14.555,0-26.173,0-40.328c-21.717,0-36.252,0-55.302,0c0,9.563,0,53.34,0,60.023 c10.682,0,43.873,0,55.302,0V98.951z"/> <path d="M755.105,49.244c-10.682,0-43.873,0-55.302,0v11.254h43.603v38.453h-31.905V79.256H723.2v9.379h11.698 c0-6.817,0-11.825,0-19.695c-13.057,0-22.072,0-35.095,0c0,4.562,0,35.771,0,40.328c23.28,0,32.024,0,55.302,0 C755.105,102.584,755.105,58.808,755.105,49.244z"/> <path d="M823.168,98.951h-43.603V60.499h31.905v18.757h-11.698v-9.379h-11.698c0,6.817,0,11.825,0,19.695c11.371,0,21.5,0,35.095,0 c0-14.555,0-26.173,0-40.328c-21.717,0-36.252,0-55.301,0c0,9.563,0,53.34,0,60.023c10.682,0,43.873,0,55.301,0V98.951z"/> <path d="M891.231,49.244c-10.682,0-43.873,0-55.301,0v11.254h43.603v38.453h-31.905V79.256h11.698v9.379h11.698 c0-6.817,0-11.825,0-19.695c-13.057,0-22.073,0-35.095,0c0,4.562,0,35.771,0,40.328c23.28,0,32.025,0,55.301,0 C891.231,102.584,891.231,58.808,891.231,49.244z"/> <path d="M959.295,98.951h-43.603V60.499h31.905v18.757h-11.698v-9.379H924.2c0,6.817,0,11.825,0,19.695c13.057,0,22.072,0,35.095,0 c0-14.555,0-26.173,0-40.328c-21.717,0-36.252,0-55.302,0c0,9.563,0,53.34,0,60.023c10.682,0,43.873,0,55.302,0V98.951z"/> <path d="M1027.358,49.244c-10.682,0-43.873,0-55.302,0v11.254h43.603v38.453h-31.905V79.256h11.698v9.379h11.698 c0-6.817,0-11.825,0-19.695c-13.057,0-22.073,0-35.095,0c0,4.562,0,35.771,0,40.328c23.28,0,32.025,0,55.302,0 C1027.358,102.584,1027.358,58.808,1027.358,49.244z"/> <path d="M1096.485,98.951h-43.603V60.499h31.905v18.757h-11.698v-9.379h-11.698c0,6.817,0,11.825,0,19.695 c13.057,0,22.073,0,35.095,0c0-14.555,0-26.173,0-40.328c-21.717,0-36.252,0-55.302,0c0,9.563,0,53.34,0,60.023 c10.682,0,43.873,0,55.302,0V98.951z"/> <path d="M1163.485,49.244c-10.682,0-43.873,0-55.302,0v11.254h43.603v38.453h-31.905V79.256h11.698v9.379h11.698 c0-6.817,0-11.825,0-19.695c-13.057,0-22.073,0-35.095,0c0,4.562,0,35.771,0,40.328c23.28,0,32.024,0,55.302,0 C1163.485,102.584,1163.485,58.808,1163.485,49.244z"/> <path d="M1232.612,98.951h-43.603V60.499h31.905v18.757h-11.698v-9.379h-11.698c0,6.817,0,11.825,0,19.695 c13.057,0,22.073,0,35.095,0c0-14.555,0-26.173,0-40.328c-23.28,0-32.025,0-55.302,0c0,5.909,0,53.072,0,60.023 c10.682,0,43.873,0,55.302,0V98.951z"/> <path d="M1300.676,49.244c-10.682,0-43.873,0-55.301,0v11.254h43.603v38.453h-31.905V79.256h11.698v9.379h11.698 c0-6.817,0-11.825,0-19.695c-13.613,0-23.738,0-35.095,0c0,4.562,0,35.771,0,40.328c11.729,0,30.263,0,55.301,0 C1300.676,102.584,1300.676,58.808,1300.676,49.244z"/> <path d="M1368.739,98.951h-43.603V60.499h31.905v18.757h-11.698v-9.379h-11.698c0,6.817,0,11.825,0,19.695 c11.371,0,21.5,0,35.095,0c0-14.555,0-26.173,0-40.328c-21.717,0-36.252,0-55.302,0c0,9.563,0,53.34,0,60.023 c10.682,0,43.873,0,55.302,0V98.951z"/> <path d="M1436.802,49.244c-10.682,0-43.873,0-55.302,0v11.254h43.603v38.453h-31.905V79.256h11.698v9.379h11.698 c0-6.817,0-11.825,0-19.695c-13.057,0-22.072,0-35.095,0c0,4.562,0,35.771,0,40.328c23.28,0,32.025,0,55.302,0 C1436.802,102.584,1436.802,58.808,1436.802,49.244z"/> <path d="M1504.866,98.951h-43.603V60.499h31.905v18.757h-11.698v-9.379h-11.698c0,6.817,0,11.825,0,19.695 c13.057,0,22.072,0,35.095,0c0-14.555,0-26.173,0-40.328c-23.28,0-32.024,0-55.302,0c0,5.909,0,53.072,0,60.023 c10.682,0,43.873,0,55.302,0V98.951z"/> <path d="M1598.767,49.244c-15.673,0-64.371,0-81.14,0v11.254h55.337l-24.055,38.453h-19.584V79.256h11.698l-2.055,9.379h9.491 c3.098-6.817,5.374-11.825,8.95-19.695c-14.801,0-25.021,0-39.783,0c0,4.562,0,35.771,0,40.328c12.403,0,17.062,0,29.464,0 C1552.764,102.679,1592.842,56.126,1598.767,49.244z"/> <path d="M29.549,29.549v1600h1600v-1600H29.549z M1618.295,1618.295H40.803V40.803h1577.491V1618.295z"/> <path d="M1549.83,141.47h10.317v-31.282l38.452-24.055v43.639h-18.757v-11.698l9.379-2.055v-13.906 c-6.817,3.098-11.825,5.374-19.695,8.95c0,11.313,0,19.124,0,30.407c14.555,0,26.173,0,40.328,0c0-34.157,0-46.987,0-81.14 c-9.563,8.233-53.34,45.922-60.023,51.676C1549.83,117.698,1549.83,135.381,1549.83,141.47z"/> <path d="M1598.599,197.835h-38.452V165.93h19.695v11.698h-9.379v11.698c6.817,0,11.825,0,19.695,0c0-13.057,0-22.073,0-35.095 c-4.562,0-35.771,0-40.328,0c0,23.28,0,32.024,0,55.302c6.684,0,50.46,0,60.023,0c0-10.682,0-43.873,0-55.302h-11.254V197.835z"/> <path d="M1549.83,277.597h10.317v-43.603h38.452v31.905h-18.757V254.2h9.379v-11.698c-6.817,0-11.825,0-19.695,0 c0,13.057,0,22.072,0,35.095c14.555,0,26.173,0,40.328,0c0-21.717,0-36.252,0-55.302c-9.563,0-53.34,0-60.023,0 C1549.83,232.978,1549.83,266.168,1549.83,277.597z"/> <path d="M1598.599,333.962h-38.452v-31.905h19.695v11.698h-9.379v11.698c6.817,0,11.825,0,19.695,0c0-13.057,0-22.072,0-35.095 c-4.562,0-35.771,0-40.328,0c0,11.729,0,30.263,0,55.302c6.684,0,50.46,0,60.023,0c0-10.682,0-43.873,0-55.302h-11.254V333.962z"/> <path d="M1549.83,413.724h10.317v-43.603h38.452v31.905h-18.757v-11.698h9.379v-11.698c-6.817,0-11.825,0-19.695,0 c0,13.057,0,22.072,0,35.095c14.555,0,26.173,0,40.328,0c0-21.717,0-36.252,0-55.302c-9.563,0-53.34,0-60.023,0 C1549.83,369.105,1549.83,402.295,1549.83,413.724z"/> <path d="M1598.599,470.089h-38.452v-31.905h19.695v11.698h-9.379v11.698c6.817,0,11.825,0,19.695,0c0-13.057,0-22.072,0-35.095 c-4.562,0-35.771,0-40.328,0c0,11.729,0,30.263,0,55.302c6.684,0,50.46,0,60.023,0c0-10.682,0-43.873,0-55.302h-11.254V470.089z"/> <path d="M1549.83,550.914h10.317v-43.603h38.452v31.905h-18.757v-11.698h9.379v-11.698c-6.817,0-11.825,0-19.695,0 c0,13.057,0,22.072,0,35.095c14.555,0,26.173,0,40.328,0c0-23.28,0-32.025,0-55.302c-9.563,0-53.34,0-60.023,0 C1549.83,506.295,1549.83,539.485,1549.83,550.914z"/> <path d="M1598.599,606.216h-38.452v-31.905h19.695v11.698h-9.379v11.698c6.817,0,11.825,0,19.695,0c0-13.057,0-22.072,0-35.095 c-4.562,0-35.771,0-40.328,0c0,23.28,0,32.024,0,55.302c6.589,0,53.141,0,60.023,0c0-10.682,0-43.873,0-55.302h-11.254V606.216z"/> <path d="M1549.83,687.041h10.317v-43.603h38.452v31.905h-18.757v-11.698h9.379v-11.698c-6.817,0-11.825,0-19.695,0 c0,13.057,0,22.073,0,35.095c14.555,0,26.173,0,40.328,0c0-21.717,0-36.252,0-55.302c-9.563,0-53.34,0-60.023,0 C1549.83,642.422,1549.83,675.612,1549.83,687.041z"/> <path d="M1598.599,743.406h-38.452v-31.905h19.695V723.2h-9.379v11.698c6.817,0,11.825,0,19.695,0c0-13.057,0-22.072,0-35.095 c-4.562,0-35.771,0-40.328,0c0,23.28,0,32.025,0,55.302c6.684,0,50.46,0,60.023,0c0-10.682,0-43.873,0-55.302h-11.254V743.406z"/> <path d="M1549.83,823.168h10.317v-43.603h38.452v31.905h-18.757v-11.698h9.379v-11.698c-6.817,0-11.825,0-19.695,0 c0,11.371,0,21.5,0,35.095c14.555,0,26.173,0,40.328,0c0-21.717,0-36.252,0-55.302c-9.563,0-53.34,0-60.023,0 C1549.83,778.549,1549.83,811.739,1549.83,823.168z"/> <path d="M1598.599,879.533h-38.452v-31.905h19.695v11.698h-9.379v11.698c6.817,0,11.825,0,19.695,0c0-13.057,0-22.073,0-35.095 c-4.562,0-35.771,0-40.328,0c0,23.28,0,32.024,0,55.302c6.684,0,50.46,0,60.023,0c0-10.682,0-43.873,0-55.302h-11.254V879.533z"/> <path d="M1549.83,959.295h10.317v-43.603h38.452v31.905h-18.757v-11.698h9.379V924.2c-6.817,0-11.825,0-19.695,0 c0,13.057,0,22.073,0,35.095c14.555,0,26.173,0,40.328,0c0-21.717,0-36.252,0-55.302c-9.563,0-53.34,0-60.023,0 C1549.83,914.676,1549.83,947.866,1549.83,959.295z"/> <path d="M1598.599,1015.66h-38.452v-31.905h19.695v11.698h-9.379v11.698c6.817,0,11.825,0,19.695,0c0-13.057,0-22.072,0-35.095 c-4.562,0-35.771,0-40.328,0c0,23.28,0,32.024,0,55.302c6.684,0,50.46,0,60.023,0c0-10.682,0-43.873,0-55.302h-11.254V1015.66z"/> <path d="M1549.83,1096.485h10.317v-43.603h38.452v31.905h-18.757v-11.698h9.379v-11.698c-6.817,0-11.825,0-19.695,0 c0,13.057,0,22.073,0,35.095c14.555,0,26.173,0,40.328,0c0-21.717,0-36.252,0-55.302c-9.563,0-53.34,0-60.023,0 C1549.83,1051.866,1549.83,1085.057,1549.83,1096.485z"/> <path d="M1598.599,1151.787h-38.452v-31.905h19.695v11.698h-9.379v11.698c6.817,0,11.825,0,19.695,0c0-13.057,0-22.073,0-35.095 c-4.562,0-35.771,0-40.328,0c0,23.28,0,32.024,0,55.302c6.684,0,50.46,0,60.023,0c0-10.682,0-43.873,0-55.302h-11.254V1151.787z"/> <path d="M1549.83,1232.612h10.317v-43.603h38.452v31.905h-18.757v-11.698h9.379v-11.698c-6.817,0-11.825,0-19.695,0 c0,13.057,0,22.072,0,35.095c14.555,0,26.173,0,40.328,0c0-23.28,0-32.025,0-55.302c-5.909,0-53.072,0-60.023,0 C1549.83,1187.993,1549.83,1221.183,1549.83,1232.612z"/> <path d="M1598.599,1288.977h-38.452v-31.905h19.695v11.698h-9.379v11.698c6.817,0,11.825,0,19.695,0c0-13.613,0-23.739,0-35.095 c-4.562,0-35.771,0-40.328,0c0,11.729,0,30.263,0,55.301c6.684,0,50.46,0,60.023,0c0-10.682,0-43.873,0-55.301h-11.254V1288.977z"/> <path d="M1549.83,1368.739h10.317v-43.603h38.452v31.905h-18.757v-11.698h9.379v-11.698c-6.817,0-11.825,0-19.695,0 c0,11.371,0,21.5,0,35.095c14.555,0,26.173,0,40.328,0c0-21.717,0-36.252,0-55.301c-9.563,0-53.34,0-60.023,0 C1549.83,1324.12,1549.83,1357.31,1549.83,1368.739z"/> <path d="M1598.599,1425.104h-38.452v-31.905h19.695v11.698h-9.379v11.698c6.817,0,11.825,0,19.695,0c0-13.057,0-22.072,0-35.095 c-4.562,0-35.771,0-40.328,0c0,23.28,0,32.025,0,55.302c6.684,0,50.46,0,60.023,0c0-10.682,0-43.873,0-55.302h-11.254V1425.104z"/> <path d="M1549.83,1504.866h10.317v-43.603h38.452v31.905h-18.757v-11.698h9.379v-11.698c-6.817,0-11.825,0-19.695,0 c0,13.057,0,22.073,0,35.095c14.555,0,26.173,0,40.328,0c0-23.28,0-32.025,0-55.302c-5.909,0-53.072,0-60.023,0 C1549.83,1460.246,1549.83,1493.437,1549.83,1504.866z"/> <path d="M1598.599,1572.965l-38.452-24.055v-19.584h19.695v11.698l-9.379-2.055v9.491c6.817,3.098,11.825,5.373,19.695,8.95 c0-14.801,0-25.021,0-39.783c-4.562,0-35.771,0-40.328,0c0,12.403,0,17.062,0,29.464c6.589,5.673,53.141,45.751,60.023,51.676 c0-15.673,0-64.371,0-81.139h-11.254V1572.965z"/> <path d="M1517.628,1549.83v10.317h31.282l24.055,38.453h-43.639v-18.757h11.698l2.055,9.379h13.906 c-3.098-6.817-5.374-11.825-8.95-19.695c-11.313,0-19.124,0-30.407,0c0,14.555,0,26.173,0,40.328c34.157,0,46.987,0,81.14,0 c-8.234-9.563-45.922-53.34-51.676-60.023C1541.4,1549.83,1523.717,1549.83,1517.628,1549.83z"/> <path d="M1449.564,1609.854c10.682,0,43.873,0,55.302,0v-11.254h-43.603v-38.453h31.905v19.695h-11.698v-9.379h-11.698 c0,6.817,0,11.825,0,19.695c13.057,0,22.072,0,35.095,0c0-4.562,0-35.771,0-40.328c-23.28,0-32.024,0-55.302,0 C1449.564,1556.514,1449.564,1600.29,1449.564,1609.854z"/> <path d="M1381.501,1560.147h43.603v38.453h-31.905v-18.757h11.698v9.379h11.698c0-6.817,0-11.825,0-19.695 c-13.057,0-22.072,0-35.095,0c0,14.555,0,26.173,0,40.328c21.717,0,36.252,0,55.302,0c0-9.563,0-53.34,0-60.023 c-10.682,0-43.873,0-55.302,0V1560.147z"/> <path d="M1313.438,1609.854c10.682,0,43.873,0,55.302,0v-11.254h-43.603v-38.453h31.905v19.695h-11.698v-9.379h-11.698 c0,6.817,0,11.825,0,19.695c13.057,0,22.073,0,35.095,0c0-4.562,0-35.771,0-40.328c-11.729,0-30.263,0-55.302,0 C1313.438,1556.514,1313.438,1600.29,1313.438,1609.854z"/> <path d="M1245.374,1560.147h43.603v38.453h-31.905v-18.757h11.698v9.379h11.698c0-6.817,0-11.825,0-19.695 c-13.057,0-22.073,0-35.095,0c0,14.555,0,26.173,0,40.328c21.717,0,36.252,0,55.301,0c0-9.563,0-53.34,0-60.023 c-10.682,0-43.873,0-55.301,0V1560.147z"/> <path d="M1177.311,1609.854c10.682,0,43.873,0,55.302,0v-11.254h-43.603v-38.453h31.905v19.695h-11.698v-9.379h-11.698 c0,6.817,0,11.825,0,19.695c13.057,0,22.073,0,35.095,0c0-4.562,0-35.771,0-40.328c-11.729,0-30.263,0-55.302,0 C1177.311,1556.514,1177.311,1600.29,1177.311,1609.854z"/> <path d="M1108.184,1560.147h43.603v38.453h-31.905v-18.757h11.698v9.379h11.698c0-6.817,0-11.825,0-19.695 c-13.057,0-22.073,0-35.095,0c0,14.555,0,26.173,0,40.328c23.28,0,32.024,0,55.302,0c0-9.563,0-53.34,0-60.023 c-10.682,0-43.873,0-55.302,0V1560.147z"/> <path d="M1041.184,1609.854c10.682,0,43.873,0,55.302,0v-11.254h-43.603v-38.453h31.905v19.695h-11.698v-9.379h-11.698 c0,6.817,0,11.825,0,19.695c13.057,0,22.073,0,35.095,0c0-4.562,0-35.771,0-40.328c-23.28,0-32.024,0-55.302,0 C1041.184,1556.419,1041.184,1602.972,1041.184,1609.854z"/> <path d="M972.057,1560.147h43.603v38.453h-31.905v-18.757h11.698v9.379h11.698c0-6.817,0-11.825,0-19.695 c-13.057,0-22.073,0-35.095,0c0,14.555,0,26.173,0,40.328c21.717,0,36.252,0,55.302,0c0-9.563,0-53.34,0-60.023 c-10.682,0-43.873,0-55.302,0V1560.147z"/> <path d="M903.993,1609.854c10.682,0,43.873,0,55.302,0v-11.254h-43.603v-38.453h31.905v19.695h-11.698v-9.379H924.2 c0,6.817,0,11.825,0,19.695c13.057,0,22.072,0,35.095,0c0-4.562,0-35.771,0-40.328c-23.28,0-32.024,0-55.302,0 C903.993,1556.514,903.993,1600.29,903.993,1609.854z"/> <path d="M835.93,1560.147h43.603v38.453h-31.905v-18.757h11.698v9.379h11.698c0-6.817,0-11.825,0-19.695c-11.371,0-21.5,0-35.095,0 c0,14.555,0,26.173,0,40.328c21.717,0,36.252,0,55.301,0c0-9.563,0-53.34,0-60.023c-10.682,0-43.873,0-55.301,0V1560.147z"/> <path d="M767.867,1609.854c10.682,0,43.873,0,55.301,0v-11.254h-43.603v-38.453h31.905v19.695h-11.698v-9.379h-11.698 c0,6.817,0,11.825,0,19.695c13.057,0,22.073,0,35.095,0c0-4.562,0-35.771,0-40.328c-23.28,0-32.025,0-55.301,0 C767.867,1556.514,767.867,1600.29,767.867,1609.854z"/> <path d="M699.803,1560.147h43.603v38.453h-31.905v-18.757H723.2v9.379h11.698c0-6.817,0-11.825,0-19.695 c-13.057,0-22.072,0-35.095,0c0,14.555,0,26.173,0,40.328c21.717,0,36.252,0,55.302,0c0-9.563,0-53.34,0-60.023 c-10.682,0-43.873,0-55.302,0V1560.147z"/> <path d="M631.74,1609.854c10.682,0,43.873,0,55.302,0v-11.254h-43.603v-38.453h31.905v19.695h-11.698v-9.379h-11.698 c0,6.817,0,11.825,0,19.695c13.057,0,22.073,0,35.095,0c0-4.562,0-35.771,0-40.328c-23.28,0-32.025,0-55.302,0 C631.74,1556.514,631.74,1600.29,631.74,1609.854z"/> <path d="M562.613,1560.147h43.603v38.453h-31.905v-18.757h11.698v9.379h11.698c0-6.817,0-11.825,0-19.695 c-13.057,0-22.073,0-35.095,0c0,14.555,0,26.173,0,40.328c21.717,0,36.252,0,55.302,0c0-9.563,0-53.34,0-60.023 c-10.682,0-43.873,0-55.302,0V1560.147z"/> <path d="M495.613,1609.854c10.682,0,43.873,0,55.301,0v-11.254h-43.603v-38.453h31.905v19.695h-11.698v-9.379h-11.698 c0,6.817,0,11.825,0,19.695c13.057,0,22.073,0,35.095,0c0-4.562,0-35.771,0-40.328c-23.28,0-32.024,0-55.301,0 C495.613,1556.514,495.613,1600.29,495.613,1609.854z"/> <path d="M426.486,1560.147h43.603v38.453h-31.905v-18.757h11.698v9.379h11.698c0-6.817,0-11.825,0-19.695 c-13.057,0-22.073,0-35.095,0c0,14.555,0,26.173,0,40.328c23.28,0,32.024,0,55.302,0c0-5.909,0-53.072,0-60.023 c-10.682,0-43.873,0-55.302,0V1560.147z"/> <path d="M358.422,1609.854c10.682,0,43.873,0,55.302,0v-11.254h-43.603v-38.453h31.905v19.695h-11.698v-9.379h-11.698 c0,6.817,0,11.825,0,19.695c13.613,0,23.738,0,35.095,0c0-4.562,0-35.771,0-40.328c-11.729,0-30.263,0-55.302,0 C358.422,1556.514,358.422,1600.29,358.422,1609.854z"/> <path d="M290.359,1560.147h43.603v38.453h-31.905v-18.757h11.698v9.379h11.698c0-6.817,0-11.825,0-19.695 c-11.371,0-21.5,0-35.095,0c0,14.555,0,26.173,0,40.328c21.717,0,36.252,0,55.302,0c0-9.563,0-53.34,0-60.023 c-10.682,0-43.873,0-55.302,0V1560.147z"/> <path d="M222.295,1609.854c10.682,0,43.873,0,55.302,0v-11.254h-43.603v-38.453h31.905v19.695H254.2v-9.379h-11.698 c0,6.817,0,11.825,0,19.695c13.057,0,22.072,0,35.095,0c0-4.562,0-35.771,0-40.328c-23.28,0-32.025,0-55.302,0 C222.295,1556.514,222.295,1600.29,222.295,1609.854z"/> <path d="M154.232,1560.147h43.603v38.453H165.93v-18.757h11.698v9.379h11.698c0-6.817,0-11.825,0-19.695 c-13.057,0-22.072,0-35.095,0c0,14.555,0,26.173,0,40.328c23.28,0,32.024,0,55.302,0c0-5.909,0-53.072,0-60.023 c-10.682,0-43.873,0-55.302,0V1560.147z"/> <path d="M60.331,1609.854c15.673,0,64.371,0,81.14,0v-11.254H86.133l24.055-38.453h19.584v19.695h-11.698l2.055-9.379h-9.491 c-3.098,6.817-5.374,11.825-8.95,19.695c14.801,0,25.021,0,39.783,0c0-4.562,0-35.771,0-40.328c-12.403,0-17.062,0-29.463,0 C106.334,1556.419,66.256,1602.972,60.331,1609.854z"/> </g> </svg>