<?xml version="1.0" encoding="UTF-8"?>
<!DOCTYPE svg  PUBLIC '-//W3C//DTD SVG 1.1//EN'  'http://www.w3.org/Graphics/SVG/1.1/DTD/svg11.dtd'>
<svg enable-background="new 0 0 1645.817 1645.817" version="1.1" viewBox="0 0 1645.817 1645.817" xml:space="preserve" xmlns="http://www.w3.org/2000/svg">
		<path d="m1602.1 43.673c-0.07 1.047-0.149 2.096-0.238 3.144-2.882 34.01-15.753 68.33-31.651 84.953 9.721-19.061 23.426-49.368 25.978-82.187-32.819 2.552-63.126 16.257-82.187 25.978 16.623-15.897 50.944-28.769 84.953-31.651 1.05-0.088 2.098-0.167 3.145-0.237zm0 1558.5c-1.047-0.07-2.095-0.149-3.144-0.238-34.01-2.882-68.33-15.753-84.953-31.651 19.061 9.721 49.368 23.426 82.187 25.978-2.552-32.819-16.257-63.126-25.978-82.187 15.897 16.623 28.769 50.944 31.651 84.953 0.088 1.05 0.167 2.098 0.237 3.145zm-1558.5 0c0.07-1.047 0.149-2.095 0.238-3.144 2.882-34.01 15.753-68.33 31.651-84.953-9.721 19.061-23.426 49.368-25.978 82.187 32.819-2.552 63.126-16.257 82.187-25.978-16.623 15.897-50.944 28.769-84.953 31.651-1.049 0.088-2.098 0.167-3.145 0.237zm0-1558.5c1.047 0.07 2.096 0.149 3.144 0.238 34.01 2.882 68.33 15.753 84.953 31.651-19.061-9.721-49.368-23.426-82.187-25.978 2.552 32.819 16.257 63.126 25.978 82.187-15.897-16.623-28.769-50.944-31.651-84.953-0.088-1.049-0.167-2.098-0.237-3.145zm1539.4 19.028c0.227 19.247-3.168 38.464-10.62 52.265 3.809-13.03 5.521-29.768 4.822-46.467-16.699-0.699-33.438 1.013-46.467 4.822 13.801-7.451 33.018-10.847 52.265-10.62zm0 1520.4c-19.247 0.227-38.464-3.168-52.265-10.62 13.03 3.809 29.768 5.521 46.467 4.822 0.699-16.699-1.013-33.438-4.822-46.467 7.452 13.801 10.847 33.018 10.62 52.265zm-1520.4 0c-0.227-19.247 3.168-38.464 10.62-52.265-3.809 13.03-5.521 29.768-4.822 46.467 16.699 0.699 33.438-1.013 46.467-4.822-13.801 7.452-33.018 10.847-52.265 10.62zm0-1520.4c19.247-0.227 38.464 3.168 52.265 10.62-13.03-3.809-29.768-5.521-46.467-4.822-0.699 16.699 1.013 33.438 4.822 46.467-7.451-13.801-10.847-33.018-10.62-52.265zm16.148 16.148c10.658-2.444 22.153-1.962 34.997 3.435-9.355-0.889-19.641 0.457-27.089 4.474-4.016 7.448-5.363 17.734-4.474 27.089-5.397-12.845-5.879-24.341-3.434-34.998zm0 1488.1c-2.444-10.658-1.962-22.153 3.435-34.997-0.889 9.355 0.457 19.641 4.474 27.089 7.448 4.016 17.734 5.363 27.089 4.474-12.845 5.396-24.341 5.878-34.998 3.434zm1488.1 0c-10.658 2.444-22.153 1.963-34.997-3.435 9.355 0.889 19.641-0.458 27.089-4.474 4.016-7.448 5.363-17.734 4.474-27.089 5.396 12.844 5.878 24.34 3.434 34.998zm0-1488.1c2.444 10.658 1.963 22.153-3.435 34.997 0.889-9.355-0.458-19.641-4.474-27.089-7.448-4.016-17.734-5.363-27.089-4.474 12.844-5.397 24.34-5.879 34.998-3.434zm-1460.2 27.951c-0.042-0.624 0.05-1.321 0.324-2.111 33.083-16.274 77.986 27.887 114.27 23.526 12.133-1.459 25.073-10.093 17.924-23.526-10.071-4.087-13.943 4.226-13.443 11.203-11.677-0.572-26.47-4.552-38.089-13.443-13.253-10.141-30.968-37.185-2.241-38.089 0.28-13.355-6.342-20.467-15.684-21.285-19.354-1.695-28.639 21.066-17.924 39.21-17.398-13.722-47.337-33.652-79.803-44.949-14.272-4.966-29.031-8.263-43.428-8.63 0.368 14.397 3.665 29.157 8.63 43.428 11.296 32.465 31.227 62.404 44.949 79.803-18.144-10.714-40.905-1.429-39.21 17.924 0.818 9.342 7.93 15.964 21.285 15.684 0.904-28.727 27.949-11.012 38.089 2.241 8.892 11.619 12.871 26.413 13.443 38.089-6.977-0.5-15.29 3.372-11.203 13.443 13.433 7.148 22.067-5.792 23.526-17.924 4.361-36.282-39.8-81.185-23.526-114.27 0.792-0.276 1.489-0.368 2.113-0.326zm0 1432.2c-0.624 0.042-1.321-0.05-2.111-0.324-16.274-33.083 27.887-77.986 23.526-114.27-1.459-12.133-10.093-25.073-23.526-17.924-4.087 10.071 4.226 13.943 11.203 13.443-0.572 11.677-4.552 26.47-13.443 38.089-10.141 13.253-37.185 30.968-38.089 2.24-13.355-0.28-20.467 6.342-21.285 15.684-1.695 19.354 21.066 28.639 39.21 17.924-13.722 17.398-33.652 47.338-44.949 79.803-4.966 14.272-8.263 29.031-8.63 43.428 14.397-0.368 29.157-3.665 43.428-8.63 32.465-11.296 62.404-31.227 79.803-44.949-10.714 18.144-1.429 40.905 17.924 39.21 9.342-0.818 15.964-7.93 15.684-21.285-28.727-0.904-11.012-27.949 2.241-38.089 11.619-8.892 26.413-12.871 38.089-13.443-0.5 6.977 3.372 15.29 13.443 11.203 7.148-13.433-5.792-22.067-17.924-23.526-36.282-4.361-81.185 39.8-114.27 23.526-0.276-0.791-0.368-1.488-0.326-2.112zm1432.2 0c0.042 0.624-0.05 1.321-0.324 2.111-33.083 16.274-77.986-27.887-114.27-23.526-12.133 1.459-25.073 10.093-17.924 23.526 10.071 4.087 13.943-4.226 13.443-11.203 11.677 0.573 26.47 4.552 38.089 13.443 13.253 10.141 30.968 37.185 2.24 38.089-0.28 13.355 6.342 20.468 15.684 21.285 19.354 1.695 28.639-21.066 17.924-39.21 17.398 13.722 47.338 33.652 79.803 44.949 14.272 4.966 29.031 8.263 43.428 8.63-0.368-14.397-3.665-29.157-8.63-43.428-11.296-32.465-31.227-62.404-44.949-79.803 18.144 10.714 40.905 1.429 39.21-17.924-0.818-9.342-7.93-15.964-21.285-15.684-0.904 28.727-27.949 11.012-38.089-2.24-8.892-11.62-12.871-26.413-13.443-38.089 6.977 0.5 15.29-3.372 11.203-13.443-13.433-7.149-22.067 5.792-23.526 17.924-4.361 36.282 39.8 81.185 23.526 114.27-0.791 0.275-1.488 0.367-2.112 0.325zm0-1432.2c0.624-0.042 1.321 0.05 2.111 0.324 16.274 33.083-27.887 77.986-23.526 114.27 1.459 12.133 10.093 25.073 23.526 17.924 4.087-10.071-4.226-13.943-11.203-13.443 0.573-11.677 4.552-26.47 13.443-38.089 10.141-13.253 37.185-30.968 38.089-2.241 13.355 0.28 20.468-6.342 21.285-15.684 1.695-19.354-21.066-28.639-39.21-17.924 13.722-17.398 33.652-47.337 44.949-79.803 4.966-14.272 8.263-29.031 8.63-43.428-14.397 0.368-29.157 3.665-43.428 8.63-32.465 11.296-62.404 31.227-79.803 44.949 10.714-18.144 1.429-40.905-17.924-39.21-9.342 0.818-15.964 7.93-15.684 21.285 28.727 0.904 11.012 27.949-2.24 38.089-11.62 8.892-26.413 12.871-38.089 13.443 0.5-6.977-3.372-15.29-13.443-11.203-7.149 13.433 5.792 22.067 17.924 23.526 36.282 4.361 81.185-39.8 114.27-23.526 0.275 0.792 0.367 1.489 0.325 2.113z"/>
		<path d="m822.91 115.43c-10.946-1.354-23.56-5.366-33.782-12.982-13.613-10.141-31.81-37.185-2.301-38.089 0.288-13.355-6.514-20.467-16.11-21.285-19.88-1.695-29.418 21.066-18.412 39.21-35.744-27.444-123.01-79.724-179.52-38.09-5.077 3.742-8.201 9.649-11.507 14.564-3.41 5.068-5.356 11.885-11.507 15.684-6.545-10.812 5.502-22.034 9.206-30.247-7.602-5.296-12.804-12.928-17.261-21.285-2.108 10.645-8.322 17.291-16.11 22.405 3.285 7.766 17.687 20.917 9.206 29.127-8.83-6.71-12.152-16.691-20.713-23.526-15.668-12.508-40.083-19.938-64.442-20.165-53.689-0.501-87.965 32.012-118.53 52.653 28.457-28.323-28.368-58.073-34.522-17.924 31.311-0.453 13.904 28.71 0 39.21-11.773 8.89-26.943 11.93-37.974 13.443-4.596-6.455 0.68-9.88-6.904-11.203-4.484-0.782-10.666 2.046-10.357 8.962 0.299 6.695 10.932 11.157 18.412 12.323 28.824 4.495 50.055-5.853 71.346-13.443 16.044-5.719 35.076-15.804 47.18-14.564 17.46 1.79 6.476 15.076 1.151 19.045 27.67 14.434 45.23-21.607 25.316-33.608-7.196-4.337-16.503-1.004-26.467-4.481 58.372-12.182 82.022 40.973 125.43 45.931 18.828 2.151 30.435-6.325 40.276-16.804 7.354 11.166 18.429 17.49 35.673 16.804 46.336-1.844 77.39-67.759 133.49-44.811-19.479-1.803-42.889 5.582-37.974 25.766 2.71 11.133 24.267 18.774 34.522 7.842 4.179-4.507-5.723-4.836-3.452-11.203 33.758-16.167 79.497 27.306 116.64 23.606 37.138 3.7 82.877-39.773 116.64-23.606 2.271 6.367-7.632 6.696-3.452 11.203 10.255 10.932 31.812 3.291 34.522-7.842 4.915-20.184-18.496-27.569-37.974-25.766 56.096-22.948 87.15 42.967 133.49 44.811 17.244 0.686 28.319-5.638 35.673-16.804 9.841 10.479 21.448 18.955 40.276 16.804 43.408-4.958 67.058-58.113 125.43-45.931-9.964 3.477-19.271 0.145-26.467 4.481-19.914 12.001-2.353 48.042 25.316 33.608-5.326-3.969-16.309-17.254 1.151-19.045 12.105-1.24 31.137 8.845 47.18 14.564 21.291 7.59 42.522 17.938 71.346 13.443 7.48-1.166 18.113-5.628 18.412-12.323 0.31-6.917-5.872-9.744-10.357-8.962-7.584 1.323-2.308 4.748-6.904 11.203-11.031-1.513-26.201-4.553-37.974-13.443-13.904-10.499-31.31-39.662 0-39.21-6.154-40.148-62.979-10.398-34.522 17.924-30.561-20.641-64.837-53.154-118.53-52.653-24.359 0.227-48.773 7.657-64.441 20.165-8.562 6.835-11.884 16.815-20.713 23.526-8.481-8.21 5.921-21.361 9.206-29.127-7.788-5.114-14.002-11.761-16.11-22.405-4.457 8.357-9.659 15.99-17.261 21.285 3.704 8.214 15.751 19.436 9.206 30.247-6.152-3.799-8.098-10.616-11.507-15.684-3.306-4.915-6.43-10.822-11.507-14.564-56.509-41.634-143.78 10.646-179.52 38.089 11.006-18.144 1.468-40.905-18.412-39.21-9.596 0.818-16.398 7.93-16.11 21.285 29.509 0.904 11.312 27.949-2.301 38.089-10.223 7.617-22.837 11.628-33.782 12.983zm707.48 707.48c1.354-10.946 5.366-23.56 12.982-33.782 10.141-13.613 37.185-31.81 38.089-2.301 13.355 0.288 20.468-6.514 21.285-16.11 1.695-19.88-21.066-29.418-39.21-18.412 27.443-35.743 79.723-123.01 38.089-179.52-3.742-5.077-9.649-8.201-14.564-11.507-5.068-3.41-11.885-5.356-15.684-11.507 10.812-6.545 22.034 5.502 30.247 9.206 5.296-7.602 12.928-12.804 21.285-17.261-10.645-2.108-17.291-8.322-22.406-16.11-7.766 3.285-20.917 17.687-29.127 9.206 6.71-8.83 16.691-12.152 23.526-20.713 12.508-15.668 19.938-40.083 20.165-64.442 0.501-53.689-32.012-87.965-52.653-118.53 28.323 28.457 58.073-28.368 17.924-34.522 0.453 31.311-28.71 13.904-39.21 0-8.891-11.773-11.93-26.943-13.443-37.974 6.455-4.596 9.88 0.68 11.203-6.904 0.782-4.484-2.046-10.666-8.962-10.357-6.695 0.299-11.157 10.932-12.323 18.412-4.495 28.824 5.853 50.055 13.443 71.346 5.719 16.044 15.804 35.076 14.564 47.18-1.79 17.46-15.076 6.476-19.045 1.151-14.434 27.67 21.607 45.23 33.608 25.316 4.337-7.196 1.004-16.503 4.481-26.467 12.182 58.372-40.973 82.022-45.931 125.43-2.151 18.828 6.325 30.435 16.804 40.276-11.166 7.354-17.49 18.429-16.804 35.673 1.844 46.336 67.759 77.39 44.811 133.49 1.802-19.479-5.582-42.889-25.766-37.974-11.133 2.71-18.774 24.267-7.842 34.522 4.507 4.179 4.836-5.723 11.203-3.452 16.167 33.758-27.306 79.497-23.606 116.64-3.7 37.138 39.773 82.877 23.606 116.64-6.366 2.271-6.696-7.632-11.203-3.452-10.932 10.255-3.291 31.812 7.842 34.522 20.184 4.915 27.569-18.496 25.766-37.974 22.948 56.096-42.967 87.15-44.811 133.49-0.686 17.244 5.638 28.319 16.804 35.673-10.479 9.841-18.955 21.448-16.804 40.276 4.958 43.408 58.113 67.058 45.931 125.43-3.477-9.964-0.145-19.271-4.481-26.467-12.001-19.914-48.042-2.353-33.608 25.316 3.969-5.326 17.255-16.309 19.045 1.151 1.24 12.105-8.844 31.137-14.564 47.18-7.59 21.291-17.938 42.522-13.443 71.346 1.166 7.48 5.628 18.113 12.323 18.412 6.917 0.31 9.744-5.872 8.962-10.357-1.323-7.584-4.748-2.308-11.203-6.904 1.513-11.031 4.553-26.201 13.443-37.974 10.499-13.904 39.662-31.31 39.21 0 40.148-6.154 10.398-62.979-17.924-34.522 20.641-30.561 53.154-64.837 52.653-118.53-0.227-24.359-7.657-48.773-20.165-64.441-6.835-8.562-16.815-11.884-23.526-20.713 8.21-8.481 21.361 5.921 29.127 9.206 5.114-7.788 11.761-14.002 22.406-16.11-8.357-4.457-15.99-9.659-21.285-17.261-8.214 3.704-19.436 15.751-30.247 9.206 3.799-6.152 10.616-8.098 15.684-11.507 4.915-3.306 10.822-6.43 14.564-11.507 41.634-56.503-10.646-143.77-38.089-179.52 18.144 11.006 40.905 1.468 39.21-18.412-0.818-9.596-7.93-16.398-21.285-16.11-0.904 29.509-27.949 11.312-38.089-2.301-7.615-10.23-11.627-22.844-12.982-33.789zm-707.48 707.48c10.946 1.354 23.56 5.366 33.782 12.982 13.613 10.141 31.81 37.185 2.301 38.089-0.288 13.355 6.514 20.468 16.11 21.285 19.88 1.695 29.418-21.066 18.412-39.21 35.743 27.443 123.01 79.723 179.52 38.089 5.077-3.742 8.201-9.649 11.507-14.564 3.41-5.068 5.355-11.885 11.507-15.684 6.545 10.812-5.502 22.034-9.206 30.247 7.602 5.296 12.804 12.928 17.261 21.285 2.108-10.645 8.322-17.291 16.11-22.406-3.285-7.766-17.687-20.917-9.206-29.127 8.83 6.71 12.152 16.691 20.713 23.526 15.668 12.508 40.083 19.938 64.441 20.165 53.689 0.501 87.965-32.012 118.53-52.653-28.457 28.323 28.368 58.073 34.522 17.924-31.31 0.453-13.904-28.71 0-39.21 11.773-8.891 26.943-11.93 37.974-13.443 4.596 6.455-0.68 9.88 6.904 11.203 4.484 0.782 10.666-2.046 10.357-8.962-0.299-6.695-10.932-11.157-18.412-12.323-28.824-4.495-50.055 5.853-71.346 13.443-16.044 5.719-35.076 15.804-47.18 14.564-17.46-1.79-6.476-15.076-1.151-19.045-27.67-14.434-45.23 21.607-25.316 33.608 7.196 4.337 16.503 1.004 26.467 4.481-58.373 12.182-82.023-40.973-125.43-45.931-18.828-2.151-30.435 6.325-40.276 16.804-7.354-11.166-18.429-17.49-35.673-16.804-46.336 1.844-77.39 67.759-133.49 44.811 19.479 1.802 42.889-5.582 37.974-25.766-2.71-11.133-24.267-18.774-34.522-7.842-4.179 4.507 5.723 4.836 3.452 11.203-33.758 16.167-79.497-27.306-116.64-23.606-37.138-3.7-82.877 39.773-116.64 23.606-2.27-6.366 7.632-6.696 3.452-11.203-10.255-10.932-31.812-3.291-34.522 7.842-4.915 20.184 18.496 27.569 37.974 25.766-56.096 22.948-87.15-42.967-133.49-44.811-17.244-0.686-28.319 5.638-35.673 16.804-9.841-10.479-21.447-18.955-40.276-16.804-43.408 4.958-67.058 58.113-125.43 45.931 9.964-3.477 19.271-0.145 26.467-4.481 19.914-12.001 2.353-48.042-25.316-33.608 5.326 3.969 16.309 17.255-1.151 19.045-12.105 1.24-31.137-8.844-47.18-14.564-21.291-7.59-42.522-17.938-71.346-13.443-7.48 1.166-18.113 5.628-18.412 12.323-0.31 6.917 5.872 9.744 10.357 8.962 7.585-1.323 2.308-4.748 6.904-11.203 11.031 1.513 26.201 4.553 37.974 13.443 13.904 10.499 31.311 39.662 0 39.21 6.154 40.148 62.979 10.398 34.522-17.924 30.561 20.641 64.837 53.154 118.53 52.653 24.359-0.227 48.773-7.657 64.442-20.165 8.561-6.835 11.884-16.815 20.713-23.526 8.481 8.21-5.921 21.361-9.206 29.127 7.788 5.114 14.002 11.761 16.11 22.406 4.457-8.357 9.659-15.99 17.261-21.285-3.704-8.214-15.751-19.436-9.206-30.247 6.152 3.799 8.098 10.616 11.507 15.684 3.306 4.915 6.43 10.822 11.507 14.564 56.503 41.634 143.77-10.646 179.52-38.089-11.006 18.144-1.468 40.905 18.412 39.21 9.596-0.818 16.398-7.93 16.11-21.285-29.509-0.904-11.312-27.949 2.301-38.089 10.229-7.615 22.843-11.627 33.789-12.982zm-707.48-707.48c-1.354 10.946-5.366 23.56-12.982 33.782-10.141 13.613-37.185 31.81-38.089 2.301-13.355-0.288-20.467 6.514-21.285 16.11-1.695 19.88 21.066 29.418 39.21 18.412-27.444 35.744-79.724 123.01-38.09 179.52 3.742 5.077 9.649 8.201 14.564 11.507 5.068 3.41 11.885 5.355 15.684 11.507-10.812 6.545-22.034-5.502-30.247-9.206-5.296 7.602-12.928 12.804-21.285 17.261 10.645 2.108 17.291 8.322 22.405 16.11 7.766-3.285 20.917-17.687 29.127-9.206-6.71 8.83-16.691 12.152-23.526 20.713-12.508 15.668-19.938 40.083-20.165 64.441-0.501 53.689 32.012 87.965 52.653 118.53-28.323-28.457-58.073 28.368-17.924 34.522-0.453-31.31 28.71-13.904 39.21 0 8.89 11.773 11.93 26.943 13.443 37.974-6.455 4.596-9.88-0.68-11.203 6.904-0.782 4.484 2.046 10.666 8.962 10.357 6.695-0.299 11.157-10.932 12.323-18.412 4.495-28.824-5.853-50.055-13.443-71.346-5.719-16.044-15.804-35.076-14.564-47.18 1.79-17.46 15.076-6.476 19.045-1.151 14.434-27.67-21.607-45.23-33.608-25.316-4.337 7.196-1.004 16.503-4.481 26.467-12.182-58.373 40.973-82.023 45.931-125.43 2.151-18.828-6.325-30.435-16.804-40.276 11.166-7.354 17.49-18.429 16.804-35.673-1.844-46.336-67.759-77.39-44.811-133.49-1.803 19.479 5.582 42.889 25.766 37.974 11.133-2.71 18.774-24.267 7.842-34.522-4.507-4.179-4.836 5.723-11.203 3.452-16.167-33.758 27.306-79.497 23.606-116.64 3.7-37.138-39.773-82.877-23.606-116.64 6.367-2.27 6.696 7.632 11.203 3.452 10.932-10.255 3.291-31.812-7.842-34.522-20.184-4.915-27.569 18.496-25.766 37.974-22.948-56.096 42.967-87.15 44.811-133.49 0.686-17.244-5.638-28.319-16.804-35.673 10.479-9.841 18.955-21.447 16.804-40.276-4.958-43.408-58.113-67.058-45.931-125.43 3.477 9.964 0.145 19.271 4.481 26.467 12.001 19.914 48.042 2.353 33.608-25.316-3.969 5.326-17.254 16.309-19.045-1.151-1.24-12.105 8.845-31.137 14.564-47.18 7.59-21.291 17.938-42.522 13.443-71.346-1.166-7.48-5.628-18.113-12.323-18.412-6.917-0.31-9.744 5.872-8.962 10.357 1.323 7.585 4.748 2.308 11.203 6.904-1.513 11.031-4.553 26.201-13.443 37.974-10.499 13.904-39.662 31.311-39.21 0-40.148 6.154-10.398 62.979 17.924 34.522-20.641 30.561-53.154 64.837-52.653 118.53 0.227 24.359 7.657 48.773 20.165 64.442 6.835 8.561 16.815 11.884 23.526 20.713-8.21 8.481-21.361-5.921-29.127-9.206-5.114 7.788-11.761 14.002-22.405 16.11 8.357 4.457 15.99 9.659 21.285 17.261 8.214-3.704 19.436-15.751 30.247-9.206-3.799 6.152-10.616 8.098-15.684 11.507-4.915 3.306-10.822 6.43-14.564 11.507-41.634 56.509 10.646 143.78 38.089 179.52-18.144-11.006-40.905-1.468-39.21 18.412 0.818 9.596 7.93 16.398 21.285 16.11 0.904-29.509 27.949-11.312 38.089 2.301 7.617 10.223 11.628 22.837 12.983 33.783zm461.96-752.95c6.979 0.393 18.158 2.13 24.166 6.722 27.23-16.707 82.601-19.219 112.77-3.361-32.289-9.19-86.751-6.17-109.32 13.443-1.498 10.689-2.347 22.954-10.357 29.127-20.463 15.769-57.257-3.769-47.18-31.368 9.97 3.079 7.628 15.148 14.96 20.165 9.853 6.743 29.283 3.13 29.919-10.082 0.915-18.989-25.807-13.332-19.563 4.481-8.678 0.233-10.913-5.807-13.809-11.203 3.715-2.632 8.451-14.206 0-15.684 31.596-48.126 138.46-28.434 172.61 3.361-24.118-11.975-65.765-29.994-108.17-25.766-18.647 1.86-34.008 10.061-46.03 20.165zm-507.43 998.47c0.393-6.979 2.13-18.157 6.722-24.166-16.707-27.23-19.219-82.601-3.361-112.77-9.19 32.289-6.17 86.751 13.443 109.32 10.689 1.498 22.954 2.348 29.127 10.357 15.769 20.463-3.769 57.257-31.368 47.18 3.079-9.97 15.148-7.628 20.165-14.96 6.743-9.853 3.13-29.283-10.082-29.919-18.989-0.915-13.332 25.807 4.481 19.563 0.233 8.678-5.807 10.912-11.203 13.809-2.632-3.715-14.206-8.451-15.684 0-48.126-31.596-28.434-138.46 3.361-172.61-11.975 24.118-29.994 65.765-25.766 108.17 1.86 18.647 10.061 34.008 20.165 46.03zm998.47 507.43c-6.979-0.393-18.157-2.13-24.166-6.722-27.23 16.707-82.601 19.219-112.77 3.361 32.289 9.19 86.751 6.171 109.32-13.443 1.498-10.689 2.348-22.954 10.357-29.127 20.463-15.769 57.257 3.769 47.18 31.368-9.97-3.078-7.628-15.148-14.96-20.165-9.853-6.743-29.283-3.13-29.919 10.083-0.915 18.989 25.807 13.332 19.563-4.481 8.678-0.233 10.912 5.808 13.809 11.203-3.715 2.632-8.451 14.206 0 15.684-31.596 48.126-138.46 28.434-172.61-3.361 24.118 11.975 65.765 29.994 108.17 25.766 18.647-1.861 34.008-10.062 46.03-20.166zm507.43-998.47c-0.393 6.979-2.13 18.158-6.722 24.166 16.707 27.23 19.219 82.601 3.361 112.77 9.19-32.289 6.171-86.751-13.443-109.32-10.689-1.498-22.954-2.347-29.127-10.357-15.769-20.463 3.769-57.257 31.368-47.18-3.078 9.97-15.148 7.628-20.165 14.96-6.743 9.853-3.13 29.283 10.083 29.919 18.989 0.915 13.332-25.807-4.481-19.563-0.233-8.678 5.808-10.913 11.203-13.809 2.632 3.715 14.206 8.451 15.684 0 48.126 31.596 28.434 138.46-3.361 172.61 11.975-24.118 29.994-65.765 25.766-108.17-1.861-18.647-10.062-34.008-20.166-46.03zm-553.46-527.6c-42.405-4.228-84.051 13.792-108.17 25.766 34.151-31.795 141.02-51.487 172.61-3.361-8.451 1.478-3.715 13.052 0 15.684-2.896 5.395-5.131 11.436-13.809 11.203 6.244-17.813-20.477-23.47-19.563-4.481 0.636 13.213 20.067 16.825 29.919 10.082 7.332-5.017 4.99-17.086 14.96-20.165 10.077 27.599-26.718 47.137-47.18 31.368-8.009-6.173-8.858-18.439-10.357-29.127-22.569-19.614-77.032-22.633-109.32-13.443 30.171-15.859 85.543-13.346 112.77 3.361 6.008-4.592 17.186-6.328 24.166-6.722-12.022-10.104-27.383-18.305-46.03-20.165zm-972.6 573.62c-4.228 42.405 13.792 84.051 25.766 108.17-31.795-34.151-51.487-141.02-3.361-172.61 1.478 8.451 13.052 3.715 15.684 0 5.395 2.896 11.436 5.131 11.203 13.809-17.813-6.244-23.47 20.477-4.481 19.563 13.213-0.636 16.825-20.067 10.082-29.919-5.017-7.331-17.086-4.99-20.165-14.96 27.599-10.077 47.137 26.718 31.368 47.18-6.173 8.009-18.439 8.858-29.127 10.357-19.614 22.569-22.633 77.032-13.443 109.32-15.859-30.171-13.346-85.543 3.361-112.77-4.592-6.008-6.328-17.186-6.722-24.166-10.104 12.022-18.305 27.383-20.165 46.03zm573.62 972.6c42.405 4.228 84.051-13.792 108.17-25.766-34.151 31.794-141.02 51.487-172.61 3.361 8.451-1.478 3.715-13.052 0-15.684 2.896-5.395 5.131-11.436 13.809-11.203-6.244 17.814 20.477 23.47 19.563 4.481-0.636-13.213-20.067-16.825-29.919-10.083-7.331 5.017-4.99 17.086-14.96 20.165-10.077-27.599 26.718-47.137 47.18-31.368 8.009 6.173 8.858 18.439 10.357 29.127 22.569 19.614 77.032 22.633 109.32 13.443-30.171 15.859-85.543 13.346-112.77-3.361-6.008 4.592-17.186 6.328-24.166 6.722 12.022 10.105 27.383 18.306 46.03 20.166zm972.6-573.62c4.228-42.405-13.792-84.051-25.766-108.17 31.794 34.151 51.487 141.02 3.361 172.61-1.478-8.451-13.052-3.715-15.684 0-5.395-2.896-11.436-5.131-11.203-13.809 17.814 6.244 23.47-20.477 4.481-19.563-13.213 0.636-16.825 20.067-10.083 29.919 5.017 7.332 17.086 4.99 20.165 14.96-27.599 10.077-47.137-26.718-31.368-47.18 6.173-8.009 18.439-8.858 29.127-10.357 19.614-22.569 22.633-77.032 13.443-109.32 15.859 30.171 13.346 85.543-3.361 112.77 4.592 6.008 6.328 17.186 6.722 24.166 10.105-12.022 18.306-27.383 20.166-46.03zm-1073.9-952.44c0.931 5.387-5.049 4.046-3.452 10.082-0.129 4.98 6.237 3.638 6.904 7.842-0.389 5.97-3.168 9.612-9.206 10.082-3.333-6.088-1.574-11.007-6.904-13.443-14.415-6.589-21.635 22.375-2.301 24.646 17.694 2.078 21.804-16.515 29.919-24.646 15.878 43.772-58.27 51.505-52.934 7.842-23.206-20.881-79.955-30.266-115.07-13.443 28.101-21.719 91.483-16.759 117.38 3.361 5.776-4.46 9.889-10.537 18.412-12.323-39.314-31.015-119.31-14.947-154.2 8.962 36.8-31.774 131.9-50.243 171.46-8.962zm-452.2 1053.7c5.387-0.931 4.046 5.049 10.082 3.452 4.98 0.129 3.638-6.237 7.842-6.904 5.97 0.389 9.612 3.168 10.082 9.206-6.088 3.333-11.007 1.574-13.443 6.904-6.589 14.415 22.375 21.635 24.646 2.302 2.078-17.694-16.515-21.804-24.646-29.919 43.772-15.878 51.505 58.27 7.842 52.934-20.881 23.206-30.266 79.955-13.443 115.07-21.719-28.101-16.759-91.483 3.361-117.38-4.46-5.776-10.537-9.89-12.323-18.412-31.015 39.314-14.947 119.31 8.962 154.2-31.774-36.802-50.243-131.9-8.962-171.46zm1053.7 452.19c-0.931-5.387 5.049-4.046 3.452-10.083 0.129-4.98-6.237-3.637-6.904-7.842 0.389-5.97 3.168-9.612 9.206-10.082 3.333 6.088 1.574 11.007 6.904 13.443 14.415 6.589 21.635-22.375 2.302-24.646-17.694-2.078-21.804 16.515-29.919 24.646-15.878-43.772 58.27-51.505 52.934-7.842 23.206 20.881 79.955 30.266 115.07 13.443-28.101 21.719-91.483 16.759-117.38-3.361-5.776 4.46-9.89 10.537-18.412 12.323 39.314 31.015 119.31 14.947 154.2-8.962-36.802 31.775-131.9 50.244-171.46 8.963zm452.19-1053.7c-5.387 0.931-4.046-5.049-10.083-3.452-4.98-0.129-3.637 6.237-7.842 6.904-5.97-0.389-9.612-3.168-10.082-9.206 6.088-3.333 11.007-1.574 13.443-6.904 6.589-14.415-22.375-21.635-24.646-2.301-2.078 17.694 16.515 21.804 24.646 29.919-43.772 15.878-51.505-58.27-7.842-52.934 20.881-23.206 30.266-79.955 13.443-115.07 21.719 28.101 16.759 91.483-3.361 117.38 4.46 5.776 10.537 9.889 12.323 18.412 31.015-39.314 14.947-119.31-8.962-154.2 31.775 36.8 50.244 131.9 8.963 171.46zm-280.73-443.23c-34.893-23.909-114.88-39.977-154.2-8.962 8.522 1.786 12.636 7.863 18.412 12.323 25.893-20.12 89.275-25.08 117.38-3.361-35.12-16.823-91.868-7.438-115.07 13.443 5.336 43.663-68.812 35.931-52.934-7.842 8.115 8.131 12.225 26.724 29.919 24.646 19.334-2.271 12.114-31.235-2.302-24.646-5.33 2.437-3.572 7.356-6.904 13.443-6.038-0.471-8.817-4.113-9.206-10.082 0.667-4.204 7.033-2.862 6.904-7.842 1.597-6.036-4.383-4.695-3.452-10.082 39.556-41.281 134.66-22.812 171.46 8.962zm-1216.2 271.77c-23.909 34.893-39.977 114.88-8.962 154.2 1.786-8.522 7.863-12.636 12.323-18.412-20.12-25.893-25.08-89.275-3.361-117.38-16.823 35.119-7.438 91.868 13.443 115.07 43.663-5.336 35.931 68.812-7.842 52.934 8.131-8.115 26.724-12.226 24.646-29.919-2.271-19.334-31.235-12.114-24.646 2.301 2.437 5.33 7.356 3.572 13.443 6.904-0.471 6.038-4.113 8.817-10.082 9.206-4.204-0.667-2.862-7.033-7.842-6.904-6.036-1.597-4.695 4.383-10.082 3.452-41.281-39.555-22.812-134.66 8.962-171.46zm271.77 1216.2c34.893 23.909 114.88 39.977 154.2 8.962-8.522-1.786-12.636-7.863-18.412-12.323-25.893 20.12-89.275 25.08-117.38 3.361 35.119 16.823 91.868 7.438 115.07-13.443-5.336-43.663 68.812-35.931 52.934 7.842-8.115-8.131-12.226-26.724-29.919-24.646-19.334 2.271-12.114 31.235 2.301 24.646 5.33-2.437 3.572-7.356 6.904-13.443 6.038 0.47 8.817 4.113 9.206 10.082-0.667 4.204-7.033 2.862-6.904 7.842-1.597 6.036 4.383 4.695 3.452 10.083-39.555 41.28-134.66 22.811-171.46-8.963zm1216.2-271.77c23.909-34.893 39.977-114.88 8.962-154.2-1.786 8.522-7.863 12.636-12.323 18.412 20.12 25.893 25.08 89.275 3.361 117.38 16.823-35.12 7.438-91.868-13.443-115.07-43.663 5.336-35.931-68.812 7.842-52.934-8.131 8.115-26.724 12.225-24.646 29.919 2.271 19.334 31.235 12.114 24.646-2.302-2.437-5.33-7.356-3.572-13.443-6.904 0.47-6.038 4.113-8.817 10.082-9.206 4.204 0.667 2.862 7.033 7.842 6.904 6.036 1.597 4.695-4.383 10.083-3.452 41.28 39.556 22.811 134.66-8.963 171.46z"/>
</svg>
