<?xml version="1.0" standalone="no"?>
<!DOCTYPE svg PUBLIC "-//W3C//DTD SVG 20010904//EN"
 "http://www.w3.org/TR/2001/REC-SVG-20010904/DTD/svg10.dtd">
<svg version="1.0" xmlns="http://www.w3.org/2000/svg"
 width="464.000000pt" height="464.000000pt" viewBox="0 0 464.000000 464.000000"
 preserveAspectRatio="xMidYMid meet">
<metadata>
Created by potrace 1.11, written by Peter Selinger 2001-2013
</metadata>
<g transform="translate(0.000000,464.000000) scale(0.100000,-0.100000)"
fill="#000000" stroke="none">
<path d="M0 2320 l0 -2320 489 0 c294 0 500 4 515 10 19 7 26 17 26 35 0 14 5
25 11 25 5 0 7 5 3 12 -5 8 -2 9 9 5 18 -7 24 17 7 28 -5 3 -7 11 -4 18 2 7
-13 26 -35 42 -30 23 -38 36 -36 55 2 14 4 28 4 32 1 4 14 22 31 40 l30 32
-25 14 c-14 7 -25 17 -25 23 0 8 38 28 65 33 6 1 16 5 22 9 27 17 130 36 196
37 40 0 56 3 51 11 -4 6 -20 9 -39 6 -45 -7 -121 3 -103 14 7 5 9 9 3 9 -16 0
-16 88 1 94 8 3 14 17 14 31 0 14 5 25 10 25 6 0 10 11 10 24 0 15 12 33 36
51 27 21 33 30 23 36 -12 7 -11 11 1 19 13 8 13 11 -2 22 -27 20 -10 34 80 62
45 14 94 33 107 42 l25 16 -50 49 -50 49 32 0 c22 0 29 3 20 9 -17 10 16 20
68 21 l35 1 -30 14 -30 13 50 2 c51 2 51 3 0 16 l-30 7 25 7 c22 7 20 8 -13 9
-21 1 -45 8 -53 16 -9 8 -30 16 -47 16 -78 3 53 18 161 18 73 1 111 5 107 11
-3 6 -31 10 -60 10 -30 0 -69 7 -87 14 -18 8 -60 19 -93 23 -51 7 -35 9 105
13 125 4 164 8 163 17 -2 10 31 13 140 14 118 1 136 3 107 12 -19 6 -72 11
-118 10 -110 -1 -94 20 18 26 84 3 102 16 58 40 -24 12 -98 11 -98 -1 0 -4
-17 -9 -37 -11 -35 -3 -34 -4 12 -7 l50 -3 -45 -8 c-62 -10 -152 -11 -146 0 3
5 -9 12 -27 17 -30 7 -28 8 28 14 53 6 46 7 -55 10 l-115 4 140 6 c77 3 188 5
248 4 85 -1 107 1 107 12 0 8 10 14 25 14 14 0 25 -5 25 -11 0 -8 21 -9 68 -5
37 3 166 8 287 11 121 2 324 7 450 10 127 3 259 2 295 -3 59 -9 50 -10 -90
-12 -85 -1 -182 -6 -215 -10 l-60 -7 74 -2 c64 -1 72 -3 61 -16 -7 -9 -29 -15
-53 -15 -22 0 -38 -2 -36 -4 9 -9 492 -36 652 -37 147 0 159 -2 126 -14 -24
-8 -118 -16 -270 -21 -129 -4 -223 -11 -209 -15 14 -4 124 -8 245 -10 220 -2
216 -5 -25 -19 l-35 -2 32 -11 c51 -19 48 -25 -14 -24 -86 2 -454 -21 -461
-28 -3 -3 138 -5 313 -5 176 1 334 -2 351 -5 19 -4 34 -3 38 4 4 6 31 12 59
12 29 1 44 3 35 6 -10 2 -18 9 -18 14 0 5 58 9 133 9 100 -1 137 -4 151 -15
11 -8 18 -17 15 -19 -2 -2 -53 -5 -114 -7 -60 -1 -115 -6 -121 -11 -6 -4 -46
-13 -90 -18 -180 -25 -189 -26 -173 -34 9 -4 63 -5 120 -2 296 16 418 17 650
7 139 -7 256 -16 259 -21 3 -4 14 -10 25 -13 11 -2 2 -2 -20 0 -62 7 -505 3
-550 -4 l-40 -7 30 -7 c17 -4 47 -7 68 -8 34 -1 37 -3 23 -16 -9 -10 -34 -15
-70 -15 -30 0 -66 -4 -81 -10 -14 -5 -49 -10 -78 -11 -69 -1 -95 -8 -76 -20
10 -6 8 -9 -8 -9 -13 0 -23 -4 -23 -10 0 -15 413 -13 428 2 9 9 12 9 12 0 0
-7 10 -12 22 -12 21 0 21 0 2 15 -17 13 -13 14 51 15 95 2 219 24 185 33 -43
12 -210 8 -210 -4 0 -7 -9 -9 -22 -5 -13 4 -43 9 -68 12 -53 7 -51 6 -40 24 7
12 27 12 137 2 95 -9 170 -10 291 -3 90 6 167 13 172 16 6 4 10 46 10 96 0 79
-2 89 -18 89 -10 0 -22 4 -27 9 -6 5 -19 11 -30 14 -13 3 -9 5 12 6 17 0 35
-3 38 -9 3 -5 10 -10 16 -10 5 0 9 383 9 1003 -1 883 -2 1000 -15 983 -8 -11
-15 -28 -15 -38 0 -11 -7 -18 -19 -18 -24 0 -30 8 -33 48 -1 19 -7 28 -14 25
-7 -2 -11 -13 -9 -24 5 -27 -12 -24 -20 4 -10 31 -95 117 -117 117 -9 0 -25
-8 -35 -18 -27 -28 -83 -65 -83 -55 0 5 -13 14 -30 20 -25 9 -30 9 -30 -3 0
-13 -3 -13 -21 0 -12 8 -28 12 -36 9 -11 -4 -14 0 -11 13 2 10 11 19 20 19 36
0 41 22 10 44 -22 15 -32 18 -35 9 -3 -8 -6 -6 -6 5 -1 10 -9 17 -22 17 -17 0
-20 -5 -17 -25 3 -14 1 -25 -3 -25 -5 0 -9 4 -9 9 0 11 -84 1 -88 -10 -2 -4
-15 -4 -29 2 -19 7 -28 6 -34 -2 -4 -6 -12 -8 -19 -4 -9 5 -11 4 -6 -4 11 -17
-3 -51 -20 -51 -8 0 -13 -4 -9 -9 3 -5 1 -12 -5 -16 -6 -3 -13 0 -15 8 -3 7
-16 12 -28 11 -12 -1 -25 -3 -29 -3 -4 -1 -5 -7 -2 -15 3 -8 1 -17 -4 -20 -5
-3 -13 4 -17 17 -6 19 -8 20 -12 4 -4 -14 -8 -16 -19 -6 -10 8 -18 8 -27 0
-10 -8 -17 -7 -25 1 -9 9 -12 8 -12 -4 0 -9 -8 -15 -17 -14 -12 1 -17 -5 -15
-16 2 -14 -3 -17 -28 -14 -16 2 -30 -1 -30 -5 0 -5 -9 -9 -20 -9 -11 0 -20 7
-20 15 0 29 -37 16 -54 -19 -9 -19 -16 -39 -16 -45 0 -6 -5 -11 -12 -11 -9 0
-9 -3 0 -12 7 -7 12 -20 12 -30 0 -10 5 -18 11 -18 5 0 7 -5 4 -10 -4 -6 -19
3 -35 21 -17 17 -34 27 -41 24 -8 -6 -7 -10 2 -17 10 -7 5 -8 -13 -4 -16 4
-28 2 -28 -4 0 -5 -7 -10 -15 -10 -8 0 -15 -4 -15 -8 0 -5 -18 -14 -41 -21
-22 -7 -43 -19 -46 -27 -3 -8 -9 -14 -15 -14 -5 0 -6 5 -3 10 3 6 2 10 -4 10
-5 0 -15 -8 -20 -17 -10 -17 -10 -17 -11 -1 0 18 -30 14 -30 -4 0 -5 5 -6 12
-2 7 4 8 3 4 -4 -4 -6 -13 -9 -21 -5 -8 3 -15 0 -15 -6 0 -9 -5 -9 -21 0 -12
6 -30 9 -40 6 -10 -3 -22 -1 -25 4 -7 11 -54 12 -54 1 0 -5 -21 -9 -47 -10
-79 -2 -83 -3 -83 -14 0 -6 -3 -8 -7 -5 -3 4 -12 -2 -20 -13 -8 -11 -25 -20
-39 -20 -28 0 -33 -16 -6 -23 13 -4 12 -5 -5 -6 -12 0 -24 3 -28 8 -3 5 -29 9
-58 8 -47 -2 -52 -4 -50 -24 2 -18 -4 -23 -31 -28 -46 -9 -108 -3 -124 13 -16
14 -42 16 -42 3 0 -5 10 -12 23 -14 12 -3 -15 -3 -60 0 -72 5 -83 3 -83 -11 0
-9 -7 -16 -15 -16 -9 0 -20 -10 -25 -22 -9 -23 -9 -23 -9 -1 -1 12 5 23 11 26
10 3 10 8 2 17 -9 9 -17 9 -32 1 -28 -15 -35 -14 -28 4 3 8 1 15 -4 15 -6 0
-10 -8 -10 -17 0 -14 -2 -15 -9 -4 -7 10 -13 11 -31 1 -12 -6 -25 -8 -28 -4
-4 4 -2 9 5 11 15 5 -36 56 -58 58 -9 1 -29 9 -43 19 -15 9 -35 16 -44 14 -10
-2 -24 8 -34 24 -18 29 -16 29 -143 34 -23 1 -52 5 -65 9 -21 6 -23 5 -12 -6
23 -24 12 -31 -17 -10 -16 12 -33 21 -38 21 -4 0 -17 12 -27 27 l-19 26 27 -7
c21 -5 27 -3 24 6 -3 7 -21 13 -42 13 -29 0 -33 2 -21 11 23 17 18 23 -25 30
-22 4 -40 10 -40 14 0 5 -13 11 -30 15 -16 4 -30 11 -30 16 0 5 -3 8 -7 7 -5
-1 -25 6 -45 15 -30 12 -38 22 -38 41 0 29 -16 35 -23 9 -3 -13 -6 -9 -12 12
-4 17 -16 40 -25 53 -12 15 -18 41 -19 79 0 47 -4 61 -23 76 -13 10 -17 16
-10 12 17 -9 32 35 20 58 -5 10 -10 35 -11 57 0 21 -5 36 -9 34 -4 -3 -10 7
-14 21 -3 14 -11 25 -18 25 -6 0 -4 5 4 10 13 8 13 11 1 19 -8 5 -11 16 -8 25
4 10 1 19 -8 22 -16 7 -9 33 14 51 14 11 14 12 -3 13 -12 0 -16 5 -12 15 3 8
0 15 -7 15 -18 0 -36 35 -30 58 3 14 -1 22 -14 26 -10 3 -27 20 -37 36 -15 26
-16 33 -4 47 11 15 10 16 -10 10 -18 -4 -22 -2 -18 10 4 10 2 13 -7 10 -7 -3
-21 1 -32 9 -10 8 -16 14 -12 14 4 0 -1 10 -13 22 -11 12 -21 30 -21 40 -1 10
-2 24 -3 31 -1 18 -22 37 -40 37 -9 0 -16 4 -16 9 0 11 29 23 40 16 5 -3 7 4
5 16 -3 13 -10 26 -16 30 -8 5 -7 8 2 12 10 4 8 6 -4 6 -10 1 -16 5 -12 10 3
5 1 12 -5 16 -5 3 -10 -2 -11 -12 0 -14 -2 -14 -9 5 -5 12 -15 22 -22 22 -9 0
-9 3 2 11 12 9 11 10 -7 6 -15 -3 -20 -1 -16 9 6 16 -13 19 -22 4 -3 -5 -12
-10 -18 -10 -8 0 -8 3 2 9 9 6 10 11 2 15 -6 4 -11 4 -11 -1 0 -4 -7 2 -15 14
-16 23 -40 24 -114 1 -35 -10 -45 -10 -48 0 -3 6 -11 12 -19 12 -9 0 -13 4 -9
9 3 5 1 12 -5 16 -5 3 -10 1 -10 -6 0 -8 -4 -8 -15 1 -17 14 -20 40 -4 40 5 0
8 -4 5 -8 -3 -5 14 -7 37 -6 l42 2 0 41 c0 23 3 41 8 41 4 0 -1 8 -10 19 -19
20 -34 22 -45 6 -4 -5 -11 -6 -15 -1 -4 4 0 14 11 21 17 13 18 15 1 31 -14 14
-21 15 -36 6 -16 -10 -22 -9 -38 7 -19 19 -36 20 -346 21 l-325 0 0 -2320z
m920 2060 c-8 -5 -22 -10 -30 -10 -13 0 -13 1 0 10 8 5 22 10 30 10 13 0 13
-1 0 -10z m-55 -20 c-3 -5 -16 -10 -28 -9 -21 0 -21 1 -2 9 28 12 37 12 30 0z
m-339 -125 c10 -8 15 -14 9 -14 -5 1 -23 -1 -39 -6 -20 -5 -31 -4 -36 6 -19
30 31 41 66 14z m3658 -904 c-4 -3 -9 -1 -11 5 -2 6 -16 10 -31 8 -27 -4 -27
-4 -2 5 25 8 57 -5 44 -18z m-209 -21 c3 -5 1 -10 -4 -10 -6 0 -11 5 -11 10 0
6 2 10 4 10 3 0 8 -4 11 -10z m-125 -60 c0 -5 -7 -10 -16 -10 -8 0 -12 5 -9
10 3 6 10 10 16 10 5 0 9 -4 9 -10z m148 -41 c-2 -21 -7 -29 -20 -29 -15 0
-17 3 -8 20 6 10 10 23 9 27 -3 17 1 24 11 18 6 -4 9 -20 8 -36z m-58 11 c0
-5 -4 -10 -10 -10 -5 0 -10 5 -10 10 0 6 5 10 10 10 6 0 10 -4 10 -10z m90 0
c0 -5 -2 -10 -4 -10 -3 0 -8 5 -11 10 -3 6 -1 10 4 10 6 0 11 -4 11 -10z m175
0 c-3 -5 -11 -10 -16 -10 -6 0 -7 5 -4 10 3 6 11 10 16 10 6 0 7 -4 4 -10z
m-138 -6 c-3 -3 -12 -4 -19 -1 -8 3 -5 6 6 6 11 1 17 -2 13 -5z m70 0 c-3 -3
-12 -4 -19 -1 -8 3 -5 6 6 6 11 1 17 -2 13 -5z m-111 -71 c-10 -26 -18 -8 -9
23 5 21 8 24 11 11 2 -10 1 -25 -2 -34z m334 -34 c0 -14 -29 -49 -31 -38 0 2
-2 11 -4 19 -2 8 -6 26 -8 40 -3 14 -10 24 -16 23 -5 -2 -8 4 -5 12 5 12 12 9
35 -13 16 -15 29 -34 29 -43z m165 51 c3 -5 2 -10 -4 -10 -5 0 -13 5 -16 10
-3 6 -2 10 4 10 5 0 13 -4 16 -10z m-640 -30 c3 -5 1 -10 -4 -10 -6 0 -11 5
-11 10 0 6 2 10 4 10 3 0 8 -4 11 -10z m90 0 c3 -5 1 -10 -4 -10 -6 0 -11 5
-11 10 0 6 2 10 4 10 3 0 8 -4 11 -10z m463 -32 c4 -34 -20 -43 -76 -29 -2 1
5 15 15 31 23 39 57 38 61 -2z m-419 -38 l1 -25 -13 25 c-7 14 -11 34 -8 44 4
20 4 20 12 0 4 -10 8 -30 8 -44z m471 56 c0 -3 -4 -8 -10 -11 -5 -3 -10 -1
-10 4 0 6 5 11 10 11 6 0 10 -2 10 -4z m-619 -34 c-7 -2 -18 1 -23 6 -8 8 -4
9 13 5 13 -4 18 -8 10 -11z m-112 -43 c17 -6 31 -15 31 -19 0 -12 -33 -7 -48
8 -8 7 -18 9 -24 6 -7 -4 -8 -2 -4 4 9 14 6 14 45 1z m78 -5 c-3 -3 -12 -4
-19 -1 -8 3 -5 6 6 6 11 1 17 -2 13 -5z m119 -19 c-11 -8 -27 -15 -35 -15 -9
1 -2 7 14 15 39 18 44 18 21 0z m-596 -15 c-12 -8 -12 -10 -1 -10 8 0 12 -2 9
-5 -3 -3 -13 -3 -22 1 -19 7 -11 24 12 24 15 0 15 -2 2 -10z m470 6 c0 -3 -4
-8 -10 -11 -5 -3 -10 -1 -10 4 0 6 5 11 10 11 6 0 10 -2 10 -4z m-2066 -25 c4
-5 -3 -7 -14 -4 -23 6 -26 13 -6 13 8 0 17 -4 20 -9z m1661 -1 c-3 -5 -10 -10
-16 -10 -5 0 -9 5 -9 10 0 6 7 10 16 10 8 0 12 -4 9 -10z m563 -5 c3 -3 -1 -5
-9 -6 -8 0 -26 -2 -41 -4 -16 -2 -28 1 -28 7 0 6 -9 1 -20 -12 -15 -18 -20
-19 -20 -7 0 24 30 37 74 31 22 -2 42 -6 44 -9z m-2875 -43 c-6 -15 -4 -15 10
-4 8 8 14 19 11 27 -3 7 -1 16 5 20 6 3 15 -5 21 -20 11 -29 30 -25 30 5 0 17
6 19 51 16 56 -4 76 -21 54 -46 -7 -8 -14 -18 -14 -23 -2 -19 -35 -57 -47 -53
-8 3 -14 1 -14 -4 0 -5 -9 -8 -20 -7 -13 1 -19 6 -15 15 3 7 0 10 -6 7 -6 -4
-8 -13 -5 -21 3 -7 1 -16 -5 -19 -5 -4 -7 -10 -4 -15 3 -5 -3 -14 -14 -19 -11
-6 -21 -7 -23 -2 -2 5 -14 11 -28 13 -17 2 -27 -3 -35 -19 -7 -13 -15 -20 -20
-15 -5 4 -5 2 -1 -5 3 -6 2 -14 -4 -18 -5 -3 -10 -11 -10 -16 0 -6 7 -3 16 5
22 22 23 21 14 -20 -7 -31 -5 -36 13 -44 l22 -9 -22 0 c-12 -1 -24 5 -27 12
-7 16 -38 -23 -32 -40 3 -7 1 -13 -5 -13 -6 0 -8 -4 -5 -9 4 -5 -3 -7 -14 -4
-15 4 -17 9 -11 21 6 10 5 24 -1 35 -7 14 -7 17 1 13 6 -4 11 0 11 11 0 11 5
24 12 31 6 6 9 15 5 18 -10 10 -39 -5 -32 -16 3 -6 -1 -13 -9 -16 -9 -3 -14
-10 -11 -14 3 -4 -2 -13 -10 -20 -13 -11 -14 -10 -9 5 5 13 4 16 -4 11 -25
-15 -11 17 19 45 17 16 26 29 20 29 -19 0 -12 37 13 67 27 32 49 73 44 79 -2
2 -18 4 -35 6 -18 1 -29 6 -27 10 3 5 15 7 27 6 12 -2 23 1 24 6 1 5 7 13 15
18 9 6 5 7 -11 3 -16 -5 -21 -4 -17 4 4 6 18 11 31 11 16 0 22 -5 20 -17 -1
-10 0 -12 2 -5 3 7 9 10 14 7 5 -3 6 2 2 11 -6 15 -4 15 20 -1 17 -11 24 -22
20 -33z m2204 2 c-40 -34 -54 -30 -15 5 18 16 35 27 38 24 3 -2 -8 -16 -23
-29z m-1305 9 c10 -50 0 -58 -72 -58 -37 0 -66 3 -63 8 2 4 17 7 33 7 21 0 36
9 52 30 24 34 45 39 50 13z m-488 -40 c-10 -7 -24 -11 -32 -8 -7 2 -11 1 -8
-4 3 -5 -1 -11 -9 -14 -8 -4 -16 2 -20 13 -9 27 2 40 30 40 13 0 27 5 31 11 4
8 10 6 17 -6 7 -14 5 -21 -9 -32z m95 33 c11 -8 13 -8 7 2 -6 10 -1 12 21 8
15 -2 28 -5 28 -6 0 -1 18 -4 39 -6 21 -3 47 -9 57 -15 12 -6 25 -6 37 0 11 6
24 6 33 1 7 -5 23 -7 34 -3 18 5 18 5 1 -12 -9 -10 -15 -24 -12 -31 3 -8 1
-14 -4 -14 -6 0 -10 -12 -10 -27 0 -22 -2 -25 -10 -13 -9 13 -14 8 -12 -12 1
-3 -5 -9 -14 -12 -8 -3 -12 -2 -9 4 3 6 0 10 -7 10 -7 0 1 9 17 20 17 11 25
20 20 20 -6 0 -17 -6 -24 -12 -10 -9 -15 -10 -18 -2 -2 6 -11 20 -19 30 -13
16 -13 15 0 -13 20 -39 2 -57 -24 -25 -10 12 -20 18 -24 15 -3 -3 2 -12 12
-20 16 -12 15 -13 -3 -6 -20 6 -20 6 -1 -15 11 -12 16 -25 12 -29 -4 -4 -11
-1 -16 7 -7 11 -9 10 -7 -7 0 -12 5 -19 9 -17 4 3 8 -2 8 -10 0 -9 -7 -16 -15
-16 -8 0 -15 -4 -15 -10 0 -5 -4 -10 -8 -10 -14 0 -34 102 -22 110 7 5 6 11
-4 20 -9 7 -13 16 -10 21 3 5 0 9 -5 9 -6 0 -11 -7 -11 -16 0 -8 -5 -12 -11
-9 -6 4 -8 14 -4 23 3 8 0 19 -7 24 -9 5 -7 8 7 8 16 0 14 3 -9 15 -16 9 -31
13 -34 10 -3 -3 -11 0 -19 6 -10 9 -13 8 -13 -1 0 -8 -3 -11 -6 -7 -22 22 37
34 65 13z m2316 4 c3 -5 1 -10 -4 -10 -6 0 -11 5 -11 10 0 6 2 10 4 10 3 0 8
-4 11 -10z m37 -22 c-7 -7 -12 -8 -12 -2 0 6 3 14 7 17 3 4 9 5 12 2 2 -3 -1
-11 -7 -17z m-728 -54 c-19 -44 -35 -62 -52 -56 -19 6 -15 21 16 57 38 46 55
45 36 -1z m-2608 -12 c-18 -18 -31 -10 -23 12 4 10 13 13 22 9 15 -5 15 -7 1
-21z m322 9 c-7 -9 -14 -18 -15 -20 -2 -2 -3 5 -3 16 0 11 7 20 15 20 12 0 12
-3 3 -16z m539 -6 c0 -8 -6 -15 -14 -15 -14 0 -17 12 -6 23 11 11 20 8 20 -8z
m-898 -25 c3 0 7 -12 8 -27 0 -16 -1 -20 -4 -10 -2 9 -8 17 -13 17 -10 0 -20
37 -11 45 3 4 7 0 9 -9 2 -9 7 -16 11 -16z m1474 11 c16 -2 5 -19 -15 -24 -13
-2 -32 -8 -42 -12 -19 -8 -19 -8 0 17 10 14 26 24 34 23 8 -2 18 -4 23 -4z
m634 -23 c-3 -8 -6 -5 -6 6 -1 11 2 17 5 13 3 -3 4 -12 1 -19z m53 -6 c-8 -3
-22 -15 -32 -26 -9 -12 -17 -16 -18 -9 0 18 41 53 54 46 6 -4 5 -8 -4 -11z
m1067 -50 c-9 -11 -12 -11 -17 4 -9 24 12 49 21 25 4 -9 2 -22 -4 -29z m-3264
23 c-3 -9 -8 -14 -10 -11 -3 3 -2 9 2 15 9 16 15 13 8 -4z m535 -10 c-3 -3 -9
2 -12 12 -6 14 -5 15 5 6 7 -7 10 -15 7 -18z m677 -12 c-2 -10 -4 -22 -4 -27
-1 -6 -6 -5 -13 2 -8 8 -8 15 2 27 16 19 19 19 15 -2z m35 8 c0 -6 -4 -13 -10
-16 -5 -3 -10 1 -10 9 0 9 5 16 10 16 6 0 10 -4 10 -9z m190 -1 c0 -5 -2 -10
-4 -10 -3 0 -8 5 -11 10 -3 6 -1 10 4 10 6 0 11 -4 11 -10z m744 -14 c-3 -9
-10 -13 -16 -10 -5 3 -4 12 3 20 15 18 22 13 13 -10z m-2171 -7 c-4 -15 -9
-17 -17 -9 -8 8 -7 13 4 20 8 5 16 10 17 10 0 0 -1 -9 -4 -21z m562 11 c3 -5
1 -10 -4 -10 -6 0 -11 5 -11 10 0 6 2 10 4 10 3 0 8 -4 11 -10z m913 -19 c6
-4 4 -12 -6 -21 -14 -13 -15 -12 -10 2 4 10 1 19 -8 22 -9 3 -12 11 -8 17 5 8
9 8 14 -1 4 -7 12 -15 18 -19z m309 -18 c-3 -10 -5 -4 -5 12 0 17 2 24 5 18 2
-7 2 -21 0 -30z m879 12 c-3 -8 -1 -15 5 -15 6 0 9 -5 7 -11 -6 -19 -22 -10
-25 16 -2 14 1 25 8 25 6 0 9 -7 5 -15z m-2141 -5 c-3 -5 -12 -10 -18 -10 -7
0 -6 4 3 10 19 12 23 12 15 0z m28 -10 c-3 -11 -9 -20 -15 -20 -5 0 -4 9 2 20
6 11 12 20 14 20 2 0 2 -9 -1 -20z m2807 16 c0 -3 -4 -8 -10 -11 -5 -3 -10 -1
-10 4 0 6 5 11 10 11 6 0 10 -2 10 -4z m-70 -36 c0 -22 -5 -30 -17 -30 -13 0
-14 3 -5 12 7 7 12 20 12 30 0 10 2 18 5 18 3 0 5 -13 5 -30z m-2130 -4 c0
-11 -19 -15 -25 -6 -3 5 1 10 9 10 9 0 16 -2 16 -4z m180 -27 c0 -5 -4 -9 -8
-9 -5 0 -9 7 -9 15 0 8 4 12 9 9 4 -3 8 -9 8 -15z m2009 4 c0 -11 -3 -13 -6
-5 -2 6 -10 9 -15 6 -7 -4 -8 -2 -4 4 11 18 26 14 25 -5z m-1879 -3 c0 -5 -2
-10 -4 -10 -3 0 -8 5 -11 10 -3 6 -1 10 4 10 6 0 11 -4 11 -10z m1400 6 c0 -3
-4 -8 -10 -11 -5 -3 -10 -1 -10 4 0 6 5 11 10 11 6 0 10 -2 10 -4z m-176 -65
c3 -53 -11 -40 -19 19 -5 34 -4 42 5 34 7 -7 13 -30 14 -53z m716 51 c0 -13
-12 -22 -22 -16 -10 6 -1 24 13 24 5 0 9 -4 9 -8z m-3074 -39 c-10 -10 -19 5
-10 18 6 11 8 11 12 0 2 -7 1 -15 -2 -18z m2954 17 c0 -5 -5 -10 -11 -10 -5 0
-7 5 -4 10 3 6 8 10 11 10 2 0 4 -4 4 -10z m-2383 -22 c-3 -8 -6 -5 -6 6 -1
11 2 17 5 13 3 -3 4 -12 1 -19z m-456 -31 c-10 -9 -11 -8 -5 6 3 10 9 15 12
12 3 -3 0 -11 -7 -18z m466 -9 c-3 -8 -6 -5 -6 6 -1 11 2 17 5 13 3 -3 4 -12
1 -19z m-567 -38 c0 -5 -5 -10 -11 -10 -5 0 -7 5 -4 10 3 6 8 10 11 10 2 0 4
-4 4 -10z m2370 -6 c0 -8 -5 -12 -10 -9 -6 4 -8 11 -5 16 9 14 15 11 15 -7z
m-23 -88 c-8 -10 -14 -11 -19 -3 -4 6 -2 15 5 19 17 11 28 -1 14 -16z m-1651
-18 c5 -7 2 -9 -7 -6 -10 4 -15 -1 -17 -15 -1 -14 2 -17 7 -9 5 9 11 5 19 -13
10 -21 9 -26 -8 -35 -25 -13 -51 -13 -28 1 17 9 17 12 2 34 -9 14 -14 32 -10
40 6 18 32 20 42 3z m1531 -10 c-3 -8 -6 -5 -6 6 -1 11 2 17 5 13 3 -3 4 -12
1 -19z m-1497 -18 c0 -5 7 -10 15 -10 10 0 15 -10 15 -31 0 -17 4 -28 10 -24
6 3 10 -1 10 -10 0 -9 -4 -14 -9 -11 -5 3 -12 -10 -15 -29 -4 -19 -11 -35 -16
-35 -11 0 -8 35 3 46 10 11 8 42 -3 46 -13 4 -31 68 -19 68 5 0 9 -4 9 -10z
m1512 -20 c-5 -32 -18 -41 -19 -12 0 14 14 42 21 42 2 0 1 -13 -2 -30z m-2110
-20 c-5 -33 -6 -33 -12 -10 -4 14 -2 31 3 38 14 18 15 12 9 -28z m78 0 c0 -5
-5 -10 -11 -10 -5 0 -7 5 -4 10 3 6 8 10 11 10 2 0 4 -4 4 -10z m2117 -22 c-3
-8 -6 -5 -6 6 -1 11 2 17 5 13 3 -3 4 -12 1 -19z m-2690 -10 c-3 -8 -6 -5 -6
6 -1 11 2 17 5 13 3 -3 4 -12 1 -19z m363 -2 c0 -2 -8 -10 -17 -17 -16 -13
-17 -12 -4 4 13 16 21 21 21 13z m700 0 c0 -3 -4 -8 -10 -11 -5 -3 -10 -1 -10
4 0 6 5 11 10 11 6 0 10 -2 10 -4z m120 -18 c0 -6 -6 -5 -15 2 -8 7 -15 14
-15 16 0 2 7 1 15 -2 8 -4 15 -11 15 -16z m47 -10 c-3 -8 -6 -5 -6 6 -1 11 2
17 5 13 3 -3 4 -12 1 -19z m1393 -18 c0 -16 -4 -30 -9 -30 -10 0 -22 40 -15
52 11 18 24 6 24 -22z m-2192 -19 c-8 -12 -17 -18 -21 -15 -3 3 2 14 11 25 21
24 28 16 10 -10z m842 15 c0 -3 -4 -8 -10 -11 -5 -3 -10 -1 -10 4 0 6 5 11 10
11 6 0 10 -2 10 -4z m-203 -38 c-3 -7 -5 -2 -5 12 0 14 2 19 5 13 2 -7 2 -19
0 -25z m223 -15 c0 -14 8 -32 18 -40 13 -10 13 -13 2 -11 -9 2 -15 -5 -16 -17
-1 -11 -2 -42 -3 -70 -1 -37 -4 -46 -11 -35 -6 8 -8 36 -4 61 l6 47 -29 -6
c-16 -2 -24 -1 -20 4 5 5 16 9 25 9 10 0 18 10 20 24 2 13 0 21 -5 18 -5 -3
-7 7 -5 23 5 35 22 30 22 -7z m32 -17 c-3 -5 -9 -1 -13 10 -12 31 -10 39 5 19
8 -11 12 -24 8 -29z m-749 14 c-3 -12 0 -20 6 -20 7 0 9 -4 6 -10 -3 -5 -1
-10 4 -10 6 0 11 -9 11 -20 0 -11 -5 -20 -11 -20 -6 0 -9 -6 -6 -13 3 -7 -2
-22 -10 -32 -12 -18 -14 -12 -12 55 1 41 3 78 6 83 8 14 11 7 6 -13z m2157
-16 c0 -8 -4 -12 -10 -9 -5 3 -10 10 -10 16 0 5 5 9 10 9 6 0 10 -7 10 -16z
m917 -91 c-2 -21 -4 -6 -4 32 0 39 2 55 4 38 2 -18 2 -50 0 -70z m-1016 -77
c5 -6 4 -15 -2 -23 -8 -8 -8 -13 -1 -13 22 0 4 -35 -19 -38 -17 -2 -20 0 -10
6 8 6 9 12 3 16 -10 6 -7 65 6 96 4 10 7 7 10 -10 2 -14 8 -29 13 -34z m-1515
-16 c2 -28 -1 -50 -6 -50 -12 0 -16 26 -11 73 4 51 14 39 17 -23z m1511 -86
c-3 -3 -12 -4 -19 -1 -8 3 -5 6 6 6 11 1 17 -2 13 -5z m-2144 -211 c-7 -2 -21
-2 -30 0 -10 3 -4 5 12 5 17 0 24 -2 18 -5z m-40 -20 c-7 -2 -21 -2 -30 0 -10
3 -4 5 12 5 17 0 24 -2 18 -5z m94 -30 c-20 -2 -52 -2 -70 0 -17 2 0 4 38 4
39 0 53 -2 32 -4z m123 -33 c-14 -4 -63 -8 -110 -8 -102 1 -52 12 60 14 49 1
66 -1 50 -6z m640 0 c-20 -13 -180 -13 -180 0 0 6 39 10 98 10 66 0 92 -3 82
-10z m-807 -42 c-15 -7 -30 -7 -50 0 -26 10 -24 10 22 11 42 0 46 -2 28 -11z
m97 2 l25 -8 -25 0 c-14 0 -36 4 -50 8 l-25 8 25 0 c14 0 36 -4 50 -8z m707
-26 c-7 -7 -199 -5 -206 2 -2 2 44 4 104 4 60 0 105 -3 102 -6z m816 -1 c-95
-2 -251 -2 -345 0 -95 1 -18 3 172 3 190 0 267 -2 173 -3z m-1463 -13 c-69
-11 -208 -12 -215 0 -4 7 39 10 127 9 96 -1 120 -4 88 -9z m545 -16 c-19 -15
-19 -16 10 -10 17 3 48 2 70 -3 l40 -7 -60 -9 c-57 -8 -58 -9 -25 -16 l35 -6
-45 -3 -45 -2 60 -9 c37 -6 137 -4 260 3 110 6 331 12 490 13 247 2 268 1 145
-6 -80 -4 -215 -13 -300 -20 -85 -6 -255 -10 -377 -8 -121 2 -216 1 -210 -3 6
-3 -3 -8 -19 -11 -21 -3 -15 -5 21 -7 l50 -3 -40 -7 -40 -7 48 -2 c27 0 46 -5
42 -10 -3 -5 3 -12 12 -15 10 -2 -16 -4 -57 -4 -41 1 -87 -2 -103 -7 -15 -4
-53 -4 -85 1 -31 4 -48 9 -37 11 43 9 51 16 26 22 l-25 7 23 21 c12 11 36 24
53 27 30 6 31 7 12 21 -17 13 -17 14 -1 15 25 0 21 21 -5 28 -21 6 -21 7 7 13
17 4 44 7 60 7 29 1 29 1 10 -14z m558 -1 c-7 -2 -21 -2 -30 0 -10 3 -4 5 12
5 17 0 24 -2 18 -5z m70 0 c-7 -2 -21 -2 -30 0 -10 3 -4 5 12 5 17 0 24 -2 18
-5z m285 0 c-38 -2 -98 -2 -135 0 -38 2 -7 3 67 3 74 0 105 -1 68 -3z m-1593
-23 l-30 -8 37 -1 c20 0 38 3 40 8 2 5 24 5 53 1 28 -5 70 -9 95 -10 42 -2 43
-2 16 -10 -16 -5 -33 -7 -38 -4 -5 3 -82 6 -171 6 -152 0 -159 1 -112 13 28 7
70 13 95 13 40 0 42 -1 15 -8z m1098 3 c-51 -2 -136 -2 -190 0 -54 1 -12 3 92
3 105 0 149 -2 98 -3z m935 -10 c-38 -2 -98 -2 -135 0 -38 2 -7 3 67 3 74 0
105 -1 68 -3z m-1863 -33 c-3 -5 -44 -10 -91 -10 -49 0 -84 -4 -84 -10 0 -6
-25 -9 -57 -9 -32 1 -49 3 -38 6 11 2 29 8 40 13 40 18 240 27 230 10z m-128
-26 c-3 -3 -12 -4 -19 -1 -8 3 -5 6 6 6 11 1 17 -2 13 -5z m1718 -4 c4 -7 -70
-10 -215 -10 -173 0 -228 -3 -256 -15 -30 -12 -72 -14 -263 -7 l-226 7 215 7
c118 4 260 12 315 16 146 13 423 14 430 2z m-1608 -7 c-20 -2 -52 -2 -70 0
-17 2 0 4 38 4 39 0 53 -2 32 -4z m38 -23 c17 -6 14 -9 -17 -15 -20 -4 -43 -3
-50 2 -7 4 -62 11 -123 14 l-110 6 140 1 c77 0 149 -3 160 -8z m200 0 c3 -5 1
-10 -4 -10 -6 0 -11 5 -11 10 0 6 2 10 4 10 3 0 8 -4 11 -10z m2063 -7 c-32
-2 -84 -2 -115 0 -32 2 -6 3 57 3 63 0 89 -1 58 -3z m-2333 -23 c-3 -6 -49
-10 -101 -10 -61 0 -93 4 -89 10 3 6 49 10 101 10 61 0 93 -4 89 -10z m-97
-27 c-15 -2 -42 -2 -60 0 -18 2 -6 4 27 4 33 0 48 -2 33 -4z m2635 -23 c-38
-9 -259 -15 -443 -12 -180 2 -194 5 -75 12 146 9 555 9 518 0z m-2543 -7 c-41
-2 -79 -8 -84 -13 -6 -6 -35 -9 -65 -8 -43 1 -47 2 -18 5 20 2 37 8 37 14 0 5
44 8 103 7 92 -2 95 -2 27 -5z m-12 -30 c-10 -2 -28 -2 -40 0 -13 2 -5 4 17 4
22 1 32 -1 23 -4z m-45 -110 c-7 -2 -21 -2 -30 0 -10 3 -4 5 12 5 17 0 24 -2
18 -5z m3482 -59 c-12 -12 -24 -14 -53 -8 l-37 8 35 6 c19 4 43 8 53 9 17 1
17 0 2 -15z m-98 -50 c-3 -3 -12 -4 -19 -1 -8 3 -5 6 6 6 11 1 17 -2 13 -5z"/>
<path d="M1223 2956 c2 -23 24 -33 24 -12 0 8 -4 13 -8 10 -4 -2 -10 2 -13 8
-3 7 -5 4 -3 -6z"/>
<path d="M1210 2905 c-7 -9 -11 -17 -9 -20 3 -2 10 5 17 15 14 24 10 26 -8 5z"/>
<path d="M1120 2895 c0 -8 2 -15 4 -15 2 0 6 7 10 15 3 8 1 15 -4 15 -6 0 -10
-7 -10 -15z"/>
<path d="M1225 2890 c-3 -5 -1 -10 4 -10 6 0 11 5 11 10 0 6 -2 10 -4 10 -3 0
-8 -4 -11 -10z"/>
<path d="M1060 2856 c0 -23 3 -26 25 -20 19 5 25 2 25 -11 0 -20 16 -11 30 18
11 22 11 22 -5 2 -17 -20 -17 -20 -10 3 4 15 2 22 -7 22 -7 0 -23 3 -35 6 -20
5 -23 2 -23 -20z"/>
<path d="M1007 2786 c-4 -10 -1 -13 9 -9 7 3 14 9 14 14 0 14 -17 10 -23 -5z"/>
<path d="M1011 2689 c-31 -33 -26 -48 6 -17 15 15 24 30 21 33 -3 4 -15 -4
-27 -16z"/>
<path d="M3200 2840 c-8 -5 -12 -11 -10 -14 3 -2 14 2 24 10 22 15 10 19 -14
4z"/>
<path d="M1808 1403 c7 -3 16 -2 19 1 4 3 -2 6 -13 5 -11 0 -14 -3 -6 -6z"/>
<path d="M1643 1393 c9 -2 25 -2 35 0 9 3 1 5 -18 5 -19 0 -27 -2 -17 -5z"/>
<path d="M3062 4632 c-9 -6 -5 -12 13 -22 23 -12 24 -15 11 -35 -14 -21 -13
-23 7 -34 21 -11 21 -11 -5 -8 -24 4 -25 2 -15 -20 5 -12 15 -23 20 -23 5 0 4
7 -3 15 -10 12 -10 15 3 15 8 0 18 -6 20 -12 4 -10 8 -10 15 0 5 8 12 13 16
13 19 -3 27 0 22 8 -3 5 2 12 11 16 10 3 19 2 21 -3 1 -5 16 -6 32 -4 18 3 30
0 30 -7 0 -6 -6 -11 -12 -12 -7 0 -2 -6 12 -12 14 -6 29 -16 33 -22 6 -7 10
-6 14 3 2 6 9 9 15 6 7 -4 2 -14 -12 -24 -12 -9 -21 -23 -18 -30 3 -10 10 -8
26 8 28 28 56 28 84 0 21 -21 21 -23 5 -26 -21 -4 -17 -27 4 -28 8 0 30 5 50
12 20 7 42 8 49 4 9 -6 6 -10 -11 -16 -13 -4 -27 -7 -31 -6 -5 1 -8 -2 -8 -7
0 -5 -8 -12 -18 -15 -10 -3 -18 -16 -19 -28 -2 -20 0 -21 10 -8 30 39 82 65
130 65 35 0 46 -3 42 -13 -3 -7 0 -10 5 -7 15 9 30 -4 24 -20 -4 -10 -14 -13
-30 -9 -20 5 -24 2 -24 -15 0 -12 -4 -21 -10 -21 -5 0 -10 5 -10 11 0 5 -5 7
-10 4 -7 -4 -6 -14 2 -28 7 -12 11 -25 10 -29 -1 -5 3 -8 9 -8 7 0 9 -10 7
-25 -4 -17 -1 -25 8 -25 8 0 14 -7 14 -16 0 -8 4 -13 8 -10 4 2 14 1 22 -4 9
-6 18 -3 27 8 12 16 13 16 7 0 -4 -11 2 -18 16 -23 22 -7 22 -7 -6 -26 -27
-17 -29 -17 -45 -1 -9 9 -14 21 -11 26 3 5 0 6 -5 3 -19 -12 -69 16 -65 36 5
25 -7 21 -18 -5 -5 -14 -9 -17 -9 -8 -1 9 -10 23 -21 33 -19 16 -20 16 -20 -4
0 -11 -7 -27 -15 -35 -10 -10 -15 -11 -15 -3 0 9 -4 8 -15 -1 -18 -15 -20 1
-3 18 9 9 9 15 -1 25 -11 10 -12 9 -6 -1 6 -11 3 -11 -14 0 -18 11 -23 11 -30
-1 -7 -11 -12 -8 -26 12 -9 14 -24 28 -33 32 -11 4 -9 -2 7 -19 14 -14 21 -29
17 -33 -4 -4 -11 -1 -16 7 -8 13 -10 12 -10 -2 0 -10 -6 -18 -14 -18 -9 0 -13
-7 -11 -19 2 -13 -1 -18 -13 -16 -9 2 -17 4 -17 5 0 1 -8 3 -18 5 -9 2 -15 -1
-11 -6 3 -5 0 -9 -7 -9 -10 0 -10 -3 -1 -12 17 -17 15 -24 -8 -24 -12 0 -20 7
-20 18 0 9 -4 20 -10 23 -5 3 -10 -3 -10 -15 0 -12 -4 -18 -10 -15 -5 3 -10
-1 -10 -10 0 -11 -6 -15 -18 -11 -11 4 -19 1 -19 -6 0 -7 -4 -22 -8 -33 -5
-16 -5 -17 4 -5 7 10 11 11 11 3 0 -7 6 -13 13 -13 17 0 38 -36 31 -55 -7 -18
-18 -19 -44 -5 -11 6 -17 16 -14 24 3 7 -2 19 -11 26 -8 7 -15 18 -15 26 0 7
-4 16 -10 19 -5 3 -7 0 -4 -8 3 -8 0 -18 -5 -22 -15 -9 -3 -27 12 -19 9 5 9 4
0 -6 -14 -15 -36 -3 -29 15 7 19 -5 27 -22 13 -12 -11 -14 -8 -8 19 4 17 3 34
-2 37 -6 3 -8 -3 -5 -14 4 -15 1 -19 -9 -15 -8 3 -21 -2 -28 -12 -12 -15 -12
-16 0 -5 8 6 19 12 25 12 5 -1 0 -9 -13 -20 -13 -11 -18 -21 -12 -25 5 -3 10
-1 10 6 0 8 6 6 18 -4 10 -10 22 -14 26 -10 4 4 4 -1 0 -11 -5 -13 -4 -17 4
-12 7 4 10 2 7 -6 -9 -24 19 -46 80 -63 33 -9 67 -16 75 -16 8 0 25 -5 37 -11
23 -11 29 -10 153 22 24 6 38 5 45 -2 7 -8 5 -9 -7 -5 -10 4 -18 2 -18 -3 0
-9 8 -12 26 -9 4 0 10 -3 13 -8 3 -5 19 -17 35 -27 22 -14 25 -20 16 -29 -10
-9 -14 -9 -17 1 -3 9 -12 5 -28 -13 -30 -31 -31 -31 -39 1 -4 15 -10 24 -13
20 -3 -3 -12 2 -20 12 -13 16 -14 15 -10 -5 3 -13 1 -23 -4 -23 -5 0 -9 4 -9
9 0 5 -12 8 -26 6 -14 -1 -31 3 -37 9 -6 7 -23 10 -39 8 -21 -3 -28 0 -28 12
0 9 -5 16 -10 16 -7 0 -7 -7 1 -21 8 -15 8 -24 0 -32 -6 -6 -11 -7 -11 -3 0 5
-7 3 -15 -4 -13 -11 -17 -8 -28 19 -13 35 -23 40 -23 11 0 -11 4 -20 9 -20 4
0 5 -5 1 -11 -4 -8 -9 -7 -15 2 -5 8 -9 11 -9 6 0 -4 -12 1 -27 10 -15 10 -24
12 -20 6 5 -8 3 -13 -4 -13 -8 0 -7 -5 2 -17 13 -15 12 -15 -11 -3 -23 12 -24
12 -11 -4 12 -14 12 -18 -5 -31 -18 -13 -17 -14 13 -10 24 2 30 0 26 -10 -5
-14 13 -14 48 0 10 3 20 1 25 -6 5 -9 2 -10 -9 -6 -11 4 -17 1 -17 -8 0 -7 -5
-17 -12 -21 -7 -4 -8 -3 -4 4 4 7 1 12 -8 12 -15 0 -12 -29 3 -31 3 0 16 -2
28 -5 12 -2 25 1 28 6 3 6 1 10 -6 10 -10 0 -10 3 -2 11 9 9 18 8 36 -4 19
-12 27 -13 36 -4 9 9 13 7 17 -10 6 -20 8 -21 45 -8 21 8 39 12 39 10 0 -3 11
0 25 5 44 17 75 19 75 7 0 -8 3 -8 8 -2 11 16 44 18 53 4 6 -10 12 -9 28 5 12
11 21 16 21 13 0 -3 14 -2 30 3 23 7 30 5 30 -6 0 -8 9 -14 21 -14 11 0 32 -9
46 -20 32 -25 45 -25 67 -1 10 11 24 17 31 15 7 -3 16 3 19 13 3 10 20 26 37
36 22 12 30 23 26 36 -3 15 2 20 26 25 17 3 33 3 36 -1 3 -5 33 -8 66 -7 60 1
95 -17 95 -47 0 -6 7 -9 15 -6 10 5 16 -4 21 -29 4 -20 13 -38 20 -41 8 -3 11
-10 8 -15 -4 -6 0 -14 7 -19 9 -5 10 -9 2 -9 -6 0 -9 -8 -6 -19 2 -10 -3 -26
-13 -35 -12 -13 -13 -17 -3 -16 28 4 38 0 33 -14 -8 -21 27 -29 42 -9 12 17
13 16 14 -6 0 -20 2 -21 15 -11 12 10 15 10 15 -1 0 -8 12 -22 26 -33 21 -15
28 -16 35 -5 6 11 9 10 15 -4 8 -21 24 -12 24 14 0 24 17 25 25 0 4 -13 12
-17 27 -13 16 4 19 2 12 -9 -5 -8 -9 -26 -10 -42 -1 -22 1 -25 12 -16 8 6 14
7 14 2 0 -5 14 -8 30 -5 23 3 29 1 25 -10 -4 -9 3 -19 17 -26 13 -6 17 -11 10
-11 -7 -1 0 -13 15 -28 27 -27 60 -89 52 -98 -3 -2 -17 -5 -32 -7 -15 -2 -26
-8 -25 -14 3 -10 21 -10 57 2 17 5 22 4 17 -4 -5 -8 0 -9 16 -3 l23 8 3 687 2
686 -195 0 c-133 -1 -195 -4 -195 -12 0 -7 -5 -6 -15 2 -13 11 -14 8 -8 -20 5
-26 3 -32 -8 -28 -8 3 -13 15 -11 31 l3 26 -354 1 c-312 0 -356 -1 -367 -15
-12 -14 -15 -14 -22 -2 -11 20 -228 24 -228 5 0 -9 -3 -9 -12 0 -14 14 -146
16 -166 4z m103 -30 c-8 -8 -25 10 -19 20 4 6 9 5 15 -3 4 -7 6 -15 4 -17z
m1100 8 c-10 -11 -20 -18 -23 -15 -7 6 18 35 31 35 5 0 2 -9 -8 -20z m362 -25
c2 -20 -2 -35 -8 -35 -6 0 -8 9 -4 21 5 15 4 19 -5 14 -9 -6 -9 -3 -1 14 7 11
13 21 14 21 1 0 3 -16 4 -35z m-276 -9 c-7 -9 -8 -17 -2 -20 5 -3 7 -15 4 -26
-6 -21 -6 -21 -20 0 -13 19 -13 23 3 41 20 22 32 26 15 5z m-108 -20 c3 -8 -1
-17 -9 -20 -9 -3 -12 -1 -9 4 3 6 1 10 -5 10 -6 0 -8 5 -5 10 9 14 22 12 28
-4z m207 -46 c0 -5 -4 -12 -10 -15 -15 -9 -12 -28 4 -22 8 3 16 -2 19 -15 3
-11 10 -17 16 -13 7 3 8 0 5 -9 -3 -9 -10 -14 -14 -11 -5 3 -10 -1 -13 -7 -5
-17 -37 8 -37 28 0 8 -6 14 -13 14 -15 0 -47 35 -47 51 0 6 9 9 19 6 10 -2 25
-1 31 3 15 9 40 2 40 -10z m-1066 -19 c4 -5 -3 -7 -14 -4 -23 6 -26 13 -6 13
8 0 17 -4 20 -9z m316 -53 c0 -5 -9 -4 -20 2 -11 6 -18 15 -14 21 6 11 34 -7
34 -23z m77 -49 c-3 -11 -1 -21 3 -24 10 -6 -11 -55 -24 -55 -4 0 -5 7 -2 16
4 11 2 15 -8 11 -7 -3 -26 1 -41 9 -24 12 -26 12 -21 -1 7 -19 -8 -19 -23 -1
-17 20 4 59 27 52 9 -3 28 1 41 8 31 17 54 9 48 -15z m123 -49 c0 -5 -7 -10
-16 -10 -8 0 -12 5 -9 10 3 6 10 10 16 10 5 0 9 -4 9 -10z m-98 -22 c-7 -7
-12 -8 -12 -2 0 6 3 14 7 17 3 4 9 5 12 2 2 -3 -1 -11 -7 -17z m-107 -18 c3
-5 1 -10 -4 -10 -6 0 -11 5 -11 10 0 6 2 10 4 10 3 0 8 -4 11 -10z m295 6 c0
-11 -19 -15 -25 -6 -3 5 1 10 9 10 9 0 16 -2 16 -4z m-375 -26 c3 -5 2 -10 -4
-10 -5 0 -13 5 -16 10 -3 6 -2 10 4 10 5 0 13 -4 16 -10z m-340 -138 c-3 -3
-11 0 -18 7 -9 10 -8 11 6 5 10 -3 15 -9 12 -12z m555 -6 c0 -2 -7 -7 -16 -10
-8 -3 -12 -2 -9 4 6 10 25 14 25 6z m111 -43 c21 -10 39 -20 39 -23 0 -10 -55
-30 -58 -21 -2 6 -9 8 -15 5 -8 -3 -12 7 -12 26 0 35 -2 35 46 13z m126 -55
c-16 -10 -49 -10 -66 1 -10 7 0 9 31 8 25 -1 41 -5 35 -9z m203 2 c0 -5 -8
-10 -17 -10 -15 0 -16 2 -3 10 19 12 20 12 20 0z m180 -5 c-27 -14 -36 -13
-25 4 3 6 16 11 28 11 21 -1 21 -1 -3 -15z m-428 -45 l-24 -20 27 -10 c33 -13
45 -13 45 0 0 18 63 41 108 40 34 -1 42 -4 38 -17 -6 -15 10 -18 19 -3 7 11
52 -3 47 -15 -2 -4 2 -11 9 -15 9 -6 9 -12 -4 -24 -8 -9 -22 -16 -29 -16 -10
0 -9 -3 2 -10 16 -10 13 -11 -32 -14 -25 -1 -37 -26 -13 -26 15 0 15 -3 5 -15
-7 -9 -19 -14 -26 -11 -7 3 -16 1 -19 -5 -10 -16 -23 0 -18 22 5 17 2 19 -20
14 -21 -6 -33 1 -69 37 -24 24 -55 50 -71 58 -29 14 -32 35 -4 35 8 0 19 4 23
8 4 4 12 7 18 7 6 -1 0 -9 -12 -20z m-781 -8 c-7 -2 -18 1 -23 6 -8 8 -4 9 13
5 13 -4 18 -8 10 -11z m1150 -25 c-13 -13 -26 -3 -16 12 3 6 11 8 17 5 6 -4 6
-10 -1 -17z m-1136 -17 c7 -12 -12 -12 -40 0 -18 8 -17 9 7 9 15 1 30 -3 33
-9z m655 -5 c0 -19 -12 -26 -25 -15 -7 6 -23 7 -36 2 -13 -4 -31 -7 -39 -6 -8
1 -25 2 -37 3 -13 0 -23 7 -23 14 0 8 23 12 80 13 54 0 80 -4 80 -11z m40 5
c0 -5 -8 -10 -17 -10 -15 0 -16 2 -3 10 19 12 20 12 20 0z m-453 -26 c-3 -3
-12 -4 -19 -1 -8 3 -5 6 6 6 11 1 17 -2 13 -5z m43 -25 c0 -5 -9 -9 -20 -9
-22 0 -27 16 -7 23 15 5 27 -1 27 -14z m800 1 c0 -5 -5 -10 -11 -10 -5 0 -7 5
-4 10 3 6 8 10 11 10 2 0 4 -4 4 -10z m-755 -10 c-3 -5 -11 -10 -16 -10 -6 0
-7 5 -4 10 3 6 11 10 16 10 6 0 7 -4 4 -10z m675 -20 c0 -5 -5 -10 -11 -10 -5
0 -7 5 -4 10 3 6 8 10 11 10 2 0 4 -4 4 -10z m-65 -60 c5 -8 12 -7 23 2 13 11
14 11 7 -2 -7 -12 -6 -13 6 -4 28 21 55 14 74 -21 10 -19 21 -32 25 -30 5 3
10 -1 13 -9 3 -8 -2 -17 -11 -21 -9 -3 -18 -2 -20 3 -1 5 -10 18 -18 28 -15
18 -15 18 -11 -8 3 -19 0 -25 -10 -21 -7 3 -13 0 -13 -6 0 -6 -11 -11 -25 -11
-20 0 -26 7 -35 40 -6 21 -15 42 -20 45 -13 8 -13 25 -1 25 6 0 13 -5 16 -10z
m-885 -54 c0 -3 -4 -8 -10 -11 -5 -3 -10 -1 -10 4 0 6 5 11 10 11 6 0 10 -2
10 -4z"/>
<path d="M3179 4498 c-6 -21 -5 -38 2 -38 5 0 9 5 9 11 0 5 6 7 13 3 8 -5 8
-2 -2 9 -12 16 -20 21 -22 15z"/>
<path d="M1467 4363 c-4 -3 -7 -15 -7 -25 0 -15 3 -16 19 -6 10 6 17 18 14 25
-6 14 -16 17 -26 6z"/>
<path d="M1700 4361 c0 -6 5 -13 10 -16 6 -3 10 1 10 9 0 9 -4 16 -10 16 -5 0
-10 -4 -10 -9z"/>
<path d="M1260 4329 c0 -18 2 -19 15 -9 15 12 12 30 -6 30 -5 0 -9 -10 -9 -21z"/>
<path d="M1560 4330 c0 -17 2 -19 14 -8 14 13 12 28 -5 28 -5 0 -9 -9 -9 -20z"/>
<path d="M3348 4343 c7 -3 16 -2 19 1 4 3 -2 6 -13 5 -11 0 -14 -3 -6 -6z"/>
<path d="M2000 4280 c0 -13 5 -18 14 -14 8 3 12 12 9 20 -8 21 -23 17 -23 -6z"/>
<path d="M3455 4270 c4 -6 1 -17 -5 -25 -10 -12 -9 -15 3 -15 16 0 30 26 21
41 -3 5 -10 9 -15 9 -6 0 -7 -5 -4 -10z"/>
<path d="M1600 4221 c-7 -15 -7 -21 0 -21 12 0 25 28 17 36 -3 3 -10 -4 -17
-15z"/>
<path d="M3270 4198 c0 -19 2 -20 10 -8 13 19 13 30 0 30 -5 0 -10 -10 -10
-22z"/>
<path d="M3147 4159 c7 -7 15 -10 18 -7 3 3 -2 9 -12 12 -14 6 -15 5 -6 -5z"/>
<path d="M2370 4105 c0 -8 2 -15 4 -15 2 0 6 7 10 15 3 8 1 15 -4 15 -6 0 -10
-7 -10 -15z"/>
<path d="M2975 4110 c-3 -6 1 -7 9 -4 18 7 21 14 7 14 -6 0 -13 -4 -16 -10z"/>
<path d="M2590 4035 c0 -8 2 -15 4 -15 2 0 6 7 10 15 3 8 1 15 -4 15 -6 0 -10
-7 -10 -15z"/>
<path d="M2991 4031 c-9 -6 -10 -11 -2 -15 6 -4 11 -2 11 4 0 6 5 8 12 4 7 -4
8 -3 4 4 -8 14 -7 14 -25 3z"/>
<path d="M2866 3885 c-9 -34 -4 -40 11 -16 6 10 8 23 3 30 -5 9 -10 4 -14 -14z"/>
<path d="M3110 3886 c0 -8 5 -18 10 -21 6 -3 10 1 10 9 0 8 -4 18 -10 21 -5 3
-10 -1 -10 -9z"/>
<path d="M3880 3300 c0 -5 5 -10 10 -10 6 0 10 5 10 10 0 6 -4 10 -10 10 -5 0
-10 -4 -10 -10z"/>
<path d="M3130 3020 c0 -5 5 -10 10 -10 6 0 10 5 10 10 0 6 -4 10 -10 10 -5 0
-10 -4 -10 -10z"/>
<path d="M1975 1350 c-4 -7 99 -10 302 -9 189 1 291 5 263 10 -67 11 -558 11
-565 -1z"/>
<path d="M1985 1321 c-3 -6 -5 -11 -3 -11 90 -7 238 -7 223 -1 -33 14 -212 23
-220 12z"/>
<path d="M2413 1303 c9 -2 23 -2 30 0 6 3 -1 5 -18 5 -16 0 -22 -2 -12 -5z"/>
<path d="M2908 1273 c17 -2 47 -2 65 0 17 2 3 4 -33 4 -36 0 -50 -2 -32 -4z"/>
<path d="M2030 1260 c14 -4 59 -8 100 -8 41 0 86 4 100 8 15 5 -23 8 -100 8
-77 0 -115 -3 -100 -8z"/>
<path d="M4525 1011 l-70 -6 85 -11 c61 -8 73 -12 42 -13 -26 0 -41 -5 -37
-11 4 -6 -16 -10 -52 -11 -32 0 -67 -4 -78 -9 l-20 -9 20 -1 c19 0 18 -2 -5
-19 l-25 -19 25 -6 c14 -2 43 -7 64 -10 22 -3 44 -12 48 -21 5 -8 18 -15 28
-15 10 0 21 -4 25 -9 7 -12 -39 -19 -233 -36 -57 -5 -102 -16 -102 -24 0 -4 9
-16 20 -26 26 -24 25 -33 -5 -41 -14 -3 -22 -11 -19 -16 4 -5 14 -8 24 -5 10
2 24 0 31 -5 10 -6 1 -8 -26 -5 -49 5 -130 -8 -210 -35 -74 -25 -115 -25 -163
-2 -54 26 -118 35 -147 22 -23 -10 -21 -12 48 -47 40 -20 75 -36 80 -37 4 -1
12 -2 17 -3 6 0 10 -6 10 -11 0 -13 -112 -2 -121 12 -7 11 8 11 -319 2 -279
-7 -416 -22 -222 -23 61 -1 102 -5 102 -11 0 -5 -12 -10 -27 -11 -16 0 -79 -2
-141 -4 -166 -4 -171 -29 -7 -34 55 -2 67 -8 45 -21 -20 -13 1 -46 26 -42 16
2 17 1 4 -7 -8 -6 -23 -11 -32 -11 -29 0 -21 -20 12 -31 35 -13 32 -24 -7 -34
-16 -3 -42 -17 -60 -31 -17 -13 -36 -24 -42 -24 -10 0 -31 -32 -31 -47 1 -35
16 -38 257 -40 140 -2 260 2 291 8 61 12 73 7 49 -19 -20 -22 -22 -43 -5 -60
6 -6 9 -14 6 -18 -4 -3 -53 -10 -110 -15 -132 -11 -166 -24 -159 -62 1 -5 -3
-6 -8 -2 -11 6 -61 -22 -61 -34 0 -4 21 -8 46 -8 33 -1 52 5 65 18 10 10 15
19 10 19 -5 0 -14 -7 -21 -15 -7 -8 -17 -15 -22 -15 -6 0 -6 6 1 14 14 17 75
40 66 26 -4 -6 8 -10 27 -10 l33 -1 -27 -15 c-16 -8 -28 -17 -28 -19 0 -3 259
-5 575 -5 l575 0 0 510 0 510 -22 -2 c-13 -1 -54 -4 -93 -7z m-165 -267 c0 -2
-9 -4 -20 -4 -11 0 -20 4 -20 9 0 5 9 7 20 4 11 -3 20 -7 20 -9z m20 -54 c0
-5 -8 -10 -17 -10 -15 0 -16 2 -3 10 19 12 20 12 20 0z m-155 -40 c4 -6 -12
-10 -42 -10 -35 0 -44 3 -33 10 20 13 67 13 75 0z m-60 -19 c30 -7 30 -7 7
-19 -17 -10 -31 -10 -65 -1 -35 10 -39 13 -22 20 23 9 39 9 80 0z m-52 -45
c38 -15 48 -43 28 -75 -14 -22 -185 -34 -221 -16 -52 27 -47 45 23 77 15 7 27
19 27 27 0 18 89 10 143 -13z m107 -5 c0 -16 -28 -20 -40 -5 -10 12 -8 14 14
14 14 0 26 -4 26 -9z m-544 -24 c-17 -12 -80 -58 -101 -75 -6 -5 -19 -14 -30
-20 -18 -10 -17 -12 15 -13 53 -3 -102 -16 -207 -18 l-92 -1 1 30 c1 17 4 30
7 31 3 0 15 2 26 4 11 2 40 7 64 10 32 5 40 10 32 18 -6 6 -11 16 -11 21 0 6
4 5 9 -3 9 -15 86 -7 97 10 3 5 29 9 57 9 l52 0 -25 -20 -25 -20 27 0 c15 0
33 8 40 18 15 21 34 30 63 31 19 0 19 -1 1 -12z m564 -47 c12 -8 10 -10 -10
-11 -22 -1 -21 -2 8 -10 34 -10 39 -18 20 -37 -9 -9 -9 -12 1 -12 9 0 4 -12
-13 -34 -22 -29 -23 -36 -11 -46 8 -7 15 -19 15 -26 0 -8 8 -14 18 -14 9 -1
32 -13 50 -29 l33 -28 -61 -2 c-74 -2 -134 22 -127 50 3 12 -2 20 -13 24 -9 3
-25 14 -35 24 -16 18 -16 20 3 30 20 11 37 53 33 84 -2 11 5 17 18 17 12 0 21
7 21 15 0 17 27 20 50 5z m-990 -24 c0 -3 -4 -8 -10 -11 -5 -3 -10 -1 -10 4 0
6 5 11 10 11 6 0 10 -2 10 -4z m210 -130 c-14 -13 -45 -20 -79 -17 -11 1 -11
4 -1 16 7 9 29 15 53 15 36 0 39 -2 27 -14z m-11 -47 c41 -15 39 -25 -6 -33
-53 -8 -153 -8 -153 2 0 11 72 41 101 41 14 1 40 -4 58 -10z m308 -75 c-3 -3
-12 -4 -19 -1 -8 3 -5 6 6 6 11 1 17 -2 13 -5z m-30 -130 c-3 -3 -12 -4 -19
-1 -8 3 -5 6 6 6 11 1 17 -2 13 -5z"/>
<path d="M3354 464 c-18 -15 -18 -15 6 -10 14 3 29 6 33 6 5 0 5 5 2 10 -9 14
-18 13 -41 -6z"/>
<path d="M4285 910 c-15 -6 -7 -9 28 -9 26 -1 47 3 47 7 0 11 -49 12 -75 2z"/>
<path d="M4168 873 c6 -2 18 -2 25 0 6 3 1 5 -13 5 -14 0 -19 -2 -12 -5z"/>
<path d="M3488 731 c-297 -6 -401 -20 -167 -22 74 -1 150 -3 169 -4 216 -12
443 -4 455 15 5 9 -84 21 -135 18 -19 -1 -164 -4 -322 -7z"/>
<path d="M2985 520 c-7 -12 2 -12 30 0 19 8 19 9 -2 9 -12 1 -25 -3 -28 -9z"/>
<path d="M3070 455 c0 -17 18 -19 38 -6 11 7 10 10 -3 15 -26 10 -35 7 -35 -9z"/>
<path d="M3130 455 c0 -8 5 -15 10 -15 6 0 10 7 10 15 0 8 -4 15 -10 15 -5 0
-10 -7 -10 -15z"/>
<path d="M3053 353 c-13 -2 -23 -9 -23 -14 0 -6 5 -7 12 -3 7 4 8 3 4 -4 -4
-6 -12 -9 -19 -7 -19 7 -41 -11 -34 -30 5 -11 15 -15 34 -12 39 7 63 18 63 28
0 4 7 6 15 3 8 -4 17 1 21 10 3 9 9 14 13 12 3 -2 12 2 19 10 11 12 5 14 -35
13 -26 -1 -58 -4 -70 -6z"/>
<path d="M2955 244 l-50 -12 78 -1 c43 -1 76 3 73 8 -10 15 -49 17 -101 5z"/>
<path d="M2838 223 c12 -2 30 -2 40 0 9 3 -1 5 -23 4 -22 0 -30 -2 -17 -4z"/>
<path d="M3259 24 c-9 -11 -7 -14 12 -13 27 0 70 16 54 20 -36 7 -56 5 -66 -7z"/>
</g>
</svg>
