<?xml version="1.0" encoding="UTF-8"?>
<svg width="22.222in" height="16.667in" version="1.1" viewBox="0 0 4000 3000" xmlns="http://www.w3.org/2000/svg">
 <defs>
  <marker id="b" overflow="visible" orient="auto">
   <path transform="scale(.8) translate(12.5)" d="m0 0l5-5-17.5 5 17.5 5-5-5z" fill="#333" fill-rule="evenodd"/>
  </marker>
  <linearGradient id="a" x1="2294.5" x2="2312.1" y1="1818.4" y2="1044.1" gradientUnits="userSpaceOnUse">
   <stop stop-color="#b3b3b3" offset="0"/>
   <stop stop-color="#1a1a1a" offset="1"/>
  </linearGradient>
 </defs>
 <path transform="matrix(2 0 0 2 0 -.0045166)" d="m1658.4 802.23c-5.3702 1.2618-9.9524 1.4505-15.126 3.4282-4.1983 2.2635-6.9244 6.6623-9.5395 10.528-0.6337 0.70284-0.6781 2.0807 0.5094 2.1163 6.2171 2.0018 12.062 4.1609 18.374 5.8432 5.8645 0.69817 12.051 3.0568 16.617 6.816 8.6154 7.0591 13.558 17.198 17.731 27.319 7.2495 18.451 10.195 38.108 11.259 57.817 0.3826 7.2228-4.3674 43.47-4.5428 50.697 0.969-0.033 2.3275 0.0295 3.8609 0.0497 1.2668-10.87 2.0925-30.938 2.9658-38.654 0.8732-7.7156 1.0882-15.346 1.7562-22.146 0.6681-6.8001 1.1704-12.681 1.3811-16.72 0.2105-11.467 0.3512-22.832-0.2587-34.289-1.1723-12.488-2.8193-25.367-8.4226-36.754-3.3501-6.5874-9.2326-13.15-16.759-14.712-5.536-1.5359-10.483-2.194-16.181-2.0903l-1.5625-0.187z" fill="#1a1a1a"/>
 <path transform="matrix(2 0 0 2 0 -.0045166)" d="m1631.5 820.28c-0.5599 0.59598-0.9661 1.7286-1.3647 2.4436-4.1133 8.8794-7.0165 18.292-9.4987 27.737-1.1155 4.3793-2.2874 10.981-3.1879 15.409 0.036 0.21069 2.4513-2.2171 1.6308-2.5792 3.4859-9.4408 7.4455-18.75 13.631-26.754 3.2139-4.1175 7.0272-7.5444 11.719-9.9433 0.6619-0.4113 1.6494-1.0523 2.2736-1.4869-3.5685-1.1927-7.0261-2.4737-10.622-3.5911-1.1739-0.35001-3.4052-0.89873-4.5812-1.2354z" fill="#333"/>
 <path transform="matrix(2 0 0 2 0 -.0045166)" d="m1602.4 975.13c-0.057 5.6311 3.9274 6.5158-3.6345 5.2634-24.224 4.4538-54.092 7.3585-77.909 13.116-0.459 6.6638-16.769 9.4078-16.769 9.4078s3.4352 12.047 3.0273 15.498c38.733 2.1915 86.717 6.101 125.21 7.4937-14.432-16.496-25.334-33.577-27.211-71.252-0.2051-6.837-3.152 15.441-2.7115 20.473z" fill="#333" marker-start="url(#b)" stroke-width="3"/>
 <path d="m1281 2172c-1 22-1 16 0 31 23 1 44 3 70 5 31-5 514-66 546-70 12-35-1-462 192-466 41 0 37 0 77 1 106 1 138 184 101 431 110-16 419-63 447-69 1 7 2 12 2 15 28-3 305.83-48.707 322.83-50.707 1-4-0.8284-5.2929 0.1716-14.293 19-3 141-20 161-25 7-22 24-343 94-353 26-5 32-9 65-2 85 24 40 273 35 328 35-7 202-33 234-40 34-13 132-59 158-80 16-13 13.75-44.75 13.75-75.75-11.23-0.24-5.75-0.75-15.75-0.25 29-249 26-589 5-720-11-57-38-64-91-72s-2222-291-2372-311c-152-47-402-41-526-36s-375 25-483 78c-40 19-51 62-58 129s-7 78-9 109c2 30 0 38 0 65-3 27-46 556-51 591-6 10-4 10-9 20-0.8 19.9-5.86 291.93-6 323-4 1.25-7.5 3-16 7 0 0 8.6688 6.4029 23.403 10.031 15.492 3.815 15.467 1.594 47.504 5.8682 126.27 16.847 346.14 44.086 346.14 44.086l164.91 20.76s117.65 16.534 175.89 23.015c113.27 12.604 170.28 12.394 351.26 10.287 1.1322 49.383-3.7107 143.22-3.7107 143.22z" fill="#f9f9f9" stroke="#000" stroke-width="6"/>
 <path transform="matrix(2 0 0 2 0 -.0045166)" d="m86.881 959.57c-4.5343 1.2405 5.6313 2.6902 7.2742 3.5836 11.899 3.0703 24.044 3.8169 36.146 5.7534 85.995 11.233 171.6 21.363 257.6 32.57 47.278 6.1758 101.57 13.926 149.31 15.226 3.4517-0.046 39.006 0.092 40.947 0.2246-21.639-1.4753-95.816-5.9302-117.31-8.8262-28.914-4.3835-58.52-7.2972-87.519-11.121-86.81-10.993-171.39-22.075-258.19-33.12-7.8799-1.1584-16.556-3.3674-23.993-6.1878z" fill="#333"/>
 <path transform="matrix(2 0 0 2 0 -.0045166)" d="m1664.4 793.98c-7.8037 0.0311-15.715 1.1632-23.186 3.4858-5.9055 2.7043-10.353 8.1916-13.873 13.456-8.5981 14.238-14.956 30.207-19.107 46.2-8.3008 33.631-10.408 67.229-11.592 101.78-0.216 6.5719-2.1947 15.738-4.7743 21.755 1.6825-0.45562 7.065-0.74737 8.4425-1.64 3.0574-22.789 3.9784-44.483 7.2381-67.25 3.774-25.995 7.8784-53.823 16.284-78.79 3.6949-9.999 7.4042-20.431 15.917-27.36 5.087-3.686 11.858-3.7948 17.783-5.2086 6.3319-0.68599 12.493-0.56451 18.771 0.63595 6.08 0.93613 11.87 4.6521 15.926 9.3152 6.1238 7.945 1.9973-1.2671 1.1755-2.2511-3.8042-5.6458-8.7025-12.904-16.055-13.61-3.9341-0.55565-8.986-0.50809-12.95-0.51237z" fill="#1a1a1a"/>
 <path transform="matrix(2 0 0 2 0 -.0045166)" d="m77.447 914.22c0.14333 5.3575-0.33674 12.721 0.53988 20.236 5.8753 2.2425 7.6045 2.3413 12.414 2.749-0.2321-4.1771 0.7537-12.704 0.74799-21.937-4.8808-0.10797-9.3781-1.547-13.702-1.0483z" fill="#ff7f2a" stroke-width="3"/>
 <path transform="matrix(2 0 0 2 0 -.0045166)" d="m1402.1 529.86c-8.3802 1.0348-8.622 16.5-8.793 22.461 0 0-0.028 37.31 1.502 34.767 4.862-37.595 7.4858-32.157 24.367-31.687 23.937 2.043 44.927 5.0718 71.845 6.4162 5.1377 3.7517 0.5963 10.423 1.5181 15.92-2.2979 54.59-1.0714 107.77-1.9813 161.65 0.8302 5.1065-4.738 7.7128-9.8169 6.9404-29.622 1.6516-57.926 0.86937-87.525 2.9872-1.2179 7.1961-3.3757 14.099 4.7102 11.927 31.529-0.92809 90.349-1.9469 121.87-3.1064 3.0742-71.434 0.3076-143.94 3.6875-215.36-34.671-2.5316-86.701-10.574-121.38-12.912z" fill="#333" stroke-width="3"/>
 <path transform="matrix(2 0 0 2 0 -.0045166)" d="m1891.8 870.01c-4.5366 0.11891-6.488 0.34989-10.702 1.6697-0.8301 12.369 0.2494 24.52-1.3737 36.824-0.375 1.3643-1.8531 4.8561-1.3699 5.7418 4.9925-2.9073 11.357-5.9448 15.286-10.281 4.9587-6.795 4.5071-13.793 4.8117-21.76 0.059-3.1526-0.07-8.9927-0.012-12.145-1.0468 4e-3 -2.4687-0.3035-3.5155-0.2994z" fill="#333" stroke-width="3"/>
 <path d="m168 1921c23 10 24 9 43 12s705 90 748 95 265 17 317 7c4 52 0 93-3 143-61 5-172 2-238-2s-815-118-832-121-31-11-36-27 1-80 1-107z" fill="#333" stroke="#000" stroke-width="6"/>
 <path d="m380 1987c-1 26-7 50-4 74 28 3 44 5 70 10 1-27-1-52 1-76-19-2-44-6-67-8z" fill="#1a1a1a" stroke="#000" stroke-width="6"/>
 <path d="m692 2025c-1 23-3 52-3 81 26 4 52 9 89 13 2-31-1-62-4-85-24-4-58-8-82-9z" fill="none" stroke="#000" stroke-width="6"/>
 <path d="m1166 2085c0 17-3 22-3 35s2 18 13 18 27 1 37 1 16-9 16-19v-31c0-8-2-14-14-14s-23-1-32-1-17 1-17 11z" fill="#e6e6e6" stroke="#000" stroke-width="6"/>
 <path d="m924 2058c-1 15-3 43-4 59s144 26 162 22 14-11 16-23 2-24 2-31-4-10-23-14-112-12-153-13z" fill="none" stroke="#000" stroke-width="6"/>
 <path d="m927 2015c5.6478-84.759 17-158 25-201 30 2 220 16 254 14 23-1 27 9 32 22 8 25 1.5965 89.297-7 181-91.95-0.5942-177.84-3.2083-304-16z" fill="#333" stroke="#000" stroke-width="6"/>
 <path d="m1304 961c9 604-20 1150-23 1210 81-5 488-52 534-60 0-238 44-571 22-1117-44-3-504-35-533-33z" fill="#333" stroke="#000" stroke-width="6"/>
 <path d="m1817 991c0 46-17 839-31 1119" fill="none" stroke="#000" stroke-width="6"/>
 <path d="m1559 975c0 64-20 1033-20 1168" fill="none" stroke="#000" stroke-width="6"/>
 <path d="m188 1735c32 3 60 6 88 9 1 43 13.5 160 18.5 189l-42.181-4.2451s-21.064-1.5463-40.767-6.3665c-15.499-3.7916-29.453-9.902-29.453-9.902z" fill="#333" stroke="#000" stroke-width="6"/>
 <path d="m276 1580c-7 14-6 12-9 23 1 24 5 114 7 139 33 2 639 67 679 71 3-20 17-137.5 22-157.5 5-13 4-9.5 7-21.5" fill="none" stroke="#000" stroke-width="6"/>
 <path d="m1838 1560s920-33 949-34c-3-34 0-422-1-439-1-11 5-24 22-22s205 17 220 18 20 16 20 28-4.364 342.29-5.364 405.29l730.36-22.293c1-21 6.75-406.25 1.75-426.25-19-4-679.25-70.5-695.25-72.5-0.75-3.25-2.25-6-6.25-6.5s-291.75-32-301.5-30.75c0 3.25-1 3-1.25 5.25-6.75-0.75-854-83-864.5-83.5-0.75-4.25-1.5-2.5-2.75-6.5-34.75-4.5-579.25-58.5-602.75-56.25-0.5 13.25-1.5 131.25-0.5 143.5 2 0.25 0.25 0.5 4.5 0.5l533.03 31.956s1.72 122.23 3.424 188.35c1.6511 64.057 0.9388 200.66 0.9388 200.66z" fill="#333" stroke="#000" stroke-width="6"/>
 <path d="m2159 947c24 1 287 26 309 28-1 28 3 511 3 532-20 0-294 11-311 11" fill="#1a1a1a" stroke="#000" stroke-width="6"/>
 <path d="m2468 974c26 2 265 24 288 25 2 33 4 469 6 496-34 2-267 11-289 12" fill="#1a1a1a" stroke="#000" stroke-width="6"/>
 <path d="m3031 1950c-22 5-243 37-265 40 1-33 20-426 21-464 22 0 195-8 214-8s22-3 42-1z" fill="none" stroke="#000" stroke-width="6"/>
 <path d="m3086 1029c2 28-1 111-1 145 43 3 324 19 351 19v-131c-29-2-298-28-350-33z" fill="url(#a)" stroke="#000" stroke-width="6"/>
 <path d="m3463 1065c0 24-2.75 106-2 129 35 2 268 17 289 19 0-26 0-94-2-120-30-2-263-27-285-28z" fill="url(#a)" stroke="#000" stroke-width="6"/>
 <path d="m3071 1199c1 20-2 262 4 294 31 0 667-17 689-18 0-27-1.25-213.25-2.25-242-25-2-656.75-33-690.75-34z" fill="#1a1a1a" stroke="#000" stroke-width="6"/>
 <path d="m3271 1048c0 23-2 118-3 136" fill="none" stroke="#000" stroke-width="6"/>
 <path d="m3609 1079c-1 21-4 107-4 123" fill="none" stroke="#000" stroke-width="6"/>
 <path d="m3073 1398c29 0 667 1 690 1" fill="none" stroke="#000" stroke-width="6"/>
 <path d="m3085 1397.8c0-23 2-165.84 2-175.84 0-6.25 2.25-10 8.5-10 9 0 333.5 15.75 343.5 15.75 7.5-0.25 9 2.75 9 9.25 0 8-3 178-3 160" fill="url(#a)" stroke="#000" stroke-width="6"/>
 <path d="m3461 1398.1v-159.9c0-5 5-8.75 9-8.75s268.75 14.25 273.75 14.25 8.25 3.25 8.25 9.25v145" fill="url(#a)" stroke="#000" stroke-width="6"/>
 <path d="m201.99 1570.2c25 2 765.01 62.828 790.01 62.828l215 13c37-1 66-17 68-53s3-641 0-663-33-44-74-42-898.05 21-921.05 22c-11.5 0.5-28.033 5.2432-28.336 24.48-0.33318 21.162-1.4671 50.769-2.0277 61.007" fill="#333" stroke="#000" stroke-width="6"/>
 <path d="m287 1874c2 17 7 19 22 21s603 71 622 72" fill="none" stroke="#000" stroke-width="6"/>
 <path d="m183.75 1913c8.25 3.25 26.5 10 47.5 13s700.75 88 733.75 93 288.75 18.25 311 16" fill="none" stroke="#000" stroke-width="6"/>
 <path d="m1036 1837c0 20-2 48 0 65 20 2 65 7 79 7 1-20 2-52 3-66-20 0-65-5-82-6z" fill="#e6e6e6" stroke="#000" stroke-width="6"/>
 <path d="m1035 1931c18 1 60 6 77 8 2 18-1 47 1 65-17-1-62-7-79-8-3-27 0-46 1-65z" fill="#e6e6e6" stroke="#000" stroke-width="6"/>
 <path d="m199 1833c0 18-3 52-2 64 16 1 54.5 5.75 66.5 6.75 0.5-21.75 3.5-56.75-2.5-64.75-19-1-49-4-62-6z" fill="#ccc" stroke="#000" stroke-width="6"/>
 <path d="m202.25 1748.5c-0.25 7.5-2.25 53.25-1.75 61.25 8.25 1.25 56.25 5.75 63 6.25 0.75-11.75 0.75-51.25-1.25-60.5-9.5-0.5-51.5-5.75-60-7z" fill="#e6e6e6" stroke="#000" stroke-width="6"/>
 <path d="m305 870c21-1 855-23 872-23s20-22 19-43 1-85-3-103c-11-45-23-52-55-56-301-27-655 1-787 38-36 10-47 31-50 54s-9 95-10 110-7 24 14 23z" fill="#333" stroke="#000" stroke-width="6"/>
 <path d="m209 1494c458.25 33.357 710 51 1035 65-2-33-1-584-5-605s-12-33-38-33-886 11-908 13c-40 1-36.94 61.072-46.232 95.061-13.78 158.12-23.565 251.31-37.768 464.94z" fill="url(#a)" stroke="#000" stroke-width="6"/>
 <path d="m701 928c-35 106-66 345-83 593" fill="none" stroke="#000" stroke-width="6"/>
 <path d="m1395 642c5.5-4.5 5.5-4.5 10.5-8 8.5-1.5 118-16 139-18.5s438.5-18 463-19 97 4.5 121.5 7.5 639.5 100.5 657.5 103.5c25.5 4 38.5 9.5 51 26 9 13 18.5 35 23 43 9 0.5 5 1.5 10.5 2 0 6 0.5 45 0.5 54" fill="#f9f9f9" stroke="#000" stroke-width="6"/>
 <path d="m2786.5 1496.5c9.5 0.5 175-5 183.5-5s12-5 11.5-14 4-333 4-341.5-6-14.5-12.5-14.5-156-12.5-164.5-12.5-13.5 5.5-14 14.5-7 137.5-7.5 151.5" fill="url(#a)" stroke="#000" stroke-width="6"/>
 <path d="m2270 2101.2c-5.0625-0.6875 12.92-107.42 12.042-160.45-0.7408-44.743-0.6171-153.38-29.123-203.29-28.506-49.912-42.829-75.44-170.73-66.711-46.651 3.1842-64.565 22.534-75.763 33.288-37.32 35.836 125.15 226.47 167.83 385.49" fill="#1a1a1a" stroke="#000" stroke-width="6"/>
 <path d="m2057 2255c170-3 157-531 42-530-124 7-210 531-42 530z" fill="#333" stroke="#000" stroke-width="6"/>
 <path d="m3302 1651c116-2 135 396-12 403-124 3.5-83-390 12-403z" fill="#333" stroke="#000" stroke-width="6"/>
 <path d="m3302 1651c15 3-24.389-8.486-39-13" fill="none" stroke="#000" stroke-width="6"/>
 <path d="m1150.2 1865.5c-4 26-5.75 104-3.75 121 0.75 9.75 73 9.5 74.75 2 3-17 7.5-109 3.5-119-2.5-6.75-5.5-5.5-11.75-7s-62-1.5-62.75 3z" fill="#ff7f2a" stroke="#000" stroke-width="6"/>
 <path transform="matrix(2 0 0 2 0 -.0045166)" d="m574.79 993.48c6.9048 2.1344 9.6886 2.2558 18.323 2.3253 1.8259-4.3535 1.5712-18.557-0.10345-22.844-3.8972-1.2155-12.909-2.3712-18.543-1.485-0.52694 6.4358-0.31471 12.604 0.32355 22.004z" fill="#ccc" stroke-width="3"/>
 <path d="m1145.5 1940.2c7.25-0.25 38 3.25 42.5 3.75 0 6 0.25 44.5 0.25 49" fill="none" stroke="#000" stroke-width="6"/>
 <path d="m184.75 1761c-6.25 0-18.5-0.5-23-0.5s-8.75 4.25-9.25 9-1.5 94.25 0.75 99.5 1.75 2.25 5.25 3.25 21.5 5.25 25.5 6" fill="#ccc" stroke="#000" stroke-width="6"/>
 <path d="m151.75 1826.2c5.25 1.25 28.25 3 33.5 3.25" fill="none" stroke="#000" stroke-width="6"/>
 <path d="m179.75 1964.8c-0.25 4.75-1.5 31.5-1.5 35.75 0 1 54.75 6.5 54.5 5.75 0-8.25 0.75-30.25 0.5-35-0.25-4-53.25-11.25-53.5-6.5z" fill="#ccc" stroke="#000" stroke-width="6"/>
 <path d="m1098.5 2080.5c0-6.25-85-13-85.5-5.5s-1.5 31.75-1.5 37.25 85.5 14.25 86 9.25" fill="#ccc" stroke="#000" stroke-width="6"/>
 <path d="m2057 2254.8c-46 1-214-14.75-243-16.75-24 0-38-112-33-85 29.1-3.9353 97.484-11.553 119.22-17.944 0.4345-26.772 2.9899-71.781 5.0503-95.284 1.8523-21.129 4.3512-37.44 6.2034-57.879 1.8792-20.735 3.9038-35.76 7.5503-56.366 4.0329-22.79 5.6788-30.389 9.9288-51.226 4.1821-20.504 10.887-41.891 17.741-61.859 6.7937-19.793 16.964-42.108 26.422-60.774s21.738-31.691 34.885-46.668c18 3 70 14.5 90 19 0 0-27.917 8.7292-39.125 21.844-14.411 16.861-29.417 33.229-53.125 91.844-8.3169 20.562-16.417 43.729-21.125 67.344-4.337 21.752-9.9167 40.729-13.125 62.844-3.1845 21.951-5.0292 36.721-6.625 58.844-2.2083 30.614 0.083 106.23 5.375 128.34 2.5809 10.786 7.0901 29.387 14.184 45.534 7.0938 16.147 16.772 29.84 25.691 36.809 23.139 18.08 46.875 17.344 46.875 17.344z" fill="#333" stroke="#000" stroke-width="6"/>
 <path d="m3289 2055c40 0-246-16-269-17-9-2-8.2929-18.586-13.293-33.586 11.475-1.9289 21.303-3.636 31.253-5.9792 0-11-6.0104-35.789-7.0104-48.789" fill="none" stroke="#000" stroke-width="6"/>
 <path d="m1325 959v-84c29 2 558 47 576 50 2-18 6-60 6-45" fill="none" stroke="#000" stroke-width="6"/>
 <path d="m2842 1025c14 1 149 13 162 14s13 28-1 27-141-8-160-10-15-32-1-31z" fill="none" stroke="#000" stroke-width="6"/>
 <path d="m2323.5 1894c0 11 0.5 29.5 0 39.5 11-0.5 17.5-2.5 27.5-3 0-11.5 0-27.5-0.5-38-8.5-0.5-17.5 1.5-27 1.5z" fill="#ccc" stroke="#000" stroke-width="6"/>
 <path d="m2321 1966c0 6-1 14-1 19.5 7-1.5 11-1 18.5-2.5-0.5-6.5 1-12.5 0.5-18.5-6.5 0.5-14 0.5-18 1.5z" fill="#c87137" stroke="#000" stroke-width="6"/>
 <path d="m3060 1875c0 7.5-0.5 11.5-1 18.5 5.5-1 8 0.5 15-1.5 0.5-6 0.5-13 0.5-19.5-8 1.5-10 0.5-14.5 2.5z" fill="#c87137" stroke="#000" stroke-width="6"/>
 <path d="m3246 1859c-3 165 106 150 112 0 11-170-104-178-112 0z" fill="#ccc" stroke="#000" stroke-width="6"/>
 <path d="m3280.2 1742.8c35 35 30.5 162.75-12.5 215.75" fill="none" stroke="#000" stroke-width="6"/>
 <path d="m2147.5 1990c-10 198-144.5 239-145.5 15 21-242 147.5-221 145.5-15z" fill="#b3b3b3" stroke="#000" stroke-width="6"/>
 <path d="m2045 2002c-1 134.5 98 122 102-12 1.5-122-92.5-145.5-102 12z" fill="#ccc" stroke="#000" stroke-width="6"/>
 <path d="m1863 2018c1 11-0.5 15.5-0.5 26.5 11.5-0.5 16.5-3 25-3 1-11 1.5-15.5 1.5-25.5-10-0.5-17.5 1.5-26 2z" fill="#c87137" stroke="#000" stroke-width="6"/>
 <path d="m2281.7 1930.1c0.1691-58.184-4.3605-109.38-12.906-140.02-9.4854-34.01-19.313-67.772-45.964-93.172-18.693-17.816-33.614-22.403-53.096-23.284-38.79-1.7553-72.679-4.8874-110.25 2.9289-19.567 4.0708-37.554 13.785-50.939 28.627-90.937 100.84-94.812 246.92-109.58 430.09-9.3824 2.9428-23.483 4.2574-23.483 4.2574-4 14 12.5-27.5 12.5-39.5 21-418 121-436 196-444 57-3 72-2 85-2 61 2 89 63 109 174 6 37 19.75 213.25-11 276.75 9.0829-73.708 14.546-116.25 14.716-174.68z" fill="#1a1a1a" stroke="#000" stroke-width="6"/>
 <path d="m3661 1621c0 15-2 56-3 71 25-2 63-6 82-8 1-16 3-55 3-68-17 1-59.703 3.4552-82 5z" fill="none" stroke="#000" stroke-width="6"/>
 <path d="m1151 826c1-18 11-129 11-147-15 1-77 1-103 0-3 24-10 131-10 149 21-1 83-1 102-2z" fill="#06f" stroke="#000" stroke-width="6"/>
 <path d="m332 716c-1 14-9 124-9 135 11-2 47-1 74-4 0-18 6-120 7-135-15 0-60 3-72 4z" fill="#2a7fff" stroke="#000" stroke-width="6"/>
 <path d="m427 688c-1 18-10 148-10 161 19-1 583-19 602-18 0-21 12-149 12-167 2-26-604 13-604 24z" fill="#1a1a1a" stroke="#000" stroke-width="6"/>
 <path d="m1824 1904c15-1 69-6 82-8" fill="none" stroke="#000" stroke-width="6"/>
 <path d="m2281 1859c30-3 473-50 493-53" fill="none" stroke="#000" stroke-width="6"/>
 <path d="m2459 1840c-1 26-10 180-10 193s-5 31-9 45" fill="none" stroke="#000" stroke-width="6"/>
 <path d="m2752 1807c0 17-9 171-11 186s-4 28-9 40c-6.25 0.75-10.25 0.5-18.25 2" fill="none" stroke="#000" stroke-width="6"/>
 <path d="m2765.8 1989.8c-0.25 7-7 32.75-9.5 39-4.75 1.25-20 3.5-24.25 4.25" fill="none" stroke="#000" stroke-width="6"/>
 <path d="m3039.5 1782c-6.5 0.25 174-16 166.5-15" fill="none" stroke="#000" stroke-width="6"/>
 <path transform="matrix(2 0 0 2 0 -.0045166)" d="m1706.7 876.32c-0.3872 29.897-4.5144 58.699-8.1187 88.324 0.9259-0.0487 2.8068-0.11072 2.8068-0.11072 2.0544-11.734 2.8339-24.983 3.8198-36.842 1.1545-16.951 2.3001-33.304 2.2856-50.302-0.025-1.4347-0.8398-10.515-0.9218-11.947-0.015 0.95833 0.055 7.8863 0.04 8.8447z" fill="#333"/>
 <path d="m3180.5 1964.2c9.5-18.25 11.5-32.75 12-49 2.5-141.75 39.5-313.75 95-324.75 26-5 50-7 70.5-2.5s39.5 35 46.5 75.5c2.5 16 14.5 77.5 13 94.5 0.5 30.5-7.5 153.5-13 172" fill="none" stroke="#000" stroke-width="6"/>
 <path d="m3417.5 1745.5c21-2.5 208.5-19.5 221.5-21.5 0 16-6.5 129-6.5 137.5s-4.5 25-9 33" fill="none" stroke="#000" stroke-width="6"/>
 <path d="m3420.5 1926.5c3-9 8-18 8.5-28s11.5-147.5 12-156" fill="none" stroke="#000" stroke-width="6"/>
 <path d="m3648 1500.5c0 13.5-8 214-8 223.5" fill="none" stroke="#000" stroke-width="6"/>
 <path d="m3770 1495.5c0 10.5-12 300-12 308.5s-2.5 21-6 29.5" fill="none" stroke="#000" stroke-width="6"/>
 <path d="m3784 1737c10.5-2.5-13 3-24 5.5" fill="none" stroke="#000" stroke-width="6"/>
 <path d="m3644.5 1598c17-0.5 113.5-6 121-7" fill="none" stroke="#000" stroke-width="6"/>
 <path d="m2324.5 1674.5c-0.5 10.75-2.5 68-2.75 75 11.75-0.5 37.25-1.5 44-1.75 0.5-9.5 0-67.25-0.25-73.5-6.5 0.5-31.25-1.25-41 0.25z" fill="none" stroke="#000" stroke-width="6"/>
 <path d="m3804.3 1357.2c5.25 0-17.841 0-22.841 0.25 0 6-1.25 81.5-1.25 87.5 5.5-0.5 20-0.25 23.5-0.25" fill="none" stroke="#000" stroke-width="6"/>
 <path d="m640 1081c-19 73-49 330-53 397" fill="none" stroke="#000" stroke-width="6"/>
 <path d="m643 1482c1-29 23-356 30-398" fill="none" stroke="#000" stroke-width="6"/>
 <path d="m377 1504c16-25 77-112 96-137 26-22 81-78 97-93 22 1 25 1 37 0-24 16-90 76-104 88-10 16-92 130-101 143" fill="none" stroke="#000" stroke-width="6"/>
 <path d="m795 1533c12 20-74.5-121.5-98-156-13.5-29-34-74-40-84" fill="none" stroke="#000" stroke-width="6"/>
 <path d="m1869.5 1622.5c0 8 1-16 0.5-31.5 9 0 101-4 108-4 0.5 13.5-1 76.5-1 85.5-8.5 0-100 5-109.5 5.5z" fill="#fff" stroke="#fff" stroke-width="6"/>
 <path d="m3080.5 1545.5c0 10-1.5 54.75-1.5 64.25 19-1.25 52.5-3.75 68-4.75 0.5-12.5 1.5-54.5 1-62-9.5 1.5-50 1.5-67.5 2.5z" fill="#fff" stroke="#fff" stroke-width="6"/>
 <path d="m3014 1087c0 19-14 413-14 433s-12 415-13 431c-18 3-204 28-216 29" fill="none" stroke="#000" stroke-width="6"/>
 <path d="m2382.8 1862.5c7-1 38.5-3.75 44.5-3.75s11 11 11 19-3.25 58.25-3.25 65.25-4 16-10 17-39.5 5.5-46.5 5.5-13.5-6.5-13.5-15.5 4-55.75 4-65.75 6.75-20.75 13.75-21.75z" fill="none" stroke="#000" stroke-width="6"/>
 <path d="m3149.5 1793.8c5.75-0.5 19.5-2.75 26.5-1.75 13.5 1.5 10.75 14 1 16-6 1-22 2-27.25 2-10 0.25-8.25-15.25-0.25-16.25z" fill="none" stroke="#000" stroke-width="6"/>
 <path d="m448 884c14 0 60-1 71-1" fill="none" stroke="#000" stroke-width="6"/>
 <path d="m877 875c15 0 63-3 76-2" fill="none" stroke="#000" stroke-width="6"/>
 <path d="m3490 1556c22-2 67-5 80-6" fill="none" stroke="#000" stroke-width="6"/>
 <path d="m3079.5 1859c-3 0.5-5.5-3.75-6.25-7.25s-0.75-30.5-1-34.5 1-14.5 6-15 19-2 22.5-2.25 5 2.5 5 5.75-1.25 36.25-2 40-1.75 10.25-6.5 11.25z" fill="none" stroke="#000" stroke-width="6"/>
 <path d="m169.5 1956.5c15.75-0.75 66.25 7.25 73.25 9.75s16 13 16.5 20-0.25 25.75-0.5 33.5-1 17.25-8.75 17c-17.25-0.5-73.25-16-84-22.5" fill="none" stroke="#000" stroke-width="6"/>
 <path d="m1815 2111c-2 18-3 23-6 35" fill="none" stroke="#000" stroke-width="6"/>
 <path d="m656 1266c9 19 48 92 55 104s95 150 106 165" fill="none" stroke="#000" stroke-width="6"/>
 <path d="m3393.8 1933.2c-3 0.25-4 0.25-6.75 0.5" fill="none" stroke="#000" stroke-width="6"/>
 <path d="m1579 2019c20-3 130-16 152-19 2-25 30-947 30-976-24 0-138-10-157-10-1 26-22 969-25 1005z" fill="url(#a)" stroke="#000" stroke-width="6"/>
 <path d="m1344 996c0 23-26 1027-27 1052 33-5 150-17 177-22 1-31 23-998 23-1017-20-1-152-12-173-13z" fill="url(#a)" stroke="#000" stroke-width="6"/>
 <path d="m2040.5 726.5c0.5 20 2.5-46 2.5-55.5 7-9 38.5-46.5 46-53s24-16 34-14.5" fill="none" stroke="#000" stroke-width="6"/>
 <path d="m1898 1522c-2-22 4-566 5-596 21 1 226 18 256 22v570c-24 2-228 3-261 4z" fill="#1a1a1a" stroke="#000" stroke-width="6"/>
 <path d="m1938 940c25 1 156 12 177 14s20 12 21 25-2 474-2 489-8 29-20 29-170 5-180 5-14-5-14-18 1-516 1-527 2-18 17-17z" fill="url(#a)" stroke="#000" stroke-width="6"/>
 <path d="m2188 1242c-1-21 0-252-1-262s2-18 15-18c23 1 205 22 227 23 14 2 16 10 17 19 1 17-4 226-4 245" fill="#333" stroke="#000" stroke-width="6"/>
 <path d="m2189 1244c24 1 226 3 252 4 0 29-4 207-4 232-32 4-225 8-250 10-1-33 1-218 2-246z" fill="url(#a)" stroke="#000" stroke-width="6"/>
 <path d="m2536 1363c-17 0-29-11-29-28s-4-209-4-228 7-20 18-20 180 12 193 14 20 11 20 29 0 194 1 211-4 20-25 21-157 1-174 1z" fill="url(#a)" stroke="#000" stroke-width="6"/>
 <path transform="matrix(2 0 0 2 0 -.0045166)" d="m81.458 881.84c-1.2027-0.1638-2.3375 0.45737-2.9893 1.4546-1.0347 1.386-0.58642 3.2352-0.76465 4.8408-0.15925 7.8997-0.19801 15.801-0.27734 23.702 4.4299 0.49901 8.8733 0.94397 13.322 1.2034 0.40875-0.28069 0.10988-1.008 0.23765-1.4434 0.36824-9.8496 0.42943-19.707 0.71011-29.559-3.4127-0.0642-6.825-0.17553-10.238-0.19849z" fill="#ff7f2a" stroke="#000" stroke-width=".375"/>
 <path transform="matrix(2 0 0 2 0 -.0045166)" d="m748.36 1075.9c-30.655 3.3221-67.054 7.7299-97.774 10.404-2.8043 0.2817-5.6403 0.3772-8.4285 0.7353-0.37494 0.6072-0.13109 1.4713-0.26134 2.1674-0.1692 3.594-0.33972 7.2369 0.0919 10.802 1.9083 0.1652 3.8684 0.1702 5.7932 0.334 9.1546 0.5896 18.296 1.393 27.44 2.0974 22.68-3.0821 205.63-26.253 228.33-29.167-0.0268-5.5619 1.565-6.879 2.168-15.688-32.455 4.021-119.61 14.314-119.61 14.314z" fill="#ccc"/>
 <path transform="matrix(2 0 0 2 0 -.0045166)" d="m1513.6 977.4c-42.761 6.3959-85.497 13.032-128.31 19.033-2.0402 0.6416-0.9318 3.7129-1.8999 5.2445-1.4558 4.6693-1.697 10.045-4.5493 14.108-6.4728 1.6968-13.17 2.504-19.83 3.1113 0 1.7269 0.047 4.8831 2.6918 3.8212 48.191-7.2084 96.275-15.135 144.38-22.88 3.62-0.76497 7.5759-0.95574 10.982-2.2061-0.8952-6.7412-1.7309-13.736-3.2051-20.253l-0.2587 0.0205z" fill="#ccc"/>
 <text transform="matrix(1 0 -.16606 1 0 0)" x="1166.286" y="810.79974" fill="#ffffff" font-family="sans-serif" font-size="180px" letter-spacing="0px" stroke-width="1px" word-spacing="0px" style="line-height:125%" xml:space="preserve"><tspan x="1166.286" y="810.79974"/></text>
 <text transform="matrix(-.79409 0 -.10674 1.2593 0 0)" x="-598.4118" y="667.42798" fill="#ffffff" font-family="sans-serif" font-size="127.05px" letter-spacing="0px" stroke-width="1px" word-spacing="0px" style="line-height:125%" xml:space="preserve"><tspan x="-598.4118" y="667.42798">♿</tspan></text>
 <text transform="scale(.90423 1.1059)" x="1140.4001" y="742.1239" fill="#ffffff" font-family="sans-serif" font-size="167.45px" font-style="italic" letter-spacing="0px" stroke-width="1px" word-spacing="0px" style="line-height:125%" xml:space="preserve"><tspan x="1140.4001" y="742.1239">♿</tspan></text>
</svg>
