<?xml version="1.0" encoding="UTF-8"?>
<svg version="1.1" viewBox="0 0 2986.7 2986.7" xmlns="http://www.w3.org/2000/svg">
 <g transform="translate(0 1864.1)">
  <rect x=".53333" y="-1863.6" width="2985.6" height="2985.6" fill="#b6f5f5"/>
  <g transform="translate(-438.71 -18.497)">
   <path d="m1185.5 382.86-131 92.639 12.304 16.646 144.75-91.915z" fill="#a05a2c"/>
   <ellipse cx="1496.4" cy="899.39" rx="558.84" ry="88.023" fill="#79eded"/>
   <path d="m1918.1 576.99c3.2702-0.62347 7.1777-2.5522 11.494-6.989 12.913-13.272-51.952-125.43-151.25-169.68-1.5675 3.5568-2.8074 6.738-3.8316 9.6008 63.729 14.218 172.27 152.44 143.59 167.07z" fill="#999"/>
   <path d="m1069.4 872.26c-1.5356 3.2637-2.3327 7.9175-1.1916 14.527 3.4137 19.771 143.04 34.318 245.06-24.561-2.1201-3.6389-4.1194-6.7513-5.977-9.472-53.041 46.817-243.32 53.966-237.89 19.506z" fill="#999"/>
   <path d="m1288.8 802.49c-62.617 33.108-107.68 18.984-126.57 9.6333-18.512 5.5421-78.202 25.579-92.1 57.333-16.497 37.693 183.17 31.337 237.3-16.9z" fill="#ccc"/>
   <path d="m1774.2 409.85-20.833 31.4c23.219 20.732 43.436 46.147 60 92.167l5.1001 3.4667s59.938 49.157 97.033 41.033c37.096-8.124-75.92-153.81-141.3-168.07z" fill="#ccc"/>
   <path d="m1153.5 814.91c-4.6427 1.5458-10.057 3.4627-15.996 5.7972 17.072 11.377 41.187 34.055 41.279 71.342 6.6303-0.59534 13.325-1.3502 20.002-2.2465-6.733-22.793-20.271-55.902-45.285-74.893zm-35.545 14.356c-4.6037 2.2486-9.2072 4.6956-13.664 7.3247 14.727 10.66 32.784 29.112 36.836 57.217 5.7436-4e-3 11.657-0.15502 17.708-0.42682-7.3383-21.3-20.033-47.617-40.881-64.115z" fill="#f00"/>
   <path d="m1829.6 545.29c3.6724 2.6285 8.0405 5.6323 13.005 8.8009-0.7637-18.92 3.093-49.228 30.888-69.519-4.0405-4.6284-8.2352-9.2182-12.526-13.719-13.37 17.39-30.752 45.457-31.367 74.437zm29.999 18.758c4.176 2.2184 8.5002 4.329 12.881 6.2311-0.027-16.779 3.9588-40.271 22.749-58.54-3.118-4.287-6.4382-8.6213-9.923-12.992-11.926 17.032-24.694 40.786-25.707 65.302z" fill="#f00"/>
   <path d="m1377.6 15.157s-131.66-4.3484-235.2 55.805c-72.697 42.231-174.44 131.3-138.05 253.8 17.792 59.897 77.596 97.729 77.596 97.729s-10.68 30.688 0.1091 52.362c10.748 21.593 43.052 34.39 68.591 15.419 20.085-14.919 30.796-59.446 1.7111-69.893 31.292-5.731 7.1029-46.522-36.079-22.145-42.914-56.269-53.265-129.73 4.883-177.19 73.972-60.369 127.14-40.961 127.14-40.961s-15.103 183.8 1.9149 226.03c135.73 39.564 368.75 49.587 442.67-52.248-37.148-213.27-51.294-256.74-51.294-256.74s146.57-1.3611 243.31-101.67c96.735-100.31 61.797-263.11 61.797-263.11 43.17 8.3019 55.745-159.9-54.563-120.23-32.652 11.745-58.08 30.112-28.266 74.354-45.041 7.7946 0.8249 60.135 27.482 52.088 0 0 40.389 229.56-277.11 253.57-115.96 7.6054-108.39 7.2739-108.39 7.2739-2.8362-26.591-129.63-36.276-128.25 15.728z" fill="#fca"/>
   <path d="m1684.1 364.65c-79.312 87.183-288.13 80.205-420.1 45.3-23.553 28.72-110.21 142.39-123.17 275.6-7.3654 75.714 11.6 120.73 11.6 120.73s56.734 43.992 146.77-9.6c14.494-84.844 17.149-136.19 50.967-176.87 47.05-56.596 81.76-66.17 130.07-64.233 64.272 2.576 111.94 79.662 220.6 93.067 36.799 4.5396 94.939-73.666 114.93-108.43-17.701-52.463-39.763-79.443-65.4-101.67-25.485 34.478-47.928 46.765-66.267-73.9z" fill="#37abc8"/>
   <path d="m1766.3-44.047c-2.6635 1.2593-5.3918 2.4884-8.1666 3.6999l51.1 92.4c2.6256-1.4016 5.2468-2.8768 7.8667-4.3666-16.508-34.284-35.733-71.27-50.8-91.733zm-324 21.833c-4.454 0.0448-8.9253 0.29525-13.3 0.73333-6.3161 1.1257-12.642 2.2725-18.967 3.4334-18.899 5.2453-32.899 15.734-32.433 33.2 0 0-4.5488-0.13824-12.533 0 31.833 10.789 78.95 21.544 138.47 20.233 12.567-13.657 21.81-26.334 28.6-37.767-19.26 1.3079-26.267 1.8001-26.267 1.8001-1.3866-12.998-32.389-21.95-63.567-21.633zm217.1 9.2334c-1.5768 0.24288-3.1352 0.50187-4.7332 0.73323 1.5909-0.2304 3.1632-0.49141 4.7332-0.73323zm-418.37 44.8c-1.8285 0.46763-3.6597 0.93931-5.5001 1.4333 1.8411-0.49429 3.6709-0.96544 5.5001-1.4333zm-68.9 23.867c-2.4299 1.1006-4.8523 2.239-7.2668 3.3999 2.412-1.1598 4.8397-2.3002 7.2668-3.3999zm-37.934 20.167c-1.9504 1.1947-3.9213 2.4087-5.8999 3.6667 1.9713-1.253 3.9566-2.4764 5.8999-3.6667zm507.4 21.267s-2e-4 0.03307 0 0.03307h0.1003zm-561.63 18.5c-1.8426 1.616-3.6787 3.234-5.5 4.9 6.4746 26.003 18.997 66.639 40.9 105.57 1.8512-1.7045 3.786-3.3896 5.8-5.0334 2.357-1.9236 4.6863-3.7685 7-5.5333-19.534-34.408-40.92-80.752-48.2-99.9zm167.73 72.433c-0.1946 2.612-0.4037 5.4861-0.6667 9.2667 0.2498-3.5928 0.477-6.7125 0.6667-9.2667zm-2.3666 35.967c-0.225 3.8736-0.4452 7.968-0.6667 12.167 0.2196-4.1648 0.4435-8.3213 0.6667-12.167z" fill="#ffa569"/>
   <path d="m1758.1-40.347c-37.059 16.184-84.136 27.98-143.9 32.5-43.805 2.8731-66.484 4.4122-82.1 5.4667-15.286 25.738-43.043 57.723-93.033 93.2-30.276-12.335-61.12-46.8-82.867-75.433-41.417 1.4986-135.6 10.117-213.83 55.567-19.789 11.496-41.712 26.467-62.433 44.633 9.1256 24.012 40.49 91.027 62.533 123.33 69.858-52.841 105.8-58.833 105.8-58.833s-15.085 183.8 1.9333 226.03c135.72 39.564 368.75 49.601 442.67-52.233-37.147-213.27-51.3-256.77-51.3-256.77s100.4 32.376 184.73-14.133z" fill="#f60"/>
   <path d="m1422.5-688.75c-206.49-34.498-398.83 64.797-456.4 226.57-3.1069-1.1025-6.3372-1.9451-9.68-2.5036-0.54288-0.0907-1.085-0.19715-1.6273-0.27186-34.163-4.706-66.717 22.215-73.18 60.902-6.5658 39.301 16.282 75.876 51.032 81.682 6.34 1.0592 12.63 1.008 18.731-9.4e-4 20.766 157.02 163.54 294.32 355.39 326.37 191.86 32.053 371.51-51.385 442.18-193.13 5.4412 2.9372 11.373 5.0302 17.713 6.0894 34.751 5.8056 68.246-21.356 74.812-60.658 6.5659-39.301-16.286-75.849-51.037-81.655-0.543-0.0907-1.085-0.19715-1.6273-0.27186-2.7951-0.3851-5.5762-0.56152-8.3362-0.53403-1.873-171.69-151.49-328.1-357.97-362.59z" fill="#fca"/>
   <ellipse transform="rotate(19.688)" cx="984.6" cy="-725.92" rx="51.362" ry="69.542" fill="#fff"/>
   <g transform="matrix(.77173 .27613 -.27613 .77173 47.979 -264.86)">
    <ellipse cx="1278" cy="-587.27" rx="25.622" ry="34.692"/>
    <ellipse cx="1278" cy="-587.27" rx="15.795" ry="21.386" fill="#00f"/>
    <ellipse cx="1268.3" cy="-598.53" rx="8.2356" ry="11.151" fill="#fff"/>
    <ellipse cx="1281.6" cy="-582.41" rx="5.5898" ry="7.5684" fill="#fff"/>
   </g>
   <ellipse transform="rotate(23.137)" cx="1277.9" cy="-867.85" rx="51.362" ry="69.542" fill="#fff"/>
   <g transform="matrix(.75372 .32206 -.32206 .75372 383.1 -285.79)">
    <ellipse cx="1278" cy="-587.27" rx="25.622" ry="34.692"/>
    <ellipse cx="1278" cy="-587.27" rx="15.795" ry="21.386" fill="#00f"/>
    <ellipse cx="1268.3" cy="-598.53" rx="8.2356" ry="11.151" fill="#fff"/>
    <ellipse cx="1281.6" cy="-582.41" rx="5.5898" ry="7.5684" fill="#fff"/>
   </g>
   <path d="m1123.8-475.23s21.08-39.781 62.42-13.629c-3.4882-58.32-79.174-37.284-62.42 13.629z"/>
   <path d="m1594.9-396.53s-7.0045-44.473-54.6-33.179c22.256-54.019 86.994-9.5236 54.6 33.179z"/>
   <path d="m1226.7-169.36s69.413 59.711 202.65-3.4323c-14.096 134.77-127.45 208.45-202.65 3.4323z" fill="#f55"/>
   <path d="m1429.4-172.81c-96.169 45.575-159.1 27.166-186.66 13.385l18.313 43.917s71.038 35.128 157.63-6.9054c5.1295-15.352 8.8282-32.322 10.718-50.396z" fill="#fff"/>
   <path d="m1397.3-89.13c-41.579-6.9464-81.394 2.8629-110.05 23.884 43.566 41.06 88.222 23.913 115.91-22.795-1.9344-0.39606-3.8896-0.7606-5.8567-1.0892z" fill="#ff8080"/>
   <path d="m1319.6-250.93s-18.769 30.886-39.587 12.949c-20.819-17.937-35.034 6.0549-19.045 32.541 1.801-20.963 3.3216-30.065 18.49-24.128 15.169 5.9363 30.199 12.7 40.142-21.362z" fill="#ff7f2a"/>
   <path d="m1666.3-449.61s65.505 397.13-266.12 442.16c122.82-8.1882 356.19-65.505 368.47-343.9-36.847-188.33-102.35-98.258-102.35-98.258z" fill="#ffbd91"/>
   <path d="m924.62-575.09c-7.9232 21.687-6.1797 126.88 56.598 197.51-3.4715-101.62 49.595-138.46 49.595-138.46s-17.187 59.677 6.2056 92.454c19.539-88.153 83.148-152.1 83.148-152.1s51.852 78.428 191.88 104.23c140.03 25.8 211.03 18.416 211.03 18.416s-62.006-46.445-74.87-70.245c89.32 26.951 216.87 41.044 256.99 204.12 32.386-21.052 31.246-100.63 31.246-100.63s33.508 101.83 12.417 170.47c74.15-83.841 84.615-143.4 92.534-230.09 11.402-124.82-126.6-403.6-518.56-410.87-88.966-1.6497-228.03 26.562-256.89 138.62-115.11 45.773-133.41 154.89-141.34 176.58z" fill="#4d4d4d"/>
   <path d="m1133.2 76.42c-9.3843 5.781-19.117 12.288-28.867 19.5 12.953 33.493 34.832 89.031 58.2 128.4 11.725-8.1526 22.253-14.811 31.6-20.267-17.004-27.484-48.127-81.461-60.933-127.63z" fill="#a40"/>
   <path d="m1728.1-28.98c-9.8059 3.1958-20.211 6.1236-31.2 8.7332l52.5 126.77c13.53-1.4978 27.544-4.1699 41.567-8.5333z" fill="#a40"/>
   <path d="m1582.8-5.7803c-22.431 1.4883-39.804 2.6665-50.667 3.3999-15.286 25.738-43.043 57.723-93.033 93.2-30.276-12.335-61.12-46.8-82.867-75.433-14.629 0.52928-35.866 1.9515-60.633 5.5666 31.828 37.084 90.087 95.665 145.57 102.6 65.185-36.214 116.88-96.868 141.63-129.33z" fill="#a40"/>
   <path d="m1684.1 364.65c-71.042 78.093-245.98 80.637-376.53 55.233 59.118 30.793 196.23 77.053 383.4-16.9-2.3526-10.95-4.6337-23.642-6.8666-38.333z" fill="#2b869d"/>
   <path d="m1330.2 275.75s270.68-36.187 293.84 31.844-81.059-46.319-293.84-31.844z" fill="#dc5800"/>
   <path d="m1136.1-639.98s53.223 126.92 243.6 124.87c-108.49-59.364-106.45-92.117-106.45-92.117s102.35 36.847 174 51.176 153.53 28.659 180.14 65.505c-18.423-75.741-147.39-126.92-194.47-141.25 133.06 28.659 227.22 28.659 276.35 102.35-79.835-139.2-221.08-186.28-323.43-200.61 118.73 14.329 198.56 30.706 221.08 53.223-47.082-77.788-247.69-208.8-413.5-151.48 106.45 12.282 139.2 20.47 139.2 20.47l-118.73 10.235 161.72 28.659-120.78 20.47 163.76 57.317-114.63-4.0942 120.78 40.941-61.411-8.1882s85.976 47.082 71.647 47.082-120.78-38.894-120.78-38.894 63.458 55.27 42.988 45.035-141.25-63.458-141.25-63.458 0 47.082 34.8 81.882c-57.317-38.894-67.552-67.552-67.552-67.552s2.0471 38.894 26.612 63.458c-40.941-22.518-73.694-45.035-73.694-45.035z" fill="#666"/>
   <path d="m1750.3 438.55c-3.3638 4.5508-6.6779 8.6772-9.9333 12.2 21.973 30.029 45.421 73.999 62.867 109.23 4.9826-7.3682 9.2305-14.139 12.467-19.767-17.701-52.463-39.763-79.443-65.4-101.67zm-447.8 337.77c-63.313 32.613-124.67 18.246-157.07 5.9666 3.4195 15.579 6.9333 24 6.9333 24s56.734 43.992 146.77-9.6c1.2023-7.038 2.3027-13.777 3.3666-20.367z" fill="#8acede"/>
   <path d="m1158.7 351.01s16.646 52.833 62.965 80.335c63.689-31.121 125.21-81.783 125.21-81.783s-34.739-79.611-78.164-85.401c-44.872 27.502-110.01 86.849-110.01 86.849z" fill="#c87137"/>
   <path d="m1232.7 289.29c-7.8761 5.9804-15.683 12.159-23.167 18.233 12.934 23.469 42.129 68.594 82.533 82.367 6.4454-4.3487 12.522-8.5516 18.1-12.533-23.492-15.098-62.936-45.491-77.467-88.067zm-36.2 28.9c-6.0002 5.0123-11.378 9.6539-16.3 13.9 8.837 25.01 27.364 60.217 65.6 86.533 14.245-8.011 27.925-16.555 40.433-24.833-17.179-6.755-69.976-30.618-89.733-75.6z" fill="#f00"/>
   <path d="m2021.6-1617.8c-9.3216 5.6463-18.58 11.516-27.733 17.8 0 0-302.99 196.53-86 495.4 46.67-44.725 92.376-76.292 134.97-98.433-117.43-205.79-35.054-384.99-20.467-413.83-0.248-0.2994-0.495-0.5999-0.7666-0.9333zm266.6 337.43c-1.7984 9.8317-2.7084 17.651-3.1666 23.167-0.055 0.6427-0.06 1.0572-0.1003 1.6333 0.453-5.613 1.4077-14.088 3.3334-24.7-0.023-0.03-0.043-0.07-0.067-0.1zm-3.2665 24.8c-0.017 0.2327-0.051 0.411-0.067 0.6334-0.1164 1.6623-0.189 3.0984-0.2333 4.1666 0.062-1.224 0.1423-2.8464 0.3-4.8z" fill="#f00"/>
   <path d="m2273.5-1692c-82.022-0.2628-168.8 24.336-249.93 73.033 184.84 5.0643 307.68 84.916 377.97 150.63 38.413-31.214 89.425-59.195 157.27-78.433-67.746-97.103-171.98-144.87-285.3-145.23zm-249.93 73.033c-0.6629 0.3979-1.3379 0.7656-2 1.1667 0.4953 0.6079 0.9021 1.0885 1.3999 1.7 6.157 7.5605 12.544 15.458 19.067 23.533zm294.7 251.77c-0.7096 1.3568-1.3866 2.719-2.0667 4.0667 0.6788-1.3476 1.3583-2.71 2.0667-4.0667zm-2.0667 4.0667c-0.7743 1.5344-1.5297 3.0786-2.2667 4.6 0.7367-1.5239 1.4924-3.0631 2.2667-4.6zm-12 26.867c-0.5607 1.4306-1.1041 2.8563-1.6334 4.2667 0.531-1.4195 1.0705-2.8267 1.6334-4.2667zm-3.2 8.5c-1.5067 4.1991-2.8561 8.2852-4.0999 12.267 1.2374-3.9755 2.6002-8.0733 4.0999-12.267zm-4.0999 12.267c-4.1252 13.203-6.9011 25.116-8.7335 35.133 0.023 0.03 0.043 0.07 0.067 0.1 1.8195-10.028 4.5418-21.982 8.6667-35.233z" fill="#00f"/>
   <path d="m2023.6-1619 259.5 370.73c0.6655 0.1469 1.4334 0.3333 1.4334 0.3333s0.011-125.31 117.03-220.43c-70.289-65.717-193.12-145.57-377.97-150.63z" fill="#007f00"/>
   <path d="m2023.4-1619c-10.962 21.067-101.28 204.5 19.407 415.95 127.77-66.346 227.5-47.979 240.23-45.233l-259.5-370.73s-0.1066-0.065-0.1401 0.021zm270.71 312.81c-1.6979 6.1105-3.0825 11.842-4.2334 17.2 1.1518-5.3556 2.5365-11.094 4.2334-17.2zm-5.6666 24.233c-0.2982 1.5809-0.5786 3.1111-0.8334 4.6 0.2533-1.4751 0.5376-3.0348 0.8334-4.6zm-0.8334 4.6c-0.2834 1.6568-0.5325 3.263-0.7666 4.8 0.2353-1.5372 0.4821-3.1433 0.7666-4.8zm-0.7666 4.8c-0.2326 1.5264-0.4448 2.9978-0.6333 4.4 0.1907-1.4115 0.398-2.8627 0.6333-4.4zm-1.8667 15.3c-0.1712 2.0297-0.2591 3.5462-0.3333 4.9333 0.077-1.3594 0.1673-2.9913 0.3333-4.9333z" fill="#ff0"/>
   <path d="m2279.6-1600.4-339.8 217 5.7333 8.9667 339.83-216.97z" color="#000000" style="text-decoration-line:none;text-indent:0;text-transform:none"/>
   <path d="m2283.5-1248.7s61.411 247.69 206.75 249.74c145.34 2.047 169.9 65.505 200.61 176.05 30.706 110.54 219.03 71.647 292.73 139.2-55.27-92.117-223.13-38.894-266.12-131.01s-18.423-157.62-155.58-188.33c-137.15-30.706-180.14-20.47-278.4-245.65z" fill="#f00"/>
   <path d="m2834.2-679.2s-149.25-62.407-283.43-118.29c-134.18-55.886-59.724-99.364-47.174-213.4 12.55-114.04-176.75-147.88-220.08-237.97 17.1 106.06 192.72 118.99 198.41 220.48 5.6965 101.49-66.006 161.38 0.7986 208.08 115.19 80.525 270.19 98.199 351.47 141.1z" fill="#000080"/>
   <path d="m2112.4-1489.4s-6.218 261.3-40.3 539.57c-17.041 139.13-41.047 282.5-74.667 399.43-33.619 116.93-77.15 207.26-131.6 240.5l-2.0333 1.2667 0.9999 2.1333c16.877 36.566 16.508 100.41-0.9 174.43-17.408 74.022-51.663 158.28-101.7 236.27-100.07 155.97-262.83 286.71-480.2 262.23l-0.5999 5.3c219.77 24.742 384.54-107.59 485.3-264.63 50.382-78.523 84.842-163.27 102.4-237.93 17.254-73.367 18.317-136.89 1.4-175.8 56.054-35.663 98.662-126.23 132.03-242.3 33.753-117.4 57.773-260.94 74.833-400.23 34.121-278.59 40.367-540.1 40.367-540.1z" color="#000000" fill="#f00" style="text-decoration-line:none;text-indent:0;text-transform:none"/>
  </g>
 </g>
</svg>
