<?xml version="1.0" encoding="UTF-8"?>
<svg style="background:#a00" background-color="#ff4000" version="1.1" viewBox="0 0 800 200" xml:space="preserve" xmlns="http://www.w3.org/2000/svg" xmlns:xlink="http://www.w3.org/1999/xlink">
  <defs>
    <symbol id="a" overflow="visible">
          <path d="m-85.9 35.7l147 34.3-32.9-26.1-37.1 4.1-42.6-20.5-34.4 8.2z" fill="#111" opacity=".2"/>
          <path d="m-2.1 26.1l35.8-4.1-6.9 20.5-35.7 6.9 6.8-23.3z" fill="#26c9ff"/>
            <path d="m75.2 15.4l7.8-44.2-30.1-21.9-20.5 72.5s-38.1 6.9-38.4 5.5 17.8-69.8 17.8-69.8l-34.2-23.2-24.7 94.4 12.8 3.4 109.5-16.7z" fill="#00b200" stroke="#ffffff00"/>
            <path d="m48.8-49.3l-35.6 4.1-34.3-21.9-41.1 5.5-24.6 97.1 38.3-6.8 23.3-91.7 37 21.9-16 67.7 34.2-3.5 18.8-72.4z" fill="#96ff73" stroke="#ffffff00"/>
            <path d="m61.1 62.9l12.4-47.9-38.2 5.5-7.4 21.7-37.5 4.4 5.3-20.3-34.6 5.1 27.4 17.8 39.7-6.9 32.9 20.6z" fill="#0080ff"/>
              <path d="m-88.9 36.6c1 1.1 2.4 1.6 3.8 1.4l36.7-5.3c0.2 0.1 0.5 0.2 0.7 0.2 0.1 0.1 0.1 0.1 0.2 0.1l32.8 19.2c0.1 0.1 0.3 0.1 0.4 0.2 0 0 0.1 0 0.1 0.1 0.9 1 2.4 1.5 3.8 1.3l36.7-5.2c0.2 0.1 0.4 0.1 0.7 0.2 0 0.1 0.1 0 0.2 0.1l32.8 19.1c1.1 0.7 2.6 0.8 3.8 0.3 1.3-0.6 2.2-1.6 2.6-3l23.5-92.8c0.4-1.8-0.3-3.7-1.9-4.7l-33.9-21.3c-0.4-0.2-0.8-0.4-1.2-0.5-0.5-0.1-1-0.2-1.5-0.1h-0.1l-38.9 4.9c-0.2 0-0.4 0.1-0.6 0.1l-32.4-20.3c-0.2-0.1-0.3-0.2-0.5-0.2l-0.1-0.1c-0.2-0.1-0.4-0.1-0.6-0.2h-0.1c-0.2 0-0.4-0.1-0.6-0.1h-0.9l-38.9 5c-1.8 0.2-3.2 1.5-3.7 3.2l-23.9 94.5c-0.3 1.3 0 2.8 1 3.9zm23.9-66.8c1.5-0.8 2.6-1.9 3.6-2.9 1.7-1.7 2.9-2.9 5.6-2.9 2.6-0.1 3.9 1.1 5.6 2.7 1.9 1.8 4.3 4 8.8 3.9 2.2 0 3.9-0.6 5.3-1.4l-8.3 32.9c-0.3-0.3-0.7-0.5-1.2-0.6-0.6-0.2-1.3-0.1-1.9 0.2-1.3 0.8-1.7 2.4-1 3.6s1.4 2.3 2.1 3.2l0.3 0.3-3.9 15.4-29.9 4.3 14.9-58.7zm33-17.1l-13.3-11.2 16.7-2.1-3.4 13.3zm67.4 44.8c-0.2-0.4-0.5-0.8-0.8-1.3-0.4-0.6-0.9-1-1.6-1.1-0.6-0.2-1.4-0.1-2 0.3-1.2 0.8-1.6 2.4-0.8 3.6s1.5 2.3 2.2 3.1c0.5 0.5 1 0.8 1.6 0.9l-1.1 4.4-19.4-16.4c0.3-0.8 0.6-1.5 0.8-2.2 0.6-1.3-0.1-2.8-1.4-3.3-0.1-0.1-0.2-0.1-0.3-0.1-1.3-0.3-2.6 0.3-3.1 1.6-0.1 0.1-0.1 0.3-0.2 0.5l-0.1-0.1 4.6-18c0.6 0.1 1.3 0.2 2.1 0.2 4.5-0.1 6.8-2.4 8.7-4.3 1.6-1.7 2.9-2.9 5.5-2.9 2.7-0.1 3.9 1.1 5.7 2.7 1.6 1.5 3.5 3.3 6.8 3.8l-7.2 28.6zm-5.7 22.9l-30 4.7 5.2-20.6c0.1 0.2 0.3 0.3 0.6 0.4 1.2 0.7 2.8 0.3 3.5-1 0.5-1 1-2.2 1.6-3.5 0.5-1.4-0.2-2.9-1.6-3.4h-0.2c-0.8-0.2-1.5 0-2.1 0.4l1.5-6c0.1 1 0.8 2 1.8 2.3 0.4 0.1 0.9 0.1 1.3 0l20.7 17.4-2.3 9.3zm9.6-3.1l1.6 1.3-2 0.3 0.4-1.6zm-37.4-36.1l-13.4-11.2c3.7-0.5 5.7-2.5 7.4-4.2 1.7-1.6 2.9-2.9 5.6-2.9 2.1 0 3.3 0.7 4.5 1.7l-4.1 16.6zm-1 3.7l-4.6 18.1c-0.5 0.1-1.1 0.4-1.5 0.9-0.9 1.1-0.7 2.7 0.4 3.6l-4.8 19-25.1 3.9-6.9-4 3.3-13.3c0.5 0.2 1.1 0.3 1.6 0.2 1.6-0.3 3.1-1.1 4.3-2.4 1.1-1 1.1-2.6 0.1-3.6-0.4-0.4-0.8-0.6-1.2-0.7-0.9-0.3-1.8 0-2.5 0.6-0.3 0.3-0.6 0.5-1 0.7l11.2-44.4c1.8 0.4 2.9 1.4 4.3 2.7 0.8 0.8 1.8 1.6 2.9 2.4l19.5 16.3zm-14.6 57.8l-16.2-9.5 19.4-3-3.2 12.5zm8.5 1.6l3.9-15.6 30-4.7-4 16-29.9 4.3zm38.3-2.1l4.9-19.6 6.4-1 19.9 16.7-4.9 19.3-26.3-15.4zm32.1-7.6l-16.2-13.7 20.5-3.2-4.3 16.9zm9.7-38.3c-0.5 0.2-1 0.6-1.3 1.2-0.6 0.9-0.4 2.1 0.3 2.9l-3.5 13.6-24.9 3.9-5.2-4.3 2.1-8.3c0.2 0 0.5-0.1 0.7-0.2 1.4-0.6 2.6-1.7 3.6-3 0.9-1.2 0.6-2.8-0.5-3.7-0.3-0.2-0.6-0.3-0.9-0.4-0.4-0.1-0.7-0.1-1.1 0l1.3-5.3c0.1 1.1 0.8 2 1.9 2.4 1.3 0.3 2.8-0.4 3.2-1.8 0.3-0.8 0.5-1.6 0.7-2.4l0.3-0.9c0.5-1.4-0.3-2.8-1.7-3.2 0-0.1-0.1-0.1-0.1-0.1-1.4-0.3-2.7 0.5-3.1 1.8l-0.3 1c-0.1 0.1-0.1 0.1-0.1 0.2l6.1-24.1c0.3-0.3 0.5-0.6 0.8-0.8 1.7-1.7 2.9-2.9 5.6-3 2.7 0 3.9 1.1 5.6 2.7 1.9 1.8 4.2 3.9 8.3 4l8 5-5.8 22.8zm-19.2-38.5c-0.6 0.1-1 0.3-1.5 0.6l0.3-1.4 1.2 0.8zm-9.7-2.5l-2.3 9.2c-2.1-0.2-3.3-1.3-4.8-2.7-2-1.8-4.3-4-8.8-4-4.5 0.1-6.8 2.4-8.7 4.3-1.7 1.7-2.9 2.9-5.6 3-0.3 0-0.6-0.1-0.9-0.1l1.5-6 29.6-3.7zm-38.4 3.3l-0.4 1.3c-1.4-0.9-3.3-1.6-5.8-1.5-4.5 0.1-6.8 2.4-8.7 4.2-1.6 1.7-2.8 2.9-5.5 3-2.7 0-3.9-1.1-5.7-2.7-1.4-1.4-3.1-3-5.7-3.6l-0.4-0.4 4.5-17.7 27.7 17.4zm-57.5-16.5l17 14.4-1.3 5.1c-0.6 0.5-1.2 1.1-1.7 1.6-1.7 1.7-2.9 2.9-5.6 2.9-2.7 0.1-3.9-1.1-5.6-2.7-1.9-1.8-4.3-4-8.8-3.9-3.4 0-5.6 1.4-7.2 2.8l4.8-19.1 8.4-1.1z"/>
              <path d="m-28.6-11.2c-0.6 1.3-0.1 2.8 1.2 3.5 1.3 0.6 2.8 0 3.5-1.3 0.4-1 0.9-1.8 1.4-2.3 1-1.1 0.9-2.8-0.2-3.7-0.3-0.3-0.7-0.5-1.1-0.6-0.9-0.2-1.9 0.1-2.6 0.9-0.8 0.9-1.5 2.1-2.2 3.5z"/>
              <path d="m21.3-21.4h-0.2c-0.9-0.3-1.8-0.3-2.8-0.2-0.7 0-1.4 0.2-2.1 0.4-1.3 0.6-2 2.1-1.5 3.4s2 2 3.3 1.5c0.3-0.1 0.5-0.1 0.8-0.2 0.3 0 0.6 0 1 0.1 1.4 0.5 2.8-0.4 3.2-1.8 0.4-1.3-0.4-2.8-1.7-3.2z"/>
              <path d="m-12-3.1c0.5 1 1 1.9 1.5 2.9 0.7 1.2 2.3 1.7 3.5 1 1.3-0.7 1.8-2.2 1.1-3.5-0.5-0.9-1-1.9-1.4-2.8l-0.2-0.2c-0.3-0.7-0.9-1.2-1.6-1.4-0.6-0.1-1.3-0.1-1.9 0.3-1.2 0.6-1.7 2.2-1.1 3.5l0.1 0.2z"/>
              <path d="m-18.1-12.1c0.6 0.4 1.2 1 1.9 1.8 0.9 1.1 2.5 1.3 3.6 0.4 1.1-1 1.3-2.6 0.4-3.7-1-1.3-2-2.2-3.1-2.9-0.2-0.2-0.5-0.3-0.8-0.4-1-0.2-2.2 0.2-2.8 1.2-0.8 1.2-0.4 2.8 0.8 3.6z"/>
              <path d="m56.5-23.2c-0.4-0.4-0.9-0.7-1.4-0.9-0.8-0.2-1.6 0-2.3 0.6-1 0.8-1.9 1.9-2.8 3.3-0.7 1.3-0.3 2.9 1 3.6 1.2 0.7 2.8 0.3 3.5-1 0.5-0.8 1.1-1.5 1.6-1.9 1.1-0.9 1.3-2.6 0.4-3.7z"/>
              <path d="m-49.9-8.1c-0.3-0.5-0.9-0.9-1.5-1.1-0.7-0.1-1.4 0-2.1 0.4-1.2 0.8-1.5 2.4-0.7 3.6 0.5 0.8 1 1.7 1.7 2.8 0.6 1.3 2.2 1.7 3.5 1 1.2-0.7 1.7-2.3 1-3.5-0.7-1.3-1.3-2.3-1.9-3.2z"/>
              <path d="m67.6-13.2c-1.3 0.7-1.8 2.2-1.2 3.5 0.6 1.1 1.1 2.1 1.7 3.2 0.7 1.2 2.3 1.6 3.5 0.9 1.3-0.7 1.7-2.3 1-3.5l-1.5-3c-0.4-0.7-1-1.1-1.7-1.3-0.6-0.2-1.3-0.1-1.8 0.2z"/>
              <path d="m28.8-14.4c-0.3-0.6-0.9-1-1.6-1.2-0.6-0.1-1.3 0-1.9 0.3-1.3 0.8-1.7 2.4-0.9 3.6 0.5 0.9 1.1 1.9 1.6 2.9 0.7 1.3 2.2 1.7 3.5 1.1 1.3-0.7 1.8-2.3 1.1-3.5-0.6-1.1-1.2-2.2-1.8-3.2z"/>
              <path d="m64-23c-0.3-0.3-0.7-0.5-1.1-0.6-0.9-0.2-1.9 0.1-2.6 0.8-0.9 1.1-0.8 2.7 0.2 3.7 0.6 0.5 1.2 1.2 1.9 2.2 0.8 1.1 2.4 1.4 3.6 0.6s1.5-2.4 0.7-3.6c-0.9-1.3-1.8-2.3-2.7-3.1z"/>
              <path d="m-65.6-5.7c-0.1 0-0.2-0.1-0.3-0.1-1.2-0.3-2.6 0.4-3 1.7-0.4 1.1-0.8 2.2-1.2 3.4-0.4 1.4 0.4 2.8 1.8 3.2 1.3 0.4 2.8-0.3 3.2-1.7 0.3-1.1 0.7-2.2 1.1-3.2 0.4-1.4-0.3-2.8-1.6-3.3z"/>
              <path d="m-28.4-4.4h-0.1c-1.4-0.3-2.7 0.4-3.1 1.8-0.4 1.1-0.7 2.2-1.1 3.2-0.4 1.4 0.3 2.9 1.7 3.3 1.3 0.5 2.8-0.3 3.3-1.7 0.3-1.1 0.7-2.2 1-3.3 0.4-1.4-0.3-2.9-1.7-3.3z"/>
              <path d="m-69.3 5.9c-0.1 0-0.2-0.1-0.4-0.1-1.2-0.3-2.5 0.3-3 1.5-0.5 1.1-0.9 1.9-1.4 2.6-0.8 1.2-0.5 2.8 0.7 3.6s2.8 0.5 3.6-0.7c0.7-0.9 1.3-2.1 1.9-3.5 0.5-1.3-0.1-2.8-1.4-3.4z"/>
              <path d="m-58.1-14c-0.2-0.1-0.4-0.1-0.6-0.1h-0.9c-1.4 0.2-2.7 0.6-3.8 1.4-1.2 0.8-1.5 2.5-0.7 3.6 0.8 1.2 2.4 1.5 3.6 0.7 0.4-0.3 0.9-0.4 1.4-0.5h0.3c1.5 0 2.6-1.2 2.7-2.6 0-1.2-0.9-2.3-2-2.5z"/>
    </symbol>
    <clipPath id="b">
      <path d="m255 90c0-96.7 74.3-175 166-175s166 78.3 166 175-74.3 175-166 175-166-78.3-166-175z" fill="#d93600"/>
    </clipPath>
  </defs>
    <rect x="596" y="133" width="62" height="87" rx="31" ry="31" fill="#ffcfbf"/>
    <path d="m102.7 190.2c-49.2-110.7-27-227.9 49.4-261.8 76.5-33.9 178.3 28.4 227.5 139 49.1 110.7 27 227.9-49.5 261.8-76.5 33.8-178.3-28.4-227.4-139z" fill="#ffbf00"/>
    <use transform="matrix(1.0492 0 0 1.0492 198.05 110.02)" xlink:href="#a"/>
      <path d="m245 94c0-96.7 74.3-175 166-175s166 78.3 166 175-74.3 175-166 175-166-78.3-166-175z" fill="#4cccff" stroke="#000" stroke-width="26"/>
      <g clip-path="url(#b)">
        <use transform="matrix(1.8889 0 0 1.8857 315 110)" xlink:href="#a"/>
        <path d="m433.4 77.9l-3 10.1s-8.1-7.6-7.7-6.3c0.3 1.4-1.9 11.3-1.9 11.3l6.4 4.6-2.8 9.5s6.6 6.1 6.6 4.4c-0.1-1.6 2.8-11.3 2.6-10.5-0.3 0.8 3.8 3.9 4.2 3.3 0.4-0.5 4.2-7.7 3.8-7.5-0.5 0.2-4.8-4.2-4.8-4.2l2.7-9.5-6.1-5.2z" fill="#d93600"/>
      </g>
      <path d="m585.3 133l220.1 42.9" fill="none" stroke="#000" stroke-width="30"/>
      <path d="m501.6 43.3c-7.5-18.3-6.3-36 2.5-39.4 8.8-3.3 21.8 8.8 29 26.9 7.2 17.8 6.1 35.1-2.5 38.6-8.6 3.6-21.6-8-29-26.1z" fill="#fff" opacity=".8"/>
    <path d="m651.3 103.6c-14.8-2.6-29 7.3-31.7 22.1l-8.6 47.8c-2.7 14.8 7.1 29 22 31.6 8.8 1.6 135.1 19.2 137.8 4.3l8.5-48c2.7-14.9-7.3-29.1-22.3-31.7-2.8-0.5-5.6-0.6-8.3-0.2-3.7-7.8-11-13.8-20.2-15.4-6.9-1.2-13.7 0.3-19.3 3.7-4-5.5-10.1-9.6-17.4-10.9-8.9-1.5-17.5 1.3-23.5 7-4-5.2-10-9.1-17-10.3z" fill="#ffcfbf"/>
</svg>
