<?xml version="1.0" encoding="UTF-8"?>
<svg viewBox="0 0 211.25 271.25" xmlns="http://www.w3.org/2000/svg">
 <g transform="matrix(1.25,0,0,-1.25,0,271.25)">
  <g transform="scale(.24)">
   <path d="m140.277,1.83984c-31.082,2.44532-48.8825,5.36719-48.8825,40.02736 .375,4.1445 2.0703,16.0117.7539,19.3086-19.2148.9414-8.3828,12.9961-4.0507,28.0664 7.5351,46.9028 9.5117,91.0738-1.2227,136.8478-2.7344,1.98-11.7773,16.199-14.6016,19.496-29.5742,46.246-13.9414,99.742-11.207,149.66 3.2031,4.899 3.8594,3.578 10.1719,3.203 .6601,2.258 3.1094,42.946 4.8047,57.922 3.4843,20.344 10.9258,69.981 26.184,82.695 3.578,12.149 15.824,19.118 23.925,27.879-8.949,3.293-12.433,8.664-17.804,14.313-3.391-.375-4.993-1.223-6.309-1.223-6.4062,7.063-8.1952,14.035-9.8906,21.379h-6.3125c-5.3671,9.137-2.2578,21.285-.4687,29.574-8.7617,0-40.0313-26.652-47.7539-32.679-12.1524-4.993-24.586-22.137-35.79299-16.579-4.89844,13.75 31.36329,44.454 39.65239,54.625 5.5586,5.559 29.2929,23.833 28.2578,31.555-31.1758,45.02 42.6675,59.051 64.2385,82.223 4.898,2.355 3.672,5.367 6.027,9.699 12.152,12.152 19.688,17.988 37.301,11.867 17.801,9.137 50.484,24.207 55.008-10.172-2.735-4.804-17.992-9.605-21.856-12.148 .285-2.824.285-2.824 1.133-4.52 3.859,0 23.266,8.664 24.395,13.278 1.035.379 2.164.754 3.296,1.133 3.11-2.641 9.231-14.79 9.231-19.875-2.731-2.731-4.992-3.391-7.441-5.368v-1.601c14.316-11.68 19.402-24.867 25.808-43.324 14.883-10.645 17.047,3.39 30.141,7.816 17.613-.754 25.148-7.156 25.148-26.09-1.695-3.765-4.992-8.758-6.969-13.75-2.636-2.637 7.063-28.351-2.168-39.371-3.203-9.133-11.113-10.547-17.613-15.352-1.222-13.371.375-19.964-14.597-21.847-3.864-2.641-7.348,1.222-9.985,1.222-14.414-18.929-41.726-5.179-49.734-13.187 0-1.035 21.476-28.348 24.586-37.766 .75-1.507 1.597-3.015 2.445-4.617 1.695.094 3.297.192 4.898.192 .094.281.286.468.379.656 1.696,0 3.485,0 5.368-.188 13-18.175-3.11-22.699 28.632-20.812 .192.281.286.562.567.656-25.055,20.063-27.317,22.418-4.899,44.926 7.16,3.297 33.91,12.527 39.563,6.973 .281-2.168.469-4.333.75-6.594 .472-.188 1.039-.379 1.508-.66 26.562,3.484 46.437-18.461 48.132-44.645 8.29-1.129 16.954,1.695 25.149-3.391-.66-28.914-1.129-58.863 0-88.812-.188-5.465.848-41.441-6.406-43.422-11.114,4.332-29.953-5.273-41.914-1.223-14.129.375-27.692,1.129-40.688,2.45-13.187-7.442-28.164-3.203-41.633-1.696 0-35.695-5.652-81.187-29.011-110.386-3.485-7.911-11.68-14.032-16.2-20.813-1.132-46.055 13.657-91.078 35.789-131.766-.093-1.976-.093-4.144-.093-6.214 31.461-1.6019 62.636-11.2074 44.175-48.3168-4.425-4.8047-6.406-5.5586-12.621-6.875-3.109-15.164-3.957-11.7734-13.75-21.5664-3.863-10.7383-20.722-15.91796-30.8-20.81639-3.485-.37891-20.536,1.1289-21.196,1.78906-27.785-1.78906-56.511-3.48438-83.547-3.76563" fill="#231f20"/>
   <path d="m141.97 8.4297c-19.211 1.2266-35.035 1.0391-42.289 20.629-0.0938 9.418-1.6953 24.203 3.6714 31.363h4.051c33.719-8.2891 74.883 1.4101 109.45 8.7578 0.942-1.3203 36.262-1.5078 41.161-1.6953 13.468-4.1446 29.765-18.27 19.121-33.719-0.282 0-10.172 14.316-12.903 16.672-4.238 1.0352-7.726 3.7656-10.832 1.6953-4.144-7.5351 28.914-16.953 7.063-33.719-0.469 0.0937-0.942 0.0937-1.41 0.0937-2.828 10.738-9.891 25.148-21.856 23.641-0.754-1.2226-1.504-2.2578-1.504-4.4257 8.758-8.1954 14.125-8.1016 14.125-23.266-8.285-5.5547-19.402-2.5429-27.218-1.4101-26.938-2.3555-54.442-4.2383-80.629-4.6172" fill="#a4835b"/>
   <path d="m439.145,27.1719c-25.809,3.3945-43.989,11.2109-32.684,37.4883 8.289,12.1484 14.41,14.5976 27.691,19.8711 8.758,1.6015 26.184,3.3906 26.844,3.8632 0,6.0274-5.086,5.7461 0,12.9965 7.629,0 9.324.375 14.977-6.7816 .754-.1875 1.414-1.1289 3.203-.7539-.379,4.9922-.379,4.9922.281,11.8675 2.356.847 3.484,1.601 6.781,1.601 .473,3.203.473,3.203.094,6.5-28.066,17.516-59.055-11.679-84.957,6.496-.848.098-1.789.098-2.543.098-5.086,8.664-10.551,2.445-11.965,14.973 7.914,69.886 26.375,134.214 48.699,199.578 3.012,3.011 15.446,26.465 15.446,29.574-3.391,6.875-.375,13.09 0,19.496-24.582,19.965-23.735,38.051-27.692,67.813-1.601-.567-1.601-.567-4.519-3.11-12.059,0-4.051,11.68-4.805,15.539-3.769,1.981-5.746,3.864-7.914,5.746 0,8.664 4.805,14.317 5.371,21.192-16.859,16.859-7.066,26.371 10.645,34.754 .187,1.226.562,2.355.941,3.484-11.68,9.516-11.965,16.578-.566,26.184 2.074.941 4.238,1.695 4.238,3.769-5.746,2.543-17.988,11.113-21.191,11.113-16.579-4.992-24.207,3.766-23.739,18.461-19.308,3.106-17.422,29.289-19.308,40.688-7.91,8.945-10.36,10.828-9.606,21.66 2.731,11.398 6.594,14.883 18.082,18.934 8.762,0 33.438-17.332 34.664,4.332 4.992,11.207-4.238,11.207-12.621,15.164-5.558,7.156-43.707,20.437-21.195,31.644 22.23,7.157 43.707,14.129 66.969,19.117 12.906,0 16.957,26.563 30.707,29.106 4.523-1.508 33.91-9.137 37.675-8.477 0,13.844.286,29.289 17.711,17.707 .75,0 1.598-.191 2.543-.285 3.106,8.196 5.086,17.332 14.411,18.086 9.796-13.375 17.707-14.222 21.472-34.754 .098-.191.379-.285.66-.379 6.313,3.676 12.813.754 17.426-5.933 2.262-9.606 12.809,4.426 17.801,8.289 25.527,8.195 28.637,1.129 26.75-21.098 16.203-1.222 24.773-13.09 23.453-30.328-7.535-18.742-22.512,2.262-22.512-29.949-5.836-17.707-35.98.375-23.261-26.656 1.976-13.563 38.992-53.024 18.929-59.618-11.207,1.508-24.582-.187-35.32-.281-.188-1.226-1.695-2.449-2.074-4.144 22.703,0 9.328-22.512 5.937-32.778 4.047-6.496 7.156-9.699 6.309-19.211-1.883-1.886 9.703-24.679 11.586-34.004 15.449-38.992 40.879-92.109 36.64-136.753-1.695-11.02-4.992-21.758-4.992-33.719 25.242-53.778 35.981-114.055 56.891-170.848 2.637-5.371 5.746-13.094-2.637-15.449-11.586-9.512-27.316-19.777-40.312-26.746-20.442-8.477-36.172-5.84-56.61-4.992-1.601-19.684 8.289-34.6606 5.653-55.852-6.125-11.207-29.293-9.9843-40.032-11.0195-4.144-5.0859-3.109-10.2656-10.925-14.1289-36.641-8.3828-76.672-8.6641-113.5-9.1367" fill="#231f20"/>
   <path d="m435.848,41.4883v1.2265c.66-.0937 1.601-.1875 2.449-.3789-.379-.5625-.379-.5625-2.449-.8476" fill="#918f90"/>
   <path d="m456.285,41.7734c-1.883.0938-3.765.0938-5.555.0938v1.2226h7.157c-.094-.4687-1.129-1.8828-1.602-1.3164" fill="#918f90"/>
   <path d="m422.945,42.3359c1.602.1914 3.297.9414 5.84.1914-.472-.3789-.472-.3789-5.84-.1914" fill="#918f90"/>
   <path d="m447.53 41.867v1.2226h2.45v-1.2226h-2.45" fill="#918f90"/>
   <path d="m459.113,42.1484c-.093.1875-.187.4727-.379.5664 2.922,1.0352 2.922,1.0352 9.985,1.8829 .285-.1875.472-.4727.754-.8477-1.602-1.6016-8.758-1.5078-10.36-1.6016" fill="#918f90"/>
   <path d="m470.32,43.6563c.754,1.2226 5.371.9414 7.535.5664-2.164-1.3204-5.46-.5664-7.535-.5664" fill="#918f90"/>
   <path d="m412.58 44.977c-3.391 8.4765 1.227 22.602 10.363 24.297-0.285-3.2968-10.175-24.394-10.363-24.297" fill="#918f90"/>
   <path d="m499.051,44.7852v1.2265c3.765.1875 3.765.1875 4.144-.1914-1.32-1.2226-3.109-1.0351-4.144-1.0351" fill="#918f90"/>
   <path d="m511.48,46.4805c1.321.0937 2.543.2851 3.77.2851-.379-.5664-.379-.5664-3.77-.2851" fill="#fff"/>
   <path d="m519.395,46.4805v1.2265c4.613.6563 4.613.6563 9.23.375-1.414-1.3164-8.102-1.5078-9.23-1.6015" fill="#918f90"/>
   <path d="m543.035,49.7773c.188.4727.281.8477.379,1.2266 2.918.8477 4.613,1.9766 8.004,1.9766-2.824-2.2617-5.461-2.6367-8.383-3.2032" fill="#918f90"/>
   <path d="m292.02,54.3945c2.543,16.5743-2.731,26.7461-18.649,26.7461-2.543-1.5078-1.98-1.6015-2.355-4.707 7.91-8.0078 13.656,1.6953 13.656-17.9922-.188-.0937-.469-.1875-.563-.375-10.644,18.4609-35.984,18.2734-53.5,17.707-1.886-.7539-3.203-.7539-4.617-.3789-.566,5.9336 16.672,12.9063 22.793,17.8985 22.606,1.3164 69.231-4.5235 44.93-38.5235-.66-.1875-1.129-.2812-1.695-.375" fill="#a4835b"/>
   <path d="m124.55 64.566c-9.516 1.4102-26.563 2.2578-33.344 5.0859-0.1914 1.3165-0.1914 1.3165 4.4258 20.531 7.0622 44.832 9.2302 90.039-0.5664 133.84-1.5039 3.203-1.6953 5.554-0.375 7.441-0.8476 2.73-18.18 21-19.969 23.355-19.59 34.661-13.656 97.668-5.8399 134.22 1.6016 1.598 23.926-2.543 28.164-3.015 18.176 2.07 37.109 12.242 48.223 26.937 2.921 0 12.433-14.598 15.168-18.086 24.675-22.039 64.425-21.941 97.957-23.734 7.722-46.524-18.086-115.75-58.68-142.78-13.942-19.59-0.192-72.805-0.192-96.258 1.602-9.985 1.602-9.985 6.594-31.551 3.391-9.9844 8.383-22.508 8.383-23.734-10.359-10.359-77.141-11.492-89.949-12.242" fill="#7264b8"/>
   <path d="m222.22 86.699c-0.848 0.0938-1.789 0.1875-2.543 0.375-7.063 12.434-8.852 27.031-11.395 40.028-2.449 19.214-17.238 91.925 6.028 103.51 1.32-41.535 15.164-77.609 30.988-116.41 1.226-1.222 3.769-6.121 3.769-9.984-6.785-6.6837-16.765-17.516-26.847-17.516" fill="#7264b8"/>
   <path d="m496.883,90.3711c-1.223.1875-2.449.1875-3.672.1875 .562,7.0664.562,18.2734 1.223,20.1564h1.789c8.289-8.383 44.457-5.746 57.738-2.356 .094-6.593.094-6.593-.375-10.4527-22.137-5.6524-34.285-7.254-56.703-7.5352" fill="#a4835b"/>
   <path d="m571.012,93.668c-3.582,1.6953-7.442,1.3164-9.985.5664 .469,23.6366.188,18.4566 22.512,24.0156 2.164,0 4.613-.187 6.969-.281 .187-4.145-.281-10.364.187-19.969-7.156-2.7305-12.148-3.4844-19.683-4.332" fill="#a4835b"/>
   <path d="m163.17 99.129c-22.699 18.086-32.684 30.516-32.684 60.375 1.036 2.351 4.801 4.894 7.063 0.848 0-20.157 6.219-44.364 28.539-51.707 3.769-4.524 3.957-8.102-2.918-9.5161" fill="#231f20"/>
   <path d="m528.152,112.316c-21.472,1.321-38.711,9.137-57.832,14.223-24.207,1.316-59.34-15.73-75.918,8.004 5.371,65.363 25.055,139.582 48.606,199.578 6.875,11.774 8.851,29.102 23.64,28.16 .188-.375.469-.754.848-1.129-4.144-8.289-15.449-33.343-11.113-43.609 .656,0 1.222,0 1.883-.094 1.507.942 16.199,39.746 17.988,43.985 5.086-.094 10.176-.379 15.355-.661-1.414-4.332-3.957-10.925.282-15.918 4.332.754 6.687,11.586 8.57,15.45 3.676,1.129 10.644,2.164 15.637,1.41 .281-.754-3.203-24.676 4.992-16.481 1.414,4.332 1.414,4.332 3.672,17.614 9.324.75 28.164,6.968 36.078,5.461 .656-2.164 3.105-4.993 4.988-8.383 4.051-11.961 3.863-23.453 6.785-35.789 .657.093 1.41.281 2.164.281 10.36,15.449-5.839,35.32-4.238,47 16.484,3.859 8.949-7.254 21.191-8.762 3.204,3.297-2.73,12.621-2.73,14.789 5.465,3.578 3.957,2.45 10.738-2.261 15.071-19.024 30.707-36.918 42.102-60.559 .754-2.922 4.144-11.68 5.746-14.504 9.797-30.988 16.578-66.871 28.637-97.672 4.613-5.933 14.031-36.07 14.691-45.773-20.062-20.153-47.285-33.434-74.598-33.434-14.976,1.602-15.351,2.071-22.418,2.824-24.488,0-42.574-13.75-65.746-13.75" fill="#9c8dce"/>
   <path d="m504.04 175.98c-13.375 5.086 19.684 14.977 20.816 15.446 22.321 14.601 43.325 34.191 49.164 61.222 1.887 2.543 1.887 2.543 2.735 2.918 1.41-1.316 2.918-2.543 4.332-3.765-2.543-32.403-45.965-69.508-77.047-75.821" fill="#231f20"/>
   <path d="m633.363,346.082c-11.113,13.375-20.91,27.5-32.304,38.805-.379,1.129-.754,2.258-.946,3.39 3.489-1.414 8.856-4.429 13.473-1.226 0,2.828 0,2.828-.66,3.957-35.321,16.48-55.102,63.574-70.453,95.219-3.489,9.23-1.887,12.433-9.328,13.941-.942-.848-1.79-1.695-2.543-2.637 10.644-32.023 29.953-66.777 52.652-93.902v-.941c-6.027-4.993-15.445-6.688-22.227-7.821 .657,3.11 6.215,16.485-1.507,13.375-7.442-14.41-7.817-17.613-24.68-16.859-2.637,4.523-2.637,5.746-6.215,6.219-1.883-2.356-1.789-3.864-2.168-7.442-7.156,0-5.84,6.309-10.832,7.063-2.449-2.825-2.258-3.953-2.258-8.571-3.957-1.976-26.75-.66-30.14-.66-2.168,2.356-16.766,9.61-17.899,9.61-.469-.473-.941-.942-1.41-1.508 .281-2.731 1.977-4.332 4.613-7.442-32.871,0-37.109,42.289-37.109,65.743 .094.562.375,1.128.656,1.601 3.77-.66 3.77-.66 7.442-.66 11.21,12.902 3.488,10.453 22.511,10.453 15.449,6.781 3.957,26.656 29.578,16.199 21.004-1.883 18.274,15.446 32.024,22.793 9.984,0 27.785-2.824 35.699,6.5 13.938,29.387 11.586,7.063 31.176,19.684 .754,0 1.508-.094 2.262-.188 18.082-50.199 40.031-96.539 45.773-151.261-.281-4.145-3.297-33.059-5.18-33.434" fill="#9c8dce"/>
   <path d="m494.434,367.648c-10.454.286-26.938.286-35.508,3.11 .656,13.75 1.695,10.172 14.785,10.644 33.531-.379 65.746,1.789 99.277,8.379 5.934,2.449 5.934,2.449 8.758,2.922 .473-2.168 2.262-5.18 2.262-8.195-15.731-12.621-69.606-16.199-89.574-16.86" fill="#cbc1e6"/>
   <path d="m295.41,373.961c-41.347,9.512-98.43-1.789-129.699,26.184-4.238,5.367-42.199,56.886-49.922,56.886-12.715-8.008 28.07-26.656 23.453-39.746-15.918-21.945-35.887-24.676-59.2459-21.285-.2813.66-.4688,1.223-.6563,1.695 1.7891,42.102.1875,152.86 64.6132,152.86 34.473-5.746 65.274-74.121 76.387-103.696 1.226-5.839-.848-12.714 6.875-13.941 4.238,4.992 1.508,10.832.379,15.543 7.254-.566 6.5-10.457 10.453-15.543h2.543c3.297,3.391 2.074,6.973 1.695,10.551 20.254,0 41.918-2.168 62.637-3.297 1.133-20.438.473-41.067-1.504-62.352-2.355-3.011-4.898-3.859-8.008-3.859" fill="#fff200"/>
   <path d="m331.578,376.785c-6.969.754-14.691,2.356-19.969,4.711 .754,16.953 1.414,34 1.696,49.918 11.117,0 25.054,26.84 34.851,21.094 3.957-12.242-20.062-20.438-3.297-27.125 13,1.887 23.172,6.879 38.149,5.652-5.371-14.504-18.086-19.683-32.684-19.683-1.414-1.789-1.601-2.262-1.414-5.653 6.969-5.554 18.555,3.676 27.504,4.145-5.465-15.352-24.301-13.184-36.074-13.844-1.035-1.035-1.414-3.578.094-5.746 7.347-.473 11.394-1.414 21.379-1.602-2.637-12.148-21.567-11.207-30.235-11.867" fill="#a4835b"/>
   <path d="m367.652,376.785c-.847.094-1.695.281-2.449.281 1.039,5.465 4.899,11.305 6.313,16.954 15.543,10.738 9.89,18.179 17.8,31.363 .286.191.661.285 1.227.285 0-11.305 1.602-35.508-2.73-47.375-13.473-1.508-13.473-1.508-20.161-1.508" fill="#ec008c"/>
   <path d="m352.207,434.805c3.391,13.656 9.606,28.16-11.113,25.711-1.039,13.089-1.602,26.464-1.981,38.617 13.567-.945 37.207,3.39 50.203-1.793 2.075-12.715 3.11-43.981.567-61.313-.281-.093-.473-.281-.567-.375-8.945,8.098-27.878.094-37.109-.847" fill="#ec008c"/>
   <path d="m313.305,440.266c-1.789,3.109-1.696,5.746-3.106,7.816-12.527.285-24.867.566-37.207.754-.281,5.559.473,11.68.942,25.809-1.036,7.156-3.86,17.328-3.106,23.261 10.36,3.016 29.574,2.262 42.477,2.262 2.734-2.734 2.922-48.508 2.543-59.527-.942-.657-.942-.657-2.543-.375" fill="#ec008c"/>
   <path d="m324.52 447.52c-1.508 17.988-2.168 35.222-2.922 51.988 8.761 0 8.476 1.695 10.551-8.664 0-16.485 5.746-29.86-6.028-43.324h-1.601" fill="#a52d84"/>
   <path d="m256.227,449.59c-11.961,1.695-22.133,5.933-31.93,7.254-2.449,6.496-6.688,14.125-7.723,19.023 22.321,12.242 30.801,8.102 17.895,34 0,.754.094,1.508.187,2.168 4.899,1.129 12.907,4.899 19.121,4.899 10.27-18.84 15.825-45.305 9.985-67.344h-7.535" fill="#7264b8"/>
   <path d="m423.32,462.492c0,15.352-17.047,4.711-4.711,22.512 5.184,17.801-24.582,20.437 7.254,35.129 20.063,16.105-17.425,14.976 2.075,30.801 8.382,1.601 8.757,2.164 14.597,3.484-7.062-22.227-15.73-44.926-15.73-68.945 1.226-1.977 3.109-3.106 6.972-3.485 3.012,4.051 4.239,9.61 7.25,12.528 8.856,18.836 23.832,34.847 39.657,47.843 9.793,6.313 19.496,10.176 30.796,14.414 3.297,4.047 40.317,16.2 44.555,12.903 8.383,2.824 34.66,28.633 34.66,5.086-1.129-2.074-2.07-4.239-3.109-6.407-10.453,0 .566-18.46 1.887-21.003 1.129-11.489-5.84-12.997-14.696-12.622-13.843,4.899-17.519-9.98-21.472-19.871-14.602-11.113-30.332,4.993-44.176-12.808-11.871-27.313-25.149-.473-40.41-14.317-3.86-5.746-4.801-14.976-12.996-14.976-12.34,4.805-14.317-.754-18.461-9.418-7.16-.094-7.16-.094-13.942-.848" fill="#cbc1e6"/>
   <path d="m212.242,483.215c-17.992,31.551-46.25,90.699-90.332,68.754-.094.469-.094.847-.094,1.222 10.079,7.723 12.528,13.942 27.692,10.266 9.422-.941 9.422-.941 19.406-.941 18.367-6.969 63.859-47.375 63.859-70.45-5.933-3.011-14.035-8.851-20.531-8.851" fill="#7264b8"/>
   <path d="m215.633,492.727c-9.516,4.332-9.891,9.699-6.5,17.707 3.203.941 4.051,1.601 8.476.375 0-1.036 10.454-18.082-1.976-18.082" fill="#231f20"/>
   <path d="m436.32,502.898c1.129,18.274 7.438,37.957 15.727,53.684 9.984,1.32 22.891-.281 34.57-1.035 .094-.094.188-.375.375-.66-2.918-3.485-9.043-5.086-12.054-8.571-5.086-1.976-26.657-24.394-30.141-32.679-1.508-1.981-6.406-10.078-8.477-10.739" fill="#a4835b"/>
   <path d="m346.086,506.008c-2.262.281-4.523.562-6.594.656 .188,5.465 7.817,7.629 11.113,12.809-4.238,6.406-7.535,1.414-12.339-.844-2.071,6.121 5.464,18.176-3.766,18.176-.66-.754-.66-.754-4.051-12.715-2.355,0-4.238.754-5.558.754 .093,5.933.379,11.773.566,17.515 11.68,11.586 45.398-18.269 37.957-35.976-1.223-.375-1.223-.375-17.328-.375" fill="#a52d84"/>
   <path d="m302.004,507.043c-2.543,6.121-22.137,12.336-25.149,19.965 1.317,19.687 21.571,26.277 39.278,24.961 1.789-8.477 2.543-16.953 1.035-26.559-10.926-10.269-16.766,13.938-25.996,13.938-3.391-6.782 16.105-15.825 13-32.399-.754.094-1.508.094-2.168.094" fill="#a52d84"/>
   <path d="m320.371,506.949c-6.687.754-6.687.754-8.008,1.317 0,11.773 19.028,14.316 19.028,0-1.508-1.504-9.137-1.317-11.02-1.317" fill="#a52d84"/>
   <path d="m229.66 518.91c-6.215 4.051-11.113 14.223-16.48 18.93-8.289 11.207-19.875 19.121-29.672 26.562 28.445 14.219 40.312-11.586 53.406-32.402 2.918-8.758 2.918-8.758 2.918-10.359-2.918-1.789-7.629-2.731-10.172-2.731" fill="#fff200"/>
   <path d="m468.25,562.516c-.848.285-1.789.566-2.543.66 18.836,16.578 22.981,21.664 26.844,47.375-.66,18.461-6.5,27.312-20.156,37.39-.192.567-.192.942-.192,1.321 4.242,3.578 3.016,13.09 2.735,17.801-1.321-.286-2.543-.473-3.864-.754 0,5.273 2.637,3.105-1.129,8.097-11.773-.847-14.976,9.985-28.257,9.985-17.333-7.629-15.446-4.993-24.114-20.344-18.461,0 12.906,42.57 22.512,30.609-1.789-1.789-.66-4.992 1.977-7.156 17.519,5.18 31.933-6.594 50.769-12.715 19.781-11.207 43.141-19.402 63.203-34 19.496-11.398 22.512-13.281 24.676-37.676-.563-.66-.563-.66-3.484-1.41-2.731-8.101-2.168-12.433-9.606-13.754-6.125-9.793-14.695-9.418-24.586-9.793-2.824-3.484-23.265-10.078-27.41-8.476-4.707-.379-5.086-1.602-8.191-4.992-6.313-.379-17.145,3.203-19.5-1.508-6.121-2.164-10.739,2.637-15.918,1.508-2.918-2.168-2.918-2.168-3.766-2.168" fill="#a4835b"/>
   <path d="m438.297,563.082c-7.629,7.535-17.707,3.203-25.336,13.469-9.231,3.578-24.961-6.688-23.645,9.418 16.766,3.39 30.52,3.015 38.622,21.758 23.921,4.707-22.985,19.402-10.27,4.05 2.828-.945 2.828-.945 3.203-1.601-9.043-16.953-25.523-19.028-41.539-12.246-27.219,31.457 4.238,32.304 14.32,56.699 15.821,12.715 34.379-5.18 51.426-10.172 6.781-.375 14.317-.375 22.418-2.07 36.922-23.078 11.867-79.305-29.199-79.305" fill="#cfa550"/>
   <path d="m152.71 571.28c-9.699 2.731-16.953 1.602-24.016 9.231h-4.144c-0.754-1.039-1.508-1.981-2.168-3.016-9.418 2.637-8.477 16.481-21.192 17.235-1.8863 7.441 1.504 35.132-10.832 18.742-4.2383 34.379 43.422 45.777 64.52 64.707 24.676 16.293 52.746 37.672 78.93 50.765 13.093-7.914 22.796-25.996 25.246-41.914-1.133-1.129-2.075-1.504-3.203-1.789-3.864 6.313-6.688 9.985-10.551 13.848-33.531 14.031-45.586-9.043-34.567-38.996-2.734-4.238-6.406-4.988-8.382-9.981-25.809-23.171-19.782-64.613 15.257-74.593-6.027-6.028-52.746-1.887-64.898-4.239" fill="#a4835b"/>
   <path d="m244.266,577.965c-27.032,1.504-43.989,4.992-50.11,32.211-1.226,18.929 7.723,33.058 22.699,42.664 .094.754.282,1.508.473,2.262 6.781,2.351 39.559,14.218 41.727,21.566 12.715,15.352 24.863-8.195 33.625-16.199 15.07-4.992 16.011-8.856 16.578-26.184-3.297-36.355-41.258-29.48-59.813-9.605-.375,1.222-.375,1.222-.281,3.39 4.145,2.825 8.945.188 8.945,6.594-9.418,5.93-28.066-6.781-22.132-15.543 2.73.281 4.898,1.695 7.441,1.695 1.602-3.296 8.758-6.496 9.605-10.265 1.227-.094 1.981-.942 10.739-5.934 7.066-2.07 15.543-2.449 23.359-4.992 .473-8.289-1.035-12.527-11.301-12.527-3.488,4.238-3.488,4.992-7.441,4.992-7.629-8.945-12.34-12.715-24.113-14.125" fill="#cfa550"/>
   <path d="m12.6523,590.961c3.3907,13.656 55.8555,66.586 63.9532,67.906 .1914-.566.2851-1.035.5664-1.508 1.3203,0 3.5781-.187 5.7461.848 0,11.113-14.0352,18.18-14.0352,33.059 5.4649,20.535 47.3792,39.371 66.4022,50.859 .567.191 1.32.285 2.074.285 0-13.562 17.993-30.894 32.871-30.894 20.536,14.695 25.243,10.078 18.461,37.484-2.543,6.031-6.121,12.34-7.25,17.145 10.454,4.425 39.278,22.414 43.043-.567-6.5-5.746-14.597-9.418-22.605-10.359 0-4.426-1.129-7.16 3.863-11.586 7.817-21.285 19.875,5.652 32.684,5.652 1.129-1.98 1.883-2.73 1.883-6.5-31.743-23.547-67.911-43.043-99.559-66.777-6.969-2.164-16.953-11.301-22.984-15.258-19.684-6.875-39.8402-26.746-58.5863-36.637-11.8672-8.851-33.7188-28.633-46.5274-33.152" fill="#00a650"/>
   <path d="m590.133,603.297c-.66.285-1.227.566-1.793.66-.754,4.523-3.672,14.883-3.203,17.801 4.148,0 21.855-10.926 27.789-16.293-3.77-2.637-18.84-2.168-22.793-2.168" fill="#9c8dce"/>
   <path d="m390.918,612.059c-2.543,2.449-2.355,3.011-2.73,4.707 2.449,2.543 3.109,2.922 6.968,1.32 .848-4.051.942-6.027-4.238-6.027" fill="#231f20"/>
   <path d="m616.691,612.906c-19.875,12.242-39.933,25.617-59.433,35.696-16.293,12.148-35.981,20.437-53.215,28.726-11.586,9.606-36.078,11.113-44.555,19.59-15.539,4.992-30.703,11.207-45.304,14.883-10.551,3.953-20.063,3.39-30.141,5.648 1.223,5.086 56.23,15.258 63.012,16.485 23.172,28.347 16.109,36.257 58.586,17.8 4.617-3.296 4.617-3.296 6.5-3.957v-1.601c-15.258-20.719-18.93-42.102 11.492-49.633 4.992.375 10.078,2.543 14.976,2.164-1.414-2.73-1.035-8.098-1.129-12.055 8.946-33.718 30.704,6.496 35.321-17.047 5.84-9.796 17.426-3.957 21.191-17.046 2.449-2.922 25.336-34.852 23.266-39.465-.188,0-.473,0-.567-.188" fill="#9c8dce"/>
   <path d="m380.18 619.88c-2.637 2.637-2.164 2.918-2.352 5.273 3.199 3.297 10.36 1.602 5.18-5.273h-2.828" fill="#231f20"/>
   <path d="m392.99 622.89c-9.23 7.343 5.649 11.961 5.649 4.238-4.426-4.051-5.274-4.617-5.649-4.238" fill="#231f20"/>
   <path d="m287.402,625.434c-2.543,3.484-2.73,4.707-1.41,7.629 2.356.562 2.356.562 5.18.187 2.262-3.391 3.016-7.816-3.77-7.816" fill="#231f20"/>
   <path d="m277.14 633.25c-3.391 2.918-2.918 2.73-3.203 5.652 2.636 2.637 4.429 2.825 8.289-0.566v-2.449c-2.258-1.977-2.918-2.356-5.086-2.637" fill="#231f20"/>
   <path d="m287.969,641.16c-4.426,2.824-3.11,4.332-2.164,7.442 2.636.093 4.047,1.222 7.156-.661 0-3.957-.375-6.781-4.992-6.781" fill="#231f20"/>
   <path d="m447.53 651.33c3.203 11.961 2.356 13.848 1.602 24.488 8.664-1.601 10.266-15.07 7.535-23.453-3.769-0.754-3.769-0.754-9.137-1.035" fill="#fff"/>
   <path d="m365.582,656.605c-3.109,5.086 6.594,6.5 10.359,6.219 .094-.472.379-1.035.567-1.508-3.672-.941-7.817-4.711-10.926-4.711" fill="#fff"/>
   <path d="m217.234,664.047c-7.16,8.476-5.843,28.258 5.368,30.422-2.168-10.547-3.11-16.012 3.957-25.617 .187-.567.281-1.129.375-1.789-3.012-1.508-7.254-3.016-9.7-3.016" fill="#fff"/>
   <path d="m438.766,668.57c-.848,1.504-.848,1.504-1.129,3.485 1.32,1.222 1.508.847 3.676,1.129 .562-1.036 1.316-1.602 1.695-4.332-1.508,0-2.828-.188-4.242-.282" fill="#fff"/>
   <path d="m586.742,668.57c-.379.469-4.523,1.129-5.277,1.883-7.723,28.067-16.578,8.004-32.871,8.945-8.102,8.762-4.524,19.309 3.859,25.055 0,8.098-1.223,6.121 4.145,13.75 4.804,13.375-4.047,39.18 16.39,37.957 9.043-22.605 16.578-6.027 31.176,2.164 29.484,7.442 3.016-12.148 22.137-22.789 13.469-2.262 15.164-6.687 15.918-21.851-3.203-9.704-22.793,1.41-22.793-26.657-3.863-10.734-10.832-4.238-18.461-8.004-5.652-6.121-6.219-9.796-14.223-10.453" fill="#fff200"/>
   <path d="m288.348,679.211c.75,7.816 6.875,10.172 14.031,10.172 .66-.66.66-.66.66-2.731-2.449-2.543-11.207-5.273-14.691-7.441" fill="#fff"/>
   <path d="m229.289,683.168c-.473.094-.848.094-1.226.094 .472,5.461.472,5.461 1.226,6.968h2.918c.379-.566.754-1.222 1.227-1.789-.473-1.414-1.036-2.824-1.508-4.332-.848-.187-1.696-.566-2.637-.941" fill="#fff"/>
   <path d="m410.887,687.781c-11.492,6.875-22.133,12.996-31.555,20.91v1.508c14.035,0 29.672-4.332 43.988-9.23 0-.473.094-.942.282-1.508-4.614-3.578-7.911-6.781-11.207-11.586-.567,0-1.036,0-1.508-.094" fill="#9c8dce"/>
   <path d="m589.75 695.98c-42.102 7.91-1.129 57.734 17.801 32.492 7.914-15.727 1.039-32.492-17.801-32.492" fill="#231f20"/>
   <path d="m208.85 700.59c-7.438 7.535 9.515 21.383 18.367 15.824 0-3.578-16.574-15.824-18.367-15.824" fill="#231f20"/>
   <path d="m589.28 703.13c-23.078 4.617-5.558 24.019 10.453 24.019 9.61-10.457 3.957-23.172-10.453-24.019" fill="#2e3192"/>
   <path d="m527.402,703.98c-19.781,7.821-22.89,9.325-14.882,29.668 21.945,36.735 63.484-4.992 22.226-27.878-.281.191-.562.378-.754.472-.187-.281-.281-.66-.375-1.035-2.168-.379-4.238-.754-6.215-1.227" fill="#ed1c24"/>
   <path d="m523.16 713.5c-5.742 1.223-4.894 1.598-5.648 5.555 4.238 2.73 18.554 5.933 11.207 14.597-4.711 2.637-3.766 3.016-3.766 6.973 11.774 7.91 22.887-21.004-1.793-27.125" fill="#231f20"/>
   <path d="m163.92 720.18c-25.527 3.297-28.539 47.754 5.933 47.754 7.723-6.407 11.395-16.579 15.071-27.692 0.754-14.691-8.102-18.836-21.004-20.062" fill="#a4835b"/>
   <path d="m173.906,727.152c-.379.563-.379.563-8.668,2.164-15.164,8.95-14.035,19.969-3.297,31.551 1.793-.281 3.489-.656 5.372-1.035 0-1.316 0-2.73.093-4.238-8.949-7.063-8.664-17.047 3.672-20.906 1.981,3.199-.469,6.683 4.992,6.683 2.075-3.105 5.559-14.219-2.164-14.219" fill="#231f20"/>
   <path d="m551.42 748.06c-1.977 1.32-3.953 2.734-5.84 4.05-15.633 2.731-17.047 30.989-4.992 35.789 10.078-9.039 14.695-12.523 14.695-28.914 0-0.468-2.261-12.054-3.863-10.925" fill="#00a650"/>
   <path d="m342.88 750.51c-22.793 23.453-46.531 24.867-71.68 38.332-16.293 10.832-19.969 29.859-23.453 46.246 1.508 26.184 16.578 46.996 39.371 58.867 11.399 9.606 36.547 3.106 49.449-2.828 6.594-4.992 6.594-4.992 7.535-4.992 10.833 12.808 32.403 16.199 48.887 16.199 32.496-6.027 45.305-24.957 43.422-59.805-7.441-26.75-22.984-40.027-48.039-51.238-18.836-12.809-32.305-18.363-41.254-39.746-1.035-0.656-1.035-0.656-4.238-1.035" fill="#231f20"/>
   <path d="m522.41,754.277c-9.89,1.883-8.668,15.164-6.785,21.473 8.48,0 14.695-11.492 14.695-20.531-1.32-1.321-6.968-.942-7.91-.942" fill="#00a650"/>
   <path d="m342.883,761.715c-18.18,18.086-47.473,23.078-69.137,32.871-34.566,31.176-17.332,75.16 18.649,95.223 15.168,5.742 39.843,2.636 49.921-12.907 1.602-4.425.754-12.523 8.289-12.523 .379.656.848,1.223 1.415,1.883-2.168,11.207-5.184,12.054 2.73,18.742 22.133,12.148 45.777,17.328 66.594-3.484 24.394-43.418-5.84-69.793-42.953-87.688-15.352-11.301-24.207-16.387-34.192-31.926-.469,0-1.035,0-1.316-.191" fill="#ed1c24"/>
   <path d="m271.2 837.44c-7.441 5.649 4.992 26.844 7.254 32.211 18.367 20.344 17.895 9.231 29.574-7.16v-2.445c-1.883-1.227-3.765-2.543-5.652-3.77-11.207 0-20.625-11.3-27.406-18.836h-3.77" fill="#231f20"/>
   <path d="m277.984,850.91c.848,10.266 6.5,14.692 13,21.567h2.731c11.586-14.598-6.027-9.7-14.129-21.286-.66,0-1.129-.187-1.602-.281" fill="#fff200"/>
  </g>
 </g>
</svg>
