<?xml version="1.0" encoding="UTF-8"?>
<svg enable-background="new 0 0 368.475 414.2" viewBox="0 0 368.475 414.2" xmlns="http://www.w3.org/2000/svg">
 <path d="m368.475,63.381c-3.098-4.988-10.829-6.354-16.33-8.416-5.844-2.189-.187-3.487-2.334-6.749-2.26-3.433-5.598-5.172-11.33-7.332-7.207-2.715-13.186-5.785-20.332-4-11.343,2.834-15.741,1.317-27.91-2.667-15.413-5.045-35.779-8.828-49.242-18.08-2.818-1.938-.388-6.521-3.832-9.415-3.714-3.119-13.764-4.979-18.413-6.25-7.476-2.042-14.138,3.238-19.413,1.917-13.084-3.276-17.422-2.328-29.994,1.999-6.454,2.222-15.019,4.138-20.83,7.499-9.06,5.24-11.231,23.367-14.19,34.389-1.229,4.581-3.568,27.646-10.724,25.601-4.819-1.377-4.648-1.676-7.081-3.333-10.716-7.297-18.223-14.453-31.495-17.83 2.202-.809 3.674-2.281 6.332-2.666-.299-1.05-.5-2.043-.666-2.667-3.429,1.127-6.871,2.293-9.999,4.166 .768-1.951 1.045-4.4 2-6.332-.854,1.758-2.997,3.86-4,5.666-1.142-3.671-2.606-7.533-5.333-9.665 .435,2.486.131,4.981 1.167,7.499-2.052-2.199-4.63-3.763-7.499-4.5 2.316,2.14 4.647,4.415 6.831,6.666-4.415-2.278-10.181-4.869-15.163-3.166 2.637,3.018 6.619,1.024 10.666,3.5-8.408,2.597-19.493.285-28.163,6.832-4.282,3.234-25.231,24.82-21.996,26.996-5.851,10.753-2.719,20.626-5.332,30.994 1.377-1.569 3.079-2.293 4.332-4.498 3.802,10.27 7.18,20.729 13.498,29.162 2.047,2.732 5.46,5.684 7.166,8.664 2.969,5.187 1.812,1.767 1.667,8.166-.229,10.063-2.262,24.9 9.164,30.994 10.081,5.376 16.163-8.26 23.663-6.666 2.349.499 12.863,10.35 13.165,12.166 .372,2.232-4.564,4.553-4.333,7.165 .267,3.032 6.835,8.499 8.916,10.581 1.541,1.541 5.234,6.947 7.248,7.415 5.754,1.336 2.172-2.909 6.666-5.998 5.282-3.632 5.658-.855 9.665,4.999 2.006,2.931 4.863,6.357 6.333,9.497 2.245,4.794 5.821,10.498 9.665,16.332 5.403,8.201 3.998,18.499 3.998,28.327 0,6.432-.785,8.781 4.5,12.748 4.766,3.576 9.853,8.901 14.831,11.247-.483-12.611 12.45,6.359 16.83,8.5 7.369,3.603 18.493,4.537 26.995,6.664 7.176,1.795 2.316,5.458-.667,12.665-3.106,7.503-10.33,18.347-10.33,26.578 0,6.93 7.199,15.149 10.164,21.079 1.22,2.44 3.838,11.092 5.998,12.498 2.232,1.454 3.361.094 6.666.167 4.191.094 8.185-1.198 12.166-.499v.665c-14.891,4.724-66.887,6.531-65.49,29.661 15.331,2.957 33.885,2.917 48.325-3.665 9.927-4.525 16.876-6.85 25.496-4.833 .734.172 1.994,2.162 3.165,2.5 1.433.413 5.072-.813 6.666-.999 3.873-.451 7.776-.356 11.331-.502 6.66-.273 13.608-.238 20.829.334l-12.164-31.161c-3.645,9.175-2.735,17.306-4.665,26.496-.912-4.976-.774-13.105-4.333-16.664-6.425-6.425-9.961-7.462-14.497-16.081-8.408-15.973-15.413-26.804-2.166-43.075 6.661-8.182 8.992-12.706 17.997-7.165 5.856,3.604 11.087,9.3 15.413,14.581 8.214,10.024-3.214,29.82-6.916,39.993-2.079,5.714 8.635,31.987 13.165,32.742 1.754.292 2.893-4.021 6.666-4.497 6.591-.83 14.331,6.674 20.33,7.998 8.65,1.91 44.703,7.065 36.326-9.165-9.479-18.367-38.166-11.117-53.657-19.163 7.087-2.603 10.37-.568 12.997-9.833 2.805-9.894 6.381-20.739 8.415-30.91 3.266-16.334-20.155-29.097-27.244-40.909-5.365-8.941-.335-11.446 4.582-20.58 3.854-7.16 7.248-14.83 7.248-23.163 0-3.656-1.62-8.075-1.165-11.58 .562-4.328 3.665-6.783 3.665-11.916 0-10.192-4.035-10.628 5.832-14.246 7.89-2.893 16.088-5.878 24.496-5.999 6.748-.098 13.14.839 17.496-5.167 4.325-5.961 1.894-6.956.5-13.331-.4-1.832-1.112-5.324-1.666-7.331-.266-.963.771-3.005.667-4.166-.113-1.262-2.122-1.952-2.166-2.5-1.279-15.89 7.829-38.521 13.072-56.123 5.853-19.648 12.799-39.045 18.089-58.855" fill="#0a192e" fill-rule="evenodd"/>
 <path d="m178.675,144.366c-.422-4.594 4.115-16.798 5.712-23.042 4.021-15.728 8.941-31.209 12.618-47.028 5.039-21.678 12.843-42.853 15.831-65.071-9.615,1.519-13.128,37.379-15.997,46.824-3.216,10.584-4.186,21.696-7.332,32.328-4.551,15.375-5.407,44.196-15.997,55.989 2.11.708 4.292.305 5.165,0" fill="#b37635"/>
 <path d="m228.166,14.556c-3.883-2.663-8.589-2.27-12.665-4.499-7.941,27.522-12.725,55.689-21.218,83.071-5.005,16.138-5.822,38.908-15.274,52.238 4.395.78 8.732,1.833 12.997,3.165 .521-5.033 6.306-2.737 10.164-2 2.829-21.348 11.404-44.538 17.748-65.404 6.394-21.034 10.95-43.321 19.579-63.571-3.705-1.255-7.554-1.963-11.331-3" fill="#7a5226"/>
 <path d="m74.361,178.526c10.439,8.271 20.602,16.419 32.993,21.58 6.135,2.555 14.254,9.065 20.663,8.249-3.335-8.899-6.61-35.284-15.33-38.826 7.172-8.65 37.14-28.386 36.66-37.493-.398-7.565-10.34-16.769-16.498-13.998 4.969-7.557 16.251-7.881 12.998-19.247-2.817-9.843-14.458-26.484-25.996-23.913-6.146,1.37-15.646,23.193-19.331,15.499 .693.266-2.107.889-2.5.833 .03-1.463.067-1.839-.5-3-1.444,3.56-2.383,3.297-5.166,4.333 .052-.258.468-2.188.5-1.834-1.81-2.239-3.309-2.633-5.833-4.332-1.38.302-3.167.536-4.5,1 .004-.898.083-1.825-.166-2.666-1.972,1.879-4.08,1.706-6.166,2.833 .574-1.771-.017-3.672.5-5.499-1.689.775-3.742,1.036-5.329,1.998 1.978-1.461 3.745-3.464 5.667-4.999-2.454,1.159-5.22,2.203-7.499,3.5 2.134-1.351 4.089-3.051 6.166-4.5-3.957,1.32-7.4,3.674-11.499,4.5l1.167-1.167-1.333-.166 8.832-5.832c-16.755.54-22.973,18.202-38.66,20.162 1.571-1.788 2.762-4.048 4.5-5.666-3.212,1.823-14.826,10.855-16.497,13.665-7.541,12.681 13.03,35.788 21.996,44.992 1.931-2.908 4.263-5.563 7.165-7.499-8.12,12.237-16.155,26.124-3.665,39.659 14.35,15.551 19.197-13.654 29.328-8.832-2.706,2.089-3.944,4.341-2.667,6.666" fill="#ffdede"/>
 <path d="m24.37,101.54c2.003-8.964 5.815-17.056 13.498-22.496-5.281,5.774-10.394,12.233-11.665,20.164 8.984-5.221 13.949-15.063 22.162-21.163l-9.665,13.998c9.482-1.102 13.039-12.248 18.664-17.165-.206.569-.539,1.587-.833,2.333 6.012-1.095 15.983-5.62 21.997-2.666l-1.334,1.166c1.113.11 3.226,1.053 4.5,1.334-2.637,1.888-4.781,4.592-3.999,7.831 3.073-2.765 5.488-8.419 10.164-6.165-2.532,1.538-4.503,3.711-4.332,6.998 1.71-.391 3.206-.273 4.832-.999 .205,1.016-.005,1.914.333,2.833 1.106-1.245 2.81-1.722 3.666-2.5 .06,1.217.45,2.639.5,3.666 1.037-1.61 2.586-3.138 3.333-5.167-.888,2.285-1.377,4.998-2.166,7.333 1.954-2.429 3.513-5.103 4.666-7.998-.333,1.409-.137,3.357-.166,3.833l.833-2.5c-.264,1.954.14,3.85.166,5.499 .747-1.067 1.72-1.959 2.166-2.5 .224.836-.015,1.773.5,2.5 5.41,1.253 7.482-14.645 15.83-17.331-2.675-1.449-5.704-3.988-6.832-7.331-3.423.008-12.824-4.187-15.163-7.499 .429-.228.967.451 1.499,0-4.024-2.469-11.533-6.701-15.164-4.5 .791-1.39.999-2.667 2.166-3.999-1.681,1.094-3.266,1.353-4.999,2.999-1.035-1.516-2.61-3.366-3.333-6.332 .26,2.063-.603,3.177-.833,4.499-2.049-.232-1.072.317-2.166.833-8.153-1.815-19.066.443-25.829,5.333 1.992-.551 4.195-.773 6.166-1.333-10.191,4.129-20.99,10.434-27.496,19.497 3.071-1.418 5.888-3.254 8.832-4.833-8.57,8.417-16.992,15.878-17.83,29.829l2.333-3.667c-1.272,3.76-2.428,7.741-1.833,11.665 3.692-10.786 9.321-24.021 19.162-30.494-5.08,4.739-16.203,19.033-12.33,24.495" fill="#bf0000"/>
 <path d="m185.84.059c-1.176,4.987-6.015,25.699-9.83,25.162 1.707-7.15 1.396-22.808 9.83-25.162" fill="#b57835"/>
 <path d="m178.509,3.392c-.368,3.202-1.133,6.272-1.833,9.414-.333,1.497-.628,3.73-1.334,5.083-3.352,6.426-.106,2.355-4.833,4.667-7.373,3.606-16.808,4.318-24.494,7.332 .588-3.676 3.193-13.935 5.665-16.497 4.796-4.973 20.6-7.443 26.829-9.999" fill="#b57835"/>
 <path d="m230.5 6.391c4.054 2.388 10.991 2.811 6.833 8.499-5.332-3.472-17.817-7.212-24.495-8.499 0.764-6.689 12.662-1.169 17.662 0" fill="#7a5226"/>
 <path d="m148.013,14.223c-.96,5.011-2.478,14.916-6.998,16.664 .423-5.996 3.434-12.538 6.998-16.664" fill="#b57835"/>
 <path d="m221.5 22.555c-1.958 10.527-7.365-8.364 0 0" fill="#0a192e"/>
 <path d="m290.99 36.552c4.564 2.113 23.682 4.797 25.661 9.332 1.52 3.481-8.612 22.357-10.164 26.494-5.173-8.115-25.271-10.574-34.243-14.163-12.688-5.076-24.874-10.839-38.577-12.832 1.484-4.347 3.056-23.749 7.165-25.662 3.596-1.673 20.823 7.249 24.829 8.665 8.225 2.909 17.136 6.374 25.329 8.166" fill="#5a3d1c"/>
 <path d="m220.668,22.555c-1.431.956-1.553,3.438-2.166-1.167 .669.03 2.039,1.168 2.166,1.167" fill="#d1c5be"/>
 <path d="m171.676,26.887c-1.611,8.497-2.762,18.09-6.332,25.829-.265.574-24.231,7.519-25.994,5.666-2.109-2.217 3.491-14.527 4.332-17.164 4.129-12.949 16.469-14.97 29.995-17.497 .145,1.664-.78,2.018-2.001,3.166" fill="#b57835"/>
 <path d="m232.332,27.054c-1.515,1.594-3.361,1.924-6.332-.167 1.914-3.177 4.752-3.949 6.332.167" fill="#0a192e"/>
 <path d="m178.18 26.887c-1.007 6.671-4.481 24.817-9.833 28.495 0.544-5.621 4.255-29.026 9.833-28.495" fill="#b57835"/>
 <path d="m230.498,26.388c1.389.363-2.177.86-2.332.833 1.268-2.808 1.666-1.008 2.332-.833" fill="#d1c5be"/>
 <path d="m200.172,34.886c-.724,9.671-6.255,19.15-6.833,28.161-4.604-.882-9.236-3.227-13.997-4.416-9.067-2.264-5.342-7.018-3.5-14.83 1.537-6.518 1.331-17.192 9.665-14.414 4.949,1.649 9.955,4.852 14.665,5.499" fill="#5a3d1c"/>
 <path d="m142.848,33.719c-.627-.018-1.796.479-2.5.5 1.423-1.675 1.981-.514 2.5-.5" fill="#b57835"/>
 <path d="m141.68 35.552c-0.04 5.613-2.652 22.467-8.165 22.996 1.43-6.776 2.336-19.121 8.165-22.996" fill="#b57835"/>
 <path d="m80.525,38.718c-.478,1.073.481,1.989-.833,2.833-1.05-2.072.407-1.877.833-2.833" fill="#0a192e"/>
 <path d="m39.866,50.216-.5,2.666c-15.486-3.67-5.287-20.256.5-2.666" fill="#0a192e"/>
 <path d="m37.867 50.05c-12.926-3.696-1.554-12.842 0 0" fill="#e2ffe9"/>
 <path d="m331.81 41.552c5.25 2.384 19.39 3.629 15.831 10.665-5.881-3.085-21.551-4.943-25.329-9.499-5.495-6.626 6.705-2.173 9.498-1.166" fill="#7a5226"/>
 <path d="m318.483,42.884c-.958.337-1.248,1.825-3.666-1.166 1.292-.988 2.875-1.963 4.499-2.333 .178,1.364-.391,2.401-.833,3.499" fill="#b37635"/>
 <path d="m321.48 44.717c-8.136 23.002-15.856 46.062-23.15 69.346-3.104 9.911-15.668 66.301-24.674 67.13 0.49-7.084 4.761-15.064 7.165-21.663 5.377-14.753 9.702-29.611 14.331-44.659 3.936-12.798 8.137-25.289 12.164-37.994 2.423-7.643 5.619-30.999 14.164-32.16" fill="#b37635"/>
 <path d="m346.145,53.716c-11.989,22.527-18.024,49.949-25.828,74.154-4.405,13.663-10.302,27.347-14.498,40.826-1.942,6.239-1.463,9.417-6.166,13.497-3.774,3.273-9.546,4.486-13.83,3.833-14.725-2.247-2.436-19.267.833-28.828 10.88-31.825 19.589-64.387 31.161-95.983 1.977-5.396 3.99-10.779 5.998-16.163 6.816,4.462 15.081,5.201 22.33,8.664" fill="#7a5226"/>
 <path d="m234 48.883c12.016 0.543 22.707 7.606 34.575 10.998 11.64 3.326 25.251 13.444 37.244 13.664-2.392 9.199-5.652 18.155-8.665 27.161-12.132-4.586-24.469-8.629-36.587-13.246-10.003-3.812-25.743-12.702-36.232-12.081 0.598-5.839 5.6-26.074 9.665-26.496" fill="#5a3d1c"/>
 <path d="m39.866 58.548c2.02-1.276 4.113-2.445 6.167-3.666-1.866 1.606-4.241 2.695-6.167 3.666" fill="#991f00"/>
 <path d="m161.845,62.214c-.739,4.271-2.19,18.525-5.167,20.996-4.148,3.443-20.756.857-22.83-5.833-5.628-18.154 19.764-17.986 30.162-21.662 .009,2.296-.865,4.716-2.165,6.499" fill="#b57835"/>
 <path d="m169.01,56.882c-2.207,6.654-3.841,22.912-8.999,26.496 1.523-8.757 3.32-18.371 6.5-26.496 1.11,1.296 1.504.045 2.499,0" fill="#b57835"/>
 <path d="m180.84 62.214c5.527 1.164 10.193 2.111 11.331 6.332 0.99 3.676-6.695 24.925-7.665 24.579-3.529-1.26-19.191-4.986-20.83-7.915-2.372-4.24 6.459-22.755 7.499-27.828 2.93 2.126 6.285 3.458 9.665 4.832" fill="#5a3d1c"/>
 <path d="m327.32 55.215c2.697 1.214 1.848 7.008-3.167 4.666-5.514-2.575-0.639-8.278 3.167-4.666" fill="#0a192e"/>
 <path d="m325.814,59.048c-1.311-.299-2.104.327-3.332-.833 .913-1.686 1.721-2.453 3.166-3.5 1.492,2.126.492,2.937.166,4.333" fill="#d1c5be"/>
 <path d="m131.35,75.045c-3.925-3.255.243-11.124 3.834-12.332-1.21,4.07-2.423,8.546-3.834,12.332" fill="#b57835"/>
 <path d="m339.48 59.715c0.816 3.925-5.209 6.554-7.165 2.999-2.217-4.031 5.079-5.56 7.165-2.999" fill="#0a192e"/>
 <path d="m365.642,63.714c-.88,3.2-8.749,25.529-9.665,25.163-6.993-2.801-16.093-2.669-16.663-9.499-.236-2.829 4.664-17.458 6.665-19.329 4.672-4.369 12.892,1.663 19.663,3.665" fill="#5a3d1c"/>
 <path d="m337.479,59.215c-.919,2.515-.309,4.277-3.999,3.499 .788-2.221 2.203-2.565 3.999-3.499" fill="#d1c5be"/>
 <path d="m297.82,69.046c.944.445 1.889.89 2.833,1.334-.863-.472-1.968-.934-2.833-1.334" fill="#5a3d1c"/>
 <path d="m72.194,77.879c1.438-.733 2.436-1.582 4-1.834l-4,1.834" fill="#991f00"/>
 <path d="m255.16 88.376c9.482 3.694 30.947 6.019 37.992 12.832 5.374 5.197-2.306 19.882-4.833 28.328-21.686-6.223-42.955-15.267-64.405-22.414-10.679-3.559-7.451-6.154-4.749-15.413 1.457-4.993 2.704-9.978 4.5-14.832 10.146 4.521 21.487 7.682 31.495 11.499" fill="#5a3d1c"/>
 <path d="m9.706,88.209c.95.604 1.596.527 2,1.667-19.685,2.543-10.414-10.687-2-1.667" fill="#0a192e"/>
 <path d="m6.873 88.209c-10.295 2.596-6.62-7.294 0 0" fill="#e2ffe9"/>
 <path d="m127.352,83.044c-3.53,2.189-6.771,5.432-8.332,9.331-2.601,6.499 2.133,3.979 5.499,8.166 3.079,3.83-.719,3.784 3.333,6.166 2.114,1.242-.359-3.75-.667-4.166 1.871.768 4.753,4.846.333,5.665-5.382.998-5.666-5.062-7.832-8.165-1.652-2.366-3.67,1.017-5.165-2.833-.728-1.873.335-4.672 1.167-6.333 2.273-4.541 5.732-12.005 11.664-7.831" fill="#0a192e"/>
 <path d="m56.531,86.376c-1.33,2.498-1.732,4.697-3.5,1.167 2.839-.539 2.948.823 1.167-1.834 1.136-.076 1.871.468 2.333.667" fill="#0a192e"/>
 <path d="m208.34 84.043c-4.829 13.172-9.205-11.864 0 0" fill="#0a192e"/>
 <path d="m156.345,84.876c-5.848,11.264-6.054,24.357-10.664,35.827-1.451-1-3.383-3.576-4.166-5.165 11.356-7.833 6.722-20.545-.334-30.161 5.012-.68 10.419.133 15.164-.501" fill="#b57835"/>
 <path d="m161.01 84.71c-1.663 10.39-9.114 21.827-8.166 32.494-6.71-0.131-1.001-8.894 0-12.998 1.33-5.45 1.077-19.415 8.166-19.496" fill="#b57835"/>
 <path d="m206.837,84.043c-4.116,1.396-3.878.668 0,0" fill="#d1c5be"/>
 <path d="m173.676,91.709c3.755,1.13 7.501,2.864 11.499,3.832-2.577,7.172-2.409,20.622-6.999,26.496-4.013,5.136-8.829.308-16.081-2.334-12.764-4.649-2.516-20.515.416-31.661 3.785.758 8.252,1.738 11.165,3.667" fill="#5a3d1c"/>
 <path d="m52.197,95.375c-1.213,4.315-4.485,2.698-5.998-.833l.999-1.001c3.31,5.736 5.146,2.31 1.667-.999 2.134.454 2.403,1.865 3.332,2.833" fill="#0a192e"/>
 <path d="m63.029,94.542c-.528,4.585-4.756,5.085-5.999.999 7.127,2.943 4.552-2.956-.667-2.5 3.135-1.52 5.163-.657 6.666,1.501" fill="#0a192e"/>
 <path d="m345.146,87.376c-2.612-.694-5.144-1.587-7.499-2.832 2.387.852 5.676,2.06 7.499,2.832" fill="#5a3d1c"/>
 <path d="m356.477,93.042c-3.772,2.448-4.547,10.221-5.832,14.832-3.612,12.959-8.776,7.354-21.667,3.687-1.991-.566 6.503-21.185 7.419-23.934 .89-2.673 16.865,4.509 20.08,5.415" fill="#5a3d1c"/>
 <path d="m347.98 88.209 3.167 1.5-3.167-1.5" fill="#5a3d1c"/>
 <path d="m21.204,101.874c-1.224,2.078 1.136-2.961 1-2.666 .413,1.434-.435,1.706-1,2.666" fill="#991f00"/>
 <path d="m318.98 93.375c-1.19 10.462-8.581-6.965 0 0" fill="#0a192e"/>
 <path d="m317.482,92.876c-1.162,1.603-.126,4.13-3.165,1.999 .91-1.056 2.596-1.558 3.165-1.999" fill="#d1c5be"/>
 <path d="m54.531 104.37c-5.289 3.877-20.92-1.306-30.161 6.833 6.082-10.305 20.088-7.54 30.161-6.833" fill="#0a192e"/>
 <path d="m135.016,110.04c-1.77.558-2.095-.532-2.666-4.666 .616,1.402 1.46,2.952 2,4.498-.486-2.569-.723-4.427-2-6.997 2.26,2.228 2.759,4.723 2.666,7.165" fill="#0a192e"/>
 <path d="m40.866 107.37c-2.352 2.679-7.266 3.611-9.831 7.167-0.318-3.956 6.196-6.323 9.831-7.167" fill="#0a192e"/>
 <path d="m132.351,112.705c-.151-.966-.455-3.761-.667-5.499 1.656,2 .762,3.085.667,5.499" fill="#0a192e"/>
 <path d="m48.865,111.706-2.332.833c.112.03.428.403.5.5 .292.09 1.164-.415 1.5-.5 .437,4.406-6.551,4.743-10.666,6.831 2.625-2.19 6.583-3.591 9.998-5.165-3.486.87-6.958,1.904-10.332,3.165 2.314-4.118 7.394-5.602 11.332-5.664" fill="#0a192e"/>
 <path d="m130.684,112.371c.022.289-.522-2.088 0-3.165-.054-.486.097,4.433 0,3.165" fill="#0a192e"/>
 <path d="m220.83 108.71c6.396 3.018 13.631 2.804 20.164 5.331 5.398 2.088 9.509 5.759 15.413 6.832 6.123 1.114 11.691 3.288 17.329 5.917 9.448 4.404 13.72 1.973 11.582 12.748-1.287 6.487-3.423 19.164-10.195 16.972-10.328-3.343-20.36-7.451-30.556-11.158-9.377-3.409-28.083-12.988-36.735-11.646 2.898-6.987 3.548-32.081 12.998-24.996" fill="#5a3d1c"/>
 <path d="m46.033 112.7-2.5 1.167c0.217-0.058 2.839-1.336 2.5-1.167" fill="#152943"/>
 <path d="m128.684,110.539c.212,1.566.118.871 0,0" fill="#0a192e"/>
 <path d="m25.536,118.705c3.107.142 4.423.666 2.5-3.167 5.414,5.442-5.924,7.299-2.5-.333 .339,1.248-.14,2.154 0,3.5" fill="#0a192e"/>
 <path d="m199.5 113.87c-0.971 13.789-8.963-6.104 0 0" fill="#0a192e"/>
 <path d="m32.868,119.204c2.854,2.358 1.394,6.189-.833,10.165l-.334-4.5c-.376,1.114-1.22,2.62-1.5,3.666-1.331-3.573.043-7.302 2.667-9.331" fill="#0a192e"/>
 <path d="m198.17 114.7c-2.67 2.861-2.932 2.052 0 0" fill="#d1c5be"/>
 <path d="m31.202,123.37c.489-.907.87-1.989 1.667-2.833-.288.64-1.416,2.366-1.667,2.833" fill="#152943"/>
 <path d="m151.847,118.705c-1.025,2.44-2.216,4.396-1.834,7.499-1.906-2.535-1.967-4.448-1.499-7.667-.726-.033 4.672.382 3.333.168" fill="#b57835"/>
 <path d="m18.371 123.7c-1.895 1.911-12.243 11.643-13.831 4.498-1.347-6.059 13.305-4.54 13.831-4.498" fill="#0a192e"/>
 <path d="m335.15 115.87c11.638 7.529 13.003-1.911 9.331 12.831-1.606 6.451-3.599 13.635-4.833 19.164-3.819-4.195-15.456-6.647-21.162-7.167 4.724-9.799 3.695-30.491 16.664-24.828" fill="#5a3d1c"/>
 <path d="m176.51 127.2c-0.723 4.798-2.05 9.475-3.332 14.164-3.149-4.345-14.543-19.452-19.831-16.83 0.21-0.989 1.18-4.122 1.5-4.667 7.598 1.136 14.301 6.899 21.663 7.333" fill="#5a3d1c"/>
 <path d="m14.871 124.7c-6.608 9.744-11.184-1.919 0 0" fill="#e2ffe9"/>
 <path d="m153.18,120.371c-.216.706.208,1.241-.833,1.667 .466-.466.664-1.114.833-1.667" fill="#5a3d1c"/>
 <path d="m309.48 120.7c0.124 6.616-6.918 3.447-6.166 1.834 1.502-3.222 4.291-3.229 6.166-1.834" fill="#0a192e"/>
 <path d="m307.98 121.04c-1.006 1.153-0.482 2.345-2.332 2.999-0.111-2.43 1.516-2.106 2.332-2.999" fill="#d1c5be"/>
 <path d="m162.011,134.034c2.456,2.736 4.718,5.597 7.499,8-13.958,10.784-24.308,27.884-33.661,42.658-3.583-4.638-7.188-9.352-11.748-13.081-5.897-4.824-5.1-3.429-5.082,1.417 .021,5.825 4.697,15.961 7.665,20.83 .333-6.4-4.789-14.667-6.666-21.329 9.47,5.888 8.197,19.054 10.583,29.078 4.257,17.89 1.942,12.969-2.917-1-1.497-4.303-14.256-31.614-9.998-33.745 5.005-2.504 14.764,11.214 16.996,14.664 13.041-9.767 21.733-28.541 33.162-40.492-12.926,7.333-24.24,25.361-32.494,37.827-5.491-3.956-9.106-11.869-15.997-13.165 10.016-11.554 22.922-25.054 34.327-34.826 .706-.605-3.582-2.651-1.167-3.333 3.195-.902 7.772,4.958 9.498,6.497" fill="#e0ff66"/>
 <path d="m25.536 132.04c4.142 15.301-8.412 13.304 0 0" fill="#0a192e"/>
 <path d="m25.036,142.533c-2.292-2.101-2.779-3.968-.167-6.999 1.48,2.698 1.08,4.702.167,6.999" fill="#e2ffe9"/>
 <path d="m207.836,137.201c16.934,2.1 31.13,9.134 47.158,14.748 3.509,1.229 20.033,3.782 22.496,7.249 2.371,3.339-4.53,16.008-6.166,20.662-6.951-4.428-19.396-11.987-27.827-10.33 .706-.2 2.094-.733 2.5-.833-4.67-1.124-10.847.076-15.165-1.834-7.223-3.193-3.976-6.682-8.332-11.998-2.994-3.654-12.791-5.222-18.33-7.165 1.503-3.689 2.154-9.577 3.666-10.499" fill="#5a3d1c"/>
 <path d="m191.67 139.2c-4.086 7.885-7.338-4.628 0 0" fill="#0a192e"/>
 <path d="m190.174,139.201c-.686.702-.185,1.851-1.834,1.333 .556-.622 1.622-1.117 1.834-1.333" fill="#d1c5be"/>
 <path d="m172.843,143.033c-.76.366-.387,1.573-2.166.667 .68-.397 2.177-.672 2.166-.667" fill="#5a3d1c"/>
 <path d="m148.35 147.87c-1.177-0.27-1.595-0.366 0 0" fill="#0a192e"/>
 <path d="m173.343,147.533c5.526,1.474 15.337,1.965 17.996,6.665 .739-.708 1.441-1.214 2.167-2.166-1.249,3.683-9.487,32.795-10.999,32.493-5.575-1.115-14.636-3.361-19.329-.167 5.769,1.175 12.676.477 18.33,2.833-8.923,4.122-18.095,2.887-26.995,2.166 7.884,4.708 20,3.243 27.829-.833-8.346,6.83 14.938,13.805 20.495,12.498 4.876-1.147.297-1.151 5.999-5.665 5.316-4.208 13.698-1.253 19.913,3.583 5.05,3.929 26.282,13.825 31.744,9.999 8.142-5.704 38.913,16.821 26.495,26.744-18.68,14.927-39.703,28.614-60.488,40.493-.479-6.521-.821-7.911 3.165-13.499-5.868,1.073-6.43,12.952-10.164,16.998-2.75,2.979-8.204,5.041-12.081,6.832-8.429,3.891-9.779,4.765-16.247-2.832-10.52-12.356-18.723-27.523-26.996-41.328-6.844-11.419-14.819-18.439-24.662-27.66 2.339,4.945 7.864,7.282 10.997,11.83-3.73-2.396-6.574-5.752-10.164-8.332 7.628,10.991 16.383,19.179 23.663,30.828 9.48,15.173 18.862,29.72 30.16,43.325-9.266,7.413-22.125-10.575-26.162-19.329-.269-.583 3.172-1.388 2.333-3.498-1.288-3.239-7.869-10.061-10.332-14.165-5.384-8.972-12.249-16.881-17.497-25.662-1.699-2.843-1.641-1.818-2.666-4.666-1.097-3.048.628-2.397-.833-3.999-.849-9.583-4.232-23.376-6.166-34.827 5.941,6.117 27.53-45.867 40.495-38.659" fill="#e0ff66"/>
 <path d="m329.647,146.2c5.65,1.648 8.324,1.896 8.665,6.666 .354,4.943-4.033,19.848-9.331,18.496 5.414-9.494-9.974-1.51-11.499-1.5-14.629.095-1.529-18.347 0-26.828 4.038.751 8.747,2.184 12.165,3.166" fill="#5a3d1c"/>
 <path d="m145.014,148.699c-.53.798.003,1.795-1.667,2.166 .183-1.353 1.248-1.533 1.667-2.166" fill="#0a192e"/>
 <path d="m142.68 150.53c-3.367 3.676-7.945 24.234-7.666 24.162-8.453 2.195 4.807-22.113 7.666-24.162" fill="#0a192e"/>
 <path d="m200.671,151.531c5.85.442 17.319,3.514 18.664,9.333-5.438-1.952-5.96,9.433-7.333,14.33-2.315,8.257-5.336,13.822-9.165,20.33l1.833.333c-7.177.18-14.655-3.077-21.829-4.5 5.028-5.988 4.854-14.741 7.165-22.246 1.854-6.019 6.062-12.901 4.999-19.079 2.544.61 4.212,1.048 5.666,1.499" fill="#e0ff66"/>
 <path d="m300.99 149.53c-0.617 12.974-10.533-7.989 0 0" fill="#0a192e"/>
 <path d="m299.99 150.53c-5.354 1.762-3.7-0.352 0 0" fill="#d1c5be"/>
 <path d="m102.02 169.7c-0.167 4.89-13.12 20.519-14.165 11.165-2.108 3.231 2.183 6.031 5.166 8.164-4.427-0.881-7.945-4.423-5.665-8.498-3.912-6.352-8.244-1.553-6.999-6.5 2.632-10.457 16.424-11.77 21.663-4.331" fill="#0a192e"/>
 <path d="m222.334,160.53c.002.027.343,2.012.334,2.333-.471-.517-.251-1.364-.334-2.333" fill="#e0ff66"/>
 <path d="m219.501,161.529c1.43-.258.783-.142 0,0" fill="#e0ff66"/>
 <path d="m100.36 170.19c-0.729 2.883-2.345 5.053-4.666 6.999-5.991 5.023-5.402 3.568-12.264-2.237-1.548-1.31 10.661-15.984 16.93-4.762" fill="#fff"/>
 <path d="m214.17 171.03c0.463-2.293 1.112-4.558 1.667-6.832-0.082 2.483-1.044 5.008-1.667 6.832" fill="#e0ff66"/>
 <path d="m231.166,170.528c10.006,1.088 17.348,2.574 26.661,6.332 9.252,3.733 17.717,11.64 27.329,13.665 6.298,1.327 20.282-4.029 26.662-7.832 5.311-3.166 7.186-15.468 15.163-13.331-1.077,4.542-.916,9.617-3.832,13.331-1.903,2.424-12.257,5.569-11.165,9.998-.035-.145 18.39-9.044 16.33-17.831 7.725-4.094 3.886,4.581 3,8.999-1.79,8.93-5.993,5.527-11.164,9.998-6.382,5.518-4.146,5.862 1.498,3.833 9.021-3.244 12.091-9.104 13.665-18.496 4.445,1.588 1.426,12.067-1.167,15.663-3.725,5.167-11.74,4.747-14.33,8.999-2.653,4.355 9.067-2.533 10.332-3.333 3.395-2.148 9.41-12.168 9.998-4.5 .64,8.348-8.094,13.256-16.165,12.582-11.284-.942-19.635,4.283-30.327,6.415-8.579,1.711-25.873-3.575-33.577-9.082-5.541-3.961-15.249-3.707-21.579-6.082-9.916-3.72-17.164-8.168-27.495-10.499 3.794-7.471 5.41-15.476 7.331-23.329 4.138,1.693 9.069,2.971 12.832,4.5" fill="#ffdede"/>
 <path d="m214.17 171.7c-1 3.833-1.999 7.665-2.999 11.497 1-3.833 1.999-7.665 2.999-11.497" fill="#e0ff66"/>
 <path d="m315.65 171.86c-1.056 7.004-2.971 9.239-10.831 8.999 2.896-5.352 2.327-14.479 10.831-8.999" fill="#5a3d1c"/>
 <path d="m292.15 173.53c0.986 2.853-1.96 6.984-5 4.166-3.674-3.406 3.111-5.229 5-4.166" fill="#0a192e"/>
 <path d="m291.488,176.194c-.816-.014-1.404,1.373-3.5.166 2.494-3.433 2.159-1.193 3.5-.166" fill="#d1c5be"/>
 <path d="m153.346,189.357c.229.453-.626.212-.666-.833 1.823-.991.411.33.666.833" fill="#0a192e"/>
 <path d="m94.523,197.024c5.97,3.755 15.323,8.933 22.996,11.996 .439.175 15.56,5.241 12.164,6.5-3.68,1.363-11.581-5.251-14.33-6.666-5.945-3.059-16.714-10.281-23.495-10.164-11.89.205 5.017,9.926 8.664,15.329-4.695-3.732-9.254-7.753-13.497-11.996-5.367-5.367 2.134-10.685 7.498-4.999" fill="#e0ff66"/>
 <path d="m188.17 200.69c-8.19 8.457-2.593 20.866-7.832 27.829-1.282-7.721-0.872-24.818 7.832-27.829" fill="#0a192e"/>
 <path d="m104.022,205.855c-.135,2.017-.956,3.998-2.333,5.665-2.292-1.942-4.756-4.067-6.666-6.165 1.334,1.09 3.351,1.626 4.833,2.5 .055-1.222.111-2.444.166-3.666 1.584.107 2.702.774 4,1.666" fill="#e0ff66"/>
 <path d="m112.021,208.854c-.591.088-1.252.187 0,0" fill="#e0ff66"/>
 <path d="m128.68 227.52c0.607 2.366 3.433 1.271 6.332-0.168-5.254 1.779-3.997 6.398-2.666 10.666-6.821-5.463-11.641-14.758-15.331-22.496 5.091 2.463 9.425 6.801 11.665 11.998" fill="#e0ff66"/>
 <path d="m161.68 241.02c5.495 7.912 11.224 15.388 15.248 24.246 4.701 10.35 12.897 17.118 19.747 25.912l-1.167 0.999c-18.812-16.642-27.761-43.437-42.493-63.487 4.323 2.676 7.481 7.835 8.665 12.33" fill="#e0ff66"/>
 <path d="m180.508,231.35c.19-.584-2.111-.867 1.166-2.333 .025,1.272-.89,1.486-1.166,2.333" fill="#0a192e"/>
 <path d="m181.175,234.517c.013-.194-.997-.515-.166-2.334 1.593,1.148.22,1.49.166,2.334" fill="#0a192e"/>
 <path d="m270.325,239.682c-.152-.054-1.15,1.02-1.666-1.167 .963.109 1.435,1.086 1.666,1.167" fill="#0a192e"/>
 <path d="m261.99 239.52c-13.473 4.954-23.146 15.507-33.161 22.162 7.658-8.923 21-22.573 33.161-22.162" fill="#0a192e"/>
 <path d="m267.158,239.516c-.602.046-1.191,1.215-2.499,0 .932-.465 2.093.031 2.499,0" fill="#0a192e"/>
 <path d="m286.988,253.013c-1.408,8.226-2.221,13.111-6.082,20.83-2.587,5.173-11.726,12.253-12.247,14.831-1.663,8.222 15.636,20.802 20.662,26.661 4.091,4.767 11.313,11.834 12.831,17.997 2.11,8.563-4.226,20.624-6.332,28.993-1.899,7.546-1.449,12.999-9.832,12.999-2.715,0-5.283.993-7.665,1.499-2.671.566-9.287,2.296-14.51,2.472-3.847.129 3.968-13.723 4.929-16.219 4.932-12.824 30.756-11.425 30.578-30.244-4.107,13.054-16.819,18.84-28.496,23.661 2.172-10.192 4.531-12.598 12.666-13.996-.124-.962-.787-.514-1.001-1.167 3.827-1.271 13.046-5.606 13.998-9.499 1.552-6.343-15.582.916-20.496,2.999-7.482-8.215-20.691-23.377-32.995-27.495-3.326-1.113-14.068-3.149-16.162-.665-3.429,4.069 9.398,3.906 11.83,4.831-6.177,7.629-11.619,19.999-18.829,26.163-4.233,3.619-9.837,2.55-15.165,3.832-6.545,1.575-16.038,6.911-3.749,9.748 7.046,1.627 15.451-3.899 18.414,4.749 .48.24 1.396.48-1.666,2.834-.255-.077.203-.359.166-.334-8.425-.031-15.184-1.284-21.329-7.499 1.771,7.696 10.037,9.842 15.996,9.665 2.267-.067 6.759-.404 8.499-1.832 4.867-3.992-2.892-7.277.834-10.998 2.86,3.72 2.928,9.075 5.498,13.497 3.433,5.903 7.543,15.406 12.997,19.329-9.274.273-28.109,2.427-34.659-3.998-4.308-4.226-13.515-19.132-14.998-24.995-1.579-6.244 1.734-9.451 3.925-17.381 1.569-5.68 4.386-11.971 7.073-17.279 1.242-2.453 5.556-7.419 5.666-8.666 .662-7.481-14.551-5.117-22.496-6.833 14.467-4.612 28.578-14.447 41.993-21.662 20.359-10.95 39.428-25.666 57.989-39.993 .503,4.344 1.527,9.4 2.165,13.165" fill="#61b0b0"/>
 <path d="m175.18 284.51c-3.776-2.611-5.665-6.858-9.333-9.666l1.001-1.166c2.656 3.507 5.869 7.853 8.332 10.832" fill="#e0ff66"/>
 <path d="m167.18 279.18c5.077 4.944 11.438 11.912 14.998 18.162-3.65 1.529-7.973 2.348-12.33 3.167-0.398-6.535-11.668-9.717-11.833-15.331-0.131-4.472 6.427-10.957 9.165-5.998" fill="#e0ff66"/>
 <path d="m184.841,296.172c-.934-.84-1.966-1.493-2.667-2.667-.533-.465 3.607,3.512 2.667,2.667" fill="#e0ff66"/>
 <path d="m310.483,328.5c1.019,4.459-.855,9.962-1.998,13.664h-.667c-.29-6.195 2.088-8.587-.334-14.33-2.318-5.498-7.779-9.515-10.997-14.498 5.621,4.048 10.012,9.556 13.996,15.164" fill="#d1c5be"/>
 <path d="m317.65 336.33-1.167 2.833c2.497-11.73-6.133-15.264-10.331-23.829 5.693 5.651 14.145 12.452 11.498 20.996" fill="#d1c5be"/>
 <path d="m186.17 337.33c-1.303 4.782-5.523 10.575-4.25 15.664 1.187 4.743 6.545 6.271 6.915 11.331-2.343-3.253-9.242-10.344-8.165-14.664 1.543-6.186 5.29-12.687 7.833-18.495-0.611 2.089-1.467 4.118-2.333 6.164" fill="#d1c5be"/>
 <path d="m292.15 333c-3.829 5.125-12.875 8.354-18.83 11.499 2.601-7.108 10.38-10.609 18.83-11.499" fill="#4d8c8c"/>
 <path d="m179.175,338.831c-3.11,7.85-1.875,10.938-.999,17.997-4.843-4.916-3.631-14.962.999-17.997" fill="#d1c5be"/>
 <path d="m220.668,343.331c-.833-.22 2.781,1.754 1.167,3.333-2.409,2.356-8.784-5.911-6.666,2.999-6.545.612-13.832,1.295-19.664-2.334 5.649-5.338 14.294-2.034 18.33-5.165 2.342.911 4.426.637 6.833,1.167" fill="#4d8c8c"/>
 <path d="m290.988,384.822c10.542,7.05 24.002,2.401 35.16,9.499 2.951,1.877 18.759,15.013 5.666,13.165 1.191-.602 1.708-.887 2.5-1.667-13.975-1.788-27.161,2.06-40.161-3.832-6.077-2.754-24.473-11.476-19.828,1.165-4.727-4.304-13.79.885-16.997-3.165-.782-.987.902-12.021 1.582-13.831 4.611-12.294 23.584-2.747 32.078-1.334" fill="#3f3f3f"/>
 <path d="m232.832,382.656c12.233.402 20.14,6.063 19.497,18.997-7.091.161-20.727,4.661-20.33-4.499-5.331,2.582-17.8,2.171-25.663,5.666-6.639,2.95-9.643,5.146-16.995,5.832-5.468.51-31.656,4.001-29.496-3.332 2.547-8.646 34.542-15.582 41.492-16.664 4.789-.746 10.067-.54 14.831-1.834 5.358-1.455 11.205-6.266 16.664-4.166" fill="#3f3f3f"/>
 <path d="m219.17 54.882c-3.908 13.78-9.093-12.881 0 0" fill="#0a192e"/>
 <path d="m217.669,54.882c-4.115,1.482-3.521.495 0,0" fill="#d1c5be"/>
 <path d="m208.67 5.725c5.344 1.832 1.913-5.788-5.999-2.5 1.891 1.183 4.433 2.212 5.999 2.5" fill="#b37635"/>
 <path d="m209.669,7.058c-3.525,1.89-16.852-4.963-21.495-6.999-2.478,8.739-5.59,19.625-7.333,26.828 4.195.152 7.77,1.765 11.665,3.167 7.486,2.693 8.235,4.691 9.665-4.583 .75-4.866 1.539-11.996 3.999-16.247 1.742-3.012 3.279,1.9 3.499-2.166" fill="#5a3d1c"/>
 <path d="m37.534,132.368c.67,4.071 9.383,7.822 8.666,2.167-.599-4.72-7.85-5.729-8.666-2.167" fill="#fff"/>
 <path d="m48.031,134.701c-3.398,4.754-6.788-9.105-10.665-.833-2.033-8.303 8.489-2.087 10.665.833" fill="#0a192e"/>
 <path d="m47.865 122.87c0.601 2.192 4.21 6.961 7.333 5.998 5.984-1.846-3.659-11.444-7.333-5.998" fill="#fff"/>
 <path d="m57.864,125.203c.213,1.023.747,1.896.833,2.999-3.488-1.083-8.027-10.639-10.332-3.499-3.074-6.994 7.454-2.515 9.499.5" fill="#0a192e"/>
</svg>
