<?xml version="1.0" encoding="UTF-8" standalone="no"?>
<svg
   xmlns:dc="http://purl.org/dc/elements/1.1/"
   xmlns:cc="http://creativecommons.org/ns#"
   xmlns:rdf="http://www.w3.org/1999/02/22-rdf-syntax-ns#"
   xmlns:svg="http://www.w3.org/2000/svg"
   xmlns="http://www.w3.org/2000/svg"
   xmlns:sodipodi="http://sodipodi.sourceforge.net/DTD/sodipodi-0.dtd"
   xmlns:inkscape="http://www.inkscape.org/namespaces/inkscape"
   width="192mm"
   height="156mm"
   version="1.1"
   viewBox="0 0 19200 15600"
   xml:space="preserve"
   id="svg2"
   inkscape:version="0.91 r13725"
   sodipodi:docname="person.svg"
   style="clip-rule:evenodd;fill-rule:evenodd;image-rendering:optimizeQuality;shape-rendering:geometricPrecision;text-rendering:geometricPrecision"><metadata
     id="metadata68"><rdf:RDF><cc:Work
         rdf:about=""><dc:format>image/svg+xml</dc:format><dc:type
           rdf:resource="http://purl.org/dc/dcmitype/StillImage" /><dc:title></dc:title></cc:Work></rdf:RDF></metadata><sodipodi:namedview
     pagecolor="#ffffff"
     bordercolor="#666666"
     borderopacity="1"
     objecttolerance="10"
     gridtolerance="10"
     guidetolerance="10"
     inkscape:pageopacity="0"
     inkscape:pageshadow="2"
     inkscape:window-width="640"
     inkscape:window-height="480"
     id="namedview66"
     showgrid="false"
     inkscape:zoom="0.22425739"
     inkscape:cx="372.04724"
     inkscape:cy="526.1811"
     inkscape:window-x="0"
     inkscape:window-y="0"
     inkscape:window-maximized="0"
     inkscape:current-layer="svg2" /><defs
     id="defs4"><style
       type="text/css"
       id="style6"><![CDATA[
    .fil7 {fill:none}
    .fil3 {fill:#0D0D0D}
    .fil2 {fill:#141313}
    .fil10 {fill:#333333}
    .fil19 {fill:#3D3C3C}
    .fil15 {fill:#4A4949}
    .fil12 {fill:#4A4949}
    .fil13 {fill:#706F6F}
    .fil9 {fill:#785742}
    .fil5 {fill:#7C0015}
    .fil14 {fill:#8F8D8E}
    .fil1 {fill:#CCCCCC}
    .fil6 {fill:#D61B2E}
    .fil0 {fill:#E6E6E6}
    .fil11 {fill:#EBBC96}
    .fil18 {fill:#EBBC96}
    .fil8 {fill:#F6D5B8}
    .fil4 {fill:white}
    .fil16 {fill:#8F8D8E;fill-rule:nonzero}
    .fil17 {fill:#CCCCCC;fill-rule:nonzero}
   ]]></style></defs><polygon
     class="fil0"
     points="19278,15406 1445,15406 1445,1066 19278,1066 "
     id="polygon8"
     style="fill:#e6e6e6"
     transform="translate(-503.38987,-256.78085)" /><path
     class="fil1"
     d="m 14343.61,3500.219 c -36,-137 -109,-400 -195,-604 -86,-204 -185,-349 -311,-479 -126,-130 -278,-245 -443,-372 -166,-127 -344,-265 -521,-367 -176,-101 -350,-165 -393,-165 -43,0 45,64 102,122 58,59 84,111 -10,107 -93,-4 -307,-66 -451,-97 -143,-31 -216,-31 -287,6 -72,36 -142,109 -231,185 -88,76 -194,155 -243,164 -50,9 -43,-53 -4,-139 40,-86 113,-196 95,-202 -17,-5 -125,94 -203,187 -77,92 -123,178 -145,181 -22,2 -20,-80 3,-165 23,-85 67,-173 30,-143 -38,30 -157,177 -213,313 -56,136 -49,259 -68,289 -19,30 -63,-34 -75,-146 -12,-111 8,-270 -29,-254 -36,15 -129,205 -197,358 -69,153 -113,270 -131,400 -19,130 -12,274 23,406 35,132 99,253 128,366 28,112 22,216 20,346 -3,130 0,287 40,431 41,144 120,277 174,370 55,94.0001 83,149.0001 93,181.0001 10,31 1,39 -40,59 -40,21 -113,54 -183,89 -70,35 -137,73 -167,104 -29,31 -20,55 -10,84 11,29 23,63 41,84 18,20 43,27 66,39 23,13 45,32 85,93 40,61 99,165 153,243 55,78 106,131 158,161 52,30 107,36 149,39 43,2 75,0 145,121 70,121 179,366 310,572 131,206 285,374 392,485 107,112 167,167 212,239 45,73 76,164 128,221 52,57 124,81 190,90 67,9 126,3 102,41 -24,39 -132,122 -236,226 -104,104 -203,227 -272,406 -70,178 -110,412 -114,622 -4,209 27,394 31,597 4,203 -18,423 -22,620.0009 -5,196 9,368 -13,518 -22,150 -80,278 -145,342 -65,64 -138,64 -213,81 -74,18 -152,53 -216,97 -64,44 -114,97 -157,102 -43,4 -79,-40 -140,-33 -62,6 -150,63 -214,102 -64,39 -104,58 -152,56 -49,-2 -106,-26 -208,-18 -101,7 -246,47 -373,77 -127,29 -235,49 -329,58 -93,9 -173,7 -220,16 -48,8 -63,28 -93,27 -30,-1 -74,-23 -141,-24 -67,-1 -158,19 -316,-11 -159,-30 -386,-109 -537,-163 -151,-54 -226,-83 -286,-84 -59,-1 -103,25 -150,38 -45.9999,14 -94.9999,14 -136.9999,34 -43,19 -81,59 -203,118 -123,58 -330,135 -444,199 -113,64 -133,115 -169,213 -37,98 -90,243 -116,376 -5,27 -10,54 -13,79 l -363,-25 -1376,-4141.0009 c -41,-123 -127,-189 -251,-198 l -3599,79 c -155,13 -220,113 -175,268 l 1307,4197.0009 -1632.99997,0 0,2755 17813.99987,0 c 17,-94 14,-266 12,-633 -2,-483 -2,-1303 -11,-2020 -9,-716 -26,-1329 -77,-1856 -51,-527 -135,-968.0009 -284,-1369.0009 -150,-402 -366,-763 -605,-1123 -238,-359 -498,-716 -782,-990 -285,-273 -593,-463 -825,-566 -231,-104 -386,-122 -492,-159 -105,-38 -163,-95 -253,-174 -91,-80 -214,-181 -304,-232 -91,-50 -148,-50 -196,-44 -48,6 -87,18 -125,-22 -39,-41 -77,-133 -120,-282 -43,-149 -91,-354 -115,-469 -23,-114 -23,-139 -2,-172 21,-33 63,-75 98,-148 36,-73 66,-178 69,-296.0001 4,-119 -20,-251 -55,-405 -35,-154 -82,-329 -128,-423 -45,-95 -88,-108 -118,-112 -29,-4 -46,2 -55,-1 -9,-4 -10,-16 -47,-153 z"
     id="path10"
     inkscape:connector-curvature="0"
     style="fill:#cccccc" /><path
     class="fil2"
     d="m 14862.61,5987.2191 c -5,36 8,58 24,77 21,25 46,43 43,82 -4,39 -36,100 -142,247 -106,148 -287,383 -436,555 -149,172 -265,282 -391,413 -126,132 -261,286 -360,407 -98,120 -159,209 -195,255 -35,47 -45,52 -52,53 -8,0 -15,-4 -47,-48 -33,-45 -91,-130 -155,-213 -64,-82 -134,-163 -182,-219 -48,-56 -75,-88 -106,-102 -31,-13 -65,-9 -104,-2 -43,8 -71,13 -97,21 -12,4 -21,16 -30,30 -24,39 -132,122 -236,226 -104,104 -203,227 -272,406 -70,178 -110,412 -114,622 -4,209 27,394 31,597 4,203 -18,423 -22,620.0009 -5,196 9,368 -13,518 -22,150 -80,278 -145,342 -65,64 -138,64 -213,81 -74,18 -152,53 -216,97 -64,44 -114,97 -157,102 -43,4 -79,-40 -140,-33 -62,6 -150,63 -214,102 -64,39 -104,58 -152,56 -49,-2 -106,-26 -208,-18 -101,7 -246,47 -373,77 -127,29 -235,49 -329,58 -93,9 -173,7 -220,16 -26,4 -42,12 -57,19 0,1 0,2 1,2 6,4 49,2 106,10 57,8 128,27 183,58 56,31 97,75 126,135 30,60 48,137 52,204 4,68 -7,127 -34,191 -28,64 -72,132 -114,173 -42,41 -80,55 -119,59 -38,4 -77,-3 -107,-8 -29,-5 -49,-9 -65,-7 -15,3 -25,13 -22,32 2,19 17,47 55,71 38,25 98,45 190,59 92,14 219,17 303,23 85,6 173,13 243,18 70,4 143,14 285,25 141,11 352,26 535,27 183,1 337,-18 483,-40 146,-22 285,-48 373,-40 88,8 125,49 156,75 30,26 53,39 75,38 22,0 43,-14 59,-30 16,-17 27,-37 37,6 9,43 17,149 29,225 12,76 29,123 74,194 46,71 121,167 176,234 54,67 88,106 70,111 -19,5 -91,-24 -164,-26 -73,-2 -148,22 -228,33 -79,11 -163,9 -232,-14 -70,-22 -125,-65 -178,-92 -54,-26 -106,-36 -272,-39 -166,-3 -446,2 -677,-3 -230,-5 -412,-20 -518,-28 -105,-9 -134,-13 -207,5 -74,17 -193,54 -293,121 -99,68 -178,165 -233,283 -55,118 -86,256 -82,393 5,137 44,271 85,375 40,103 82,175 114,214 10,12 18,20 26,37 17,4 34,9 51,15 100,34 205,96 263,147 57,51 66,90 55,178 -10,79 -36,196 -22,274 l 8538,0 c 17,-94 14,-266 12,-633 -2,-483 -2,-1303 -11,-2020 -9,-716 -26,-1329 -77,-1856 -51,-527 -135,-968.0009 -284,-1369.0009 -150,-402 -366,-763 -605,-1123 -238,-359 -498,-716 -782,-990 -285,-273 -593,-463 -825,-566 -231,-104 -386,-122 -492,-159 -105,-38 -163,-95 -253,-174 -91,-80 -214,-181 -304,-232 -91,-50 -148,-50 -196,-44 -29,3 -55,9 -79,4 z"
     id="path12"
     inkscape:connector-curvature="0"
     style="fill:#141313" /><path
     class="fil3"
     d="m 14980.61,7975.2191 c -100,234 -197,486 -364,759 -168,274 -406,569 -624,981 -219,413.0009 -417,942.0009 -545,1396.0009 -128,454 -185,833 -220,1162 -36,328 -49,606 -65,768 -17,162 -37,209 -4,218 33,8 119,-20 193,-27 74,-7 136,9 214,6 78,-4 173,-26 271,-29 98,-3 200,12 280,53 81,41 140,107 197,241 56,135 109,338 120,318 11,-20 -20,-263 -70,-426 -49,-163 -118,-247 -130,-293 -12,-46 32,-55 107,-1 75,54 181,171 267,256 86,85 152,137 245,272 92,134 211,351 292,554 80,204 122,396 135,368 14,-29 -2,-278 -114,-535 -113,-257 -322,-522 -468,-682 -145,-161 -227,-219 -247,-280 -20,-62 22,-128 119,-163 97,-34 250,-36 418,21 169,58 354,175 506,259 152,85 271,138 287,90 15,-49 -73,-199 -253,-313 -179,-115 -450,-194 -653,-227 -203,-34 -338,-20 -371,-100 -33,-79 36,-251 107,-376 72,-124 147,-201 169,-338 22,-137 -9,-333 53,-514 62,-181 216,-346 361,-480 146,-135 283,-239 295,-265 12,-26 -101,24 -93,-7 8,-30 136,-143 319,-245 183,-103 421,-196 690,-250 269,-54 569,-69 614,-98 45,-28 -164,-70.0005 -375,-63.0005 -210,8 -422,65.0005 -659,180.0005 -237,115 -500,287 -690,440 -191,153 -310,288 -374,219 -64,-68 -73,-339 -82,-610 -8,-272.0005 -17,-543.0009 7,-819.0009 24,-277 82,-559 133,-836 52,-277 99,-548 148,-756 50,-209 103,-354 78,-318 -24,36 -125,255 -224,490 z"
     id="path14"
     inkscape:connector-curvature="0"
     style="fill:#0d0d0d" /><path
     class="fil4"
     d="m 14861.61,6000.2191 c 10,17 18,39 37,49 20,11 53,8 73,17 19,10 26,33 -26,173 -53,139 -164,395 -261,618 -97,223 -180,414 -279,675 -100,261 -217,591 -334,905 -117,314 -234,610 -338,904 -105,294 -198,585.0004 -247,736.0009 -49,152 -54,164 -90,321 -35,157 -100,459 -151,864 -51,405 -89,912 -104,1257 -15,346 -8,531 -1,627 7,96 12,104 -16,122 -27,18 -89,46 -143,57 -54,11 -101,4 -138,-91 -38,-95 -66,-278 -99,-507 -33,-229 -71,-505 -95,-715 -24,-211 -35,-357 -39,-588 -3,-232 1,-549 15,-775 13,-226 35,-361 7,-501 -27,-140 -104,-285.0009 -99,-470.0009 6,-185 94,-410 174,-612 81,-202 154,-380 209,-517 55,-137 92,-232 117,-319 24,-87 35,-166 32,-259 -2,-84 -15,-179 -28,-296 36,43 76,91 114,140 64,83 122,168 155,213 32,44 39,48 47,48 7,-1 17,-6 52,-53 36,-46 97,-135 195,-255 99,-121 234,-275 360,-407 126,-131 242,-241 391,-413 149,-172 330,-407 436,-555 106,-147 138,-208 142,-247 3,-39 -22,-57 -43,-82 -14,-16 -26,-36 -25,-64 z"
     id="path16"
     inkscape:connector-curvature="0"
     style="fill:#ffffff" /><path
     class="fil5"
     d="m 13467.61,10168.22 c -25,78 -43,152 -61,232 -64,286 -114,573 -151,863 -21,165 -38,330 -53,495 -22,253 -40,508 -51,762 -9,206 -15,420 -1,625 1,15 2,29 3,43 3,21 6,40 0,61 -3,13 -12,21 -23,28 -39,25 -101,49 -147,58 -82,16 -120,-22 -149,-97 -25,-63 -40,-139 -52,-205 -19,-101 -34,-203 -48,-305 -34,-238 -67,-476 -95,-715 -13,-110 -24,-220 -30,-332 5,-141 9,-282 15,-423 5,-132 13,-265 22,-397 11,-154 24,-308 42,-461 15,-130 35,-258 66,-385 27,-112.0005 64,-222.0009 91,-334.0009 11,-47 20,-94 30,-142 7,-36 13,-74 23,-110 7,-24 16,-45 26,-68 3,-7 11,-24 11,-32 0,-11 -21,-28 -27,-41 -12,-26 9,-142 12,-170 20,-155 36,-320 69,-473 10,-45 22,-91 41,-134 9,-21 22,-43 29,-64 12,-35 9,-85 13,-124 5,-51 19,-113 52,-155 29,-36 77,-61 125,-56 37,3 74,30 71,70 -2,36 -33,66 -46,98 -10,24 3,33 26,38 21,4 44,5 65,6 28,2 57,5 84,12 64,17 133,59 192,90 82,44 167,86 251,127 14,7 75,31 76,50 0,3 -1,6 -2,9 -7,14 -54,44 -68,54 -50,35 -93,72 -129,121 -48,65 -85,146 -122,217 -36,67 -88,153 -110,224 -18,57 -4,100 0,157 7,95 -2,201 -14,295 -16,116 -42,230.0004 -60,346.0009 -8,51 -6,85 5,137 0,1 0,3 -1,5 z"
     id="path18"
     inkscape:connector-curvature="0"
     style="fill:#7c0015" /><path
     class="fil6"
     d="m 13455.61,8487.2191 c 32,-22 79,-31 114,-8 35,23 57,79 27,179 -30,100 -111,246 -164,343 -53,97 -77,145 -60,162 17,16 75,1 73,12 -2,11 -65,48 -122,79 -57,31 -107,55 -90,63 17,7 102,-3 152,-10 50,-8 65,-12 103,-25 37,-12 97,-33 94,101 -3,134 -68,423 -152,742.0009 -84,320 -186,671 -254,1032 -67,362 -100,734 -126,614 -25,-120 -43,-733 -52,-1176 -8,-443 -8,-717.0005 11,-954.0009 20,-237 60,-437 127,-608 67,-171 162,-312 217,-401 56,-88 71,-123 102,-145 z"
     id="path20"
     inkscape:connector-curvature="0"
     style="fill:#d61b2e" /><path
     class="fil4"
     d="m 10989.61,13135.22 c -39,20 -77,42 -116,68 -84,57 -170,139 -250,232 -81,93 -156,198 -206,296 -50,98 -75,190 -96,336 -20,147 -36,349 -47,483 -10,108 -17,172 -37,212 -9,-23 -25,-43 -50,-65 -58,-51 -163,-113 -263,-147 -17,-6 -34,-11 -51,-15 -8,-17 -16,-25 -26,-37 -32,-39 -74,-111 -114,-214 -41,-104 -80,-238 -85,-375 -4,-137 27,-275 82,-393 55,-118 134,-215 233,-283 100,-67 219,-104 293,-121 73,-18 102,-14 207,-5 106,8 288,23 518,28 l 8,0 z"
     id="path22"
     inkscape:connector-curvature="0"
     style="fill:#ffffff" /><path
     class="fil7"
     d="m 10043.61,11369.22 c 49,7 107,10 165,23 64,14 129,39 185,92 55,52 101,130 124,221 24,92 26,197 21,289 -6,93 -18,173 -37,238 -19,64 -46,113 -72,144 -24,29 -48,43 -125,60 -47,-1 -97,-1 -159,-2 -96,-3 -219,-10 -311,-24 -92,-14 -152,-34 -190,-59 -38,-24 -53,-52 -55,-71 -2,-16 4,-25 15,-30 17,28 25,48 45,63 22,16 60,24 103,13 42,-11 88,-41 130,-78 41,-37 78,-81 108,-131 30,-50 53,-107 66,-165 12,-59 13,-119 3,-180 -10,-61 -30,-122 -61,-172 -30,-51 -71,-89 -115,-115 -45,-26 -93,-39 -143,-46 -51,-6 -104,-6 -148,-11 l -4,0 c 13,-6 28,-12 51,-16 47,-9 127,-7 220,-16 56,-5 117,-14 184,-27 z"
     id="path24"
     inkscape:connector-curvature="0"
     style="fill:none" /><path
     class="fil4"
     d="m 10043.61,11369.22 c 49,7 107,10 165,23 64,14 129,39 185,92 55,52 101,130 124,221 24,92 26,197 21,289 -6,93 -18,173 -37,238 -19,64 -46,113 -72,144 -37,44 -99,60 -154,60 -39,-1 -81,-1 -130,-2 -96,-3 -219,-10 -311,-24 -92,-14 -152,-34 -190,-59 -38,-24 -53,-52 -55,-71 -2,-16 4,-25 15,-30 17,28 25,48 45,63 22,16 60,24 103,13 42,-11 88,-41 130,-78 41,-37 78,-81 108,-131 30,-50 53,-107 66,-165 12,-59 13,-119 3,-180 -10,-61 -30,-122 -61,-172 -30,-51 -71,-89 -115,-115 -45,-26 -93,-39 -143,-46 -51,-6 -104,-6 -148,-11 l -4,0 c 13,-6 28,-12 51,-16 47,-9 127,-7 220,-16 56,-5 117,-14 184,-27 z"
     id="path26"
     inkscape:connector-curvature="0"
     style="fill:#ffffff" /><path
     class="fil8"
     d="m 9381.61,12411.22 c -88,41 -195,63 -286,48 -92,-14 -167,-65 -237,-78 -70,-13 -135,13 -211,21 -77,7 -166,-4 -225,-32 -58,-27 -86,-71 -103,-114 -17,-42 -24,-83 -19,-123 4,-39 20,-78 34,-102 14,-23 27,-32 19,-44 -9,-11 -40,-26 -80,-13 -39,13 -88,52 -128,77 -39.9999,24 -71.9999,33 -128.9999,92 -56,60 -136,170 -184,233 -48,64 -64,80 -34,80 29,0 103,-16 156,-16 52,0 84,16 138,16 53.9999,-1 130.9999,-18 198.9999,-16 69,3 131,26 186,57 54,31 102,70 201,120 99,51 250,114 360,172 109,59 178,113 248,154 70,40 142,68 287,92 146,23 365,43 491,55 60,6 99,10 122,40 -68,21 -151,55 -223,103 -99,68 -178,165 -233,283 -55,118 -86,256 -82,393 5,137 44,271 85,375 40,103 82,175 114,214 10,12 18,20 26,37 -231,-68 -597,-376 -736,-366 -62,4 -170,10 -306,-11 -137,-21 -302,-70 -445,-127 -142,-57 -261,-124 -383.9999,-179 -124,-55 -252,-99 -367,-151 -116,-51 -220,-111 -325,-176 -104,-65 -210,-136 -288,-170 -79,-34 -129,-32 -162,-1 -34,31 -49,90 -75,163 -27,73 -64,159 -116,195 -52,37 -118,23 -156,-7 -37,-31 -46,-80 -60,-110 -15,-29 -34,-40 -41,-73 -7,-33 0,-89 12,-151 12,-63 30,-134 71,-218 40,-83 104,-180 163,-270 58,-89 111,-171 170,-220 58,-50 122,-67 155,-88 33,-21 35,-46 36,-117 1,-72 1,-191 28,-323 26,-133 79,-278 116,-376 36,-98 56,-149 169,-213 114,-64 321,-141 444,-199 122,-59 160,-99 203,-118 42,-20 91,-20 136.9999,-34 47,-13 91,-39 150,-38 60,1 135,30 286,84 151,54 378,133 537,163 158,30 249,10 316,11 67,1 111,23 141,24 16,1 28,-5 42,-11 l 4,0 c 44,5 97,5 148,11 50,7 98,20 143,46 44,26 85,64 115,115 31,50 51,111 61,172 10,61 9,121 -3,180 -13,58 -36,115 -66,165 -30,50 -67,94 -108,131 -42,37 -88,67 -130,78 -43,11 -81,3 -103,-13 -18,-13 -26,-29 -38,-52 -3,-5 -5,-10 -7,-12 -5,-8 -9,3 -17,18 -34,70 -140,113 -206,144 z"
     id="path28"
     inkscape:connector-curvature="0"
     style="fill:#f6d5b8" /><path
     class="fil8"
     d="m 11608.61,6467.2191 c 131,206 285,374 392,485 107,112 167,167 212,239 45,73 76,164 128,221 52,57 124,81 190,90 48,7 92,5 104,18 72,-18 100,-23 125,-28 39,-7 73,-11 104,2 31,14 58,46 106,102 20,23 43,50 68,79 36,43 76,91 114,140 64,83 122,168 155,213 32,44 39,48 47,48 7,-1 17,-6 52,-53 36,-46 97,-135 195,-255 99,-121 234,-275 360,-407 126,-131 242,-241 391,-413 149,-172 330,-407 436,-555 106,-147 138,-208 142,-247 3,-39 -22,-57 -43,-82 -14,-16 -26,-36 -25,-64 0,-4 0,-8 1,-13 -16,-3 -31,-11 -46,-26 -39,-41 -77,-133 -120,-282 -43,-149 -91,-354 -115,-469 -23,-114 -23,-139 -2,-172 21,-33 63,-75 98,-148 36,-73 66,-178 69,-296.0001 4,-119 -20,-251 -55,-405 -35,-154 -82,-329 -128,-423 -45,-95 -88,-108 -118,-112 -29,-4 -46,2 -55,-1 -9,-4 -10,-16 -47,-153 -36,-137 -109,-400 -195,-604 -86,-204 -185,-349 -311,-479 -126,-130 -278,-245 -443,-372 -166,-127 -344,-265 -521,-367 -176,-101 -350,-165 -393,-165 -43,0 45,64 102,122 58,59 84,111 -10,107 -93,-4 -307,-66 -451,-97 -143,-31 -216,-31 -287,6 -72,36 -142,109 -231,185 -88,76 -194,155 -243,164 -50,9 -43,-53 -4,-139 40,-86 113,-196 95,-202 -17,-5 -125,94 -203,187 -77,92 -123,178 -145,181 -22,2 -20,-80 3,-165 23,-85 67,-173 30,-143 -38,30 -157,177 -213,313 -56,136 -49,259 -68,289 -19,30 -63,-34 -75,-146 -12,-111 8,-270 -29,-254 -36,15 -129,205 -197,358 -69,153 -113,270 -131,400 -19,130 -12,274 23,406 35,132 99,253 128,366 28,112 22,216 20,346 -3,130 0,287 40,431 41,144 120,277 174,370 55,94.0001 83,149.0001 93,181.0001 10,31 1,39 -40,59 -40,21 -113,54 -183,89 -70,35 -137,73 -167,104 -29,31 -20,55 -10,84 11,29 23,63 41,84 18,20 43,27 66,39 23,13 45,32 85,93 40,61 99,165 153,243 55,78 106,131 158,161 52,30 107,36 149,39 43,2 75,0 145,121 70,121 179,366 310,572 z"
     id="path30"
     inkscape:connector-curvature="0"
     style="fill:#f6d5b8" /><path
     class="fil9"
     d="m 14388.61,3656.219 c -30,9 -52,19 -77,43 -37,35 -78,101 -121,171 -43,70 -88,144 -125,195 -37,52 -66,80 -73,142 -8,61 5,154 29,249 25,95 60,191 83,293.0001 22,103 32,212 12,260 -21,48 -71,35 -108,-45 -37,-79 -60,-224 -128,-436.0001 -67,-212 -178,-490 -314,-690 -136,-201 -295,-324 -379,-474 -84,-149 -92,-324 -170,-414 -79,-90 -229,-95 -353,-89 -123,6 -220,21 -360,103 -140,81 -323,229 -506,309 -183,81 -366,94 -516,113 -150,18 -267,43 -351,106 -84,62 -134,164 -155,307 -21,143 -12,329 6,484 18,155 46,279 67,363 3,15 7,29 8,41.0001 -14,-25.0001 -30,-54.0001 -50,-89.0001 -54,-93 -134,-226 -174,-370 -41,-144 -43,-301 -41,-431 2,-130 9,-234 -20,-346 -29,-113 -93,-234 -128,-366 -35,-132 -42,-276 -23,-406 19,-130 63,-247 131,-400 68,-153 161,-343 197,-358 37,-16 17,143 29,254 12,112 56,176 75,146 19,-30 12,-153 68,-289 57,-136 176,-283 213,-313 38,-30 -6,58 -30,143 -23,85 -25,167 -3,165 22,-3 68,-89 146,-181 77,-93 185,-192 203,-187 17,6 -56,116 -95,202 -40,86 -47,148 3,139 50,-9 155,-88 244,-164 88,-76 158,-149 230,-185 72,-37 144,-37 288,-6 143,31 357,93 451,97 93,4 67,-48 10,-107 -58,-58 -146,-122 -103,-122 43,0 217,64 394,165 176,102 355,240 520,367 165,127 317,242 443,372 126,130 225,275 311,479 86,204 159,467 196,604 37,137 38,149 47,153 1,0 2,2 -1,3 z"
     id="path32"
     inkscape:connector-curvature="0"
     style="fill:#785742" /><path
     class="fil10"
     d="m 14219.61,3773.219 c -76,19 -179,30 -305,64 -126,34 -276,91 -385,140 -109,48 -176,88 -260,115 -83,28 -184,43 -344,80 -161,37 -381,96 -566,172 -184,76 -333,170 -440,230 -106,60 -170,86 -283,106 -113,20.0001 -275,33.0001 -407,55.0001 -110,18 -199,42 -331,79 -7,8 -19,15 -38,24 -41,21 -114,54 -184,89 -70,35 -137,73 -166,104 -30,31 -21,55 -10,84 10,29 22,63 40,84 19,20 43,27 66,39 23,13 45,32 86,93 40,61 98,165 153,243 54,78 105,131 157,161 53,30 107,36 150,39 23,1 43,1 67,19 36,-17 75,-22 125,-32 60,-13 135,-34 199,-77 64,-43 116,-108 150,-164 33,-56 47,-103 54,-188 6,-84 4,-206 14,-287 10,-82 32,-122 63,-143 32,-21 74,-22 137,20 64,42 149,127 230,200 82,73 160,133 245,165 85,32 177,37 277,24 100,-12 207,-42 298,-82 91,-40 165,-89 214,-138 50,-49 75,-98 81,-188 6,-91 -7,-223.0001 -16,-325.0001 -8,-102 -13,-174 16,-222 28,-49 90,-74 169,-101 79,-26 175,-55 270,-79 90,-22 179,-41 282,-57 12,-18 27,-38 48,-70 26,-39 62,-94 94,-145 32,-51 61,-96 81,-126 4,-6 8,-12 11,-17 -13,4 -27,8 -42,12 z"
     id="path34"
     inkscape:connector-curvature="0"
     style="fill:#333333" /><path
     class="fil0"
     d="m 12097.61,4598.219 c 42,-49 119,-104 208,-153 89,-48 189,-90 298,-118 108,-28 225,-43 304,-45 79,-3 120,6 158,38 39,32 75,87 104,172 29,84 50,199.0001 60,288.0001 9,90 8,154 -21,212 -29,59 -86,111 -165,157 -79,45 -179,82 -276,99 -96,16 -189,12 -277,-14 -88,-27 -172,-75 -242,-139 -69,-64 -124,-144 -157,-207 -32,-62 -42,-109 -43,-153 -1,-45 6,-88.0001 49,-137.0001 z"
     id="path36"
     inkscape:connector-curvature="0"
     style="fill:#e6e6e6" /><path
     class="fil0"
     d="m 10920.61,4891.2191 c 42,-21 94,-44 155,-61 60,-16 128,-27 212,-33 84,-7 183,-9 252,-4 69,5 108,17 130,62 22,46 27,124 30,215 3,92 3,197 -13,284 -15,87 -46,156 -93,210 -47,54 -110,93 -185,116 -76,23 -164,31 -240,23 -77,-8 -142,-31 -206,-93 -64,-62 -127,-164 -167,-241 -39,-78 -56,-132 -64,-187 -7,-55 -6,-110 9,-150 16,-39 45,-62 76,-83 31,-20 62,-38 104,-58 z"
     id="path38"
     inkscape:connector-curvature="0"
     style="fill:#e6e6e6" /><path
     class="fil11"
     d="m 14272.61,5250.2191 c -14,104 -1,304 1,476 3,172 -6,316 -66,469 -59,153 -169,316 -289,456 -119,140 -246,257 -336,359 -89,101 -140,187 -238,254 -98,68 -244,116 -341,145 -97,28 -145,37 -138,67 6,30 68,80 125,139 58,58 110,124 164,198 55,74 110,156 144,209 34,53 47,77 79,43 32,-35 83,-127 161,-233 78,-106 184,-225 313,-366 129,-141 281,-304 377,-438 96,-133 136,-237 156,-456 20,-219 20,-555 6,-803 -13,-248 -39,-409 -13,-502 27,-93 107,-118 153,-150 46,-33 58,-72 26,-70 -32,2 -109,44 -168,68 -59,25 -101,31 -116,135 z"
     id="path40"
     inkscape:connector-curvature="0"
     style="fill:#ebbc96" /><path
     class="fil12"
     d="m 3103.6101,14105.22 4392,296 c 245,10 1030.9999,51 1211.9999,-73 l 233,-158 c -34,-3 -71,-6 -109,-12 -137,-21 -302,-70 -445,-127 -142,-57 -261,-124 -383.9999,-179 -124,-55 -252,-99 -367,-151 -116,-51 -220,-111 -325,-176 -104,-65 -210,-136 -288,-170 -79,-34 -129,-32 -162,-1 -34,31 -49,90 -75,163 -27,73 -64,159 -116,195 -52,37 -118,23 -156,-7 -37,-31 -46,-80 -60,-110 -15,-29 -34,-40 -41,-73 -7,-33 0,-89 12,-151 12,-63 30,-134 71,-218 40,-83 104,-180 163,-270 58,-89 111,-171 170,-220 58,-50 122,-67 155,-88 33,-21 35,-46 36,-117 1,-57 1,-144 15,-244 l -363,-25 -1376,-4141.0009 c -41,-123 -127,-189 -251,-198 l -3599,79 c -155,13 -220,113 -175,268 l 1594,5120.0009 c 33,78 97,125 139,171 -210,112 -267,87 -198,371 42,178 134,235 298,246 z m 5934.9999,-1316 c 109,59 178,113 248,154 70,40 142,68 287,92 146,23 365,43 491,55 60,6 99,10 122,40 25,-8 49,-14 70,-18 73,-18 102,-14 207,-5 9,0 17,1 26,2 l 521,-402 c 92,-71 67,-86 78,-206 -114,-5 -231,-14 -330,-24 l -624,-44 -21,0 -482,-35 -198,-14 c -17,9 -34,18 -52,27 -88,41 -195,63 -286,48 -92,-14 -167,-65 -237,-78 -70,-13 -135,13 -211,21 -77,7 -166,-4 -225,-32 -35,-16 -59,-39 -76,-63 l -438.9999,-31 c -28,37 -55,73 -75,100 -48,64 -64,80 -34,80 29,0 103,-16 156,-16 52,0 84,16 138,16 53.9999,-1 130.9999,-18 198.9999,-16 69,3 131,26 186,57 54,31 102,70 201,120 99,51 250,114 360,172 z"
     id="path42"
     inkscape:connector-curvature="0"
     style="fill:#4a4949" /><path
     class="fil13"
     d="m 1715.6101,8402.2191 3504,-150 c 49,-2 39,-10 54,36 l 1184,3454.0009 c 14,40 23,37 -13,50 l -3271,1166 c -50,17 -40,23 -56,-26 l -1446,-4449.0009 c -14,-44 -12,-86 44,-81 z"
     id="path44"
     inkscape:connector-curvature="0"
     style="fill:#706f6f" /><path
     class="fil14"
     d="m 3058.6101,8344.2191 c 807,1353 1689,2612.0009 2720,3685.0009 l 666,-237 c 36,-13 27,-10 13,-50 l -1184,-3454.0009 c -15,-46 -5,-38 -54,-36 l -2161,92 z"
     id="path46"
     inkscape:connector-curvature="0"
     style="fill:#8f8d8e" /><path
     class="fil15"
     d="m 3058.6101,8344.2191 2161,-92 c 49,-2 39,-10 54,36 l 1184,3454.0009 c 14,40 23,37 -13,50 l -666,237 c 111,115 223,228 338,339 l 555,-179 -1376,-4141.0009 c -41,-123 -127,-189 -251,-198 l -2248,49 c 87,150 174,298 262,445 z"
     id="path48"
     inkscape:connector-curvature="0"
     style="fill:#4a4949" /><path
     class="fil13"
     d="m 2901.6101,13645.22 5648.9999,522 c 186,31 166,80 80,122 -79,38 -216,69 -298,71 l -5185.9999,-314 c -353,-21 -341,-374 -245,-401 z"
     id="path50"
     inkscape:connector-curvature="0"
     style="fill:#706f6f" /><path
     class="fil16"
     d="m 1341.6101,8129.2191 c -6,-19 5,-38 23,-44 18,-6 38,4 44,23 l 1687,5298.0009 c 6,18 -5,38 -23,44 -19,6 -38,-4 -44,-23 l -1687,-5298.0009 z"
     id="path52"
     inkscape:connector-curvature="0"
     style="fill:#8f8d8e;fill-rule:nonzero" /><path
     class="fil16"
     d="m 3961.6101,13429.22 c -18,7 -39,-1 -46,-19 -7,-18 2,-39 20,-46 l 2133,-860 c 18,-7 38,2 46,20 7,18 -2,38 -20,45 l -2133,860 z"
     id="path54"
     inkscape:connector-curvature="0"
     style="fill:#8f8d8e;fill-rule:nonzero" /><path
     class="fil17"
     d="m 3541.6101,13357.22 c -10,3 -20,-1 -23,-11 -3,-9 1,-19 10,-22 l 348,-129 c 9,-3 19,1 22,10 4,9 -1,19 -10,23 l -347,129 z"
     id="path56"
     inkscape:connector-curvature="0"
     style="fill:#cccccc;fill-rule:nonzero" /><path
     class="fil18"
     d="m 9648.61,13858.22 c -106,-58 -219,-76 -336,-82 -187,-10 -384,12 -757,-91 -374,-102 -924.9999,-329 -1245.9999,-455 -321,-126 -411,-150 -483,-85 -72,65 -125,219 -170,313 -45,94 -82,127 -119,134 -25,5 -50,-3 -95,-14 4,5 7,11 11,17 14,30 23,79 60,110 38,30 104,44 156,7 52,-36 89,-122 116,-195 26,-73 41,-132 75,-163 33,-31 83,-33 162,1 78,34 184,105 288,170 105,65 209,125 325,176 115,52 243,96 367,151 122.9999,55 241.9999,122 383.9999,179 143,57 308,106 445,127 136,21 244,15 306,11 139,-10 505,298 736,366 -8,-17 -16,-25 -26,-37 -32,-39 -74,-111 -114,-214 -41,-104 -80,-238 -85,-375 l 0,-51 z"
     id="path58"
     inkscape:connector-curvature="0"
     style="fill:#ebbc96" /><path
     class="fil18"
     d="m 9998.61,12103.22 c -67,8 -118,22 -182,15 -79,-9 -180,-50 -260,-26 -81,24 -141,114 -212,167 -70,54 -151,71 -239,64 -88,-7 -184,-39 -288,-46 -103,-7 -215,10 -289,-3 -74,-14 -111,-58 -130,-120 -12,-40 -17,-87 -26,-119 -13,-47 -18,-37 -38,-4 -14,24 -30,63 -34,102 -5,40 2,81 19,123 17,43 45,87 103,114 59,28 148,39 225,32 76,-8 141,-34 211,-21 70,13 145,64 237,78 91,15 198,-7 286,-48 66,-31 172,-74 206,-144 8,-15 12,-26 17,-18 2,2 4,7 7,12 12,23 20,39 38,52 22,16 60,24 103,13 42,-11 88,-41 130,-78 41,-37 78,-81 108,-131 3,-4 6,-9 8,-14 z"
     id="path60"
     inkscape:connector-curvature="0"
     style="fill:#ebbc96" /><path
     class="fil19"
     d="m 9038.61,12789.22 c 109,59 178,113 248,154 25,14 51,27 80,39 l 479,-360 -1304,-85 c 35,23 77,50 137,80 99,51 250,114 360,172 z m -4716.9999,707 3806.9999,416 c -41.9999,-21 -83.9999,-41 -125.9999,-60 -124,-55 -252,-99 -367,-151 -116,-51 -220,-111 -325,-176 -104,-65 -210,-136 -288,-170 -79,-34 -129,-32 -162,-1 -34,31 -49,90 -75,163 -27,73 -64,159 -116,195 -52,37 -118,23 -156,-7 -37,-31 -46,-80 -60,-110 -4,-6 -7,-12 -11,-17 -12,-18 -25,-31 -30,-56 -7,-33 0,-89 12,-151 12,-63 30,-134 71,-218 40,-83 104,-180 163,-270 58,-89 111,-171 170,-220 58,-50 122,-67 155,-88 33,-21 35,-46 36,-117 0,-6 1,-13 1,-20 l -186,-12 -2513,1070 z"
     id="path62"
     inkscape:connector-curvature="0"
     style="fill:#3d3c3c" /><path
     class="fil11"
     d="m 11298.61,5895.2191 c 70,121 179,366 310,572 131,206 285,374 392,485 107,112 167,167 212,239 45,73 76,164 128,221 52,57 124,81 190,90 48,7 92,5 104,18 l 5,-1 -1,-2 c -57,-73 -110,-150 -236,-331 -126,-182 -325,-468 -477,-839 -102,-247 -183,-532 -245,-807 -33,51 -81,106 -137,144 -64,43 -139,64 -199,77 -50,10 -88,15 -124,32 21,16 46,45 78,102 z m -516,-1612.0001 c 18,155 46,279 67,363 3,14 6,26 7,37.0001 24,45 39,75 45,96 5,16 5,26 -1,34 131,-36 219,-60 329,-78 97,-16 209,-27 307,-40 -410,-31.0001 -471,-96.0001 -507,-552.0001 -35,-457 315,-541 532,-719 217,-178 11,-55 17,-81 -106,22 -207,32 -296,43 -150,18 -267,43 -351,106 -84,62 -134,164 -155,307 -21,143 -12,329 6,484 z"
     id="path64"
     inkscape:connector-curvature="0"
     style="fill:#ebbc96" /></svg>