<?xml version="1.0" encoding="UTF-8" standalone="no"?>
<svg
   xmlns:dc="http://purl.org/dc/elements/1.1/"
   xmlns:cc="http://creativecommons.org/ns#"
   xmlns:rdf="http://www.w3.org/1999/02/22-rdf-syntax-ns#"
   xmlns:svg="http://www.w3.org/2000/svg"
   xmlns="http://www.w3.org/2000/svg"
   xmlns:sodipodi="http://sodipodi.sourceforge.net/DTD/sodipodi-0.dtd"
   xmlns:inkscape="http://www.inkscape.org/namespaces/inkscape"
   version="1.1"
   width="355"
   height="278"
   viewBox="0 0 355 278"
   id="svg2"
   inkscape:version="0.91 r13725"
   sodipodi:docname="silhouette-3262911.svg">
  <metadata
     id="metadata17">
    <rdf:RDF>
      <cc:Work
         rdf:about="">
        <dc:format>image/svg+xml</dc:format>
        <dc:type
           rdf:resource="http://purl.org/dc/dcmitype/StillImage" />
        <dc:title></dc:title>
      </cc:Work>
    </rdf:RDF>
  </metadata>
  <defs
     id="defs15" />
  <sodipodi:namedview
     pagecolor="#ffffff"
     bordercolor="#666666"
     borderopacity="1"
     objecttolerance="10"
     gridtolerance="10"
     guidetolerance="10"
     inkscape:pageopacity="0"
     inkscape:pageshadow="2"
     inkscape:window-width="640"
     inkscape:window-height="480"
     id="namedview13"
     showgrid="false"
     inkscape:zoom="0.24180328"
     inkscape:cx="300"
     inkscape:cy="488"
     inkscape:window-x="0"
     inkscape:window-y="0"
     inkscape:window-maximized="0"
     inkscape:current-layer="svg2" />
  <g
     id="layer1"
     transform="translate(-148.88136,-491.22034)">
    <g
       style="fill:#000000;fill-opacity:1;stroke-linejoin:miter"
       id="g5">
      <path
         d="m 466.12262,599.52185 c -7.97348,2.125 -14.10392,7.92355 -16.80158,15.95361 -0.77087,2.25238 -0.86494,3.00224 -0.84399,7.23864 -0.011,4.3669 0.057,4.92054 0.94959,7.49055 1.58746,4.68485 4.08196,8.28965 7.681,11.17235 13.83963,11.07655 34.23812,4.16456 38.48718,-13.0304 0.95834,-3.88273 0.73498,-9.48686 -0.55429,-13.1954 -2.81013,-8.10054 -9.3573,-14.06435 -17.44793,-15.8492 -3.22978,-0.701 -8.41075,-0.6101 -11.46998,0.21985 z"
         id="path7"
         inkscape:connector-curvature="0" />
    </g>
    <g
       style="fill:#000000;fill-opacity:1;stroke-linejoin:miter"
       id="g9">
      <path
         d="m 288.54346,515.44745 c -3.18433,1.73321 -4.07116,2.41852 -5.60279,4.59509 -0.92712,1.24951 -1.89447,3.02306 -2.21692,3.9502 -0.3225,0.927 -1.08837,2.21692 -1.69293,2.94246 -3.06342,3.4664 -4.39362,6.97325 -5.15942,13.34184 -0.524,4.31296 -0.6449,4.67572 -2.41846,6.44926 -0.96741,1.0077 -2.13634,1.8138 -2.57971,1.8138 -1.00769,0 -5.48187,2.3379 -9.5127,5.0385 -1.77349,1.2093 -4.27259,2.7007 -5.52213,3.3053 -3.38587,1.6526 -13.14036,10.7622 -14.8736,13.8256 -0.48368,0.8464 -1.41077,1.65256 -2.33783,2.05564 -1.20923,0.52406 -1.69297,1.04806 -2.29758,2.49916 -0.40307,1.04796 -1.16891,2.0959 -1.65259,2.3378 -0.52401,0.2822 -1.00769,0.84645 -1.16894,1.2496 -0.12094,0.403 -0.76587,1.0076 -1.41077,1.33006 -0.64493,0.36284 -1.24957,1.04804 -1.37048,1.53174 -0.12091,0.48364 -1.37045,1.81384 -2.70059,2.9021 -1.37049,1.12866 -3.14405,2.62006 -3.9502,3.3053 -0.84643,0.7255 -2.45877,1.89447 -3.66803,2.62 -4.39352,2.66033 -8.26306,5.56243 -9.14984,6.9329 -0.52402,0.7256 -2.01538,4.3533 -3.30527,8.02126 -1.28982,3.66804 -2.66028,7.21514 -2.98276,7.90039 -0.36276,0.64489 -0.64492,1.53165 -0.64492,1.93475 0,0.3628 -0.36277,1.8945 -0.76584,3.3455 -1.33017,4.4339 -2.21695,8.8275 -2.90216,13.70473 -0.4837,3.62763 -0.56433,4.07107 -0.88678,4.83692 -0.12092,0.32245 -0.40308,2.17665 -0.60462,4.0711 -0.4837,4.55475 -1.00772,5.56245 -3.5874,6.8523 -1.16894,0.60461 -2.66034,1.53175 -3.34555,2.13629 -0.68524,0.56436 -1.41077,1.04806 -1.53171,1.04806 -0.16122,0 -1.00769,0.6449 -1.89447,1.451 -2.41845,2.17666 -4.87723,4.19204 -5.15939,4.19204 -0.12094,0 -0.5643,-0.60464 -1.00769,-1.37044 -0.68524,-1.1286 -1.08832,-1.37047 -2.5394,-1.5317 -2.29752,-0.24184 -3.18433,0.2016 -3.18433,1.6929 0,1.0077 -0.16122,1.16896 -1.33013,1.2899 -1.89447,0.1612 -2.01542,1.6526 -0.20154,2.70065 0.72552,0.44335 1.53167,0.927 1.73324,1.1286 0.24182,0.1612 0.92707,0.52399 1.61227,0.72555 0.80619,0.28214 1.2899,0.7658 1.4108,1.41074 0.32245,1.69296 0.92707,2.25726 3.0231,3.02306 1.1286,0.40315 2.37815,1.0077 2.82154,1.2899 1.33014,0.88675 2.21692,0.76584 9.83508,-1.57205 0.76587,-0.24185 1.85419,-1.00765 2.41849,-1.69295 0.56433,-0.68516 1.45108,-1.6526 1.9751,-2.17656 1.57199,-1.6123 7.13449,-8.3034 7.77939,-9.35144 0.32248,-0.5643 1.20926,-2.7409 1.93481,-4.8369 0.76581,-2.0961 1.57199,-4.39357 1.89444,-5.03846 0.28217,-0.68524 0.88678,-2.49909 1.33017,-4.03084 0.44336,-1.572 1.08828,-3.1843 1.41077,-3.6277 0.36276,-0.4434 0.64492,-1.0883 0.64492,-1.41074 0,-0.32246 1.16892,-2.9425 2.57972,-5.84466 4.7966,-9.7948 6.3283,-13.1403 7.37631,-16.244 0.5643,-1.69296 1.28986,-3.3859 1.6123,-3.70834 0.56433,-0.52406 0.60462,-0.20156 0.3628,3.22464 -0.48371,7.13443 -1.04804,14.30924 -1.45108,17.7354 -0.20157,1.89446 -0.5643,6.1268 -0.80619,9.47234 -0.24185,3.30529 -0.68524,7.94061 -1.048,10.2785 -0.5643,3.82922 -0.5643,5.19971 0,14.71236 0.4837,8.70646 0.72555,10.84275 1.45111,12.69694 1.49136,3.86951 3.95016,8.62586 5.11908,9.87543 0.60461,0.6449 1.57199,1.85419 2.13629,2.66033 2.01541,2.98274 4.95785,6.4089 5.68341,6.6104 0.44339,0.1613 0.76587,0.4837 0.76587,0.7659 0,0.3225 0.28214,0.76586 0.64493,1.04796 0.44336,0.40314 0.5643,0.92714 0.36276,2.01538 -0.24185,1.53176 0.0403,2.45881 1.61231,5.03852 0.52398,0.88678 0.96737,2.09601 1.00769,2.70064 0,0.5643 0.32248,1.7332 0.76587,2.62 1.33013,2.7812 2.05569,4.5548 2.05569,5.19974 0,0.36276 0.36276,1.1286 0.80615,1.7735 0.84647,1.20926 1.73325,3.22461 1.37046,3.22461 -0.12092,0 -0.48368,-0.2821 -0.80616,-0.60455 -0.36276,-0.3225 -1.16894,-0.6047 -1.81387,-0.6047 -0.68518,0 -2.90216,-0.52396 -4.91754,-1.1689 -2.0557,-0.6852 -4.39352,-1.33016 -5.19971,-1.4511 -0.84646,-0.1209 -1.53168,-0.3627 -1.53168,-0.52396 0,-0.44344 -2.25723,-1.16894 -4.47415,-1.45114 -1.00772,-0.16116 -2.98282,-0.6046 -4.43387,-1.04794 -1.41079,-0.44342 -2.98281,-0.80616 -3.46649,-0.80616 -0.48367,0 -0.92706,-0.16125 -1.00769,-0.32244 -0.0403,-0.16126 -2.37814,-0.92706 -5.15942,-1.65266 -2.78122,-0.7255 -5.36093,-1.41076 -5.7237,-1.5317 -0.72552,-0.1612 -1.00769,-2.1363 -0.80618,-5.96555 0.12097,-2.94245 -0.92703,-5.60275 -2.98273,-7.41665 -1.00769,-0.88675 -2.4588,-1.8139 -3.22464,-2.0557 -0.76586,-0.2418 -1.37045,-0.68524 -1.37045,-0.92706 0,-0.36274 -0.0807,-0.36274 -0.32248,0 -0.20153,0.36276 -0.76587,0.36276 -1.89447,0.12091 -2.94247,-0.68518 -8.14218,1.00769 -9.23046,3.02305 -0.68525,1.2496 -1.00773,1.3705 -4.43388,1.6527 -4.59512,0.40305 -9.10958,2.7006 -12.89852,6.61044 -3.22461,3.34556 -4.1517,4.87726 -4.71601,7.94062 -0.64493,3.4262 -0.28216,4.31298 2.13629,5.32068 2.57972,1.04796 5.36097,1.08831 7.77945,0.0403 3.1843,-1.3704 3.95014,-1.1689 9.2305,2.4588 2.61997,1.7736 5.03845,3.5068 5.3609,3.82924 1.04801,1.00769 2.37817,0.6449 4.07111,-1.12864 l 1.6123,-1.6929 2.37818,0.9271 c 1.28982,0.4837 5.07879,1.89444 8.384,3.144 3.34558,1.2092 6.20743,2.4991 6.36865,2.7812 0.16123,0.32245 0.60462,0.56434 0.96738,0.56434 1.00769,0 5.76401,2.37816 6.00589,2.98276 0.36276,0.96743 6.04614,4.6757 7.13446,4.6757 0.84647,0 4.83694,2.0557 6.16711,3.144 0.68522,0.60464 4.2323,2.09603 4.95786,2.09603 0.36276,0 1.33014,0.44342 2.13632,1.00767 0.80615,0.56436 1.65262,1.0077 1.85416,1.0077 0.16122,0 1.53171,0.7256 3.02307,1.6123 1.45111,0.8868 3.82922,1.8945 5.19971,2.21694 1.41077,0.36279 2.98278,0.88676 3.54712,1.16896 2.21691,1.1689 10.07695,1.9751 13.46281,1.37047 5.19971,-0.96741 9.71417,-4.55481 10.60094,-8.46467 0.524,-2.3378 0.4031,-8.58556 -0.32244,-13.624 -0.24188,-1.65267 -0.48376,-4.0711 -0.56433,-5.32063 -0.0806,-1.28987 -0.44343,-4.2323 -0.76587,-6.61047 -0.48364,-3.1037 -0.52406,-4.6757 -0.24182,-5.72376 0.20154,-0.84644 0.76581,-3.02307 1.20923,-4.91754 0.4837,-1.8541 1.00769,-3.5874 1.20923,-3.8292 0.16125,-0.20157 0.44336,-1.24954 0.60467,-2.2573 0.28205,-1.9751 0.16113,-2.2169 -2.05577,-3.9501 -0.80616,-0.6449 -1.08827,-1.3302 -1.3705,-3.14407 -0.16113,-1.28979 -0.16113,-2.61999 0.0403,-2.94243 0.20155,-0.32246 0.36279,-0.4031 0.36279,-0.16127 0,0.76587 4.47418,1.00767 17.53388,1.00767 12.01171,-0.0403 12.61638,0 13.62402,0.7659 0.56439,0.44335 2.25732,1.3705 3.74866,2.0154 1.4914,0.6852 4.03076,2.096 5.5625,3.1843 4.31292,2.90216 9.59326,5.36096 16.0022,7.4166 8.02123,2.53945 12.25353,3.7487 15.07513,4.313 1.33014,0.2821 2.49907,0.6449 2.61999,0.8061 0.12091,0.16126 1.1286,0.4837 2.21692,0.7256 1.12866,0.2419 3.1037,0.7255 4.4339,1.04796 1.33014,0.32254 4.07106,0.88678 6.04614,1.28984 2.01538,0.3628 3.70832,0.7659 3.82922,0.92714 0.12098,0.1612 1.1286,0.48366 2.21693,0.76581 2.17663,0.52399 2.66034,0.64495 5.44159,1.08835 1.00768,0.1612 2.82153,0.6852 4.03076,1.2092 1.20929,0.4837 3.38586,1.1286 4.79669,1.41077 2.70056,0.56433 4.47413,1.77353 4.5144,3.06343 0,0.92704 2.49909,5.4415 4.31293,7.85997 3.10376,4.11139 7.37634,6.44928 10.80255,5.88493 2.94245,-0.4837 10.64125,-8.06157 10.64125,-10.47996 0,-0.80624 0.56426,-1.41077 2.78124,-2.90224 3.99048,-2.62 14.18836,-12.33415 16.28436,-15.5185 3.02307,-4.51445 5.96552,-10.19786 6.52985,-12.6163 0.4837,-2.1363 0.4837,-2.4991 -0.24182,-4.0711 -0.88678,-2.0154 -1.3302,-2.2572 -3.82923,-2.2572 -1.93487,0 -3.1844,0.64494 -5.24005,2.62 -0.72559,0.6449 -2.29755,1.9348 -3.50677,2.8215 -1.24958,0.8868 -2.25728,1.7332 -2.29755,1.8945 0,0.2015 -0.20153,0.3224 -0.44336,0.3224 -0.28223,0 -0.6853,0.2419 -0.92712,0.56436 -0.24183,0.32244 -1.73322,0.9674 -3.34559,1.45104 -1.57196,0.4434 -2.94244,1.04804 -3.02301,1.28986 -0.20153,0.52404 -7.98101,1.16894 -9.75457,0.8465 -0.76581,-0.16126 -1.24951,-0.60461 -1.53162,-1.37046 -0.20154,-0.60464 -0.64496,-1.20925 -0.96741,-1.33016 -0.9674,-0.3628 -2.57971,0.4837 -2.98285,1.57202 -0.2821,0.76581 -0.68518,1.00769 -1.57196,1.00769 -1.53167,0 -2.86187,1.6123 -2.86187,3.46645 0,1.41075 -0.28211,1.572 -2.17657,1.37046 -0.44343,-0.0403 -6.61048,-2.41852 -13.70466,-5.28036 -7.13452,-2.90213 -19.26714,-7.7794 -27.04657,-10.9234 -7.73907,-3.1037 -14.38989,-5.96555 -14.71234,-6.3686 -0.96735,-1.08834 -2.21693,-1.6123 -3.82923,-1.6123 -1.24957,0 -1.89446,-0.3628 -3.66802,-1.9751 -1.20923,-1.08835 -2.78125,-2.2976 -3.50678,-2.7006 -3.2649,-1.693 -5.0788,-2.49913 -6.812,-2.9828 -1.08833,-0.28214 -1.93476,-0.64494 -1.93476,-0.8061 0,-0.3225 -5.5625,-2.57974 -7.45697,-3.06344 -0.64497,-0.16126 -1.37049,-0.40306 -1.61231,-0.56436 -0.20154,-0.1612 -1.41076,-0.6046 -2.62006,-0.9674 -4.07104,-1.2495 -7.8197,-2.8215 -11.0846,-4.55473 -3.74865,-2.01537 -10.6413,-5.36097 -11.08465,-5.36097 -0.16131,0 -0.44335,-0.44335 -0.56433,-0.9674 -0.16125,-0.60455 -0.84649,-1.2495 -2.01538,-1.8138 -1.00769,-0.4434 -2.41844,-1.37047 -3.18432,-2.0557 -1.08832,-0.92713 -2.01538,-1.28986 -4.35327,-1.6526 -5.28028,-0.76586 -5.32062,-0.8062 -5.68342,-2.5394 -0.24183,-1.08834 -0.16119,-2.2573 0.28223,-3.7487 0.56427,-1.89445 0.56427,-2.2572 0,-3.30516 -0.92712,-1.85424 -0.40314,-4.51454 1.2898,-6.48964 1.45111,-1.6929 1.89447,-3.8695 1.00769,-4.95787 -0.20155,-0.24183 -0.60462,-1.16888 -0.88678,-2.01538 -0.28211,-0.88672 -0.72553,-2.0556 -1.04797,-2.61995 -1.16895,-2.25725 -0.20155,-5.9253 2.29754,-8.5049 1.08826,-1.169 1.20923,-1.4914 0.92706,-2.7813 -0.56427,-2.8215 0,-5.44157 1.65265,-7.33604 0.32245,-0.32246 0.92705,-1.61226 1.37042,-2.82153 0.68525,-1.77353 1.12867,-2.37813 2.33789,-3.02307 1.73322,-0.92706 2.09601,-2.01536 1.20924,-3.70831 -0.56428,-1.04805 -0.524,-1.28985 1.12865,-4.55481 0.92701,-1.89447 2.1363,-4.55474 2.66028,-5.96554 0.56427,-1.4914 1.61231,-3.22465 2.49909,-4.11137 l 1.53168,-1.61236 -0.28217,-2.66037 -0.28211,-2.66025 2.21692,0.28215 c 2.09601,0.2821 2.25721,0.20155 3.90986,-1.1689 1.57202,-1.33017 1.93475,-1.4511 4.192,-1.4511 1.37043,0 3.30525,0.2821 4.31294,0.6449 0.96741,0.32247 2.09596,0.524 2.49908,0.4434 0.40308,-0.12093 2.01538,0.1209 3.62768,0.5643 1.61237,0.4031 3.34553,0.7659 3.78895,0.7659 0.56433,0 1.04803,0.40305 1.37048,1.2092 0.56433,1.33015 1.93477,1.9751 2.4588,1.1689 0.20154,-0.32246 0.36274,-1.1689 0.36274,-1.8945 0,-1.8944 0.68523,-1.57194 0.96733,0.4838 0.16133,0.96733 0.52406,1.9751 0.80623,2.2169 0.60461,0.524 1.85412,0.1612 1.85412,-0.52404 0,-0.24183 0.16125,-0.68516 0.36279,-1.00769 0.32246,-0.48367 0.48371,-0.48367 1.04804,0.0806 0.36272,0.40307 0.80609,0.68523 0.96735,0.68523 0.60461,0 3.26495,-3.30529 3.26495,-4.03073 0,-1.3705 -1.57202,-5.0789 -2.53943,-5.9656 -2.41845,-2.25727 -7.45697,-3.10376 -13.86585,-2.33783 l -2.94244,0.36273 0,-1.77356 c 0,-2.74091 0.32244,-3.38584 2.17658,-4.55474 0.9674,-0.60456 1.97509,-1.57203 2.21692,-2.1767 0.28216,-0.60456 0.9674,-1.77344 1.57202,-2.61994 1.00769,-1.53176 1.08832,-1.53176 2.94244,-1.2898 4.59515,0.6449 6.61054,-3.18432 5.64313,-10.84286 -0.40308,-3.3052 -0.56433,-3.7889 -2.33783,-6.3687 -1.08838,-1.5316 -2.33789,-3.42607 -2.78132,-4.19194 -1.2898,-2.13636 -8.9483,-9.47236 -12.13262,-11.56836 -3.78894,-2.499 -4.39356,-2.70056 -8.90796,-2.70056 -3.10376,0 -4.23236,0.16119 -5.36096,0.76581 z"
         id="path11"
         inkscape:connector-curvature="0" />
    </g>
  </g>
</svg>
