<?xml version="1.0" encoding="UTF-8" standalone="no"?>
<svg
   xmlns:dc="http://purl.org/dc/elements/1.1/"
   xmlns:cc="http://creativecommons.org/ns#"
   xmlns:rdf="http://www.w3.org/1999/02/22-rdf-syntax-ns#"
   xmlns:svg="http://www.w3.org/2000/svg"
   xmlns="http://www.w3.org/2000/svg"
   xmlns:sodipodi="http://sodipodi.sourceforge.net/DTD/sodipodi-0.dtd"
   xmlns:inkscape="http://www.inkscape.org/namespaces/inkscape"
   version="1.1"
   width="550.05182"
   height="459.84381"
   viewBox="0 0 550.05182 459.84381"
   id="svg2"
   inkscape:version="0.91 r13725"
   sodipodi:docname="silhouette-3094287.svg">
  <metadata
     id="metadata15">
    <rdf:RDF>
      <cc:Work
         rdf:about="">
        <dc:format>image/svg+xml</dc:format>
        <dc:type
           rdf:resource="http://purl.org/dc/dcmitype/StillImage" />
        <dc:title></dc:title>
      </cc:Work>
    </rdf:RDF>
  </metadata>
  <defs
     id="defs13" />
  <sodipodi:namedview
     pagecolor="#ffffff"
     bordercolor="#666666"
     borderopacity="1"
     objecttolerance="10"
     gridtolerance="10"
     guidetolerance="10"
     inkscape:pageopacity="0"
     inkscape:pageshadow="2"
     inkscape:window-width="640"
     inkscape:window-height="480"
     id="namedview11"
     showgrid="false"
     fit-margin-top="0"
     fit-margin-left="0"
     fit-margin-right="0"
     fit-margin-bottom="0"
     inkscape:zoom="0.24180328"
     inkscape:cx="269.05727"
     inkscape:cy="471.20916"
     inkscape:window-x="0"
     inkscape:window-y="0"
     inkscape:window-maximized="0"
     inkscape:current-layer="svg2" />
  <g
     id="layer1"
     transform="translate(-35.078322,-230.55179)">
    <g
       id="g5">
      <g
         style="fill:#000000;fill-opacity:1;stroke-linejoin:miter"
         id="g7">
        <path
           d="m 199.60474,230.65982 c -2.22931,0.30603 -5.49765,1.48106 -7.57288,2.70262 -1.87549,1.0636 -5.55441,4.5437 -11.99646,11.34964 -4.04132,4.27367 -14.59744,14.11982 -17.3935,16.21248 -3.03588,2.29016 -7.6314,6.08337 -9.79018,8.02039 -0.55954,0.47435 -2.75832,2.45105 -4.91707,4.38815 -2.15854,1.89734 -5.51706,4.98132 -7.39695,6.84045 -1.9197,1.85901 -4.23779,3.83485 -5.196,4.46607 -5.9877,3.78552 -9.58459,6.82838 -13.22904,11.26333 -1.68188,2.01941 -3.80462,4.63295 -4.7655,5.74122 -0.96103,1.14843 -2.4447,3.2882 -3.36797,4.79455 -1.76651,2.93384 -1.76673,2.97351 -5.56366,6.2142 -3.87734,3.39942 -4.31735,3.83448 -7.87979,7.83228 -3.562466,3.9978 -6.13027,7.96142 -6.8608,10.58258 -0.73105,2.70092 1.03064,7.80232 3.56289,10.24286 0.98886,0.99982 0.74272,2.35098 -0.492354,2.70206 -0.557736,0.15612 -2.589691,0.7415 -4.581846,1.32708 -1.95236,0.58588 -3.944544,1.17139 -4.38317,1.36786 -2.35193,0.90186 -11.15588,3.23969 -13.54446,3.58436 -2.62723,0.34338 -5.3785,1.52148 -5.38268,2.2772 -0.0027,0.47743 -3.07651,2.44917 -4.990023,3.1944 -2.750547,1.05873 -5.500241,1.95826 -7.810574,2.54213 -1.23486,0.3114 -3.227473,0.9765 -4.384121,1.52691 -1.196377,0.55036 -2.471676,0.98084 -2.869442,0.97864 -0.397797,-0.002 -1.55371,0.42889 -2.59076,0.94025 -1.037074,0.51135 -2.71127,1.13845 -3.66723,1.37179 -2.310366,0.58386 -7.61572,3.2594 -7.45947,3.77722 0.07846,0.19941 1.19043,0.52381 2.50241,0.65039 2.30551,0.29127 4.17059,1.09717 8.689873,3.86695 4.83688,2.89099 11.717857,3.00866 16.625874,0.25146 1.276823,-0.70892 3.269443,-1.37414 4.901823,-1.64337 2.66769,-0.46252 2.78701,-0.46185 4.41213,0.58143 2.140446,1.36425 3.25263,1.6488 4.64792,1.09978 0.63776,-0.23516 3.86364,-0.93328 7.16888,-1.59112 3.30527,-0.65784 6.73,-1.35486 7.60619,-1.54889 3.58414,-0.73584 3.98102,-0.57447 5.63617,2.21918 0.82758,1.39679 3.51297,4.91217 5.96325,7.78973 3.28003,3.87677 4.4245,5.51398 4.42008,6.30945 -0.003,0.59667 -0.65302,2.9798 -1.42157,5.28259 -0.76859,2.30286 -1.9442,6.2742 -2.635,8.89572 -1.09738,4.21039 -2.06418,6.39283 -4.8342,10.95191 -0.92349,1.54625 -3.58013,7.17993 -4.306904,9.12495 -2.463286,6.62926 -2.671726,8.33855 -1.373416,10.93138 0.43268,0.87744 0.78513,1.8739 0.783145,2.23194 -0.0077,1.39215 1.960571,5.10238 3.661675,6.78256 2.76895,2.7998 5.86336,4.28882 9.64039,4.62799 1.86886,0.1297 3.81833,0.061 4.85388,-0.17187 0.91617,-0.2336 2.39014,-0.62324 3.30612,-0.81702 4.46117,-1.08898 10.25093,-5.03468 15.77195,-10.73203 3.28067,-3.40265 4.96436,-5.74023 10.14171,-14.02502 0.92306,-1.46668 1.603,-2.1391 2.15991,-2.13605 0.79553,0.004 7.85062,4.57825 8.12509,5.29578 0.0787,0.15966 0.35623,0.32024 0.67444,0.32202 0.27841,0.002 0.71439,0.28242 0.99109,0.60217 0.27667,0.31975 1.46512,1.20142 2.65466,1.88435 2.49756,1.52544 2.33908,1.40526 10.22751,6.34173 3.29024,2.04687 7.0158,4.49411 8.32356,5.37643 1.30753,0.92224 3.0515,2.04564 3.92421,2.4881 0.8331,0.40234 1.58555,1.00324 1.70353,1.24249 0.11779,0.27918 0.35513,0.51917 0.55401,0.52025 0.31824,0.002 6.30292,3.9333 6.69781,4.4526 0.11866,0.12 1.3071,1.00176 2.69373,2.00396 5.03203,3.56804 5.19045,3.68834 14.72762,12.57202 5.77762,5.40216 10.01382,9.00574 10.49115,9.00836 0.15912,9.2e-4 1.3869,0.9624 2.73312,2.08353 1.34601,1.16107 3.44602,2.64453 4.71512,3.32783 1.26932,0.64348 3.17062,2.086 4.19867,3.20555 1.02823,1.07978 2.96643,3.03955 4.3118,4.31995 1.34533,1.28033 2.45227,2.5197 2.45074,2.7981 -0.005,0.91485 3.47069,5.34954 6.20098,7.95025 2.69091,2.521 3.91668,3.84052 8.02761,8.51745 7.66852,8.71418 20.12714,21.59187 23.73046,24.5555 0.99,0.80095 3.2469,2.6831 4.98848,4.2441 3.08777,2.6823 4.67242,3.8447 9.03198,6.7329 2.41772,1.56474 2.5365,1.6848 5.70709,3.7708 1.3869,0.9624 2.61579,1.725 2.73517,1.7257 0.15906,8.5e-4 0.55554,0.24176 0.87195,0.56177 0.35647,0.28039 2.25955,1.40478 4.20291,2.44983 1.98285,1.08496 4.00555,2.1702 4.56067,2.4916 0.55525,0.2814 1.11085,0.5232 1.30969,0.5243 0.15918,9e-4 1.66602,0.84463 3.33112,1.8483 3.56781,2.20763 6.50444,3.457 10.71454,4.5942 1.70782,0.4868 3.45507,1.01364 3.89154,1.21494 0.43646,0.20126 1.86596,0.64686 3.17656,1.01216 1.3105,0.405 3.81245,1.1349 5.55946,1.70146 1.70758,0.52667 6.7131,1.70804 11.1235,2.60774 7.90674,1.635 7.98627,1.6355 12.03034,4.04454 4.7577,2.81096 10.8283,5.5893 12.18066,5.5968 0.51709,0.003 1.07312,0.1651 1.19116,0.40446 0.11818,0.1995 0.71375,0.4017 1.27063,0.40475 0.55689,0.003 1.54993,0.24735 2.22437,0.56925 0.71442,0.28243 2.10315,0.9266 3.13464,1.4097 1.0318,0.4433 2.06384,0.8468 2.26276,0.8479 0.35791,0.002 12.16852,7.78454 13.99054,9.1869 0.55426,0.4804 1.22844,0.8421 1.46716,0.8434 0.23865,10e-4 0.79352,0.3625 1.26818,0.84243 0.43513,0.44001 1.5437,1.36097 2.4551,2.00251 4.79424,3.40771 6.22088,4.37036 6.5391,4.37213 0.23866,0.001 0.47596,0.24133 0.59382,0.52043 0.078,0.2789 0.98958,0.8806 1.98114,1.4033 0.95204,0.48264 1.98236,1.1645 2.2591,1.4843 0.27667,0.3198 0.75244,0.6009 1.03094,0.6024 0.31818,0.002 0.95246,0.40314 1.427,0.88306 0.43512,0.44 2.53626,1.72454 4.6382,2.85004 10.98668,5.74926 14.67284,8.11663 19.3427,12.4386 0.6726,0.6402 1.58356,1.3612 2.01953,1.6421 1.22913,0.7229 8.87354,6.61266 10.25842,7.933 0.67249,0.67996 1.58338,1.4011 2.01941,1.68185 2.69624,1.56641 17.25946,15.09229 23.6258,21.92981 0.86981,0.95954 2.37311,2.4397 3.32287,3.32007 3.40363,3.12157 21.28247,21.28007 22.74402,23.11807 0.82959,1.0388 1.66028,1.8787 1.85913,1.8798 0.39777,0.002 9.45539,9.28106 9.45319,9.67877 -9.2e-4,0.15913 0.63243,0.71953 1.38556,1.20113 0.75287,0.5212 1.46487,1.2412 1.62197,1.6001 0.11716,0.39835 0.39384,0.7181 0.5927,0.7192 0.1989,10e-4 1.4658,1.0822 2.8109,2.40236 1.34516,1.32014 2.57227,2.401 2.6916,2.40164 0.1193,6.4e-4 1.2428,-1.7433 2.48784,-3.88443 1.24469,-2.10132 6.26456,-10.66553 11.12403,-18.99187 4.89913,-8.32625 11.04577,-19.231 13.65887,-24.1888 2.61296,-4.9578 6.55276,-12.4142 8.72386,-16.57885 6.8341,-12.92965 18.60024,-32.95215 27.1463,-46.15088 3.65084,-5.58847 3.8926,-6.14392 3.2586,-6.58502 -0.87155,-0.6413 -66.0341,-49.69159 -86.5928,-65.19989 -8.23933,-6.21143 -15.88496,-11.90229 -16.95496,-12.62426 -1.06994,-0.722 -2.25867,-1.5639 -2.57484,-1.9236 -0.35625,-0.32025 -1.07067,-0.60272 -1.62756,-0.60583 -0.55688,-0.003 -1.78692,-0.56683 -2.77777,-1.20874 -0.95092,-0.68153 -1.82317,-1.20349 -1.94257,-1.2041 -0.11926,-6.7e-4 -0.98986,-0.80115 -1.89947,-1.7608 -0.94933,-0.95997 -2.29577,-2.04145 -3.04956,-2.40363 -1.34887,-0.64398 -6.73047,-5.7256 -10.44677,-9.84338 -2.76752,-3.03858 -5.73072,-6.67482 -5.72895,-6.99298 6.7e-4,-0.11934 -0.43292,-0.83777 -0.98578,-1.55689 -0.55292,-0.71905 -0.98627,-1.47723 -0.98517,-1.67602 0.001,-0.23877 -0.6698,-1.15735 -1.46035,-2.03687 -0.83025,-0.91949 -1.85743,-2.19806 -2.29169,-2.79718 -0.43414,-0.59912 -1.85686,-2.27765 -3.16132,-3.75671 -2.64874,-2.95827 -5.88494,-7.55072 -7.45954,-10.54282 -0.59044,-1.117 -1.4174,-2.63318 -1.8905,-3.39165 -0.98547,-1.63637 -3.07018,-5.86445 -3.068,-6.26222 7e-4,-0.11932 -0.23552,-0.55823 -0.552,-0.87818 -0.27642,-0.35955 -1.06487,-1.63677 -1.6947,-2.83367 -0.62975,-1.19678 -1.69317,-3.11206 -2.36345,-4.18983 -1.37935,-2.31475 -7.99268,-14.802 -7.99091,-15.12023 6.6e-4,-0.11933 -0.51178,-0.95747 -1.10314,-1.91547 -1.26228,-1.91638 -4.45014,-8.05987 -6.57252,-12.68585 -1.92584,-4.18745 -5.38888,-10.92923 -6.10025,-11.76852 -0.31616,-0.35968 -0.75018,-0.9986 -0.98663,-1.39771 -1.3783,-2.51355 -2.91675,-4.82928 -4.49634,-6.90649 -2.05359,-2.67658 -2.88233,-3.87453 -3.90546,-5.86908 -0.39355,-0.75795 -1.69317,-3.112 -2.8352,-5.18689 -1.18183,-2.07508 -2.55982,-4.62854 -3.11127,-5.62598 -0.55115,-1.03728 -1.65466,-2.87318 -2.40333,-4.15021 -0.74895,-1.23737 -1.73455,-2.83392 -2.12835,-3.55217 -0.43377,-0.67854 -1.14312,-1.87593 -1.57629,-2.67384 -2.36328,-4.18973 -3.58563,-6.14572 -4.258,-6.82571 -0.39556,-0.39997 -0.71093,-0.91877 -0.70941,-1.19715 0.001,-0.2387 -0.2345,-0.7572 -0.55093,-1.0772 -0.31629,-0.35975 -1.02558,-1.55707 -1.65602,-2.6346 -0.5905,-1.117 -1.37816,-2.55346 -1.77233,-3.19207 -0.39404,-0.67833 -1.18164,-2.1148 -1.77227,-3.19207 -0.55066,-1.11683 -1.4576,-2.55384 -1.9707,-3.27274 -0.51344,-0.67902 -0.94672,-1.4372 -0.94538,-1.67584 10e-4,-0.19886 -0.23512,-0.63782 -0.47229,-0.91773 -0.2768,-0.27978 -0.98639,-1.43738 -1.53736,-2.5144 -0.55065,-1.11695 -2.67742,-4.94739 -4.72564,-8.57849 -4.88489,-8.57946 -5.23841,-9.37696 -4.99603,-10.05176 0.24176,-0.55554 4.6267,-2.2417 13.075,-5.01904 2.07246,-0.70459 4.0655,-1.44922 4.38532,-1.72596 0.3197,-0.2766 1.5163,-0.8667 2.59314,-1.37768 4.42694,-2.08362 9.33684,-5.19888 10.93787,-6.98002 1.64105,-1.82067 2.85071,-4.75744 2.86243,-6.8656 0.008,-1.432 -1.16852,-4.46166 -2.35322,-6.01965 -0.55291,-0.71899 -1.06628,-1.39819 -1.18474,-1.55785 -0.51313,-0.71888 -2.77326,-2.00425 -4.67902,-2.65134 -1.82648,-0.60682 -3.37726,-0.69506 -11.21393,-0.61916 -8.91098,0.1095 -9.10985,0.1084 -10.21872,-0.7727 -2.89069,-2.36315 -6.74213,-3.61754 -7.86163,-2.5896 -0.23963,0.15773 -1.8329,0.54664 -3.5846,0.81544 -6.40936,0.91906 -12.74097,2.15674 -13.45944,2.59026 -1.51654,0.9065 -12.41852,1.40284 -13.44836,0.60157 -0.51484,-0.40063 -2.97614,-1.28955 -7.7016,-2.74765 -1.0722,-0.32422 -2.89863,-0.93102 -3.97016,-1.37452 -1.11154,-0.40404 -3.57352,-1.17333 -5.48019,-1.66124 -2.30372,-0.60962 -5.43903,-1.89991 -9.32587,-3.95008 -7.17902,-3.73925 -9.63702,-5.22473 -12.16998,-7.54578 -1.26648,-1.16076 -2.4955,-1.88354 -3.36975,-2.0476 -0.75507,-0.1234 -1.70838,-0.36755 -2.06513,-0.60815 -0.39667,-0.20105 -0.95257,-0.36316 -1.23108,-0.36475 -0.75574,-0.004 -4.24064,-2.8081 -4.23709,-3.44458 0.002,-0.27832 -0.94715,-1.35754 -2.1344,-2.43811 -1.18755,-1.04089 -2.84802,-2.88001 -3.75653,-4.03844 -2.09338,-2.67691 -3.71844,-3.72024 -8.24462,-5.25687 -3.5731,-1.25305 -3.69242,-1.25366 -7.79145,-0.91833 -2.26859,0.22595 -4.57759,0.57129 -5.09581,0.76733 -1.9137,0.78492 -6.33582,1.99341 -7.17114,1.98877 -0.47733,-0.003 -1.51258,0.19043 -2.34922,0.42444 -1.31488,0.39039 -1.79174,0.30835 -4.01394,-0.65869 -1.3889,-0.60425 -3.33284,-1.53015 -4.32466,-2.01294 -0.99149,-0.52258 -3.57059,-1.69055 -5.75324,-2.61743 -2.18264,-0.92712 -4.4042,-2.01343 -4.95908,-2.37451 -4.35951,-2.88831 -13.61451,-5.28649 -17.87432,-4.63402 z m 52.10531,115.28766 c 1.5745,2.99219 4.46805,4.83802 8.086,5.17632 2.30573,0.25154 2.50409,0.3321 3.41105,1.76924 0.51247,0.83819 0.94384,1.95428 0.94097,2.47136 -0.009,1.67066 -2.83317,8.77522 -4.23559,10.5973 -0.28016,0.3166 -1.04786,2.4604 -1.77668,4.76337 -1.45715,4.52673 -1.74044,5.4002 -3.67602,10.12298 -1.16965,2.8974 -1.4903,3.3331 -3.44693,4.67465 l -2.19583,1.4596 -5.0517,-0.028 c -6.0063,-0.0334 -16.26362,-1.00524 -20.15669,-1.94171 -5.60147,-1.30397 -10.04717,-2.99937 -17.46553,-6.62057 -4.16532,-2.05188 -5.23535,-2.7738 -8.12332,-5.61408 -3.52115,-3.44049 -7.04403,-6.56268 -7.71871,-6.84492 -0.19845,-0.0806 -1.22909,-0.72283 -2.25979,-1.36504 -1.62534,-1.00348 -1.90152,-1.40271 -1.89558,-2.47668 0.005,-0.95465 0.36683,-1.58911 1.72587,-2.77498 1.91879,-1.69975 4.68147,-4.9461 4.6848,-5.54277 0.004,-0.63648 1.96606,-3.05213 2.92358,-3.56383 0.47888,-0.27577 1.39487,-0.4695 2.03152,-0.5058 1.03421,0.006 5.22025,-1.68147 7.01643,-2.78535 1.35708,-0.82775 1.75457,-0.78583 4.09588,0.22168 2.34131,1.00751 2.81842,1.04993 9.22246,1.08545 6.72232,0.0374 17.10849,-0.70056 21.2897,-1.5127 2.18997,-0.38562 7.13127,-1.98895 8.3286,-2.69848 0.35907,-0.19687 1.19528,-0.3513 1.83191,-0.3876 1.03424,0.006 1.35092,0.2861 2.4136,2.32058 z"
           id="path9"
           inkscape:connector-curvature="0" />
      </g>
    </g>
  </g>
</svg>
