<?xml version="1.0" encoding="UTF-8" standalone="no"?>
<svg
   xmlns:dc="http://purl.org/dc/elements/1.1/"
   xmlns:cc="http://creativecommons.org/ns#"
   xmlns:rdf="http://www.w3.org/1999/02/22-rdf-syntax-ns#"
   xmlns:svg="http://www.w3.org/2000/svg"
   xmlns="http://www.w3.org/2000/svg"
   xmlns:xlink="http://www.w3.org/1999/xlink"
   xmlns:sodipodi="http://sodipodi.sourceforge.net/DTD/sodipodi-0.dtd"
   xmlns:inkscape="http://www.inkscape.org/namespaces/inkscape"
   viewBox="0 0 744.09448819 1052.3622047"
   id="svg2"
   version="1.1"
   inkscape:version="0.91 r"
   sodipodi:docname="cactus-30302.svg">
  <metadata
     id="metadata376">
    <rdf:RDF>
      <cc:Work
         rdf:about="">
        <dc:format>image/svg+xml</dc:format>
        <dc:type
           rdf:resource="http://purl.org/dc/dcmitype/StillImage" />
      </cc:Work>
    </rdf:RDF>
  </metadata>
  <sodipodi:namedview
     pagecolor="#ffffff"
     bordercolor="#666666"
     borderopacity="1"
     objecttolerance="10"
     gridtolerance="10"
     guidetolerance="10"
     inkscape:pageopacity="0"
     inkscape:pageshadow="2"
     inkscape:window-width="640"
     inkscape:window-height="480"
     id="namedview374"
     showgrid="false"
     inkscape:zoom="0.22425739"
     inkscape:cx="294.01191"
     inkscape:cy="526.18109"
     inkscape:window-x="0"
     inkscape:window-y="0"
     inkscape:window-maximized="0"
     inkscape:current-layer="svg2" />
  <defs
     id="defs4">
    <linearGradient
       id="a">
      <stop
         stop-color="#11b502"
         offset="0"
         id="stop7" />
      <stop
         stop-color="#17910d"
         offset="1"
         id="stop9" />
    </linearGradient>
    <radialGradient
       id="d"
       cx="234.98"
       cy="490.59"
       r="56.948"
       gradientTransform="matrix(0.52003,-2.0963e-7,8.5158e-7,2.1125,112.78,-545.77)"
       gradientUnits="userSpaceOnUse"
       xlink:href="#a" />
    <radialGradient
       id="c"
       cx="342"
       cy="544.6"
       r="83.357"
       gradientTransform="matrix(0.60081,0.1996,-0.84951,2.5571,603.08,-969.34)"
       gradientUnits="userSpaceOnUse"
       xlink:href="#a" />
    <radialGradient
       id="b"
       cx="397"
       cy="537.87"
       r="82.83"
       gradientTransform="matrix(0.44044,0.25826,-0.41211,0.70284,460.06,69.179)"
       gradientUnits="userSpaceOnUse"
       xlink:href="#a" />
  </defs>
  <g
     id="g3704"
     transform="matrix(2.3167822,0,0,2.0990926,-399.40732,-636.15685)">
    <path
       id="path14"
       d="m 262.86,600.93 c 7.0719,-3.536 28.571,-40.128 28.571,-54.286 0,-14.158 -27.337,-7.954 -40,-14.286 -10.671,-5.3354 -8.5714,-29.003 -8.5714,-40 0,-12.171 2.7019,-30.807 5.7143,-42.857 3.1148,-12.459 0,-29.939 0,-42.857 0,-18.806 3.1021,-27.02 -11.429,-34.286 -13.461,-6.7303 -27.169,10.026 -31.429,14.286 -10.382,10.382 -8.0859,32.344 -11.429,45.714 -3.8747,15.499 -4.976,31.333 -8.5714,45.714 -2.8611,11.445 -2.3946,26.721 -5.7143,40 -3.3032,13.213 0,32.118 0,45.714 0,15.434 11.567,22.995 20,31.429 6.7401,6.7401 21.148,11.716 31.429,14.286 14.694,3.6736 24.357,-5.0355 31.429,-8.5714 z"
       style="fill:url(#d);fill-rule:evenodd;stroke:#000000"
       inkscape:connector-curvature="0" />
    <path
       id="path16"
       d="m 230.25,373.37 c 1.2785,3.8095 -2.3807,7.2823 -4.2017,10.924 -1.6689,3.3377 -2.521,6.4922 -2.521,10.924 0,3.9717 -0.84034,8.214 -0.84034,12.605 0,4.612 0.19259,9.3137 -0.84033,13.445 -1.1343,4.5373 -0.6307,7.5648 -1.6807,11.765 -1.0328,4.1313 -3.1132,7.4109 -4.2017,11.765 -0.99924,3.997 -1.6807,8.1148 -1.6807,11.765 0,3.1921 -1.6807,7.5663 -1.6807,11.765 0,4.5877 -0.63219,9.2514 -1.6807,13.445 -0.93076,3.723 -0.84033,8.8973 -0.84033,12.605 0,4.6515 -0.21161,9.2376 0.84033,13.445 0.9161,3.6644 0,8.8055 0,12.605 0,5.0033 1.3978,8.9526 2.521,13.445 1.1389,4.5556 3.0737,8.9335 4.2017,13.445 0.92209,3.6884 3.7544,8.0872 5.8823,10.924 3.3765,4.502 5.3024,7.8234 9.2437,11.765 2.9054,2.9054 4.9154,5.9974 9.2437,9.2437 3.9561,2.9671 5.5356,4.0283 9.2437,5.8823 3.5329,1.7665 4.5342,0.39699 6.7227,-2.521"
       inkscape:connector-curvature="0"
       style="fill:none;stroke:#000000" />
    <path
       id="path18"
       d="m 203.36,388.5 c 4.3818,1.0954 -1.6807,8.9287 -1.6807,13.445 0,4.8564 -0.84033,8.7268 -0.84033,13.445 0,3.1257 -0.77845,8.1558 -1.6807,11.765 -0.92726,3.709 -1.094,8.0704 -2.521,10.924 -1.5783,3.1566 -0.78233,8.1713 -1.6807,11.765 -1.0454,4.1815 -1.3959,8.1047 -2.521,12.605 -1.0076,4.0306 -1.4971,8.5095 -2.521,12.605 -1.0151,4.0604 -1.6807,8.1511 -1.6807,12.605 0,4.484 -0.84033,8.0123 -0.84033,12.605 0,3.0881 -0.91499,8.702 -1.6807,11.765 -0.9161,3.6644 0,8.8055 0,12.605 l 0,12.605 c 0,4.2938 0.0507,8.6062 0.84033,11.765 1.0078,4.0312 2.5618,8.5666 3.3613,11.765 1.0349,4.1395 3.856,8.2225 5.8823,10.924 2.7016,3.6022 4.5962,6.9686 7.563,10.924 2.5224,3.3632 5.4744,7.5875 6.7227,10.084 2.1793,4.3585 3.8025,5.6828 7.563,7.563 4.2891,2.1446 6.2696,4.0884 10.084,5.042 4.0683,1.0171 7.2891,0.84033 11.765,0.84033 7.7804,0 14.337,3.3098 20.168,-2.521"
       inkscape:connector-curvature="0"
       style="fill:none;stroke:#000000" />
    <path
       id="path20"
       d="m 345.71,769.51 c -1.0511,4.2043 11.374,4.313 -2.8572,11.429 -6.7564,3.3782 -31.971,22.722 -42.857,20 -17.57,-4.3924 -39.095,-6.5006 -45.714,-20 14.877,-7.4383 -11.429,-31.939 -11.429,-48.571 l 0,-60 c 0,-22.04 3.2809,-50.266 8.5714,-71.429 5.0571,-20.228 5.7143,-44.842 5.7143,-65.714 0,-16.291 5.7143,-31.279 5.7143,-48.571 0,-13.395 8.3217,-27.573 11.429,-40 3.4624,-13.85 8.4345,-27.887 11.429,-42.857 4.14,-20.7 0.72699,-26.441 17.143,-42.857 10.235,-10.235 30.783,-8.7329 42.857,-5.7143 18.668,4.667 33.529,11.575 48.571,22.857 14.005,10.504 14.286,22.725 14.286,42.857 0,15.069 -7.8121,32.767 -14.286,45.714 -7.6949,15.39 -18.298,28.025 -25.714,42.857 -7.9201,15.84 -10.206,32.253 -14.286,48.571 -3.536,14.144 -5.7143,26.001 -5.7143,40 l 0,42.857 c 0,14.909 -0.48137,29.503 2.8571,42.857 3.2549,13.02 -0.68091,34.152 -2.8571,42.857"
       style="fill:url(#c);fill-rule:evenodd;stroke:#000000"
       inkscape:connector-curvature="0" />
    <path
       id="path22"
       d="m 325.71,563.79 c -2.1742,1.0871 31.073,8.5714 42.857,8.5714 12.552,0 20.777,-18.697 25.714,-28.571 6.6887,-13.377 13.009,-24.437 20,-31.429 10.531,-10.531 20.631,-9.1281 34.286,-5.7143 15.667,3.9167 20.234,14.597 28.571,25.714 7.1865,9.582 -9.2968,34.33 -11.429,42.857 -3.1954,12.781 -11.996,26.849 -17.143,37.143 -8.7009,17.402 -15.592,18.184 -34.286,22.857 -13.832,3.4581 -24.783,2.8571 -40,2.8571 -12.297,0 -29.585,-9.0781 -40,-14.286 -12.524,-6.2618 -20,-6.2274 -20,-22.857 0,-13.547 3.1919,-23.415 11.429,-37.143 z"
       style="fill:url(#b);fill-rule:evenodd;stroke:#000000"
       inkscape:connector-curvature="0" />
    <path
       id="path24"
       d="m 228.57,388.5 -2.5994,-14.125 -12.729,6.6514 12.63,-6.837 -10.259,-10.051 10.405,9.8994 6.3885,-12.863 -6.1995,12.955 14.208,2.1009 -14.237,-1.8927 2.3924,14.161 z"
       inkscape:connector-curvature="0"
       style="fill:#808000" />
    <path
       id="path26"
       d="m 225.21,380.09 9.4503,-19.731 -23.043,-3.5771 21.685,2.8906 -3.7188,-23.021 3.9519,21.517 20.745,-10.651 -19.243,10.408 16.54,16.438 -15.845,-15.085 -10.523,20.81 z"
       inkscape:connector-curvature="0"
       style="fill:#808000" />
    <path
       id="path28"
       d="m 226.05,380.94 -6.9731,-15.817 -13.656,10.598 12.888,-11.52 -14.299,-9.7131 14.938,8.6976 4.8191,-16.601 -3.6557,16.895 17.277,-0.54666 -17.198,1.744 5.8589,16.263 z"
       inkscape:connector-curvature="0"
       style="fill:#808000" />
    <path
       id="path30"
       d="m 231.09,385.14 8.1534,-19.554 -20.947,-3.1727 21.117,1.7118 -3.4556,-20.902 4.8974,20.612 18.811,-9.7456 -18.09,11.027 15.082,14.879 -16.078,-13.797 -9.4905,18.942 z"
       inkscape:connector-curvature="0"
       style="fill:#808000" />
    <path
       id="path32"
       d="m 230.25,390.18 -4.7063,-19.911 -18.177,9.3902 17.482,-10.629 -14.548,-14.386 15.511,13.342 9.1861,-18.281 -7.8957,18.874 20.225,3.0874 -20.39,-1.6767 3.3136,20.189 z"
       inkscape:connector-curvature="0"
       style="fill:#808000" />
    <path
       id="path34"
       d="m 232.77,385.98 13.244,-11.701 -14.562,-10.014 15.221,8.9798 5.0243,-16.944 -3.8366,17.251 17.667,-0.45746 -17.593,1.6821 5.8944,16.661 -7.0362,-16.212 -14.024,10.754 z"
       inkscape:connector-curvature="0"
       style="fill:#808000" />
    <path
       id="path36"
       d="m 229.41,386.82 0.1892,-17.672 -17.191,4.0981 16.865,-5.2809 -9.2099,-15.083 10.234,14.408 11.499,-13.42 -10.54,14.186 16.317,6.7892 -16.748,-5.6408 -1.4148,17.616 z"
       inkscape:connector-curvature="0"
       style="fill:#808000" />
    <path
       id="path38"
       d="m 233.61,380.94 5.1962,-12.225 -13.12,-2.0794 13.232,1.1641 -2.0766,-13.12 2.9818,12.944 11.836,-6.0293 -11.389,6.8359 9.3918,9.3938 -10.021,-8.7195 -6.0318,11.835 z"
       inkscape:connector-curvature="0"
       style="fill:#808000" />
    <path
       id="path40"
       d="m 224.37,381.78 -1.3591,-16.012 -15.206,5.1981 14.808,-6.2406 -9.6425,-12.855 10.511,12.155 9.2463,-13.143 -8.3121,13.753 15.357,4.7323 -15.648,-3.6554 0.2449,16.068 z"
       inkscape:connector-curvature="0"
       style="fill:#808000" />
    <path
       id="path42"
       d="m 344.54,372.53 1.6261,-22.539 -22.262,3.8834 21.939,-5.4186 -10.573,-19.972 11.933,19.191 15.728,-16.227 -14.564,17.279 20.293,9.9434 -20.934,-8.5116 -3.1859,22.372 z"
       inkscape:connector-curvature="0"
       style="fill:#808000" />
    <path
       id="path44"
       d="m 355.46,378.41 11.529,-14.854 -17.204,-7.5862 17.689,6.3742 1.8984,-18.707 -0.59599,18.793 18.378,-3.9752 -18.058,5.2406 9.4596,16.25 -10.564,-15.554 -12.531,14.018 z"
       inkscape:connector-curvature="0"
       style="fill:#808000" />
    <path
       id="path46"
       d="m 376.47,385.14 8.2649,-16.346 -17.862,-4.0581 18.1,2.8091 -1.6601,-18.242 2.9217,18.082 16.836,-7.2158 -16.295,8.3665 12.065,13.782 -12.992,-12.912 -9.379,15.734 z"
       inkscape:connector-curvature="0"
       style="fill:#808000" />
    <path
       id="path48"
       d="m 330.25,378.41 -0.006,-23.286 -22.591,5.6475 22.144,-7.2012 -12.352,-19.74 13.692,18.835 14.957,-17.847 -13.682,18.842 21.596,8.7095 -22.148,-7.1902 -1.6098,23.23 z"
       inkscape:connector-curvature="0"
       style="fill:#808000" />
    <path
       id="path50"
       d="m 353.78,379.25 10.392,-24.45 -26.239,-4.1587 26.465,2.3283 -4.1532,-26.24 5.9637,25.889 23.672,-12.059 -22.779,13.672 18.784,18.788 -20.042,-17.439 -12.064,23.67 z"
       inkscape:connector-curvature="0"
       style="fill:#808000" />
    <path
       id="path52"
       d="m 335.29,380.94 -2.2226,-40.874 -39.118,12.06 38.187,-14.745 -23.557,-33.476 25.823,31.761 24.558,-32.749 -22.227,34.374 38.735,13.236 -39.56,-10.517 -0.61859,40.93 z"
       inkscape:connector-curvature="0"
       style="fill:#808000" />
    <path
       id="path54"
       d="m 353.78,387.66 23.224,-24.896 -29.781,-16.5 30.854,14.394 6.49,-33.422 -4.1556,33.792 33.792,-4.1556 -33.422,6.49 14.394,30.854 -16.5,-29.781 -24.896,23.224 z"
       inkscape:connector-curvature="0"
       style="fill:#808000" />
    <path
       id="path56"
       d="m 332.77,399.42 19.348,-44.032 -47.408,-8.1028 47.856,4.7942 -6.9436,-47.591 10.229,46.995 43.116,-21.31 -41.534,24.25 33.591,34.421 -35.898,-32.007 -22.356,42.584 z"
       inkscape:connector-curvature="0"
       style="fill:#808000" />
    <path
       id="path58"
       d="m 348.74,370.85 14.319,-26.995 -29.66,-7.3515 30.099,5.276 -2.1738,-30.48 4.2832,30.256 28.317,-11.486 -27.451,13.423 19.674,23.381 -21.249,-21.96 -16.157,25.937 z"
       inkscape:connector-curvature="0"
       style="fill:#808000" />
    <path
       id="path60"
       d="m 335.29,369.17 -3.8765,-19.136 -17.627,8.3975 17.002,-9.6003 -13.434,-14.169 14.384,13.203 9.3246,-17.155 -8.112,17.76 19.197,3.5672 -19.398,-2.2267 2.5395,19.359 z"
       inkscape:connector-curvature="0"
       style="fill:#808000" />
    <path
       id="path62"
       d="m 375.63,388.5 21.954,-15.216 -20.082,-17.614 21.255,16.178 10.546,-24.542 -8.8179,25.214 26.6,2.446 -26.705,-0.59465 5.8934,26.054 -7.6868,-25.582 -22.957,13.656 z"
       inkscape:connector-curvature="0"
       style="fill:#808000" />
    <path
       id="path64"
       d="m 452.94,522.95 -1.6098,-23.23 -22.148,7.1902 21.596,-8.7095 -13.682,-18.842 14.957,17.847 13.692,-18.835 -12.352,19.74 22.144,7.2012 -22.591,-5.6475 -0.006,23.286 z"
       inkscape:connector-curvature="0"
       style="fill:#808000" />
    <path
       id="path66"
       d="m 462.18,518.75 11.751,-8.4378 -11.034,-9.3569 11.656,8.5688 5.4894,-13.385 -4.5475,13.734 14.426,1.0845 -14.467,-0.081 3.4265,14.055 -4.3934,-13.784 -12.308,7.6021 z"
       inkscape:connector-curvature="0"
       style="fill:#808000" />
    <path
       id="path68"
       d="m 456.3,518.75 4.4499,-10.593 -11.356,-1.7507 11.45,0.95863 -1.8441,-11.341 2.6264,11.186 10.216,-5.2583 -9.8265,5.9544 8.1578,8.091 -8.6995,-7.5055 -5.1741,10.259 z"
       inkscape:connector-curvature="0"
       style="fill:#808000" />
    <path
       id="path70"
       d="m 443.7,517.07 0.93548,-19.304 -18.955,3.7694 18.648,-5.0754 -9.4424,-16.863 10.59,16.167 13.119,-14.191 -12.103,15.067 17.551,8.092 -18.07,-6.8548 -2.2725,19.192 z"
       inkscape:connector-curvature="0"
       style="fill:#808000" />
    <path
       id="path72"
       d="m 454.62,519.59 14.514,-21.381 -24.261,-8.9008 24.82,7.1962 0.96828,-25.824 0.82568,25.829 24.859,-7.0591 -24.309,8.7668 14.395,21.461 -15.85,-20.41 -15.962,20.323 z"
       inkscape:connector-curvature="0"
       style="fill:#808000" />
    <path
       id="path74"
       d="m 449.58,516.23 2.7902,-12.141 -12.456,0.23468 12.409,-1.0983 -4.0722,-11.773 4.8792,11.463 9.9389,-7.5111 -9.3938,8.1826 10.215,7.1314 -10.685,-6.4055 -3.6258,11.919 z"
       inkscape:connector-curvature="0"
       style="fill:#808000" />
    <path
       id="path76"
       d="m 458.82,533.88 7.6021,-12.308 -13.784,-4.3934 14.055,3.4265 -0.081,-14.467 1.0845,14.426 13.734,-4.5475 -13.385,5.4894 8.5688,11.656 -9.3569,-11.034 -8.4378,11.751 z"
       inkscape:connector-curvature="0"
       style="fill:#808000" />
    <path
       id="path78"
       d="m 468.07,530.51 10.977,-7.6079 -10.041,-8.8069 10.628,8.089 5.273,-12.271 -4.409,12.607 13.3,1.223 -13.353,-0.29732 2.9467,13.027 -3.8434,-12.791 -11.479,6.828 z"
       inkscape:connector-curvature="0"
       style="fill:#808000" />
    <path
       id="path80"
       d="m 450.42,517.07 5.1404,-13.829 -14.662,-1.6367 14.741,0.61548 -2.9743,-14.45 3.9697,14.209 12.824,-7.2942 -12.287,8.1664 10.9,9.9424 -11.564,-9.1622 -6.0875,13.439 z"
       inkscape:connector-curvature="0"
       style="fill:#808000" />
    <path
       id="path82"
       d="m 441.18,522.95 -0.86349,-24.862 -23.912,6.8615 23.378,-8.504 -13.915,-20.621 15.312,19.606 15.312,-19.606 -13.915,20.621 23.378,8.504 -23.912,-6.8615 -0.86349,24.862 z"
       inkscape:connector-curvature="0"
       style="fill:#808000" />
    <path
       id="path84"
       d="m 431.09,519.59 -0.9425,-6.5374 -6.0318,2.6914 5.9262,-2.9165 -4.4236,-4.9049 4.6051,4.7349 3.2979,-5.7228 -3.0801,5.8429 6.4618,1.368 -6.5087,-1.1238 0.69573,6.5683 z"
       inkscape:connector-curvature="0"
       style="fill:#ffff00" />
    <path
       id="path86"
       d="m 427.73,531.35 -5.0689,-8.0985 -6.4071,7.0872 6.1358,-7.3234 -8.7202,-3.9035 8.861,3.5724 1.0177,-9.4997 -0.65939,9.5312 9.3492,-1.9676 -9.2685,2.3182 4.7604,8.2836 z"
       inkscape:connector-curvature="0"
       style="fill:#ffff00" />
    <path
       id="path88"
       d="m 417.65,543.96 -3.4461,-8.9485 -7.6678,5.7581 7.4456,-6.0426 -7.8457,-5.5132 8.0477,5.2139 2.8189,-9.1654 -2.4718,9.265 9.5879,-0.15135 -9.5754,0.51218 3.1068,9.0719 z"
       inkscape:connector-curvature="0"
       style="fill:#ffff00" />
    <path
       id="path90"
       d="m 410.08,551.52 -4.9918,-4.003 -2.4882,5.8949 2.2645,-5.9844 -6.3753,-0.5448 6.3913,0.30441 -1.452,-6.2316 1.6855,6.1726 5.478,-3.3066 -5.3496,3.5104 4.8375,4.1881 z"
       inkscape:connector-curvature="0"
       style="fill:#ffff00" />
    <path
       id="path92"
       d="m 405.04,562.45 -5.9497,-11.36 -9.3038,8.8248 8.965,-9.1688 -11.268,-6.1214 11.49,5.6929 2.3399,-12.608 -1.8636,12.687 12.714,-1.6708 -12.642,2.1482 5.5178,11.575 z"
       inkscape:connector-curvature="0"
       style="fill:#ffff00" />
    <path
       id="path94"
       d="m 400.84,571.69 -8.3607,-8.8559 -6.2371,10.461 5.8389,-10.688 -11.876,-2.6993 11.969,2.2503 -1.1028,-12.129 1.5586,12.079 11.195,-4.7969 -11.006,5.2149 8.0214,9.1644 z"
       inkscape:connector-curvature="0"
       style="fill:#ffff00" />
    <path
       id="path96"
       d="m 389.07,582.62 -7.5262,-8.0522 -5.6918,9.4385 5.3324,-9.6461 -10.735,-2.4965 10.822,2.0906 -0.94308,-10.981 1.3558,10.938 10.153,-4.2904 -9.9839,4.6696 7.2177,8.3299 z"
       inkscape:connector-curvature="0"
       style="fill:#ffff00" />
    <path
       id="path98"
       d="m 373.11,588.5 -1.7462,-5.7029 -5.0096,3.2367 4.8842,-3.423 -4.6263,-3.7642 4.7648,3.5874 2.1503,-5.5631 -1.9394,5.6401 5.9553,0.32601 -5.9634,-0.10158 1.5302,5.7646 z"
       inkscape:connector-curvature="0"
       style="fill:#ffff00" />
    <path
       id="path100"
       d="m 354.62,587.66 5.5949,-7.4799 -8.7232,-3.3404 8.8428,3.0097 0.48133,-9.3285 -0.12981,9.34 9.0207,-2.4249 -8.923,2.7628 5.0937,7.8298 -5.3849,-7.6325 -5.8726,7.264 z"
       inkscape:connector-curvature="0"
       style="fill:#ffff00" />
    <path
       id="path102"
       d="m 342.86,585.14 -0.97334,-8.1756 -7.5994,3.1683 7.4747,-3.4521 -5.3615,-6.2484 5.593,6.0421 4.2858,-7.03 -4.0181,7.1863 8.0103,1.9036 -8.0763,-1.6007 0.66488,8.2065 z"
       inkscape:connector-curvature="0"
       style="fill:#ffff00" />
    <path
       id="path104"
       d="m 329.41,583.46 3.9876,-5.8109 -6.6787,-2.2498 6.7587,1.9968 0.0758,-7.0471 0.18953,7.0449 6.7256,-2.1056 -6.6416,2.3572 4.0808,5.7458 -4.2942,-5.588 -4.2035,5.6566 z"
       inkscape:connector-curvature="0"
       style="fill:#ffff00" />
    <path
       id="path106"
       d="m 349.58,586.82 -1.777,-7.3411 -6.5771,3.7136 6.4327,-3.9586 -5.5643,-5.1077 5.7526,4.8946 3.1382,-6.8703 -2.8774,6.9836 7.5038,0.86157 -7.5309,-0.57848 1.4994,7.4028 z"
       inkscape:connector-curvature="0"
       style="fill:#ffff00" />
    <path
       id="path108"
       d="m 326.05,578.41 0.6803,-7.3874 -7.2925,1.3623 7.236,-1.6358 -3.5491,-6.5146 3.7918,6.3764 5.099,-5.3885 -4.8926,5.5766 6.7005,3.1843 -6.8156,-2.9298 -0.95792,7.3565 z"
       inkscape:connector-curvature="0"
       style="fill:#ffff00" />
    <path
       id="path110"
       d="m 457.14,533.04 -3.5078,-12.225 -10.803,6.7119 10.543,-7.1138 -9.7216,-8.2001 10.023,7.8283 4.7946,-11.78 -4.3478,11.952 12.685,0.91979 -12.711,-0.44161 3.0451,12.348 z"
       inkscape:connector-curvature="0"
       style="fill:#ffff00" />
    <path
       id="path112"
       d="m 451.26,548.16 -5.1923,-14.651 -12.677,8.9948 12.33,-9.4656 -12.472,-9.2774 12.812,8.8013 4.9692,-14.729 -4.4112,14.905 15.543,0.17465 -15.539,0.4106 4.637,14.836 z"
       inkscape:connector-curvature="0"
       style="fill:#ffff00" />
    <path
       id="path114"
       d="m 443.7,555.72 -4.2652,-8.933 -7.4294,6.5419 7.1778,-6.8169 -8.5175,-5.0442 8.7013,4.72 2.1653,-9.6593 -1.8001,9.734 9.8557,-0.92561 -9.8138,1.296 3.9259,9.0873 z"
       inkscape:connector-curvature="0"
       style="fill:#ffff00" />
    <path
       id="path116"
       d="m 435.29,570.01 -3.4615,-9.7676 -8.4516,5.9965 8.2199,-6.3104 -8.3147,-6.1849 8.5417,5.8675 3.3128,-9.819 -2.9408,9.9368 10.362,0.11643 -10.359,0.27373 3.0913,9.891 z"
       inkscape:connector-curvature="0"
       style="fill:#ffff00" />
    <path
       id="path118"
       d="m 423.53,581.77 1.4531,-9.8601 -9.8823,1.2938 9.8266,-1.6649 -4.2843,-8.9988 4.62,8.8311 7.2344,-6.8554 -6.9712,7.1229 8.7554,4.7619 -8.9285,-4.429 -1.8233,9.7984 z"
       inkscape:connector-curvature="0"
       style="fill:#ffff00" />
    <path
       id="path120"
       d="m 410.92,589.34 3.0914,-9.891 -10.359,-0.27373 10.362,-0.11644 -2.9408,-9.9368 3.3128,9.819 8.5416,-5.8675 -8.3147,6.1849 8.2199,6.3104 -8.4516,-5.9965 -3.4615,9.7676 z"
       inkscape:connector-curvature="0"
       style="fill:#ffff00" />
    <path
       id="path122"
       d="m 406.72,597.74 -3.4307,-8.1294 -6.884,5.5196 6.6714,-5.7749 -7.3768,-4.8414 7.5538,4.5603 2.3249,-8.5118 -2.0029,8.5933 8.8136,-0.41914 -8.7916,0.75063 3.1222,8.2528 z"
       inkscape:connector-curvature="0"
       style="fill:#ffff00" />
    <path
       id="path124"
       d="m 389.07,601.94 8.0677,-6.7071 -8.6548,-5.9302 8.8719,5.6002 2.9655,-10.064 -2.5846,10.168 10.488,-0.28948 -10.469,0.68408 3.5161,9.8848 -3.8858,-9.7454 -8.3144,6.3986 z"
       inkscape:connector-curvature="0"
       style="fill:#ffff00" />
    <path
       id="path126"
       d="m 374.79,601.94 6.4603,-5.038 -6.6103,-4.8396 6.7878,4.5873 2.56,-7.7823 -2.2652,7.8731 8.1925,0.0299 -8.1878,0.27857 2.5032,7.8007 -2.7951,-7.701 -6.6454,4.7912 z"
       inkscape:connector-curvature="0"
       style="fill:#ffff00" />
    <path
       id="path128"
       d="m 361.34,600.26 8.1139,-4.2498 -6.3034,-6.6456 6.5491,6.4036 4.3725,-8.0485 -4.0664,8.2074 9.0057,1.6713 -9.0623,-1.3311 1.1934,9.0814 -1.5344,-9.0301 -8.2682,3.9413 z"
       inkscape:connector-curvature="0"
       style="fill:#ffff00" />
    <path
       id="path130"
       d="m 349.58,598.58 4.0184,-4.1726 -5.1112,-2.7267 5.2102,2.5323 1.0138,-5.7036 -0.79835,5.7377 5.7377,-0.79835 -5.7036,1.0138 2.5323,5.2102 -2.7267,-5.1112 -4.1726,4.0184 z"
       inkscape:connector-curvature="0"
       style="fill:#ffff00" />
    <path
       id="path132"
       d="m 336.97,596.06 5.7029,-1.7462 -3.2367,-5.0096 3.423,4.8842 3.7642,-4.6263 -3.5874,4.7648 5.5631,2.1504 -5.6401,-1.9394 -0.326,5.9553 0.10158,-5.9634 -5.7646,1.5302 z"
       inkscape:connector-curvature="0"
       style="fill:#ffff00" />
    <path
       id="path134"
       d="m 330.25,595.22 -0.12338,-6.5528 -6.2703,1.9076 6.194,-2.1423 -3.7518,-5.3739 3.9515,5.2288 3.9515,-5.2288 -3.7518,5.3739 6.194,2.1423 -6.2703,-1.9076 -0.12339,6.5528 z"
       inkscape:connector-curvature="0"
       style="fill:#ffff00" />
    <path
       id="path136"
       d="m 468.91,549.84 0.63403,-9.8447 -9.6438,2.0776 9.5588,-2.4392 -4.956,-8.5298 5.2736,8.3372 6.5808,-7.3493 -6.2995,7.5918 9.0232,3.9877 -9.1669,-3.6452 -1.0042,9.8138 z"
       inkscape:connector-curvature="0"
       style="fill:#ffff00" />
    <path
       id="path138"
       d="m 464.7,568.33 -5.0689,-8.0985 -6.4071,7.0872 6.1358,-7.3234 -8.7202,-3.9035 8.861,3.5724 1.0177,-9.4997 -0.65939,9.5312 9.3492,-1.9676 -9.2685,2.3182 4.7604,8.2836 z"
       inkscape:connector-curvature="0"
       style="fill:#ffff00" />
    <path
       id="path140"
       d="m 458.82,580.93 -6.7071,-8.0677 -5.9302,8.6548 5.6002,-8.8719 -10.064,-2.9655 10.168,2.5846 -0.28948,-10.488 0.68408,10.469 9.8848,-3.5161 -9.7454,3.8858 6.3986,8.3144 z"
       inkscape:connector-curvature="0"
       style="fill:#ffff00" />
    <path
       id="path142"
       d="m 469.75,554.88 -2.5653,-5.6875 -4.7711,4.0205 4.6164,-4.1972 -5.2981,-3.2952 5.4184,3.0934 1.4967,-6.057 -1.2677,6.1091 6.2231,-0.44825 -6.2018,0.6822 2.3494,5.78 z"
       inkscape:connector-curvature="0"
       style="fill:#ffff00" />
    <path
       id="path144"
       d="m 451.26,596.06 -0.97333,-8.1756 -7.5994,3.1683 7.4747,-3.4521 -5.3616,-6.2484 5.593,6.0421 4.2858,-7.03 -4.0181,7.1864 8.0103,1.9036 -8.0763,-1.6007 0.66487,8.2065 z"
       inkscape:connector-curvature="0"
       style="fill:#ffff00" />
    <path
       id="path146"
       d="m 437.81,605.3 2.2722,-9.8755 -10.121,0.51004 10.094,-0.89068 -3.6126,-9.4678 3.9664,9.3251 7.888,-6.3614 -7.643,6.6539 8.4876,5.5362 -8.69,-5.2127 -2.6424,9.783 z"
       inkscape:connector-curvature="0"
       style="fill:#ffff00" />
    <path
       id="path148"
       d="m 423.53,615.39 3.0914,-9.891 -10.359,-0.27374 10.362,-0.11643 -2.9408,-9.9368 3.3128,9.819 8.5417,-5.8675 -8.3147,6.1849 8.2199,6.3104 -8.4516,-5.9965 -3.4615,9.7676 z"
       inkscape:connector-curvature="0"
       style="fill:#ffff00" />
    <path
       id="path150"
       d="m 400,624.63 12.416,-10.075 -13.297,-8.8807 13.419,8.6949 4.3372,-15.39 -4.1227,15.449 15.977,-0.63089 -15.967,0.85309 5.5372,15 -5.7454,-14.922 -12.555,9.9015 z"
       inkscape:connector-curvature="0"
       style="fill:#ffff00" />
    <path
       id="path152"
       d="m 386.55,619.59 7.4681,-3.3816 -5.439,-6.1339 5.5238,6.0576 4.1529,-7.0683 -4.0542,7.1254 8.0057,1.7654 -8.0295,-1.6539 0.79485,8.1594 -0.90828,-8.1476 -7.5144,3.2774 z"
       inkscape:connector-curvature="0"
       style="fill:#ffff00" />
    <path
       id="path154"
       d="m 373.11,621.27 7.4566,-5.0463 -7.0259,-5.6305 7.1035,5.5322 3.1838,-8.4219 -3.0663,8.4654 8.9936,0.42545 -8.9986,-0.3003 2.3745,8.6849 -2.4951,-8.651 -7.526,4.9421 z"
       inkscape:connector-curvature="0"
       style="fill:#ffff00" />
    <path
       id="path156"
       d="m 358.82,616.23 12.462,-3.4163 -6.9493,-10.894 7.1002,10.797 8.2137,-9.9757 -8.0742,10.089 12.026,4.7291 -12.09,-4.5613 -0.78148,12.898 0.60197,-12.908 -12.509,3.2426 z"
       inkscape:connector-curvature="0"
       style="fill:#ffff00" />
    <path
       id="path158"
       d="m 342.86,611.19 6.6531,-0.87869 -2.8071,-6.0956 2.8916,6.056 4.9298,-4.5533 -4.866,4.6215 5.8539,3.2815 -5.899,-3.1998 -1.3119,6.5814 1.2202,-6.599 -6.6647,0.78605 z"
       inkscape:connector-curvature="0"
       style="fill:#ffff00" />
    <path
       id="path160"
       d="m 319.33,605.3 20.091,0.77917 -5.3558,-19.379 5.4674,19.348 16.776,-11.082 -16.712,11.179 15.724,12.53 -15.796,-12.439 -7.058,18.826 6.9494,-18.867 -20.086,-0.89486 z"
       inkscape:connector-curvature="0"
       style="fill:#ffff00" />
    <path
       id="path162"
       d="m 242.86,388.5 -5.0212,-5.6241 -4.0572,6.3547 3.7972,-6.5134 -7.2974,-1.8949 7.368,1.5986 -0.4529,-7.5258 0.7565,7.5014 7.0175,-2.7563 -6.9005,3.0375 4.79,5.8223 z"
       inkscape:connector-curvature="0"
       style="fill:#ffff00" />
    <path
       id="path164"
       d="m 242.02,399.42 -5.0377,-6.4417 -4.8398,6.5917 4.5697,-6.7818 -7.7646,-2.566 7.8619,2.2503 0.041,-8.1776 0.28929,8.1725 7.79,-2.488 -7.6832,2.8006 4.7734,6.6399 z"
       inkscape:connector-curvature="0"
       style="fill:#ffff00" />
    <path
       id="path166"
       d="m 239.5,412.03 -5.0377,-6.4417 -4.8398,6.5917 4.5697,-6.7818 -7.7646,-2.566 7.862,2.2503 0.041,-8.1776 0.28929,8.1725 7.79,-2.488 -7.6832,2.8006 4.7734,6.6399 z"
       inkscape:connector-curvature="0"
       style="fill:#ffff00" />
    <path
       id="path168"
       d="m 237.81,427.15 -4.2532,-8.0934 -6.6422,6.2829 6.383,-6.546 -8.0279,-4.3756 8.1981,4.0478 1.6806,-8.9871 -1.3163,9.0477 9.0666,-1.1788 -9.0116,1.544 3.9228,8.2586 z"
       inkscape:connector-curvature="0"
       style="fill:#ffff00" />
    <path
       id="path170"
       d="m 237.81,438.08 -7.5071,-7.2097 -4.9117,9.1767 4.537,-9.3676 -10.245,-1.8356 10.311,1.4203 -1.4203,-10.311 1.8356,10.245 9.3676,-4.537 -9.1767,4.9117 7.2097,7.5071 z"
       inkscape:connector-curvature="0"
       style="fill:#ffff00" />
    <path
       id="path172"
       d="m 233.61,452.36 -2.5849,-6.4912 -5.5507,4.2436 5.3748,-4.4643 -5.7512,-3.9676 5.9067,3.7321 1.9963,-6.6958 -1.7242,6.7709 6.9849,-0.17054 -6.9723,0.45252 2.3207,6.5904 z"
       inkscape:connector-curvature="0"
       style="fill:#ffff00" />
    <path
       id="path174"
       d="m 236.13,464.13 -7.474,-5.5745 -3.3463,8.7028 2.9921,-8.8308 -9.3109,-0.49324 9.3232,0.11677 -2.4081,-9.0076 2.77,8.903 7.8226,-5.0738 -7.6113,5.3856 7.2428,5.8719 z"
       inkscape:connector-curvature="0"
       style="fill:#ffff00" />
    <path
       id="path176"
       d="m 233.61,477.57 -5.8719,-7.2428 -5.3856,7.6113 5.0738,-7.8226 -8.903,-2.77 9.0076,2.4081 -0.11678,-9.3232 0.49324,9.3109 8.8308,-2.9921 -8.7028,3.3463 5.5745,7.474 z"
       inkscape:connector-curvature="0"
       style="fill:#ffff00" />
    <path
       id="path178"
       d="m 233.61,488.5 -6.6234,-3.9558 -2.0179,7.4462 1.7155,-7.5216 -7.7053,0.38187 7.6836,-0.69278 -2.7443,-7.2102 3.0332,7.0935 6.0093,-4.838 -5.809,5.0768 6.4582,4.2201 z"
       inkscape:connector-curvature="0"
       style="fill:#ffff00" />
    <path
       id="path180"
       d="m 231.93,505.3 -5.8884,-8.0604 -6.1683,7.8482 5.8462,-8.091 -9.3702,-3.4411 9.5016,3.0599 0.37717,-9.975 0.026,9.9821 9.6033,-2.7237 -9.4855,3.1094 5.558,8.2916 z"
       inkscape:connector-curvature="0"
       style="fill:#ffff00" />
    <path
       id="path182"
       d="m 233.61,516.23 -6.6729,-6.4086 -4.366,8.157 4.0329,-8.3267 -9.107,-1.6316 9.1654,1.2624 -1.2625,-9.1654 1.6316,9.107 8.3267,-4.0329 -8.157,4.366 6.4086,6.6729 z"
       inkscape:connector-curvature="0"
       style="fill:#ffff00" />
    <path
       id="path184"
       d="m 236.13,529.67 -8.2916,-5.558 -3.1094,9.4855 2.7237,-9.6033 -9.9821,-0.026 9.975,-0.37717 -3.0599,-9.5016 3.4411,9.3702 8.091,-5.8462 -7.8482,6.1683 8.0604,5.8884 z"
       inkscape:connector-curvature="0"
       style="fill:#ffff00" />
    <path
       id="path186"
       d="m 238.65,539.76 -7.4575,-4.7569 -2.5636,8.4658 2.2196,-8.5625 -8.8437,0.17792 8.8293,-0.53497 -2.9021,-8.3559 3.2372,8.2318 7.0501,-5.3421 -6.8286,5.6225 7.2593,5.0543 z"
       inkscape:connector-curvature="0"
       style="fill:#ffff00" />
    <path
       id="path188"
       d="m 248.74,550.68 -9.8277,-0.61938 2.0606,9.6292 -2.4479,-9.5381 -8.5211,4.9354 8.3148,-5.2755 -7.327,-6.579 7.5867,6.2777 3.9928,-9.0014 -3.626,9.1553 9.7947,1.0158 z"
       inkscape:connector-curvature="0"
       style="fill:#ffff00" />
    <path
       id="path190"
       d="m 251.26,562.45 -4.9717,-3.1713 -1.7091,5.6439 1.4798,-5.7083 -5.8958,0.11861 5.8862,-0.35664 -1.9347,-5.5706 2.1581,5.4879 4.7001,-3.5614 -4.5524,3.7484 4.8395,3.3695 z"
       inkscape:connector-curvature="0"
       style="fill:#ffff00" />
    <path
       id="path192"
       d="m 218.49,391.86 -1.8499,-10.596 -9.701,4.6456 9.5055,-5.0337 -7.416,-7.7907 7.7246,7.4848 5.1177,-9.4605 -4.7314,9.6595 10.579,1.9438 -10.649,-1.5149 1.4205,10.662 z"
       inkscape:connector-curvature="0"
       style="fill:#ffff00" />
    <path
       id="path194"
       d="m 215.13,401.94 -0.98278,-8.1595 -7.5899,3.1521 7.4564,-3.4561 -5.3432,-6.2444 5.5911,6.0235 4.2876,-7.0114 -4.0009,7.1788 7.9932,1.9111 -8.0638,-1.5867 0.65242,8.1925 z"
       inkscape:connector-curvature="0"
       style="fill:#ffff00" />
    <path
       id="path196"
       d="m 210.92,414.55 -1.8334,-9.7782 -8.9184,4.4087 8.733,-4.7653 -6.9488,-7.1195 7.2307,6.833 4.6238,-8.8088 -4.2642,8.9883 9.8065,1.6754 -9.8661,-1.2779 1.437,9.8442 z"
       inkscape:connector-curvature="0"
       style="fill:#ffff00" />
    <path
       id="path198"
       d="m 208.4,423.79 -4.2162,-7.4436 -5.8799,6.2138 5.7765,-6.3101 -7.7266,-3.672 7.7863,3.5438 1.1046,-8.4832 -0.96428,8.5003 8.4093,-1.5709 -8.3822,1.7096 4.0927,7.5123 z"
       inkscape:connector-curvature="0"
       style="fill:#ffff00" />
    <path
       id="path200"
       d="m 206.72,439.76 -2.5682,-9.1192 -7.9651,5.1296 7.8792,-5.2604 -7.3398,-5.9901 7.4378,5.868 3.4288,-8.8316 -3.2824,8.8871 9.459,0.53186 -9.4664,-0.37551 2.4172,9.1604 z"
       inkscape:connector-curvature="0"
       style="fill:#ffff00" />
    <path
       id="path202"
       d="m 206.72,458.25 -4.2643,-13.26 -11.426,7.9654 11.293,-8.1531 -11.106,-8.4056 11.244,8.221 4.5622,-13.16 -4.3441,13.234 13.926,0.27209 -13.929,-0.042 4.0446,13.328 z"
       inkscape:connector-curvature="0"
       style="fill:#ffff00" />
    <path
       id="path204"
       d="m 202.52,469.17 -2.5613,-8.2883 -7.1727,4.8793 7.0911,-4.9972 -6.857,-5.3139 6.9439,5.1998 2.9349,-8.1635 -2.7996,8.2108 8.6708,0.26856 -8.6741,-0.12527 2.424,8.3295 z"
       inkscape:connector-curvature="0"
       style="fill:#ffff00" />
    <path
       id="path206"
       d="m 200.84,480.93 -3.399,-9.1123 -7.7148,5.9219 7.6159,-6.0486 -8.0161,-5.5073 8.106,5.3741 2.7606,-9.3256 -2.6062,9.3699 9.7222,-0.25625 -9.7167,0.41684 3.248,9.1672 z"
       inkscape:connector-curvature="0"
       style="fill:#ffff00" />
    <path
       id="path208"
       d="m 199.16,494.38 -5.0402,-6.6059 -4.8374,6.7559 4.7251,-6.8349 -7.9201,-2.5129 7.9605,2.3817 -0.0575,-8.3089 0.19478,8.3069 7.8845,-2.6223 -7.8401,2.7522 4.9304,6.6883 z"
       inkscape:connector-curvature="0"
       style="fill:#ffff00" />
    <path
       id="path210"
       d="m 200.84,514.55 -3.4334,-13.267 -11.677,7.173 11.556,-7.365 -10.43,-8.8885 10.576,8.7149 5.2303,-12.666 -5.0203,12.751 13.663,1.0602 -13.678,-0.83431 3.2137,13.322 z"
       inkscape:connector-curvature="0"
       style="fill:#ffff00" />
    <path
       id="path212"
       d="m 199.16,529.67 -5.8574,-4.9373 -3.0024,7.0478 2.8856,-7.0964 -7.6306,-0.67761 7.6408,0.55144 -1.7136,-7.4666 1.8367,7.4372 6.5716,-3.937 -6.5056,4.045 5.775,5.0334 z"
       inkscape:connector-curvature="0"
       style="fill:#ffff00" />
    <path
       id="path214"
       d="m 207.56,554.88 -9.2665,-19.204 -15.502,14.64 15.401,-14.747 -18.714,-10.22 18.785,10.09 3.9365,-20.956 -3.7911,20.983 21.147,-2.732 -21.128,2.8786 9.1331,19.268 z"
       inkscape:connector-curvature="0"
       style="fill:#ffff00" />
    <path
       id="path216"
       d="m 199.16,518.75 -4.2162,-7.4437 -5.8799,6.2138 5.7765,-6.3101 -7.7266,-3.672 7.7863,3.5438 1.1046,-8.4832 -0.96428,8.5003 8.4093,-1.5709 -8.3822,1.7096 4.0926,7.5123 z"
       inkscape:connector-curvature="0"
       style="fill:#ffff00" />
    <path
       id="path218"
       d="m 205.04,550.68 -9.1603,-2.4172 0.3755,9.4664 -0.53185,-9.4589 -8.8871,3.2824 8.8316,-3.4288 -5.868,-7.4378 5.9901,7.3398 5.2604,-7.8792 -5.1296,7.9651 9.1192,2.5682 z"
       inkscape:connector-curvature="0"
       style="fill:#ffff00" />
    <path
       id="path220"
       d="m 210.92,570.85 -6.6814,-4.0995 -1.9599,7.5899 1.8342,-7.6212 -7.824,0.48145 7.815,-0.61066 -2.8756,-7.2923 2.9957,7.2438 6.0468,-4.9884 -5.9635,5.0876 6.6128,4.2094 z"
       inkscape:connector-curvature="0"
       style="fill:#ffff00" />
    <path
       id="path222"
       d="m 228.57,590.18 -16.729,-4.9394 0.32015,17.44 -0.47175,-17.436 -16.487,5.6936 16.437,-5.8367 -10.51,-13.921 10.63,13.829 9.9917,-14.297 -9.867,14.383 16.685,5.0846 z"
       inkscape:connector-curvature="0"
       style="fill:#ffff00" />
    <path
       id="path224"
       d="m 239.5,596.9 -2.5204,-3.3193 -2.4184,3.3943 2.378,-3.4227 -3.9755,-1.2512 3.9901,1.204 -0.0386,-4.1676 0.088,4.1668 3.9517,-1.3245 -3.9357,1.3713 2.4808,3.349 z"
       inkscape:connector-curvature="0"
       style="fill:#ffff00" />
    <path
       id="path226"
       d="m 249.58,597.74 -2.5204,-3.3193 -2.4184,3.3943 2.378,-3.4227 -3.9755,-1.2512 3.9901,1.204 -0.0386,-4.1676 0.088,4.1668 3.9517,-1.3245 -3.9357,1.3713 2.4808,3.349 z"
       inkscape:connector-curvature="0"
       style="fill:#ffff00" />
    <path
       id="path228"
       d="m 324.37,372.53 -0.0642,-10.836 -10.325,3.2874 10.286,-3.4096 -6.3173,-8.8042 6.4212,8.7287 6.4212,-8.7287 -6.3173,8.8042 10.286,3.4096 -10.325,-3.2874 -0.0642,10.836 z"
       inkscape:connector-curvature="0"
       style="fill:#ffff00" />
    <path
       id="path230"
       d="m 321.01,396.9 -8.4243,-14.954 -11.768,12.494 11.619,-12.633 -15.519,-7.331 15.605,7.1466 2.1764,-17.025 -1.9745,17.05 16.865,-3.1912 -16.826,3.3908 8.2464,15.053 z"
       inkscape:connector-curvature="0"
       style="fill:#ffff00" />
    <path
       id="path232"
       d="m 310.08,412.87 -3.4132,-13.317 -11.697,7.2231 11.61,-7.3612 -10.484,-8.8922 10.589,8.7673 5.2172,-12.719 -5.0661,12.78 13.709,1.0315 -13.72,-0.869 3.2551,13.356 z"
       inkscape:connector-curvature="0"
       style="fill:#ffff00" />
    <path
       id="path234"
       d="m 306.72,443.12 -6.7621,-15.798 -13.068,11.159 12.935,-11.313 -14.651,-8.9802 14.756,8.8059 4.0133,-16.709 -3.815,16.755 17.131,-1.3465 -17.114,1.5494 6.5744,15.877 z"
       inkscape:connector-curvature="0"
       style="fill:#ffff00" />
    <path
       id="path236"
       d="m 298.32,464.13 -4.2368,-11.645 -9.8553,7.5116 9.7656,-7.6279 -10.189,-7.0518 10.272,6.9305 3.5579,-11.87 -3.417,11.911 12.388,-0.28423 -12.384,0.43103 4.0985,11.694 z"
       inkscape:connector-curvature="0"
       style="fill:#ffff00" />
    <path
       id="path238"
       d="m 296.64,490.18 -9.2331,-10.782 -7.5438,12.024 7.4008,-12.113 -13.767,-3.4588 13.807,3.2954 -0.96468,-14.162 1.1324,14.15 13.171,-5.2938 -13.107,5.4495 9.1047,10.89 z"
       inkscape:connector-curvature="0"
       style="fill:#ffff00" />
    <path
       id="path240"
       d="m 288.23,509.51 -3.4181,-14.15 -12.491,7.476 12.402,-7.6235 -10.97,-9.5694 11.083,9.4388 5.7112,-13.39 -5.5521,13.457 14.5,1.2938 -14.514,-1.1219 3.2502,14.19 z"
       inkscape:connector-curvature="0"
       style="fill:#ffff00" />
    <path
       id="path242"
       d="m 285.71,525.47 -5.894,-9.9678 -7.761,8.5944 7.6586,-8.6858 -10.572,-4.7254 10.627,4.5998 1.2271,-11.515 -1.0906,11.529 11.33,-2.3912 -11.301,2.5253 5.7755,10.037 z"
       inkscape:connector-curvature="0"
       style="fill:#ffff00" />
    <path
       id="path244"
       d="m 284.03,553.2 -8.4094,-12.454 -9.3852,11.736 9.2455,-11.846 -14.062,-5.2993 14.123,5.1323 0.69462,-15.011 -0.51668,15.018 14.491,-3.978 -14.443,4.1495 8.2613,12.552 z"
       inkscape:connector-curvature="0"
       style="fill:#ffff00" />
    <path
       id="path246"
       d="m 278.15,572.53 -4.2319,-10.811 -9.0611,7.2588 8.9744,-7.3656 -9.7035,-6.3745 9.7784,6.2591 3.064,-11.198 -2.931,11.234 11.597,-0.5465 -11.59,0.68391 4.1035,10.861 z"
       inkscape:connector-curvature="0"
       style="fill:#ffff00" />
    <path
       id="path248"
       d="m 275.63,596.9 -2.5895,-14.989 -13.538,6.9346 13.455,-7.0946 -10.779,-10.733 10.905,10.604 6.8765,-13.568 -6.7152,13.648 15.029,2.3473 -15.055,-2.169 2.4117,15.018 z"
       inkscape:connector-curvature="0"
       style="fill:#ffff00" />
    <path
       id="path250"
       d="m 273.95,611.19 -5.9088,-12.468 -10.144,9.353 10.032,-9.4726 -12.03,-6.7571 12.109,6.6141 2.709,-13.529 -2.5484,13.56 13.704,-1.6044 -13.684,1.7667 5.7607,12.538 z"
       inkscape:connector-curvature="0"
       style="fill:#ffff00" />
    <path
       id="path252"
       d="m 273.95,628.83 -6.7276,-9.9629 -7.5082,9.3887 7.3964,-9.477 -11.249,-4.2394 11.299,4.1058 0.5557,-12.009 -0.41334,12.015 11.593,-3.1824 -11.554,3.3196 6.609,10.042 z"
       inkscape:connector-curvature="0"
       style="fill:#ffff00" />
    <path
       id="path254"
       d="m 272.27,648.16 -6.7374,-11.63 -9.0967,9.8944 8.9788,-10.002 -12.221,-5.5939 12.287,5.4487 1.5436,-13.352 -1.3852,13.369 13.175,-2.6579 -13.143,2.8138 6.5991,11.709 z"
       inkscape:connector-curvature="0"
       style="fill:#ffff00" />
    <path
       id="path256"
       d="m 371.43,397.74 -10.081,-13.277 -9.6737,13.577 9.5121,-13.691 -15.902,-5.0046 15.96,4.8158 -0.15432,-16.67 0.35187,16.667 15.807,-5.2982 -15.743,5.4851 9.9234,13.396 z"
       inkscape:connector-curvature="0"
       style="fill:#ffff00" />
    <path
       id="path258"
       d="m 365.55,414.55 -6.7424,-12.464 -9.891,10.147 9.77,-10.264 -12.707,-6.2712 12.781,6.1201 2.0375,-14.023 -1.8712,14.046 13.966,-2.3956 -13.937,2.5609 6.5942,12.543 z"
       inkscape:connector-curvature="0"
       style="fill:#ffff00" />
    <path
       id="path260"
       d="m 358.82,436.4 -6.7473,-13.297 -10.685,10.4 10.561,-10.526 -13.193,-6.9484 13.275,6.7916 2.5314,-14.695 -2.3571,14.724 14.758,-2.1333 -14.731,2.3081 6.5892,13.376 z"
       inkscape:connector-curvature="0"
       style="fill:#ffff00" />
    <path
       id="path262"
       d="m 357.14,456.57 -5.9187,-14.136 -11.732,9.8588 11.615,-9.9972 -13.002,-8.1116 13.097,7.957 3.6968,-14.872 -3.5203,14.915 15.287,-1.0798 -15.273,1.2609 5.7508,14.205 z"
       inkscape:connector-curvature="0"
       style="fill:#ffff00" />
    <path
       id="path264"
       d="m 349.58,472.53 -6.7325,-10.796 -8.3024,9.6416 8.1876,-9.7393 -11.735,-4.9167 11.793,4.7772 1.0496,-12.68 -0.89929,12.692 12.384,-2.9201 -12.348,3.0667 6.6041,10.875 z"
       inkscape:connector-curvature="0"
       style="fill:#ffff00" />
    <path
       id="path266"
       d="m 344.54,491.86 -6.7523,-14.131 -11.479,10.653 11.352,-10.788 -13.679,-7.6257 13.768,7.463 3.0254,-15.366 -2.8431,15.401 15.549,-1.871 -15.526,2.0552 6.5843,14.21 z"
       inkscape:connector-curvature="0"
       style="fill:#ffff00" />
    <path
       id="path268"
       d="m 342.02,511.19 -9.2529,-14.116 -10.721,13.036 10.566,-13.162 -15.711,-6.1678 15.783,5.9812 1.0111,-16.848 -0.81132,16.859 16.336,-4.2447 -16.284,4.438 9.0849,14.224 z"
       inkscape:connector-curvature="0"
       style="fill:#ffff00" />
    <path
       id="path270"
       d="m 336.13,525.47 -5.899,-10.801 -8.5553,8.8473 8.4498,-8.9481 -11.058,-5.4026 11.121,5.2712 1.7211,-12.186 -1.5765,12.206 12.122,-2.1289 -12.096,2.2724 5.7705,10.871 z"
       inkscape:connector-curvature="0"
       style="fill:#ffff00" />
    <path
       id="path272"
       d="m 328.57,545.64 -4.2418,-12.478 -10.65,7.7645 10.557,-7.8902 -10.675,-7.729 10.766,7.6019 4.0518,-12.541 -3.9029,12.588 13.18,-0.0219 -13.178,0.17814 4.0936,12.528 z"
       inkscape:connector-curvature="0"
       style="fill:#ffff00" />
    <path
       id="path274"
       d="m 327.73,557.41 -8.3848,-8.286 -5.4139,10.471 5.2894,-10.535 -11.632,-1.913 11.654,1.775 -1.775,-11.654 1.913,11.632 10.535,-5.2894 -10.471,5.4139 8.286,8.3848 z"
       inkscape:connector-curvature="0"
       style="fill:#ffff00" />
    <path
       id="path276"
       d="m 320.17,573.37 -5.8842,-8.3008 -6.1725,8.0887 6.0762,-8.1612 -9.6002,-3.3709 9.6394,3.2569 0.23927,-10.172 -0.1187,10.174 9.748,-2.9158 -9.7128,3.0311 5.7854,8.3699 z"
       inkscape:connector-curvature="0"
       style="fill:#ffff00" />
    <path
       id="path278"
       d="m 315.97,592.7 -4.2072,-6.6436 -5.0897,5.9944 5.0183,-6.0543 -7.2738,-2.9883 7.3087,2.9018 0.59428,-7.8412 -0.50131,7.8477 7.6411,-1.8579 -7.6185,1.9483 4.1282,6.693 z"
       inkscape:connector-curvature="0"
       style="fill:#ffff00" />
    <path
       id="path280"
       d="m 318.49,615.39 -10.895,-9.9382 -6.2438,13.36 6.085,-13.433 -14.636,-1.8097 14.656,1.6361 -2.8015,-14.478 2.9729,14.444 12.904,-7.1385 -12.819,7.2909 10.777,10.067 z"
       inkscape:connector-curvature="0"
       style="fill:#ffff00" />
    <path
       id="path282"
       d="m 315.13,639.76 -6.7523,-14.131 -11.479,10.653 11.352,-10.788 -13.679,-7.6257 13.768,7.463 3.0254,-15.366 -2.8431,15.401 15.549,-1.871 -15.526,2.0552 6.5843,14.21 z"
       inkscape:connector-curvature="0"
       style="fill:#ffff00" />
    <path
       id="path284"
       d="m 315.97,656.56 -6.7424,-12.464 -9.891,10.147 9.77,-10.264 -12.707,-6.2712 12.781,6.1201 2.0375,-14.023 -1.8712,14.046 13.966,-2.3956 -13.937,2.5609 6.5942,12.543 z"
       inkscape:connector-curvature="0"
       style="fill:#ffff00" />
    <path
       id="path286"
       d="m 314.29,678.41 -5.9237,-14.969 -12.527,10.112 12.406,-10.259 -13.488,-8.7889 13.591,8.6284 4.1908,-15.544 -4.0063,15.592 16.078,-0.81756 -16.067,1.008 5.7458,15.038 z"
       inkscape:connector-curvature="0"
       style="fill:#ffff00" />
    <path
       id="path288"
       d="m 314.29,693.54 -5.0506,-8.3057 -6.4254,7.2944 6.3385,-7.37 -8.9229,-3.8568 8.968,3.7508 0.91071,-9.678 -0.79595,9.6882 9.4858,-2.1245 -9.4599,2.2368 4.9518,8.365 z"
       inkscape:connector-curvature="0"
       style="fill:#ffff00" />
    <path
       id="path290"
       d="m 317.65,714.55 -6.7424,-12.464 -9.891,10.147 9.77,-10.264 -12.707,-6.2712 12.781,6.1201 2.0375,-14.023 -1.8712,14.046 13.966,-2.3956 -13.937,2.5609 6.5942,12.543 z"
       inkscape:connector-curvature="0"
       style="fill:#ffff00" />
    <path
       id="path292"
       d="m 320.17,734.72 -7.5808,-13.292 -10.432,11.194 10.299,-11.317 -13.87,-6.4625 13.946,6.2976 1.86,-15.188 -1.6799,15.209 15.02,-2.9245 -14.984,3.1023 7.4228,13.381 z"
       inkscape:connector-curvature="0"
       style="fill:#ffff00" />
    <path
       id="path294"
       d="m 321.01,755.72 -6.7473,-13.297 -10.685,10.4 10.561,-10.526 -13.193,-6.9484 13.275,6.7916 2.5314,-14.695 -2.3571,14.724 14.758,-2.1333 -14.731,2.3081 6.5893,13.376 z"
       inkscape:connector-curvature="0"
       style="fill:#ffff00" />
    <path
       id="path296"
       d="m 327.73,776.73 -7.5907,-14.959 -12.021,11.7 11.881,-11.842 -14.842,-7.817 14.934,7.6405 2.8479,-16.531 -2.6518,16.564 16.602,-2.4 -16.573,2.5966 7.4129,15.048 z"
       inkscape:connector-curvature="0"
       style="fill:#ffff00" />
    <path
       id="path298"
       d="m 330.25,789.34 -7.566,-10.792 -8.0496,10.436 7.9253,-10.53 -12.413,-4.4307 12.464,4.2833 0.3782,-13.174 -0.22204,13.178 12.646,-3.7114 -12.601,3.861 7.4376,10.88 z"
       inkscape:connector-curvature="0"
       style="fill:#ffff00" />
    <path
       id="path300"
       d="m 270.59,662.45 -4.2368,-11.645 -9.8553,7.5116 9.7656,-7.6279 -10.189,-7.0518 10.272,6.9305 3.5579,-11.87 -3.417,11.911 12.388,-0.28423 -12.384,0.43102 4.0985,11.694 z"
       inkscape:connector-curvature="0"
       style="fill:#ffff00" />
    <path
       id="path302"
       d="m 277.31,693.54 -10.941,-20.9 -16.588,16.773 16.496,-16.864 -21.078,-10.593 21.136,10.478 3.561,-23.32 -3.4336,23.339 23.279,-3.8196 -23.258,3.9467 10.826,20.959 z"
       inkscape:connector-curvature="0"
       style="fill:#ffff00" />
    <path
       id="path304"
       d="m 273.95,712.87 -5.0506,-8.3057 -6.4254,7.2944 6.3385,-7.37 -8.9229,-3.8568 8.968,3.7508 0.91072,-9.678 -0.79596,9.6882 9.4858,-2.1245 -9.4599,2.2368 4.9518,8.365 z"
       inkscape:connector-curvature="0"
       style="fill:#ffff00" />
    <path
       id="path306"
       d="m 273.95,726.31 -6.7374,-11.63 -9.0967,9.8944 8.9788,-10.002 -12.221,-5.5939 12.287,5.4487 1.5436,-13.352 -1.3852,13.369 13.175,-2.6579 -13.143,2.8138 6.5991,11.709 z"
       inkscape:connector-curvature="0"
       style="fill:#ffff00" />
    <path
       id="path308"
       d="m 276.47,739.76 -5.8842,-8.3008 -6.1725,8.0887 6.0762,-8.1612 -9.6002,-3.3709 9.6394,3.2569 0.23927,-10.172 -0.1187,10.174 9.7481,-2.9158 -9.7128,3.0311 5.7854,8.3699 z"
       inkscape:connector-curvature="0"
       style="fill:#ffff00" />
    <path
       id="path310"
       d="m 282.35,760.77 -8.4193,-14.121 -10.974,12.242 10.828,-12.371 -15.034,-6.6538 15.111,6.4751 1.6825,-16.354 -1.4886,16.373 16.073,-3.4535 -16.031,3.6437 8.2514,14.22 z"
       inkscape:connector-curvature="0"
       style="fill:#ffff00" />
    <path
       id="path312"
       d="m 282.35,776.73 -6.7177,-8.2958 -5.9196,8.8829 5.8139,-8.9524 -10.277,-2.8849 10.311,2.7629 -0.43217,-10.666 0.55855,10.66 10.01,-3.707 -9.9657,3.8253 6.6189,8.3749 z"
       inkscape:connector-curvature="0"
       style="fill:#ffff00" />
    <path
       id="path314"
       d="m 284.03,792.7 -6.7127,-7.4623 -5.1254,8.63 5.0227,-8.6902 -9.7915,-2.2077 9.817,2.0915 -0.92611,-9.9945 1.0445,9.9828 9.2191,-3.9692 -9.1714,4.0782 6.6238,7.5413 z"
       inkscape:connector-curvature="0"
       style="fill:#ffff00" />
    <path
       id="path316"
       d="m 275.63,694.38 -5.894,-9.9679 -7.761,8.5944 7.6586,-8.6858 -10.572,-4.7254 10.627,4.5998 1.2272,-11.515 -1.0906,11.529 11.33,-2.3912 -11.301,2.5253 5.7755,10.037 z"
       inkscape:connector-curvature="0"
       style="fill:#ffff00" />
    <path
       id="path318"
       d="m 404.2,406.99 -3.3934,-9.9827 -8.5197,6.2116 8.4455,-6.3122 -8.5403,-6.1832 8.613,6.0816 3.2415,-10.033 -3.1223,10.071 10.544,-0.0176 -10.543,0.14251 3.2749,10.022 z"
       inkscape:connector-curvature="0"
       style="fill:#ffff00" />
    <path
       id="path320"
       d="m 405.88,429.67 -5.0951,-15.808 -13.574,9.5703 13.459,-9.7305 -13.296,-9.952 13.413,9.7938 5.3561,-15.721 -5.1694,15.783 16.607,0.23593 -16.608,-0.0391 4.9074,15.867 z"
       inkscape:connector-curvature="0"
       style="fill:#ffff00" />
    <path
       id="path322"
       d="m 402.52,438.92 -0.8928,-9.9975 -9.2783,3.8288 9.2323,-3.9385 -6.5086,-7.641 6.5987,7.5634 5.2558,-8.5512 -5.1541,8.6129 9.7568,2.3561 -9.7841,-2.2403 0.77426,10.007 z"
       inkscape:connector-curvature="0"
       style="fill:#ffff00" />
    <path
       id="path324"
       d="m 395.8,472.53 -0.0642,-25.962 -24.711,7.9616 24.671,-8.0838 -15.208,-21.041 15.312,20.966 15.312,-20.966 -15.208,21.041 24.671,8.0838 -24.711,-7.9616 -0.0642,25.962 z"
       inkscape:connector-curvature="0"
       style="fill:#ffff00" />
    <path
       id="path326"
       d="m 385.71,481.78 1.6325,-5.8446 -6.0656,0.18162 6.063,-0.25349 -2.0471,-5.7126 2.1147,5.688 4.8004,-3.7122 -4.7561,3.7688 5.014,3.4184 -5.0541,-3.3587 -1.7016,5.8249 z"
       inkscape:connector-curvature="0"
       style="fill:#ffff00" />
    <path
       id="path328"
       d="m 379.83,492.7 -2.5549,-9.1541 -7.9783,5.1645 7.9165,-5.2587 -7.3771,-5.9919 7.4476,5.904 3.419,-8.8677 -3.3136,8.9076 9.4902,0.51138 -9.4956,-0.39887 2.4463,9.1837 z"
       inkscape:connector-curvature="0"
       style="fill:#ffff00" />
    <path
       id="path330"
       d="m 397.48,467.49 -5.0556,-9.1393 -7.2196,7.5473 7.1297,-7.6323 -9.4089,-4.5341 9.462,4.4222 1.4046,-10.349 -1.2819,10.365 10.277,-1.8623 -10.254,1.9839 4.9469,9.1985 z"
       inkscape:connector-curvature="0"
       style="fill:#ffff00" />
    <path
       id="path332"
       d="m 378.15,491.02 -1.7165,-8.3255 -7.4369,4.1173 7.3876,-4.2052 -6.2139,-5.8006 6.2822,5.7266 3.5965,-7.7023 -3.505,7.7444 8.4367,1.0403 -8.4484,-0.94026 1.6177,8.3452 z"
       inkscape:connector-curvature="0"
       style="fill:#ffff00" />
    <path
       id="path334"
       d="m 372.27,506.99 -0.91751,-14.165 -13.25,5.0932 13.188,-5.2499 -8.9383,-11.027 9.0684,10.921 7.7255,-11.908 -7.5838,11.999 13.713,3.6674 -13.755,-3.5047 0.74957,14.175 z"
       inkscape:connector-curvature="0"
       style="fill:#ffff00" />
    <path
       id="path336"
       d="m 369.75,517.91 -2.55,-8.3205 -7.184,4.9116 7.1253,-4.9964 -6.8912,-5.3146 6.9537,5.2326 2.925,-8.1962 -2.8277,8.2303 8.699,0.2491 -8.7013,-0.14599 2.4512,8.3502 z"
       inkscape:connector-curvature="0"
       style="fill:#ffff00" />
    <path
       id="path338"
       d="m 363.02,532.2 -1.7313,-10.826 -9.8197,4.876 9.7612,-4.992 -7.6718,-7.8323 7.764,7.7409 5.0783,-9.7166 -4.9628,9.7761 10.81,1.8271 -10.831,-1.6989 1.6029,10.846 z"
       inkscape:connector-curvature="0"
       style="fill:#ffff00" />
    <path
       id="path340"
       d="m 362.18,551.52 -6.7473,-13.297 -10.685,10.4 10.561,-10.526 -13.193,-6.9484 13.275,6.7916 2.5314,-14.695 -2.3571,14.724 14.758,-2.1333 -14.731,2.3081 6.5893,13.376 z"
       inkscape:connector-curvature="0"
       style="fill:#ffff00" />
    <path
       id="path342"
       d="m 352.94,563.29 -2.5599,-9.9876 -8.7726,5.4174 8.7077,-5.5209 -7.8631,-6.6692 7.9416,6.5755 3.9129,-9.5391 -3.7996,9.5848 10.281,0.77366 -10.29,-0.65175 2.4413,10.017 z"
       inkscape:connector-curvature="0"
       style="fill:#ffff00" />
    <path
       id="path344"
       d="m 356.3,570.85 -3.3786,-7.4821 -6.1369,5.453 6.0718,-5.5253 -7.0825,-4.1514 7.1312,4.0672 1.7597,-8.0187 -1.6645,8.039 8.17,-0.80439 -8.1599,0.90116 3.2897,7.5216 z"
       inkscape:connector-curvature="0"
       style="fill:#ffff00" />
    <path
       id="path346"
       d="m 349.58,651.52 -5.9088,-12.468 -10.144,9.353 10.032,-9.4726 -12.03,-6.7571 12.109,6.6141 2.709,-13.529 -2.5484,13.56 13.704,-1.6044 -13.684,1.7667 5.7607,12.538 z"
       inkscape:connector-curvature="0"
       style="fill:#ffff00" />
    <path
       id="path348"
       d="m 348.74,666.65 -4.2121,-7.4771 -5.884,6.2472 5.8096,-6.3165 -7.7597,-3.6655 7.8026,3.5733 1.0882,-8.5126 -0.98726,8.525 8.4323,-1.5956 -8.4128,1.6954 4.1232,7.5265 z"
       inkscape:connector-curvature="0"
       style="fill:#ffff00" />
    <path
       id="path350"
       d="m 349.58,679.25 -5.0457,-7.4722 -5.6311,7.0415 5.5473,-7.1078 -8.437,-3.1796 8.4741,3.0794 0.41678,-9.0066 -0.31001,9.0109 8.6946,-2.3868 -8.6657,2.4897 4.9568,7.5315 z"
       inkscape:connector-curvature="0"
       style="fill:#ffff00" />
    <path
       id="path352"
       d="m 352.1,694.38 -7.5611,-9.958 -7.2553,10.183 7.1341,-10.268 -11.927,-3.7535 11.97,3.6119 -0.11574,-12.503 0.2639,12.5 11.855,-3.9736 -11.807,4.1138 7.4426,10.047 z"
       inkscape:connector-curvature="0"
       style="fill:#ffff00" />
    <path
       id="path354"
       d="m 349.58,708.67 -5.0654,-10.806 -8.8082,8.053 8.7121,-8.1568 -10.381,-5.8886 10.45,5.7651 2.3925,-11.692 -2.2538,11.72 11.859,-1.3377 -11.843,1.4782 4.937,10.866 z"
       inkscape:connector-curvature="0"
       style="fill:#ffff00" />
    <path
       id="path356"
       d="m 350.42,722.95 -5.8891,-9.1343 -6.9668,8.3415 6.8674,-8.4235 -10.086,-4.0481 10.133,3.9283 0.7332,-10.843 -0.60465,10.851 10.539,-2.6535 -10.507,2.7782 5.7804,9.2035 z"
       inkscape:connector-curvature="0"
       style="fill:#ffff00" />
    <path
       id="path358"
       d="m 349.58,738.92 -4.2368,-11.645 -9.8553,7.5116 9.7656,-7.6279 -10.189,-7.0518 10.272,6.9305 3.5579,-11.87 -3.417,11.911 12.388,-0.28423 -12.384,0.43102 4.0985,11.694 z"
       inkscape:connector-curvature="0"
       style="fill:#ffff00" />
    <path
       id="path360"
       d="m 354.62,763.29 -10.93,-17.575 -13.402,15.771 13.337,-15.826 -19.14,-7.8728 19.173,7.7941 1.5727,-20.636 -1.488,20.643 20.112,-4.8813 -20.092,4.9638 10.857,17.62 z"
       inkscape:connector-curvature="0"
       style="fill:#ffff00" />
    <path
       id="path362"
       d="m 348.74,776.73 -5.021,-3.3045 -1.6598,5.7771 1.5912,-5.7964 -6.0073,0.20667 6.0044,-0.27785 -2.0529,-5.6494 2.1197,5.6247 4.7385,-3.6982 -4.6943,3.7541 4.9815,3.3638 z"
       inkscape:connector-curvature="0"
       style="fill:#ffff00" />
    <path
       id="path364"
       d="m 348.74,357.41 c 4.5993,2.2996 -5.2634,8.8461 -7.563,13.445 -2.8987,5.7974 -3.3613,9.4108 -3.3613,15.966 0,5.4031 -2.811,13.765 -4.2017,19.328 -1.7282,6.9126 -3.4528,12.971 -5.042,19.328 -1.1606,4.6422 -4.1164,9.0304 -5.8823,13.445 -1.9411,4.8527 -5.2297,9.5565 -7.563,13.445 -2.9943,4.9905 -2.7812,11.125 -4.2017,16.807 -1.3741,5.4963 -2.8714,10.645 -4.2017,15.966 -1.1253,4.5012 -2.2381,9.5183 -4.2017,13.445 -2.4624,4.9247 -2.521,10.524 -2.521,15.966 0,5.3088 -1.2916,12.729 -2.521,17.647 -1.3487,5.3949 -1.2207,10.765 -2.521,15.966 -1.2245,4.898 -0.84033,10.574 -0.84033,15.966 0,4.3964 -0.84034,9.5635 -0.84034,14.286 0,4.8367 -1.6807,9.3319 -1.6807,14.286 0,3.7034 -0.72609,9.6271 -1.6807,13.445 -0.9161,3.6644 0,8.8055 0,12.605 0,4.365 0.13059,8.7214 -0.84033,12.605 -1.0003,4.0011 -0.84034,8.2899 -0.84034,12.605 l 0,12.605 c 0,4.3505 -0.84033,8.0354 -0.84033,12.605 0,4.1494 -0.84033,8.9852 -0.84033,13.445 l 0,18.487 c 0,4.7215 1.6807,7.784 1.6807,12.605 0,2.6777 1.841,9.0446 2.521,11.765 1.1301,4.5204 -0.2365,9.9783 0.84033,14.286 1.1135,4.4538 0.63129,9.2478 1.6807,13.445 1.2758,5.1032 1.2784,10.155 2.521,15.126 1.6293,6.5173 0,12.141 0,18.487 l 0,15.126"
       inkscape:connector-curvature="0"
       style="fill:none;stroke:#000000" />
    <path
       id="path366"
       d="m 378.15,368.33 c 0,1.3739 2.521,8.6894 2.521,13.445 l 0,15.126 c 0,5.6002 0.48451,11.507 -0.84034,16.807 -1.179,4.7159 -0.55143,9.7687 -1.6807,14.286 -1.2895,5.1579 -0.56287,10.369 -2.521,14.286 -2.0669,4.1338 -2.8857,9.1327 -5.042,13.445 -2.0536,4.1072 -7.012,9.6294 -9.2437,12.605 -3.3814,4.5086 -5.4525,8.3645 -6.7227,13.445 -1.2651,5.0605 -3.7942,9.2946 -5.042,14.286 -1.2065,4.826 -3.766,10.022 -5.042,15.126 -1.2818,5.1272 -3.3613,9.9218 -3.3613,15.126 0,5.1252 -1.6807,8.2371 -1.6807,13.445 0,4.3505 -0.84033,8.0354 -0.84033,12.605 0,3.9158 -0.9844,8.9796 -1.6807,11.765 -1.1611,4.6444 -0.18342,0.18342 -0.84034,0.84034"
       inkscape:connector-curvature="0"
       style="fill:none;stroke:#000000" />
    <path
       id="path368"
       d="m 331.09,622.95 c -0.26222,1.0489 -0.11191,10.644 -0.84034,14.286 -0.85584,4.2792 -0.6339,9.2583 -1.6807,13.445 -0.99566,3.9827 0.10226,8.8347 -0.84033,12.605 -1.3887,5.5549 -1.6807,10.88 -1.6807,16.807 0,4.3931 -0.84033,9.4215 -0.84033,14.286 0,4.2802 1.3995,10.64 2.521,15.126 1.1844,4.7374 0.53147,9.6889 1.6807,14.286 1.0003,4.0011 0.84033,8.2899 0.84033,12.605 l 0,13.445 c 0,5.1147 2.2299,8.0792 3.3613,12.605 1.0035,4.014 2.7649,7.2104 4.2017,10.084 1.1141,2.2281 2.4168,3.7826 3.3613,5.042"
       inkscape:connector-curvature="0"
       style="fill:none;stroke:#000000" />
    <path
       id="path370"
       d="m 468.91,523.79 c 2.0546,4.1092 -5.6468,7.249 -8.4034,10.924 -2.3821,3.1761 -3.2956,8.9808 -4.2017,12.605 -1.2244,4.8976 -2.9745,7.6964 -4.2017,12.605 -1.1643,4.657 -2.5664,8.4639 -5.042,11.765 -2.5364,3.3818 -5.5943,6.3387 -8.4033,10.084 -1.7235,2.298 -6.9427,2.741 -9.2437,5.042 -3.3194,3.3194 -7.4617,5.8317 -10.924,7.563 -3.5557,1.7779 -6.1021,4.0465 -10.084,5.042 -4.3123,1.0781 -6.0352,2.521 -10.924,2.521 -4.365,0 -8.7213,-0.13058 -12.605,0.84034 -4.3019,1.0755 -7.673,1.6807 -12.605,1.6807 l -12.605,0 c -4.9182,0 -8.2361,-1.4288 -12.605,-2.521 -3.9185,-0.97961 -9.0045,-3.6619 -11.765,-5.042 -3.2856,-1.6428 -6.7507,-1.6877 -10.084,-2.521 -4.0531,-1.0133 -12.395,-0.0525 -2.521,-2.521"
       inkscape:connector-curvature="0"
       style="fill:none;stroke:#000000" />
    <path
       id="path372"
       d="m 447.06,507.83 c -4.6256,-1.1564 -10.135,2.8868 -13.445,8.4033 -2.6173,4.3622 -4.8763,8.5809 -5.8823,12.605 -1.1136,4.4545 -3.2488,7.9534 -4.2017,11.765 -1.2023,4.809 -2.8592,8.2395 -5.042,12.605 -1.7657,3.5313 -5.0774,5.9295 -7.563,9.2437 -2.4338,3.2451 -5.4079,5.4079 -9.2437,9.2437 l -9.2437,9.2437 c -2.6126,2.6126 -6.5556,3.3613 -10.924,3.3613 -4.3505,0 -8.0354,0.84033 -12.605,0.84033 l -25.21,0 c -5.032,0 -7.5709,-0.42413 -11.765,-2.521 -7.2086,-3.6043 -5.8823,-1.4308 -5.8823,-5.042"
       inkscape:connector-curvature="0"
       style="fill:none;stroke:#000000" />
  </g>
</svg>
