<?xml version="1.0" encoding="UTF-8"?>
<svg viewBox="0 0 460.04755 419.23041" xmlns="http://www.w3.org/2000/svg" xmlns:xlink="http://www.w3.org/1999/xlink">
 <defs>
  <filter id="u">
   <feGaussianBlur stdDeviation="5.4233"/>
  </filter>
  <filter id="t">
   <feGaussianBlur stdDeviation=".58246"/>
  </filter>
  <filter id="s">
   <feGaussianBlur stdDeviation=".37256"/>
  </filter>
  <filter id="p">
   <feGaussianBlur stdDeviation=".59195"/>
  </filter>
  <filter id="o">
   <feGaussianBlur stdDeviation="1.72584"/>
  </filter>
  <filter id="n">
   <feGaussianBlur stdDeviation="1.6998"/>
  </filter>
  <filter id="v" x="-.07703" y="-.18062" width="1.1541" height="1.3612">
   <feGaussianBlur stdDeviation="1.11071"/>
  </filter>
  <filter id="r" x="-.07536" y="-.13221" width="1.1507" height="1.2644">
   <feGaussianBlur stdDeviation=".89685"/>
  </filter>
  <filter id="q" x="-.12268" y="-.17428" width="1.2454" height="1.3486">
   <feGaussianBlur stdDeviation="1.45902"/>
  </filter>
  <linearGradient id="a">
   <stop stop-color="#333" offset="0"/>
   <stop offset="1"/>
  </linearGradient>
  <linearGradient id="b">
   <stop offset="0"/>
   <stop stop-color="#1a1a1a" offset="1"/>
  </linearGradient>
  <linearGradient id="l" x1="439.29" x2="447.14" y1="451.65" y2="538.79" gradientUnits="userSpaceOnUse">
   <stop stop-color="#1a1a1a" offset="0"/>
   <stop stop-color="#4d4d4d" offset="1"/>
  </linearGradient>
  <linearGradient id="h" x1="237.5" x2="228.04" y1="509.15" y2="521.47" gradientUnits="userSpaceOnUse">
   <stop offset="0"/>
   <stop stop-color="#333" offset=".54029"/>
   <stop offset="1"/>
  </linearGradient>
  <linearGradient id="f" x1="198.57" x2="188.57" y1="470.58" y2="483.43" gradientUnits="userSpaceOnUse">
   <stop offset="0"/>
   <stop stop-color="#1a1a1a" offset=".45385"/>
   <stop offset="1"/>
  </linearGradient>
  <linearGradient id="m" x1="341.79" x2="347.86" y1="330.58" y2="330.93" gradientUnits="userSpaceOnUse" xlink:href="#a"/>
  <linearGradient id="k" x1="200.88" x2="248.19" y1="442.8" y2="535.58" gradientUnits="userSpaceOnUse" xlink:href="#b"/>
  <linearGradient id="j" x1="217.08" x2="222.26" y1="443.41" y2="537.58" gradientUnits="userSpaceOnUse" xlink:href="#b"/>
  <linearGradient id="i" x1="227.14" x2="237.68" y1="469.51" y2="481.11" gradientUnits="userSpaceOnUse" xlink:href="#a"/>
  <linearGradient id="g" x1="195.91" x2="201.79" y1="509.51" y2="521.65" gradientUnits="userSpaceOnUse" xlink:href="#a"/>
  <linearGradient id="e" x1="347.68" x2="347.86" y1="423.08" y2="434.51" gradientUnits="userSpaceOnUse" xlink:href="#a"/>
  <radialGradient id="d" cx="184.5" cy="475.51" r="57.574" gradientTransform="matrix(1.464 .50246 -.32463 .94584 71.572 -61.905)" gradientUnits="userSpaceOnUse">
   <stop stop-color="#4d4d4d" offset="0"/>
   <stop offset="1"/>
  </radialGradient>
  <radialGradient id="c" cx="222.89" cy="491.52" r="57.84" gradientTransform="matrix(-1.7533e-8 -1.0532 1.1326 -1.8856e-8 -333.82 726.27)" gradientUnits="userSpaceOnUse" xlink:href="#a"/>
 </defs>
 <g transform="translate(-139.75 -181.61)">
  <path d="m371.79 362.01c-0.35714-22.857-6.0714-48.214-6.7857-54.643s-1.0714-12.143-1.0714-13.571-2.5-3.2143-2.5-3.2143-2.494 1.8558-2.4856-7.8464c0.0108-12.471 0.38227-21.118 2.168-36.832s6.8001-30.739 17.461-41.036c4.9347-4.766 22.308-14.996 38.911-5.7179 24.286 13.571 22.161 17.861 39.304 27.504 16.383 9.2153 25.382 11.068 35.025 5.7107s20-18.571 20-18.571l-3.9537-4.6393c-14.507 15.322-19.214 21.885-31.071 19.286-10.297-2.2569-20.357-10.714-31.786-18.929s-16.913-13.987-29.632-20.004c-10.995-5.201-24.989-2.8715-33.582 2.8607-10.88 7.2578-16.019 14.753-19.286 21.429-8.2143 16.786-10.269 28.913-11.786 45.357-1.1454 12.415-0.71429 26.429-3.2143 28.929s-6.0714 3.9286-6.0714 6.0714-1.0714 4.6428 0 7.8571-1.0714 3.5714-0.35714 7.5 1.0714 2.1429 0 5.7143-1.7857 6.4286-1.0714 7.8572 1.4286 2.5 0.71429 6.0714-3.2143 6.7857-2.5 9.6428 1.0714 3.5714 0.71428 6.7857-1.0714 3.2143-2.5 6.4286 3.5714 11.071 3.5714 11.071l31.786-1.0714z" fill-rule="evenodd"/>
  <path d="m349.84 270.38c-0.37237 7.6699-0.78125 16.125-2.3438 17.688-2.5 2.5-6.0625 3.9509-6.0625 6.0938s-1.0714 4.6295 0 7.8438-1.0893 3.5714-0.375 7.5 1.0714 2.1473 0 5.7188-1.7768 6.4152-1.0625 7.8438 1.433 2.5223 0.71875 6.0938-3.2143 6.7679-2.5 9.625 1.0759 3.567 0.71875 6.7812-1.0714 3.2232-2.5 6.4375 3.5625 11.062 3.5625 11.062l1.8438-0.0625c1.3674-0.71605 2.4503-1.3565 2.8125-1.7188 1.4286-1.4286-4e-3 -4.9777-0.71875-8.9062s1.0536-2.1652 2.125-6.0938-1.0491-4.6339-1.4062-8.5625 1.7679-2.1295 2.125-5.3438-2.5045-4.3125-3.2188-6.8125 1.4509-3.1875 3.5938-5.6875-2.5223-4.6518-3.5938-6.4375 0.36161-2.4911 3.2188-6.0625-0.72322-3.9509-1.4375-6.0938 0.71874-4.9866 3.2188-7.8438 3.942-4.6384 4.6562-9.2812c0.53571-3.4822 0.0569-5.779-3.375-13.781z" fill="url(#m)" fill-rule="evenodd"/>
  <path d="m289.91 366.97c25.759-6.566 43.942-11.112 63.64-12.627s48.992-0.50508 82.833 7.0711 92.934 29.8 114.65 47.982 39.396 41.921 40.406 64.145-5.5286 55.696-22.728 75.761c-21.218 24.754-41.921 37.881-57.579 37.881-11.617 0-28.789-20.708-51.013-21.718s-45.962 2.0203-66.67 9.5964-26.264 9.5964-45.962 4.0406-42.426-10.102-58.084-8.5863-17.678 6.566-29.8 13.637-18.688 11.112-33.335 9.0914-34.345-15.152-53.538-36.365-25.759-47.982-26.264-67.175 0.93759-29.234 7.5761-37.376c42.219-51.778 97.123-73.136 135.87-85.358z" fill="#4d4d4d" fill-rule="evenodd"/>
  <path d="m366.19 353.76c-29.177 0.6131-61.69 9.5028-89.485 17.95-55.296 17.748-84.868 41.904-116.57 81.409-9.2771 11.972-11.687 28.808-11.259 43 2.2051 26.92 15.417 52.296 35.715 70.05 14.354 13.17 32.306 27.712 53.217 25.33 15.092-2.4658 26.142-14.333 39.469-20.438 20.014-6.3685 40.227-0.27197 60.051 4.1226 13.196 3.6717 29.71 8.168 43.044 2.974 21.68-8.4448 43.849-13.324 67.314-14.058 13.049-0.40832 24.408 1.7516 35.856 8.1785 8.6975 4.8826 18.208 12.604 28.582 13.413 19.978-1.6828 35.544-16.131 48.901-29.836 21.132-20.941 30.205-51.422 29.671-80.464-1.8664-24.334-20.225-47.81-37.483-63.474-20.708-17.567-48.092-27.151-73.102-36.94-36.821-13.69-74.411-21.84-113.92-21.219z" fill-rule="evenodd" filter="url(#n)"/>
  <path d="m570.71 475.22c4.2857 22.857 5 19.286-0.71429 37.143-7.3256 20.717-31.369 60.45-55.714 55-20.947-4.6895-36.429-19.286-51.429-20.714s-40.714 9.2857-54.286 11.429-32.857 7.8571-48.571 6.4286-30.714-15.714-47.143-18.571-37.857 7.8571-54.286 9.2857-31.429 2.8572-42.857-1.4286-44.286-20-43.571-48.571 5.7143-52.143 22.143-62.143 39.286-10.714 47.143-9.2857 20 3.5714 30 8.5714 38.571 13.571 52.857 15.714 43.571 3.5714 56.429 1.4286 35-18.571 46.429-22.143 32.857-8.5714 41.429-8.5714 29.286-4.2857 46.429 2.8572 40 19.286 45 27.143 11.429 17.143 10.714 16.429z" fill="url(#l)" fill-rule="evenodd" filter="url(#u)"/>
  <path d="m479.82 487.94c0 10.182-8.2538 18.435-18.435 18.435s-18.435-8.2538-18.435-18.435 8.2538-18.435 18.435-18.435 18.435 8.2538 18.435 18.435z" fill="#800000"/>
  <path transform="translate(37.881 -41.416)" d="m479.82 487.94c0 10.182-8.2538 18.435-18.435 18.435s-18.435-8.2538-18.435-18.435 8.2538-18.435 18.435-18.435 18.435 8.2538 18.435 18.435z" fill="#00f"/>
  <path transform="translate(75.761 -3.0305)" d="m479.82 487.94c0 10.182-8.2538 18.435-18.435 18.435s-18.435-8.2538-18.435-18.435 8.2538-18.435 18.435-18.435 18.435 8.2538 18.435 18.435z" fill="#85a600"/>
  <path transform="translate(39.901 35.355)" d="m479.82 487.94c0 10.182-8.2538 18.435-18.435 18.435s-18.435-8.2538-18.435-18.435 8.2538-18.435 18.435-18.435 18.435 8.2538 18.435 18.435z" fill="#f9c600"/>
  <path d="m447.19 484.91c-2.8674 11.245 10.845 22.068 21 15.781 4.9399-2.5179 8.7967-9.2959 7.2188-14.281-9.4066-0.37893-18.824-1.3951-28.219-1.5z" fill="#ff8080" fill-rule="evenodd" filter="url(#t)"/>
  <path d="m498.28 517.53c-4.2607 1.9079-9.4265 5.104-11.031 9.4688 2.4527 11.082 19.157 14.655 25.531 5.0312 2.4079-3.347 4.2983-8.5934 1.9062-12.156-5.3017-1.5315-10.888-2.4854-16.406-2.3438z" fill="#fff0b6" fill-rule="evenodd" filter="url(#q)"/>
  <path d="m513.19 450.97-1.0312 0.34375c-9.1072 2.9143-14.317 3.7119-26.344 0.90625 0.62789 1.546 1.5646 2.9738 2.875 4.2188 6.8905 8.0409 21.672 4.4269 24.5-5.4688z" fill="#8f8fff" fill-rule="evenodd" filter="url(#s)"/>
  <path d="m541.16 482.97c-5.1094 0.12474-10.694 2.5181-18.125 5.5 0.52083 2.5149 1.7465 4.8692 3.8438 6.7188 7.6106 8.2363 23.897 3.1717 24.625-8.375 0.0494-0.31934 0.0693-0.64972 0.0937-0.96875-1.4325-0.57763-2.8104-1.1472-4.0938-1.6875-2.0992-0.88388-4.1871-1.2402-6.3438-1.1875z" fill="#e5ff7d" fill-rule="evenodd" filter="url(#r)"/>
  <path transform="translate(5.5558 2.5254)" d="m277.79 491.73c0 31.521-25.553 57.074-57.074 57.074s-57.074-25.553-57.074-57.074 25.553-57.074 57.074-57.074 57.074 25.553 57.074 57.074z" fill="url(#d)" opacity=".97" stroke="#000" stroke-linecap="round"/>
  <path transform="matrix(.76991 0 0 .76991 49.27 114.66)" d="m277.79 491.73c0 31.521-25.553 57.074-57.074 57.074s-57.074-25.553-57.074-57.074 25.553-57.074 57.074-57.074 57.074 25.553 57.074 57.074z" fill="url(#k)" opacity=".97" stroke="#000" stroke-linecap="round" stroke-width="1.2988"/>
  <path transform="matrix(.69027 0 0 .69027 65.334 154.33)" d="m277.79 491.73c0 31.521-25.553 57.074-57.074 57.074s-57.074-25.553-57.074-57.074 25.553-57.074 57.074-57.074 57.074 25.553 57.074 57.074z" fill="url(#j)" opacity=".97"/>
  <path transform="matrix(.65272 0 0 .65272 71.478 174.93)" d="m277.79 491.73c0 31.521-25.553 57.074-57.074 57.074s-57.074-25.553-57.074-57.074 25.553-57.074 57.074-57.074 57.074 25.553 57.074 57.074z" fill="url(#c)" opacity=".97"/>
  <path d="m232.81 457.34c-11.745 14.993-15.334 19.795-11.594 24.781 4.5457 6.0609 13.64 6.0652 30.812-3.5312 0.57427-0.32092 1.1141-0.65105 1.5938-1-4.1058-9.1113-11.564-16.402-20.812-20.25z" fill="url(#i)" fill-rule="evenodd"/>
  <path d="m230.69 503.69c-1.5585 0.11835-2.9242 0.72438-4.25 1.7188-5.724 4.293-5.0783 10.739 3.0938 25.906 9.1333-2.8787 16.832-8.9918 21.75-17-10.694-7.8273-16.391-10.944-20.594-10.625z" fill="url(#h)" fill-rule="evenodd"/>
  <path d="m200.47 506.62c-4.0976-0.22272-9.71 1.6151-17.562 5.625 4.1004 7.6926 10.669 13.847 18.656 17.438 7.4766-10.567 8.9449-15.157 5.7812-19.375-1.7046-2.2728-3.8938-3.5255-6.875-3.6875z" fill="url(#g)" fill-rule="evenodd"/>
  <path d="m196.91 460.28c-7.9047 4.9174-13.922 12.547-16.781 21.594 11.808 7.9244 16.613 8.5249 21.062 5.1875 5.9813-4.486 4.9683-10.13-4.2812-26.781z" fill="url(#f)" fill-rule="evenodd"/>
  <path d="m370.06 353.75c-6.0451 0-11.576 0.21494-16.5 0.59375-19.698 1.5152-37.897 6.059-63.656 12.625-1.5153 0.47804-3.0932 0.99273-4.6562 1.5-0.0347 36.494 2.9187 69.034 11.75 97 12.122 38.386 39.882 78.773 48.469 85.844s19.694 7.0988 25.25 6.5938 17.674-11.644 25.25-25.281 16.729-25.675 24.75-73.719c5.4009-32.351 4.3024-74.24 5.3125-93.938 0.0896-1.747 0.0359-3.6886-0.125-5.7188-21.183-4.0286-40.243-5.5-55.844-5.5z" fill="#0d0d0d" fill-rule="evenodd" filter="url(#o)"/>
  <path d="m292.53 448.84c1.283 5.704 2.7726 11.254 4.4688 16.625 12.122 38.386 39.882 78.773 48.469 85.844s19.694 7.0988 25.25 6.5938 17.674-11.644 25.25-25.281c7.373-13.271 16.231-25.129 24.094-70.031-3.6383 7.7967-5.7175 13.604-10.438 19.031-6.5941 7.5825-19.71 11.367-28.296 13.64-8.3004 2.1972-40.066 5.9419-57.579-5.0465-10.796-6.774-17.454-15.265-31.219-41.375z" fill="#262626" fill-rule="evenodd" filter="url(#p)"/>
  <path d="m348.25 418.98h15.823a8.8282 8.8282 0 0 1 8.8282 8.8282 8.8282 8.8282 0 0 1 -8.8282 8.8282h-15.823a8.8282 8.8282 0 0 1 -8.8282 -8.8282 8.8282 8.8282 0 0 1 8.8282 -8.8282"/>
  <path d="m348.12 419.86h16.071a7.9464 7.9464 0 0 1 7.9464 7.9464 7.9464 7.9464 0 0 1 -7.9464 7.9464h-16.071a7.9464 7.9464 0 0 1 -7.9464 -7.9464 7.9464 7.9464 0 0 1 7.9464 -7.9464" fill="#050d3a"/>
  <path d="m356.07 427.99c0 4.0928-3.3179 7.4107-7.4107 7.4107s-7.4107-3.3179-7.4107-7.4107 3.3179-7.4107 7.4107-7.4107 7.4107 3.3179 7.4107 7.4107z" fill="#0254e8"/>
  <path d="m316.11 451.12h15.823a8.8282 8.8282 0 0 1 8.8282 8.8282 8.8282 8.8282 0 0 1 -8.8282 8.8282h-15.823a8.8282 8.8282 0 0 1 -8.8282 -8.8282 8.8282 8.8282 0 0 1 8.8282 -8.8282"/>
  <path d="m315.98 452.01h16.071a7.9464 7.9464 0 0 1 7.9464 7.9464 7.9464 7.9464 0 0 1 -7.9464 7.9464h-16.071a7.9464 7.9464 0 0 1 -7.9464 -7.9464 7.9464 7.9464 0 0 1 7.9464 -7.9464" fill="#2b0000"/>
  <path d="m349.74 480.22h15.698a9.0172 9.0172 0 0 1 9.0172 9.0172 9.0172 9.0172 0 0 1 -9.0172 9.0172h-15.698a9.0172 9.0172 0 0 1 -9.0172 -9.0172 9.0172 9.0172 0 0 1 9.0172 -9.0172"/>
  <path d="m349.55 481.29h16.071a7.9464 7.9464 0 0 1 7.9464 7.9464 7.9464 7.9464 0 0 1 -7.9464 7.9464h-16.071a7.9464 7.9464 0 0 1 -7.9464 -7.9464 7.9464 7.9464 0 0 1 7.9464 -7.9464" fill="#120e00"/>
  <path d="m384.56 447.31h15.701a8.8934 8.8934 0 0 1 8.8934 8.8934 8.8934 8.8934 0 0 1 -8.8934 8.8934h-15.701a8.8934 8.8934 0 0 1 -8.8934 -8.8934 8.8934 8.8934 0 0 1 8.8934 -8.8934"/>
  <path d="m384.37 448.26h16.071a7.9464 7.9464 0 0 1 7.9464 7.9464 7.9464 7.9464 0 0 1 -7.9464 7.9464h-16.071a7.9464 7.9464 0 0 1 -7.9464 -7.9464 7.9464 7.9464 0 0 1 7.9464 -7.9464" fill="#222b00" opacity=".97"/>
  <path transform="translate(-32.143 32.143)" d="m356.07 427.99c0 4.0928-3.3179 7.4107-7.4107 7.4107s-7.4107-3.3179-7.4107-7.4107 3.3179-7.4107 7.4107-7.4107 7.4107 3.3179 7.4107 7.4107z" fill="#a00"/>
  <path transform="translate(1.4286 61.429)" d="m356.07 427.99c0 4.0928-3.3179 7.4107-7.4107 7.4107s-7.4107-3.3179-7.4107-7.4107 3.3179-7.4107 7.4107-7.4107 7.4107 3.3179 7.4107 7.4107z" fill="#fc0"/>
  <path transform="translate(36.25 28.393)" d="m356.07 427.99c0 4.0928-3.3179 7.4107-7.4107 7.4107s-7.4107-3.3179-7.4107-7.4107 3.3179-7.4107 7.4107-7.4107 7.4107 3.3179 7.4107 7.4107z" fill="#8a0"/>
  <path d="m373.93 508.79c-6.378 0.0931-12.765-0.36429-19.137 0.0236-3.6869 0.50454-7.03 2.556-9.6163 5.1626-1.0826 1.1518-2.1479 2.94-1.2177 4.4858 1.0687 1.7251 3.1658 2.3023 4.9291 3.0455 5.0009 1.6971 10.352 1.9189 15.588 1.9054 4.1348-0.29126 8.0175-2.0952 11.448-4.3317 1.3184-0.80267 2.394-2.1857 2.2771-3.8033-0.0665-2.4612-1.5343-4.7577-3.4461-6.2285-0.23799-0.16584-0.52557-0.30782-0.82507-0.25945z" fill="#dcffff" fill-rule="evenodd" filter="url(#v)"/>
  <path transform="translate(-132.86 68.571)" d="m356.07 427.99c0 4.0928-3.3179 7.4107-7.4107 7.4107s-7.4107-3.3179-7.4107-7.4107 3.3179-7.4107 7.4107-7.4107 7.4107 3.3179 7.4107 7.4107z" fill="url(#e)" opacity=".97"/>
 </g>
</svg>
