<?xml version="1.0" encoding="UTF-8" standalone="no"?>
<svg
   xmlns:dc="http://purl.org/dc/elements/1.1/"
   xmlns:cc="http://creativecommons.org/ns#"
   xmlns:rdf="http://www.w3.org/1999/02/22-rdf-syntax-ns#"
   xmlns:svg="http://www.w3.org/2000/svg"
   xmlns="http://www.w3.org/2000/svg"
   xmlns:xlink="http://www.w3.org/1999/xlink"
   xmlns:sodipodi="http://sodipodi.sourceforge.net/DTD/sodipodi-0.dtd"
   xmlns:inkscape="http://www.inkscape.org/namespaces/inkscape"
   viewBox="0 0 694.88787 605.31762"
   id="svg2"
   version="1.1"
   inkscape:version="0.91 r13725"
   sodipodi:docname="horror.svg"
   width="694.88788"
   height="605.31763">
  <metadata
     id="metadata61">
    <rdf:RDF>
      <cc:Work
         rdf:about="">
        <dc:format>image/svg+xml</dc:format>
        <dc:type
           rdf:resource="http://purl.org/dc/dcmitype/StillImage" />
        <dc:title></dc:title>
      </cc:Work>
    </rdf:RDF>
  </metadata>
  <sodipodi:namedview
     pagecolor="#ffffff"
     bordercolor="#666666"
     borderopacity="1"
     objecttolerance="10"
     gridtolerance="10"
     guidetolerance="10"
     inkscape:pageopacity="0"
     inkscape:pageshadow="2"
     inkscape:window-width="1920"
     inkscape:window-height="1022"
     id="namedview59"
     showgrid="false"
     fit-margin-top="0"
     fit-margin-left="0"
     fit-margin-right="0"
     fit-margin-bottom="0"
     inkscape:zoom="0.43371424"
     inkscape:cx="193.78676"
     inkscape:cy="302.66569"
     inkscape:window-x="0"
     inkscape:window-y="0"
     inkscape:window-maximized="1"
     inkscape:current-layer="svg2" />
  <defs
     id="defs4">
    <filter
       id="i">
      <feGaussianBlur
         stdDeviation="5.7058"
         id="feGaussianBlur7" />
    </filter>
    <filter
       id="h">
      <feGaussianBlur
         stdDeviation="2.018"
         id="feGaussianBlur10" />
    </filter>
    <linearGradient
       id="a">
      <stop
         stop-color="#ae3d00"
         offset="0"
         id="stop13" />
      <stop
         offset="1"
         id="stop15" />
    </linearGradient>
    <linearGradient
       id="g"
       x1="466.07999"
       x2="262.60999"
       y1="433.14999"
       y2="305.14001"
       gradientUnits="userSpaceOnUse">
      <stop
         stop-color="#461b0c"
         offset="0"
         id="stop18" />
      <stop
         stop-color="#f0baa7"
         offset="1"
         id="stop20" />
    </linearGradient>
    <linearGradient
       id="f"
       x1="269.76001"
       x2="451.67001"
       y1="548.53003"
       y2="287.10001"
       gradientUnits="userSpaceOnUse">
      <stop
         stop-color="#85200c"
         offset="0"
         id="stop23" />
      <stop
         stop-color="#e33714"
         offset="1"
         id="stop25" />
    </linearGradient>
    <radialGradient
       id="e"
       cx="301.14001"
       cy="217.07001"
       r="98.179001"
       gradientTransform="matrix(0.49307,1.5641,-1.1637,0.36685,441.21,-293.55)"
       gradientUnits="userSpaceOnUse">
      <stop
         stop-color="#591f00"
         offset="0"
         id="stop28" />
      <stop
         offset="1"
         id="stop30" />
    </radialGradient>
    <radialGradient
       id="b"
       cx="365.89999"
       cy="691.39001"
       r="67.042999"
       gradientTransform="matrix(1.233,-0.04211,0.05579,1.6336,-123.84,-446.69)"
       gradientUnits="userSpaceOnUse">
      <stop
         stop-color="#e55000"
         offset="0"
         id="stop33" />
      <stop
         offset="1"
         id="stop35" />
    </radialGradient>
    <radialGradient
       id="d"
       cx="440.82999"
       cy="469.48999"
       r="30.857"
       gradientTransform="matrix(1.0604,-0.19491,0.65291,2.4638,-325.2,-584.16)"
       gradientUnits="userSpaceOnUse"
       xlink:href="#a" />
    <radialGradient
       id="c"
       cx="441.45999"
       cy="471.70999"
       r="28.284"
       gradientTransform="matrix(1.1127,-0.16643,0.59227,2.4871,-326.16,-618.42)"
       gradientUnits="userSpaceOnUse"
       xlink:href="#a" />
  </defs>
  <g
     transform="matrix(2.5011508,0,0,1.1248603,-569.47007,-220.39582)"
     id="g39">
    <path
       d="m 458.61,688.71 c -13.491,46.971 -32.706,47.823 -46.467,28.789 -14.756,-18.574 -68.256,-22.135 -92.934,0 -18.473,26.382 -35.163,9.0542 -46.467,-28.789 -31.14,-101.69 -36.244,-203.38 -43.437,-305.07 0,-250.56 272.74,-250.56 272.74,0 -10.684,102.38 -13.354,206.21 -43.437,305.07"
       id="path41"
       style="fill:url(#g);filter:url(#h)"
       inkscape:connector-curvature="0" />
    <path
       transform="matrix(1.0035,0,0,1.0124,-1.5357,-7.7)"
       d="m 451.75,673.87 c -12.697,44.207 -30.781,45.008 -43.732,27.095 -13.888,-17.481 -64.239,-20.832 -87.464,0 -17.385,24.829 -33.093,8.5213 -43.732,-27.095 -29.307,-95.704 -34.111,-191.41 -40.88,-287.11 0,-235.82 256.69,-235.82 256.69,0 -10.055,96.353 -12.568,194.08 -40.88,287.11"
       id="path43"
       style="opacity:0.8;fill:url(#f);filter:url(#i)"
       inkscape:connector-curvature="0" />
    <path
       d="m 365.71,429.51 c -8.6272,-62.143 -43.096,-77.857 -97.5,-62.143 4.047,-180 193.5,-185.88 195.36,0 -48.464,-15.714 -88.799,0 -97.857,62.143 z"
       id="path45"
       style="fill:url(#e)"
       inkscape:connector-curvature="0" />
    <path
       transform="matrix(0.97263,-0.34657,0.40864,0.82491,-176.1,220.97)"
       d="m 467.7,447.79 c 0,22.037 -12.663,39.901 -28.284,39.901 -15.621,0 -28.284,-17.864 -28.284,-39.901 0,-22.037 12.663,-39.901 28.284,-39.901 15.621,0 28.284,17.864 28.284,39.901 z"
       id="path47"
       style="fill:url(#d);stroke:#000000;stroke-width:8.23400021"
       inkscape:connector-curvature="0" />
    <path
       transform="matrix(-0.97263,-0.34657,-0.40864,0.82491,907.36,221.69)"
       d="m 467.7,447.79 c 0,22.037 -12.663,39.901 -28.284,39.901 -15.621,0 -28.284,-17.864 -28.284,-39.901 0,-22.037 12.663,-39.901 28.284,-39.901 15.621,0 28.284,17.864 28.284,39.901 z"
       id="path49"
       style="fill:url(#c);stroke:#000000;stroke-width:8.23400021"
       inkscape:connector-curvature="0" />
    <path
       transform="matrix(0.72241,0.57255,-0.50449,0.81987,358.55,-64.633)"
       d="m 285.87,536.17 c 0,7.2526 -2.7136,13.132 -6.0609,13.132 -3.3473,0 -6.0609,-5.8794 -6.0609,-13.132 0,-7.2526 2.7136,-13.132 6.0609,-13.132 3.3473,0 6.0609,5.8794 6.0609,13.132 z"
       id="path51"
       inkscape:connector-curvature="0" />
    <path
       transform="matrix(-0.72241,0.57255,0.50449,0.81987,372.16,-64.633)"
       d="m 285.87,536.17 c 0,7.2526 -2.7136,13.132 -6.0609,13.132 -3.3473,0 -6.0609,-5.8794 -6.0609,-13.132 0,-7.2526 2.7136,-13.132 6.0609,-13.132 3.3473,0 6.0609,5.8794 6.0609,13.132 z"
       id="path53"
       inkscape:connector-curvature="0" />
    <path
       d="m 365.78,467.61 52.547,84.442 c -35.272,-24.234 -75.703,-18.947 -104.86,0 z"
       id="path55"
       inkscape:connector-curvature="0" />
    <path
       d="m 292.52,668.23 c -25.286,-29.721 12.6,-27.371 8.0412,-47.443 -35.612,-68.395 49.498,-18.382 65.134,-20.103 l 0.41032,-0.10363 c 15.636,1.7215 100.75,-48.292 65.134,20.103 -4.559,20.072 33.327,17.722 8.0412,47.443 -26.529,22.432 -43.423,-16.083 -73.381,-12.01 -29.958,-3.9688 -46.852,34.545 -73.381,12.114 z"
       id="path57"
       style="fill:url(#b);stroke:#000000;stroke-width:8;stroke-linecap:round;stroke-linejoin:round"
       inkscape:connector-curvature="0" />
  </g>
</svg>
