<?xml version='1.0' encoding='utf-8'?>
<svg xmlns="http://www.w3.org/2000/svg" version="1.1" id="Layer_1" x="0px" y="0px" viewBox="0 0 2560 1600" enable-background="new 0 0 2560 1600"> <pattern width="424.606" height="250" patternUnits="userSpaceOnUse" id="New_Pattern" viewBox="66.564 -282.726 424.606 250" overflow="visible"> <g> <rect x="66.564" y="-282.726" fill="none" width="424.606" height="250"/> <g> <path d="M424.606-157.726c31.987,36.833,53.397,68.038,66.564,92.274c13.167-24.236,34.577-55.441,66.564-92.274H424.606z"/> <path d="M349.635-37.58c47.892-9.286,85.621-12.224,113.194-11.509c-14.405-23.521-30.725-57.665-46.629-103.783L349.635-37.58z"/> <path d="M513.504-39.716c1.959-2.912,3.964-6.037,6.007-9.373c-3.911,0.101-7.619,0.275-11.121,0.516 c-0.17-8.484-4.675-11.085-12.107-6.99c-1.542-3.153-3.246-6.452-5.113-9.889c-1.868,3.437-3.571,6.736-5.113,9.889 c-7.432-4.095-11.938-1.493-12.107,6.99c-3.502-0.241-7.21-0.415-11.121-0.516c2.043,3.336,4.048,6.46,6.007,9.373 c-7.262,4.389-7.262,9.591,0,13.98c-1.959,2.912-3.964,6.037-6.007,9.373c3.911-0.101,7.619-0.275,11.121-0.516 c0.17,8.484,4.675,11.085,12.107,6.99c1.542,3.153,3.246,6.452,5.113,9.889c1.868-3.437,3.571-6.736,5.113-9.889 c7.432,4.095,11.938,1.493,12.107-6.99c3.502,0.241,7.21,0.415,11.121,0.516c-2.043-3.336-4.048-6.46-6.007-9.373 C520.766-30.125,520.766-35.327,513.504-39.716z"/> </g> <g> <path d="M0-157.726c31.987,36.833,53.397,68.038,66.564,92.274c13.167-24.236,34.577-55.441,66.564-92.274H0z"/> <path d="M88.899-39.716c1.959-2.912,3.964-6.037,6.007-9.373c-3.911,0.101-7.619,0.275-11.121,0.516 c-0.17-8.484-4.675-11.085-12.107-6.99c-1.542-3.153-3.246-6.452-5.113-9.889c-1.868,3.437-3.571,6.736-5.113,9.889 c-7.432-4.095-11.937-1.493-12.107,6.99c-3.502-0.241-7.21-0.415-11.121-0.516c2.043,3.336,4.048,6.46,6.007,9.373 c-7.262,4.389-7.262,9.591,0,13.98c-1.959,2.912-3.964,6.037-6.007,9.373c3.911-0.101,7.619-0.275,11.121-0.516 c0.17,8.484,4.675,11.085,12.107,6.99C62.993-6.736,64.697-3.437,66.564,0c1.868-3.437,3.571-6.736,5.113-9.889 c7.432,4.095,11.937,1.493,12.107-6.99c3.502,0.241,7.21,0.415,11.121,0.516c-2.043-3.336-4.048-6.46-6.007-9.373 C96.161-30.125,96.161-35.327,88.899-39.716z"/> <path d="M208.1-37.58l-66.564-115.293c-15.904,46.118-32.225,80.262-46.629,103.783C122.478-49.804,160.208-46.865,208.1-37.58z"/> </g> <g> <path d="M349.635-277.872l66.564,115.293c15.904-46.118,32.224-80.262,46.629-103.783 C435.256-265.648,397.526-268.587,349.635-277.872z"/> <path d="M557.734-157.726c-31.987-36.833-53.397-68.038-66.564-92.274c-13.167,24.236-34.577,55.441-66.564,92.274H557.734z"/> <path d="M513.504-289.716c1.959-2.912,3.964-6.037,6.007-9.373c-3.911,0.101-7.619,0.275-11.121,0.516 c-0.17-8.484-4.675-11.085-12.107-6.99c-1.542-3.153-3.246-6.452-5.113-9.889c-1.868,3.437-3.571,6.736-5.113,9.889 c-7.432-4.095-11.938-1.493-12.107,6.99c-3.502-0.241-7.21-0.415-11.121-0.516c2.043,3.336,4.048,6.46,6.007,9.373 c-7.262,4.389-7.262,9.591,0,13.98c-1.959,2.912-3.964,6.037-6.007,9.373c3.911-0.101,7.619-0.275,11.121-0.516 c0.17,8.484,4.675,11.085,12.107,6.99c1.542,3.153,3.246,6.452,5.113,9.889c1.868-3.437,3.571-6.736,5.113-9.889 c7.432,4.095,11.938,1.493,12.107-6.99c3.502,0.241,7.21,0.415,11.121,0.516c-2.043-3.336-4.048-6.46-6.007-9.373 C520.766-280.125,520.766-285.327,513.504-289.716z"/> </g> <g> <path d="M137.332-152.872L203.896-37.58c15.904-46.118,32.224-80.262,46.629-103.783 C222.953-140.649,185.224-143.587,137.332-152.872z"/> <path d="M345.431-32.726c-31.987-36.833-53.397-68.038-66.564-92.274c-13.167,24.236-34.577,55.441-66.564,92.274H345.431z"/> <path d="M212.303-282.726c31.987,36.833,53.397,68.038,66.564,92.274c13.167-24.236,34.577-55.441,66.564-92.274H212.303z"/> <path d="M137.332-162.58c47.892-9.286,85.621-12.224,113.194-11.509c-14.405-23.521-30.725-57.665-46.629-103.783L137.332-162.58 z"/> <path d="M307.209-141.363c14.405,23.521,30.725,57.665,46.629,103.783l66.564-115.293 C372.511-143.587,334.781-140.649,307.209-141.363z"/> <path d="M301.201-164.716c1.959-2.912,3.964-6.037,6.007-9.373c-3.911,0.101-7.619,0.275-11.121,0.516 c-0.17-8.484-4.675-11.085-12.107-6.99c-1.543-3.153-3.246-6.452-5.113-9.889c-1.868,3.437-3.571,6.736-5.113,9.889 c-7.432-4.095-11.937-1.493-12.107,6.99c-3.502-0.241-7.21-0.415-11.121-0.516c2.043,3.336,4.048,6.46,6.007,9.373 c-7.262,4.389-7.262,9.591,0,13.98c-1.959,2.912-3.964,6.037-6.007,9.373c3.911-0.101,7.619-0.275,11.121-0.516 c0.17,8.484,4.675,11.085,12.107,6.99c1.543,3.153,3.246,6.452,5.113,9.889c1.868-3.437,3.571-6.736,5.113-9.889 c7.432,4.095,11.937,1.493,12.107-6.99c3.502,0.241,7.21,0.415,11.121,0.516c-2.043-3.336-4.048-6.46-6.007-9.373 C308.464-155.125,308.464-160.327,301.201-164.716z"/> <path d="M420.402-162.58l-66.564-115.293c-15.904,46.118-32.225,80.262-46.629,103.783 C334.781-174.804,372.511-171.865,420.402-162.58z"/> </g> <g> <path d="M133.128-157.726C101.141-194.559,79.732-225.764,66.564-250C53.397-225.764,31.987-194.559,0-157.726H133.128z"/> <path d="M94.906-266.363c14.405,23.521,30.725,57.665,46.629,103.783L208.1-277.872 C160.208-268.587,122.478-265.648,94.906-266.363z"/> <path d="M88.899-289.716c1.959-2.912,3.964-6.037,6.007-9.373c-3.911,0.101-7.619,0.275-11.121,0.516 c-0.17-8.484-4.675-11.085-12.107-6.99c-1.542-3.153-3.246-6.452-5.113-9.889c-1.868,3.437-3.571,6.736-5.113,9.889 c-7.432-4.095-11.937-1.493-12.107,6.99c-3.502-0.241-7.21-0.415-11.121-0.516c2.043,3.336,4.048,6.46,6.007,9.373 c-7.262,4.389-7.262,9.591,0,13.98c-1.959,2.912-3.964,6.037-6.007,9.373c3.911-0.101,7.619-0.275,11.121-0.516 c0.17,8.484,4.675,11.085,12.107,6.99c1.542,3.153,3.246,6.452,5.113,9.889c1.868-3.437,3.571-6.736,5.113-9.889 c7.432,4.095,11.937,1.493,12.107-6.99c3.502,0.241,7.21,0.415,11.121,0.516c-2.043-3.336-4.048-6.46-6.007-9.373 C96.161-280.125,96.161-285.327,88.899-289.716z"/> </g> </g> </pattern> <rect fill="url(#New_Pattern)" width="2560" height="1600"/> </svg>