<?xml version="1.0" encoding="UTF-8"?>
<svg viewBox="0 0 500 400" xmlns="http://www.w3.org/2000/svg" xmlns:xlink="http://www.w3.org/1999/xlink">
 <defs>
  <filter id="l">
   <feGaussianBlur stdDeviation="6.005"/>
  </filter>
  <linearGradient id="a">
   <stop stop-color="#d08100" offset="0"/>
   <stop stop-color="#d00000" offset=".5"/>
   <stop stop-color="#570000" offset="1"/>
  </linearGradient>
  <linearGradient id="k" x1="33.462" x2="48.893" y1="270.68" y2="270.68" gradientUnits="userSpaceOnUse" xlink:href="#a"/>
  <linearGradient id="j" x1="51.334" x2="115.57" y1="264.12" y2="234.69" gradientUnits="userSpaceOnUse" xlink:href="#a"/>
  <linearGradient id="i" x1="51.469" x2="221.4" y1="217.03" y2="304.05" gradientUnits="userSpaceOnUse" xlink:href="#a"/>
  <linearGradient id="h" x1="117.2" x2="325.75" y1="313.96" y2="303.72" gradientUnits="userSpaceOnUse" xlink:href="#a"/>
  <linearGradient id="g" x1="289.72" x2="332.09" gradientUnits="userSpaceOnUse" xlink:href="#a"/>
  <linearGradient id="f" x1="333.63" x2="392.1" y1="157.88" y2="161.72" gradientUnits="userSpaceOnUse" xlink:href="#a"/>
  <linearGradient id="e" x1="318.89" x2="362.71" gradientUnits="userSpaceOnUse" xlink:href="#a"/>
  <linearGradient id="d" x1="399.68" x2="438.87" gradientUnits="userSpaceOnUse" xlink:href="#a"/>
  <linearGradient id="c" x1="415.07" x2="448.71" gradientUnits="userSpaceOnUse" xlink:href="#a"/>
  <linearGradient id="b" x1="420.04" x2="467.99" gradientUnits="userSpaceOnUse" xlink:href="#a"/>
 </defs>
 <g transform="translate(2,4)" fill-rule="evenodd" filter="url(#l)" stroke="#000">
  <path d="m41.674 262.7c-13.077 10.902-10.517 9.0919 4.7988 15.036-1.9195-8.158 4.0552-5.1137 15.836-9.9176-5.9186-0.47988-5.2787 0.63985 0.79981-3.6791-18.662 2.3451-24.954 6.0785-21.435-1.4396z"/>
  <path d="m123.88 211.2c-9.7576 4.159-27.673 16.943-25.594 8.625-6.996 9.0804-47.052 24.214-54.844 44.156 29.113-2.0795 29.661-2.9446 20.781 2.875 31.192-2.7193 50.537 2.3146 58.562 12.156-7.9981-11.037-7.0829-9.6868 4.625-6.4062-18.715-15.036-36.999-12.137-15.688-18.219-5.4387-3.1992-3.7159-3.4103 4.3438-2.0938-6.3984-6.2385-7.8901-7.3622 13.438-7.0312-19.355-3.1992-14.901-3.2119-3.5312-8.4688-18.076-3.5192-10.624-5.1469 8.1562-9.75-20.155-2.0795 11.749-6.6708 10.25-10.562-1.6587-4.3054-59.377 23.32-20.5-5.2812zm-62.688 45.25s-5.6053 4.8014-11.844 5.2812c0 0 0.96638-4.6414 11.844-5.2812z"/>
  <path d="m384.63 16.041c-65.83-0.33933-53.067 18.733-113.72 45.594-35.516 32.01-50.688 42.387-41.938 18.875-7.6266 1.5996-29.887 82.04-59 83 0 0 7.4058-10.999 15.5-21.406-5.2787 4.159-9.9189 7.991-10.719 7.0312-1.1942-1.4331 14.037-14.549 23.031-23.531-23.034 11.037-37.302 32.478-45.406 37.438 1.5996-7.0383 6.284-9.6031 8.1562-12.469-4.9588 1.7596-6.8871 3.9889-10.406 4.4688 24.188-32.706 49.696-32.101 62.062-51.969-16.316 11.837-26.81 18.239-31.656 18.688 3.6791-10.717 12.222-13.868 13.906-17.594-14.876 5.1188-40.512 27.026-43.188 24 17.756-19.515 51.463-40.377 62.375-51.812-35.831 23.994-84.437 42.006-83.969 93.719-6.5584-0.95977-15.315-1.393-25.906 5.2812 10.238-1.1197 15.506-3.8489 20.625-2.4062-5.7586 3.1992-7.125 1.8576-10.875 4.5 24.954 4.4789 39.244 21.021 41.094 45.594-2.5594 2.8793-22.991 6.4592-34.062 9.75 0.47988 0.95977 12.156 2.4062 12.156 2.4062l-11.188 6.0625 21.438 2.7188-28.812 3.0312 14.25 10.562-22.875 1.5938c42.39 8.9578 48.465 16.385 52.781 19.375-11.037-3.8391-17.753-8.6451-23.031-9.125 2.2074 2.8932 9.6096 6.7324 12.969 11.531-7.8032-3.2452-25.775-16.96-27.375-16 2.0649 3.9438 16.642 11.349 14.562 12.469-6.3152-0.13096-12.784-5.9211-15.344-5.2812-2.2381 0.55953 29.733 17.768 25.094 26.406-13.917 11.837-40.784 1.5938-43.344 1.5938-4.0815-2.5594-5.2844-13.591-7.8438-17.75-12.856 6.0495-12.157 3.8131-16.156 1.0938-3.5274 2.0346-27.194 1.9375-32.312 1.9375-3.9658 0.47988-5.4236 1.9131-10.062 4.3125 0.59999 3.7864-12.39 13.136 2.5625 13.75-7.6782-4.159-0.25461-12.703 3.3438-9.0938 2.5594-0.31992 4.6478 0.9423 6.875 0.15625-0.95977 4.9588-0.18071 13.987 2.4062 13.281-0.79981-17.596 19.06-16.127 12.812-3.6875 6.0785-1.9195 5.1792-8.762 9.0938-9.75 12.317 2.0795 13.746 25.551-8.9375 17.75 14.077 11.357 17.582-0.21365 28.781-4.5 12.957 7.8381 12.629 11.922-6.4062 15.062 15.579 4.5146 19.411-5.291 25.906-3.5938 9.6257 2.5153 9.8091 12.659-1.5938 12.688-1.4396 12.477 10.067 28.731 14.094 31.031-7.6781-9.5977-7.4294-27.567-4.3125-27.969 0.7998 14.397 15.062 28.943 17.906 28.469 0-4.7988-1.306-3.5312 1.75-3.5312 2.5594 3.1992 7.3378 6.9987 10.875 5.9375-9.9176-6.7184-16.034-24.199-13.75-24.656 3.999-0.79981 11.346 16.27 17.281 14.719-5.7586-4.7988-11.687-16.486-9.125-16.781 8.6379 11.997 20.534 6.7729 31.688 7.5-16.636-5.1188-25.046-16.897-23.031-18.375 4.7988-3.5192 23.878 23.196 67.812 22.688-38.071-9.2778-42.298-18.881-45.75-27.188 7.0383 3.5192 18.512 10.99 21.125 8.8125-13.117-7.3582-29.809-25.444-27.031-27.031 5.2091 1.5736 9.0312 2.3932 11.5 3.0312-6.0785-7.6781-13.701-14.133-9.9062-16.469 5.7586 1.2797 7.3254 7.9892 12.938 7.1875 4.4789-0.63985 8.6067-1.101 14.719-3.5-4.0753-3.0312-11.967-8.9521-9.9062-10.719 2.2395-1.9195 21.404 7.3111 27.5-0.5 1.5996-2.2395-15.227-9.2142-11.5-11.344 5.7231-0.29719 15.229 3.6637 18.906 6.5625 5.9882-1.9811 12.986-1.8265 29.25-3.0625-26.713-4.5565-43-10.885-42.562-12.781 28.559-1.105 22.886 9.3475 40.469 2.875 2.2395-2.5594-9.6881-2.6327-8.9688-5.75 10.009 4.8898 22.836-3.983 36.469-5.9375-6.6929-2.2555-12.874-5.8191-12.312-8.625 8.3313-2.5206 10.712 1.0672 13.125-0.8125-12.575-4.1978-26.983-25.11-33.281-36.781 10.852 8.9584 33.64 30.347 46.562 30.719-12.329-6.7866-12.792-9.4834-16.812-14.25 9.275-1.018 18.713 5.1586 22.875 1.9375-20.586-1.8098-37.052-41.741-35.188-42.25 8.5963 5.7686 31.15 17.392 35.531 16.312-7.239-3.7326-10.422-6.3847-11.375-9.0938 3.7326-1.1311 22.539-5.865 27.031-8.9688-8.0308-0.67866-9.7232-0.069-11.344-2.25 2.7146 0.11311 15.5-2.3896 15.5-4.3125 0-1.7004-23.979-3.7408-23.188-5.4375 0.87939-1.8844 26.854-0.46875 36.469-0.46875 0.89684-1.7122-25.507-11.003-25.281-12.812 0.30897-2.4718 16.36 0.01662 16.812-1.9062-19.342-1.2736-25.491-6.3241-27.188-8.8125 3.1923-2.0242 10.66-2.6772 12.781-3.8438-7.7981 0.02565-18.193-2.8661-16.625-5.5312 2.1224-3.6069 25.056-9.0414 29.906 0.75 2.7146-0.79177 12.111-1.5673 27.031-3.1875 0.67866-2.4884-14.675 2.3194-27.344-16.344 2.4378-2.4378 36.256-2.5736 39.5 8.9688-0.11311 2.1491-8.3125 2.875-8.3125 2.875 19.568 2.6015 37.921-6.358 46.875-17.125-23.527 13.347-47.824 4.961-60.312-4.3125 14.704-9.1619 29.094-5.2828 39.844-0.78125 5.0899-3.1671 22.659-8.1296 37.25-18.875-26.307 12.674-36.971 11.454-73.906 8.4688 18.324-14.365 33.504-5.9021 37.125-3.1875 21.038-7.1259 30.318-18.377 46.719-22.562-16.557 1.5576-31.233 13.945-48.312 11.344 7.9529-6.1305 18.007-8.6991 20.156-11.188-10.297 3.1759-49.74 9.2506-71.344 27.688 37.011-40.448 44.144-22.825 46.375-23.219 14.365-9.9537 34.118-22.449 41.125-27.031-14.704 6.4473-34.336 17.728-38.094 17.594-31.671-0.11311-48.399 4.6645-61.406 10.094 35.29-21.38 54.505-14.423 56.312-14.562 33.933-16.966 37.003-20.402 62.531-23.344-26.468-9.9537-56.939 3.8038-57.594 8.7812 34.838-1.1311-27.737 19.62-16.312 3.2188-3.3799-1.3-40.803 17.898-47.188 15.5 3.2802-4.072 5.6825-4.4936 10.094-8-9.2255 2.922-37.389 17.795-45.594 25.75 21.152-29.522 65.65-34.003 71.031-37.75-5.6555 0.22622-15.617 3.0399-19.844 2.25 22.848-20.925 48.956-20.941 51.969-17.594 1.018 1.1311-8.3026 6.7398-11.969 11.031 21.491-11.537 37.721-13.182 41.906-17.594-70.692-1.901-62.591 12.826-113.75 31.844 0 0 3.5231-9.6508 26.094-22.406 4.9768 0 2.3947 2.147-0.1875 4.9688 22.396-22.17 52.421-19.711 61.438-23.844zm-43.875 61.219c1.2849-0.0282 2.3764 0.00892 3.2812 0.09375-25.159 26.253-44.777 32.347-67.625 29.406 29.883-3.9224 47.354-15.485 50.219-21.25-5.6555-1.5835-16.054 6.7854-25.781 9.5 13.488-14.057 30.912-17.553 39.906-17.75zm-53.25 37.438c-7.6915 8.1439-13.799 13.332-25.562 21.25 6.4516-9.7135 13.454-17.88 25.562-21.25zm21.562 7.5938c3.8672 0.03024 7.2006 1.2154 9.4062 4.1562-8.7568-0.80187-11.163-1.5405-14.031 0.21875-3.8457 4.072 4.6022 0.74944 1.8125 3.4062-9.7274-2.7146-20.351 4.7378-30.531 7 5.3245-4.5658 21.742-14.872 33.344-14.781zm-40.438 25.5c13.471-0.24943 28.57 2.1296 29.938 15.094-7.9177 0.22622-11.531-2.3665-14.469-2.5 9.0488-7.4652-1.1186-8.8092-27.812-11.75 3.5559-0.36703 7.8536-0.76061 12.344-0.84375zm-39.312 20.375c37.402 22.641 30.919 21.104 8.7812 10.656-4.0803-1.9256-9.7494-1.7133-15.031-3.4688 10.877-0.31992 12.169-0.62908 6.25-7.1875zm41.75 0.625c23.979 12.261 32.608 18.332-2.7188 12.656 16.156 0.15996 16.315-0.33923 2.7188-12.656zm-63.812 20.969c7.1269-0.04088 13.994 0.61789 17.406 1.4375-37.751 3.3592 11.378 3.2124 13.938 23.688-7.9702-5.6648-17.28-13.121-16-6.5625-4.5967-2.6867-0.65011-10.738-37.281-13.938 3.1914-3.3858 12.774-4.5724 21.938-4.625zm41.094 10.219c6.2385 7.9981 8.3178 13.117 9.4375 0 1.4735 10.128 6.6326 12.474 5.7188 15.219-0.96366 2.8941-8.6611 1.2921-15.156-15.219zm-55.844 4.5312c4.5578 0.01688 10.488 0.48992 17.938 1.5625-23.034 2.3994-22.883 0.00193-13.125 8-18.165-1.7847-23.696-9.0958-6.6875-9.5312 0.59528-0.01524 1.2239-0.03366 1.875-0.03125zm-1.125 20.812c4.1406-0.1547 11.084 0.66492 18.406 0.90625-11.197 4.159-22.064-1.9246-4.4688 15.031-19.938-12.735-20.838-15.68-13.938-15.938zm-17.094 8.7188c2.4736-0.00572 5.1404 0.14256 8 0.5-13.437 1.9195-16.337 1.932-4.5 10.25 0 0-13.745-3.1949-28.781-2.875 0 0 7.9661-7.8349 25.281-7.875zm72.469 1.4688c6.4311 14.048 15.583 16.242 15.156 16.938-1.1132 1.8167-6.9918 1.729-18.375-5.5938 8.7979 1.5996 8.4975 3.0528 3.2188-11.344zm-36.969 13.281c26.878 12.445 29.358 16.974-1.9062 11.344 13.917-0.95977 12.944-0.30643 1.9062-11.344zm-125.41 42.062s10.566 1.2726 13.125 7.0312c0 0-3.8453 1.2812-5.125 1.2812 0 0-8-6.393-8-8.3125z"/>
  <path d="m173.93 308.33c13.121 6.1079 16.756 4.5008 3.8457-9.9537 12.216 7.4652 16.48 0.44541 28.051-0.45244-2.036-3.6195-8.9383-3.3881-13.121-10.632 13.121 6.7866 16.906 0 28.504-0.45244 55.876 24.658 81.033 21.294 162.2 26.92-53.162 1.1311-70.354 11.311-117.86 7.0128 19.002 13.799 22.766 7.7132 31.671 10.18-8.3701 3.1671-42.298 0.45244-47.506 0.45244-7.6915-12.668-31.671-21.265-61.984-9.0488l-13.799-14.026z"/>
  <path d="m344.95 193.86c-6.1708 2.978-8.5004 17.844-55.424 16.062-0.90488 4.5244 28.956 13.799 43.66 4.5244-48.847 0.70738 2.2622 0 11.763-20.586z"/>
  <path d="m374.58 152.01c-10.854 0.5566-14.252 10.859-41.172 10.632 34.303 12.978 64.675-9.7283 87.547-14.252-8.407-1.6013-41.644 9.3112-53.804 11.756-8.4539 1.6999-0.64223-3.498 7.4292-8.1367z"/>
  <path d="m318.71 147.04c24.348 5.0452 24.884-17.645 61.984-8.1439-20.16-0.28295-35.844 5.0224-38.233 8.7365-1.4728 2.2891 4.7695 2.7111 10.182 4.6105-8.3701 3.1671-35.064 0-33.933-5.203z"/>
  <path d="m399.47 121.47c18.257-17.105 44.339-29.409 56.102-30.54-46.168 21.282-35.516 21.717-18.776 15.835-3.3684 4.359-27.373 14.478-37.326 14.704z"/>
  <path d="m414.85 61.299c27.236-17.429 48.252-9.5441 48.637-5.8817-15.609-5.6555-35.516-0.45244-7.6915 5.8817-21.09-1.5021-27.825-2.2622-40.946 0z"/>
  <path d="m419.83 16.734c19.276-3.1368 60.853 9.275 59.722 14.252-24.367-7.8394-47.264-11.337-13.347 2.7146-14.252 2.036-26.92-11.763-46.375-16.966z"/>
 </g>
 <path transform="matrix(.92308 -.38461 .38461 .92308 -94.82 41.767)" d="m48.864 258.01a8.1439 5.4293 0 1 1 0.00119 0.04278" fill="#fff"/>
 <path d="m42.388 263.16c-13.077 10.902-10.517 9.0919 4.7988 15.036-1.9195-8.158 4.0552-5.1137 15.836-9.9176-5.9186-0.47988-5.2787 0.63985 0.79981-3.6791-18.662 2.3451-24.954 6.0785-21.435-1.4396z" fill="url(#k)" fill-rule="evenodd" stroke="#000" stroke-width="2"/>
 <path d="m124.59 211.66c-9.7576 4.159-27.673 16.943-25.594 8.625-6.996 9.0804-47.052 24.214-54.844 44.156 29.113-2.0795 29.661-2.9446 20.781 2.875 31.192-2.7193 50.537 2.3146 58.562 12.156-7.9981-11.037-7.0829-9.6868 4.625-6.4062-18.715-15.036-36.999-12.137-15.688-18.219-5.4387-3.1992-3.7159-3.4103 4.3438-2.0938-6.3984-6.2385-7.8901-7.3622 13.438-7.0312-19.355-3.1992-14.901-3.2119-3.5312-8.4688-18.076-3.5192-10.624-5.1469 8.1562-9.75-20.155-2.0795 11.749-6.6708 10.25-10.562-1.6587-4.3054-59.377 23.32-20.5-5.2812zm-62.688 45.25s-5.6053 4.8014-11.844 5.2812c0 0 0.96638-4.6414 11.844-5.2812z" fill="url(#j)" fill-rule="evenodd" stroke="#000" stroke-width="2"/>
 <path d="m385.34 16.5c-65.83-0.33933-53.067 18.733-113.72 45.594-35.516 32.01-50.688 42.387-41.938 18.875-7.6266 1.5996-29.887 82.04-59 83 0 0 7.4058-10.999 15.5-21.406-5.2787 4.159-9.9189 7.991-10.719 7.0312-1.1942-1.4331 14.037-14.549 23.031-23.531-23.034 11.037-37.302 32.478-45.406 37.438 1.5996-7.0383 6.284-9.6031 8.1562-12.469-4.9588 1.7596-6.8871 3.9889-10.406 4.4688 24.188-32.706 49.696-32.101 62.062-51.969-16.316 11.837-26.81 18.239-31.656 18.688 3.6791-10.717 12.222-13.868 13.906-17.594-14.876 5.1188-40.512 27.026-43.188 24 17.756-19.515 51.463-40.377 62.375-51.812-35.831 23.994-84.437 42.006-83.969 93.719-6.5584-0.95977-15.315-1.393-25.906 5.2812 10.238-1.1197 15.506-3.8489 20.625-2.4062-5.7586 3.1992-7.125 1.8576-10.875 4.5 24.954 4.4789 39.244 21.021 41.094 45.594-2.5594 2.8793-22.991 6.4592-34.062 9.75 0.47988 0.95977 12.156 2.4062 12.156 2.4062l-11.188 6.0625 21.438 2.7188-28.812 3.0312 14.25 10.562-22.875 1.5938c42.39 8.9578 48.465 16.385 52.781 19.375-11.037-3.8391-17.753-8.6451-23.031-9.125 2.2074 2.8932 9.6096 6.7324 12.969 11.531-7.8032-3.2452-25.775-16.96-27.375-16 2.0649 3.9438 16.642 11.349 14.562 12.469-6.3152-0.13096-12.784-5.9211-15.344-5.2812-2.2381 0.55953 29.733 17.768 25.094 26.406-13.917 11.837-40.784 1.5938-43.344 1.5938-4.0815-2.5594-5.2844-13.591-7.8438-17.75-12.856 6.0495-12.157 3.8131-16.156 1.0938-3.5274 2.0346-27.194 1.9375-32.312 1.9375-3.9658 0.47988-5.4236 1.9131-10.062 4.3125 0.59999 3.7864-12.39 13.136 2.5625 13.75-7.6782-4.159-0.2546-12.703 3.3438-9.0938 2.5594-0.31992 4.6478 0.9423 6.875 0.15625-0.95977 4.9588-0.18071 13.987 2.4062 13.281-0.79981-17.596 19.06-16.127 12.812-3.6875 6.0785-1.9195 5.1792-8.762 9.0938-9.75 12.317 2.0795 13.746 25.551-8.9375 17.75 14.077 11.357 17.582-0.21365 28.781-4.5 12.957 7.8381 12.629 11.922-6.4062 15.062 15.579 4.5146 19.411-5.291 25.906-3.5938 9.6257 2.5153 9.8091 12.659-1.5938 12.688-1.4396 12.477 10.067 28.731 14.094 31.031-7.6781-9.5977-7.4294-27.567-4.3125-27.969 0.7998 14.397 15.062 28.943 17.906 28.469 0-4.7988-1.306-3.5312 1.75-3.5312 2.5594 3.1992 7.3378 6.9987 10.875 5.9375-9.9176-6.7184-16.034-24.199-13.75-24.656 3.999-0.79981 11.346 16.27 17.281 14.719-5.7586-4.7988-11.687-16.486-9.125-16.781 8.6379 11.997 20.534 6.7729 31.688 7.5-16.636-5.1188-25.046-16.897-23.031-18.375 4.7988-3.5192 23.878 23.196 67.812 22.688-38.071-9.2778-42.298-18.881-45.75-27.188 7.0383 3.5192 18.512 10.99 21.125 8.8125-13.117-7.3582-29.809-25.444-27.031-27.031 5.2091 1.5736 9.0312 2.3932 11.5 3.0312-6.0785-7.6781-13.701-14.133-9.9062-16.469 5.7586 1.2797 7.3254 7.9892 12.938 7.1875 4.4789-0.63985 8.6067-1.101 14.719-3.5-4.0753-3.0312-11.967-8.9521-9.9062-10.719 2.2395-1.9195 21.404 7.3111 27.5-0.5 1.5996-2.2395-15.227-9.2142-11.5-11.344 5.7231-0.29719 15.229 3.6637 18.906 6.5625 5.9882-1.9811 12.986-1.8265 29.25-3.0625-26.713-4.5565-43-10.885-42.562-12.781 28.559-1.105 22.886 9.3475 40.469 2.875 2.2395-2.5594-9.6881-2.6327-8.9688-5.75 10.009 4.8898 22.836-3.983 36.469-5.9375-6.6929-2.2555-12.874-5.8191-12.312-8.625 8.3313-2.5206 10.712 1.0672 13.125-0.8125-12.575-4.1978-26.983-25.11-33.281-36.781 10.852 8.9584 33.64 30.347 46.562 30.719-12.329-6.7866-12.792-9.4834-16.812-14.25 9.275-1.018 18.713 5.1586 22.875 1.9375-20.586-1.8098-37.052-41.741-35.188-42.25 8.5963 5.7686 31.15 17.392 35.531 16.312-7.239-3.7326-10.422-6.3847-11.375-9.0938 3.7326-1.1311 22.539-5.865 27.031-8.9688-8.0308-0.67866-9.7232-0.069-11.344-2.25 2.7146 0.11311 15.5-2.3896 15.5-4.3125 0-1.7004-23.979-3.7408-23.188-5.4375 0.87939-1.8844 26.854-0.46875 36.469-0.46875 0.89684-1.7122-25.507-11.003-25.281-12.812 0.30897-2.4718 16.36 0.01662 16.812-1.9062-19.342-1.2736-25.491-6.3241-27.188-8.8125 3.1923-2.0242 10.66-2.6772 12.781-3.8438-7.7981 0.02565-18.193-2.8661-16.625-5.5312 2.1224-3.6069 25.056-9.0414 29.906 0.75 2.7146-0.79177 12.111-1.5673 27.031-3.1875 0.67866-2.4884-14.675 2.3194-27.344-16.344 2.4378-2.4378 36.256-2.5736 39.5 8.9688-0.11311 2.1491-8.3125 2.875-8.3125 2.875 19.568 2.6015 37.921-6.358 46.875-17.125-23.527 13.347-47.824 4.961-60.312-4.3125 14.704-9.1619 29.094-5.2828 39.844-0.78125 5.0899-3.1671 22.659-8.1296 37.25-18.875-26.307 12.674-36.971 11.454-73.906 8.4688 18.324-14.365 33.504-5.9021 37.125-3.1875 21.038-7.1259 30.318-18.377 46.719-22.562-16.557 1.5576-31.233 13.945-48.312 11.344 7.9529-6.1305 18.007-8.6991 20.156-11.188-10.297 3.1759-49.74 9.2506-71.344 27.688 37.011-40.448 44.144-22.825 46.375-23.219 14.365-9.9537 34.118-22.449 41.125-27.031-14.704 6.4473-34.336 17.728-38.094 17.594-31.671-0.11311-48.399 4.6645-61.406 10.094 35.29-21.38 54.505-14.423 56.312-14.562 33.933-16.966 37.003-20.402 62.531-23.344-26.468-9.9537-56.939 3.8038-57.594 8.7812 34.838-1.1311-27.737 19.62-16.312 3.2188-3.3799-1.3-40.803 17.898-47.188 15.5 3.2802-4.072 5.6825-4.4936 10.094-8-9.2255 2.922-37.389 17.795-45.594 25.75 21.152-29.522 65.65-34.003 71.031-37.75-5.6555 0.22622-15.617 3.0399-19.844 2.25 22.848-20.925 48.956-20.941 51.969-17.594 1.018 1.1311-8.3026 6.7398-11.969 11.031 21.491-11.537 37.721-13.182 41.906-17.594-70.692-1.901-62.591 12.826-113.75 31.844 0 0 3.5231-9.6508 26.094-22.406 4.9768 0 2.3947 2.147-0.1875 4.9688 22.396-22.17 52.421-19.711 61.438-23.844zm-43.875 61.219c1.2849-0.0282 2.3764 0.00892 3.2812 0.09375-25.159 26.253-44.777 32.347-67.625 29.406 29.883-3.9224 47.354-15.485 50.219-21.25-5.6555-1.5835-16.054 6.7854-25.781 9.5 13.488-14.057 30.912-17.553 39.906-17.75zm-53.25 37.438c-7.6915 8.1439-13.799 13.332-25.562 21.25 6.4516-9.7135 13.454-17.88 25.562-21.25zm21.562 7.5938c3.8672 0.03024 7.2006 1.2154 9.4062 4.1562-8.7568-0.80187-11.163-1.5405-14.031 0.21875-3.8457 4.072 4.6022 0.74944 1.8125 3.4062-9.7274-2.7146-20.351 4.7378-30.531 7 5.3245-4.5658 21.742-14.872 33.344-14.781zm-40.438 25.5c13.471-0.24943 28.57 2.1296 29.938 15.094-7.9177 0.22622-11.531-2.3665-14.469-2.5 9.0488-7.4652-1.1186-8.8092-27.812-11.75 3.5559-0.36703 7.8536-0.76061 12.344-0.84375zm-39.312 20.375c37.402 22.641 30.919 21.104 8.7812 10.656-4.0803-1.9256-9.7494-1.7133-15.031-3.4688 10.877-0.31992 12.169-0.62908 6.25-7.1875zm41.75 0.625c23.979 12.261 32.608 18.332-2.7188 12.656 16.156 0.15996 16.315-0.33923 2.7188-12.656zm-63.812 20.969c7.1269-0.04088 13.994 0.61789 17.406 1.4375-37.751 3.3592 11.378 3.2124 13.938 23.688-7.9702-5.6648-17.28-13.121-16-6.5625-4.5967-2.6867-0.65011-10.738-37.281-13.938 3.1914-3.3858 12.774-4.5724 21.938-4.625zm41.094 10.219c6.2385 7.9981 8.3178 13.117 9.4375 0 1.4735 10.128 6.6326 12.474 5.7188 15.219-0.96366 2.8941-8.6611 1.2921-15.156-15.219zm-55.844 4.5312c4.5578 0.01688 10.488 0.48992 17.938 1.5625-23.034 2.3994-22.883 0.00193-13.125 8-18.165-1.7847-23.696-9.0958-6.6875-9.5312 0.59528-0.01524 1.2239-0.03366 1.875-0.03125zm-1.125 20.812c4.1406-0.1547 11.084 0.66492 18.406 0.90625-11.197 4.159-22.064-1.9246-4.4688 15.031-19.938-12.735-20.838-15.68-13.938-15.938zm-17.094 8.7188c2.4736-0.00572 5.1404 0.14256 8 0.5-13.437 1.9195-16.337 1.932-4.5 10.25 0 0-13.745-3.1949-28.781-2.875 0 0 7.9661-7.8349 25.281-7.875zm72.469 1.4688c6.4311 14.048 15.583 16.242 15.156 16.938-1.1132 1.8167-6.9918 1.729-18.375-5.5938 8.7979 1.5996 8.4975 3.0528 3.2188-11.344zm-36.969 13.281c26.878 12.445 29.358 16.974-1.9062 11.344 13.917-0.95977 12.944-0.30643 1.9062-11.344zm-125.41 42.062s10.566 1.2726 13.125 7.0312c0 0-3.8453 1.2812-5.125 1.2812 0 0-8-6.393-8-8.3125z" fill="url(#i)" fill-rule="evenodd" stroke="#000" stroke-width="2"/>
 <path d="m174.64 308.79c13.121 6.1079 16.756 4.5008 3.8457-9.9537 12.216 7.4652 16.48 0.44541 28.051-0.45244-2.036-3.6195-8.9383-3.3881-13.121-10.632 13.121 6.7866 16.906 0 28.504-0.45244 55.876 24.658 81.033 21.294 162.2 26.92-53.162 1.1311-70.354 11.311-117.86 7.0128 19.002 13.799 22.766 7.7132 31.671 10.18-8.3701 3.1671-42.298 0.45244-47.506 0.45244-7.6915-12.668-31.671-21.265-61.984-9.0488l-13.799-14.026z" fill="url(#h)" fill-rule="evenodd" stroke="#000" stroke-width="2"/>
 <path d="m345.66 194.32c-6.1708 2.978-8.5004 17.844-55.424 16.062-0.90488 4.5244 28.956 13.799 43.66 4.5244-48.847 0.70738 2.2622 0 11.763-20.586z" fill="url(#g)" fill-rule="evenodd" stroke="#000" stroke-width="2"/>
 <path d="m375.3 152.47c-10.854 0.5566-14.252 10.859-41.172 10.632 34.303 12.978 64.675-9.7283 87.547-14.252-8.407-1.6013-41.644 9.3112-53.804 11.756-8.4539 1.6999-0.64223-3.498 7.4292-8.1367z" fill="url(#f)" fill-rule="evenodd" stroke="#000" stroke-width="2"/>
 <path d="m319.42 147.5c24.348 5.0452 24.884-17.645 61.984-8.1439-20.16-0.28295-35.844 5.0224-38.233 8.7365-1.4728 2.2891 4.7695 2.7111 10.182 4.6105-8.3701 3.1671-35.064 0-33.933-5.203z" fill="url(#e)" fill-rule="evenodd" stroke="#000" stroke-width="2"/>
 <path d="m400.18 121.93c18.257-17.105 44.339-29.409 56.102-30.54-46.168 21.282-35.516 21.717-18.776 15.835-3.3684 4.359-27.373 14.478-37.326 14.704z" fill="url(#d)" fill-rule="evenodd" stroke="#000" stroke-width="2"/>
 <path d="m415.57 61.758c27.236-17.429 48.252-9.5441 48.637-5.8817-15.609-5.6555-35.516-0.45244-7.6915 5.8817-21.09-1.5021-27.825-2.2622-40.946 0z" fill="url(#c)" fill-rule="evenodd" stroke="#000" stroke-width="2"/>
 <path d="m420.54 17.193c19.276-3.1368 60.853 9.275 59.722 14.252-24.367-7.8394-47.264-11.337-13.347 2.7146-14.252 2.036-26.92-11.763-46.375-16.966z" fill="url(#b)" fill-rule="evenodd" stroke="#000" stroke-width="2"/>
</svg>
