<?xml version="1.0" encoding="UTF-8"?>
<svg version="1.1" viewBox="0 0 254.48 410" xmlns="http://www.w3.org/2000/svg">
 <defs>
  <linearGradient id="c" x1="677.57" x2="677.57" y1="20.001" y2="430" gradientTransform="translate(-397.57 -158.35)" gradientUnits="userSpaceOnUse">
   <stop stop-color="#FFE67A" offset="0"/>
   <stop stop-color="#F08840" offset="1"/>
  </linearGradient>
  <linearGradient id="d" x1="-593.89" x2="-593.89" y1="20.421" y2="425.8" gradientTransform="matrix(-.9949 0 0 1.0114 -310.86 -159.01)" gradientUnits="userSpaceOnUse">
   <stop stop-color="#EE7B4C" offset="0"/>
   <stop stop-color="#DA0028" offset="1"/>
  </linearGradient>
 </defs>
 <g transform="translate(-152.76 138.35)">
  <path d="m311.27 54.205c-2.941-2.121-12.887-14.551-5.578-34.375 13.469-36.516-10.445-61.734-44.824-60.859 15.344 13.551 11.543 51.648-5.703 40.109-9.828-6.578 14.613-20.387-4.602-32.66-17.906-11.434 8.707-29.922 10.516-46.398 3.023-27.543-11.18-58.676-65.902-58.371 34.961 25.68-14.844 48.383 0 86.258-9.039 2.438-20.438-8.535-10.609-21.375-21.629-0.895-24.055 20.891-16.281 28.969 13.906 14.453-5.348 24.441 6.406 34.805-8.223 4.391-6.488-18.395-18.25-16.555 11.762 8.996-18.414 35.395 6.488 62.832 13.672 15.062 46.172 10.48 32.777 16.551 6.727 16.844 35.297 10.645 24.93 19.613-5.777 5-24.156 16.602-30.566 38.98-1.844 6.434-2.156-8.668-12.992-4.605 11.766 7.707-11.145 16.039 3.203 34.27-0.93 4.062-2.672 11.969-2.48 14.688-2.168 1.562-8.359-1.875-2.992-6.25-9.086 3.438-3.098 15.832 1.617 18.543-0.586 7.082-0.891 16.906 3.906 33.156 4.391 14.887 16.535 29.367 28.508 40.844 41.477 39.773 115.17 34.727 149.91 10.359 36.506-25.611 61.401-81.088 41.37-134.84-14.879-39.926-57.754-53.148-51.953-70.625-9.941 13.734 6.148 32.668 0.84 27.527-5.848-1.277-11.105-30.594-28.914-23.699 11.616 8.106-0.153 9.356-8.821 3.106z" fill="url(#d)"/>
  <path d="m207.95-132.78c17.008 1.705 29.789 7.231 38.088 16.491 8.041 8.972 11.617 21.674 10.07 35.767-0.542 4.939-4.3 10.827-7.935 16.521-3.499 5.483-7.118 11.153-8.334 16.743-1.595 7.333 1.183 13.521 8.031 17.894 7.175 4.583 6.019 7.883 2.719 14.913-1.203 2.564-2.448 5.215-2.773 7.946-0.476 3.993 1.146 7.453 4.567 9.743 2.967 1.985 5.912 2.991 8.754 2.991 5.451 0 9.956-3.646 12.361-10.002 3.245-8.576 2.597-21.556-2.378-31.661 11.856 1.761 21.608 7.24 27.451 15.622 6.921 9.931 7.783 23.396 2.428 37.915-7.672 20.809 1.636 36.043 7.346 40.16 4.19 3.021 9.405 4.898 13.611 4.898 5.76 0 7.35-3.632 7.699-4.746 0.169-0.538 0.262-1.065 0.289-1.581 3.439 2.666 6.232 7.851 8.615 12.272 2.508 4.654 4.562 8.466 7.747 10.014 0.906 0.785 2.088 1.543 3.75 1.543 1.726 0 3.369-0.91 4.282-2.374 1.541-2.47 0.471-4.655-0.473-6.583-0.458-0.936-1.1-2.247-1.735-3.798 2.822 2.839 6.068 5.703 9.445 8.682 11.822 10.432 26.536 23.414 33.854 43.053 11.302 30.324 6.499 57.295 0.48 74.58-7.71 22.143-22.303 41.977-40.037 54.416-16.073 11.278-40.768 18.009-66.056 18.009-31.236 0-58.766-9.901-77.517-27.883-14.592-13.987-23.733-26.99-27.173-38.65-4.332-14.675-4.347-23.729-3.718-31.328 0.159-1.931-0.812-3.78-2.491-4.747-0.613-0.353-1.468-1.34-2.214-2.579 1.496-0.047 2.882-0.502 4.021-1.323 1.399-1.008 2.179-2.686 2.063-4.406-0.024-0.373-0.026-2.76 2.367-13.222 0.337-1.474-0.011-3.02-0.945-4.208-5.964-7.578-3.78-12.122-1.252-17.382 0.637-1.325 1.398-2.91 1.934-4.638 0.938 1.096 2.269 2.066 4.262 2.066 1.926 0 4.482-0.909 5.724-5.241 5.064-17.682 18.513-28.243 25.737-33.917 1.284-1.008 2.394-1.879 3.294-2.659 1.191-1.031 4.817-4.167 3.796-8.413-1.058-4.401-5.682-5.538-10.576-6.742-5.079-1.25-11.161-2.746-14.71-6.749 0.994-1.128 1.653-2.582 1.419-4.447-0.577-4.579-5.009-5.363-11.144-6.448-7.362-1.302-19.686-3.481-26.062-10.506-13.085-14.417-8.883-28.03-5.175-40.042 0.622-2.016 1.249-4.047 1.754-6.05 1.805 4.201 4.234 8.738 9.521 8.738 1.431 0 2.882-0.388 4.314-1.152 1.445-0.772 2.421-2.204 2.611-3.832 0.189-1.628-0.431-3.246-1.66-4.33-3.052-2.69-2.705-4.514-1.147-9.871 1.732-5.961 4.351-14.971-4.963-24.65-2.4-2.495-3.682-8.264-1.566-13.234 1.165-2.738 3.137-4.735 5.825-5.94-0.767 3.763-0.333 7.497 1.348 10.9 2.847 5.764 8.762 9.488 15.069 9.488 1.332 0 2.649-0.173 3.914-0.514 1.373-0.37 2.522-1.307 3.163-2.577 0.64-1.27 0.709-2.751 0.19-4.075-5.961-15.21-0.051-27.807 5.664-39.99 3.779-8.055 7.349-15.664 7.401-23.692 0.037-5.449-1.593-10.479-4.944-15.183m-11.98-5.571c-0.266 0-0.527 1e-3 -0.795 2e-3 34.961 25.68-14.844 48.383 0 86.258-0.856 0.231-1.734 0.341-2.612 0.341-8.396 0-16.895-10.093-7.997-21.716-0.433-0.018-0.859-0.027-1.277-0.027-20.446-1e-3 -22.622 21.079-15.004 28.996 13.906 14.453-5.348 24.441 6.406 34.805-0.726 0.387-1.373 0.563-1.959 0.563-5.804 0-5.599-17.222-14.977-17.224-0.419 0-0.855 0.034-1.314 0.106 11.762 8.996-18.414 35.395 6.488 62.832 13.672 15.062 46.172 10.48 32.777 16.551 6.727 16.844 35.297 10.645 24.93 19.613-5.777 5-24.156 16.602-30.566 38.98-0.332 1.158-0.614 1.618-0.917 1.618-1.175 0-2.662-6.928-8.564-6.929-1.029 0-2.191 0.21-3.511 0.705 11.766 7.707-11.145 16.039 3.203 34.27-0.93 4.062-2.672 11.969-2.48 14.688-0.363 0.262-0.84 0.384-1.356 0.384-2.562 0-6.103-2.992-1.636-6.634-9.086 3.438-3.098 15.832 1.617 18.543-0.586 7.082-0.891 16.906 3.906 33.156 4.391 14.887 16.535 29.367 28.508 40.844 21.604 20.717 51.948 29.274 80.976 29.274 26.7 0 52.286-7.239 68.93-18.914 36.507-25.609 61.402-81.086 41.371-134.84-14.879-39.926-57.754-53.148-51.953-70.625-8.8 12.158 2.797 28.39 1.894 28.39-0.117 0-0.444-0.272-1.054-0.863-5.233-1.143-9.995-24.748-23.705-24.748-1.608 0-3.34 0.325-5.209 1.048 6.687 4.665 5.625 7.06 1.867 7.06-2.771 0-7.009-1.301-10.688-3.954-2.941-2.121-12.887-14.551-5.578-34.375 13.241-35.898-9.653-60.878-43.096-60.881-0.575 0-1.147 7e-3 -1.729 0.022 13.37 11.808 12.203 42.256 0.271 42.256-1.761 0-3.756-0.663-5.974-2.147-9.828-6.578 14.613-20.387-4.602-32.66-17.906-11.434 8.707-29.922 10.516-46.398 3.009-27.409-11.044-58.372-65.107-58.374z" fill="url(#c)"/>
 </g>
</svg>
