<?xml version="1.0" encoding="UTF-8" standalone="no"?>
<svg
   xmlns:dc="http://purl.org/dc/elements/1.1/"
   xmlns:cc="http://creativecommons.org/ns#"
   xmlns:rdf="http://www.w3.org/1999/02/22-rdf-syntax-ns#"
   xmlns:svg="http://www.w3.org/2000/svg"
   xmlns="http://www.w3.org/2000/svg"
   xmlns:sodipodi="http://sodipodi.sourceforge.net/DTD/sodipodi-0.dtd"
   xmlns:inkscape="http://www.inkscape.org/namespaces/inkscape"
   width="256"
   height="256"
   version="1.1"
   viewBox="0 0 256.00219 255.99943"
   xml:space="preserve"
   id="svg2"
   inkscape:version="0.91 r13725"
   sodipodi:docname="meteor.svg"><metadata
     id="metadata38"><rdf:RDF><cc:Work
         rdf:about=""><dc:format>image/svg+xml</dc:format><dc:type
           rdf:resource="http://purl.org/dc/dcmitype/StillImage" /><dc:title></dc:title></cc:Work></rdf:RDF></metadata><defs
     id="defs36"><filter
       y="-0.2"
       width="1.2"
       height="1.4"
       x="-0.1"
       inkscape:label="Fire"
       inkscape:menu="Protrusions"
       inkscape:menu-tooltip="Edges of object are on fire"
       style="color-interpolation-filters:sRGB;"
       id="filter4430"><feMorphology
         result="result1"
         radius="2.4"
         operator="dilate"
         id="feMorphology4432" /><feTurbulence
         baseFrequency="0.09 0.028"
         numOctaves="1"
         id="feTurbulence4434" /><feColorMatrix
         result="result2"
         values="2 0 0 0 0 0 2 0 0 0 0 0 0 0 0 0 0 0 1 0"
         id="feColorMatrix4436" /><feDisplacementMap
         result="result4"
         scale="10.319410319410318"
         yChannelSelector="G"
         xChannelSelector="R"
         in="result1"
         in2="result2"
         id="feDisplacementMap4438" /><feFlood
         result="result3"
         flood-opacity="1"
         flood-color="rgb(255,159,54)"
         id="feFlood4440" /><feMorphology
         radius="3.8"
         result="result7"
         in="result4"
         id="feMorphology4442" /><feGaussianBlur
         result="result7"
         in="result7"
         stdDeviation="2.4"
         id="feGaussianBlur4444" /><feComposite
         result="result5"
         in2="result4"
         in="result3"
         operator="in"
         id="feComposite4446" /><feComposite
         operator="out"
         in2="result7"
         id="feComposite4448" /><feOffset
         result="result6"
         dy="-7"
         dx="-4.5"
         id="feOffset4450" /><feGaussianBlur
         result="result7"
         stdDeviation="4.8"
         id="feGaussianBlur4452" /><feComposite
         in="SourceGraphic"
         in2="result6"
         id="feComposite4454" /><feComposite
         in2="result7"
         id="feComposite4456" /></filter></defs><sodipodi:namedview
     pagecolor="#ffffff"
     bordercolor="#666666"
     borderopacity="1"
     objecttolerance="10"
     gridtolerance="10"
     guidetolerance="10"
     inkscape:pageopacity="0"
     inkscape:pageshadow="2"
     inkscape:window-width="1920"
     inkscape:window-height="1022"
     id="namedview34"
     showgrid="false"
     inkscape:zoom="1"
     inkscape:cx="185.86871"
     inkscape:cy="58.845001"
     inkscape:window-x="0"
     inkscape:window-y="0"
     inkscape:window-maximized="1"
     inkscape:current-layer="svg2" /><g
     id="g4458"><g
       transform="matrix(1.102182,0,0,1.0700748,-2.1014897,3.1249393)"
       style="filter:url(#filter4430)"
       id="g4416"><path
         d="m 177.21679,186.99087 c -1.58247,1.80812 -5.46354,6.03345 -5.73671,6.24549 -0.18047,0.13992 -0.45854,0.40347 -0.61801,0.58541 -1.25054,1.42636 -12.62774,9.48377 -12.95534,9.17514 -0.10385,-0.0978 -0.17989,-0.0623 -0.16907,0.0788 0.0109,0.14129 -1.83735,1.48626 -4.10721,2.98905 -2.68831,1.77979 -6.11493,4.39677 -9.82944,7.5068 -7.32643,6.13408 -6.85211,5.75834 -7.04358,5.57795 -0.0909,-0.0856 -0.18025,-0.0137 -0.19862,0.15778 -0.0521,0.4924 -2.78986,2.74178 -6.30314,5.17892 -3.53209,2.45013 -5.88426,3.79266 -8.44591,4.82051 -2.24706,0.90174 -11.63216,3.13419 -11.94328,2.8411 -0.13563,-0.12779 -0.26143,-0.0923 -0.27953,0.0788 -0.0694,0.65609 -12.312537,1.96107 -17.02522,1.81476 -2.498571,-0.0776 -16.091937,-1.31018 -18.885517,-1.71283 -0.754529,-0.10877 -2.649322,-0.58333 -4.210632,-1.05466 -4.151511,-1.25341 -15.101947,-4.24148 -17.493463,-4.77363 -1.13459,-0.25243 -2.251951,-0.60585 -2.483022,-0.78538 -0.231088,-0.17954 -0.431499,-0.21939 -0.445333,-0.0886 -0.01389,0.13099 -0.916505,0.11634 -2.005911,-0.0323 -1.216344,-0.16602 -2.982841,-0.0705 -4.577757,0.24719 -1.576543,0.31407 -3.099835,0.39839 -3.876766,0.21457 -4.062394,-0.96059 -12.617725,-5.97474 -14.777142,-8.66055 -0.434323,-0.54021 -1.577426,-2.45846 -2.540159,-4.26271 -0.962726,-1.80427 -2.271508,-4.14949 -2.908335,-5.21178 -1.089565,-1.81721 -1.1747,-2.10341 -1.443315,-4.84973 -0.157021,-1.60522 -0.197196,-5.54921 -0.08925,-8.76445 -0.567341,-35.09047 2.138417,-47.79618 16.48968,-74.11256 6.374331,-11.6511 13.780146,-22.465763 28.391717,-41.461044 3.226583,-4.194558 6.540076,-8.513784 7.363332,-9.598308 5.637284,-7.426559 8.625424,-9.804753 18.641589,-14.836859 13.961994,-7.01422 39.174174,-19.249791 42.727604,-20.734814 6.01744,-2.515251 13.47687,-5.245214 15.66032,-5.731084 2.54257,-0.565861 4.30687,-0.65982 10.75003,-0.57241 6.18862,0.08381 8.03388,-0.04717 12.18935,-0.866538 5.36601,-1.058029 9.84798,-1.158789 14.53411,-0.327174 3.79558,0.673629 4.32926,0.983375 7.83035,4.544953 1.64972,1.678162 4.31218,4.484725 5.91655,6.236534 3.55967,3.886873 8.46805,8.240404 13.63893,12.097209 3.36333,2.508656 3.93087,3.012434 4.45645,3.955665 1.85832,3.335073 3.31609,12.102247 3.4747,20.899375 0.0963,5.336218 -0.28429,17.391726 -0.59087,18.715395 -0.13812,0.596249 -1.60439,3.814418 -3.25838,7.151621 -4.10621,8.284969 -6.9023,14.067939 -10.88399,22.510899 -6.05138,12.8317 -8.02898,17.10183 -10.20401,22.03281 -1.26973,2.87858 -2.23029,4.82298 -2.35931,4.77574 -0.11976,-0.0437 -0.28135,0.0252 -0.35924,0.15343 -0.0778,0.12824 -0.0305,0.24091 0.10522,0.25034 0.33036,0.0229 0.1908,0.40565 -1.76032,4.82921 -1.45723,3.30373 -1.72664,3.79567 -2.06837,3.77666 -0.33203,-0.0183 -0.34736,0.0229 -0.0988,0.26088 0.21795,0.2093 0.12886,0.6864 -0.34383,1.84263 -2.26236,5.53439 -3.16781,8.57955 -5.21529,17.54062 -0.60983,2.66889 -0.70877,2.90737 -2.4099,5.80942 -0.97573,1.66452 -1.97672,3.25809 -2.22462,3.54125 z"
         id="path4"
         inkscape:connector-curvature="0"
         style="fill:#ff6600" /><path
         d="m 178.88409,174.15953 c -1.52823,1.771 -5.2733,5.91403 -5.53564,6.12375 -0.17328,0.13855 -0.44103,0.39766 -0.59504,0.57587 -1.20765,1.39713 -12.12133,9.38976 -12.42755,9.10126 -0.0971,-0.0914 -0.16974,-0.0556 -0.16163,0.0795 0.008,0.13511 -1.76526,1.46831 -3.94105,2.96233 -2.57689,1.76956 -5.86675,4.3591 -9.43713,7.42851 -7.04208,6.05365 -6.58649,5.68237 -6.76547,5.51376 -0.0849,-0.0799 -0.17078,-0.009 -0.19067,0.15595 -0.0568,0.47353 -2.68768,2.6947 -6.05713,5.11381 -3.3874,2.43213 -5.63895,3.77441 -8.08449,4.81971 -2.14516,0.91699 -11.08195,3.27606 -11.37279,3.00206 -0.12677,-0.11954 -0.24664,-0.0824 -0.26637,0.0822 -0.0757,0.63092 -11.70992,2.1666 -16.178682,2.13546 -2.36931,-0.016 -15.246888,-0.88411 -17.890662,-1.20505 -0.71418,-0.0868 -2.504639,-0.49815 -3.978817,-0.91413 -3.919742,-1.10607 -14.263822,-3.71867 -16.524724,-4.17374 -1.072578,-0.21572 -2.127351,-0.52892 -2.343838,-0.69575 -0.216531,-0.16694 -0.406096,-0.20037 -0.421155,-0.0746 -0.01501,0.12595 -0.871211,0.13282 -1.902444,0.016 -1.151444,-0.13099 -2.828745,0.002 -4.346424,0.34327 -1.500335,0.33782 -2.946664,0.45411 -3.680976,0.29585 -3.83952,-0.82729 -11.881099,-5.43863 -13.889857,-7.96529 -0.403969,-0.5081 -1.459715,-2.32161 -2.346107,-4.02997 -0.886393,-1.70837 -2.092851,-3.92757 -2.681178,-4.93165 -1.006435,-1.7178 -1.083013,-1.99042 -1.29687,-4.6185 -0.124979,-1.53609 -0.104171,-5.3184 0.04618,-8.4049 -0.01399,-33.6461 2.743392,-45.8964 16.749901,-71.47169 6.221316,-11.32369 13.408755,-21.869051 27.553781,-40.427673 3.123594,-4.098172 6.331663,-8.318218 7.128872,-9.377598 5.458907,-7.254304 8.329347,-9.604904 17.906912,-14.664558 13.350568,-7.052394 37.451228,-19.372902 40.843938,-20.880253 5.7462,-2.552326 12.86364,-5.343775 14.94204,-5.860148 2.42049,-0.601677 4.09573,-0.73278 10.20691,-0.798365 5.86974,-0.06297 7.62233,-0.231566 11.57661,-1.113836 5.10648,-1.13921 9.35992,-1.339906 13.79299,-0.650843 3.5908,0.558143 4.09238,0.842928 7.36058,4.178047 1.54004,1.571517 4.0238,4.201772 5.51968,5.844966 3.31898,3.645851 7.91036,7.707955 12.75825,11.287601 3.15328,2.328387 3.68414,2.798456 4.16859,3.690963 1.71316,3.156041 2.96506,11.531784 2.98425,19.966586 0.0112,5.116332 -0.52957,16.688947 -0.84021,17.965763 -0.14004,0.575135 -1.57906,3.696092 -3.19801,6.935466 -4.01935,8.042364 -6.7582,13.654142 -10.66142,21.844392 -5.93262,12.44859 -7.87242,16.59024 -10.00975,21.37095 -1.2476,2.7907 -2.18787,4.67794 -2.30956,4.63564 -0.11289,-0.0392 -0.2673,0.0307 -0.3431,0.15549 -0.0758,0.12481 -0.0326,0.2317 0.0961,0.23777 0.31306,0.0137 0.17493,0.38468 -1.74216,4.67303 -1.43178,3.20276 -1.69476,3.68096 -2.01863,3.67059 -0.31471,-0.009 -0.32988,0.0291 -0.0977,0.25249 0.20359,0.1958 0.11194,0.65543 -0.35372,1.77544 -2.22893,5.36111 -3.13343,8.30313 -5.20941,16.94575 -0.61842,2.57415 -0.71587,2.80524 -2.37298,5.62829 -0.95047,1.61926 -1.92398,3.17106 -2.16336,3.44838 z"
         id="path10"
         inkscape:connector-curvature="0"
         style="fill:#ff0000" /><path
         d="M 37.668056,130.97079 57.227481,92.399305 82.217735,60.319022 177.18233,36.475867 l 28.20865,33.442127 4.5742,26.970433 -29.31361,63.717223 -3.29469,12.69048 -6.9726,7.85227 -33.05601,24.48168 -11.00998,5.42204 -17.59689,2.6503 -30.153607,-2.99824 -31.45403,-9.03059 -14.378278,-13.54555 -1.620399,-42.73009 z"
         id="path14"
         inkscape:connector-curvature="0"
         style="fill:#8b8b8b;fill-rule:evenodd" /><g
         transform="matrix(0.75536296,-1.2441252,0.9987689,0.94092447,9.3874837,168.96925)"
         id="g16"
         style="clip-rule:evenodd;fill-rule:evenodd"><path
           d="m 124.2,47.25 c 1.434,-0.267 2.233,-0.45 2.399,-0.55 0.167,-0.067 0.551,-0.467 1.15,-1.2 l 9.2,0.15 c -0.3,0.267 -1.517,0.617 -3.65,1.05 -2.3,0.466 -4.017,0.65 -5.149,0.55 l -0.2,-1.3 c -0.267,0.3 -0.917,0.733 -1.95,1.3 l -1.8,0 z M 114.95,44 c -0.434,-0.967 -1.084,-1.817 -1.95,-2.55 -1.1,-0.767 -1.95,-1.367 -2.55,-1.8 -1.134,-0.833 -1.917,-1.467 -2.351,-1.9 0.733,0.033 1.517,0 2.351,-0.1 1,0.1 2.416,0.934 4.25,2.5 1.733,1.533 2.866,2.85 3.399,3.95 -0.233,0.233 -0.383,0.4 -0.449,0.5 -0.101,0.133 -0.15,0.4 -0.15,0.8 0,0.5 0.2,0.95 0.6,1.35 -0.6,-0.3 -1.433,-0.733 -2.5,-1.3 -0.23,-0.133 -0.45,-0.617 -0.65,-1.45 z M 23.6,27.9 l -4.95,-4 c -0.167,-0.467 -0.533,-1.066 -1.1,-1.8 -0.7,-0.867 -1.1,-1.4 -1.2,-1.6 l -0.9,-1.05 c 0,-0.3 -0.15,-0.55 -0.45,-0.75 -0.3,-0.233 -0.667,-0.35 -1.1,-0.35 0.233,-1.067 0.983,-2.95 2.25,-5.65 1,-2.2 1.434,-3.9 1.3,-5.1 L 20.8,4.55 20.1,6.1 c -0.467,2.233 -1.5,6.35 -3.1,12.35 0,1.533 0.5,2.816 1.5,3.85 2.767,2.9 4.483,4.784 5.15,5.65 L 23.6,27.9 Z M 33.8,43 33.45,43 31.75,41.95 C 31.717,41.916 30.883,41.133 29.25,39.6 28.217,38.666 27.567,37.633 27.3,36.5 26.767,35.9 26.334,34.867 26,33.4 24.967,31.834 24.633,31.05 25,31.05 l 1.95,0.2 0,0.05 c 0.033,2.934 1.3,5.45 3.8,7.55 2.2,1.833 4.817,2.867 7.85,3.1 0.4,0.033 0.817,0.05 1.25,0.05 -0.233,0.233 -0.883,0.417 -1.95,0.55 -0.167,0.034 -0.316,0.067 -0.45,0.1 C 35.683,42.883 34.467,43 33.8,43 Z m 41.15,12.5 c -0.534,0.4 -1.25,0.6 -2.15,0.6 -1.367,0.134 -2.683,0.351 -3.95,0.65 -1.1,0.233 -2.434,0.4 -4,0.5 -1.2,0 -2.9,-0.3 -5.1,-0.9 -2.167,-0.433 -5.017,-0.683 -8.55,-0.75 l -1.6,0 C 47.033,54.433 45.5,53.683 45,53.35 43.8,52.583 42,51.05 39.6,48.75 L 39.5,48.6 39.4,48.25 c 2.7,0.733 5.117,1.767 7.25,3.1 1.867,1.133 3.184,1.75 3.95,1.85 2.2,0.267 8.566,0.466 19.1,0.6 l 4.55,-0.05 C 74.25,53.05 74.233,52.6 74.2,52.4 74.133,52.3 73.916,51.834 73.55,51 73.184,50.166 72.967,49.617 72.9,49.35 l 0.45,0.95 c 0.333,0.667 0.617,1.367 0.85,2.1 0.733,1.367 0.984,2.4 0.75,3.1 z m 7.4,-1.95 c -3.366,-1.8 -5.416,-3.383 -6.149,-4.75 l 0.7,-0.7 c 0.066,0 0.899,0.367 2.5,1.1 1.666,0.733 2.983,1.216 3.949,1.45 1.767,0.4 4.084,0.6 6.95,0.6 1.233,0 3.917,-0.717 8.05,-2.15 3.767,-1.333 6.067,-2.25 6.9,-2.75 -0.833,1.767 -1.816,2.933 -2.95,3.5 -1.8,0.566 -3.55,1.217 -5.25,1.95 -0.666,0.2 -1.649,0.383 -2.95,0.55 -1.3,0.167 -2.399,0.267 -3.3,0.3 -1.2,-0.033 -2.333,-0.05 -3.399,-0.05 -2.035,-0.033 -3.717,0.283 -5.051,0.95 z"
           id="path18"
           inkscape:connector-curvature="0"
           style="fill:#d2c8ba" /><path
           d="m 72.7,19.7 -0.8,0.9 c 0.233,0.133 0.35,0.233 0.35,0.3 l 2.7,0.25 c 0.6,0 0.983,-0.133 1.149,-0.4 0.134,-0.2 0.317,-0.55 0.551,-1.05 -0.5,-0.667 -1.067,-1.217 -1.7,-1.65 l 0,-2.1 c -5.667,0.3 -9.467,0.85 -11.4,1.65 -1.133,0.467 -1.7,1.133 -1.7,2 0,0.4 0.083,0.65 0.25,0.75 0.167,0.066 0.25,0.117 0.25,0.15 L 65,20.75 c 0.1,0 2.667,-0.35 7.7,-1.05 z m 48.15,27.7 3.351,-0.15 1.8,0 -0.35,0.2 -4.8,-0.05 z m -2.75,-3.3 c -0.533,-1.1 -1.666,-2.417 -3.399,-3.95 -1.834,-1.566 -3.25,-2.4 -4.25,-2.5 l 0.45,-0.1 c 1,0.2 1.899,-0.017 2.699,-0.65 0.767,-0.6 1.217,-1.367 1.351,-2.3 l -2,-0.5 c -0.8,-1.2 -1.967,-2.25 -3.5,-3.15 -1.967,-1.133 -4.134,-1.7 -6.5,-1.7 -0.934,0 -1.667,0.383 -2.2,1.15 -0.366,0.5 -0.55,0.917 -0.55,1.25 0,1.067 0.633,2.083 1.899,3.05 0.167,0.133 1.45,0.933 3.851,2.4 0.5,3.066 0.35,6.017 -0.45,8.85 -0.6,2.066 -1.366,3.7 -2.3,4.9 -1.934,0.533 -3.983,0.85 -6.15,0.95 1.7,-0.733 3.45,-1.383 5.25,-1.95 1.134,-0.567 2.117,-1.733 2.95,-3.5 -0.833,0.5 -3.134,1.417 -6.9,2.75 -4.133,1.433 -6.816,2.15 -8.05,2.15 -2.866,0 -5.184,-0.2 -6.95,-0.6 -0.966,-0.233 -2.283,-0.717 -3.949,-1.45 -1.601,-0.733 -2.434,-1.1 -2.5,-1.1 0,-0.833 -0.301,-1.55 -0.9,-2.15 -0.6,-0.6 -1.317,-0.9 -2.15,-0.9 0.066,-0.233 -0.233,-0.283 -0.9,-0.15 -0.667,0.133 -1,0.35 -1,0.65 0.1,0.2 0.25,0.35 0.45,0.45 l 0.55,-0.15 -0.8,0.7 c -0.033,0 -0.05,0.017 -0.05,0.05 -0.267,0.233 -0.483,0.117 -0.65,-0.35 l 0.249,0.75 -0.75,0.95 c 0.367,0.466 0.683,0.783 0.95,0.95 0.4,0.267 0.917,0.417 1.55,0.45 0.7,0.5 1.983,2.333 3.85,5.5 l -2.35,0.65 c 0.233,-0.7 -0.017,-1.733 -0.75,-3.1 -0.233,-0.733 -0.517,-1.433 -0.85,-2.1 l -0.45,-0.95 c 0.067,0.267 0.283,0.816 0.65,1.65 0.367,0.834 0.583,1.3 0.65,1.4 0.033,0.2 0.05,0.65 0.05,1.35 l -4.55,0.05 c -10.534,-0.133 -16.9,-0.333 -19.1,-0.6 -0.767,-0.1 -2.083,-0.717 -3.95,-1.85 -2.133,-1.333 -4.55,-2.367 -7.25,-3.1 l -0.9,-0.9 c 0.533,-0.4 1.4,-1.35 2.6,-2.85 1.233,-1.533 1.883,-2.517 1.95,-2.95 l -0.45,0 -0.1,-0.45 1.5,-0.8 -0.05,0.6 c 1.6,0.033 2.617,-0.033 3.05,-0.2 0.767,-0.333 1.083,-1.15 0.95,-2.45 l -0.55,0.05 c -0.3,0.034 -0.9,0.317 -1.8,0.85 -0.833,0.467 -1.367,0.8 -1.6,1 l -2.5,1 -2.05,0.8 0.4,0.05 c -0.434,0 -0.85,-0.017 -1.25,-0.05 -3.033,-0.233 -5.65,-1.267 -7.85,-3.1 -2.5,-2.1 -3.767,-4.617 -3.8,-7.55 l 0,-0.05 -1.95,-0.2 c -0.633,-0.9 -1.1,-1.95 -1.4,-3.15 l 0.05,0.05 c -0.667,-0.867 -2.383,-2.75 -5.15,-5.65 -1,-1.033 -1.5,-2.316 -1.5,-3.85 1.6,-6 2.633,-10.117 3.1,-12.35 0.3,-0.333 0.683,-0.833 1.15,-1.5 0.3,-0.367 0.583,-0.633 0.85,-0.8 l 0.1,-0.1 0,-0.05 c 0.033,0 0.066,-0.017 0.1,-0.05 l 0.15,-0.15 c 7.2,-1.3 11.55,-2.067 13.05,-2.3 C 40.868,0.383 46.118,0 51.251,0 c 5.467,0 11.767,0.433 18.9,1.3 3.733,0.467 8.234,1.05 13.5,1.75 0.633,0.233 0.399,0.383 -0.7,0.45 -1.533,0.067 -2.3,0.65 -2.3,1.75 0,0.4 0.116,0.667 0.35,0.8 0.1,0.067 0.2,0.1 0.3,0.1 l 1.6,0.05 c 1.3,0 2.333,-0.133 3.1,-0.4 0.5,-0.167 1,-0.466 1.5,-0.9 l -0.5,-0.7 -2.95,-1.15 c 3.467,0.167 7.5,1.767 12.101,4.8 2.866,1.9 8.583,5.717 17.149,11.45 5.667,3.434 11.566,7.684 17.7,12.75 1.667,1.133 3.6,3.417 5.8,6.85 2.367,3.667 3.934,5.833 4.7,6.5 -2.1,0.8 -3.566,1.233 -4.4,1.3 -2.267,0.133 -5.233,0.367 -8.899,0.7 l -0.05,-0.15 c 1.133,0.1 2.85,-0.083 5.149,-0.55 2.134,-0.434 3.351,-0.784 3.65,-1.05 l -9.2,-0.15 0.2,-0.55 -7.35,-2.35 -2.5,1.5 z m 2.35,3.3 -3.601,-0.1 0.45,0.9 c -0.566,-1.034 -1.017,-1.8 -1.35,-2.3 l -0.351,-0.45 c 1.067,0.566 1.9,1 2.5,1.3 0.167,0.067 0.317,0.133 0.45,0.2 0.67,0.267 1.3,0.417 1.9,0.45 z m -3.3,-8.15 0,-1.95 -1.9,0 0,1.95 1.9,0 z m -6.7,0.4 c 0.6,0.434 1.45,1.033 2.55,1.8 0.866,0.733 1.517,1.583 1.95,2.55 -0.2,-0.4 -0.851,-1.1 -1.95,-2.1 -0.93,-0.867 -1.78,-1.617 -2.55,-2.25 z m -1.95,0 0.6,0.35 0.601,0.45 -1.2,-0.8 z m 34.4,7.05 -0.101,-0.15 0.75,0.85 -0.65,-0.7 z M 89.6,17.65 c -0.366,0.434 -0.716,0.684 -1.05,0.75 0.033,0.3 0.134,0.6 0.3,0.9 0.167,0.267 0.25,0.434 0.25,0.5 1.367,0 2.317,-0.183 2.851,-0.55 -1.135,-1.233 -1.918,-1.767 -2.351,-1.6 z m -2.7,7.55 0,-2.05 -4.25,0 c 0.666,-0.2 1.1,-0.383 1.3,-0.55 l -1,-1.65 c -1.434,0.3 -2.467,0.667 -3.101,1.1 -0.333,0.233 -0.649,0.617 -0.949,1.15 l 1.949,0.2 c 0.301,0 0.634,-0.033 1,-0.1 l 0,2.15 5.051,0 0,-0.2 0.649,0.35 c 0.467,0.066 1,0.05 1.601,-0.05 0.566,-0.066 0.933,-0.167 1.1,-0.3 l 0,-1.65 -1.05,0.3 C 88.566,24 87.983,24.25 87.45,24.65 87.184,24.917 87,25.1 86.9,25.2 Z m 4.5,1.05 c 0.433,0.033 0.833,0.033 1.199,0 L 90.95,25.6 c -0.066,0.2 -0.184,0.333 -0.351,0.4 10e-4,0.1 0.267,0.183 0.801,0.25 z m -10.35,9.4 c 0,-0.3 -0.149,-0.983 -0.45,-2.05 -2.433,0.833 -3.767,1.417 -4,1.75 0.134,0.267 0.117,0.517 -0.05,0.75 0.3,0.133 0.45,0.25 0.45,0.35 l 0.95,0.15 c 0.733,0.1 1.3,0.15 1.7,0.15 0.533,0 0.966,-0.167 1.3,-0.5 0.1,0.867 0.399,1.333 0.899,1.4 0.233,-0.066 0.4,-0.316 0.5,-0.75 -0.033,-0.267 -0.267,-0.55 -0.699,-0.85 l -0.6,-0.4 z m 29.6,49.4 c 0.399,0.066 0.966,0.101 1.699,0.101 0.733,-0.034 1.334,-0.117 1.801,-0.25 -0.334,0.133 -0.867,0.233 -1.601,0.3 -0.733,0.033 -1.366,0.017 -1.899,-0.05 l 0,-0.101 z m -1.3,-12.75 -0.6,-3.1 c -0.1,-1.3 -0.066,-2.167 0.1,-2.601 l 0.601,-0.05 0.149,0 c 0.301,0.367 0.617,0.967 0.95,1.8 0.3,0.834 0.45,1.417 0.45,1.75 0,0.835 -0.55,1.568 -1.65,2.201 z M 90.8,52.65 c -1.533,0.6 -2.55,0.967 -3.05,1.1 -0.634,0.167 -1.866,0.25 -3.7,0.25 -0.833,0 -1.399,-0.15 -1.7,-0.45 1.334,-0.667 3.017,-0.983 5.051,-0.95 1.066,0 2.199,0.017 3.399,0.05 z m 31.15,24.6 0.1,-0.7 -0.05,0.4 -0.05,0.3 z M 57.2,3.6 C 57,3.4 56.9,3.25 56.9,3.15 c -0.566,-0.033 -1.066,0 -1.5,0.1 -0.7,0.167 -1.717,0.533 -3.05,1.1 l 3.1,0.3 c 0.5,0 0.867,-0.117 1.1,-0.35 0.167,-0.133 0.383,-0.367 0.65,-0.7 z M 48.35,8.7 46.7,8.05 c -0.1,0 -0.684,0.25 -1.75,0.75 -1,0.434 -1.65,0.717 -1.95,0.85 l 1.5,0.2 C 45.933,9.75 47.217,9.367 48.35,8.7 Z M 45,3.35 C 44.5,3.083 44.017,2.95 43.55,2.95 42.117,3.15 40.7,3.483 39.3,3.95 36.533,4.883 35.15,6 35.15,7.3 c 0,2.2 2.067,2.7 6.2,1.5 C 45.45,7.633 47.567,6.383 47.7,5.05 46.067,4.017 45.167,3.45 45,3.35 Z m 17,28.5 c 0.333,0.6 0.533,0.95 0.6,1.05 0.233,0.3 0.5,0.45 0.8,0.45 0.867,0 1.417,-0.2 1.65,-0.6 0.233,-0.433 -0.783,-1.367 -3.05,-2.8 l -0.05,-1 c -0.9,-0.233 -1.684,-0.35 -2.35,-0.35 -1.233,0 -2.517,0.3 -3.85,0.9 -1.667,0.733 -2.5,1.667 -2.5,2.8 0,0.534 0.15,1.067 0.45,1.6 0.533,0.934 1.383,1.4 2.55,1.4 1.1,0 2.25,-0.316 3.45,-0.95 1.333,-0.733 2.1,-1.567 2.3,-2.5 z m -3.8,12.4 c -1.534,0.467 -2.3,1.033 -2.3,1.7 0,0.667 0.767,1.233 2.3,1.7 1.5,0.467 3.316,0.7 5.45,0.7 2.134,0 3.967,-0.233 5.5,-0.7 1.5,-0.467 2.25,-1.033 2.25,-1.7 0,-0.667 -0.75,-1.233 -2.25,-1.7 -1.533,-0.467 -3.367,-0.7 -5.5,-0.7 -2.133,0 -3.95,0.233 -5.45,0.7 z M 32.6,25.3 c -0.4,0.267 -0.667,0.45 -0.8,0.55 -0.267,0.233 -0.4,0.55 -0.4,0.95 0,0.667 0.483,0.767 1.45,0.3 2.1,-0.167 3.65,-0.583 4.65,-1.25 0.667,-0.5 1,-1.033 1,-1.6 0,-0.433 -0.05,-0.783 -0.15,-1.05 C 38.217,22.867 38.1,22.583 38,22.35 l -1.1,0 c 0,-1.3 -0.566,-2.617 -1.7,-3.95 -1.367,-1.633 -3.083,-2.45 -5.15,-2.45 -1.8,0 -3.1,0.2 -3.9,0.6 -0.733,0.4 -1.1,1 -1.1,1.8 0,0.066 0.233,1.017 0.7,2.85 0.433,2.033 0.65,3.566 0.65,4.6 2.833,-0.033 4.9,-0.2 6.2,-0.5 z M 12.35,60.35 7.7,49.3 c 0.7,1.267 1.583,3.2 2.65,5.8 0.933,2.266 1.6,4.016 2,5.25 z m 32.75,36.3 0.4,0.149 3.05,1.101 2.15,0.8 c -2.934,-0.967 -5.383,-1.851 -7.35,-2.65 -1.867,-0.733 -3.567,-1.55 -5.1,-2.45 1.567,0.8 3.15,1.55 4.75,2.25 l 2.1,0.8 z m 3.5,-2.45 c 0.133,-2.167 0.467,-4.934 1,-8.3 0.566,-3.134 0.867,-4.917 0.9,-5.351 0.133,-0.5 0.45,-1.283 0.95,-2.35 0.5,-1.067 0.8,-1.75 0.9,-2.05 0.533,-0.767 1.633,-2.117 3.3,-4.051 2,-2.366 3.533,-3.983 4.6,-4.85 l -0.5,1.3 c -0.333,0.967 -0.5,1.65 -0.5,2.05 0,0.267 0.1,2.517 0.3,6.75 -0.066,4.101 -0.816,6.15 -2.25,6.15 -1.566,0 -3.3,1.217 -5.2,3.65 -1.833,2.366 -2.75,4.433 -2.75,6.199 0,0.4 0.066,0.617 0.2,0.65 0.067,0 0.184,-0.017 0.35,-0.05 0.233,-0.033 -0.183,0.066 -1.25,0.3 L 48.6,94.2 Z M 34.9,51.35 c 0.967,-2.2 2.5,-3.117 4.6,-2.75 l 0.1,0.15 c -0.4,4.767 -0.75,7.884 -1.05,9.35 -0.433,1.9 -1.167,2.851 -2.2,2.851 -0.733,0 -1.317,-0.384 -1.75,-1.15 -0.434,-0.767 -0.65,-1.85 -0.65,-3.25 0,-0.366 0.017,-0.733 0.05,-1.1 0.067,-1.367 0.317,-2.6 0.75,-3.7 0.033,-0.134 0.083,-0.268 0.15,-0.401 z M 33.8,43 33.55,43.1 33.45,43 33.8,43 Z m -14.2,1.5 c -0.9,-1 -1.35,-3.183 -1.35,-6.55 0,-3.1 1.9,-5.383 5.7,-6.85 l 0,8.3 c 0.033,2 -0.034,3.333 -0.2,4 -0.333,1.133 -1.067,1.7 -2.2,1.7 -0.933,0 -1.583,-0.2 -1.95,-0.6 z m 21.35,10.1 c 0.867,0 1.35,0.15 1.45,0.45 l -0.15,0.75 c -0.467,0.566 -1,0.816 -1.6,0.75 l 0.3,-1.95 z m 18.65,1.75 c -2,-0.233 -4.8,-0.483 -8.4,-0.75 3.533,0.067 6.383,0.317 8.55,0.75 l -0.15,0 z m 5.45,1 -0.2,-0.1 c 1.566,-0.1 2.9,-0.267 4,-0.5 1.267,-0.3 2.583,-0.517 3.95,-0.65 -0.267,0.267 -0.833,0.667 -1.7,1.2 -0.8,0.467 -1.267,0.7 -1.4,0.7 -0.467,0 -2.017,-0.217 -4.65,-0.65 z m 0.9,34.5 c -0.7,0.9 -1.75,3.834 -3.15,8.801 l -0.75,0.6 c 0.833,-3 1.4,-4.983 1.7,-5.95 0.5,-1.467 1.233,-2.616 2.2,-3.45 z M 64.25,62.6 64.1,64.15 c -0.1,0.533 -0.333,0.966 -0.7,1.3 -0.333,0.2 -0.533,0.316 -0.6,0.35 -0.2,-0.033 -0.35,-0.133 -0.45,-0.3 l -0.1,-0.25 c 0,-0.267 0.333,-0.783 1,-1.55 0.333,-0.4 0.667,-0.766 1,-1.1 z"
           id="path20"
           inkscape:connector-curvature="0"
           style="fill:#b3aa9e" /><path
           d="m 128.2,47.4 c 3.666,-0.333 6.633,-0.566 8.899,-0.7 0.834,-0.067 2.301,-0.5 4.4,-1.3 l 1.3,1.15 c -1.767,0.6 -3.333,1.133 -4.7,1.6 -2.633,0.833 -4.8,1.367 -6.5,1.6 -1.333,0.167 -3.267,0.333 -5.8,0.5 -2.066,0.1 -3.483,0.15 -4.25,0.15 -3.366,0 -5.517,-0.983 -6.45,-2.95 -1.466,-3.2 -3.267,-5.534 -5.399,-7 L 109.1,40 c -0.199,-0.233 -0.383,-0.533 -0.55,-0.9 l -0.05,0.55 c -0.533,-0.367 -0.983,-0.717 -1.35,-1.05 l -0.25,-1.1 1.199,0.25 c 0.434,0.433 1.217,1.067 2.351,1.9 0.767,0.633 1.616,1.383 2.55,2.25 1.1,1 1.75,1.7 1.95,2.1 0.2,0.833 0.416,1.317 0.649,1.45 l 0.351,0.45 c 0.333,0.5 0.783,1.267 1.35,2.3 l -0.45,-0.9 3.601,0.1 0.399,0 4.801,0.05 c -0.467,0.267 -1.051,0.65 -1.75,1.15 l 0.449,0.5 c 0.167,0.1 0.301,0.183 0.4,0.25 0.1,0.066 0.35,0.1 0.75,0.1 1.03,0 1.93,-0.683 2.7,-2.05 z M 20.8,4.55 22.1,3.8 C 21.833,3.967 21.55,4.234 21.25,4.6 20.783,5.267 20.4,5.767 20.1,6.1 l 0.7,-1.55 z m -2.15,19.35 4.95,4 c 0.3,1.2 0.767,2.25 1.4,3.15 -0.367,0 -0.033,0.784 1,2.35 0.333,1.467 0.767,2.5 1.3,3.1 0.267,1.133 0.917,2.167 1.95,3.1 1.633,1.533 2.467,2.316 2.5,2.35 -0.833,-0.367 -1.9,-1.233 -3.2,-2.6 -1.4,-1.467 -2.267,-2.684 -2.6,-3.65 L 25.6,34.85 c 0,0.767 0.5,4.7 1.5,11.8 0,1.7 -0.367,2.917 -1.1,3.65 -0.433,0.434 -0.883,0.65 -1.35,0.65 -0.933,0 -2.1,-0.95 -3.5,-2.85 -0.2,-0.267 -1.35,-2.033 -3.45,-5.3 l -0.35,-1.3 0.2,5.25 c 0,2.633 -0.283,4.467 -0.85,5.5 -1.034,1.9 -1.767,3.634 -2.2,5.2 l -0.5,0.2 c -0.367,-0.4 -0.667,-1.084 -0.9,-2.051 -0.2,-0.966 -0.9,-2.083 -2.1,-3.35 l 2.7,-3.3 c -0.567,-0.567 -0.917,-0.95 -1.05,-1.15 -0.467,-0.633 -0.7,-1.316 -0.7,-2.05 0,-0.7 0.316,-2.083 0.95,-4.15 1.133,-3.633 1.85,-6.033 2.15,-7.2 -1.3,0.567 -2.383,1.017 -3.25,1.35 -1.6,0.633 -2.667,0.967 -3.2,1 -1.233,-3 0.7,-5.283 5.8,-6.85 2.6,-0.767 5.467,-1.316 8.6,-1.65 -0.2,-0.3 -0.817,-0.9 -1.85,-1.8 -1.167,-1.034 -1.95,-1.767 -2.35,-2.2 L 18.65,23.9 Z M 39.5,48.6 c -2.1,-0.367 -3.633,0.55 -4.6,2.75 0.267,-1.067 0.467,-1.817 0.6,-2.25 1.433,-1.367 2.5,-2.317 3.2,-2.85 0.433,-0.4 1.733,-1.967 3.9,-4.7 l 0.45,0 c -0.066,0.434 -0.716,1.417 -1.95,2.95 -1.2,1.5 -2.067,2.45 -2.6,2.85 l 0.9,0.9 0.1,0.35 z m 12.85,27.55 c 0.7,-5.167 3.233,-8.934 7.6,-11.301 2.6,-1.433 4.017,-2.233 4.25,-2.399 1.267,-1 1.9,-2.267 1.9,-3.8 0,-0.434 -0.1,-0.717 -0.3,-0.851 -0.267,-0.133 -0.517,-0.283 -0.75,-0.45 2.633,0.434 4.183,0.651 4.65,0.651 0.133,0 0.6,-0.233 1.4,-0.7 0.867,-0.533 1.433,-0.934 1.7,-1.2 0.9,0 1.617,-0.199 2.15,-0.6 l 2.35,-0.65 0.1,0.75 c -0.467,1.067 -1.517,1.784 -3.15,2.15 -1.633,0.134 -2.517,0.217 -2.65,0.25 0.167,0.3 1.467,1.35 3.9,3.15 2.333,2.199 3.5,4.6 3.5,7.199 0,1 -0.816,1.917 -2.45,2.75 -1.966,1.034 -3.267,2.184 -3.9,3.45 -0.333,0.634 -0.617,2.851 -0.85,6.65 -0.267,3.733 -0.533,5.833 -0.8,6.3 -0.533,0.934 -1.867,1.333 -4,1.2 l -3.65,-0.15 c -0.867,0.934 -1.45,3.033 -1.75,6.3 -0.167,1.767 -0.383,4.317 -0.65,7.65 l -0.35,0.65 -4.1,-2.101 -0.1,-0.1 -0.65,-0.5 c -1.367,-0.867 -2.717,-1.884 -4.05,-3.05 -1.4,-1.233 -2.417,-2.284 -3.05,-3.15 1.067,-0.233 1.483,-0.333 1.25,-0.3 -0.167,0.033 -0.283,0.05 -0.35,0.05 -0.133,-0.033 -0.2,-0.25 -0.2,-0.65 0,-1.767 0.917,-3.833 2.75,-6.199 1.9,-2.434 3.633,-3.65 5.2,-3.65 1.434,0 2.184,-2.05 2.25,-6.15 -0.2,-4.233 -0.3,-6.483 -0.3,-6.75 0,-0.399 0.167,-1.083 0.5,-2.05 l 0.5,-1.3 c -1.067,0.866 -2.6,2.483 -4.6,4.85 -1.667,1.932 -2.767,3.283 -3.3,4.049 z m -1.85,4.4 c -0.033,0.434 -0.333,2.217 -0.9,5.351 -0.533,3.366 -0.867,6.133 -1,8.3 -0.167,-0.467 -0.317,-1.851 -0.45,-4.15 -0.133,-1.866 -0.2,-3.233 -0.2,-4.1 0,-0.135 0.85,-1.934 2.55,-5.401 z m -5.4,16.1 -2.1,-0.8 c 0.367,-4 0.1,-6.716 -0.8,-8.149 -0.633,-1 -1.784,-1.517 -3.45,-1.55 C 36.783,86.083 35.533,85.9 35,85.6 c -1.167,-0.733 -1.75,-2.483 -1.75,-5.25 0,-0.566 0.25,-1 0.75,-1.3 0.867,-0.566 2.6,-0.866 5.2,-0.899 l 0.15,-3.4 c 0,-0.667 -0.067,-2.6 -0.2,-5.8 -0.167,-3.634 -0.333,-6.434 -0.5,-8.4 l -0.3,-0.75 c -0.233,3.467 -0.367,5.533 -0.4,6.2 -0.034,1.833 -0.6,3.45 -1.7,4.85 -1.067,1.101 -1.6,1.667 -1.6,1.7 0,0.4 -0.05,0.634 -0.15,0.7 -0.133,0 -0.267,0.033 -0.4,0.1 -1.167,-0.3 -2.6,-1.3 -4.3,-3 -2.6,-2.533 -3.9,-5.533 -3.9,-9 0,-1.866 0.483,-3.35 1.45,-4.449 0.867,-0.967 2.283,-1.801 4.25,-2.5 0.066,0.633 0.117,1.367 0.15,2.2 0.1,0.634 0.417,1.351 0.95,2.15 0.466,-0.4 0.9,-1.5 1.3,-3.3 -0.033,0.366 -0.05,0.733 -0.05,1.1 0,1.4 0.216,2.483 0.65,3.25 0.433,0.767 1.017,1.15 1.75,1.15 1.033,0 1.767,-0.95 2.2,-2.851 0.3,-1.466 0.65,-4.583 1.05,-9.35 2.4,2.3 4.2,3.833 5.4,4.6 0.5,0.333 2.033,1.083 4.6,2.25 l 0.15,0.5 L 48.6,55.9 c 0,0.1 0.183,1.233 0.55,3.399 0.367,2.033 0.55,3.467 0.55,4.3 0,2.567 -0.684,5.15 -2.05,7.75 -1.367,2.601 -2.05,4.467 -2.05,5.601 0,0.333 0.15,1.633 0.45,3.899 0.267,2.233 0.4,3.517 0.4,3.851 0,1.533 -0.517,4.149 -1.55,7.85 0,1 0.067,2.367 0.2,4.1 z m 56.95,-8.1 c -0.066,3.033 -1.116,4.55 -3.149,4.55 -1,0 -1.784,-0.25 -2.351,-0.75 -0.399,-0.366 -0.75,-0.966 -1.05,-1.8 0.1,-0.833 0.95,-2.5 2.55,-5 1.667,-2.633 3.066,-4.399 4.2,-5.3 l 0.1,4.1 c 0,1.667 -0.1,3.067 -0.3,4.2 z m 19.8,-10.9 0.05,-0.35 0.05,-0.05 0.05,-0.3 c 0.134,-0.334 0.35,-0.816 0.65,-1.45 0.399,-0.4 0.6,-3 0.6,-7.8 0,0.033 0.583,1.517 1.75,4.45 0.566,1.466 0.85,5.066 0.85,10.8 0,1.566 -0.25,2.783 -0.75,3.649 -0.466,0.801 -1.083,1.184 -1.85,1.15 l -0.65,-0.25 c -0.233,-0.8 -0.416,-1.684 -0.55,-2.65 l -0.2,-7.199 z m -11,-13.9 c 0.2,-0.333 0.417,-0.65 0.65,-0.95 1.167,-1.5 1.866,-2.467 2.1,-2.899 0.101,0.533 0.45,1.767 1.051,3.699 0.566,1.867 0.85,2.851 0.85,2.95 l 0.05,0.25 c -0.333,3.101 -0.934,5.884 -1.8,8.351 -0.8,2.366 -1.634,3.85 -2.5,4.449 -0.467,-0.366 -0.9,-1.649 -1.3,-3.85 -0.367,-2.167 -0.566,-3.316 -0.601,-3.45 1.101,-0.633 1.65,-1.366 1.65,-2.2 0,-0.333 -0.15,-0.916 -0.45,-1.75 -0.333,-0.833 -0.649,-1.433 -0.95,-1.8 0.034,-0.1 0.067,-0.217 0.101,-0.35 0.27,-0.867 0.65,-1.683 1.15,-2.45 z m 10.35,-4.7 c -0.2,-0.2 -0.3,-0.416 -0.3,-0.649 0,-0.233 0.1,-0.434 0.3,-0.601 0.166,-0.2 0.366,-0.3 0.6,-0.3 0.234,0 0.45,0.1 0.65,0.3 0.166,0.167 0.25,0.367 0.25,0.601 0,0.234 -0.084,0.449 -0.25,0.649 -0.2,0.167 -0.417,0.25 -0.65,0.25 -0.233,0 -0.43,-0.083 -0.6,-0.25 z M 13.7,19.6 c -0.333,0.633 -0.633,1.816 -0.9,3.55 -0.466,1.467 -1.566,2.2 -3.3,2.2 -0.067,0 -0.583,-0.434 -1.55,-1.3 -2.567,2.267 -4.017,3.4 -4.35,3.4 -0.4,0 -0.617,-0.017 -0.65,-0.05 L 3,27.3 C 2.433,26.267 2.15,24.383 2.15,21.65 3.35,19.95 5.3,18.217 8,16.45 c 3.033,-1.967 6.183,-4.917 9.45,-8.85 0.133,1.2 -0.3,2.9 -1.3,5.1 -1.267,2.7 -2.017,4.583 -2.25,5.65 l -0.2,0 0,1.25 z M 33.55,43.1 33.8,43 c 0.667,0 1.883,-0.117 3.65,-0.35 0.133,-0.033 0.283,-0.066 0.45,-0.1 -0.267,0.1 -0.533,0.2 -0.8,0.3 -0.9,0.367 -1.85,0.816 -2.85,1.35 -0.133,-0.367 -0.367,-0.733 -0.7,-1.1 z M 5.2,44.7 4.85,44.3 5,44.45 5.2,44.7 Z m 14.4,-0.2 c 0.367,0.4 1.017,0.6 1.95,0.6 1.133,0 1.867,-0.567 2.2,-1.7 0.167,-0.667 0.233,-2 0.2,-4 l 0,-8.3 c -3.8,1.467 -5.7,3.75 -5.7,6.85 0,3.367 0.45,5.55 1.35,6.55 z m 40,11.85 c -3.033,0.2 -5.783,0.184 -8.25,-0.05 l -0.75,-0.7 0.6,0 c 3.6,0.266 6.4,0.516 8.4,0.75 z m -18.65,-1.75 -0.3,1.95 c 0.6,0.066 1.133,-0.184 1.6,-0.75 L 42.4,55.05 C 42.3,54.75 41.817,54.6 40.95,54.6 Z m 23.3,8 c -0.333,0.334 -0.667,0.7 -1,1.101 -0.667,0.767 -1,1.283 -1,1.55 l 0.1,0.25 c 0.1,0.167 0.25,0.267 0.45,0.3 0.067,-0.033 0.267,-0.149 0.6,-0.35 0.367,-0.334 0.6,-0.767 0.7,-1.3 L 64.25,62.6 Z"
           id="path22"
           inkscape:connector-curvature="0"
           style="fill:#9b9286" /><path
           d="m 128.15,47.25 0.05,0.15 c -0.767,1.367 -1.667,2.05 -2.7,2.05 -0.4,0 -0.65,-0.034 -0.75,-0.1 -0.1,-0.067 -0.233,-0.15 -0.4,-0.25 l -0.449,-0.5 c 0.699,-0.5 1.283,-0.883 1.75,-1.15 l 0.35,-0.2 c 1.033,-0.567 1.684,-1 1.95,-1.3 l 0.2,1.3 z M 76.2,48.8 c -0.467,0.267 -1.383,0.45 -2.75,0.55 C 72.817,49.317 72.3,49.166 71.9,48.9 71.633,48.733 71.317,48.417 70.95,47.95 L 71.7,47 72.1,46.6 c 0,-0.033 0.017,-0.05 0.05,-0.05 l 0.8,-0.7 c 0.4,-0.2 0.7,-0.467 0.9,-0.8 0.833,0 1.55,0.3 2.15,0.9 0.6,0.6 0.9,1.316 0.9,2.15 l -0.7,0.7 z m 34.7,-11.25 c 0.1,-0.333 0.316,-0.733 0.649,-1.2 0.233,-0.367 0.467,-1.167 0.7,-2.4 l 0.7,0.15 2,0.5 c -0.134,0.933 -0.584,1.7 -1.351,2.3 -0.8,0.633 -1.7,0.85 -2.7,0.65 z m -24,-12.35 -0.05,0 0.051,0.05 0,0.2 -5.051,0 0,-2.3 5.051,0 0,2.05 z m 4.5,1.05 C 90.866,26.183 90.6,26.1 90.6,26 c 0.167,-0.067 0.284,-0.2 0.351,-0.4 l 1.649,0.65 c -0.367,0.033 -0.767,0.033 -1.2,0 z m -10.45,10 0.1,-0.6 0.601,0.4 c 0.433,0.3 0.666,0.583 0.699,0.85 -0.1,0.434 -0.267,0.684 -0.5,0.75 -0.5,-0.067 -0.8,-0.533 -0.9,-1.4 z M 72.7,19.7 l 0.9,-0.35 0.35,-0.2 0,-1.2 1,0.1 c 0.633,0.434 1.2,0.983 1.7,1.65 -0.233,0.5 -0.417,0.85 -0.551,1.05 -0.166,0.267 -0.55,0.4 -1.149,0.4 l -2.7,-0.25 c 0,-0.066 -0.117,-0.167 -0.35,-0.3 l 0.8,-0.9 z M 48.35,8.7 C 47.217,9.367 45.933,9.75 44.5,9.85 L 43,9.65 C 43.3,9.517 43.95,9.233 44.95,8.8 46.016,8.3 46.6,8.05 46.7,8.05 L 48.35,8.7 Z M 62,29.95 c 2.267,1.433 3.283,2.367 3.05,2.8 -0.233,0.4 -0.783,0.6 -1.65,0.6 -0.3,0 -0.566,-0.15 -0.8,-0.45 -0.067,-0.1 -0.267,-0.45 -0.6,-1.05 l -0.05,-1.9 0.05,0 z M 32.6,25.3 c 0.767,-0.333 1.566,-0.883 2.4,-1.65 0.767,-0.7 1.4,-1.133 1.9,-1.3 l 1.1,0 c 0.1,0.233 0.217,0.517 0.35,0.85 0.1,0.267 0.15,0.617 0.15,1.05 0,0.567 -0.333,1.1 -1,1.6 -1,0.667 -2.55,1.083 -4.65,1.25 -0.967,0.467 -1.45,0.367 -1.45,-0.3 0,-0.4 0.133,-0.716 0.4,-0.95 0.133,-0.1 0.4,-0.283 0.8,-0.55 z"
           id="path24"
           inkscape:connector-curvature="0"
           style="fill:#8c847c" /><path
           d="m 117.15,39.25 -1.9,0 0,-1.95 1.9,0 0,1.95 z m 3.3,8.15 c -0.601,-0.033 -1.233,-0.183 -1.9,-0.45 -0.133,-0.067 -0.283,-0.133 -0.45,-0.2 -0.399,-0.4 -0.6,-0.85 -0.6,-1.35 0,-0.4 0.05,-0.667 0.15,-0.8 0.066,-0.1 0.216,-0.267 0.449,-0.5 l 2.5,-1.5 7.351,2.35 -0.2,0.55 c -0.6,0.733 -0.983,1.133 -1.15,1.2 -0.166,0.1 -0.966,0.283 -2.399,0.55 l -3.351,0.15 -0.4,0 z M 72.7,19.7 c -5.034,0.7 -7.6,1.05 -7.7,1.05 L 62.35,20.5 c 0,-0.033 -0.083,-0.083 -0.25,-0.15 -0.167,-0.1 -0.25,-0.35 -0.25,-0.75 0,-0.867 0.566,-1.533 1.7,-2 1.934,-0.8 5.733,-1.35 11.4,-1.65 l 0,2.1 -1,-0.1 0,1.2 -0.35,0.2 -0.9,0.35 z m 34.2,17.8 -0.95,-0.4 c -2.4,-1.467 -3.684,-2.267 -3.851,-2.4 -1.267,-0.967 -1.899,-1.983 -1.899,-3.05 0,-0.333 0.184,-0.75 0.55,-1.25 0.533,-0.767 1.267,-1.15 2.2,-1.15 2.366,0 4.533,0.567 6.5,1.7 1.533,0.9 2.7,1.95 3.5,3.15 l -0.7,-0.15 c -0.233,1.233 -0.467,2.033 -0.7,2.4 -0.333,0.467 -0.55,0.867 -0.649,1.2 l -0.45,0.1 c -0.834,0.1 -1.617,0.133 -2.351,0.1 L 106.9,37.5 Z M 83.65,3.05 84.049,3.05 87,4.2 87.5,4.9 C 87,5.334 86.5,5.633 86,5.8 85.233,6.067 84.2,6.2 82.9,6.2 L 81.3,6.15 c -0.1,0 -0.2,-0.033 -0.3,-0.1 -0.233,-0.133 -0.35,-0.4 -0.35,-0.8 0,-1.1 0.767,-1.683 2.3,-1.75 1.1,-0.067 1.333,-0.217 0.7,-0.45 z M 44,40.3 44,40.15 c 0.233,-0.2 0.767,-0.533 1.6,-1 0.9,-0.533 1.5,-0.816 1.8,-0.85 l 0.55,-0.05 c 0.133,1.3 -0.184,2.117 -0.95,2.45 -0.433,0.167 -1.45,0.233 -3.05,0.2 L 44,40.3 Z m 29.85,4.75 c -0.2,0.333 -0.5,0.6 -0.9,0.8 L 72.4,46 c -0.2,-0.1 -0.35,-0.25 -0.45,-0.45 0,-0.3 0.333,-0.517 1,-0.65 0.667,-0.133 0.967,-0.083 0.9,0.15 z M 89.6,17.65 c 0.434,-0.167 1.217,0.367 2.351,1.6 -0.533,0.367 -1.483,0.55 -2.851,0.55 0,-0.066 -0.083,-0.233 -0.25,-0.5 -0.166,-0.3 -0.267,-0.6 -0.3,-0.9 0.334,-0.067 0.683,-0.317 1.05,-0.75 z m -7.75,5.65 c -0.366,0.067 -0.699,0.1 -1,0.1 L 78.9,23.2 c 0.3,-0.534 0.616,-0.917 0.949,-1.15 0.634,-0.433 1.667,-0.8 3.101,-1.1 l 1,1.65 c -0.2,0.167 -0.634,0.35 -1.3,0.55 l -0.8,0 0,0.15 z m 5.05,1.95 -0.05,-0.05 0.05,0 c 0.1,-0.1 0.283,-0.284 0.55,-0.55 0.533,-0.4 1.116,-0.65 1.75,-0.75 l 1.05,-0.3 0,1.65 c -0.167,0.133 -0.533,0.233 -1.1,0.3 -0.601,0.1 -1.134,0.117 -1.601,0.05 L 86.9,25.25 Z m -5.85,10.4 -0.1,0.6 c -0.334,0.333 -0.767,0.5 -1.3,0.5 -0.4,0 -0.967,-0.05 -1.7,-0.15 L 77,36.45 c 0,-0.1 -0.15,-0.217 -0.45,-0.35 0.167,-0.233 0.184,-0.483 0.05,-0.75 0.233,-0.333 1.567,-0.917 4,-1.75 0.3,1.067 0.45,1.75 0.45,2.05 z M 57.2,3.6 c -0.267,0.333 -0.483,0.566 -0.65,0.7 -0.233,0.233 -0.6,0.35 -1.1,0.35 l -3.1,-0.3 c 1.333,-0.567 2.35,-0.934 3.05,-1.1 0.434,-0.1 0.934,-0.133 1.5,-0.1 0,0.1 0.1,0.25 0.3,0.45 z M 45,3.35 c 0.167,0.1 1.067,0.667 2.7,1.7 -0.133,1.333 -2.25,2.583 -6.35,3.75 -4.133,1.2 -6.2,0.7 -6.2,-1.5 0,-1.3 1.383,-2.417 4.15,-3.35 1.4,-0.467 2.817,-0.8 4.25,-1 0.467,0 0.95,0.133 1.45,0.4 z m 17,26.6 -0.05,0 0.05,1.9 c -0.2,0.933 -0.967,1.767 -2.3,2.5 -1.2,0.633 -2.35,0.95 -3.45,0.95 -1.167,0 -2.017,-0.466 -2.55,-1.4 -0.3,-0.533 -0.45,-1.066 -0.45,-1.6 0,-1.133 0.833,-2.066 2.5,-2.8 1.333,-0.6 2.617,-0.9 3.85,-0.9 0.667,0 1.45,0.117 2.35,0.35 l 0.05,1 z m -3.8,14.3 c 1.5,-0.467 3.316,-0.7 5.45,-0.7 2.134,0 3.967,0.233 5.5,0.7 1.5,0.467 2.25,1.033 2.25,1.7 0,0.667 -0.75,1.233 -2.25,1.7 -1.533,0.467 -3.367,0.7 -5.5,0.7 -2.133,0 -3.95,-0.233 -5.45,-0.7 -1.534,-0.467 -2.3,-1.033 -2.3,-1.7 0,-0.667 0.767,-1.233 2.3,-1.7 z M 36.9,22.35 c -0.5,0.167 -1.133,0.6 -1.9,1.3 -0.833,0.767 -1.633,1.317 -2.4,1.65 -1.3,0.3 -3.367,0.467 -6.2,0.5 0,-1.033 -0.217,-2.566 -0.65,-4.6 -0.467,-1.833 -0.7,-2.784 -0.7,-2.85 0,-0.8 0.367,-1.4 1.1,-1.8 0.8,-0.4 2.1,-0.6 3.9,-0.6 2.067,0 3.784,0.816 5.15,2.45 1.133,1.333 1.7,2.65 1.7,3.95 z"
           id="path26"
           inkscape:connector-curvature="0"
           style="fill:#c3b9ac" /><path
           d="m 109.7,40.45 c 1.233,2.233 2.416,4.15 3.55,5.75 0.5,0.867 0.75,2.316 0.75,4.35 0,0.633 -0.1,1.133 -0.3,1.5 -0.3,0.534 -0.884,0.917 -1.75,1.15 -0.101,0.133 -0.184,1.934 -0.25,5.399 -0.134,2.034 -0.417,3.75 -0.851,5.15 -0.5,0.767 -0.883,1.583 -1.149,2.45 -0.066,0.133 -0.15,0.25 -0.25,0.35 l -0.601,0.05 c -0.166,0.434 -0.199,1.301 -0.1,2.601 l -0.2,2.05 c 0,0.566 0.134,1.366 0.4,2.4 0.434,1.8 0.967,5.333 1.6,10.6 l -0.899,0.45 1,0.35 0,0.101 c 0.533,0.066 1.166,0.083 1.899,0.05 0.733,-0.066 1.267,-0.167 1.601,-0.3 2.1,0 3.883,-0.617 5.35,-1.851 1.467,-1.267 2.2,-2.783 2.2,-4.55 l 0.149,-0.85 0.2,7.199 -1.45,8.551 0.301,0.449 c 0.033,0 0.05,0.034 0.05,0.101 l 0.6,0 c 0.134,0 0.601,-0.283 1.4,-0.851 1.066,-0.767 2.05,-1.683 2.95,-2.75 l 0.199,-0.199 c -0.933,1.666 -1.416,2.517 -1.449,2.55 l -0.2,0.45 c 2.833,-0.267 4.684,-0.233 5.55,0.1 0.866,0.333 1.3,1.15 1.3,2.45 0,1.434 -1.7,2.6 -5.1,3.5 -2.601,0.7 -5.017,1.05 -7.25,1.05 -1.134,0 -2.367,-1.316 -3.7,-3.95 -1.134,-2.733 -1.75,-4.2 -1.85,-4.399 l -0.15,-0.25 -0.5,4.55 -0.6,-1.101 0.449,2.351 c 0,1.366 -0.3,2.55 -0.899,3.55 -0.467,0.733 -1,1.2 -1.601,1.4 -0.199,0.033 -0.399,0.05 -0.6,0.05 l -4.5,0.6 c 0.667,-0.866 1.434,-2.684 2.3,-5.45 1,-3.1 1.566,-5.866 1.7,-8.3 l -0.15,-1 c -2.166,3.733 -4.383,6.733 -6.649,9 -0.634,0.667 -1.617,1.316 -2.95,1.95 -0.733,0.4 -1.1,1 -1.1,1.8 0,0.634 0.149,1.617 0.449,2.95 -0.699,-0.634 -1.283,-1.316 -1.75,-2.05 -0.366,-0.566 -0.55,-0.934 -0.55,-1.101 0,-0.699 1.101,-1.883 3.3,-3.55 2.2,-1.666 3.301,-3.517 3.301,-5.55 0,-0.767 -0.284,-1.833 -0.851,-3.2 0.2,-1.133 0.3,-2.533 0.3,-4.2 l -0.1,-4.1 c -1.134,0.9 -2.533,2.667 -4.2,5.3 -1.6,2.5 -2.45,4.167 -2.55,5 -1.4,3.767 -2.2,6.066 -2.4,6.9 -0.166,0.733 -0.25,2.066 -0.25,4 l 0.15,3.55 -3.5,0.7 c -0.6,-3.7 -1.083,-7.15 -1.45,-10.351 L 87.699,94.4 c -0.167,0.399 -0.8,2.316 -1.9,5.75 -0.767,2.3 -1.45,3.816 -2.05,4.55 -1.033,1.233 -2.55,2.2 -4.55,2.899 -2,0.567 -3.233,1 -3.7,1.301 l -4.9,-1.101 c 6.833,-1.3 11.15,-2.666 12.95,-4.1 1.533,-1.167 2.3,-3.384 2.3,-6.65 0,-1.967 -0.716,-2.95 -2.149,-2.95 -1.167,0.101 -1.967,0.184 -2.4,0.25 -0.666,0.067 -1.149,-0.083 -1.45,-0.449 -0.6,-0.733 -0.899,-3.884 -0.899,-9.45 0,-1.667 0.25,-3.283 0.75,-4.851 0.399,-1.333 0.8,-2.149 1.2,-2.449 l 0.098,0.899 c 0.066,1.733 0.283,3.434 0.65,5.101 0.533,2.366 1.25,3.866 2.149,4.5 1.5,-1.134 2.601,-3.5 3.3,-7.101 0.434,-3.566 0.684,-5.55 0.75,-5.95 0.301,-1.366 1.467,-3.149 3.5,-5.35 2.167,-2.366 3.334,-3.767 3.5,-4.2 -0.066,0.467 -0.55,1.834 -1.449,4.101 -0.834,2.166 -1.351,3.399 -1.551,3.699 1.467,-1.866 2.834,-4.149 4.101,-6.85 1.233,-2.866 2.149,-4.884 2.75,-6.05 2,-3.9 4.833,-5.567 8.5,-5 0.1,1.233 0.133,4.116 0.1,8.649 1,-2 1.983,-6.5 2.95,-13.5 0,-1.467 -0.184,-2.867 -0.55,-4.2 -0.167,-0.467 -1.017,-2.9 -2.55,-7.3 0.366,0.333 0.816,0.683 1.35,1.05 l 1.2,0.801 z m 33.2,6.25 c -3.5,1.267 -6.217,2.2 -8.15,2.8 l -0.8,0.1 c 3.566,0.1 5.899,1.867 7,5.3 0.1,0.267 0.533,3.267 1.3,9 0.333,2.3 0.816,4.466 1.45,6.5 0.399,1.233 0.6,3.283 0.6,6.149 0,0.267 -0.133,1.434 -0.399,3.5 -0.301,2.467 -0.601,4.367 -0.9,5.7 l -0.4,1.35 c 0.101,-0.8 -0.017,-2.3 -0.35,-4.5 -0.267,-2.033 -0.533,-3.449 -0.8,-4.25 l -0.55,-1.199 c -0.233,0.966 -0.334,2.316 -0.301,4.05 0,0.899 0.034,1.916 0.101,3.05 0,1.3 -0.75,2.417 -2.25,3.35 -1.533,0.934 -3.934,1.75 -7.2,2.45 l -0.95,0.25 c 0.267,-0.533 0.667,-2.333 1.2,-5.399 0.5,-2.767 0.767,-4.45 0.8,-5.051 l 0,-1.25 c -1.133,2.101 -2.133,3.967 -3,5.601 0.533,-1.767 0.8,-3.667 0.8,-5.7 -0.633,-7.566 -0.949,-11.684 -0.949,-12.35 0,-0.4 0.1,-3.034 0.3,-7.9 0.066,-1.9 -0.117,-3.15 -0.55,-3.75 -0.534,-0.7 -1.75,-1.2 -3.65,-1.5 -0.134,-0.033 -3.1,-0.383 -8.9,-1.05 l 0.4,-0.2 c 0.1,-0.033 0.4,-0.15 0.9,-0.35 0.366,-0.133 0.55,-0.233 0.55,-0.3 3.666,-0.133 6.316,-0.283 7.95,-0.45 1.833,-0.167 3.649,-0.467 5.449,-0.9 1.7,-0.233 3.867,-0.767 6.5,-1.6 1.367,-0.467 2.934,-1 4.7,-1.6 l 0.1,0.149 z M 42.6,41.55 c -2.167,2.733 -3.467,4.3 -3.9,4.7 -0.7,0.533 -1.767,1.483 -3.2,2.85 l -0.15,0.15 c 1.033,-1.667 1.767,-2.783 2.2,-3.35 1.1,-1.5 2.45,-2.933 4.05,-4.3 l -6.35,4 c -0.067,0.167 -0.367,0.883 -0.9,2.15 -0.467,1.067 -0.733,1.75 -0.8,2.05 0,-2.4 0.883,-4.45 2.65,-6.15 0.267,-0.3 0.566,-0.566 0.9,-0.8 0.267,-0.1 0.533,-0.2 0.8,-0.3 1.067,-0.133 1.717,-0.316 1.95,-0.55 l -0.4,-0.05 2.05,-0.8 c 0.3,-0.033 0.633,-0.05 1,-0.05 l 0.1,0.45 z m 72.9,25 c 1.733,0.066 3.15,-0.45 4.25,-1.55 1.767,-1.733 3.717,-3.1 5.85,-4.1 -0.399,3.5 -1.583,5.85 -3.55,7.05 l -0.1,-4.351 c -1.233,1.667 -2,3.101 -2.3,4.301 -0.301,-0.034 -1.034,-0.217 -2.2,-0.551 -1.2,-0.3 -1.834,-0.483 -1.9,-0.55 L 115.5,66.55 Z M 94.75,60.9 c -0.3,-0.101 -1.7,-0.45 -4.2,-1.051 C 88.283,59.283 86.934,58.9 86.5,58.7 84.833,57.933 82.634,56.384 79.9,54.05 77.433,51.85 76.133,50.7 76,50.6 c 4.533,2.233 7.1,3.65 7.7,4.25 0.166,0.167 0.583,0.083 1.25,-0.25 1.767,0 4.7,-0.5 8.8,-1.5 4.066,-1 7,-1.5 8.8,-1.5 -1.833,1.566 -3.8,2.417 -5.899,2.55 -3.834,0.267 -6.367,0.55 -7.601,0.85 l -1.55,0.2 c 1.2,0.133 3.467,0.166 6.8,0.1 0.233,0.5 0.384,2.367 0.45,5.6 z m -3.5,15.7 c -1.967,4.9 -3.333,8.134 -4.1,9.7 -1.2,2.5 -2.934,3.7 -5.2,3.601 l -0.8,0 c 0.399,0.566 0.866,1.033 1.399,1.399 0.4,0.267 0.667,0.4 0.8,0.4 1.834,0 3.634,-1.134 5.4,-3.4 1.434,-1.8 2.267,-3.333 2.5,-4.6 l 0,-7.1 z m 30.75,0.35 0.05,-0.4 0.101,-1.45 0.449,-0.85 0.051,1.25 c -0.3,0.634 -0.52,1.116 -0.65,1.45 z M 13.9,18.35 c 0.434,0 0.8,0.117 1.1,0.35 0.3,0.2 0.45,0.45 0.45,0.75 0.2,0.867 0.45,1.716 0.75,2.55 0,0.633 -0.25,1.633 -0.75,3 -0.434,1.267 -0.85,2.233 -1.25,2.9 -5.9,3.067 -9.284,4.8 -10.15,5.2 L 4.6,32.5 c 6.1,-4.7 9.15,-8.533 9.15,-11.5 l -0.05,-1.4 0,-1.25 0.2,0 z m 5.05,6.45 c 0,0.667 -0.3,1.25 -0.9,1.75 -0.633,0.467 -1.383,0.7 -2.25,0.7 0.3,-0.2 0.85,-0.533 1.65,-1 0.7,-0.467 1.2,-0.95 1.5,-1.45 z M 4.85,44.3 2.75,42.1 c 0.933,0.033 3.467,-0.934 7.6,-2.9 -0.267,1.833 -0.717,3.45 -1.35,4.85 -0.133,0.2 -0.85,1.434 -2.15,3.7 L 6.75,47.5 C 7.783,45.433 8.4,44.067 8.6,43.4 8.1,43.467 7.433,43.65 6.6,43.95 5.767,44.283 5.233,44.45 5,44.45 L 4.85,44.3 Z M 20.8,75.75 c -0.1,-0.167 -2.466,-4.167 -7.1,-12 0.033,-0.033 0.083,-0.05 0.15,-0.05 1,-0.434 2.383,-0.884 4.15,-1.351 1.133,-0.333 1.867,-0.683 2.2,-1.05 0.533,-0.633 0.783,-3.6 0.75,-8.9 0.033,0.133 0.333,1.6 0.9,4.4 0.133,0.667 0.2,3.75 0.2,9.25 0,1.101 -0.233,2.367 -0.7,3.8 -0.267,0.733 -0.517,1.4 -0.75,2 0,0.634 0.066,1.834 0.2,3.601 l 0,0.3 z m 8.05,9.9 -2.85,-3.2 c 0,-2 0.117,-3.367 0.35,-4.101 0.467,-0.866 0.9,-1.75 1.3,-2.649 0.133,0.866 0.367,2.616 0.7,5.25 0.367,2.9 0.533,4.467 0.5,4.7 z m 9.4,7.95 c -0.833,-0.466 -1.633,-0.966 -2.4,-1.5 l 0.8,-4.6 c 0.033,0.033 0.233,0.3 0.6,0.8 0.167,0.267 0.3,0.4 0.4,0.4 0.1,1.1 0.3,2.734 0.6,4.9 z M 1.6,24.3 1.3,25.6 1.25,25.65 c 0,-0.2 0.017,-0.417 0.05,-0.65 0.067,-0.433 0.167,-0.667 0.3,-0.7 z m 48.15,31.8 -0.15,-0.5 1,0 0.75,0.7 c 1.3,1.066 2.2,2.834 2.7,5.3 0.3,1.367 0.45,2.733 0.45,4.101 0,1.666 -0.517,3.35 -1.55,5.05 -2.2,3.634 -3.867,6.65 -5,9.05 -0.133,-1.467 -0.2,-2.533 -0.2,-3.2 0,-2.933 0.617,-5.216 1.85,-6.85 1.2,-1.6 1.8,-2.95 1.8,-4.05 0,-3.267 -0.55,-6.468 -1.65,-9.601 z m 10.85,47.05 0.35,-0.65 1.1,-1.25 c -0.167,0.5 -0.466,1.233 -0.9,2.2 l -0.55,-0.3 z m 2.2,-2.5 c 1.4,-4.967 2.45,-7.9 3.15,-8.801 l 0.3,-0.05 0.1,2.101 c 0,1.566 -0.217,2.75 -0.65,3.55 -0.4,0.767 -1.367,1.833 -2.9,3.2 z M 48.55,97.9 45.5,96.8 c 0.167,-0.666 0.183,-2.133 0.05,-4.399 l 0.65,0.8 c 0.7,1.165 1.483,2.733 2.35,4.699 z"
           id="path28"
           inkscape:connector-curvature="0"
           style="fill:#7c7367" /><path
           d="M 94.85,65.05 C 94.951,63.884 94.917,62.5 94.75,60.901 94.684,57.668 94.533,55.8 94.3,55.3 90.967,55.366 88.7,55.333 87.5,55.2 L 89.05,55 c 1.233,-0.3 3.767,-0.583 7.601,-0.85 2.1,-0.133 4.066,-0.983 5.899,-2.55 l 0.65,-0.75 c 0.934,-1.2 1.7,-2.833 2.3,-4.9 0.8,-2.833 0.95,-5.784 0.45,-8.85 l 0.95,0.4 0.25,1.1 c 1.533,4.4 2.383,6.833 2.55,7.3 0.366,1.333 0.55,2.733 0.55,4.2 -0.967,7 -1.95,11.5 -2.95,13.5 0.033,-4.533 0,-7.416 -0.1,-8.649 -3.667,-0.567 -6.5,1.1 -8.5,5 -0.601,1.166 -1.517,3.184 -2.75,6.05 -1.267,2.7 -2.634,4.983 -4.101,6.85 0.2,-0.3 0.717,-1.533 1.551,-3.699 0.9,-2.268 1.383,-3.635 1.45,-4.102 z M 129.3,84.2 c 0.867,-1.634 1.867,-3.5 3,-5.601 l 0,1.25 c -0.033,0.601 -0.3,2.284 -0.8,5.051 -0.533,3.066 -0.934,4.866 -1.2,5.399 l 0.95,-0.25 c 3.267,-0.7 5.667,-1.517 7.2,-2.45 1.5,-0.933 2.25,-2.05 2.25,-3.35 -0.066,-1.134 -0.101,-2.15 -0.101,-3.05 -0.033,-1.733 0.067,-3.084 0.301,-4.05 l 0.55,1.199 c 0.267,0.801 0.533,2.217 0.8,4.25 0.333,2.2 0.45,3.7 0.35,4.5 l 0.4,-1.35 c 0.3,-1.333 0.6,-3.233 0.9,-5.7 0.267,-2.066 0.399,-3.233 0.399,-3.5 0,-2.866 -0.2,-4.916 -0.6,-6.149 -0.634,-2.034 -1.117,-4.2 -1.45,-6.5 -0.767,-5.733 -1.2,-8.733 -1.3,-9 -1.101,-3.433 -3.434,-5.2 -7,-5.3 l 0.8,-0.1 c 1.934,-0.6 4.65,-1.533 8.15,-2.8 l 0.649,0.7 c 1.601,1.733 3.084,3.75 4.45,6.05 1.5,2.566 2.25,4.517 2.25,5.85 0,0.667 -0.267,4.9 -0.8,12.7 0,0.667 0.333,4.167 1,10.5 0,1.533 -1.351,3.8 -4.05,6.8 -2.567,2.834 -5.384,5.3 -8.45,7.4 -1.7,1.3 -2.733,2.1 -3.101,2.399 -0.5,0.367 -1.233,0.601 -2.199,0.7 -4.967,0.334 -12.483,1.2 -22.551,2.601 0.601,-0.2 1.134,-0.667 1.601,-1.4 0.6,-1 0.899,-2.184 0.899,-3.55 l 0.15,-1.25 0.5,-4.55 0.15,0.25 c 0.1,0.199 0.716,1.666 1.85,4.399 1.333,2.634 2.566,3.95 3.7,3.95 2.233,0 4.649,-0.35 7.25,-1.05 3.399,-0.9 5.1,-2.066 5.1,-3.5 0,-1.3 -0.434,-2.117 -1.3,-2.45 -0.866,-0.333 -2.717,-0.366 -5.55,-0.1 l 0.2,-0.45 c 0.033,-0.033 0.517,-0.884 1.449,-2.55 0.73,-1.4 1.8,-3.383 3.2,-5.95 z m -18.75,0.05 c 0.033,-0.033 1.283,-1 3.75,-2.9 1.5,-1.133 2.65,-2.166 3.45,-3.1 2.2,-2.7 2.833,-6.15 1.9,-10.35 0.3,-1.2 1.066,-2.634 2.3,-4.301 l 0.1,4.351 c 0.2,2.833 0.233,5.217 0.101,7.149 l -0.101,1.45 -0.1,0.7 -0.05,0.05 -0.051,0.351 -0.15,0.85 c 0,1.767 -0.733,3.283 -2.2,4.55 -1.467,1.233 -3.25,1.851 -5.35,1.851 -0.467,0.133 -1.067,0.216 -1.801,0.25 -0.733,0 -1.3,-0.034 -1.699,-0.101 l -1,-0.35 0.9,-0.45 z M 89.5,105.7 c -2.167,0.434 -4.6,1.35 -7.3,2.75 -1.533,0.767 -3.767,0.916 -6.7,0.45 0.467,-0.301 1.7,-0.733 3.7,-1.301 2,-0.699 3.517,-1.666 4.55,-2.899 0.6,-0.733 1.283,-2.25 2.05,-4.55 1.101,-3.434 1.733,-5.351 1.9,-5.75 l 0.35,0.949 C 88.417,98.55 88.9,102 89.5,105.7 Z m 15.5,-2.65 -6.4,1 0,-0.05 c -0.3,-1.333 -0.449,-2.316 -0.449,-2.95 0,-0.8 0.366,-1.399 1.1,-1.8 1.333,-0.634 2.316,-1.283 2.95,-1.95 2.267,-2.267 4.483,-5.267 6.649,-9 l 0.15,1 c -0.134,2.434 -0.7,5.2 -1.7,8.3 -0.87,2.77 -1.63,4.58 -2.3,5.45 z M 91.25,76.6 l 0,7.1 c -0.233,1.267 -1.066,2.8 -2.5,4.6 -1.767,2.267 -3.566,3.4 -5.4,3.4 -0.133,0 -0.399,-0.134 -0.8,-0.4 -0.533,-0.366 -1,-0.833 -1.399,-1.399 l 0.8,0 c 2.267,0.1 4,-1.101 5.2,-3.601 0.766,-1.567 2.132,-4.8 4.099,-9.7 z m -72.6,-52.7 0.15,0.35 0.15,0.55 c -0.3,0.5 -0.8,0.983 -1.5,1.45 -0.8,0.467 -1.35,0.8 -1.65,1 -0.433,0.3 -0.9,0.583 -1.4,0.85 l -0.6,0.25 0.4,-0.45 c 0.4,-0.667 0.816,-1.633 1.25,-2.9 0.5,-1.367 0.75,-2.367 0.75,-3 l 0.15,-1.5 c 0.1,0.2 0.5,0.733 1.2,1.6 0.567,0.733 0.933,1.333 1.1,1.8 z m 14.9,25.9 c 0.067,-0.3 0.333,-0.983 0.8,-2.05 0.533,-1.267 0.833,-1.983 0.9,-2.15 l 6.35,-4 c -1.6,1.367 -2.95,2.8 -4.05,4.3 -0.433,0.567 -1.167,1.684 -2.2,3.35 -0.133,0.633 -0.35,1.333 -0.65,2.1 -0.4,0.933 -0.75,1.45 -1.05,1.55 l -0.1,-3.1 z M 5.2,44.7 5,44.45 c 0.233,0 0.767,-0.167 1.6,-0.5 0.833,-0.3 1.5,-0.483 2,-0.55 C 8.4,44.067 7.783,45.433 6.75,47.5 6.25,46.3 5.733,45.367 5.2,44.7 Z"
           id="path30"
           inkscape:connector-curvature="0"
           style="fill:#635b52" /><path
           d="m 109.1,40 -0.6,-0.35 0.05,-0.55 c 0.17,0.367 0.35,0.667 0.55,0.9 z m 12.95,27.95 c 1.967,-1.2 3.15,-3.55 3.55,-7.05 -2.133,1 -4.083,2.366 -5.85,4.1 -1.1,1.1 -2.517,1.616 -4.25,1.55 0,-0.1 -0.283,-1.083 -0.85,-2.95 -0.601,-1.933 -0.95,-3.166 -1.051,-3.699 -0.233,0.433 -0.933,1.399 -2.1,2.899 -0.233,0.3 -0.45,0.617 -0.65,0.95 0.434,-1.4 0.717,-3.116 0.851,-5.15 0.066,-3.466 0.149,-5.266 0.25,-5.399 0.866,-0.233 1.45,-0.617 1.75,-1.15 0.2,-0.367 0.3,-0.867 0.3,-1.5 0,-2.033 -0.25,-3.483 -0.75,-4.35 -1.134,-1.6 -2.316,-3.517 -3.55,-5.75 2.133,1.466 3.934,3.8 5.399,7 0.934,1.966 3.084,2.95 6.45,2.95 0.767,0 2.184,-0.05 4.25,-0.15 2.533,-0.167 4.467,-0.333 5.8,-0.5 -1.8,0.433 -3.616,0.733 -5.449,0.9 -1.634,0.167 -4.284,0.317 -7.95,0.45 0,0.066 -0.184,0.167 -0.55,0.3 -0.5,0.2 -0.801,0.317 -0.9,0.35 l -0.4,0.2 c 5.801,0.667 8.767,1.017 8.9,1.05 1.9,0.3 3.116,0.8 3.65,1.5 0.433,0.6 0.616,1.85 0.55,3.75 -0.2,4.866 -0.3,7.5 -0.3,7.9 0,0.666 0.316,4.783 0.949,12.35 0,2.033 -0.267,3.934 -0.8,5.7 -1.399,2.566 -2.467,4.55 -3.2,5.95 L 125.9,90.35 c -0.9,1.067 -1.884,1.983 -2.95,2.75 -0.8,0.567 -1.267,0.851 -1.4,0.851 l -0.6,0 c 0,-0.066 -0.017,-0.101 -0.05,-0.101 l -0.3,-0.45 1.45,-8.551 c 0.134,0.967 0.316,1.851 0.55,2.65 l 0.65,0.25 c 0.767,0.033 1.384,-0.35 1.85,-1.15 0.5,-0.866 0.75,-2.083 0.75,-3.649 0,-5.733 -0.283,-9.334 -0.85,-10.8 -1.167,-2.934 -1.75,-4.417 -1.75,-4.45 0,4.8 -0.2,7.399 -0.6,7.8 l -0.051,-1.25 -0.449,0.85 c 0.13,-1.933 0.1,-4.317 -0.1,-7.15 z M 42.5,41.1 c -0.367,0 -0.7,0.017 -1,0.05 l 2.5,-1 0,0.15 -1.5,0.8 z m 28.1,66.7 -4.9,-2.1 c -1.133,-0.5 -2.65,-1.25 -4.55,-2.25 0.434,-0.967 0.733,-1.7 0.9,-2.2 l 0.75,-0.6 c 1.534,-1.367 2.5,-2.434 2.9,-3.2 0.433,-0.8 0.65,-1.983 0.65,-3.55 l -0.1,-2.101 -0.3,0.05 c -0.967,0.834 -1.7,1.983 -2.2,3.45 -0.3,0.967 -0.867,2.95 -1.7,5.95 l -1.1,1.25 c 0.267,-3.333 0.483,-5.884 0.65,-7.65 0.3,-3.267 0.883,-5.366 1.75,-6.3 l 3.65,0.15 c 2.133,0.133 3.467,-0.267 4,-1.2 0.267,-0.467 0.533,-2.566 0.8,-6.3 0.233,-3.8 0.517,-6.017 0.85,-6.65 0.633,-1.267 1.934,-2.416 3.9,-3.45 1.634,-0.833 2.45,-1.75 2.45,-2.75 0,-2.6 -1.167,-5 -3.5,-7.199 -2.433,-1.801 -3.733,-2.851 -3.9,-3.151 0.133,-0.033 1.017,-0.116 2.65,-0.25 1.634,-0.366 2.684,-1.083 3.15,-2.15 l -0.1,-0.75 c -1.866,-3.167 -3.15,-5 -3.85,-5.5 1.367,-0.1 2.283,-0.283 2.75,-0.55 0.733,1.367 2.783,2.95 6.149,4.75 0.301,0.3 0.867,0.45 1.7,0.45 1.834,0 3.066,-0.083 3.7,-0.25 0.5,-0.133 1.517,-0.5 3.05,-1.1 0.9,-0.033 2,-0.133 3.3,-0.3 1.301,-0.167 2.284,-0.35 2.95,-0.55 2.167,-0.1 4.217,-0.417 6.15,-0.95 l -0.65,0.75 c -1.8,0 -4.733,0.5 -8.8,1.5 -4.1,1 -7.033,1.5 -8.8,1.5 -0.667,0.333 -1.084,0.417 -1.25,0.25 -0.601,-0.6 -3.167,-2.017 -7.7,-4.25 0.134,0.1 1.434,1.25 3.9,3.45 2.733,2.334 4.933,3.884 6.6,4.65 0.434,0.2 1.783,0.583 4.05,1.149 2.5,0.601 3.9,0.95 4.2,1.051 0.167,1.6 0.2,2.983 0.1,4.149 -0.166,0.434 -1.333,1.834 -3.5,4.2 -2.033,2.2 -3.199,3.983 -3.5,5.35 -0.066,0.4 -0.316,2.384 -0.75,5.95 -0.699,3.601 -1.8,5.967 -3.3,7.101 C 82.9,87.015 82.183,85.515 81.65,83.149 81.283,81.482 81.066,79.782 81,78.048 l -0.1,-0.899 c -0.4,0.3 -0.801,1.116 -1.2,2.449 -0.5,1.567 -0.75,3.184 -0.75,4.851 0,5.566 0.3,8.717 0.899,9.45 0.301,0.366 0.784,0.517 1.45,0.449 0.434,-0.066 1.233,-0.149 2.4,-0.25 1.434,0 2.149,0.983 2.149,2.95 0,3.267 -0.767,5.483 -2.3,6.65 -1.799,1.43 -6.115,2.8 -12.949,4.1 z M 72.1,46.6 71.7,47 71.45,46.25 c 0.167,0.467 0.383,0.583 0.65,0.35 z m 26.5,57.4 0,0.05 -5.6,0.95 -0.15,-3.55 c 0,-1.934 0.084,-3.267 0.25,-4 0.2,-0.834 1,-3.134 2.4,-6.9 0.3,0.834 0.65,1.434 1.05,1.8 0.566,0.5 1.351,0.75 2.351,0.75 2.033,0 3.083,-1.517 3.149,-4.55 0.566,1.367 0.851,2.434 0.851,3.2 0,2.033 -1.101,3.884 -3.301,5.55 -2.199,1.667 -3.3,2.851 -3.3,3.55 0,0.167 0.184,0.534 0.55,1.101 0.467,0.73 1.051,1.42 1.751,2.05 z m 11.95,-19.75 c -0.633,-5.267 -1.166,-8.8 -1.6,-10.6 -0.267,-1.034 -0.4,-1.834 -0.4,-2.4 l 0.2,-2.05 0.6,3.1 c 0.034,0.134 0.233,1.283 0.601,3.45 0.399,2.2 0.833,3.483 1.3,3.85 0.866,-0.6 1.7,-2.083 2.5,-4.449 0.866,-2.467 1.467,-5.25 1.8,-8.351 0.066,0.066 0.7,0.25 1.9,0.55 1.166,0.334 1.899,0.517 2.2,0.551 0.933,4.199 0.3,7.649 -1.9,10.35 -0.8,0.934 -1.95,1.967 -3.45,3.1 -2.47,1.899 -3.72,2.866 -3.75,2.899 z m 2.2,11.95 -0.15,1.25 -0.45,-2.35 0.6,1.1 z m -3.05,-30 c -0.033,0.133 -0.066,0.25 -0.101,0.35 l -0.149,0 c 0.1,-0.1 0.18,-0.217 0.25,-0.35 z m 11.5,-7.15 c 0.166,0.167 0.366,0.25 0.6,0.25 0.234,0 0.45,-0.083 0.65,-0.25 0.166,-0.2 0.25,-0.416 0.25,-0.649 0,-0.233 -0.084,-0.434 -0.25,-0.601 -0.2,-0.2 -0.417,-0.3 -0.65,-0.3 -0.233,0 -0.434,0.1 -0.6,0.3 -0.2,0.167 -0.3,0.367 -0.3,0.601 0,0.234 0.1,0.449 0.3,0.649 z M 1.25,25.65 1.3,25.6 1.6,24.3 2.15,21.65 c 0,2.733 0.283,4.617 0.85,5.65 l -0.05,0.1 c 0.033,0.033 0.25,0.05 0.65,0.05 0.333,0 1.783,-1.133 4.35,-3.4 0.966,0.867 1.483,1.3 1.55,1.3 1.733,0 2.833,-0.733 3.3,-2.2 0.267,-1.733 0.567,-2.917 0.9,-3.55 l 0.05,1.4 c 0,2.967 -3.05,6.8 -9.15,11.5 L 4.05,33.1 C 4.917,32.7 8.3,30.967 14.2,27.9 l -0.4,0.45 0.6,-0.25 c 0.5,-0.267 0.967,-0.55 1.4,-0.85 0.867,0 1.617,-0.233 2.25,-0.7 0.6,-0.5 0.9,-1.083 0.9,-1.75 L 18.8,24.25 c 0.4,0.433 1.184,1.167 2.35,2.2 1.033,0.9 1.65,1.5 1.85,1.8 -3.133,0.333 -6,0.883 -8.6,1.65 -5.1,1.567 -7.033,3.85 -5.8,6.85 0.533,-0.033 1.6,-0.367 3.2,-1 0.867,-0.333 1.95,-0.783 3.25,-1.35 -0.3,1.167 -1.017,3.567 -2.15,7.2 -0.633,2.066 -0.95,3.45 -0.95,4.15 0,0.733 0.233,1.417 0.7,2.05 0.133,0.2 0.483,0.583 1.05,1.15 l -2.7,3.3 c 1.2,1.267 1.9,2.383 2.1,3.35 0.233,0.967 0.533,1.65 0.9,2.051 l 0.5,-0.2 c 0.433,-1.566 1.167,-3.3 2.2,-5.2 0.566,-1.033 0.85,-2.867 0.85,-5.5 l -0.2,-5.25 0.35,1.3 c 2.1,3.267 3.25,5.034 3.45,5.3 1.4,1.9 2.567,2.85 3.5,2.85 0.467,0 0.917,-0.217 1.35,-0.65 0.733,-0.733 1.1,-1.95 1.1,-3.65 -1,-7.1 -1.5,-11.033 -1.5,-11.8 l 0.35,0.85 c 0.333,0.966 1.2,2.183 2.6,3.65 1.3,1.367 2.367,2.233 3.2,2.6 l 1.7,1.05 0.1,0.1 c 0.333,0.367 0.567,0.733 0.7,1.1 1,-0.534 1.95,-0.983 2.85,-1.35 -0.333,0.233 -0.633,0.5 -0.9,0.8 -1.767,1.7 -2.65,3.75 -2.65,6.15 l 0.1,3.1 c 0.3,-0.1 0.65,-0.617 1.05,-1.55 0.3,-0.767 0.517,-1.467 0.65,-2.1 l 0.15,-0.15 c -0.133,0.433 -0.333,1.183 -0.6,2.25 -0.066,0.133 -0.117,0.267 -0.15,0.4 -0.433,1.1 -0.683,2.333 -0.75,3.7 -0.4,1.8 -0.833,2.899 -1.3,3.3 -0.534,-0.8 -0.85,-1.517 -0.95,-2.15 -0.033,-0.833 -0.083,-1.566 -0.15,-2.2 -1.967,0.7 -3.383,1.534 -4.25,2.5 -0.967,1.1 -1.45,2.583 -1.45,4.449 0,3.467 1.3,6.467 3.9,9 1.7,1.7 3.133,2.7 4.3,3 0.133,-0.066 0.267,-0.1 0.4,-0.1 0.1,-0.066 0.15,-0.3 0.15,-0.7 0,-0.033 0.533,-0.6 1.6,-1.7 1.1,-1.399 1.667,-3.017 1.7,-4.85 0.033,-0.667 0.167,-2.733 0.4,-6.2 l 0.3,0.75 c 0.167,1.967 0.333,4.767 0.5,8.4 0.133,3.2 0.2,5.133 0.2,5.8 l -0.15,3.4 c -2.6,0.033 -4.333,0.333 -5.2,0.899 -0.5,0.3 -0.75,0.733 -0.75,1.3 0,2.767 0.583,4.517 1.75,5.25 0.533,0.301 1.783,0.483 3.75,0.551 1.667,0.033 2.817,0.55 3.45,1.55 0.9,1.434 1.167,4.149 0.8,8.149 -1.6,-0.699 -3.183,-1.449 -4.75,-2.25 -0.3,-2.166 -0.5,-3.8 -0.6,-4.899 -0.1,0 -0.233,-0.134 -0.4,-0.4 -0.367,-0.5 -0.567,-0.767 -0.6,-0.8 l -0.8,4.6 c -0.567,-0.399 -1.1,-0.8 -1.6,-1.199 -0.267,-0.233 -1.117,-1.051 -2.55,-2.45 -1.534,-1.467 -2.483,-2.4 -2.85,-2.8 0.033,-0.233 -0.133,-1.801 -0.5,-4.7 -0.333,-2.634 -0.567,-4.384 -0.7,-5.25 -0.4,0.899 -0.833,1.783 -1.3,2.649 -0.233,0.733 -0.35,2.1 -0.35,4.1 -0.967,-1.167 -2.3,-2.851 -4,-5.05 l -1.2,-1.65 0,-0.3 c -0.133,-1.767 -0.2,-2.967 -0.2,-3.601 0.233,-0.6 0.483,-1.267 0.75,-2 0.467,-1.433 0.7,-2.699 0.7,-3.8 0,-5.5 -0.066,-8.583 -0.2,-9.25 -0.567,-2.8 -0.867,-4.267 -0.9,-4.4 0.033,5.3 -0.217,8.267 -0.75,8.9 -0.333,0.367 -1.067,0.717 -2.2,1.05 -1.767,0.467 -3.15,0.917 -4.15,1.351 -0.067,0 -0.117,0.017 -0.15,0.05 l -1.35,-3.4 c -0.4,-1.233 -1.067,-2.983 -2,-5.25 C 9.283,52.5 8.4,50.567 7.7,49.3 7.367,48.767 7.083,48.25 6.85,47.75 8.15,45.483 8.867,44.25 9,44.05 9.633,42.65 10.083,41.033 10.35,39.2 6.217,41.166 3.683,42.133 2.75,42.1 2.383,41.7 1.867,40.25 1.2,37.75 0.4,34.817 0,32.25 0,30.05 c 0,-1 0.2,-2 0.6,-3 0.4,-0.833 0.617,-1.3 0.65,-1.4 z m 14.2,-6.2 0.9,1.05 -0.15,1.5 c -0.3,-0.833 -0.55,-1.683 -0.75,-2.55 z m 36.9,56.7 c -0.1,0.3 -0.4,0.983 -0.9,2.05 -0.5,1.067 -0.817,1.85 -0.95,2.35 -1.7,3.467 -2.55,5.267 -2.55,5.4 0,0.866 0.066,2.233 0.2,4.1 0.133,2.3 0.283,3.684 0.45,4.15 l 0.05,0.05 c 0.633,0.866 1.65,1.917 3.05,3.15 1.333,1.166 2.683,2.183 4.05,3.05 l 0.65,0.5 0.1,0.1 c -1.033,-0.5 -2.967,-1.283 -5.8,-2.35 L 48.55,97.9 C 47.683,95.933 46.9,94.366 46.2,93.2 l -0.65,-0.8 c 0.133,2.267 0.117,3.733 -0.05,4.399 L 45.1,96.65 c -0.133,-1.733 -0.2,-3.101 -0.2,-4.101 1.033,-3.7 1.55,-6.316 1.55,-7.85 0,-0.334 -0.133,-1.617 -0.4,-3.851 -0.3,-2.267 -0.45,-3.566 -0.45,-3.899 0,-1.134 0.683,-3 2.05,-5.601 1.367,-2.6 2.05,-5.183 2.05,-7.75 0,-0.833 -0.184,-2.267 -0.55,-4.3 C 48.783,57.134 48.6,56 48.6,55.9 l 1.15,0.199 c 1.1,3.134 1.65,6.334 1.65,9.601 0,1.1 -0.6,2.45 -1.8,4.05 -1.233,1.634 -1.85,3.917 -1.85,6.85 0,0.667 0.067,1.733 0.2,3.2 1.133,-2.399 2.8,-5.416 5,-9.05 1.033,-1.7 1.55,-3.384 1.55,-5.05 0,-1.367 -0.15,-2.733 -0.45,-4.101 -0.5,-2.466 -1.4,-4.233 -2.7,-5.3 2.467,0.233 5.217,0.25 8.25,0.05 l 0.15,0 c 2.2,0.601 3.9,0.9 5.1,0.9 l 0.2,0.1 c 0.233,0.167 0.483,0.317 0.75,0.45 0.2,0.134 0.3,0.417 0.3,0.851 0,1.533 -0.633,2.8 -1.9,3.8 -0.233,0.166 -1.65,0.967 -4.25,2.399 -4.367,2.368 -6.9,6.134 -7.6,11.301 z"
           id="path32"
           inkscape:connector-curvature="0"
           style="fill:#898074" /></g></g></g></svg>