<?xml version="1.0" encoding="UTF-8" standalone="no"?>
<svg
   xmlns:dc="http://purl.org/dc/elements/1.1/"
   xmlns:cc="http://creativecommons.org/ns#"
   xmlns:rdf="http://www.w3.org/1999/02/22-rdf-syntax-ns#"
   xmlns:svg="http://www.w3.org/2000/svg"
   xmlns="http://www.w3.org/2000/svg"
   xmlns:sodipodi="http://sodipodi.sourceforge.net/DTD/sodipodi-0.dtd"
   xmlns:inkscape="http://www.inkscape.org/namespaces/inkscape"
   enable-background="new 0 0 850.39 793.7"
   version="1.1"
   viewBox="0 0 350.39001 350.70001"
   xml:space="preserve"
   id="svg2"
   inkscape:version="0.91 r13725"
   sodipodi:docname="gear.svg"
   width="350.39001"
   height="350.70001"><metadata
     id="metadata12"><rdf:RDF><cc:Work
         rdf:about=""><dc:format>image/svg+xml</dc:format><dc:type
           rdf:resource="http://purl.org/dc/dcmitype/StillImage" /><dc:title /></cc:Work></rdf:RDF></metadata><defs
     id="defs10" /><sodipodi:namedview
     pagecolor="#ffffff"
     bordercolor="#666666"
     borderopacity="1"
     objecttolerance="10"
     gridtolerance="10"
     guidetolerance="10"
     inkscape:pageopacity="0"
     inkscape:pageshadow="2"
     inkscape:window-width="1920"
     inkscape:window-height="1022"
     id="namedview8"
     showgrid="false"
     inkscape:zoom="0.29734156"
     inkscape:cx="431.92128"
     inkscape:cy="374.90112"
     inkscape:window-x="0"
     inkscape:window-y="0"
     inkscape:window-maximized="1"
     inkscape:current-layer="svg2" /><path
     d="m 311.38398,185.97025 c 0.053,-1.649 1.303,-3.603 2.779,-4.342 l 29.968,-15.007 c 1.475,-0.739 2.469,-2.676 2.208,-4.306 l -6.909,-31.843 c -0.442,-1.59 -2.152,-2.977 -3.798,-3.084 l -34.08,-2.204 c -1.647,-0.107 -3.605,-1.398 -4.351,-2.869 l -4.634,-8.521 c -0.83,-1.426 -0.821,-3.754 0.021,-5.173 l 17.209,-29.016001 c 0.842,-1.419 0.641,-3.596 -0.446,-4.837 l -23.188,-23.644 c -1.22,-1.111 -3.399,-1.365 -4.841,-0.564 l -29.653,16.455 c -1.443,0.801 -3.778,0.756 -5.19,-0.098 l -8.013,-4.551 c -1.457,-0.774 -2.698,-2.757 -2.757,-4.406 l -1.22,-33.994 c -0.059,-1.649 -1.4,-3.388 -2.979,-3.865 l -32.116,-7.684 c -1.624,-0.294 -3.591,0.654 -4.372,2.108 l -15.948,29.686 c -0.781,1.454 -2.102,2.63 -2.936,2.614 l -0.761,0 c -4.628,0 -10.717,0.459 -10.717,0.459 -1.645,0.124 -3.762,-0.883 -4.703,-2.239 l -19.495,-28.068 c -0.941,-1.355 -3.012,-2.103 -4.602,-1.663 l -30.676,10.348 c -1.531,0.616 -2.678,2.466 -2.549,4.111 l 2.615,33.362 c 0.129,1.645 -0.9,3.723 -2.286,4.618 l -9.752999,6.753 c -1.325,0.983 -3.656,1.272 -5.181,0.641 l -31.583,-13.076 c -1.525,-0.631 -3.675,-0.144 -4.779,1.082 l -19.684,24.409 c -0.965,1.338 -0.939,3.508 0.059,4.822 l 20.14,26.526001 c 0.998,1.314 1.247,3.614 0.554,5.112 l -5.477,13.112 c -0.579,1.545 -2.382,3.049 -4.006,3.342 l -33.5069999,6.051 c -1.624,0.293 -3.164,1.866 -3.424,3.496 0,0 -3.278,20.605 -3.278,32.905 l 0,0.066 c 10e-4,0.073 1.271,0.595 2.82,1.161 l 31.2689999,11.421 c 1.55,0.566 3.008,2.366 3.241,3.999 l 2.931,15.982 c 0.366,1.609 -0.323,3.845 -1.53,4.97 l -24.766,23.065 c -1.207,1.125 -1.638,3.274 -0.957,4.777 l 13.507,26.188 c 0.832,1.425 2.83,2.295 4.44,1.933 l 32.619,-7.329 c 1.61,-0.362 3.82,0.354 4.912,1.591 l 12.024,12.503 c 1.193,1.14 1.836,3.38 1.428,4.979 l -8.302,32.548 c -0.408,1.599 0.399,3.63 1.793,4.513 l 25.463999,14.35 c 1.477,0.736 3.633,0.377 4.792,-0.797 l 23.62,-23.944 c 1.159,-1.175 3.411,-1.785 5.004,-1.357 l 16.795,3.733 c 1.624,0.29 3.38,1.808 3.901,3.374 l 10.539,31.649 c 0.521,1.565 2.297,2.884 3.947,2.931 0,0 0.884,0.025 2.838,0.025 10.131,0 26.731,-2.17 26.731,-2.17 1.636,-0.214 3.253,-1.71 3.592,-3.325 l 6.976,-33.154 c 0.34,-1.615 1.898,-3.364 3.463,-3.887 l 14.776,-5.602 c 1.518,-0.648 3.81,-0.331 5.095,0.704 l 25.92,20.881 c 1.285,1.035 3.453,1.124 4.818,0.197 l 24.332,-18.452 c 1.26,-1.066 1.81,-3.199 1.223,-4.741 l -12.134,-31.867 c -0.587,-1.542 -0.23,-3.863 0.793,-5.157 l 8.033,-10.95 c 0.928,-1.364 3.029,-2.337 4.67,-2.16 l 33.163,3.56 c 1.641,0.176 3.517,-0.92 4.17,-2.435 l 10.863,-29.706 c 0.482,-1.578 -0.209,-3.671 -1.537,-4.65 l -27.522,-20.311 c -1.328,-0.98 -2.286,-3.125 -2.129,-4.768 l 0.714,-11.296 z m -136.45,98.031 c -55.465,0 -100.429999,-44.963 -100.429999,-100.43 0,-55.466 44.962999,-100.430001 100.429999,-100.430001 55.467,0 100.43,44.963001 100.43,100.430001 0,55.467 -44.963,100.43 -100.43,100.43 z"
     id="path4"
     inkscape:connector-curvature="0"
     style="fill:#1e1b1b" /><ellipse
     cx="572"
     cy="-121"
     rx="0"
     ry="2"
     id="ellipse6" /><path
     style="fill:#ffffff;fill-opacity:1;stroke:#000000;stroke-width:6.72627115;stroke-miterlimit:4;stroke-dasharray:none;stroke-opacity:1"
     d="m 168.19505,345.25918 c -1.78917,-4.7059 -4.19592,-12.31287 -5.34832,-16.9044 -4.62708,-18.43577 -24.75161,-19.65543 -42.25783,-2.56106 l -12.63323,12.33601 -13.735348,-6.19377 c -7.554443,-3.40659 -14.349655,-7.18776 -15.100476,-8.4026 -0.750816,-1.21485 0.801345,-10.41086 3.449249,-20.43556 4.801098,-18.17648 4.788927,-18.25222 -4.4131,-27.4659 -8.312955,-8.32348 -10.386392,-8.90678 -20.921031,-5.88548 -21.016329,6.0274 -26.157265,4.48686 -33.579843,-10.0626 l -6.844467,-13.41627 13.502387,-12.19859 c 10.507191,-9.49261 13.502387,-14.63156 13.502387,-23.16643 0,-12.79418 -2.787804,-15.47001 -24.63073,-23.6414 -13.6660827,-5.11245 -15.9260184,-7.17461 -14.3392486,-13.08438 1.0360025,-3.85849 1.9043059,-11.04612 1.9295634,-15.9725 0.042285,-8.24723 1.7019262,-9.31407 20.9423722,-13.46205 19.129993,-4.12416 21.156629,-5.41217 23.974254,-15.23665 2.692204,-9.38717 1.759603,-12.39604 -7.443907,-24.01642 -5.786941,-7.306609 -10.521711,-14.282876 -10.521711,-15.502813 0,-4.266891 18.531943,-25.400445 22.27365,-25.400546 2.077022,-5.4e-5 10.746399,3.083064 19.265282,6.85137 14.511093,6.418944 16.01881,6.504243 23.883368,1.351187 7.803979,-5.113366 8.252489,-6.858917 6.375789,-24.814201 L 103.5054,28.660206 117.44924,23.08099 c 7.6691,-3.068569 15.80497,-5.57651 18.07969,-5.573202 2.27472,0.0033 8.48838,6.895326 13.80812,15.315598 8.49645,13.448477 10.93938,15.185311 20.09569,14.287313 8.1657,-0.800846 12.06777,-3.936116 18.01496,-14.474814 4.17533,-7.398899 8.01654,-14.64842 8.53601,-16.110047 0.51947,-1.461628 8.86963,-0.957868 18.5559,1.119466 15.87766,3.405148 17.61506,4.660018 17.64843,12.746912 0.1507,36.523528 9.41005,44.129744 35.7795,29.391576 l 15.828,-8.846439 12.81243,12.511012 12.81244,12.511013 -9.99685,17.71344 c -14.2467,25.243762 -8.3561,34.812432 21.43098,34.812432 8.3362,0 15.8554,1.13506 16.7093,2.52235 0.85393,1.3873 2.61278,9.60644 3.90863,18.26475 l 2.35601,15.74241 -17.16266,8.69698 c -14.7395,7.46908 -17.16268,10.084 -17.16268,18.52077 0,7.79077 3.13199,12.07301 15.13411,20.69228 8.32376,5.97767 15.13411,12.09473 15.13411,13.59345 0,1.49873 -2.50984,8.99769 -5.57742,16.66436 l -5.57745,13.93939 -19.77015,-1.79269 c -18.3339,-1.66246 -20.17051,-1.18164 -25.28146,6.61866 -5.14101,7.84617 -5.08504,9.66545 0.83301,27.07609 l 6.34435,18.66474 -11.51211,9.61073 c -6.33165,5.28591 -13.08268,9.54923 -15.00228,9.47405 -1.9196,-0.0752 -8.72995,-4.6154 -15.13411,-10.0894 -20.54154,-17.55802 -37.65952,-10.24671 -41.8784,17.88681 -2.48048,16.541 -5.87831,19.24436 -24.18808,19.24436 -9.3101,0 -12.21663,-1.67666 -14.83221,-8.55616 z m 40.52722,-65.86408 c 19.52116,-5.84868 43.44431,-26.05175 54.78814,-46.26851 8.19685,-14.60827 10.45568,-23.16119 11.6737,-44.20171 1.30631,-22.56568 0.38696,-28.54216 -6.80815,-44.25835 -11.4935,-25.10512 -26.58434,-41.15967 -49.06672,-52.200176 -15.82126,-7.769402 -23.44667,-9.371469 -44.33152,-9.313861 -42.17865,0.11633 -73.70227,19.816237 -91.327989,57.073157 -15.419637,32.59374 -12.936022,68.55359 6.894395,99.82291 23.757144,37.46114 71.460304,53.34354 118.178144,39.34654 z"
     id="path4134"
     inkscape:connector-curvature="0" /></svg>