<?xml version="1.0" encoding="UTF-8" standalone="no"?>
<svg
   xmlns:dc="http://purl.org/dc/elements/1.1/"
   xmlns:cc="http://creativecommons.org/ns#"
   xmlns:rdf="http://www.w3.org/1999/02/22-rdf-syntax-ns#"
   xmlns:svg="http://www.w3.org/2000/svg"
   xmlns="http://www.w3.org/2000/svg"
   xmlns:sodipodi="http://sodipodi.sourceforge.net/DTD/sodipodi-0.dtd"
   xmlns:inkscape="http://www.inkscape.org/namespaces/inkscape"
   viewBox="0 0 212.59843 212.59842"
   id="svg2"
   version="1.1"
   inkscape:version="0.91 r13725"
   sodipodi:docname="logOut.svg">
  <metadata
     id="metadata14">
    <rdf:RDF>
      <cc:Work
         rdf:about="">
        <dc:format>image/svg+xml</dc:format>
        <dc:type
           rdf:resource="http://purl.org/dc/dcmitype/StillImage" />
      </cc:Work>
    </rdf:RDF>
  </metadata>
  <defs
     id="defs12" />
  <sodipodi:namedview
     pagecolor="#ffffff"
     bordercolor="#666666"
     borderopacity="1"
     objecttolerance="10"
     gridtolerance="10"
     guidetolerance="10"
     inkscape:pageopacity="0"
     inkscape:pageshadow="2"
     inkscape:window-width="1920"
     inkscape:window-height="1022"
     id="namedview10"
     showgrid="false"
     inkscape:zoom="1.1100741"
     inkscape:cx="108.1009"
     inkscape:cy="106.29921"
     inkscape:window-x="0"
     inkscape:window-y="0"
     inkscape:window-maximized="1"
     inkscape:current-layer="svg2" />
  <g
     transform="translate(-241.43 -409.02)"
     id="g4">
    <path
       d="m295.02 409.02-0.4375 35.433h124.02v141.73h-124.02v35.433h159.45v-212.6h-159.01z"
       fill-rule="evenodd"
       id="path6" />
    <path
       d="m400.88 533.04-88.583-1e-5 35.433 35.433-53.15-1e-5 -53.15-53.15 53.15-53.15h53.15l-35.433 35.433h88.583v35.433z"
       id="path8" />
  </g>
  <path
     style="fill:#ffffff;fill-opacity:1;stroke:#000000;stroke-width:1.80168152;stroke-miterlimit:4;stroke-dasharray:none;stroke-opacity:1"
     d="M 26.884331,132.55304 0.5404175,106.19777 26.895689,79.853854 53.25096,53.509941 l 26.110086,0 26.110094,0 -17.549074,17.566395 -17.549068,17.566395 44.357742,0 44.35775,0 0,17.566399 0,17.56639 -44.35775,0 -44.357742,0 17.549068,17.5664 17.549074,17.56639 -26.121451,0 -26.121445,0 -26.343913,-26.35527 z"
     id="path4142"
     inkscape:connector-curvature="0" />
  <path
     style="fill:#ffffff;fill-opacity:1;stroke:#000000;stroke-width:1.80168152;stroke-miterlimit:4;stroke-dasharray:none;stroke-opacity:1"
     d="m 53.690117,194.94815 0,-17.10977 61.932803,-0.23142 61.9328,-0.23141 0,-71.16642 0,-71.166424 -61.9328,-0.231419 -61.932803,-0.23142 0,-17.109765 0,-17.1097657 79.273983,0 79.27399,0 0,105.8487937 0,105.84878 -79.27399,0 -79.273983,0 0,-17.10976 z"
     id="path4144"
     inkscape:connector-curvature="0" />
</svg>
