<?xml version="1.0" encoding="UTF-8" standalone="no"?>
<svg
   xmlns:dc="http://purl.org/dc/elements/1.1/"
   xmlns:cc="http://creativecommons.org/ns#"
   xmlns:rdf="http://www.w3.org/1999/02/22-rdf-syntax-ns#"
   xmlns:svg="http://www.w3.org/2000/svg"
   xmlns="http://www.w3.org/2000/svg"
   xmlns:sodipodi="http://sodipodi.sourceforge.net/DTD/sodipodi-0.dtd"
   xmlns:inkscape="http://www.inkscape.org/namespaces/inkscape"
   width="512"
   height="512"
   version="1.1"
   viewBox="0 0 144.49778 144.49778"
   id="svg2"
   inkscape:version="0.91 r"
   sodipodi:docname="axe.svg">
  <metadata
     id="metadata108">
    <rdf:RDF>
      <cc:Work
         rdf:about="">
        <dc:format>image/svg+xml</dc:format>
        <dc:type
           rdf:resource="http://purl.org/dc/dcmitype/StillImage" />
        <dc:title></dc:title>
      </cc:Work>
    </rdf:RDF>
  </metadata>
  <defs
     id="defs106" />
  <sodipodi:namedview
     pagecolor="#ffffff"
     bordercolor="#666666"
     borderopacity="1"
     objecttolerance="10"
     gridtolerance="10"
     guidetolerance="10"
     inkscape:pageopacity="0"
     inkscape:pageshadow="2"
     inkscape:window-width="1061"
     inkscape:window-height="634"
     id="namedview104"
     showgrid="false"
     inkscape:zoom="0.44851478"
     inkscape:cx="294.01191"
     inkscape:cy="258.63139"
     inkscape:window-x="0"
     inkscape:window-y="0"
     inkscape:window-maximized="0"
     inkscape:current-layer="svg2"
     units="px" />
  <g
     transform="matrix(0.26418614,0,0,0.23932948,-0.12230228,-29.527726)"
     id="g4"
     style="fill-rule:evenodd">
    <path
       d="m 248.02,230.38 c 9.3726,-2.5114 19.096,3.1023 21.607,12.475 l 122.95,458.86 c 2.5114,9.3727 -3.1023,19.096 -12.475,21.607 -9.3727,2.5114 -19.096,-3.1023 -21.607,-12.475 l -122.95,-458.86 c -2.5114,-9.3726 3.1023,-19.096 12.475,-21.607 z"
       id="path6"
       inkscape:connector-curvature="0"
       style="fill:#85735c;stroke:#1b1918;stroke-width:7.99989986" />
    <path
       d="m 354.03,694.22 38.872,8.7398"
       id="path8"
       inkscape:connector-curvature="0"
       style="fill:#ffffff;stroke:#1b1918;stroke-width:7.99989986" />
    <path
       d="m 348.9,675.05 38.872,8.7398"
       id="path10"
       inkscape:connector-curvature="0"
       style="fill:#ffffff;stroke:#1b1918;stroke-width:7.99989986" />
    <path
       d="m 343.76,655.89 38.872,8.7398"
       id="path12"
       inkscape:connector-curvature="0"
       style="fill:#ffffff;stroke:#1b1918;stroke-width:7.99989986" />
    <path
       d="m 338.63,636.72 38.872,8.7398"
       id="path14"
       inkscape:connector-curvature="0"
       style="fill:#ffffff;stroke:#1b1918;stroke-width:7.99989986" />
    <path
       d="m 333.49,617.55 38.872,8.7398"
       id="path16"
       inkscape:connector-curvature="0"
       style="fill:#ffffff;stroke:#1b1918;stroke-width:7.99989986" />
    <path
       d="m 328.36,598.39 38.872,8.7398"
       id="path18"
       inkscape:connector-curvature="0"
       style="fill:#ffffff;stroke:#1b1918;stroke-width:7.99989986" />
    <path
       d="m 323.22,579.22 38.872,8.7398"
       id="path20"
       inkscape:connector-curvature="0"
       style="fill:#ffffff;stroke:#1b1918;stroke-width:7.99989986" />
    <path
       d="m 318.09,560.05 38.872,8.7398"
       id="path22"
       inkscape:connector-curvature="0"
       style="fill:#ffffff;stroke:#1b1918;stroke-width:7.99989986" />
    <path
       d="m 312.95,540.89 38.872,8.7398"
       id="path24"
       inkscape:connector-curvature="0"
       style="fill:#ffffff;stroke:#1b1918;stroke-width:7.99989986" />
    <path
       d="m 307.81,521.72 38.872,8.7398"
       id="path26"
       inkscape:connector-curvature="0"
       style="fill:#ffffff;stroke:#1b1918;stroke-width:7.99989986" />
    <path
       d="m 302.68,502.56 38.872,8.7398"
       id="path28"
       inkscape:connector-curvature="0"
       style="fill:#ffffff;stroke:#1b1918;stroke-width:7.99989986" />
    <path
       d="m 297.54,483.39 38.872,8.7398"
       id="path30"
       inkscape:connector-curvature="0"
       style="fill:#ffffff;stroke:#1b1918;stroke-width:7.99989986" />
    <path
       d="m 292.41,464.22 38.872,8.7398"
       id="path32"
       inkscape:connector-curvature="0"
       style="fill:#ffffff;stroke:#1b1918;stroke-width:7.99989986" />
    <path
       d="m 287.27,445.06 38.872,8.7398"
       id="path34"
       inkscape:connector-curvature="0"
       style="fill:#ffffff;stroke:#1b1918;stroke-width:7.99989986" />
    <path
       d="m 282.14,425.89 38.872,8.7398"
       id="path36"
       inkscape:connector-curvature="0"
       style="fill:#ffffff;stroke:#1b1918;stroke-width:7.99989986" />
    <path
       d="m 277,406.72 38.872,8.7398"
       id="path38"
       inkscape:connector-curvature="0"
       style="fill:#ffffff;stroke:#1b1918;stroke-width:7.99989986" />
    <path
       d="m 271.86,387.56 38.872,8.7398"
       id="path40"
       inkscape:connector-curvature="0"
       style="fill:#ffffff;stroke:#1b1918;stroke-width:7.99989986" />
    <path
       d="m 104.04,214.69 c -4.5774,-2.2712 -9.2608,-4.6116 -14.056,-7.0208 -29.607,42.595 -33.695,99.873 -18.716,152.93 0.8934,4.0481 2.1327,7.9941 3.699,11.846 16.466,48.404 48.82,91.992 91.977,115.79 3.9827,-4.9697 7.8364,-9.8197 11.58,-14.55 -63.926,-76.209 -86.612,-173.52 -74.485,-259 z"
       id="path42"
       inkscape:connector-curvature="0"
       style="fill:#b1b3b4;stroke:#1b1918;stroke-width:7.99989986" />
    <path
       d="m 364.86,144.8 c -0.6326,0.9519 -1.262,1.8974 -1.889,2.8377 -41.126,61.673 -70.369,98.821 -106.98,112.5 -38.417,6.4376 -82.153,-10.974 -148.23,-43.609 -1.2331,-0.6089 -2.4724,-1.2221 -3.7212,-1.8416 -12.127,85.483 10.559,182.79 74.485,259 0.8439,-1.066 1.6812,-2.1247 2.514,-3.1783 40.602,-51.377 68.161,-87.969 103.25,-104.75 38.788,-3.0106 80.956,14.904 141.82,39.1 1.2409,0.4936 2.4888,0.9889 3.7454,1.4874 17.257,-97.962 -11.75,-193.58 -64.994,-261.54 z"
       id="path44"
       inkscape:connector-curvature="0"
       style="fill:#9c9e9f;stroke:#1b1918;stroke-width:7.99989986" />
    <path
       d="m 373.52,131.69 c -2.948,4.4841 -5.833,8.8523 -8.6615,13.108 53.243,67.967 82.25,163.58 64.994,261.54 5.6078,2.2244 11.369,4.498 17.303,6.8105 25.476,-42.189 31.702,-96.115 21.759,-146.27 -0.5691,-4.1183 -1.4687,-8.1557 -2.7193,-12.108 -13.56,-53.441 -45.737,-101 -92.675,-123.09 z"
       id="path46"
       inkscape:connector-curvature="0"
       style="fill:#b1b3b4;stroke:#1b1918;stroke-width:7.99989986" />
    <path
       d="m 190.24,384.4 -0.2866,-0.3226 c -0.7613,-0.7151 -1.5944,-1.0031 -2.6279,-1.0323 -0.4886,0.0121 -0.9293,0.0747 -1.4036,0.1795 -1.9177,0.5086 -3.6683,1.505 -5.2778,2.6412 1.5289,1.5814 2.9156,3.2838 4.2393,5.0423 2.171,0.3128 4.3352,0.6849 6.476,1.1789 0.1102,-0.8515 0.1733,-1.6884 0.1873,-2.5452 -0.0201,-1.7548 -0.2294,-3.6937 -1.3067,-5.1418 z"
       id="path48"
       inkscape:connector-curvature="0" />
    <path
       d="m 194.44,409.38 0.2371,0.8072 c 1.0423,-0.4735 2.0289,-1.0082 2.9909,-1.6325 1.3139,-0.9008 2.608,-1.9187 3.2433,-3.4248 0.1017,-0.2873 0.1702,-0.5533 0.2165,-0.8536 0.0859,-0.9345 -0.2172,-1.7536 -0.704,-2.5353 -1.3337,-1.9349 -3.5709,-3.0833 -5.6715,-3.9889 -0.6495,2.1531 -1.4249,4.2567 -2.2624,6.3434 z"
       id="path50"
       inkscape:connector-curvature="0" />
    <path
       d="m 160.22,397.76 c -1.9295,0.8577 -3.7987,1.9317 -5.2353,3.5095 -0.5722,0.6792 -0.9829,1.3392 -1.1778,2.2161 -0.1094,0.6782 -0.0692,1.2367 0.1566,1.889 0.6582,1.5836 2.0983,2.6638 3.5074,3.5526 0.8693,0.5171 1.7526,0.9575 2.6839,1.3509 0.608,-2.1667 1.3691,-4.2535 2.2758,-6.3085 -0.8712,-2.0292 -1.6066,-4.088 -2.2106,-6.2096 z"
       id="path52"
       inkscape:connector-curvature="0" />
    <path
       d="m 166.28,424.76 c 0.6929,0.1677 1.3061,0.1651 2.0075,0.0664 2.1465,-0.3959 4.1524,-1.5687 5.9072,-2.8186 -1.5169,-1.5422 -2.8976,-3.1904 -4.1921,-4.9209 -0.7685,-0.094 -1.5346,-0.2031 -2.3003,-0.3269 -1.4668,-0.2432 -2.925,-0.5544 -4.3772,-0.8814 -0.1205,1.1384 -0.161,2.2535 -0.0989,3.3999 0.1507,1.8698 0.5753,4.2936 2.4215,5.2463 0.2103,0.093 0.4131,0.1684 0.6323,0.2352 z"
       id="path54"
       inkscape:connector-curvature="0" />
    <path
       d="m 183.46,423.81 4.9884,1.0789 c 0.7439,-0.231 1.2816,-0.5967 1.7884,-1.1879 0.6001,-0.79 0.886,-1.632 1.0931,-2.5928 0.3315,-1.7932 0.3131,-3.5573 0.1114,-5.3636 -2.1346,0.5706 -4.2833,0.9476 -6.4751,1.1989 l -0.4046,0.5237 c -1.2522,1.5871 -2.5549,3.1376 -3.9951,4.5577 0.9263,0.663 1.8814,1.2561 2.8935,1.7851 z"
       id="path56"
       inkscape:connector-curvature="0" />
    <path
       d="m 187.73,404.34 0.1716,-0.3673 c -1.4647,-3.1937 -3.2301,-6.2372 -5.256,-9.1039 -1.7733,-0.0771 -3.5469,-0.1953 -5.3157,-0.3062 -1.7394,0.0438 -3.491,0.1252 -5.217,0.3438 -0.8231,1.0557 -1.5029,2.2274 -2.2073,3.367 -0.9049,1.4618 -1.7074,2.9845 -2.4722,4.5276 -0.1758,0.3612 -0.3503,0.7252 -0.52,1.0929 0.6679,1.5025 1.3604,2.9789 2.1636,4.4167 0.9585,1.6792 2.033,3.2548 3.1686,4.8193 1.3488,0.1019 2.6882,0.1929 4.0398,0.1958 1.3367,-0.013 2.6675,0.007 4.0038,-0.0436 0.7998,-0.0379 1.6001,-0.0915 2.3992,-0.1692 1.0786,-1.374 1.9794,-2.8904 2.8065,-4.4241 0.8226,-1.4163 1.5356,-2.8701 2.2351,-4.3488 z"
       id="path58"
       inkscape:connector-curvature="0" />
    <path
       d="m 170.27,383.66 -0.6995,-0.2583 c -1.2338,-0.3943 -2.4061,-0.5943 -3.6488,-0.1175 l -0.3888,0.1928 c -1.1619,0.7225 -1.6649,1.7749 -1.9969,3.0691 -0.4066,1.8668 -0.4008,3.744 -0.2082,5.6413 2.1416,-0.5503 4.3017,-0.902 6.4987,-1.1209 1.3541,-1.8178 2.7782,-3.5582 4.3748,-5.1689 -1.2384,-0.8958 -2.5225,-1.6501 -3.9313,-2.2376 z"
       id="path60"
       inkscape:connector-curvature="0" />
    <path
       d="m 163.6,263.75 -0.0869,-0.4227 c -0.3017,-1 -0.8792,-1.6659 -1.7596,-2.2079 -0.4292,-0.2339 -0.8422,-0.4 -1.3054,-0.5464 -1.915,-0.5184 -3.9293,-0.5308 -5.8913,-0.3516 0.5334,2.1341 0.8831,4.3017 1.1502,6.4865 1.7237,1.3563 3.412,2.7607 5.019,4.2589 0.5212,-0.6823 0.9942,-1.3755 1.4347,-2.1106 0.8601,-1.5297 1.6483,-3.3135 1.4393,-5.1062 z"
       id="path62"
       inkscape:connector-curvature="0" />
    <path
       d="m 154.75,287.47 -0.1983,0.8176 c 1.1394,0.111 2.2611,0.1413 3.4064,0.0816 1.5883,-0.1232 3.218,-0.3577 4.5212,-1.3443 0.2318,-0.1979 0.424,-0.3941 0.6143,-0.631 0.5416,-0.7664 0.6887,-1.6273 0.658,-2.5476 -0.1876,-2.3425 -1.5509,-4.4557 -2.9173,-6.2903 -1.639,1.5399 -3.3623,2.974 -5.1309,4.3624 z"
       id="path64"
       inkscape:connector-curvature="0" />
    <path
       d="m 130.93,260.31 c -2.0999,-0.2219 -4.2556,-0.2264 -6.2887,0.4218 -0.8351,0.3021 -1.5208,0.6683 -2.1281,1.3302 -0.4338,0.5326 -0.6783,1.0364 -0.8088,1.7143 -0.2218,1.7005 0.4853,3.3561 1.2612,4.8303 0.4943,0.8825 1.0391,1.7055 1.6488,2.5119 1.6099,-1.5725 3.3125,-2.9991 5.1252,-4.3255 0.2601,-2.193 0.6527,-4.3436 1.1904,-6.483 z"
       id="path66"
       inkscape:connector-curvature="0" />
    <path
       d="m 122.68,286.72 c 0.5163,0.4916 1.0486,0.796 1.7054,1.0612 2.0569,0.7304 4.3804,0.7177 6.5251,0.5126 -0.5426,-2.094 -0.9142,-4.2117 -1.17,-6.3577 -0.6186,-0.4657 -1.2276,-0.9431 -1.8287,-1.4332 -1.1487,-0.944 -2.256,-1.9427 -3.3501,-2.9519 -0.6736,0.9256 -1.2662,1.8711 -1.7855,2.8949 -0.8045,1.6946 -1.6486,4.006 -0.5262,5.7542 0.1357,0.1857 0.2736,0.3524 0.43,0.5199 z"
       id="path68"
       inkscape:connector-curvature="0" />
    <path
       d="m 138.03,294.48 3.7806,3.4285 c 0.7598,0.1719 1.4083,0.124 2.1428,-0.1346 0.9147,-0.3841 1.5833,-0.9703 2.243,-1.6989 1.1838,-1.3872 2.0499,-2.9241 2.7783,-4.5892 -2.1339,-0.5733 -4.1832,-1.3211 -6.207,-2.1993 l -0.6123,0.2511 c -1.8779,0.7485 -3.7814,1.4399 -5.7387,1.9496 0.4707,1.0373 1.0013,2.0285 1.6133,2.9928 z"
       id="path70"
       inkscape:connector-curvature="0" />
    <path
       d="m 151.46,279.76 0.3323,-0.2323 c 0.3283,-3.4982 0.3212,-7.0167 0,-10.512 -1.4971,-0.9534 -2.974,-1.9426 -4.4504,-2.923 -1.5282,-0.8318 -3.0858,-1.6371 -4.6899,-2.3108 -1.2408,0.5027 -2.4153,1.1776 -3.5951,1.8123 -1.5145,0.8135 -2.9709,1.7309 -4.4048,2.6849 -0.3328,0.2248 -0.666,0.4528 -0.9968,0.6864 -0.1729,1.6352 -0.3112,3.26 -0.3346,4.9069 -0.01,1.9334 0.1333,3.8352 0.3345,5.7578 1.1171,0.7627 2.2315,1.5112 3.4006,2.1896 1.1642,0.657 2.3064,1.3402 3.4892,1.9641 0.7116,0.367 1.4315,0.7207 2.1624,1.053 1.6211,-0.6505 3.1594,-1.5135 4.6426,-2.4281 1.4204,-0.8153 2.7648,-1.7178 4.11,-2.6486 z"
       id="path72"
       inkscape:connector-curvature="0" />
    <path
       d="m 146.68,253.12 -0.4767,-0.5735 c -0.8713,-0.9583 -1.7865,-1.7177 -3.1011,-1.9261 l -0.4331,-0.0274 c -1.3675,0.0447 -2.3294,0.7046 -3.264,1.6594 -1.2855,1.4134 -2.2191,3.0421 -3.0009,4.7815 2.1298,0.5941 4.1764,1.3696 6.1884,2.2785 2.0816,-0.8972 4.1852,-1.6923 6.3732,-2.289 -0.6246,-1.3949 -1.3595,-2.6903 -2.2858,-3.9034 z"
       id="path74"
       inkscape:connector-curvature="0" />
    <path
       d="m 375.07,334.88 0.0869,-0.4227 c 0.3017,-1 0.8792,-1.6659 1.7596,-2.2079 0.4292,-0.2339 0.8422,-0.4 1.3054,-0.5464 1.915,-0.5184 3.9293,-0.5308 5.8913,-0.3516 -0.5334,2.1341 -0.8831,4.3017 -1.1502,6.4865 -1.7237,1.3563 -3.4119,2.7607 -5.019,4.2589 -0.5212,-0.6823 -0.9942,-1.3755 -1.4347,-2.1106 -0.8601,-1.5297 -1.6483,-3.3135 -1.4393,-5.1062 z"
       id="path76"
       inkscape:connector-curvature="0" />
    <path
       d="m 383.91,358.61 0.1982,0.8176 c -1.1394,0.111 -2.2611,0.1413 -3.4064,0.0816 -1.5883,-0.1232 -3.218,-0.3577 -4.5212,-1.3443 -0.2318,-0.1979 -0.424,-0.3941 -0.6143,-0.631 -0.5416,-0.7664 -0.6887,-1.6273 -0.6579,-2.5476 0.1875,-2.3425 1.5508,-4.4557 2.9172,-6.2903 1.639,1.5399 3.3623,2.974 5.1309,4.3624 z"
       id="path78"
       inkscape:connector-curvature="0" />
    <path
       d="m 407.74,331.44 c 2.0999,-0.2219 4.2556,-0.2264 6.2887,0.4218 0.8351,0.3021 1.5208,0.6683 2.1281,1.3302 0.4338,0.5326 0.6783,1.0364 0.8088,1.7143 0.2218,1.7005 -0.4853,3.3561 -1.2612,4.8303 -0.4942,0.8825 -1.0391,1.7055 -1.6488,2.5119 -1.6099,-1.5725 -3.3124,-2.9991 -5.1252,-4.3255 -0.2601,-2.193 -0.6526,-4.3436 -1.1904,-6.483 z"
       id="path80"
       inkscape:connector-curvature="0" />
    <path
       d="m 415.99,357.85 c -0.5162,0.4916 -1.0486,0.796 -1.7054,1.0612 -2.0569,0.7304 -4.3804,0.7177 -6.5251,0.5126 0.5426,-2.094 0.9143,-4.2117 1.17,-6.3577 0.6186,-0.4657 1.2276,-0.9431 1.8287,-1.4332 1.1487,-0.944 2.256,-1.9427 3.3502,-2.9519 0.6735,0.9256 1.2661,1.8711 1.7855,2.8949 0.8044,1.6946 1.6486,4.006 0.5261,5.7542 -0.1357,0.1857 -0.2736,0.3524 -0.43,0.5199 z"
       id="path82"
       inkscape:connector-curvature="0" />
    <path
       d="m 400.63,365.62 -3.7806,3.4285 c -0.7598,0.1719 -1.4082,0.124 -2.1428,-0.1346 -0.9147,-0.3841 -1.5832,-0.9703 -2.243,-1.6989 -1.1837,-1.3872 -2.0498,-2.9241 -2.7783,-4.5892 2.1339,-0.5733 4.1833,-1.3211 6.207,-2.1994 l 0.6123,0.2512 c 1.878,0.7485 3.7815,1.4399 5.7387,1.9496 -0.4707,1.0373 -1.0013,2.0285 -1.6133,2.9928 z"
       id="path84"
       inkscape:connector-curvature="0" />
    <path
       d="m 387.2,350.89 -0.3322,-0.2323 c -0.3284,-3.4982 -0.3213,-7.0167 -10e-5,-10.512 1.4971,-0.9534 2.9741,-1.9426 4.4504,-2.923 1.5282,-0.8318 3.0858,-1.6371 4.6899,-2.3108 1.2408,0.5027 2.4153,1.1776 3.5951,1.8123 1.5145,0.8135 2.9709,1.7309 4.4048,2.6849 0.3329,0.2248 0.666,0.4528 0.9968,0.6864 0.1729,1.6352 0.3112,3.26 0.3346,4.9069 0.01,1.9334 -0.1333,3.8352 -0.3345,5.7578 -1.1171,0.7627 -2.2315,1.5112 -3.4006,2.1896 -1.1642,0.657 -2.3064,1.3402 -3.4892,1.9641 -0.7116,0.367 -1.4314,0.7207 -2.1623,1.053 -1.6211,-0.6505 -3.1594,-1.5135 -4.6427,-2.4281 -1.4204,-0.8153 -2.7648,-1.7178 -4.11,-2.6486 z"
       id="path86"
       inkscape:connector-curvature="0" />
    <path
       d="m 391.99,324.25 0.4767,-0.5735 c 0.8713,-0.9583 1.7865,-1.7177 3.1011,-1.9261 l 0.4332,-0.0274 c 1.3675,0.0447 2.3293,0.7046 3.2639,1.6594 1.2856,1.4134 2.2191,3.0421 3.0009,4.7815 -2.1298,0.5941 -4.1764,1.3696 -6.1884,2.2785 -2.0816,-0.8972 -4.1852,-1.6923 -6.3732,-2.289 0.6246,-1.3949 1.3595,-2.6903 2.2858,-3.9034 z"
       id="path88"
       inkscape:connector-curvature="0" />
    <path
       d="m 337.81,217.07 -0.1361,-0.4095 c -0.2387,-1.0168 -0.0716,-1.8823 0.4199,-2.7919 0.2548,-0.4171 0.5294,-0.7675 0.8573,-1.1259 1.3993,-1.4065 3.1375,-2.4243 4.9262,-3.2501 0.6051,2.1148 1.386,4.1669 2.2471,6.1926 -0.8146,2.0364 -1.5744,4.0967 -2.217,6.1978 -0.7926,-0.3304 -1.5488,-0.6942 -2.2979,-1.1105 -1.5097,-0.8947 -3.0841,-2.0455 -3.7995,-3.7025 z"
       id="path90"
       inkscape:connector-curvature="0" />
    <path
       d="m 357.33,233.19 0.5805,0.6089 c -0.9312,0.6659 -1.8875,1.2529 -2.9092,1.7739 -1.4371,0.6875 -2.9657,1.2992 -4.5877,1.0964 -0.2996,-0.0555 -0.5642,-0.1293 -0.8474,-0.2393 -0.8523,-0.3929 -1.4101,-1.065 -1.8437,-1.8773 -1.0088,-2.1225 -0.8847,-4.6342 -0.6187,-6.9062 2.1894,0.5141 4.3988,0.8944 6.6247,1.2125 z"
       id="path92"
       inkscape:connector-curvature="0" />
    <path
       d="m 364.38,197.76 c 1.7075,-1.2421 3.5722,-2.3239 5.657,-2.7791 0.8743,-0.1559 1.6512,-0.1816 2.5081,0.088 0.642,0.2444 1.1056,0.5584 1.5576,1.0802 1.0423,1.3618 1.2578,3.1491 1.3229,4.8138 0.0132,1.0114 -0.0471,1.9965 -0.172,2.9997 -2.1803,-0.5568 -4.3681,-0.941 -6.6012,-1.1834 -1.3217,-1.769 -2.7371,-3.4353 -4.2724,-5.0192 z"
       id="path94"
       inkscape:connector-curvature="0" />
    <path
       d="m 384.73,216.5 c -0.2012,0.6839 -0.5101,1.2137 -0.9463,1.7717 -1.4161,1.6611 -3.4347,2.8118 -5.3946,3.7066 -0.5771,-2.0848 -1.3141,-4.1046 -2.1655,-6.091 0.3028,-0.7126 0.5915,-1.4305 0.8671,-2.1555 0.5227,-1.3919 0.9823,-2.8104 1.4253,-4.2315 1.0461,0.4648 2.032,0.9874 2.9938,1.6143 1.5439,1.0654 3.4307,2.645 3.3327,4.7202 -0.0247,0.2287 -0.0608,0.442 -0.1125,0.6652 z"
       id="path96"
       inkscape:connector-curvature="0" />
    <path
       d="m 375.32,230.91 -1.5599,4.8595 c -0.572,0.5288 -1.1575,0.8116 -1.923,0.9549 -0.9841,0.1247 -1.8562,-0.0487 -2.7919,-0.3498 -1.7188,-0.6095 -3.2373,-1.5075 -4.7007,-2.5852 1.5614,-1.5635 2.9623,-3.2357 4.2758,-5.0082 l 0.6558,-0.0886 c 2.0006,-0.2909 3.9948,-0.6438 5.9447,-1.181 0.111,1.1337 0.1471,2.2573 0.0992,3.3984 z"
       id="path98"
       inkscape:connector-curvature="0" />
    <path
       d="m 356.32,224.86 -0.4039,-0.0351 c -2.0334,-2.8653 -3.7865,-5.916 -5.2561,-9.1038 0.8198,-1.5742 1.6043,-3.1693 2.3926,-4.7566 0.9076,-1.4844 1.8539,-2.9607 2.9062,-4.3461 1.3259,-0.185 2.6805,-0.1878 4.0196,-0.2281 1.7184,-0.0527 3.4384,0.0136 5.1571,0.1228 0.4007,0.0283 0.8032,0.0592 1.2065,0.0961 0.9673,1.3297 1.8996,2.6676 2.7432,4.0821 0.975,1.6697 1.8022,3.388 2.5893,5.1537 -0.5861,1.2191 -1.177,2.4245 -1.8503,3.5965 -0.6797,1.1511 -1.3273,2.3139 -2.0396,3.4456 -0.4328,0.6736 -0.8794,1.3399 -1.3462,1.9931 -1.7292,0.2472 -3.4929,0.269 -5.2347,0.2185 -1.6378,0.004 -3.2533,-0.1052 -4.8837,-0.2387 z"
       id="path100"
       inkscape:connector-curvature="0" />
    <path
       d="m 347.14,199.4 0.126,-0.735 c 0.2755,-1.2656 0.6884,-2.3808 1.7226,-3.2186 l 0.3614,-0.2404 c 1.2067,-0.645 2.3696,-0.5544 3.6564,-0.1948 1.82,0.5813 3.4428,1.525 4.9896,2.6404 -1.5474,1.5795 -2.932,3.2744 -4.2201,5.0675 -2.2513,0.2638 -4.4706,0.627 -6.6638,1.2043 -0.1565,-1.5204 -0.1678,-3.0096 0.0279,-4.5234 z"
       id="path102"
       inkscape:connector-curvature="0" />
  </g>
</svg>
