<?xml version="1.0" encoding="UTF-8"?>
<!DOCTYPE svg  PUBLIC '-//W3C//DTD SVG 1.1//EN'  'http://www.w3.org/Graphics/SVG/1.1/DTD/svg11.dtd'>
<svg enable-background="new 0 0 50 50" version="1.1" viewBox="0 0 50 50" xml:space="preserve" xmlns="http://www.w3.org/2000/svg" xmlns:xlink="http://www.w3.org/1999/xlink">
<symbol id="v" viewBox="0 -1.55 0.5 1.55">
		<linearGradient id="ag" x1="-2.8374" x2="8.8376" y1="-.7749" y2="-.7749" gradientUnits="userSpaceOnUse">
			<stop stop-color="#fff" stop-opacity=".2" offset=".0627"/>
			<stop stop-color="#fff" stop-opacity=".2" offset=".1647"/>
		</linearGradient>
		<path d="m0-0.85c0 0.4 0.083 0.683 0.25 0.85 0-0.067 0.017-0.333 0.05-0.8 0.034-0.3 0.1-0.55 0.2-0.75h-0.05l-0.4 0.6-0.05 0.1z" clip-rule="evenodd" fill="url(#ag)" fill-rule="evenodd"/>
</symbol>
<symbol id="w" viewBox="0.039 -7.178 9.162 7.178">
		<linearGradient id="ah" x1="-2.4873" x2="9.1877" y1="-3.5889" y2="-3.5889" gradientUnits="userSpaceOnUse">
			<stop stop-color="#fff" stop-opacity=".2" offset=".0627"/>
			<stop stop-color="#fff" stop-opacity=".2" offset=".1647"/>
		</linearGradient>
		<path d="m5.35-0.9c0.433-0.1 1.083-0.117 1.95-0.05s1.5 0.067 1.9 0c-1.567-0.566-3.15-0.733-4.75-0.5-0.967 0.067-1.583 0.083-1.85 0.05-0.067-0.133-0.133-0.367-0.2-0.7-0.067-0.267-0.2-0.5-0.4-0.7-0.167-0.167-0.45-0.383-0.85-0.65-0.267-0.267-0.35-0.583-0.25-0.95 0.233 0 0.567-0.067 1-0.2 0.434-0.167 0.75-0.25 0.95-0.25 0.267-0.033 0.667 0 1.2 0.1 0.534 0.067 0.934 0.083 1.2 0.05-0.467-0.2-0.8-0.333-1-0.4-0.333-0.167-0.583-0.4-0.75-0.7-0.167-0.367-0.25-0.817-0.25-1.35-0.333-0.1-0.733 0.066-1.2 0.5-0.4 0.367-0.783 0.417-1.15 0.15l-0.05-0.05c-0.1 0.2-0.167 0.45-0.2 0.75-0.033 0.467-0.05 0.733-0.05 0.8-0.167-0.167-0.25-0.45-0.25-0.85-0.3 0.5-0.383 1.05-0.25 1.65 0.1 0.567 0.35 1.067 0.75 1.5-0.3 0.4-0.4 1.3-0.3 2.7 0.5-0.3 1.184-0.517 2.05-0.65h1.25c0.367 0 0.867-0.083 1.5-0.25z" clip-rule="evenodd" fill="url(#ah)" fill-rule="evenodd"/>
</symbol>
<symbol id="ap" viewBox="0.016 -14.8 19.935 14.816">
			<path d="m11.6-0.05l2.75-1.25c1.1-0.3 2.133-0.767 3.1-1.4 0.233-0.2 0.617-0.533 1.15-1 0.467-0.4 0.9-0.616 1.3-0.65 0.1-1.933-0.134-3.183-0.7-3.75-0.167-0.2-0.4-0.4-0.7-0.6-0.233-0.2-0.383-0.45-0.45-0.75-0.034-0.233-0.067-0.5-0.1-0.8-0.033-0.233-0.184-0.45-0.45-0.65-1.233-1-2.633-1.7-4.2-2.1-1-0.267-1.9-0.617-2.7-1.05-1.1-0.5-2.216-0.75-3.35-0.75-0.3 0-0.917 0.133-1.85 0.4-1.134 0.1-1.917 0.233-2.35 0.4-0.333 0.167-0.65 0.65-0.95 1.45l-1.05 3c-0.067 0.234-0.283 0.633-0.65 1.2-0.333 0.5-0.45 1.067-0.35 1.7 0.1 0.6 0.367 1.117 0.8 1.55-0.3 0.4-0.4 1.317-0.3 2.75 0.033 0.733 0.667 1.167 1.9 1.3s1.983 0.267 2.25 0.4c0.767 0.333 1.4 0.533 1.9 0.6 0.667 0.067 1.5 0.083 2.5 0.05 0.567 0 1.4-0.017 2.5-0.05z" clip-rule="evenodd" fill="#81675C" fill-rule="evenodd"/>
			<g clip-rule="evenodd" fill-rule="evenodd">
				<path d="m15.75-10.55c-0.7-0.4-1.917-0.667-3.65-0.8l-0.6 0.05c0.4 0.1 1.184 0.533 2.35 1.3 0.934 0.633 1.767 0.917 2.5 0.85l1.4-0.25-2-1.15z" fill="#8C8D8A"/>
				<path d="m11-9.45c-0.966-0.333-2.2-0.5-3.7-0.5-0.534 0-1.867 0.067-4 0.2l1.6 0.05c-0.067 0.4-0.616 0.617-1.65 0.65-1.167-0.067-1.933-0.1-2.3-0.1l-0.55 0.8c-0.167 0.233-0.283 0.517-0.35 0.85l0.6-0.25c0.533-0.1 1.25-0.133 2.15-0.1 0.466 0 1.167 0.017 2.1 0.05 0.633 0 1.6-0.034 2.9-0.1 1.167 0 2.133 0.033 2.9 0.1 0.467 0.066 1 0.283 1.6 0.65 0.667 0.433 1.183 0.7 1.55 0.8 0.467 0.1 1.284 0.083 2.45-0.05 0.667 0 1.1 0.017 1.3 0.05 0.4 0.067 0.75 0.25 1.05 0.55 0.533 0.6 0.95 1.066 1.25 1.4 0.066-0.4 0.066-0.883 0-1.45l-0.05-0.05c-0.667-0.7-1.083-1.117-1.25-1.25-0.433-0.367-0.917-0.583-1.45-0.65-0.767 0.066-1.317 0.083-1.65 0.05-0.6-0.133-1.366-0.4-2.3-0.8-1.3-0.533-2.033-0.833-2.2-0.9z" fill="#8C8D8A"/>
				<path d="m3.8-11.4c-0.467 0.066-0.9 0.216-1.3 0.45-0.466 0.3-0.85 0.55-1.15 0.75l-0.15 0.1-0.1 0.4 2.05-0.05c0.767-0.167 1.917-0.533 3.45-1.1 1.467-0.367 2.55-0.566 3.25-0.6l0.05-0.05-3.1-0.05c-0.233 0.167-0.7 0.233-1.4 0.2-0.966-0.033-1.5-0.05-1.6-0.05z" fill="#8C8D8A"/>
				<path d="m9.1-4.1c-1.033-0.367-2-0.566-2.9-0.6 0.3 0.067 1.133 0.317 2.5 0.75 1 0.333 1.816 0.534 2.45 0.6-1-0.367-1.683-0.617-2.05-0.75z" fill="#AA907D"/>
				<path d="m1-3.8h0.6c0.067 0 0.434-0.217 1.1-0.65-0.7 0.167-1.266 0.384-1.7 0.65z" fill="#AA907D"/>
				<path d="m13.25-2.8h-1.1c-0.067-0.2-0.05-0.367 0.05-0.5 0.3-0.134 0.633-0.134 1 0 0.1 0.133 0.117 0.3 0.05 0.5zm-2.8 0.85l-1.9 0.55c-0.5 0.133-0.817 0.067-0.95-0.2-0.166-0.267-0.066-0.55 0.3-0.85 0.433-0.366 1.283-0.466 2.55-0.3 0.067 0.367 0.067 0.633 0 0.8zm3.9-0.2c1.067-0.434 1.733-0.4 2 0.1l1.1-0.65 0.9-0.8-0.95-0.7c0.2-0.366 0.45-0.466 0.75-0.3 0.267 0.167 0.4 0.434 0.4 0.8 0.267-0.2 0.583-0.4 0.95-0.6-0.4-0.5-1.283-0.934-2.65-1.3-1.333 0.067-2.267 0.3-2.8 0.7l1.15 1-0.3-0.1c0.566 0.333 1 0.717 1.3 1.15-0.633 0.133-1.367-0.084-2.2-0.65s-1.533-0.783-2.1-0.65c-0.067 0.367-0.1 0.617-0.1 0.75l-0.5 0.05c-0.5 0-1.333-0.05-2.5-0.15-1.067-0.1-1.9-0.133-2.5-0.1-0.866 0-1.967 0.183-3.3 0.55-0.667 0.133-1.133 0.317-1.4 0.55l-0.25 0.2c0.4 0.2 1.017 0.433 1.85 0.7 0.3 0.133 0.75 0.417 1.35 0.85 0.567 0.2 1.45 0.316 2.65 0.35 1.167 0.033 2.1-0.034 2.8-0.2 0.934-0.2 2.384-0.716 4.35-1.55z" fill="#AA907D"/>
				<path d="m3.45-5.85c0.4-0.066 1.2-0.1 2.4-0.1 1.067-0.066 1.767-0.283 2.1-0.65-2.3-0.466-4.916-0.417-7.85 0.15 0.167 0.5 0.417 0.95 0.75 1.35l-0.15 0.3c0.934-0.6 1.85-0.95 2.75-1.05z" fill="#56443D"/>
				<path d="m9.9-11.5l-0.05 0.05 1.45 0.1 0.2 0.05 1.2-0.1c0.566 0.033 1.45 0.216 2.65 0.55 1.167 0.333 2.05 0.8 2.65 1.4h0.05c-0.034-0.233-0.067-0.5-0.1-0.8-0.033-0.233-0.184-0.45-0.45-0.65-0.8-0.6-1.8-1.167-3-1.7-2.267-0.133-3.8 0.233-4.6 1.1z" fill="#56443D"/>
				<path d="m3.8-11.4c0.1 0 0.633 0.017 1.6 0.05 0.7 0.034 1.167-0.033 1.4-0.2l0.05-0.05c-0.633-0.033-1.1-0.066-1.4-0.1-0.533-0.066-0.883-0.316-1.05-0.75 0.233-0.033 0.733-0.083 1.5-0.15 0.633-0.033 1.133-0.1 1.5-0.2 0.966-0.233 1.9-0.534 2.8-0.9l0.6-0.25-0.2-0.1c-1.1-0.5-2.216-0.75-3.35-0.75-0.3 0-0.917 0.133-1.85 0.4-1.134 0.1-1.917 0.233-2.35 0.4-0.333 0.167-0.65 0.65-0.95 1.45l-0.65 1.6-0.25 0.85 0.15-0.1c0.3-0.2 0.684-0.45 1.15-0.75 0.4-0.234 0.833-0.383 1.3-0.45z" fill="#56443D"/>
				<path d="m17.15-7.8c0.533 0.066 1.017 0.283 1.45 0.65 0.167 0.133 0.583 0.55 1.25 1.25l0.05 0.05c0-0.566-0.1-1.1-0.3-1.6l-0.25-0.05c-0.267 0.033-0.583 0-0.95-0.1-0.467-0.133-0.767-0.2-0.9-0.2h-0.35z" fill="#56443D"/>
				<path d="m9.85-11.45c-0.7 0.034-1.783 0.233-3.25 0.6-1.533 0.567-2.683 0.934-3.45 1.1h0.15c2.133-0.133 3.466-0.2 4-0.2 1.5 0 2.733 0.167 3.7 0.5 0.167 0.067 0.9 0.367 2.2 0.9 0.934 0.4 1.7 0.667 2.3 0.8 0.333 0.033 0.884 0.017 1.65-0.05h0.35c0.134 0 0.434 0.066 0.9 0.2 0.366 0.1 0.683 0.133 0.95 0.1l0.25 0.05c-0.133-0.333-0.267-0.55-0.4-0.65-0.167-0.2-0.4-0.4-0.7-0.6-0.233-0.2-0.383-0.45-0.45-0.75h-0.05l-1.65 0.3c-0.733 0.066-1.566-0.217-2.5-0.85-1.167-0.767-1.95-1.2-2.35-1.3l-0.2-0.05-1.45-0.1z" fill="#464D53"/>
				<path d="m1.05-2.5l0.3 0.2 0.25-0.2c0.267-0.233 0.733-0.417 1.4-0.55 1.333-0.367 2.434-0.55 3.3-0.55 0.6-0.033 1.433 0 2.5 0.1 1.057 0.091 1.84 0.141 2.35 0.15-0.633-0.067-1.45-0.267-2.45-0.6-1.367-0.433-2.2-0.683-2.5-0.75-1.166-0.3-2.15-0.317-2.95-0.05l-0.55 0.3c-0.666 0.433-1.033 0.65-1.1 0.65h-0.6l-0.45-0.15c-0.067 0.634-0.067 1.167 0 1.6l0.05 0.4 0.45-0.55z" fill="#CBBCB0"/>
				<path d="m13.55-4.35l1.65 0.45-1.15-1c-0.233 0.133-0.4 0.317-0.5 0.55z" fill="#CBBCB0"/>
				<path d="m13.45-4.4l-0.15-1c-0.4-0.2-0.784-0.233-1.15-0.1 0.066 0.167 0.233 0.35 0.5 0.55 0.366 0.3 0.566 0.467 0.6 0.5l0.2 0.05z" fill="#CBBCB0"/>
				<path d="m16.85-5.6l0.5-0.05c-0.333-0.267-0.983-0.383-1.95-0.35-1.067 0.1-1.784 0.15-2.15 0.15l0.25 1.7c2e-3 -0.07 0.019-0.137 0.05-0.2 0.1-0.233 0.267-0.417 0.5-0.55 0.533-0.4 1.467-0.633 2.8-0.7z" fill="#CBBCB0"/>
				<path d="m11.6-0.05l2.75-1.25c0.767-0.233 1.434-0.483 2-0.75-0.267-0.5-0.933-0.534-2-0.1-1.966 0.834-3.416 1.35-4.35 1.55-0.7 0.166-1.633 0.233-2.8 0.2-1.2-0.034-2.083-0.15-2.65-0.35-0.6-0.434-1.05-0.717-1.35-0.85-0.833-0.267-1.45-0.5-1.85-0.7l-0.3-0.2-0.45 0.55c0.2 0.467 0.817 0.767 1.85 0.9 1.233 0.133 1.983 0.267 2.25 0.4 0.767 0.333 1.4 0.533 1.9 0.6 0.667 0.067 1.5 0.083 2.5 0.05 0.567 0 1.4-0.017 2.5-0.05z" fill="#CBBCB0"/>
				<path d="m8.55-1.4l1.9-0.55c0.066-0.167 0.066-0.433 0-0.8-1.266-0.167-2.117-0.066-2.55 0.3-0.366 0.3-0.466 0.583-0.3 0.85 0.133 0.267 0.45 0.333 0.95 0.2z" fill="#81675C"/>
				<path d="m12.15-2.8h1.1c0.067-0.2 0.05-0.367-0.05-0.5-0.367-0.134-0.7-0.134-1 0-0.1 0.133-0.117 0.3-0.05 0.5z" fill="#81675C"/>
				<path d="m18.55-3.7c0-0.366-0.133-0.633-0.4-0.8-0.3-0.167-0.55-0.066-0.75 0.3l0.95 0.7 0.2-0.2z" fill="#81675C"/>
			</g>
				<radialGradient id="ai" cx="6.2002" cy="-7.8999" r="1.775" gradientTransform="matrix(1 0 0 -1 0 -15.8)" gradientUnits="userSpaceOnUse">
				<stop stop-opacity=".2784" offset=".1647"/>
				<stop stop-opacity=".4471" offset="1"/>
			</radialGradient>
			<path d="m5.6-6.4l0.3 0.7c0.433 0.1 0.75-0.15 0.95-0.75s0.117-1-0.25-1.2c-0.4-0.2-0.716-0.117-0.95 0.25-0.266 0.367-0.283 0.7-0.05 1z" clip-rule="evenodd" fill="url(#ai)" fill-rule="evenodd"/>
				<radialGradient id="aj" cx="2.9004" cy="-9.1499" r="1.25" gradientTransform="matrix(1 0 0 -1 0 -18.3)" gradientUnits="userSpaceOnUse">
				<stop stop-opacity=".2784" offset=".1647"/>
				<stop stop-opacity=".4471" offset="1"/>
			</radialGradient>
			<path d="m2.55-7.8h0.7c0.167-0.266 0.217-0.533 0.15-0.8-0.067-0.334-0.25-0.483-0.55-0.45-0.267 0.033-0.416 0.183-0.45 0.45-0.033 0.267 0.017 0.534 0.15 0.8z" clip-rule="evenodd" fill="url(#aj)" fill-rule="evenodd"/>
				<radialGradient id="ak" cx="7.6001" cy="-10.55" r=".925" gradientTransform="matrix(1 0 0 -1 0 -21.1)" gradientUnits="userSpaceOnUse">
				<stop stop-opacity=".2784" offset=".1647"/>
				<stop stop-opacity=".4471" offset="1"/>
			</radialGradient>
			<path d="m7.7-9.2l0.25-0.25c0.033-0.333-0.033-0.616-0.2-0.85-0.167-0.267-0.333-0.2-0.5 0.2-0.066 0.167-0.066 0.35 0 0.55 0.1 0.234 0.25 0.35 0.45 0.35z" clip-rule="evenodd" fill="url(#ak)" fill-rule="evenodd"/>
				<radialGradient id="al" cx="11.8" cy="-10.5" r="1.9" gradientTransform="matrix(1 0 0 -1 0 -21)" gradientUnits="userSpaceOnUse">
				<stop stop-opacity=".2784" offset=".1647"/>
				<stop stop-opacity=".4471" offset="1"/>
			</radialGradient>
			<path d="m11.15-9.2l1.4 0.45c0-0.133 0.017-0.4 0.05-0.8 0-0.333-0.066-0.567-0.2-0.7-0.034-0.066-0.217-0.1-0.55-0.1s-0.533 0.034-0.6 0.1c-0.167 0.133-0.233 0.3-0.2 0.5 0.067 0.2 0.1 0.383 0.1 0.55z" clip-rule="evenodd" fill="url(#al)" fill-rule="evenodd"/>
				<linearGradient id="am" x1="-.2749" x2="22.575" y1="-9.1748" y2="-9.1748" gradientUnits="userSpaceOnUse">
					<stop stop-opacity=".2" offset=".8157"/>
					<stop stop-opacity=".2" offset=".9804"/>
				</linearGradient>
				<path d="m1.05-9.25l0.05-0.1-0.1-0.05c-0.066 0.233-0.133 0.383-0.2 0.45h0.05l0.2-0.3z" clip-rule="evenodd" fill="url(#am)" fill-rule="evenodd"/>
				<linearGradient id="an" x1="-.2749" x2="22.575" y1="-8.583" y2="-8.583" gradientUnits="userSpaceOnUse">
					<stop stop-opacity=".2" offset=".8157"/>
					<stop stop-opacity=".2" offset=".9804"/>
				</linearGradient>
				<path d="m10.2-7.4c0 0.433-0.1 0.733-0.3 0.9-0.3 0.167-0.583 0.333-0.85 0.5-0.5 0.367-0.667 0.833-0.5 1.4 0.7 0.067 1.716 0.117 3.05 0.15 1.167 0.1 2.117 0.434 2.85 1-0.233-0.366-0.684-0.767-1.35-1.2-0.066-0.034-0.566-0.333-1.5-0.9 0-0.267 0.467-0.467 1.4-0.6 0.3-0.034 0.767-0.1 1.4-0.2 0.533-0.1 0.983-0.117 1.35-0.05 0.5 0.1 1.067 0.333 1.7 0.7 0.667 0.5 1.167 0.867 1.5 1.1l0.5 0.35 0.35-0.1-0.7-0.4c-0.233-0.367-0.55-0.667-0.95-0.9l-0.2-0.15-1.9-0.95c-0.534-0.233-1.15-0.367-1.85-0.4-0.833-0.034-1.483-0.067-1.95-0.1 0.067-0.434 0.717-0.7 1.95-0.8 0.667-0.034 1.467-0.05 2.4-0.05 0.067-0.3-0.05-0.583-0.35-0.85-0.033-0.033-0.3-0.216-0.8-0.55-0.233-0.133-1.283-0.867-3.15-2.2-0.067-0.2-0.217-0.333-0.45-0.4-0.533-0.066-0.9-0.117-1.1-0.15-1.667 0.1-2.883 0.05-3.65-0.15l1.85-0.55c0.1-0.033 0.25-0.033 0.45 0 0.133 0 0.216-0.083 0.25-0.25-0.7-0.466-1.634-0.616-2.8-0.45-1.233 0.167-2 0.617-2.3 1.35 0.1 0.033 0.4 0.05 0.9 0.05 0.367-0.033 0.633 0.05 0.8 0.25-0.6-0.033-1.05-0.017-1.35 0.05-0.2 0.067-0.5 0.233-0.9 0.5 0.367-0.2 0.8-0.267 1.3-0.2-0.034 0.3-0.034 0.517 0 0.65 0.033 0.033 0.183 0.217 0.45 0.55 0.434 0.467 0.767 0.833 1 1.1 0.4 0.5 0.667 0.917 0.8 1.25 0-0.3-0.017-0.733-0.05-1.3 0-0.5-0.066-0.934-0.2-1.3 0.833 0.167 1.383 0.317 1.65 0.45 0.467 0.233 0.816 0.633 1.05 1.2 0.134 0.366 0.2 0.917 0.2 1.65z" clip-rule="evenodd" fill="url(#an)" fill-rule="evenodd"/>
				<linearGradient id="ao" x1="-.2622" x2="26.463" y1="-10.375" y2="-10.375" gradientUnits="userSpaceOnUse">
					<stop stop-opacity=".2" offset=".8157"/>
					<stop stop-opacity=".2" offset=".9804"/>
				</linearGradient>
				<path d="m3-10.8c-0.866 0.466-1.5 0.95-1.9 1.45 0.2 0.1 0.467 0.05 0.8-0.15l1.35-1.35 0.75-0.6-1 0.65z" clip-rule="evenodd" fill="url(#ao)" fill-rule="evenodd"/>
				<linearGradient id="x" x1="-.2749" x2="22.575" y1="-10.1" y2="-10.1" gradientUnits="userSpaceOnUse">
					<stop stop-opacity=".2" offset=".8157"/>
					<stop stop-opacity=".2" offset=".9804"/>
				</linearGradient>
				<path d="m1.1-9.35c0.4-0.5 1.034-0.983 1.9-1.45l1-0.65c0.4-0.267 0.7-0.433 0.9-0.5 0.3-0.066 0.75-0.083 1.35-0.05-0.167-0.2-0.433-0.283-0.8-0.25-0.5 0-0.8-0.017-0.9-0.05 0.3-0.733 1.066-1.184 2.3-1.35 1.167-0.167 2.1-0.017 2.8 0.45-0.034 0.167-0.117 0.25-0.25 0.25-0.2-0.033-0.35-0.033-0.45 0l-1.85 0.55c0.767 0.2 1.983 0.25 3.65 0.15 0.2 0.033 0.567 0.083 1.1 0.15 0.233 0.067 0.383 0.2 0.45 0.4 1.867 1.333 2.917 2.067 3.15 2.2 0.5 0.333 0.767 0.517 0.8 0.55 0.3 0.267 0.417 0.55 0.35 0.85-0.933 0-1.733 0.017-2.4 0.05-1.233 0.1-1.883 0.366-1.95 0.8 0.467 0.033 1.117 0.066 1.95 0.1 0.7 0.033 1.316 0.167 1.85 0.4l1.9 0.95-0.35-0.2c0.5-0.2 0.667-0.75 0.5-1.65-0.133-0.5-0.45-0.917-0.95-1.25-0.367-0.233-0.684-0.567-0.95-1-0.167-0.233-0.4-0.633-0.7-1.2 0.167-0.167 0.483-0.333 0.95-0.5-0.967-0.633-2.017-1.1-3.15-1.4l-0.4-0.15c-0.4 0.6-0.884 0.85-1.45 0.75-0.233-0.034-0.55-0.167-0.95-0.4-0.233-0.134-0.55-0.317-0.95-0.55-0.9-0.466-1.867-0.7-2.9-0.7-0.767 0-1.217-0.117-1.35-0.35-1.067 0.1-1.817 0.233-2.25 0.4-0.333 0.167-0.65 0.65-0.95 1.45l-1.1 3.15 0.1 0.05z" clip-rule="evenodd" fill="url(#x)" fill-rule="evenodd"/>
				<linearGradient id="y" x1="-.2622" x2="26.463" y1="-10.1" y2="-10.1" gradientUnits="userSpaceOnUse">
					<stop stop-opacity=".2" offset=".8157"/>
					<stop stop-opacity=".2" offset=".9804"/>
				</linearGradient>
				<path d="m1.1-9.35c0.4-0.5 1.034-0.983 1.9-1.45l1-0.65c0.4-0.267 0.7-0.433 0.9-0.5 0.3-0.066 0.75-0.083 1.35-0.05-0.167-0.2-0.433-0.283-0.8-0.25-0.5 0-0.8-0.017-0.9-0.05 0.3-0.733 1.066-1.184 2.3-1.35 1.167-0.167 2.1-0.017 2.8 0.45-0.034 0.167-0.117 0.25-0.25 0.25-0.2-0.033-0.35-0.033-0.45 0l-1.85 0.55c0.767 0.2 1.983 0.25 3.65 0.15 0.2 0.033 0.567 0.083 1.1 0.15 0.233 0.067 0.383 0.2 0.45 0.4 1.867 1.333 2.917 2.067 3.15 2.2 0.5 0.333 0.767 0.517 0.8 0.55 0.3 0.267 0.417 0.55 0.35 0.85-0.933 0-1.733 0.017-2.4 0.05-1.233 0.1-1.883 0.366-1.95 0.8 0.467 0.033 1.117 0.066 1.95 0.1 0.7 0.033 1.316 0.167 1.85 0.4l1.9 0.95-0.35-0.2c0.5-0.2 0.667-0.75 0.5-1.65-0.133-0.5-0.45-0.917-0.95-1.25-0.367-0.233-0.684-0.567-0.95-1-0.167-0.233-0.4-0.633-0.7-1.2 0.167-0.167 0.483-0.333 0.95-0.5-0.967-0.633-2.017-1.1-3.15-1.4l-0.4-0.15c-0.4 0.6-0.884 0.85-1.45 0.75-0.233-0.034-0.55-0.167-0.95-0.4-0.233-0.134-0.55-0.317-0.95-0.55-0.9-0.466-1.867-0.7-2.9-0.7-0.767 0-1.217-0.117-1.35-0.35-1.067 0.1-1.817 0.233-2.25 0.4-0.333 0.167-0.65 0.65-0.95 1.45l-1.1 3.15 0.1 0.05z" clip-rule="evenodd" fill="url(#y)" fill-rule="evenodd"/>
				<linearGradient id="z" x1="-.2749" x2="22.575" y1="-13.589" y2="-13.589" gradientUnits="userSpaceOnUse">
					<stop stop-opacity=".2" offset=".8157"/>
					<stop stop-opacity=".2" offset=".9804"/>
				</linearGradient>
				<path d="m10.6-14.05c-1.1-0.5-2.216-0.75-3.35-0.75-0.3 0-0.917 0.133-1.85 0.4h-0.1c0.133 0.233 0.583 0.35 1.35 0.35 1.033 0 2 0.233 2.9 0.7 0.4 0.233 0.716 0.417 0.95 0.55 0.4 0.233 0.717 0.366 0.95 0.4 0.566 0.1 1.05-0.15 1.45-0.75-0.9-0.233-1.667-0.534-2.3-0.9z" clip-rule="evenodd" fill="url(#z)" fill-rule="evenodd"/>
				<linearGradient id="aa" x1="-.2622" x2="26.463" y1="-13.589" y2="-13.589" gradientUnits="userSpaceOnUse">
					<stop stop-opacity=".2" offset=".8157"/>
					<stop stop-opacity=".2" offset=".9804"/>
				</linearGradient>
				<path d="m10.6-14.05c-1.1-0.5-2.216-0.75-3.35-0.75-0.3 0-0.917 0.133-1.85 0.4h-0.1c0.133 0.233 0.583 0.35 1.35 0.35 1.033 0 2 0.233 2.9 0.7 0.4 0.233 0.716 0.417 0.95 0.55 0.4 0.233 0.717 0.366 0.95 0.4 0.566 0.1 1.05-0.15 1.45-0.75-0.9-0.233-1.667-0.534-2.3-0.9z" clip-rule="evenodd" fill="url(#aa)" fill-rule="evenodd"/>
				<linearGradient id="ab" x1="5.1875" x2="25.312" y1="-13.589" y2="-13.589" gradientUnits="userSpaceOnUse">
					<stop stop-opacity=".2" offset=".8157"/>
					<stop stop-opacity=".2" offset=".9804"/>
				</linearGradient>
				<path d="m10.6-14.05c-1.1-0.5-2.216-0.75-3.35-0.75-0.3 0-0.917 0.133-1.85 0.4h-0.1c0.133 0.233 0.583 0.35 1.35 0.35 1.033 0 2 0.233 2.9 0.7 0.4 0.233 0.716 0.417 0.95 0.55 0.4 0.233 0.717 0.366 0.95 0.4 0.566 0.1 1.05-0.15 1.45-0.75-0.9-0.233-1.667-0.534-2.3-0.9z" clip-rule="evenodd" fill="url(#ab)" fill-rule="evenodd"/>
				<linearGradient id="ac" x1="-.2749" x2="22.575" y1="-7.9751" y2="-7.9751" gradientUnits="userSpaceOnUse">
					<stop stop-opacity=".2" offset=".8157"/>
					<stop stop-opacity=".2" offset=".9804"/>
				</linearGradient>
				<path d="m19.1-5.05c0.267 0.333 0.5 0.533 0.7 0.6l0.05 0.1h0.05c0.1-1.933-0.134-3.183-0.7-3.75-0.167-0.2-0.4-0.4-0.7-0.6-0.233-0.2-0.383-0.45-0.45-0.75-0.034-0.233-0.067-0.5-0.1-0.8-0.033-0.233-0.184-0.45-0.45-0.65l-1.05-0.7c-0.467 0.167-0.783 0.333-0.95 0.5 0.3 0.567 0.534 0.967 0.7 1.2 0.267 0.433 0.583 0.767 0.95 1 0.5 0.333 0.816 0.75 0.95 1.25 0.167 0.9 0 1.45-0.5 1.65l0.35 0.2 0.2 0.15 0.95 0.6z" clip-rule="evenodd" fill="url(#ac)" fill-rule="evenodd"/>
				<linearGradient id="ad" x1="-.2622" x2="26.463" y1="-7.9751" y2="-7.9751" gradientUnits="userSpaceOnUse">
					<stop stop-opacity=".2" offset=".8157"/>
					<stop stop-opacity=".2" offset=".9804"/>
				</linearGradient>
				<path d="m19.1-5.05c0.267 0.333 0.5 0.533 0.7 0.6l0.05 0.1h0.05c0.1-1.933-0.134-3.183-0.7-3.75-0.167-0.2-0.4-0.4-0.7-0.6-0.233-0.2-0.383-0.45-0.45-0.75-0.034-0.233-0.067-0.5-0.1-0.8-0.033-0.233-0.184-0.45-0.45-0.65l-1.05-0.7c-0.467 0.167-0.783 0.333-0.95 0.5 0.3 0.567 0.534 0.967 0.7 1.2 0.267 0.433 0.583 0.767 0.95 1 0.5 0.333 0.816 0.75 0.95 1.25 0.167 0.9 0 1.45-0.5 1.65l0.35 0.2 0.2 0.15 0.95 0.6z" clip-rule="evenodd" fill="url(#ad)" fill-rule="evenodd"/>
				<linearGradient id="ae" x1="5.1875" x2="25.312" y1="-7.9751" y2="-7.9751" gradientUnits="userSpaceOnUse">
					<stop stop-opacity=".2" offset=".8157"/>
					<stop stop-opacity=".2" offset=".9804"/>
				</linearGradient>
				<path d="m19.1-5.05c0.267 0.333 0.5 0.533 0.7 0.6l0.05 0.1h0.05c0.1-1.933-0.134-3.183-0.7-3.75-0.167-0.2-0.4-0.4-0.7-0.6-0.233-0.2-0.383-0.45-0.45-0.75-0.034-0.233-0.067-0.5-0.1-0.8-0.033-0.233-0.184-0.45-0.45-0.65l-1.05-0.7c-0.467 0.167-0.783 0.333-0.95 0.5 0.3 0.567 0.534 0.967 0.7 1.2 0.267 0.433 0.583 0.767 0.95 1 0.5 0.333 0.816 0.75 0.95 1.25 0.167 0.9 0 1.45-0.5 1.65l0.35 0.2 0.2 0.15 0.95 0.6z" clip-rule="evenodd" fill="url(#ae)" fill-rule="evenodd"/>
					<use transform="translate(0 -2.3999)" x="0.039" y="-7.178" width="9.162" height="7.178" enable-background="new" xlink:href="#w"/>
				<linearGradient id="af" x1="-.3247" x2="22.525" y1="-8.1748" y2="-8.1748" gradientUnits="userSpaceOnUse">
					<stop stop-opacity=".2" offset=".8157"/>
					<stop stop-opacity=".2" offset=".9804"/>
				</linearGradient>
				<path d="m0.35-8.25c0 0.4 0.083 0.684 0.25 0.85 0-0.067 0.017-0.333 0.05-0.8 0.033-0.3 0.1-0.55 0.2-0.75h-0.05l-0.4 0.6-0.05 0.1z" clip-rule="evenodd" fill="url(#af)" fill-rule="evenodd"/>
					<use transform="translate(.3501 -7.3999)" y="-1.55" width="0.5" height="1.55" enable-background="new" xlink:href="#v"/>
</symbol>
<use transform="matrix(1 0 0 -1 15.05 36.1)" x="0.016" y="-14.8" width="19.935" height="14.816" xlink:href="#ap"/>
</svg>
