<?xml version="1.0" encoding="UTF-8" standalone="no"?>
<svg
   xmlns:dc="http://purl.org/dc/elements/1.1/"
   xmlns:cc="http://creativecommons.org/ns#"
   xmlns:rdf="http://www.w3.org/1999/02/22-rdf-syntax-ns#"
   xmlns:svg="http://www.w3.org/2000/svg"
   xmlns="http://www.w3.org/2000/svg"
   xmlns:sodipodi="http://sodipodi.sourceforge.net/DTD/sodipodi-0.dtd"
   xmlns:inkscape="http://www.inkscape.org/namespaces/inkscape"
   viewBox="0 0 370 844"
   id="svg2"
   version="1.1"
   inkscape:version="0.91 r"
   sodipodi:docname="comet-310331.svg"
   width="370"
   height="844">
  <metadata
     id="metadata106">
    <rdf:RDF>
      <cc:Work
         rdf:about="">
        <dc:format>image/svg+xml</dc:format>
        <dc:type
           rdf:resource="http://purl.org/dc/dcmitype/StillImage" />
        <dc:title></dc:title>
      </cc:Work>
    </rdf:RDF>
  </metadata>
  <defs
     id="defs104" />
  <sodipodi:namedview
     pagecolor="#ffffff"
     bordercolor="#666666"
     borderopacity="1"
     objecttolerance="10"
     gridtolerance="10"
     guidetolerance="10"
     inkscape:pageopacity="0"
     inkscape:pageshadow="2"
     inkscape:window-width="1920"
     inkscape:window-height="1028"
     id="namedview102"
     showgrid="false"
     inkscape:zoom="0.31018519"
     inkscape:cx="438.44776"
     inkscape:cy="372"
     inkscape:window-x="0"
     inkscape:window-y="0"
     inkscape:window-maximized="1"
     inkscape:current-layer="svg2" />
  <g
     id="g4"
     transform="matrix(0.6574548,0.57906217,-0.75399076,0.50492289,206.02669,-30.44233)"
     style="fill-rule:evenodd">
    <path
       d="m 34,184 -1,-5 1,0 q 1,1 2,1 l 2,0 0,6 q 0,5 -2,7 -2,2 -2,2 l 0,1 -2,0 1,1 1,1 11,3 q 11,3 12,4 l 1,1 2,0 0,1 1,1 1,1 0,1 -1,1 -1,1 0,2 -2,0 -6,4 q -6,4 -7,4 l -1,0 -1,1 -1,1 -3,0 -1,1 -1,1 4,0 17,-2 q 18,0 22,1 4,2 5,3 1,0 1,2 l 0,3 q 0,0 -1,0 0,1 -1,0 l -1,-1 -1,0 q 0,0 -10,-1 -10,-1 -40,3 l -29,4 -3,0 0,-2 3,0 1,-1 1,-1 1,0 q 2,0 23,-9 l 21,-9 1,0 1,-1 1,-1 2,0 0,-1 1,0 0,-1 1,0 -1,-1 -1,-1 -2,0 -1,-1 -2,-1 -2,0 q -1,0 -11,-3 l -10,-3 -4,0 -1,-1 -2,0 0,-2 1,0 1,-1 2,0 1,-1 q 1,-1 3,-1 1,-2 4,-4 4,-3 2,-8 z"
       id="path6"
       inkscape:connector-curvature="0"
       style="fill:#054b83;stroke:#054b83" />
    <path
       d="m 244,169 6,1 -1,0 q 0,0 -2,2 l -2,2 -1,0 0,1 -1,0 0,1 -1,0 0,6 3,4 q 3,4 3,5 l 0,1 q -1,0 0,2 0,1 -2,1 -2,-1 -2,1 0,2 1,2 1,0 1,2 1,1 2,1 2,1 2,3 1,2 -4,0 -4,-2 -14,-2 -9,0 -9,1 1,1 -2,0 l -2,-1 -1,0 0,-1 -1,-1 -1,-1 0,-5 -2,0 1,-1 1,0 0,-2 2,0 1,1 4,0 q 4,2 6,2 l 2,0 1,1 2,1 3,0 0,-1 -1,0 0,-1 -1,0 0,-1 -1,0 0,-1 -1,0 0,-1 -1,0 0,-1 -1,0 0,-1 q -1,0 -4,-5 l -3,-4 2,-4 q 0,-4 2,-6 2,-2 6,-2 5,0 10,1 z"
       id="path8"
       inkscape:connector-curvature="0"
       style="fill:#5ca6d7;stroke:#5ca6d7" />
    <path
       d="m 142,29 2,0 1,1 q 1,0 3,1 l 1,1 11,5 q 10,5 10,6 l 1,0 3,2 q 2,1 2,2 l 1,0 0,1 9,8 q 8,8 8,9 l 1,0 0,1 1,0 0,1 1,0 0,1 1,0 0,2 1,0 0,1 1,0 0,1 1,1 0,1 -2,0 0,-1 -1,0 0,-1 -1,-1 -1,-1 0,-1 -1,0 0,-1 -2,0 q -1,-1 -1,-1 l 0,-1 q 0,0 -1,0 -1,-1 -5,-4 l -5,-4 -1,0 q 0,0 -7,-4 -7,-4 -23,-10 -17,-4 -31,-4 -14,0 -23,2 -10,4 -18,9 -9,5 -15,13 -7,8 -11,18 -4,11 -4,24 0,12 2,20 2,9 8,22 l 7,14 1,1 q 0,1 0,2 l 1,0 q 0,1 1,1 0,0 0,1 l 1,0 q 0,1 1,1 0,0 0,1 l 1,0 1,2 q 1,1 2,2 l 1,0 q 0,1 1,1 0,0 0,1 l 1,0 q 0,1 1,1 0,0 0,1 l 1,0 q 0,1 1,1 0,0 0,1 l 1,0 q 0,1 1,1 0,0 0,1 l 1,0 q 0,1 1,1 0,0 0,1 l 1,0 q 0,1 1,1 l 2,3 q 2,3 2,3 l 1,0 1,1 1,0 0,1 1,1 0,1 2,0 0,1 1,0 0,1 -4,0 0,-1 -1,0 0,-1 -2,0 -1,-1 q -1,-1 -11,-7 l -9,-6 q -1,-1 -1,-1 l 0,-1 q 0,0 -1,0 -1,-1 -1,-1 l 0,-1 q 0,0 -1,0 -1,-1 -1,-1 l 0,-1 q 0,0 -1,0 -1,-1 -1,-1 l 0,-1 q 0,0 -1,0 -1,-1 -1,-1 l 0,-1 q 0,0 -4,-4 l -4,-5 0,-1 q 0,0 -1,0 -1,-1 -1,-2 l 0,-1 -1,0 0,-1 -1,0 0,-1 q 0,-1 -3,-5 -3,-5 -7,-18 -4,-14 -5,-28 l 0,-15 1,-2 3,-11 Q 41,66 48,56 55,46 64,40 74,34 84,30 q 11,-4 29,-4 18,0 23,2 4,0 6,1 z"
       id="path10"
       inkscape:connector-curvature="0"
       style="fill:#74c3e8;stroke:#74c3e8" />
    <path
       d="m 301,116 0,-2 65,31 q 64,31 65,31 l 1,0 1,1 1,1 2,0 1,1 1,0 0,2 -1,0 -1,-1 -4,0 q -5,0 -42,-5 l -36,-5 -3,0 1,1 1,1 2,0 1,1 1,1 2,0 79,40 q 78,38 79,39 l 1,1 2,0 1,1 1,1 2,0 0,1 1,0 0,1 -4,0 -3,-1 q -3,-1 -52,-8 l -49,-7 -2,-1 -3,0 q -1,-1 -6,-3 l -4,-2 -1,-1 -1,-1 -1,0 -1,-1 -2,0 0,-2 1,0 1,1 6,0 6,2 q 7,0 10,1 l 4,0 26,4 q 25,5 28,5 l 4,0 3,1 3,1 3,0 0,-1 -1,0 0,-1 -2,0 -1,-1 -1,-1 -2,0 -1,-1 q -1,-1 -49,-24 l -49,-24 q 0,-1 -29,-15 l -30,-14 -1,-1 -1,-1 -2,0 -1,-1 -1,-1 -1,0 3,0 33,4 q 33,4 37,4 l 12,0 -2,0 -1,-1 -1,-1 -2,0 -1,-1 -1,-1 -1,0 q -1,0 -45,-22 l -44,-20 0,-1 -2,0 q 0,-1 -2,-1 l -1,-1 0,-1 q 1,-1 0,-2 z"
       id="path12"
       inkscape:connector-curvature="0"
       style="fill:#054b83;stroke:#054b83" />
    <path
       d="m 89,5 1,0 0,3 q 0,0 -4,2 -4,2 -15,8 Q 60,24 48,35 37,46 31,58 l -7,11 0,2 -1,1 -1,2 -2,0 0,-1 -1,0 0,-1 1,0 0,-2 1,-2 1,-1 6,-12 Q 35,44 46,32 57,22 70,14 82,8 85,6 88,6 89,5 Z"
       id="path14"
       inkscape:connector-curvature="0"
       style="fill:#0a5088;stroke:#0a5088" />
    <path
       d="m 144,27 0,-1 9,4 q 9,3 13,6 6,4 6,4 l 0,2 q 0,0 -1,0 l 0,1 -1,0 q 0,-1 -10,-6 l -11,-5 -1,-1 q -2,-1 -3,-1 l -1,-1 q 0,-1 0,-2 z"
       id="path16"
       inkscape:connector-curvature="0"
       style="fill:#c8e9f9;stroke:#c8e9f9" />
    <path
       d="m 212,238 0,1 q 0,1 0,1 l 1,0 q 0,0 1,1 l 0,1 q 0,0 1,1 l 1,1 0,1 19,27 q 19,26 19,27 l 1,0 1,2 q 2,2 2,3 l 0,1 1,0 0,1 1,0 0,2 1,0 0,1 1,0 0,2 -2,0 0,-2 -1,0 0,-1 -1,0 0,-1 -1,0 0,-1 -1,0 0,-1 -1,0 0,-1 q -1,0 -1,0 0,-1 -1,-1 l 0,-1 q -1,0 -1,0 0,-1 -14,-15 l -13,-14 0,-1 q -1,0 -15,-16 -15,-16 -16,-16 l -1,0 -1,-2 q -2,-2 -1,-4 0,-2 6,-2 6,0 10,3 5,3 5,3 z"
       id="path18"
       inkscape:connector-curvature="0"
       style="fill:#f3f7fb;stroke:#f3f7fb" />
    <path
       d="m 172,42 0,-1 7,5 q 7,4 17,15 10,11 12,17 4,5 4,6 l 0,1 1,1 1,2 0,2 1,1 1,1 0,3 -1,0 0,-1 -1,0 0,-2 -1,-1 -1,-1 0,-1 -1,0 0,-1 -1,0 0,-1 -1,0 0,-1 -1,0 q 0,0 -7,-8 l -7,-8 0,-1 -2,0 0,-1 -1,0 0,-2 2,0 0,1 1,0 0,1 q 0,0 1,0 l 0,1 1,0 0,1 2,0 0,-2 -1,0 0,-1 -1,0 0,-1 -1,0 0,-1 -1,0 q 0,-1 -8,-9 l -9,-8 0,-1 -1,0 q 0,-1 -2,-2 l -3,-2 0,-1 q 1,0 1,0 z m 27,31 q 0,-1 1,-1 1,0 1,1 l 0,1 -1,0 q -1,0 -1,-1 z"
       id="path20"
       inkscape:connector-curvature="0"
       style="fill:#c1e6f8;stroke:#c1e6f8" />
    <path
       d="m 287,171 0,-1 2,0 0,1 1,0 0,1 2,0 1,1 1,1 1,0 7,4 q 6,4 6,5 l 1,0 0,1 2,0 0,1 1,0 0,1 2,0 0,1 1,0 1,1 q 1,0 2,1 l 1,1 1,0 21,14 q 22,14 23,15 l 1,1 1,0 1,1 1,1 2,0 0,1 1,0 0,1 1,0 -4,0 -2,-1 -1,-1 -2,0 -1,-1 q -1,-1 -34,-15 l -33,-14 -1,-1 -1,-1 -3,0 -1,-1 -1,-1 -2,0 0,1 1,0 0,1 1,0 1,1 1,1 1,0 0,1 1,0 0,1 1,0 15,12 q 14,10 15,11 l 1,1 1,0 0,1 1,0 0,1 1,0 1,1 1,1 2,0 0,2 -2,0 -1,-1 -1,-1 -2,0 -1,-1 -1,-1 -2,0 -1,-1 q -1,-1 -14,-7 l -13,-6 -1,-1 -1,-1 -2,0 -1,-1 -1,-1 -3,0 0,1 1,0 0,1 2,0 0,1 1,0 0,1 1,0 1,1 1,1 1,0 27,20 q 27,20 28,21 l 1,1 1,0 0,1 1,0 0,1 2,0 0,1 1,0 0,1 1,0 1,1 1,0 0,2 -1,0 -1,-1 -1,0 -1,-1 -1,-1 -2,0 -1,-1 -1,-1 -1,0 q -1,0 -13,-7 l -12,-7 -2,0 0,-1 -1,0 0,-1 -2,0 q 0,0 -29,-16 l -29,-16 q 0,-1 -1,-1 l 0,-1 q -1,-1 -5,-6 l -4,-4 q 0,-1 -1,-1 l 0,-1 q -1,-1 -3,-4 l -2,-4 0,-6 1,0 0,-1 1,0 0,-1 1,0 8,1 q 8,1 9,1 l 4,0 11,4 q 11,4 13,4 l 1,0 1,1 1,1 2,0 1,1 1,1 2,0 0,-1 -1,-1 0,-1 -1,0 0,-1 -1,0 0,-2 -1,0 0,-1 q -1,0 -2,-2 l -2,-3 -1,0 0,-1 -1,-1 -1,-1 0,-1 -1,-1 z"
       id="path22"
       inkscape:connector-curvature="0"
       style="fill:#f4f8fc;stroke:#f4f8fc" />
    <path
       d="m 128,18 3,0 7,1 q 7,1 9,1 l 2,0 1,1 q 2,1 4,1 l 1,0 q 0,0 2,1 l 2,1 2,0 7,2 q 6,2 13,4 7,1 13,8 5,8 11,11 6,3 11,4 5,1 6,0 l 1,0 0,6 q 1,6 1,9 l 0,4 1,0 0,2 q 1,1 1,2 l 0,2 4,6 q 4,6 10,10 7,4 8,4 l 2,0 0,3 -1,0 0,1 -5,6 q -6,7 -7,11 -1,4 -1,12 0,8 5,14 4,5 5,7 2,2 2,3 l 1,0 0,1 1,0 0,1 1,0 0,1 1,0 0,1 1,0 0,1 -7,0 -7,1 q -7,1 -12,2 l -5,1 0,1 -1,0 0,1 -1,0 0,1 -1,0 0,1 -1,0 0,3 1,1 1,2 0,2 1,1 1,1 0,1 1,0 0,1 1,0 3,4 q 3,5 4,5 l 0,1 1,0 0,1 1,0 0,1 1,0 0,1 1,0 0,1 1,0 0,1 1,0 0,1 -3,0 -2,-1 -1,-1 -2,0 q -2,0 -6,-2 l -4,0 -1,-1 -4,0 -3,1 -1,0 0,2 -1,0 0,1 1,0 1,3 q 1,3 2,3 l 0,1 1,0 0,2 -10,0 q -7,0 -8,0 -2,0 -3,2 -1,2 -7,2 -6,2 -9,3 -3,1 -5,5 -3,4 -8,4 -5,0 -9,2 -4,2 -9,6 -4,4 -6,4 -2,0 -9,-4 -7,-4 -20,-4 l -13,0 0,-2 -1,-2 -1,-1 0,-2 -1,0 0,-1 -1,0 q 0,0 -2,-2 -3,-2 -10,-5 -7,-3 -8,-6 -2,-3 -5,-7 -3,-4 -9,-6 -7,-3 -8,-8 0,-5 -4,-13 l -4,-8 0,-2 -1,0 0,-1 -1,-1 0,-3 1,0 0,1 1,0 0,1 2,0 0,1 1,0 0,1 2,0 0,1 q 0,1 1,1 l 1,0 q 0,0 1,1 l 4,5 q 4,4 4,4 l 0,1 q 0,1 0,1 l 1,0 q 0,0 1,1 0,1 0,1 l 1,0 q 0,0 1,1 0,1 0,1 l 1,0 q 0,0 1,1 0,1 0,1 l 1,0 q 0,0 1,1 0,1 0,1 l 1,0 5,5 q 4,5 10,9 6,4 7,4 l 1,0 1,1 1,1 2,0 2,1 1,0 q 0,1 1,1 l 10,3 q 9,3 12,4 3,1 12,1 l 10,0 2,-1 1,-1 -2,0 -4,-1 q -4,-1 -15,-4 -12,-3 -26,-11 l -14,-8 q 0,-1 -1,-1 l 0,-1 q -1,0 -1,0 0,-1 -1,-1 l 0,-1 q -1,0 -1,0 0,-1 -1,-1 l 0,-1 q -1,0 -1,0 0,-1 -1,-1 l 0,-1 q -1,0 -1,0 0,-1 -1,-1 l 0,-1 q -1,0 -1,0 0,-1 -1,-1 l 0,-1 q -1,0 -2,-2 l -2,-1 0,-1 q -1,0 -1,0 0,-1 -1,-1 l 0,-1 q -1,0 -1,0 0,-1 -1,-1 l 0,-1 q -1,-1 -1,-2 l -1,0 -7,-14 q -6,-13 -8,-22 -2,-8 -2,-20 0,-13 4,-24 4,-10 11,-18 6,-8 15,-13 8,-5 18,-9 9,-2 23,-2 14,0 31,4 16,6 23,10 7,4 7,4 l 1,0 5,4 q 4,4 4,5 l 1,0 0,1 1,0 0,1 1,0 q 0,1 1,1 l 7,8 q 7,8 7,8 l 1,0 0,1 1,0 0,1 1,0 0,1 1,0 0,1 1,1 0,1 2,0 0,-1 -1,-1 0,-2 -1,-2 -1,-1 0,-1 q 0,-1 -4,-6 -2,-6 -12,-17 -10,-11 -17,-15 l -7,-5 0,-1 q 0,0 -6,-4 -4,-3 -13,-6 l -9,-4 q -1,0 -6,-2 l -6,-2 -1,-1 -1,-1 -4,0 q -3,0 -2,-1 2,-1 4,-1 z m 87,77 0,-1 q 1,0 1,0 l 0,1 -1,0 z"
       id="path24"
       inkscape:connector-curvature="0"
       style="fill:#fcfdfe;stroke:#fcfdfe" />
    <path
       d="m 62,174 -2,-3 5,4 q 5,4 9,8 5,5 10,7 4,2 5,3 l 1,1 2,0 0,1 1,0 0,1 2,0 1,1 q 1,1 1,1 l 1,0 0,1 1,0 0,1 1,0 0,2 -2,0 -1,-1 -1,-1 -2,0 -1,-1 -1,-1 -1,0 q -1,0 -5,-3 -5,-3 -13,-10 l -7,-7 -1,0 q 0,0 -3,-4 z"
       id="path26"
       inkscape:connector-curvature="0"
       style="fill:#b5e1f7;stroke:#b5e1f7" />
    <path
       d="m 265,118 0,-1 2,0 2,1 19,8 q 19,8 20,9 l 14,7 q 15,6 16,7 l 1,1 2,0 1,1 1,1 2,0 0,1 -1,1 -2,-1 -2,-1 -2,0 q -3,0 -34,-8 l -32,-8 -2,-1 -2,-1 -3,0 q -1,-1 -1,-1 l 0,-14 1,-1 z"
       id="path28"
       inkscape:connector-curvature="0"
       style="fill:#b4e1f8;stroke:#b4e1f8" />
    <path
       d="m 131,18 -3,0 q -2,0 -4,1 -1,1 2,1 l 4,0 1,1 1,1 6,2 q 5,2 6,2 l 0,1 q 0,1 0,2 l -2,0 q -2,-1 -6,-1 -5,-2 -23,-2 -18,0 -29,4 -10,4 -20,10 -9,6 -16,16 -7,10 -11,20 l -3,11 -1,2 0,2 -2,0 0,-1 -1,-1 0,-3 -1,0 0,-1 1,-1 0,-2 q 0,-2 3,-9 l 2,-7 1,0 q 0,0 0,-1 l 6,-9 q 6,-8 13,-15 7,-7 18,-11 11,-6 22,-8 11,-4 23,-4 13,0 13,0 z"
       id="path30"
       inkscape:connector-curvature="0"
       style="fill:#b6e1f7;stroke:#b6e1f7" />
    <path
       d="m 227,70 0,-1 1,0 0,3 2,0 0,1 1,0 0,1 1,0 0,2 4,5 q 3,5 4,5 1,0 3,2 2,2 9,4 6,2 6,3 1,1 2,1 l 2,0 2,1 1,0 0,3 -3,0 0,1 -7,7 q -6,8 -8,11 -1,4 -1,12 0,8 9,18 8,9 9,10 1,0 3,3 1,4 2,4 0,0 0,1 l 1,0 0,1 1,0 0,1 1,0 0,1 1,0 -3,0 q -4,0 -5,1 l -1,0 0,1 1,0 0,1 1,0 0,1 -2,0 0,-1 0,3 -2,0 q -1,0 -9,-1 l -8,-1 2,-2 q 2,-2 2,-2 l 1,0 -6,-1 q -5,-1 -10,-1 -4,0 -6,2 -2,2 -2,6 l -2,4 -1,0 0,-1 -1,0 0,-1 -1,-1 -1,-1 0,-2 -1,-2 -1,-1 0,-3 1,0 0,-1 1,0 0,-1 1,0 0,-1 1,0 0,-1 5,-1 q 5,-1 12,-2 l 7,-1 7,0 0,-1 -1,0 0,-1 -1,0 0,-1 -1,0 0,-1 -1,0 0,-1 -1,0 q 0,-1 -2,-3 -1,-2 -5,-7 -5,-6 -5,-14 0,-8 1,-12 1,-4 7,-11 l 5,-6 0,-1 1,0 0,-3 -2,0 q -1,0 -8,-4 -6,-4 -10,-10 l -4,-6 0,-2 q 0,-1 -1,-2 l 0,-2 1,0 0,-2 1,0 z"
       id="path32"
       inkscape:connector-curvature="0"
       style="fill:#65b4e0;stroke:#65b4e0" />
    <path
       d="m 256,306 -4,-4 4,3 q 4,3 4,4 l 2,0 q 1,0 3,3 2,4 1,3 -2,0 -2,0 l 0,-1 q 0,0 -2,-2 l -1,-1 -1,0 q -1,-1 -4,-5 z"
       id="path34"
       inkscape:connector-curvature="0"
       style="fill:#7eb7df;stroke:#7eb7df" />
    <path
       d="m 255,202 2,1 q 0,1 1,1 l 29,16 q 29,16 29,16 l 0,1 -1,0 0,1 -1,0 0,1 -1,1 0,1 -1,0 q 0,-1 -10,-5 -10,-6 -10,-5 0,1 2,4 l 2,3 34,38 q 34,38 35,38 l 0,1 1,0 0,2 1,0 0,1 1,0 0,1 1,0 0,1 1,0 0,1 1,0 0,1 q 1,0 1,1 0,1 -1,1 -1,0 -1,-1 l -1,-1 -1,-1 -1,-1 -1,0 0,-1 -1,0 0,-1 -2,0 0,-1 q -1,0 -41,-31 l -40,-32 -1,0 0,-1 -1,0 0,-1 -2,0 0,-1 -1,0 0,-1 -1,0 0,2 1,1 1,1 0,2 1,1 1,1 16,34 q 18,35 18,36 l 0,1 1,1 1,1 0,1 1,2 1,1 0,1 1,1 0,1 -2,0 0,-1 -1,-1 0,-1 -1,0 0,-1 -1,0 0,-1 -1,0 0,-1 -1,0 0,-1 -1,0 0,-1 -1,0 q 0,0 -16,-19 l -16,-19 -1,0 0,-1 -1,0 0,-1 -1,0 0,-1 -1,0 0,-1 -1,-1 -1,-1 0,1 -1,0 0,1 1,0 0,2 1,1 1,1 0,2 1,0 10,19 q 9,18 10,19 l 1,1 0,1 1,0 0,1 1,1 0,2 1,1 0,1 -2,0 0,-1 -1,-1 0,-1 -1,0 0,-1 -1,0 0,-1 -1,0 0,-1 -1,0 q 0,0 -15,-18 -15,-16 -17,-17 l -2,0 q -1,-1 -2,-1 l -1,1 -1,0 q 0,-1 -19,-27 l -19,-27 0,-1 -1,-1 0,-1 -2,0 0,-1 -1,0 0,-2 1,0 1,1 4,0 0,2 1,0 0,1 1,0 21,23 q 21,22 22,23 l 1,1 0,1 1,0 0,1 1,0 0,1 1,0 0,1 1,0 0,1 1,0 0,1 1,0 0,-2 -1,-1 -1,-1 0,-1 -1,-1 -1,-1 0,-1 -1,-1 q -1,-1 -12,-19 l -11,-18 -1,-1 -1,-1 0,-1 -1,-1 -1,-1 0,-2 -1,0 0,-1 -1,0 0,-1 -1,-1 0,-1 1,0 1,1 1,0 0,2 1,0 0,1 1,0 0,1 1,0 0,1 1,0 0,1 1,0 0,1 1,0 0,1 23,25 q 23,25 23,25 l 1,0 0,1 1,0 0,1 1,0 0,1 1,0 0,1 1,0 0,1 1,0 0,1 2,0 0,-1 -1,-1 -1,-1 0,-1 -1,-1 -1,-1 0,-2 -1,0 q 0,0 -19,-33 l -20,-33 0,-1 -1,-1 -1,-1 0,-2 -1,-1 -1,-1 0,-1 -1,-1 0,-1 2,0 0,2 2,0 0,1 1,0 0,1 1,0 0,1 1,0 0,1 1,0 39,33 q 40,32 40,32 l 0,1 1,0 0,1 1,0 0,1 2,0 0,1 1,0 0,1 1,0 0,1 0,-4 -1,0 0,-1 -1,0 0,-1 -1,0 0,-1 -1,0 0,-1 -1,0 q 0,-1 -35,-36 -34,-35 -40,-37 l -6,-2 -1,-1 -1,-1 -1,0 3,0 q 3,0 3,-1 l -1,-1 q 0,0 0,-2 0,-1 -3,-4 -2,-4 0,-2 z m 4,7 q 0,-1 0,-1 1,0 1,0 0,1 -1,1 z m 2,3 q 0,0 0,-1 1,0 1,1 0,0 -1,0 z m 9,72 1,0 -1,0 z m -19,5 -1,-2 4,3 q 3,4 1,2 -3,-1 -4,-3 z m 95,9 1,0 0,1 1,0 0,2 -1,0 -1,-1 -1,-1 q 0,-1 1,-1 z"
       id="path36"
       inkscape:connector-curvature="0"
       style="fill:#61a4d5;stroke:#61a4d5" />
    <path
       d="m 314,183 22,12 q 21,13 41,19 20,6 21,6 l 2,0 q 0,0 0,1 l 1,0 0,1 q 1,0 1,0 l 0,1 1,0 0,1 1,0 0,1 1,0 0,-1 1,0 6,3 q 6,2 10,4 5,3 4,3 -2,1 -2,1 l -4,0 q -3,-1 -10,-1 l -6,-2 -3,0 q -3,0 -3,1 l 1,1 1,0 1,1 1,1 4,2 q 5,2 6,3 l 1,0 0,1 1,0 1,1 1,1 2,0 0,2 -2,0 -1,-1 -1,-1 -4,0 q 0,0 -10,-5 -11,-4 -11,-3 0,1 2,2 l 3,1 0,1 46,30 q 47,30 74,51 26,20 41,33 15,14 34,35 19,21 27,31 8,10 9,11 l 1,1 0,1 1,0 0,1 1,0 0,2 2,0 0,1 1,1 0,1 -1,0 -1,-1 -1,0 0,-1 -1,0 0,-1 -1,0 0,-1 -1,0 0,-1 -1,0 0,-1 q 0,0 -1,-1 l -1,0 q -1,0 -8,-9 -8,-8 -31,-31 -23,-22 -39,-34 l -16,-13 0,-1 -1,0 0,-1 -1,0 0,-1 -1,0 -1,-1 q -1,-1 -32,-23 -32,-22 -82,-54 -51,-32 -61,-40 -10,-6 -15,-9 l -6,-3 -2,0 -2,-1 -1,-1 -2,0 0,1 1,0 0,1 1,0 0,1 1,0 0,1 2,0 0,1 1,0 0,1 1,0 22,16 q 22,16 22,17 l 1,0 0,1 1,0 1,1 1,1 1,0 1,1 1,0 0,1 -1,1 -1,-1 -1,0 -1,-1 -1,-1 -2,0 -1,-1 q -1,-1 -15,-7 l -14,-8 -2,0 -1,-1 -1,-1 -4,0 1,0 0,1 1,0 0,1 2,0 0,1 1,0 0,1 1,0 26,20 q 27,18 27,19 l 1,0 0,1 2,0 0,1 1,0 0,1 2,0 0,1 1,0 0,1 1,0 -4,0 -1,-1 -2,-1 -2,0 -1,-1 q -1,-1 -37,-18 l -35,-17 -1,-1 -1,-1 -2,0 -1,-1 -1,0 0,-1 1,-1 0,-1 1,0 0,-1 1,0 0,-1 2,0 0,1 1,0 0,1 2,0 12,7 q 12,7 13,7 l 1,0 1,1 1,1 2,0 1,1 1,1 1,0 0,-2 -1,0 0,-1 -1,0 0,-1 -2,0 0,-1 -1,0 0,-1 -1,0 -1,-1 q -1,-1 -28,-21 l -27,-20 -1,0 -1,-1 -1,-1 -1,0 0,-1 -1,0 0,-1 -2,0 0,-1 -1,0 0,-1 3,0 1,1 1,1 2,0 1,1 1,1 13,6 q 13,6 14,7 l 1,1 2,0 1,1 1,1 2,0 1,1 1,0 0,-2 -1,0 -1,-1 -1,0 0,-1 -1,0 0,-1 -1,0 -1,-1 q -1,-1 -15,-11 l -15,-12 -1,0 0,-1 -1,0 0,-1 -1,0 -1,-1 -1,-1 -1,0 0,-1 -1,0 0,-1 2,0 1,1 1,1 3,0 1,1 1,1 33,14 q 33,14 34,15 l 1,1 2,0 1,1 2,1 4,0 -1,0 0,-1 -1,0 0,-1 -2,0 -1,-1 -1,-1 -1,0 -1,-1 q -1,-1 -23,-15 l -21,-14 -1,0 -1,-1 q -1,-1 -2,-1 l -1,-1 -1,0 0,-1 q 0,0 0,-2 l 0,-1 z"
       id="path38"
       inkscape:connector-curvature="0"
       style="fill:#5ba2d4;stroke:#5ba2d4" />
    <path
       d="m 256,12 0,-1 0,9 -4,16 q -4,16 -3,26 1,11 3,14 2,4 11,6 9,4 21,4 13,0 26,0 l 14,0 0,1 -1,0 0,1 -2,0 -1,1 -1,1 -2,0 -1,1 q -1,1 -12,7 l -11,6 -2,0 -1,1 -1,1 -1,0 0,1 -1,0 0,1 2,0 1,1 1,1 2,0 3,2 q 3,2 4,2 l 1,0 q 0,0 1,1 l 0,1 q 0,1 -1,2 l 0,1 -1,0 q -1,-1 -12,-6 -12,-5 -12,-7 0,-1 8,-6 l 8,-6 1,0 1,-1 1,-1 2,0 0,-1 1,0 0,-1 -12,0 q -11,0 -18,-2 -7,0 -14,-4 -7,-4 -10,-8 -2,-5 -3,-13 -1,-8 1,-19 l 2,-12 1,-2 1,-2 0,-2 -1,0 -1,1 -1,0 0,2 -1,0 -1,1 -1,0 0,1 q 0,0 -6,4 -5,3 -11,4 -6,1 -8,-1 -2,0 -6,-5 l -3,-5 -1,0 0,-1 -1,0 0,-2 -1,0 0,-1 -1,0 0,-2 2,0 0,1 1,0 0,-1 2,0 1,-1 0,1 1,0 0,1 1,0 4,6 q 5,7 10,7 4,0 12,-6 8,-6 11,-10 3,-2 3,-3 l 1,0 0,-1 1,0 0,-1 1,0 0,-1 1,0 0,-1 1,0 0,-1 1,0 z"
       id="path40"
       inkscape:connector-curvature="0"
       style="fill:#054b83;stroke:#054b83" />
    <path
       d="m 109,0 32,0 21,6 q 20,6 26,5 7,-1 10,-2 2,-1 3,-2 l 1,0 1,3 q 1,3 2,4 l 1,1 0,2 1,1 1,1 0,1 1,1 0,1 -4,0 -1,1 -1,0 0,-1 -1,0 0,-1 -1,-1 q -1,-1 -2,-4 -1,-3 -3,-2 -2,0 -9,1 -7,1 -13,-1 -5,-2 -20,-6 -14,-4 -30,-4 l -16,0 0,1 -3,0 q -3,1 -5,1 l -3,0 -2,1 -2,1 -3,0 0,-3 1,0 0,-1 4,0 7,-2 q 7,-2 7,-2 z"
       id="path42"
       inkscape:connector-curvature="0"
       style="fill:#074e85;stroke:#074e85" />
    <path
       d="m 86,185 -3,-4 14,9 q 14,8 27,12 13,4 17,5 l 4,1 2,0 -1,1 -2,1 -10,0 q -9,0 -12,-1 -3,-1 -12,-4 l -10,-3 q 0,-1 -1,-1 l 0,-1 -1,-1 0,-1 -1,0 q 0,0 -1,-1 l -1,-1 2,0 0,-1 -1,0 0,-1 -2,0 0,-1 -1,-1 0,-1 -1,0 -1,-1 -1,0 q 0,0 -4,-5 z"
       id="path44"
       inkscape:connector-curvature="0"
       style="fill:#a9dcf4;stroke:#a9dcf4" />
    <path
       d="m 255,214 1,0 6,2 q 6,2 40,37 35,35 35,36 l 1,0 0,1 1,0 0,1 1,0 0,1 1,0 0,1 1,0 0,1 1,1 0,1 2,0 0,1 1,0 0,1 1,0 0,1 1,0 0,2 -1,0 -1,-1 -1,0 0,-1 -1,0 0,-1 -1,0 0,-1 -1,0 0,-1 -1,0 0,-1 -1,0 0,-1 -2,0 0,-1 -1,0 0,-1 -1,0 0,-1 q 0,0 -40,-32 l -39,-33 -1,0 0,-1 -1,0 0,-1 -1,0 0,-1 -1,0 0,-1 -3,0 0,1 1,1 1,1 0,2 1,1 1,1 0,1 20,33 q 19,33 19,33 l 1,0 0,2 1,1 1,1 0,1 1,1 1,1 0,1 1,1 0,1 -2,0 0,-1 -1,-1 0,-1 -1,0 0,-1 -1,0 0,-1 -1,0 0,-1 -1,0 0,-1 -1,0 0,-1 -1,0 q 0,0 -23,-25 l -23,-25 0,-1 -1,0 0,-1 -1,0 0,-1 -1,0 0,-1 -1,0 0,-1 -1,0 0,-1 -2,0 0,1 1,0 0,2 1,1 1,1 0,1 1,1 1,1 11,18 q 11,18 12,19 l 1,1 0,1 1,1 1,1 0,1 1,1 1,1 0,2 -1,0 0,-1 -1,0 0,-1 -1,0 0,-1 -1,0 0,-1 -1,0 0,-1 -1,0 0,-1 -1,-1 q -1,-1 -22,-23 l -21,-23 -1,0 0,-1 -1,0 0,-2 q 0,-1 -5,-8 l -5,-7 0,-8 1,0 0,-1 8,0 q 8,0 15,2 6,2 8,3 l 1,1 2,0 1,1 1,1 2,0 0,-1 -1,-1 0,-1 -1,0 0,-1 -1,0 -2,-4 q -2,-4 3,-4 5,0 7,1 2,1 3,1 z m -20,25 q 1,0 1,0 0,1 0,1 -1,0 -1,-1 z"
       id="path46"
       inkscape:connector-curvature="0"
       style="fill:#f7f9fc;stroke:#f7f9fc" />
    <path
       d="m 156,277 0,-5 16,20 q 16,19 16,20 l 0,1 1,0 0,1 1,0 0,1 1,0 0,1 1,0 0,1 1,0 0,1 1,0 0,1 0,-5 -1,-2 -1,-1 0,-1 q 0,-2 -4,-14 l -4,-11 -1,-1 -1,-2 0,-3 -1,-1 0,-1 1,0 0,1 1,0 0,1 1,0 0,1 1,1 1,1 0,3 1,1 1,1 0,-1 1,1 1,1 0,1 1,0 0,1 1,0 0,-2 15,40 q 15,41 16,42 l 1,1 0,3 1,2 1,1 0,2 1,1 0,1 -2,0 0,-1 -1,-1 0,-1 -1,-1 -1,-1 0,-1 -1,0 0,-1 -1,0 0,-1 -1,-1 q -1,-1 -29,-39 -30,-38 -30,-38 l -2,0 0,-2 2,0 1,-1 -1,0 0,-1 q 0,-1 -3,-4 -2,-3 -3,-5 0,-2 1,-1 1,1 1,-4 z"
       id="path48"
       inkscape:connector-curvature="0"
       style="fill:#5daad9;stroke:#5daad9" />
    <path
       d="m 35,65 1,0 -3,7 q -3,8 -3,10 l 0,2 -1,1 0,1 -1,6 q -2,5 -1,20 1,16 4,26 4,10 7,14 4,4 4,4 l 0,1 q 0,1 1,1 l 0,1 1,0 0,2 4,8 q 4,8 4,13 1,5 8,8 6,2 9,6 3,4 5,7 1,3 8,6 7,3 10,5 2,2 2,2 l 1,0 0,1 1,0 0,2 1,1 1,2 0,2 -1,1 0,1 -2,0 0,-1 -1,-1 0,-1 q 0,0 -2,-2 l 0,-2 -1,0 0,-1 -5,0 0,5 1,0 0,1 1,0 0,-1 1,1 q 1,0 1,2 l 0,2 1,0 0,1 1,0 0,3 -2,0 0,1 -1,0 0,1 -1,0 0,-1 -1,0 0,1 -1,0 0,-4 q 0,-2 -1,-2 -1,-1 -5,-3 -4,-1 -22,-1 l -17,2 -4,0 1,-1 1,-1 3,0 1,-1 1,-1 1,0 q 1,0 7,-4 l 6,-4 2,0 0,-2 1,-1 1,-1 0,-1 -1,-1 -1,-1 0,-1 -2,0 -1,-1 q -1,-1 -12,-4 l -11,-3 -1,-1 -1,-1 2,0 0,-1 q 0,0 2,-2 2,-2 2,-7 l 0,-8 -1,-1 -1,-1 0,-2 -1,-1 q -1,-1 -5,-11 -6,-10 -9,-24 -3,-13 -3,-28 0,-15 1,-22 l 2,-8 1,0 1,-1 1,-1 1,-2 1,-1 0,1 1,-2 q 1,-1 1,-2 l 0,-2 1,0 1,-1 q 2,-1 3,-2 1,-2 2,-2 z"
       id="path50"
       inkscape:connector-curvature="0"
       style="fill:#59a4d5;stroke:#59a4d5" />
    <path
       d="m 385,194 0,-1 49,24 q 48,23 49,24 l 1,1 2,0 1,1 1,1 2,0 0,1 1,0 0,1 -3,0 -3,-1 -3,-1 -4,0 q -3,0 -28,-5 l -26,-4 q 0,0 2,-1 1,0 -4,-3 -4,-2 -10,-4 l -6,-3 -1,0 0,1 -1,0 0,-1 -1,0 0,-1 -1,0 0,-1 -2,0 0,-2 2,0 1,1 1,1 4,0 5,2 q 5,2 7,2 l 3,0 2,1 2,1 4,0 -1,-1 -1,-1 -2,0 -1,-1 -1,-1 -1,0 -2,-1 q -1,-1 -4,-2 l -3,-2 0,-1 1,0 0,-3 -1,0 -1,-1 -2,0 0,-1 -1,0 0,-1 -1,0 q -1,0 -6,-3 -5,-3 -9,-6 l -5,-3 0,-1 q 0,-1 -2,-2 -2,-1 -3,-3 z"
       id="path52"
       inkscape:connector-curvature="0"
       style="fill:#5aa7d7;stroke:#5aa7d7" />
    <path
       d="m 67,166 -2,-4 9,8 q 8,9 9,10 l 0,1 -1,0 q -1,-1 -6,-6 l -6,-5 0,-1 q 0,0 -3,-3 z"
       id="path54"
       inkscape:connector-curvature="0"
       style="fill:#addef4;stroke:#addef4" />
    <path
       d="m 295,162 1,1 1,1 55,26 q 55,26 56,26 l 1,0 1,1 1,1 3,0 0,1 1,0 3,2 q 3,1 4,2 l 2,1 1,0 1,1 1,1 2,0 1,1 1,1 -4,0 -2,-1 -2,-1 -3,0 q -2,0 -7,-2 l -5,-2 -4,0 -2,-1 -1,0 0,-1 q -1,0 -1,0 l -2,0 q -1,0 -21,-6 -20,-6 -41,-19 l -22,-12 0,-1 -1,0 0,-1 -1,0 0,-1 -1,0 0,-1 q -1,0 -8,-7 l -7,-6 0,-1 -1,0 0,-1 -1,0 0,-2 q 0,0 1,0 z"
       id="path56"
       inkscape:connector-curvature="0"
       style="fill:#b3e0f7;stroke:#b3e0f7" />
    <path
       d="m 211,192 3,-1 2,0 0,2 -1,0 -1,1 2,0 0,5 1,1 1,1 0,1 1,0 2,1 q 3,1 2,0 0,-1 9,-1 10,0 14,2 5,2 4,0 0,-2 -2,-3 -1,0 -2,-1 0,-2 -1,-2 -1,0 -1,-2 0,-2 1,-2 1,0 1,-2 0,-1 1,-1 1,0 1,1 l 5,5 q 5,5 5,6 l 0,1 -1,0 q -1,1 1,3 2,2 1,2 -1,1 1,1 2,2 -1,2 -3,0 -3,1 l 0,1 -1,0 q -1,0 -3,-1 -2,-1 -7,-1 -5,0 -3,4 l 2,4 1,0 0,1 1,0 0,1 1,1 0,1 -2,0 -1,-1 -1,-1 -2,0 -1,-1 q -2,-1 -8,-3 -7,-2 -15,-2 l -8,0 0,1 -1,0 0,8 6,8 q 6,8 5,8 -1,-1 -1,-1 l -2,0 q 0,0 -1,0 l -1,1 0,-1 q 0,0 -1,0 -1,-1 -1,-1 l 0,-1 q 0,0 -5,-3 -4,-3 -10,-3 -6,0 -6,2 -1,2 1,4 l 1,2 1,0 q 1,0 16,16 14,16 15,16 l 0,1 q 0,1 -1,1 l -2,0 0,-1 -1,0 0,-1 -1,0 -1,-1 -1,0 0,-2 -1,0 q 0,-1 -1,-1 -1,0 -9,-8 l -7,-9 -1,0 0,-1 -1,0 0,-1 -1,0 0,-1 -1,0 0,-1 -1,0 0,-1 -3,0 1,2 1,1 0,2 1,1 1,1 2,4 q 2,4 6,7 5,4 6,4 0,0 0,1 l 1,0 0,1 1,0 0,1 1,0 0,1 -1,0 q -1,0 -2,0 -2,0 -2,1 l 0,1 -1,2 0,1 -2,0 0,1 1,2 0,1 1,0 0,1 q 1,0 1,0 l 0,1 1,1 q 1,0 1,1 l 1,0 3,5 q 4,4 4,4 l 0,1 1,1 1,1 0,1 1,2 1,1 0,2 -1,0 0,-1 -1,0 0,-1 -1,0 0,-1 -1,0 0,-2 -1,0 0,-1 -1,0 0,-1 -1,0 q 0,0 -1,-2 -2,0 -9,-9 -7,-8 -9,-11 l -2,-4 -3,0 -1,-1 -1,-1 -2,0 -1,-1 -1,0 0,1 1,1 0,2 1,1 1,2 0,3 1,1 q 1,2 1,3 l 0,1 1,2 1,1 0,5 -1,0 0,-1 -1,0 0,-1 -1,-1 -1,-1 0,1 -1,-1 -1,-1 0,-3 -1,-1 -1,-1 0,-1 -1,0 0,-1 -1,0 0,-1 -1,0 0,-1 q -1,0 -5,-10 -4,-11 -6,-13 l -3,-1 -1,-1 -1,-1 -8,0 0,1 -1,0 0,11 q 0,8 0,9 l 0,7 q 0,6 2,9 2,3 2,4 l 0,1 1,0 -1,1 -2,0 0,2 1,0 0,2 -1,2 0,-2 -1,-1 -1,-2 0,-1 q 0,-1 -2,-3 0,-3 -18,-26 -16,-23 -21,-23 -4,-1 -9,1 -6,2 -21,12 l -15,9 0,1 -2,0 0,1 -1,0 0,1 -1,0 0,1 -1,0 0,1 -2,0 0,-1 1,-1 0,-1 1,0 0,-1 1,0 0,-1 1,0 0,-1 1,0 0,-1 1,-1 q 1,-1 1,-2 2,-1 9,-12 l 7,-12 1,0 0,-1 1,0 0,1 1,0 0,-1 1,0 0,-1 q 0,-2 1,-2 l 1,0 0,-1 -1,0 0,-1 -1,0 0,-2 q 0,-2 -1,-2 l -1,-1 0,1 -1,0 0,-1 -1,0 0,-5 5,0 0,1 1,0 0,2 q 2,2 2,2 l 0,1 1,1 0,1 2,0 0,-1 1,-1 13,0 q 13,0 20,4 7,4 9,4 2,0 6,-4 5,-4 9,-6 4,-2 9,-2 5,0 8,-4 2,-4 5,-5 3,-1 9,-3 6,0 7,-2 1,-2 3,-2 1,0 8,0 l 10,0 0,-2 -1,0 0,-1 q -1,0 -2,-3 l -1,-3 -1,0 0,-1 1,0 0,-2 1,0 z m 42,9 q 0,-1 1,-1 2,1 2,2 0,1 -1,0 -1,0 -2,-1 z m 0,11 0,-1 q 1,0 1,1 l -1,0 z"
       id="path58"
       inkscape:connector-curvature="0"
       style="fill:#5ca7d7;stroke:#5ca7d7" />
    <path
       d="m 158,250 7,0 1,1 1,1 3,1 q 2,2 6,13 4,10 5,10 l 0,2 1,1 0,3 1,2 1,1 4,11 q 4,12 4,14 l 0,1 1,1 1,2 0,5 0,-1 -1,0 0,-1 -1,0 0,-1 -1,0 0,-1 -1,0 0,-1 -1,0 0,-1 -1,0 0,-1 q 0,-1 -16,-20 l -16,-20 0,-1 q 0,-1 0,-9 l 0,-11 1,0 0,-1 1,0 z"
       id="path60"
       inkscape:connector-curvature="0"
       style="fill:#b5e2f8;stroke:#b5e2f8" />
    <path
       d="m 201,20 1,1 0,1 q 0,0 0,1 l 1,0 0,1 1,1 0,2 1,0 0,1 1,0 3,5 q 4,5 6,5 2,2 8,1 6,-1 11,-4 6,-4 6,-4 l 0,-1 1,0 1,-1 1,0 0,-2 1,0 1,-1 1,0 0,2 -1,2 -1,2 -2,12 q -2,11 -1,19 1,8 3,13 3,4 10,8 7,4 14,4 7,2 18,2 l 12,0 0,1 -1,0 0,1 -2,0 -1,1 -1,1 -1,0 -8,6 q -8,5 -8,6 0,2 12,7 11,5 12,6 l 1,0 1,1 q 2,0 2,1 l 1,0 -1,1 q -1,0 -1,1 0,1 1,1 2,1 2,2 l 0,1 1,1 q 1,0 1,1 0,1 -1,0 -1,0 -1,1 0,1 1,2 1,0 1,1 0,1 0,2 -1,-1 -20,-9 l -19,-8 -2,-1 -2,0 0,1 -1,1 0,14 q 0,1 0,1 l 1,0 0,1 1,1 0,1 1,0 0,1 2,0 0,1 1,0 0,1 4,3 q 4,3 14,5 11,2 14,3 l 4,1 5,0 -5,1 -5,0 0,1 -1,1 0,1 2,0 0,1 1,0 0,1 1,0 1,1 1,0 0,2 -1,0 -1,-1 -1,0 -1,-1 q -1,-1 -4,-1 l -3,0 0,-1 -1,0 0,2 -1,0 0,1 -1,0 0,2 1,0 1,1 0,1 1,0 0,1 1,0 0,1 7,6 q 7,7 8,7 l 0,1 1,0 0,1 1,0 0,1 1,0 0,2 2,0 0,2 -1,0 0,1 -1,0 0,-1 -2,0 0,-1 -1,0 0,-1 -2,0 0,-1 -1,0 q 0,-1 -6,-5 l -7,-4 -1,0 -1,-1 -1,-1 -2,0 0,-1 -1,0 0,-1 -2,0 0,1 1,1 0,1 1,1 1,1 0,1 1,0 2,3 q 1,2 2,2 l 0,1 1,0 0,2 1,0 0,1 1,0 0,1 1,1 0,1 -2,0 -1,-1 -1,-1 -2,0 -1,-1 -1,-1 -1,0 q -2,0 -13,-4 l -11,-4 -2,0 0,-3 0,1 2,0 0,-1 -1,0 0,-1 -1,0 0,-1 1,0 q 1,-1 5,-1 l 3,0 -1,0 0,-1 -1,0 0,-1 -1,0 0,-1 -1,0 q 0,-1 0,-1 -1,0 -2,-4 -2,-3 -3,-3 -1,-1 -9,-10 -9,-10 -9,-18 0,-8 1,-12 2,-3 8,-11 l 7,-7 0,-1 3,0 0,-3 -1,0 -2,-1 -2,0 q -1,0 -2,-1 0,-1 -6,-3 -7,-2 -9,-4 -2,-2 -3,-2 -1,0 -4,-5 l -4,-5 1,-3 q 1,-3 1,-9 0,-5 1,-5 1,0 1,-4 0,-3 1,-6 1,-2 -1,-3 -1,-1 -1,-3 l 1,-2 0,2 1,-1 0,-1 1,0 1,-1 -5,0 q -2,0 -4,2 -2,2 -3,2 -2,1 -2,0 0,-1 -1,-1 -1,1 -7,-1 -6,0 -7,-2 0,-1 -2,-2 -2,-1 -6,-10 -4,-8 -5,-8 -1,0 -1,-1 0,-1 -1,-1 -1,0 -1,2 -1,1 -10,1 -10,1 -19,-1 l -9,-2 q -1,0 -6,-3 -6,-3 -6,-3 0,-2 -15,-4 l -15,-2 7,0 -7,-1 -6,0 0,-1 16,0 q 16,0 30,4 15,4 20,6 6,2 13,1 7,-1 9,-1 2,-1 3,2 1,3 2,4 z"
       id="path62"
       inkscape:connector-curvature="0"
       style="fill:#57a0d3;stroke:#57a0d3" />
    <path
       d="m 186,64 -5,-6 5,4 q 4,3 5,4 1,0 1,0 l 0,1 q 0,0 1,1 1,0 1,1 l 0,1 -1,0 q -1,0 -7,-6 z"
       id="path64"
       inkscape:connector-curvature="0"
       style="fill:#bae3f6;stroke:#bae3f6" />
    <path
       d="m 185,268 0,-1 1,0 1,1 2,0 q 1,0 2,1 0,1 1,1 l 2,0 2,4 q 2,3 9,11 7,9 9,9 1,2 1,2 l 1,0 0,1 1,0 0,1 1,0 0,2 1,0 0,1 1,0 0,1 1,0 0,1 1,0 0,-2 -1,-1 -1,-2 0,-1 -1,-1 -1,-1 0,-1 q 0,0 -4,-4 l -3,-5 0,-1 q 0,-1 3,-1 2,1 2,1 l 0,1 q 0,1 2,3 2,2 2,3 l 28,31 q 26,31 27,31 l 0,1 1,0 0,1 1,0 0,1 1,0 0,2 1,0 0,1 1,0 0,1 2,0 0,-1 -1,-1 -1,-1 0,-2 -1,-1 -1,-1 0,-1 q 0,-1 -4,-8 l -2,-6 -1,-1 -1,-1 0,-2 -1,0 0,-1 -1,0 0,-2 2,0 0,2 1,0 0,1 1,0 0,1 1,0 0,1 1,0 0,1 5,9 q 5,8 6,8 1,0 1,1 0,1 1,2 l 1,1 0,1 1,0 0,1 1,0 0,1 1,0 0,1 1,0 q 0,0 0,1 l 1,0 q 0,1 1,1 l 16,31 q 16,31 16,32 l 0,1 1,1 1,1 0,2 1,1 1,1 0,2 -1,0 0,-1 -1,0 0,-1 -1,-1 -1,-1 0,-1 -1,0 0,-1 -1,0 0,-1 -1,0 q 0,-1 -65,-77 l -66,-76 0,-1 -1,-1 -1,-1 0,-1 -1,0 0,-1 -1,0 0,-1 -1,0 0,-1 -1,0 -1,-1 z"
       id="path66"
       inkscape:connector-curvature="0"
       style="fill:#5ca9d8;stroke:#5ca9d8" />
    <path
       d="m 105,5 9,0 7,1 -7,0 15,2 q 15,2 15,4 0,0 6,3 5,3 6,3 l 0,1 q 0,1 0,2 l -1,1 -1,0 q -2,0 -4,-1 l -1,-1 -2,0 q -2,0 -9,-1 l -7,-1 q 0,0 -13,0 -12,0 -23,4 -11,2 -22,8 -11,4 -18,11 -7,7 -13,15 l -6,9 q 0,0 -1,1 l -1,1 q -2,1 -4,2 l -1,1 -1,0 0,2 q 0,1 -1,2 l -1,2 0,-1 -1,1 -1,2 -1,1 -1,1 -1,0 0,-2 1,-1 0,-3 1,-2 1,-1 0,-2 7,-11 Q 37,46 48,35 60,24 71,18 82,12 86,10 90,8 90,8 l 3,0 2,-1 2,-1 3,0 q 2,0 5,-1 z"
       id="path68"
       inkscape:connector-curvature="0"
       style="fill:#5ba6d7;stroke:#5ba6d7" />
    <path
       d="m 453,328 9,0 21,10 q 21,8 29,13 9,5 10,5 l 1,0 0,1 1,0 0,1 2,0 1,1 q 1,0 1,-1 l 0,-1 -1,0 0,-1 -1,0 0,-1 -1,0 0,-1 -1,0 -1,-1 q -1,-1 -13,-10 l -11,-9 6,2 q 6,2 11,5 5,3 6,4 l 1,1 1,0 2,1 1,1 1,0 0,-3 16,13 q 16,12 39,34 23,23 31,31 7,9 8,9 l 0,1 q 0,1 8,11 7,9 6,9 -1,0 -1,-1 -1,-1 -9,-10 -10,-9 -20,-17 -10,-9 -34,-25 -24,-17 -39,-26 l -14,-8 0,-1 -1,0 0,-1 -2,0 -1,-1 -1,-1 -2,0 0,-1 0,3 1,0 1,1 1,1 1,0 0,1 1,0 0,1 1,0 53,43 q 54,43 55,43 l 1,0 0,1 1,0 0,1 1,0 0,1 1,0 0,1 2,0 0,1 1,0 0,1 1,0 -4,0 -1,-1 -1,-1 -2,0 -1,-1 q -1,-1 -33,-19 l -32,-18 -1,0 -1,-1 -1,-1 -2,0 -1,-1 -1,0 0,1 1,1 0,1 1,0 0,1 1,0 0,1 1,0 0,1 1,0 0,1 34,34 q 34,34 69,68 35,33 35,33 l 0,1 1,0 0,1 1,0 0,1 1,0 0,1 1,0 0,1 1,0 0,1 1,0 0,1 2,0 0,1 1,1 0,1 -1,0 -1,-1 -1,0 0,-1 -1,0 0,-1 -1,0 -1,-1 -1,-1 -1,0 -1,-1 -1,-1 -1,0 0,-1 q 0,0 -8,-6 l -8,-5 0,-1 -1,0 0,-1 -2,0 0,-1 -1,0 0,-1 -2,0 0,-1 -1,0 0,-1 -1,0 0,2 1,0 0,1 1,0 0,1 1,0 0,1 1,0 0,1 1,0 0,1 1,0 0,1 32,31 q 32,32 33,32 l 0,1 1,0 0,1 1,0 0,1 1,0 0,1 1,0 0,1 1,0 0,1 1,0 0,1 2,0 0,2 -2,0 0,-1 -1,0 0,-1 -1,0 -1,-1 -1,-1 -2,0 0,-1 -1,0 0,-1 -1,0 q -1,0 -69,-47 l -69,-47 -1,0 -1,-1 -1,-1 -1,0 -1,-1 -1,-1 -1,0 0,2 1,0 1,1 1,1 1,0 0,1 1,0 0,1 1,0 0,1 36,34 q 36,34 36,34 l 0,1 1,0 0,1 1,0 0,1 1,0 0,1 1,0 0,1 1,0 0,1 1,0 0,1 2,0 0,1 1,1 0,1 -1,0 -1,-1 -1,0 0,-1 -1,0 0,-1 -1,0 -1,-1 -1,-1 -1,0 -1,-1 -1,-1 -1,0 q 0,0 -6,-4 l -5,-4 0,-1 -1,0 0,-1 -2,0 0,-1 -1,0 0,-1 -1,0 0,-1 -1,0 q 0,-1 -83,-63 l -84,-62 0,-1 -1,0 0,-1 -2,0 0,-1 -1,0 0,-1 -1,0 -1,-1 -1,0 0,1 1,1 0,1 1,1 1,1 0,1 1,1 1,1 16,21 q 16,22 31,38 15,16 29,28 15,12 15,12 l 1,0 1,1 1,1 1,0 0,1 1,0 0,1 2,0 0,1 1,0 0,1 -2,0 -1,-1 -1,-1 -3,0 0,-1 -1,0 0,-1 -1,0 q -1,0 -8,-4 -6,-4 -27,-18 -21,-14 -41,-32 -20,-18 -68,-68 l -48,-52 -2,0 0,-1 -1,-1 0,-1 1,0 1,1 1,0 q 1,0 1,0 l 1,0 q 0,0 2,-1 l 1,-1 -1,0 0,-2 -1,0 0,-1 -1,0 0,-1 -1,-1 0,-1 2,0 0,1 1,0 0,1 1,0 0,1 1,0 0,1 q 0,1 1,0 l 35,36 q 34,36 38,40 4,3 4,4 l 0,1 1,0 0,1 1,0 0,1 1,0 0,1 2,0 0,1 1,0 0,1 2,0 0,-1 -1,0 0,-1 -1,0 0,-2 -1,-1 -1,-1 0,-1 -1,-1 q -1,-2 -16,-28 l -15,-27 -1,-1 -1,-1 0,-6 0,1 3,0 1,1 1,1 1,0 92,62 q 92,62 92,62 l 0,1 1,0 0,1 2,0 1,1 1,1 3,0 0,-3 -1,0 0,-1 -1,0 0,-1 -1,0 0,-1 -1,0 0,-2 -1,0 q -1,0 -47,-46 l -46,-46 0,-1 -1,0 0,-1 -1,0 0,-1 -1,0 0,-1 -1,0 0,-4 0,1 1,0 0,1 2,0 0,1 1,0 0,1 2,0 0,1 4,3 q 4,2 6,4 3,0 4,1 l 1,1 1,0 1,1 1,1 2,0 0,1 1,0 0,1 2,0 0,-1 -1,0 0,-1 -1,0 0,-1 -1,0 0,-1 -1,0 0,-1 -1,0 0,-1 -1,0 0,-1 -1,0 q 0,-1 -29,-29 l -29,-29 0,-1 -1,0 0,-1 -1,0 0,-1 -1,0 0,-1 -1,0 0,-1 -1,-1 0,-1 -2,0 0,-2 2,0 0,1 1,0 0,1 2,0 1,1 q 1,1 2,1 l 1,0 1,1 1,1 1,0 1,-1 1,-1 -1,0 0,-1 -1,0 0,-1 -2,0 0,-1 -1,0 0,-1 -1,0 0,-1 -1,0 q 0,-1 -18,-16 l -19,-15 0,-1 -1,0 0,-1 -1,-1 0,-1 -2,0 0,-1 -1,0 0,-1 -1,0 z m -65,61 2,1 1,0 0,1 1,0 0,2 -1,0 -1,-1 -2,0 -1,-1 q -1,0 -1,-1 0,-1 2,-1 z m 248,143 q 0,-1 1,-1 1,0 1,1 l 0,1 -1,0 q -1,0 -1,-1 z"
       id="path70"
       inkscape:connector-curvature="0"
       style="fill:#bde5f9;stroke:#bde5f9" />
    <path
       d="m 192,246 3,0 0,1 1,0 0,1 1,0 0,1 1,0 0,1 1,0 0,1 1,0 7,9 q 8,8 9,8 1,0 1,1 l 1,0 0,2 1,0 1,1 1,0 0,1 1,0 0,1 2,2 q 2,2 2,2 l 0,1 1,0 0,1 1,0 0,1 1,0 0,1 2,0 0,1 1,0 0,2 -1,0 -1,-1 -1,0 0,-1 -1,0 0,-1 -1,0 0,-1 -1,0 0,-1 -1,0 q -1,0 -7,-5 l -5,-4 0,-1 q -1,0 -1,0 0,-1 -1,-1 l 0,-1 q -1,0 -1,0 -1,0 -6,-4 -4,-3 -6,-7 l -2,-4 -1,-1 -1,-1 0,-2 -1,-1 -1,-2 z"
       id="path72"
       inkscape:connector-curvature="0"
       style="fill:#a8d6f1;stroke:#a8d6f1" />
    <path
       d="m 211,270 -1,-2 7,6 q 7,6 8,6 l 1,0 0,1 1,0 0,1 1,0 0,1 0,-3 -1,0 0,-1 -1,0 0,-1 q 0,0 -2,-2 l -2,-2 2,0 q 1,0 1,-1 l 13,14 q 14,14 14,15 0,0 0,1 l 1,0 q 0,1 1,1 0,0 0,1 l 1,0 q 0,1 1,1 0,0 0,1 l 1,0 q 0,1 1,1 0,0 0,1 l 1,0 q 0,1 1,1 l 0,1 1,0 1,1 q 2,2 2,2 l 0,1 q 0,0 2,0 1,1 -2,-2 l -2,-3 0,-1 -1,0 0,-1 -1,0 0,-2 -1,0 0,-1 -1,0 0,-1 q 0,-1 -2,-3 l -1,-2 0,-1 q 0,-1 1,-1 l 1,0 q 0,1 1,1 0,0 0,1 l 1,0 24,31 q 25,30 71,79 47,49 64,64 17,15 38,28 20,13 24,16 5,3 6,3 l 1,0 1,1 1,1 2,0 1,1 2,1 2,0 0,-1 -1,0 0,-1 -2,0 0,-1 -1,0 0,-1 -1,0 -1,-1 -1,-1 -1,0 q 0,0 -10,-8 -9,-8 -24,-23 -16,-15 -30,-33 -14,-16 -29,-39 l -15,-23 -1,0 0,-1 -1,0 0,-2 -1,0 0,-1 -1,0 0,-2 -1,-1 0,-1 2,0 0,1 1,1 0,1 1,0 0,1 1,0 0,1 1,0 0,1 1,0 48,52 q 48,50 68,68 20,18 41,32 21,14 27,18 7,4 8,4 l 1,0 0,1 1,0 0,1 3,0 1,1 1,1 2,0 0,-1 -1,0 0,-1 -2,0 0,-1 -1,0 0,-1 -1,0 -1,-1 -1,-1 -1,0 q 0,0 -15,-12 -14,-12 -29,-28 -15,-16 -31,-38 l -16,-21 -1,-1 -1,-1 0,-1 -1,-1 -1,-1 0,-1 -1,-1 0,-1 1,0 1,1 1,0 0,1 1,0 0,1 2,0 0,1 1,0 0,1 84,62 q 83,62 83,63 l 1,0 0,1 1,0 0,1 1,0 0,1 1,0 0,1 -1,1 -1,-1 -1,0 0,4 -2,0 -1,-1 -2,0 0,-1 -1,0 q 0,-1 -64,-48 l -63,-47 0,-1 -1,0 0,-1 -1,0 -1,-1 -1,-1 -3,0 1,0 0,1 1,0 0,1 1,1 1,1 0,1 1,0 0,1 1,0 17,18 q 17,18 35,33 19,15 48,35 30,20 31,20 l 1,0 0,1 1,0 0,1 2,0 0,1 1,0 0,1 2,0 0,1 1,0 0,1 2,0 0,1 1,0 0,1 -3,0 0,-1 -1,0 0,-1 -3,0 -1,-1 -1,-1 -2,0 -1,-1 q -1,-1 -14,-6 l -12,-5 -1,-1 -1,0 0,-1 -2,0 -1,-1 -1,-1 -2,0 q -1,0 -16,-8 -16,-6 -37,-18 -21,-11 -41,-21 -21,-9 -41,-20 -20,-11 -41,-25 -20,-14 -34,-27 -14,-13 -62,-64 l -48,-51 -1,0 0,-1 -1,0 0,-1 -1,0 0,-1 -1,0 0,-1 -1,0 0,-1 -1,0 0,-1 -2,0 0,1 1,1 1,1 0,2 1,1 q 1,1 1,2 l 0,1 1,0 0,1 1,0 0,2 -2,0 0,-2 -1,0 0,-1 -1,0 0,-1 -1,0 0,-1 -1,0 0,-1 -1,-1 q -1,-1 -1,-2 0,-1 -1,-1 -1,0 -6,-8 l -5,-9 0,-1 -1,0 0,-1 -1,0 0,-1 -1,0 0,-1 -1,0 q 0,-1 0,-1 l -1,0 q -1,-1 -1,-1 l 0,-1 q 0,0 -1,-1 -1,-1 -21,-19 -20,-19 -25,-22 l -5,-4 q 0,0 -2,-1 -3,0 -3,1 l 0,1 -1,0 q 0,-1 -1,-1 l -1,-1 0,-1 q 0,0 -1,0 l 0,-1 -1,0 0,-1 -1,-2 0,-1 2,0 0,-1 1,-2 0,-1 q 0,-1 2,-1 2,0 1,-2 z m 20,14 q 1,0 1,0 -1,0 -1,0 z"
       id="path74"
       inkscape:connector-curvature="0"
       style="fill:#579fd2;stroke:#579fd2" />
    <path
       d="m 156,19 0,-1 9,2 q 9,2 19,1 9,0 10,-1 0,-2 1,-2 1,0 1,1 0,1 1,1 1,0 5,8 4,9 6,10 2,1 2,2 1,2 7,2 6,2 7,1 1,0 1,1 0,1 2,0 1,0 3,-2 2,-2 4,-2 l 5,0 -1,1 -1,0 0,1 -1,1 0,-2 -1,2 q 0,2 1,3 2,1 1,3 -1,3 -1,6 0,4 -1,4 -1,0 -1,5 0,6 -1,9 l -1,3 0,-2 -1,0 0,-1 -1,0 0,-1 -2,0 0,-3 -1,0 0,1 -1,0 0,2 -2,0 0,-4 q 0,-3 -1,-9 l 0,-6 -1,0 q -1,1 -6,0 -5,-1 -11,-4 -6,-3 -11,-11 -6,-7 -13,-8 -7,-2 -13,-4 l -7,-2 -2,0 -2,-1 q -2,-1 -2,-1 l 1,-1 q 0,-1 0,-2 z"
       id="path76"
       inkscape:connector-curvature="0"
       style="fill:#60addb;stroke:#60addb" />
    <path
       d="m 304,122 1,-1 1,0 0,1 44,20 q 44,22 45,22 l 1,0 1,1 1,1 2,0 1,1 1,1 2,0 -12,0 q -4,0 -37,-4 l -33,-4 -3,0 q 0,0 -3,0 -2,0 -2,0 -1,1 0,1 1,0 1,1 l 1,2 0,2 -2,0 0,-1 -1,0 0,-1 -2,0 -1,-1 -1,-1 -2,0 0,-1 -1,0 0,-1 -1,0 -1,-1 0,-1 -1,0 0,-1 -1,0 0,-1 -2,0 0,-1 1,-1 0,-1 5,0 5,-1 -5,0 -4,-1 q -3,-1 -14,-3 -10,-2 -14,-5 l -4,-3 0,-1 -1,0 0,-1 -2,0 0,-1 -1,0 0,-1 -1,0 0,-1 -1,0 0,-2 1,0 1,1 2,0 2,1 2,1 32,8 q 31,8 34,8 l 2,0 2,1 2,1 1,-1 0,-1 -2,0 -1,-1 -1,-1 -2,0 -1,-1 q -1,-1 -16,-7 l -14,-7 q 0,-1 0,-2 0,-1 -1,-1 -1,-1 -1,-2 0,-1 1,-1 1,1 1,0 0,-1 -1,-1 l -1,-1 0,-1 q 0,-1 -2,-2 -1,0 -1,-1 0,-1 1,-1 z"
       id="path78"
       inkscape:connector-curvature="0"
       style="fill:#5facdb;stroke:#5facdb" />
    <path
       d="m 321,211 0,-1 2,0 1,1 2,1 2,0 6,3 q 5,3 15,9 10,8 61,40 50,32 82,54 31,22 32,23 l 1,1 1,0 0,1 1,0 0,1 1,0 0,3 2,0 0,2 -1,0 -1,-1 -1,0 -1,-1 -2,-1 -1,0 -1,-1 q -1,-1 -6,-4 -5,-3 -11,-5 l -6,-2 -1,0 q 0,0 -21,-15 -21,-14 -26,-17 -6,-3 -6,-4 0,-1 -3,-2 -3,-1 -3,-2 0,-1 -1,-1 -2,0 -2,-1 0,-1 -4,-2 -4,-2 -4,-3 0,-1 -2,-1 -1,0 -1,-1 0,-1 -1,-1 -2,0 -2,-1 0,-1 -3,-2 -3,-1 -9,-5 -7,-4 -7,-5 0,-1 -1,-1 -2,0 -14,-7 -11,-7 -11,-8 l 0,-1 q 1,0 0,-1 l 0,-1 -1,0 -1,-1 -1,-1 -1,0 0,-1 -1,0 q 0,-1 -22,-17 l -22,-16 -1,0 0,-1 -1,0 0,-1 -2,0 0,-1 -1,0 0,-1 -1,0 0,-1 -1,0 z"
       id="path80"
       inkscape:connector-curvature="0"
       style="fill:#bce4f9;stroke:#bce4f9" />
    <path
       d="m 510,360 2,1 0,1 2,0 1,1 1,1 2,0 0,1 1,0 0,1 14,8 q 15,9 39,26 24,16 34,25 10,8 19,17 9,8 10,8 1,0 -6,-8 -7,-8 -7,-9 l 0,-1 1,0 q 1,1 1,1 l 0,1 1,0 0,1 1,0 0,1 1,0 1,1 1,0 q 0,1 1,1 0,0 0,1 l 1,0 9,12 q 9,11 36,33 27,22 28,22 l 1,0 0,1 1,0 0,1 1,0 0,1 1,0 0,1 2,0 0,1 2,1 q 1,0 1,1 0,1 -1,1 -1,0 -1,-1 l -1,0 0,-1 -2,0 0,-1 -1,0 0,-1 -2,0 -1,-1 -1,-1 -1,0 q -1,0 -48,-28 l -47,-26 -1,-1 -1,-1 -1,0 -1,-1 -1,-1 -2,0 0,-1 0,3 1,0 0,1 1,0 0,1 1,0 0,1 1,0 0,1 1,0 90,86 q 91,86 94,89 3,3 4,3 l 0,1 1,0 0,1 1,0 0,1 1,0 0,1 1,0 0,1 1,0 0,1 1,0 1,1 1,1 1,0 0,2 -2,0 0,-1 -1,0 0,-1 -1,0 0,-1 -1,0 0,-1 -2,0 0,-1 -1,0 0,-1 -1,0 -1,-1 -1,-1 q -1,0 -30,-22 l -30,-22 -1,-1 -1,-1 -1,0 -1,-1 -1,-1 -1,0 0,-1 -1,0 0,-1 0,3 1,0 0,1 1,0 0,1 1,0 0,1 1,0 0,1 1,0 0,1 39,38 q 40,38 40,38 l 0,1 1,0 0,1 1,0 0,1 1,0 0,1 1,0 0,1 1,0 0,1 1,0 1,1 1,0 0,2 -1,0 -1,-1 -1,0 0,-1 -1,0 0,-1 -2,0 0,-1 -1,0 0,-1 -2,0 0,-1 -1,0 q 0,-1 -68,-47 l -68,-46 -1,-1 -1,-1 -1,0 -1,-1 -1,-1 -1,0 0,-1 0,3 1,0 0,1 1,0 0,1 1,0 0,1 1,0 0,1 1,0 51,49 q 50,49 51,49 l 1,0 0,1 1,0 0,1 1,0 0,1 1,0 0,1 1,0 0,1 1,0 0,1 2,0 0,2 -2,0 0,-1 -1,0 0,-1 -1,0 0,-1 -1,0 0,-1 -2,0 0,-1 -1,0 0,-1 -1,0 -1,-1 q -1,-1 -57,-43 l -56,-42 -1,0 0,-1 -1,0 0,-1 -2,0 0,-1 2,0 0,-4 1,0 1,1 1,-1 0,-1 1,0 0,1 1,0 0,1 5,4 q 6,4 6,4 l 1,0 1,1 1,1 1,0 1,1 1,1 1,0 0,1 1,0 0,-2 -1,0 0,-1 -1,0 0,-1 -1,0 0,-1 -1,0 0,-1 -1,0 0,-1 -1,0 0,-1 q 0,0 -36,-34 l -36,-34 0,-1 -1,0 0,-1 -1,0 0,-1 -1,0 -1,-1 -1,-1 -1,0 0,-2 1,0 1,1 1,1 1,0 1,1 1,1 1,0 69,47 q 68,47 69,47 l 1,0 0,1 1,0 0,1 2,0 1,1 1,1 1,0 0,1 0,-3 -1,0 0,-1 -1,0 0,-1 -1,0 0,-1 -1,0 0,-1 -1,0 0,-1 q -1,0 -33,-32 l -32,-31 0,-1 -1,0 0,-1 -1,0 0,-1 -1,0 0,-1 -1,0 0,-1 -1,0 0,-1 -1,0 -1,-1 -1,0 0,-2 1,0 1,1 1,0 0,1 1,0 0,1 2,0 0,1 1,0 0,1 2,0 0,1 1,0 0,1 8,5 q 8,6 8,6 l 0,1 1,0 1,1 1,1 1,0 1,1 1,1 1,0 0,1 1,0 0,-2 -1,0 0,-1 -1,0 0,-1 -1,0 0,-1 -1,0 0,-1 -1,0 0,-1 -1,0 0,-1 q 0,0 -35,-33 -35,-34 -69,-68 l -34,-34 0,-1 -1,0 0,-1 -1,0 0,-1 -1,0 0,-1 -1,0 0,-1 -1,-1 0,-1 1,0 1,1 2,0 1,1 1,1 1,0 32,18 q 32,18 33,19 l 1,1 2,0 1,1 1,1 4,0 -1,0 0,-1 -1,0 0,-1 -2,0 0,-1 -1,0 0,-1 -1,0 0,-1 -1,0 0,-1 -1,0 q -1,0 -55,-43 l -53,-43 -1,0 0,-1 -1,0 0,-1 -1,0 -1,-1 -1,-1 -1,0 0,-1 -1,0 q 0,-1 -1,-1 -1,0 -1,-1 0,-1 1,-1 z m 194,209 q 0,-1 0,-1 0,1 0,1 z m -44,5 q 0,0 0,-1 0,-1 0,1 z m 60,11 q 0,-1 0,-1 0,1 0,1 z m -40,20 q 0,-1 0,-1 0,1 0,1 z"
       id="path82"
       inkscape:connector-curvature="0"
       style="fill:#559ed1;stroke:#559ed1" />
    <path
       d="m 312,241 2,0 1,1 2,0 1,1 1,1 35,17 q 36,17 37,18 l 1,1 2,0 2,1 1,1 4,0 -1,0 0,-1 -1,0 0,-1 -2,0 0,-1 -1,0 0,-1 -2,0 0,-1 -1,0 q 0,-1 -27,-19 l -26,-20 -1,0 0,-1 -1,0 0,-1 -2,0 0,-1 -1,0 0,-1 -1,0 4,0 1,1 1,1 2,0 14,8 q 14,6 15,7 l 1,1 2,0 1,1 1,1 1,0 1,1 11,7 q 11,8 13,8 1,0 1,1 0,1 7,5 6,4 9,5 3,1 3,2 0,1 2,1 1,0 1,1 0,1 1,1 2,0 2,1 0,1 4,3 4,1 4,2 0,1 2,1 1,0 1,1 0,1 3,2 3,1 3,2 0,1 6,4 5,3 26,17 21,15 21,15 l 1,0 11,9 q 12,9 13,10 l 1,1 1,0 0,1 1,0 0,1 1,0 0,1 1,0 0,1 2,0 0,2 -2,0 -1,-1 -1,-1 -2,0 0,-1 -1,0 0,-1 -1,0 q -1,0 -10,-5 -8,-5 -29,-13 l -21,-10 -9,0 1,0 0,1 1,0 0,1 2,0 0,1 1,1 0,1 1,0 0,1 19,15 q 18,15 18,16 l 1,0 0,1 1,0 0,1 1,0 0,1 2,0 0,1 1,0 0,1 1,0 -1,1 -1,1 -1,0 -1,-1 -1,-1 -1,0 q -1,0 -2,-1 l -1,-1 -2,0 0,-1 0,4 1,0 0,1 1,0 0,1 1,0 0,1 1,0 0,1 29,29 q 29,28 29,29 l 1,0 0,1 1,0 0,1 1,0 0,1 1,0 0,1 1,0 0,1 1,0 0,1 1,0 0,1 -2,0 0,-1 -1,0 0,-1 -2,0 -1,-1 -1,-1 -1,0 -1,-1 q -1,-1 -4,-1 -2,-2 -6,-4 l -4,-3 0,-1 -2,0 0,-1 -1,0 0,-1 -2,0 0,-1 -1,0 0,-1 0,4 1,0 0,1 1,0 0,1 1,0 0,1 1,0 0,1 46,46 q 46,46 47,46 l 1,0 0,2 1,0 0,1 1,0 0,1 1,0 0,1 1,0 0,2 1,0 1,1 1,0 0,1 1,0 0,2 -1,0 -1,-1 -2,0 0,-1 -1,0 0,-1 -2,0 -1,-1 -1,-1 -2,0 0,-1 -1,0 0,-1 q 0,0 -92,-62 l -92,-62 -1,0 -1,-1 -1,-1 -3,0 0,-1 0,6 1,1 1,1 15,27 q 15,26 16,28 l 1,1 0,1 1,1 1,1 0,2 1,0 0,1 1,0 0,1 -2,0 0,-1 -1,0 0,-1 -2,0 0,-1 -1,0 0,-1 -1,0 0,-1 -1,0 0,-1 q 0,-1 -4,-4 -4,-4 -38,-40 l -35,-36 q -1,-1 -9,-9 -8,-8 -22,-22 l -15,-15 -2,0 0,-1 -1,0 0,-1 -1,0 0,-1 -1,0 0,-1 -1,0 0,-1 -1,0 0,1 -1,0 0,1 1,0 0,2 1,1 1,1 0,2 1,0 0,1 21,36 q 22,37 22,38 l 0,1 1,1 1,1 0,3 1,1 0,1 2,0 0,2 -2,0 0,-1 -1,0 0,-1 -1,0 0,-1 -1,0 0,-1 -1,0 -1,-1 -1,0 0,-1 -1,-1 q 0,-1 -11,-11 -11,-12 -29,-31 -18,-20 -19,-20 -1,-1 -11,-12 l -11,-11 q -1,-1 -1,-1 l 0,-1 q 0,0 -1,0 -1,-1 -10,-19 l -10,-19 -1,0 0,-2 -1,-1 -1,-1 0,-2 -1,0 0,-1 -1,0 0,-3 1,0 0,1 1,0 0,1 1,1 1,1 0,1 1,0 0,1 1,0 0,1 1,0 0,1 1,0 16,19 q 16,19 16,19 l 1,0 0,1 1,0 0,1 1,0 0,1 1,0 0,1 1,0 0,1 1,0 0,1 2,0 0,-1 -1,-1 -1,-2 0,-1 -1,-1 -1,-1 0,-1 q 0,-1 -18,-36 l -16,-34 -1,-1 -1,-1 0,-2 -1,-1 -1,-1 0,-2 1,0 0,1 1,0 0,1 2,0 0,1 1,0 0,1 1,0 40,32 q 40,31 41,31 l 0,1 2,0 0,1 1,0 0,1 1,0 1,1 1,1 2,0 0,-1 -1,0 0,-1 -1,0 0,-1 -1,0 0,-1 -1,0 0,-1 -1,0 0,-2 -1,0 0,-1 q -1,0 -35,-38 l -34,-38 -2,-3 q -2,-3 -2,-4 0,-1 10,5 10,4 10,5 z"
       id="path84"
       inkscape:connector-curvature="0"
       style="fill:#fafcfe;stroke:#fafcfe" />
    <path
       d="m 714,616 2,1 0,1 1,0 0,1 1,0 0,1 2,0 0,1 1,0 0,1 67,45 q 66,45 67,46 l 1,1 1,0 1,1 1,1 1,0 1,1 1,1 0,-3 -1,0 0,-1 -1,0 0,-1 -1,0 0,-1 -1,0 0,-1 -1,0 0,-1 q -1,0 -34,-32 l -33,-32 0,-1 -1,0 0,-1 -1,0 0,-1 -1,0 0,-1 -1,0 0,-1 -1,0 0,-1 -1,0 -1,-1 -1,-1 -1,0 0,-1 -1,0 0,-2 1,0 1,1 1,0 0,1 1,0 0,1 1,0 0,1 1,0 0,1 2,0 0,1 1,0 0,1 1,0 1,1 1,1 32,24 q 32,24 33,24 l 1,0 0,1 1,0 0,1 1,0 1,1 1,1 1,0 1,1 0,47 -19,0 -1,-1 0,-1 -1,0 0,-1 -1,0 0,-1 -1,0 0,-1 -1,0 0,-1 -1,0 0,-1 q -1,0 -59,-56 l -59,-57 -1,0 0,-1 -1,0 0,-1 -1,0 0,-1 -1,0 0,-1 -1,0 0,-1 -1,0 q 0,-1 -1,-2 -2,-2 0,-1 z"
       id="path86"
       inkscape:connector-curvature="0"
       style="fill:#fcfdfd;stroke:#fcfdfd" />
    <path
       d="m 410,244 1,0 1,1 1,1 2,0 0,1 1,0 0,1 42,28 q 42,28 68,48 26,20 44,37 18,17 42,45 22,27 33,41 10,13 64,57 54,42 55,43 l 1,1 1,0 0,1 1,0 0,1 1,0 1,1 1,0 0,2 -1,0 -1,-1 -1,0 -1,-1 -1,-1 -2,0 -1,-1 q -1,-1 -60,-34 l -58,-33 -1,-1 -1,-1 -1,0 -1,-1 -1,-1 -2,0 0,-1 -1,0 0,2 1,0 1,1 1,0 0,1 1,0 0,1 1,0 0,1 1,0 0,1 108,102 q 108,104 108,104 l 1,0 0,1 1,0 0,1 1,0 0,1 1,0 0,1 1,0 1,1 0,2 -1,-1 -1,0 -1,-1 -1,-1 -1,0 0,-1 -1,0 0,-1 -1,0 q -1,0 -33,-24 l -32,-24 -1,-1 -1,-1 -1,0 0,-1 -1,0 0,-1 -2,0 0,-1 -1,0 0,-1 -1,0 0,2 1,0 0,1 1,0 0,1 1,0 0,1 1,0 0,1 1,0 0,1 1,0 0,1 33,32 q 33,32 34,32 l 0,1 1,0 0,1 1,0 0,1 1,0 0,1 1,0 0,1 1,0 0,3 -1,-1 -1,-1 -1,0 -1,-1 -1,-1 -1,0 -1,-1 q -1,-1 -67,-46 l -67,-45 0,-1 -1,0 0,-1 -2,0 0,-1 -1,0 0,-1 -1,0 0,-1 0,3 1,0 0,1 1,0 0,1 1,0 0,1 1,0 0,1 1,0 59,57 q 58,56 59,56 l 0,1 1,0 0,1 1,0 0,1 1,0 0,1 1,0 0,1 1,0 0,1 1,1 -2,0 -1,-1 0,-1 -1,0 -1,-1 -1,-1 -1,0 -1,-1 q -1,-1 -67,-51 -67,-50 -108,-68 l -41,-20 -1,0 0,-1 -1,0 0,-1 -1,0 0,-2 -2,0 0,-2 6,0 0,1 1,0 1,1 12,5 q 13,5 14,6 l 1,1 2,0 1,1 1,1 3,0 0,1 0,-3 -2,0 0,-1 -1,0 0,-1 -2,0 0,-1 -1,0 0,-1 -1,0 q -1,0 -31,-20 -29,-20 -48,-35 -18,-15 -35,-33 l -17,-18 -1,0 0,-1 -1,0 0,-1 -1,-1 -1,-1 0,-1 -1,0 0,-1 -1,0 3,0 1,1 1,1 1,0 0,1 1,0 0,1 63,47 q 64,47 64,48 l 1,0 0,1 2,0 1,1 0,1 2,0 0,1 1,0 0,1 1,0 56,42 q 56,42 57,43 l 1,1 1,0 0,1 1,0 0,1 2,0 0,1 1,0 0,1 1,0 0,1 0,-3 -1,0 0,-1 -1,0 0,-1 -1,0 0,-1 -1,0 0,-1 -1,0 q -1,0 -51,-49 l -51,-49 -1,0 0,-1 -1,0 0,-1 -1,0 0,-1 -1,0 0,-1 -1,0 0,-1 -1,0 0,-1 -2,0 0,-1 -1,0 0,-2 1,0 1,1 1,0 0,1 1,0 0,1 1,0 1,1 1,1 1,0 1,1 1,1 68,46 q 68,46 68,47 l 1,0 0,1 2,0 0,1 1,0 0,1 2,0 0,1 1,0 0,1 1,0 0,-2 -1,0 0,-1 -1,0 0,-1 -1,0 0,-1 -1,0 0,-1 -1,0 0,-1 -1,0 0,-1 q 0,0 -40,-38 l -39,-38 0,-1 -1,0 0,-1 -1,0 0,-1 -1,0 0,-1 -1,0 0,-1 -1,0 0,-1 -1,0 -1,-1 -1,-1 -1,0 0,-2 2,0 0,1 1,0 0,1 1,0 0,1 1,0 0,1 1,0 1,1 1,1 1,0 1,1 1,1 30,22 q 29,22 30,22 l 1,1 1,1 1,0 0,1 1,0 0,1 2,0 0,1 1,0 0,1 0,-3 -1,0 0,-1 -1,0 0,-1 -1,0 0,-1 -1,0 0,-1 -1,0 0,-1 q -1,0 -4,-3 -3,-3 -94,-89 l -90,-86 -1,0 0,-1 -1,0 0,-1 -1,0 0,-1 -1,0 0,-1 -1,0 0,-1 -1,0 0,-1 -2,0 0,-2 2,0 0,1 1,0 0,1 2,0 1,1 1,1 1,0 1,1 1,1 47,26 q 47,28 48,28 l 1,0 1,1 1,1 2,0 0,1 1,0 0,1 2,0 0,1 0,-3 -2,0 0,-1 -1,0 0,-1 -1,0 0,-1 -1,0 0,-1 -1,0 q -1,0 -28,-22 -27,-22 -36,-33 l -9,-12 0,-1 q -1,0 -1,0 0,-1 -1,-1 l 0,-1 q -1,0 -1,-1 l 0,-1 -1,0 0,-1 -1,0 0,-1 -1,-1 q -1,-1 -9,-11 -8,-10 -27,-31 -19,-21 -34,-35 -15,-13 -41,-33 -27,-21 -74,-51 l -46,-30 0,-1 -4,-1 q -3,-2 -3,-3 0,-1 11,4 12,5 12,5 z m 223,232 q 0,0 0,-1 1,0 1,1 0,0 -1,0 z m -13,121 q 0,-1 0,-1 l 0,1 z m 41,15 q 0,0 0,-1 l 1,0 0,1 q 0,0 -1,0 z m 51,4 q 0,0 0,-1 0,-1 0,1 z m 68,20 0,-1 1,0 q 1,0 1,1 0,1 -1,1 -1,0 -1,-1 z m 21,8 q 0,0 0,-1 1,0 1,1 0,0 -1,0 z"
       id="path88"
       inkscape:connector-curvature="0"
       style="fill:#064b83;stroke:#064b83" />
    <path
       d="m 252,290 -2,-3 4,3 q 4,4 21,24 17,20 17,20 l 1,0 0,1 1,0 0,1 1,0 0,1 1,0 0,1 1,0 q 1,0 1,-1 l 0,-1 -1,0 q 0,0 -1,-2 l -1,-2 3,2 q 2,3 11,13 9,9 10,10 1,0 19,20 18,19 29,31 11,10 11,11 l 1,1 0,1 1,0 1,1 1,0 0,1 1,0 0,1 1,0 0,1 0,-6 -1,-1 -1,-1 0,-1 q 0,-1 -22,-38 l -21,-36 0,-1 -1,0 0,-2 -1,-1 -1,-1 0,-2 -1,0 0,-1 -1,0 0,-2 2,0 0,1 1,0 0,1 1,0 0,1 1,0 0,1 1,0 0,1 1,0 0,1 2,0 15,15 q 14,14 22,22 8,8 9,9 1,1 -1,1 l -2,1 1,0 0,1 1,0 0,1 1,0 0,1 1,0 0,1 1,0 0,1 1,0 0,2 -1,0 -1,-1 -2,0 0,-1 -1,0 0,-1 -1,0 q -2,0 -4,-1 l -1,0 0,-1 -1,0 0,-1 -2,0 0,-1 -2,0 0,2 1,0 0,1 1,0 0,2 1,0 0,1 1,0 15,23 q 15,23 29,39 14,18 30,33 15,15 24,23 10,8 10,8 l 1,0 1,1 1,1 1,0 0,1 1,0 0,1 2,0 0,1 1,0 0,1 -2,0 -2,-1 -1,-1 -2,0 -1,-1 -1,-1 -1,0 q -1,0 -6,-3 -4,-3 -24,-16 -21,-13 -38,-28 -17,-15 -64,-64 -46,-49 -71,-79 l -24,-31 0,-1 q -1,0 -1,0 0,-1 -1,-1 l 0,-1 q -1,0 -1,-1 l 0,-1 -1,0 q 0,0 -3,-4 z m 131,91 0,-1 2,0 0,1 1,0 0,1 q 0,1 -1,1 l -1,-1 -1,-1 z m 2,6 q 1,0 1,0 0,1 0,1 -1,0 -1,-1 z"
       id="path90"
       inkscape:connector-curvature="0"
       style="fill:#bde5f9;stroke:#bde5f9" />
    <path
       d="m 294,158 0,-1 1,0 0,1 3,0 q 3,0 4,1 l 1,1 2,0 q 0,0 1,1 l 1,0 0,1 2,0 1,1 1,1 2,0 0,1 1,0 0,-2 q 1,-2 0,-2 -1,0 0,-1 1,-1 2,0 3,0 3,0 l 1,0 1,1 1,1 2,0 1,1 1,1 30,14 q 29,14 29,15 l 0,1 q 1,2 3,3 2,1 2,2 l 0,1 5,3 q 4,3 9,6 5,3 6,3 l 1,0 0,1 1,0 0,1 2,0 1,1 1,0 0,3 -1,0 0,1 -1,0 0,-1 -3,0 -1,-1 -1,-1 -1,0 q -1,0 -56,-26 l -55,-26 -1,-1 -1,-1 q -1,0 -1,0 l 0,1 -1,-1 -1,0 0,-2 1,0 0,-1 1,0 0,-1 z"
       id="path92"
       inkscape:connector-curvature="0"
       style="fill:#61aedc;stroke:#61aedc" />
    <path
       d="m 81,238 2,-6 1,1 q 1,1 1,0 1,0 1,0 l 0,1 -7,12 q -7,11 -9,12 0,1 -1,2 l -1,1 0,1 -1,0 0,1 -1,0 0,1 -1,0 0,1 -1,0 0,1 q 1,0 2,0 l 1,0 0,-1 1,0 0,-1 2,0 0,-1 15,-9 q 15,-10 21,-12 5,-2 9,-1 5,0 21,23 18,23 18,26 2,2 2,3 l 0,1 1,2 1,1 0,2 1,-2 0,-2 1,0 q 0,0 30,38 28,38 29,39 l 1,1 0,1 1,0 0,1 1,0 0,1 1,1 1,1 1,1 1,0 0,-2 -1,-1 -1,-2 0,-3 -1,-1 q -1,-1 -16,-42 l -15,-40 0,-3 -1,-1 -1,-2 0,-1 q 0,-1 -1,-3 l -1,-1 0,-3 -1,-2 -1,-1 0,-2 1,0 0,1 1,0 0,1 1,0 0,1 1,0 0,1 1,1 1,1 0,1 66,76 q 65,76 65,77 l 1,0 0,1 1,0 0,1 1,0 0,1 1,1 1,1 0,1 1,0 0,1 1,0 0,-2 -1,-1 -1,-1 0,-2 -1,-1 -1,-1 0,-1 q 0,-1 -16,-32 l -16,-31 q 0,-1 -1,-1 l 0,-1 -1,-1 0,-1 q 0,-1 -1,-2 l -1,-1 0,-2 -1,-1 -1,-1 0,-1 -1,-1 0,-1 2,0 0,1 1,1 0,1 1,0 0,1 1,0 0,1 1,0 0,1 1,0 0,1 1,0 0,1 1,0 48,51 q 48,51 62,64 14,13 34,27 21,14 41,25 20,11 41,20 20,10 41,21 21,12 37,18 15,8 16,8 l 2,0 1,1 1,1 2,0 0,2 -1,0 0,1 -1,0 0,1 -1,0 0,1 1,0 0,1 -2,0 -1,-1 -1,-1 -2,0 -1,-1 q -1,-1 -18,-8 -17,-7 -35,-18 -18,-10 -42,-21 -23,-10 -43,-22 -20,-10 -38,-24 -18,-12 -31,-24 -12,-12 -50,-51 l -38,-39 0,-1 -1,0 0,-1 -1,0 0,-1 -1,-1 -1,-1 0,-1 -3,0 1,0 0,2 1,1 1,1 0,2 20,38 q 18,37 19,38 l 1,1 0,2 1,1 1,1 0,2 1,0 0,1 -2,0 0,-1 -1,-1 0,-1 -1,0 0,-1 -1,0 0,-1 -1,0 0,-1 -1,0 q 0,0 -70,-82 l -70,-82 0,-1 -1,0 0,-1 -1,0 0,-1 -1,-1 -1,-1 0,-1 -2,0 0,2 1,2 1,1 0,2 18,49 q 18,49 19,50 l 1,1 0,3 1,2 1,1 0,3 -1,0 0,-1 -1,0 0,-1 -1,-1 -1,-1 0,-1 -1,0 0,-1 -1,0 0,-1 q 0,-1 -32,-43 l -32,-42 -1,0 0,-1 -1,0 0,-1 -1,0 0,-1 -1,0 0,-2 -2,0 0,6 2,7 q 0,6 1,9 l 1,3 0,9 0,-1 -1,-1 -1,-1 0,-3 -1,-1 q -1,-2 -10,-27 -9,-25 -26,-47 -16,-22 -19,-22 -2,0 -11,4 -9,4 -39,24 l -29,22 -1,0 0,1 -1,0 0,1 -2,0 0,1 -1,0 0,1 -2,0 0,-2 1,0 0,-1 1,0 0,-1 1,0 0,-1 1,0 0,-1 1,0 0,-1 1,0 q 0,-1 8,-10 8,-9 21,-25 13,-17 16,-22 z m 537,356 q 2,0 2,1 0,1 -2,1 l -2,0 0,-2 2,0 z"
       id="path94"
       inkscape:connector-curvature="0"
       style="fill:#044a82;stroke:#044a82" />
    <path
       d="m 16,86 3,-13 1,0 0,1 2,0 0,3 -1,1 0,2 -2,8 q -1,7 -1,22 0,15 3,28 3,14 9,24 4,10 5,11 l 1,1 0,2 1,1 1,1 0,2 -4,0 0,-1 -1,0 0,-1 -1,0 0,-2 -1,-1 q -1,-1 -4,-7 -3,-7 -8,-22 -5,-14 -5,-31 0,-17 2,-29 z"
       id="path96"
       inkscape:connector-curvature="0"
       style="fill:#084e86;stroke:#084e86" />
    <path
       d="m 28,92 1,-6 1,0 0,3 1,1 0,1 2,0 0,13 q 1,14 5,28 4,13 7,18 3,4 3,5 l 0,1 1,0 0,1 1,0 0,2 2,0 0,2 -1,0 -1,-1 -3,0 0,-2 -3,0 q -1,0 -1,0 -1,0 -1,-1 l 0,-1 q 0,0 -4,-4 -3,-4 -7,-14 -3,-10 -4,-26 -1,-15 1,-20 z m 14,62 1,0 -1,0 z"
       id="path98"
       inkscape:connector-curvature="0"
       style="fill:#99d3f0;stroke:#99d3f0" />
    <path
       d="m 216,285 0,-1 5,4 q 5,3 25,22 20,18 21,19 1,1 1,1 l 0,1 q 0,1 0,1 l 1,0 0,1 1,1 0,2 1,1 1,1 2,6 q 4,7 4,8 l 0,1 1,1 1,1 0,2 1,1 1,1 0,1 -2,0 0,-1 -1,0 0,-1 -1,0 0,-2 -1,0 0,-1 -1,0 0,-1 -1,0 0,-1 q -1,0 -27,-31 l -28,-31 q 0,-1 -2,-3 -2,-2 -2,-3 z"
       id="path100"
       inkscape:connector-curvature="0"
       style="fill:#b0dff7;stroke:#b0dff7" />
  </g>
</svg>
