<?xml version="1.0" encoding="UTF-8" standalone="no"?>
<svg
   xmlns:dc="http://purl.org/dc/elements/1.1/"
   xmlns:cc="http://creativecommons.org/ns#"
   xmlns:rdf="http://www.w3.org/1999/02/22-rdf-syntax-ns#"
   xmlns:svg="http://www.w3.org/2000/svg"
   xmlns="http://www.w3.org/2000/svg"
   xmlns:sodipodi="http://sodipodi.sourceforge.net/DTD/sodipodi-0.dtd"
   xmlns:inkscape="http://www.inkscape.org/namespaces/inkscape"
   viewBox="0 0 157.58 258.42"
   id="svg2"
   version="1.1"
   inkscape:version="0.91 r13725"
   sodipodi:docname="footprints1.svg">
  <metadata
     id="metadata16">
    <rdf:RDF>
      <cc:Work
         rdf:about="">
        <dc:format>image/svg+xml</dc:format>
        <dc:type
           rdf:resource="http://purl.org/dc/dcmitype/StillImage" />
      </cc:Work>
    </rdf:RDF>
  </metadata>
  <defs
     id="defs14" />
  <sodipodi:namedview
     pagecolor="#ffffff"
     bordercolor="#666666"
     borderopacity="1"
     objecttolerance="10"
     gridtolerance="10"
     guidetolerance="10"
     inkscape:pageopacity="0"
     inkscape:pageshadow="2"
     inkscape:window-width="1920"
     inkscape:window-height="1022"
     id="namedview12"
     showgrid="false"
     inkscape:zoom="0.91324196"
     inkscape:cx="-87.102508"
     inkscape:cy="127.02001"
     inkscape:window-x="0"
     inkscape:window-y="0"
     inkscape:window-maximized="1"
     inkscape:current-layer="svg2" />
  <path
     style="fill:#11cad6;fill-opacity:0.32768363;stroke:#000000;stroke-width:2;stroke-miterlimit:4;stroke-dasharray:none;stroke-opacity:0.12429378"
     id="path4139"
     d="m 47.340357,29.362709 c -2.431519,2.599437 -5.05119,4.978992 -7.135977,7.87917 -1.872274,3.045119 -2.236773,6.668693 -2.950467,10.104424 -1.202453,6.334515 -1.416161,12.793177 -1.602423,19.220627 -0.108561,5.442447 -0.0787,10.886262 -0.04956,16.329306 0.03249,3.535584 0.05099,7.071233 0.06672,10.606913 -0.0062,2.868068 0.0144,5.736104 0.02588,8.604131 0.03091,2.12861 -0.12631,4.25489 0.262183,6.35638 0.424318,1.30583 1.591042,2.07855 2.401528,3.15465 1.455308,2.57175 2.442164,5.38506 3.627222,8.0928 1.4066,3.02022 1.824513,6.35312 2.929518,9.47042 1.124379,3.35757 2.769451,6.48948 4.164759,9.73334 1.033813,2.82164 2.095457,5.58817 2.621802,8.55436 0.372931,2.43973 0.420184,4.91069 0.446555,7.3735 0.0027,2.10354 0.0031,4.20706 0.0047,6.31058 -0.01372,1.78338 1.22e-4,3.56669 -0.0038,5.35006 -0.01572,1.81058 8.45e-4,3.62109 -0.0017,5.43167 -0.0097,2.21431 -0.02606,4.42844 -0.02582,6.6428 -0.02919,2.77532 0.08871,5.54863 -0.257085,8.30753 -0.551081,2.23697 -1.882079,4.18016 -3.387476,5.88829 -1.241984,0.97703 -2.285802,2.28189 -3.606867,3.1516 -1.198497,0.83817 -1.882999,1.64627 -2.257093,3.07899 -0.222171,1.59995 -0.41026,3.15791 -1.135452,4.62049 -0.565261,1.19007 -0.976488,2.37897 -1.689822,3.48606 -0.879197,0.97181 -1.317484,2.10397 -1.6968,3.33152 -0.374354,1.27656 -1.15169,2.33955 -1.699933,3.52912 -0.319666,1.44939 -0.993005,2.77714 -1.378015,4.20314 -0.185198,1.85372 -0.67025,3.64649 -1.009824,5.47279 -0.400834,2.49296 -0.443398,5.0232 -0.48427,7.54216 0.149354,2.16519 -0.207955,4.26417 -0.596724,6.37938 0,0 -14.61582,7.13714 -14.61582,7.13714 l 0,0 c 0.329178,-2.06287 0.960927,-4.06141 0.753378,-6.17781 0.0393,-2.58114 0.07351,-5.17045 0.355328,-7.73848 0.2558,-1.8679 0.848871,-3.62856 0.932695,-5.51184 0.232545,-1.56579 0.917429,-2.87691 1.285458,-4.38418 0.340927,-1.40289 1.129309,-2.32282 1.625277,-3.63528 0.682832,-1.14827 0.568953,-2.66418 1.560737,-3.65856 0.890889,-1.11014 1.408377,-1.83397 1.799294,-3.27671 0.832835,-1.54411 1.34907,-2.3501 1.319251,-4.2294 0.252327,-1.4374 0.361462,-3.27369 1.80872,-4.01878 0.967546,-1.09179 -0.174859,0.0728 0.968853,-0.73134 0.977924,-0.68761 1.618925,-1.84192 2.758363,-2.32868 1.562885,-1.45755 2.778015,-3.12243 3.828197,-4.98102 0.473783,-2.6859 0.42903,-5.36833 0.366467,-8.09186 2.19e-4,-2.20555 -0.01616,-4.41086 -0.026,-6.61635 -0.0026,-1.81032 0.01369,-3.62056 -0.0013,-5.43087 -0.0026,-1.78617 0.01327,-3.57226 0.0099,-5.35844 0.01515,-2.10454 0.03899,-4.20903 0.03567,-6.3137 -0.0046,-2.38969 -0.0067,-4.78701 -0.29896,-7.16277 -0.434428,-2.86053 -1.416814,-5.53069 -2.377812,-8.25136 -1.366871,-3.28446 -3.077024,-6.4142 -4.215189,-9.79622 -1.15748,-3.0701 -1.550791,-6.36442 -2.866824,-9.38554 -1.14678,-2.57095 -2.13043,-5.24818 -3.561928,-7.66717 -1.012204,-1.2373 -2.329791,-2.19951 -2.758981,-3.82906 -0.459607,-2.20688 -0.410094,-4.41189 -0.361289,-6.66116 0.01109,-2.87526 0.03092,-5.75055 0.02004,-8.62585 0.0087,-3.553561 0.0136,-7.107145 0.03681,-10.660661 0.02431,-5.486437 0.06113,-10.973094 0.203609,-16.457965 0.171618,-6.469752 0.34634,-12.966891 1.336319,-19.373559 0.245043,-1.420023 0.580223,-2.823553 0.823117,-4.243945 0.376542,-2.201933 0.611951,-4.407987 1.750952,-6.402471 1.908614,-3.027699 4.360952,-5.54362 6.963327,-7.985954 0,0 14.960518,-6.356356 14.960518,-6.356356 z"
     inkscape:connector-curvature="0" />
  <path
     style="fill:#6185da;fill-opacity:0.51977402;stroke:#000000;stroke-width:2;stroke-miterlimit:4;stroke-dasharray:none;stroke-opacity:0.12429379"
     id="path4145"
     d="m 78.779979,244.06089 c 3.119361,-3.96714 5.6241,-8.30073 7.874874,-12.79859 1.878019,-3.69412 3.164151,-7.62913 4.694707,-11.46773 0.448381,-1.53028 1.918524,-4.33472 0.657081,-5.88837 -0.716981,-0.44957 -0.917157,-1.52964 -1.52903,-2.01274 -0.592965,-0.64742 -0.698793,-1.74465 -1.546119,-2.11654 -1.487957,-0.21033 -2.425042,-1.53247 -3.397875,-2.53416 -0.859771,-1.13706 -1.587256,-2.38661 -2.151248,-3.69627 -0.555512,-1.73247 -1.175976,-3.43765 -1.548611,-5.22103 -0.190012,-2.07344 -0.67732,-4.09702 -0.980152,-6.15357 -0.154955,-2.48745 -0.673368,-4.9198 -1.075594,-7.37292 -0.355558,-2.25063 -0.442524,-4.52904 -0.493805,-6.80307 0.02102,-2.18792 -0.492574,-4.33099 -0.769965,-6.49262 -0.250452,-1.6492 -0.869698,-3.1337 -1.589131,-4.61504 -0.693891,-1.65716 -0.949401,-3.39788 -0.603736,-5.15661 0.521268,-1.74887 1.500396,-3.29596 2.163045,-4.98489 0.563406,-1.43827 0.681062,-2.97909 0.754128,-4.50591 0.03296,-1.70142 0.03104,-3.40326 0.032,-5.10493 1.03e-4,-2.12104 -8.15e-4,-4.24209 -0.0013,-6.36314 3.82e-4,-2.4152 0.01454,-4.83026 0.0116,-7.24548 -0.0047,-2.32979 -0.0085,-4.65958 -0.01054,-6.98938 0.0829,-2.60157 -0.0697,-2.94646 -1.93279,-4.50154 -1.248918,-0.83867 -2.619344,-0.90817 -3.615041,-2.07571 -0.889859,-1.17588 -0.988916,-2.65763 -1.052939,-4.07758 -0.02973,-1.93085 4.97e-4,-3.86215 0.01223,-5.79309 0.0089,-2.39591 0.02158,-4.79177 0.0398,-7.18763 -0.002,-2.82664 0.0056,-5.653264 -8.41e-4,-8.479902 0.04218,-3.627119 0.04405,-7.254516 0.03145,-10.881806 -0.0091,-3.07202 -0.02125,-6.144019 -0.03632,-9.21603 -0.0076,-2.539163 0.01311,-5.078349 -0.01636,-7.617437 0.196973,-7.482846 8.796648,-11.445697 16.174173,-12.290356 4.732977,-0.625048 19.97508,-10.754486 -12.150066,7.246226 -0.186709,0.104619 0.354425,-0.240166 0.527257,-0.366398 0.80349,-0.586846 0.544982,-0.379869 1.231637,-1.108841 1.434339,-1.570749 1.601442,-3.715444 1.783775,-5.738254 0.117132,-1.933922 0.12419,-3.873935 0.100918,-5.81081 -0.0042,-1.651705 -0.02159,-3.303316 -0.02044,-4.955023 0.0031,-1.757666 1.36e-4,-3.51546 0.0028,-5.27324 9.64e-4,-1.979756 0.02055,-3.959569 0.0024,-5.939272 -0.118948,-1.411477 0.136521,-2.630792 0.937545,-3.786472 0,0 15.193763,-5.979407 15.193763,-5.979407 l 0,0 c -1.263254,0.240816 -1.765338,1.100438 -1.635419,2.379896 -0.01802,1.978865 0.0011,3.957837 0.0022,5.936754 0.0028,1.754829 -4.51e-4,3.509612 0.0081,5.264333 0.0074,1.651364 0.0018,3.302697 0.01573,4.954046 -0.0087,1.983296 0.01669,3.967237 -0.09148,5.948783 -0.1347,2.238774 -0.237471,4.628328 -1.309982,6.642331 -4.153917,5.454891 -10.799521,8.954943 -17.486605,10.552347 -5.260408,2.957301 1.479548,-0.82418 12.579582,-7.534171 0.182059,-0.110054 -0.415907,0.126123 -0.584914,0.255328 -0.674641,0.515761 -0.612858,1.497862 -0.81004,2.228873 -0.0292,2.544649 -0.009,5.08939 -0.01637,7.634113 -0.01506,3.084339 -0.02718,6.168666 -0.03628,9.253013 -0.01247,3.616552 -0.01087,7.233214 0.03174,10.84959 -0.0063,2.827477 0.0015,5.654937 -0.0023,8.48242 0.01598,2.388749 0.02598,4.777516 0.01533,7.166316 -0.0044,1.90399 -0.01598,3.80813 0.0072,5.71203 0.02323,0.99058 -0.08277,2.16663 0.492449,3.01902 1.049113,0.78279 2.581095,0.91278 3.488728,1.97009 1.779369,1.54953 2.806086,3.2919 2.588695,5.74501 -0.002,2.33341 -0.0059,4.66682 -0.01074,7.00022 -0.003,2.41069 0.01085,4.82122 0.01311,7.23189 0.0018,2.11678 0.0043,4.23358 0.01739,6.35033 0.01148,1.71457 0.0414,3.42953 0.01087,5.144 -0.02244,1.67214 -0.08586,3.35407 -0.525103,4.97868 -0.597361,1.72551 -1.425097,3.28688 -2.186798,4.93893 -0.712565,1.31249 -0.454979,2.66561 0.05453,4.03479 0.773976,1.65233 1.454962,3.2989 1.78301,5.11172 0.251577,2.2192 0.800412,4.40751 0.84673,6.63947 0.03121,2.20802 0.07867,4.4214 0.378276,6.61269 0.366958,2.46545 0.957468,4.89302 1.080499,7.38991 0.292251,2.03226 0.859139,4.00943 0.992905,6.06189 0.296559,1.69078 0.876684,3.28498 1.409325,4.91001 0.465868,1.13436 1.11651,2.21476 1.857839,3.18695 0.962754,1.03426 1.995704,1.72252 3.290714,2.29794 0.74944,0.71131 1.19648,1.5581 1.74956,2.41038 0.53915,0.72592 0.9617,1.5302 1.59924,2.19475 1.382,2.27746 0.7568,5.01241 -0.1227,7.37439 -1.58307,3.87702 -2.90653,7.84437 -4.72217,11.62645 -2.265312,4.47531 -4.547687,8.92559 -7.644319,12.91063 0,0 -14.831821,6.48942 -14.831821,6.48942 z"
     inkscape:connector-curvature="0" />
  <path
     style="fill:#5428ca;fill-opacity:0.37853107;stroke:#0000b0;stroke-width:2;stroke-miterlimit:4;stroke-dasharray:none;stroke-opacity:0.12429378"
     id="path4147"
     d="m 130.97476,24.734011 c -0.0928,3.343015 -0.0532,6.688114 -0.0334,10.031909 0.0164,2.452421 0.0241,4.904883 0.028,7.357352 0.009,2.340176 0.001,4.68018 -0.0208,7.020243 0.0453,3.639655 -0.23793,7.290167 0.16749,10.912121 0.3823,3.86574 1.68588,7.391597 3.35232,10.860588 1.82478,2.955643 3.38238,6.05762 5.07778,9.087128 1.13115,1.982922 2.32275,3.848774 2.95947,6.058755 0.73532,1.746591 1.15842,3.563292 1.39702,5.436366 0.22798,2.360785 0.19786,4.73731 0.20867,7.10652 -0.0202,2.898727 -0.0147,5.797527 -0.0273,8.696277 0.008,2.84967 -2.8e-4,5.69931 0.006,8.54898 -0.006,2.73411 0.0104,5.46832 -0.001,8.20242 -0.005,3.01095 -0.0172,6.02185 -0.008,9.03281 -0.001,3.14388 -0.0115,6.28777 -0.007,9.43166 -0.002,3.27163 -0.009,6.54328 -0.002,9.81491 0.0103,3.03048 0.006,6.06097 0.01,9.09146 0.007,2.81757 0.0137,5.63523 0.003,8.4528 0.008,2.95812 -0.008,5.9162 -0.006,8.87431 -0.0165,3.17657 0.004,6.35317 -0.002,9.52973 -0.001,3.18166 0.002,6.36335 -0.006,9.545 0.003,3.2313 -0.005,6.46257 0.008,9.69385 -0.14886,2.4221 0.23441,4.79369 0.63695,7.17024 0.34727,1.98187 0.42495,3.99356 0.4732,6.00051 0.0298,1.93362 0.0419,3.86727 0.0361,5.80109 -0.009,2.05222 -0.0137,4.10446 -0.0164,6.1567 -0.025,1.65286 0.18109,3.31716 -0.21868,4.93419 -0.12787,0.22114 -0.21874,0.46829 -0.3836,0.66342 -0.30503,0.36103 -0.70186,0.64479 -1.11188,0.87988 -11.21178,6.42853 -9.66768,7.41072 -16.36435,8.60512 -5.01322,3.09231 0.0869,-0.063 12.90346,-7.31585 0.14923,-0.0845 -0.29261,0.18011 -0.42801,0.28531 -0.47577,0.36969 -0.60662,0.77653 -0.76234,1.33876 -0.14506,0.82924 -0.0861,0.39703 -0.16948,1.29764 0,0 -14.56491,7.32344 -14.56491,7.32344 l 0,0 c 0.0183,-1.01276 3.5e-4,-0.51556 0.052,-1.49168 0.92347,-7.16422 7.6503,-9.63423 15.92967,-11.3152 0.50245,-0.14723 1.92869,-0.7989 1.4773,-0.5336 -29.61021,17.40324 -16.04692,8.3291 -11.50321,6.87503 1.26801,-0.77934 0.46725,-2.90689 0.66816,-4.17133 -0.001,-2.04899 -0.003,-4.09798 -0.006,-6.14697 -8.2e-4,-1.92551 0.0215,-3.851 -0.005,-5.77639 -0.0349,-1.93902 -0.0822,-3.88325 -0.36859,-5.80491 -0.36677,-2.47116 -0.89722,-4.91879 -0.68221,-7.43447 0.0132,-3.23408 0.005,-6.46813 0.008,-9.70221 -0.008,-3.17969 -0.005,-6.35941 -0.006,-9.53911 -0.006,-3.17573 0.0141,-6.3515 -0.002,-9.52724 0.002,-2.95602 -0.0146,-5.91202 -0.006,-8.86805 -0.011,-2.81848 -0.004,-5.63705 0.003,-8.45553 0.004,-3.03382 -5.4e-4,-6.06764 0.01,-9.10145 0.007,-3.27089 -3.1e-4,-6.54181 -0.002,-9.8127 0.005,-3.14157 -0.006,-6.28315 -0.007,-9.42472 0.009,-3.00834 -0.003,-6.0166 -0.008,-9.02493 -0.0116,-2.73383 0.005,-5.46777 -9.2e-4,-8.20161 0.007,-2.8535 -3.7e-4,-5.70697 0.0131,-8.56046 -0.007,-2.89045 0.0112,-5.78094 -0.009,-8.67138 -9.6e-4,-2.30848 0.005,-4.6204 -0.16503,-6.924025 -0.18409,-1.805599 -0.54665,-3.553821 -1.2839,-5.224659 -0.51845,-2.110433 -1.69474,-3.848675 -2.70235,-5.751596 -1.67824,-3.07444 -3.16497,-6.25199 -5.05923,-9.205528 -1.7327,-3.624039 -3.15297,-7.286677 -3.5756,-11.321257 -0.53586,-3.658439 -0.26359,-7.358776 -0.35644,-11.049238 -0.0225,-2.332993 -0.0296,-4.665927 -0.0208,-6.999035 0.004,-2.461965 0.0116,-4.923924 0.028,-7.385842 0.0196,-3.33244 0.06,-6.666239 -0.0334,-9.997875 0,0 14.4795,-7.377674 14.4795,-7.377674 z"
     inkscape:connector-curvature="0" />
</svg>
