<?xml version="1.0" encoding="UTF-8"?>
<svg viewBox="0 0 538.61804 428.25287" xmlns="http://www.w3.org/2000/svg">
 <g transform="translate(-87.275 -10.109)">
  <g transform="matrix(.77873 -.04403 .03707 .92493 72.428 -58.985)">
   <path d="m148 108.36c14.987 92.563 97.172 185.78 104 316h99c-14.927-104.33-156.07-278.92-203-316z" fill="#2d5016"/>
   <path d="m183 164.36c28.408 85.122 88.832 167.43 95 260h47c-6.0813-57.79-55.935-146.22-142-260z" fill="#447821"/>
  </g>
  <g transform="matrix(.92994 .3677 -.3677 .92994 227.42 -145.08)">
   <path d="m148 108.36c14.987 92.563 97.172 185.78 104 316h99c-14.927-104.33-156.07-278.92-203-316z" fill="#2d5016"/>
   <path d="m183 164.36c28.408 85.122 88.832 167.43 95 260h47c-6.0813-57.79-55.935-146.22-142-260z" fill="#447821"/>
  </g>
  <g transform="matrix(-.95193 .30632 .30632 .95193 552.41 -124.62)">
   <path d="m148 108.36c14.987 92.563 97.172 185.78 104 316h99c-14.927-104.33-156.07-278.92-203-316z" fill="#2d5016"/>
   <path d="m183 164.36c28.408 85.122 88.832 167.43 95 260h47c-6.0813-57.79-55.935-146.22-142-260z" fill="#447821"/>
  </g>
  <g transform="matrix(-1,0,0,1,710,-69)">
   <path d="m148 108.36c14.987 92.563 97.172 185.78 104 316h99c-14.927-104.33-156.07-278.92-203-316z" fill="#2d5016"/>
   <path d="m183 164.36c28.408 85.122 88.832 167.43 95 260h47c-6.0813-57.79-55.935-146.22-142-260z" fill="#447821"/>
  </g>
  <g transform="matrix(.87443 -.07167 .0726 .86318 -50.008 77.373)">
   <path d="m148 108.36c14.987 92.563 95.655 190.29 102.48 320.51l136 8.8648c-14.927-104.33-191.55-292.29-238.49-329.37z" fill="#2d5016"/>
   <path d="m188.76 177.58c28.408 85.122 83.068 154.21 89.236 246.78h47c-6.0813-57.79-50.171-133-136.24-246.78z" fill="#447821"/>
  </g>
  <g transform="translate(-7)">
   <path d="m148 108.36c14.987 92.563 97.172 185.78 104 316h99c-14.927-104.33-156.07-278.92-203-316z" fill="#2d5016"/>
   <path d="m183 164.36c28.408 85.122 88.832 167.43 95 260h47c-6.0813-57.79-55.935-146.22-142-260z" fill="#447821"/>
  </g>
  <g transform="matrix(1.0542 0 0 .94937 35.98 23.487)">
   <path d="m148 108.36c14.987 92.563 97.172 185.78 104 316h99c-14.927-104.33-156.07-278.92-203-316z" fill="#2d5016"/>
   <path d="m183 164.36c28.408 85.122 88.832 167.43 95 260h47c-6.0813-57.79-55.935-146.22-142-260z" fill="#447821"/>
  </g>
  <g transform="matrix(1.1424 .15343 -.15248 1.1354 106.57 -107.34)">
   <path d="m148 108.36c14.987 92.563 88.587 200.15 95.414 330.37l107.59-14.372c-14.927-104.33-156.07-278.92-203-316z" fill="#2d5016"/>
   <path d="m183 164.36c28.408 85.122 74.164 175.58 80.332 268.15l61.668-8.1475c-6.0813-57.79-55.935-146.22-142-260z" fill="#447821"/>
  </g>
  <g transform="matrix(-1,0,0,1,723,0)">
   <path d="m148 108.36c14.987 92.563 97.172 185.78 104 316h99c-14.927-104.33-156.07-278.92-203-316z" fill="#2d5016"/>
   <path d="m183 164.36c28.408 85.122 88.832 167.43 95 260h47c-6.0813-57.79-55.935-146.22-142-260z" fill="#447821"/>
  </g>
  <g transform="matrix(-.88614 -.03158 -.03133 .87919 760.44 63.058)">
   <path d="m148 108.36c14.987 92.563 97.172 185.78 104 316l102.22 4.6653c-14.927-104.33-159.29-283.58-206.22-320.67z" fill="#2d5016"/>
   <path d="m183 164.36c28.408 85.122 88.832 167.43 95 260l51.428 2.4338c-6.0813-57.79-60.363-148.66-146.43-262.43z" fill="#447821"/>
  </g>
  <path d="m200.5 425.86-0.5 12.5 324.5-0.5-1-12h-323z" fill="#2d5016"/>
 </g>
</svg>
