<?xml version="1.0" encoding="UTF-8" standalone="no"?>
<!-- Created with Inkscape (http://www.inkscape.org/) -->

<svg
   xmlns:dc="http://purl.org/dc/elements/1.1/"
   xmlns:cc="http://creativecommons.org/ns#"
   xmlns:rdf="http://www.w3.org/1999/02/22-rdf-syntax-ns#"
   xmlns:svg="http://www.w3.org/2000/svg"
   xmlns="http://www.w3.org/2000/svg"
   xmlns:xlink="http://www.w3.org/1999/xlink"
   xmlns:sodipodi="http://sodipodi.sourceforge.net/DTD/sodipodi-0.dtd"
   xmlns:inkscape="http://www.inkscape.org/namespaces/inkscape"
   width="800mm"
   height="200mm"
   viewBox="0 0 2834.6456 708.66141"
   id="svg4509"
   version="1.1"
   inkscape:version="0.91 r13725"
   sodipodi:docname="mountain.svg">
  <defs
     id="defs4511">
    <linearGradient
       inkscape:collect="always"
       id="linearGradient5269">
      <stop
         style="stop-color:#2a3540;stop-opacity:1"
         offset="0"
         id="stop5271" />
      <stop
         style="stop-color:#7d92a9;stop-opacity:0;"
         offset="1"
         id="stop5273" />
    </linearGradient>
    <linearGradient
       inkscape:collect="always"
       id="linearGradient5241">
      <stop
         style="stop-color:#000000;stop-opacity:1;"
         offset="0"
         id="stop5243" />
      <stop
         style="stop-color:#7d92a9;stop-opacity:0"
         offset="1"
         id="stop5245" />
    </linearGradient>
    <linearGradient
       inkscape:collect="always"
       xlink:href="#linearGradient5241"
       id="linearGradient5247"
       x1="1467.8938"
       y1="760.31885"
       x2="1533.5503"
       y2="30.318878"
       gradientUnits="userSpaceOnUse" />
    <linearGradient
       inkscape:collect="always"
       xlink:href="#linearGradient5269"
       id="linearGradient5275"
       x1="225.37746"
       y1="653.41522"
       x2="349.66666"
       y2="489.41522"
       gradientUnits="userSpaceOnUse" />
    <linearGradient
       inkscape:collect="always"
       xlink:href="#linearGradient5269"
       id="linearGradient5285"
       x1="1751.9968"
       y1="406.8085"
       x2="2096.7605"
       y2="-51.191498"
       gradientUnits="userSpaceOnUse" />
  </defs>
  <sodipodi:namedview
     id="base"
     pagecolor="#ffffff"
     bordercolor="#666666"
     borderopacity="1.0"
     inkscape:pageopacity="0.0"
     inkscape:pageshadow="2"
     inkscape:zoom="0.5"
     inkscape:cx="1605.4345"
     inkscape:cy="322.38596"
     inkscape:document-units="px"
     inkscape:current-layer="layer1"
     showgrid="false"
     inkscape:window-width="1920"
     inkscape:window-height="1022"
     inkscape:window-x="0"
     inkscape:window-y="0"
     inkscape:window-maximized="1" />
  <metadata
     id="metadata4514">
    <rdf:RDF>
      <cc:Work
         rdf:about="">
        <dc:format>image/svg+xml</dc:format>
        <dc:type
           rdf:resource="http://purl.org/dc/dcmitype/StillImage" />
        <dc:title></dc:title>
      </cc:Work>
    </rdf:RDF>
  </metadata>
  <g
     inkscape:label="Layer 1"
     inkscape:groupmode="layer"
     id="layer1"
     transform="translate(0,-343.70079)">
    <g
       id="g5154">
      <path
         inkscape:connector-curvature="0"
         d="m 168.57974,1042.9945 c 2.80937,-0.2818 5.60812,-0.5897 8.38198,-1.1254 6.3971,-1.2874 12.65508,-3.1577 18.88911,-5.0639 8.92755,-2.7289 17.78049,-5.6889 26.56686,-8.841 9.53039,-3.5 18.98803,-7.1968 28.33903,-11.1509 9.63947,-4.18 18.94717,-9.079 28.18224,-14.0763 8.85051,-4.69955 17.31627,-10.0456 25.51048,-15.80182 8.19927,-5.73499 15.7868,-12.2459 23.20199,-18.94403 7.17497,-6.56717 14.19271,-13.30242 21.20695,-20.04003 6.03428,-5.78308 12.02796,-11.60621 17.75299,-17.6971 5.46465,-5.7212 10.37922,-11.92202 15.18322,-18.19739 4.66241,-6.12528 9.17654,-12.35959 13.68793,-18.59616 4.04235,-5.56553 8.16722,-11.07039 12.34925,-16.53156 3.73726,-5.01671 7.65747,-9.89116 11.59037,-14.75452 3.71292,-4.51304 7.61099,-8.86828 11.38264,-13.33142 3.68436,-4.36752 7.15156,-8.91014 10.51166,-13.52976 3.37207,-4.60183 6.49479,-9.3778 9.69316,-14.09993 2.95061,-4.41496 5.90913,-8.82392 8.80948,-13.27213 2.75753,-4.1961 5.48192,-8.41303 8.31373,-12.5597 2.71797,-4.04336 5.64038,-7.94202 8.6896,-11.73995 2.79711,-3.43719 5.79206,-6.70488 8.78963,-9.96621 2.8421,-3.05618 5.81421,-5.98757 8.76604,-8.9368 2.88027,-2.87082 5.7635,-5.73869 8.64244,-8.61085 2.80361,-2.8039 5.57892,-5.63293 8.26819,-8.54677 2.77324,-3.02529 5.55677,-6.04102 8.3488,-9.04896 4.01846,-4.33173 8.78959,-7.8813 13.44712,-11.48707 5.18229,-3.8616 10.12614,-8.02283 15.00263,-12.25941 5.21464,-4.70162 10.35871,-9.4803 15.62178,-14.12803 5.8277,-5.17416 11.91458,-10.04013 18.07661,-14.80676 5.73413,-4.46655 11.58521,-8.77931 17.36415,-13.18697 5.44878,-4.10674 10.83543,-8.29489 16.2472,-12.45011 5.82398,-4.50629 11.65244,-9.00422 17.62424,-13.31365 5.83703,-4.21524 11.82563,-8.21147 17.87638,-12.11153 5.77807,-3.66601 11.838,-6.86098 17.90745,-10.01131 6.05324,-3.09315 12.22888,-5.92771 18.49669,-8.55547 6.02169,-2.50897 12.17478,-4.67179 18.36562,-6.71921 5.66867,-1.86315 11.4227,-3.44024 17.20996,-4.88588 5.45639,-1.33972 10.96169,-2.46169 16.47995,-3.51193 4.93597,-0.93634 9.89238,-1.75922 14.8568,-2.52865 4.50241,-0.71228 9.02387,-1.2874 13.54997,-1.82396 4.52309,-0.55718 9.05507,-0.98126 13.61119,-1.10287 4.64425,-0.10427 9.22206,0.53705 13.74547,1.52313 4.20435,0.97515 8.24768,2.48472 12.22865,4.12793 3.69787,1.59003 7.30008,3.38226 10.85434,5.26808 3.24785,1.80892 6.5102,3.59092 9.7339,5.44266 3.02137,1.84959 6.03512,3.71387 9.02191,5.61884 2.81737,1.84673 5.57835,3.78333 8.29898,5.76993 2.76629,1.98832 5.39654,4.15345 8.05356,6.28272 2.67267,2.14362 5.34314,4.27981 7.87725,6.58727 2.34841,2.08731 4.6033,4.27738 6.87436,6.44797 2.13945,2.01582 4.21297,4.10017 6.33095,6.13838 2.01624,1.95175 3.98567,3.95098 5.97266,5.93225 1.64162,1.72965 3.41852,3.31798 5.22566,4.87033 1.58027,1.40752 3.41665,2.46553 5.21147,3.56706 2.14989,1.30941 4.41379,2.41576 6.67133,3.5241 2.10868,1.04142 4.30329,1.88777 6.52227,2.65974 2.51334,0.84916 5.00797,1.74769 7.54204,2.53476 2.42109,0.74219 4.88482,1.32894 7.35723,1.87042 2.54584,0.5553 5.11484,0.99205 7.68792,1.39849 2.60019,0.4055 5.21185,0.73014 7.82603,1.02979 2.63713,0.2996 5.2818,0.52343 7.92575,0.752 2.60528,0.22216 5.2144,0.39354 7.82411,0.55337 2.69561,0.16007 5.39305,0.28648 8.09089,0.40192 2.80467,0.12744 5.61165,0.19406 8.41615,0.32391 2.94368,0.10226 5.86975,0.43945 8.78404,0.8509 2.69272,0.36701 5.35563,0.90876 8.01694,1.45146 2.57549,0.60366 5.12708,1.30407 7.6603,2.06462 2.28784,0.70463 4.52268,1.5704 6.77755,2.37347 2.31044,0.76393 4.59604,1.59919 6.86604,2.47592 2.1218,0.81789 4.2153,1.70619 6.3252,2.55387 2.2669,0.92676 4.4767,1.98469 6.6644,3.08338 1.9619,1.01547 3.9575,1.9619 5.9512,2.91279 2.3482,1.08657 4.7199,2.12358 7.1171,3.09745 2.7025,0.9851 5.3782,2.02762 8.0053,3.19932 2.8439,1.22548 5.4158,2.91632 7.8214,4.84825 2.2589,1.85525 4.1291,4.10434 5.8649,6.44046 1.3609,1.79812 2.4838,3.75383 3.6407,5.6842 1.0812,1.88304 2.3769,3.61578 3.7125,5.32215 2.0623,2.59585 4.5963,4.7397 7.0534,6.94317 3.455,2.96565 6.956,5.87707 10.4574,8.78771 3.9102,3.25653 7.7862,6.55416 11.7115,9.79264 4.0402,3.33726 8.1051,6.64539 12.1835,9.93587 3.8215,3.04311 7.5907,6.15152 11.4393,9.16052 3.8828,3.08267 7.8599,6.04362 11.8392,8.99972 4.0543,3.02341 8.1397,6.00274 12.2772,8.91112 4.0749,2.90833 8.2223,5.70744 12.441,8.40197 4.0177,2.64516 8.1005,5.18039 12.2173,7.66737 3.5952,2.13213 7.2876,4.09705 11.0174,5.98185 3.4913,1.76208 7.0853,3.30231 10.7319,4.71029 3.7933,1.39408 7.5884,2.77991 11.4345,4.02241 3.6196,1.13342 7.2433,2.25177 10.8943,3.28035 3.4428,0.91048 6.89,1.80543 10.3401,2.68891 3.5164,0.8978 7.054,1.71123 10.5586,2.65387 3.5909,1.01413 7.1596,2.10001 10.7092,3.24968 3.333,1.09777 6.6514,2.23881 9.9827,3.34253 3.1753,0.98822 6.3136,2.08865 9.4823,3.09731 3.061,0.95574 6.1614,1.77841 9.2293,2.71021 2.91,0.90761 5.8129,1.83847 8.7064,2.79737 2.4235,0.83138 4.8776,1.56383 7.3506,2.23123 2.3591,0.67917 4.7241,1.33539 7.1058,1.93036 2.2164,0.5141 4.4337,1.02303 6.6487,1.54364 2.2872,0.5075 4.5527,1.10608 6.7968,1.77793 2.27,0.66926 4.4575,1.58104 6.6335,2.50368 2.1743,0.84661 4.242,1.93081 6.3271,2.97082 1.7054,0.93733 3.4717,1.74418 5.2775,2.4653 0.29,0.10963 0.5801,0.21926 0.8702,0.32889 0,0 -6.6759,17.53984 -6.6759,17.53984 l 0,0 c -0.398,-0.15226 -0.796,-0.30452 -1.1941,-0.45678 -2.267,-0.91565 -4.5054,-1.90164 -6.6512,-3.07847 -1.7294,-0.86147 -3.4391,-1.76919 -5.2465,-2.4601 -1.5834,-0.66232 -3.1593,-1.35895 -4.8085,-1.8446 -1.8587,-0.58038 -3.7498,-1.05025 -5.6472,-1.48518 -2.3008,-0.54719 -4.6031,-1.08613 -6.9052,-1.6276 -2.4932,-0.6315 -4.9724,-1.31476 -7.4385,-2.04521 -2.8095,-0.76768 -5.6012,-1.59634 -8.353,-2.55261 -2.7549,-0.92307 -5.5172,-1.8239 -8.2884,-2.6969 -3.1199,-0.97788 -6.2936,-1.77965 -9.4062,-2.78339 -3.2387,-1.03528 -6.4465,-2.16282 -9.6915,-3.17867 -3.2903,-1.09694 -6.5689,-2.22797 -9.8624,-3.31407 -3.2502,-1.06043 -6.52,-2.05516 -9.809,-2.9886 -3.4276,-0.9317 -6.8978,-1.702 -10.3346,-2.59969 -3.5968,-0.92738 -7.1978,-1.83982 -10.781,-2.81814 -3.8655,-1.1017 -7.699,-2.30676 -11.5305,-3.52062 -4.1774,-1.35173 -8.2952,-2.87022 -12.418,-4.37874 -4.2239,-1.63647 -8.3946,-3.41296 -12.4294,-5.47793 -4.1487,-2.11288 -8.2628,-4.3005 -12.2515,-6.70466 -4.2098,-2.58196 -8.3978,-5.19374 -12.5187,-7.91611 -4.4495,-2.83377 -8.8089,-5.79998 -13.106,-8.86039 -4.2836,-2.99588 -8.5044,-6.07745 -12.6985,-9.19728 -4.0964,-3.04486 -8.1989,-6.08373 -12.1981,-9.25612 -3.9402,-3.07279 -7.7991,-6.24702 -11.6875,-9.38489 -4.1005,-3.33692 -8.2042,-6.67048 -12.2824,-10.03464 -3.9509,-3.24325 -7.8584,-6.53874 -11.7912,-9.80374 -3.676,-3.04035 -7.3598,-6.07158 -10.9955,-9.16021 -3.2657,-2.88595 -6.5739,-5.74871 -9.3058,-9.1679 -1.8811,-2.32481 -3.7074,-4.69381 -5.2305,-7.27413 -0.8603,-1.42779 -1.6719,-2.88899 -2.6607,-4.23446 -0.7825,-1.08279 -1.602,-2.15351 -2.6123,-3.03649 -1.1115,-0.9471 -2.3264,-1.7228 -3.6712,-2.30684 -2.3776,-1.09477 -4.8125,-2.04666 -7.2697,-2.94872 -2.745,-1.10105 -5.4659,-2.26313 -8.1594,-3.48483 -2.1395,-1.00919 -4.282,-2.01286 -6.3824,-3.10223 -1.7109,-0.87183 -3.4555,-1.67698 -5.2224,-2.42867 -2.0407,-0.82595 -4.0685,-1.68325 -6.12054,-2.4809 -2.07596,-0.82027 -4.17678,-1.57222 -6.29776,-2.26714 -1.99407,-0.69858 -3.96542,-1.46357 -5.97554,-2.11148 -1.9795,-0.60937 -3.98123,-1.13921 -5.98731,-1.65348 -2.29217,-0.47461 -4.58241,-0.96745 -6.9054,-1.27147 -2.33492,-0.34261 -4.67878,-0.6254 -7.03938,-0.70458 -2.76689,-0.14529 -5.53848,-0.18491 -8.30613,-0.31738 -2.80292,-0.1219 -5.60558,-0.25169 -8.40635,-0.41677 -2.76953,-0.1633 -5.53813,-0.3454 -8.30266,-0.5798 -2.81642,-0.24003 -5.63037,-0.51337 -8.4407,-0.81647 -2.89064,-0.32688 -5.7768,-0.69336 -8.65149,-1.14114 -2.93296,-0.47012 -5.86293,-0.9663 -8.76452,-1.60614 -2.99359,-0.66072 -5.97667,-1.37468 -8.90789,-2.27804 -2.73252,-0.85458 -5.43055,-1.80595 -8.14014,-2.72906 -2.93331,-1.02638 -5.83288,-2.15508 -8.61885,-3.53902 -2.76162,-1.36228 -5.51897,-2.74274 -8.15391,-4.34074 -2.66988,-1.61964 -5.3491,-3.24954 -7.68592,-5.34122 -2.15492,-1.85833 -4.26806,-3.76733 -6.23394,-5.82737 -1.90571,-1.90776 -3.80042,-3.82675 -5.72428,-5.71616 -2.1007,-2.03059 -4.16618,-4.09756 -6.28192,-6.11252 -2.15719,-2.07738 -4.31636,-4.15552 -6.54857,-6.1524 -2.22108,-2.04487 -4.58319,-3.91454 -6.93653,-5.80435 -2.44218,-1.95608 -4.84962,-3.9578 -7.40214,-5.77136 -2.41526,-1.7666 -4.8683,-3.48714 -7.36442,-5.13688 -2.71668,-1.75719 -5.47147,-3.45684 -8.21458,-5.17238 -3.05199,-1.75079 -6.13397,-3.44751 -9.20846,-5.15842 -3.01756,-1.61117 -6.07157,-3.15029 -9.21219,-4.51016 -2.9838,-1.23427 -6.00221,-2.39759 -9.14688,-3.16145 -3.06444,-0.69375 -6.15851,-1.16018 -9.31281,-1.11248 -3.97199,0.0641 -7.91739,0.46939 -11.85992,0.94477 -4.31202,0.50145 -8.61711,1.0607 -12.9101,1.70649 -4.75627,0.71952 -9.50644,1.48127 -14.23662,2.35796 -5.1747,0.96907 -10.33803,2.00448 -15.45397,3.25172 -5.35598,1.32928 -10.6832,2.77421 -15.93507,4.47409 -5.73363,1.86355 -11.42995,3.84582 -17.00208,6.15457 -5.81208,2.44183 -11.55381,5.04134 -17.15818,7.93313 -5.57351,2.8811 -11.13763,5.80315 -16.45252,9.14479 -5.79239,3.69894 -11.5346,7.47799 -17.1096,11.49978 -5.82803,4.18675 -11.47263,8.61225 -17.13389,13.02026 -5.43703,4.18193 -10.85074,8.39492 -16.3397,12.50869 -5.75711,4.3495 -11.5725,8.62188 -17.28123,13.03541 -5.84459,4.51193 -11.61894,9.11628 -17.11089,14.05672 -5.28644,4.70011 -10.45405,9.5303 -15.71548,14.25815 -5.11443,4.46382 -10.29538,8.85426 -15.70743,12.95647 -3.85961,3.03468 -7.86685,5.95569 -11.13874,9.6484 -2.78572,2.9958 -5.55501,6.00675 -8.31999,9.0217 -2.86593,3.0914 -5.80571,6.11018 -8.78948,9.08803 -2.87816,2.86691 -5.75349,5.73667 -8.62935,8.60588 -2.76987,2.76255 -5.55402,5.51318 -8.23244,8.36509 -2.72826,2.95759 -5.45779,5.91715 -8.02069,9.02095 -2.76233,3.41014 -5.40662,6.91537 -7.85799,10.55716 -2.7695,4.03314 -5.42911,8.13896 -8.12929,12.21852 -2.97309,4.52654 -6,9.01641 -9.02942,13.50544 -3.32883,4.88666 -6.57527,9.83169 -10.07727,14.59806 -3.63679,4.96027 -7.35378,9.86308 -11.30183,14.58175 -3.69563,4.36059 -7.516,8.61391 -11.16464,13.0146 -3.84841,4.72933 -7.68233,9.4709 -11.33391,14.35533 -4.10632,5.31108 -8.16037,10.6625 -12.13122,16.07581 -4.63053,6.33651 -9.26882,12.66701 -14.03535,18.90243 -5.18718,6.76937 -10.4972,13.4584 -16.38806,19.63706 -5.97007,6.28597 -12.18609,12.32415 -18.49365,18.27059 -7.17724,6.81163 -14.35377,13.62481 -21.65092,20.30838 -7.96277,7.17525 -16.12406,14.13159 -24.91601,20.28604 -8.76924,6.1606 -17.81686,11.9044 -27.30824,16.8998 -9.73995,5.2363 -19.56179,10.3523 -29.69976,14.7823 -9.65133,4.1017 -19.39318,7.9882 -29.23755,11.6045 -9.01326,3.2454 -18.09289,6.2966 -27.21112,9.2342 -6.79196,2.1864 -13.61175,4.3102 -20.57869,5.8774 -2.89874,0.6261 -5.81549,1.1425 -8.73593,1.6493 0,0 -3.38833,-18.6358 -3.38833,-18.6358 z"
         id="path5080"
         style="fill:#000000;fill-opacity:1;stroke:none;stroke-width:4.69999981;stroke-linejoin:round;stroke-miterlimit:4;stroke-dasharray:none;stroke-opacity:1" />
      <path
         inkscape:connector-curvature="0"
         d="m 9.03689,1060.907 c -0.15605,-4.4887 2.2254,-7.7514 5.4155,-10.6198 3.0604,-2.5495 6.65238,-4.3093 10.1656,-6.1332 3.66926,-1.8015 7.34636,-3.587 11.02912,-5.3607 3.63571,-1.7646 7.17908,-3.7109 10.73929,-5.6211 3.64619,-1.9994 7.27379,-4.0336 10.93418,-6.0069 3.84302,-2.073 7.69929,-4.1214 11.51363,-6.2469 3.89928,-2.1583 7.75438,-4.3988 11.54384,-6.7447 3.93175,-2.4053 7.7934,-4.9225 11.67236,-7.4114 3.8331,-2.4563 7.52843,-5.1147 11.22908,-7.76325 3.68466,-2.65246 7.37414,-5.29816 11.13236,-7.84559 3.70613,-2.4516 7.41647,-4.89746 11.16784,-7.27943 3.54235,-2.22799 7.1015,-4.43065 10.70365,-6.56094 3.30336,-1.89497 6.59303,-3.80684 9.82198,-5.82631 3.16456,-1.96755 6.40059,-3.81538 9.64049,-5.65496 3.2021,-1.82756 6.53374,-3.41049 9.84317,-5.03053 3.26221,-1.61488 6.64318,-2.96021 10.03038,-4.28404 3.23416,-1.19583 6.43604,-2.47594 9.66627,-3.68234 3.03551,-1.25961 6.10645,-2.42604 9.20586,-3.51789 3.07276,-1.11374 6.19312,-2.08253 9.33568,-2.97717 3.07988,-0.86031 6.19868,-1.56604 9.32621,-2.22759 2.90851,-0.61706 5.83966,-1.11683 8.77442,-1.58987 2.67582,-0.42536 5.36074,-0.79031 8.0473,-1.14036 2.48288,-0.31486 4.96908,-0.60626 7.46335,-0.81389 2.58772,-0.23413 5.18028,-0.18429 7.76324,0.0609 2.35039,0.27955 4.66478,0.76201 6.95765,1.33949 2.59324,0.60599 5.00452,1.70785 7.33659,2.96585 2.31809,1.22982 4.28186,2.97045 6.36103,4.54248 1.56735,1.24417 3.22735,2.36094 4.80862,3.5865 1.33276,1.05508 2.73898,2.0116 4.10928,3.01646 1.32439,0.95171 2.64807,1.90422 3.97661,2.85009 1.26326,0.94319 2.55134,1.85273 3.84866,2.74839 1.32996,0.84714 2.67056,1.67095 3.95182,2.59102 1.09451,0.87944 2.20685,1.72929 3.33928,2.55861 0.97403,0.69928 2.00304,1.31794 3.02105,1.95031 1.32948,0.78188 2.6505,1.56989 3.91294,2.4562 0.99607,0.75269 2.03607,1.44207 3.07734,2.12984 0.995,0.67463 2.0705,1.21475 3.11685,1.80299 1.18743,0.73825 2.44738,1.344 3.67193,2.01555 1.2483,0.67025 2.47775,1.3756 3.73504,2.02915 1.00708,0.49248 2.02876,0.95707 3.06746,1.37907 0.60782,0.24282 1.23432,0.43301 1.85919,0.62575 0,0 -4.72155,15.16352 -4.72155,15.16352 l 0,0 c -1.07065,-0.33571 -2.14175,-0.6737 -3.18129,-1.09871 -1.48588,-0.61562 -2.9494,-1.28579 -4.38623,-2.00881 -1.36062,-0.71592 -2.69727,-1.47563 -4.05199,-2.20245 -1.26106,-0.70888 -2.58599,-1.30338 -3.80954,-2.08068 -1.36189,-0.77568 -2.76308,-1.48635 -4.05282,-2.38263 -1.25313,-0.82871 -2.50474,-1.66008 -3.71309,-2.55362 -0.89703,-0.63463 -1.95049,-1.19644 -2.91071,-1.79326 -1.36064,-0.84732 -2.72909,-1.68614 -4.02403,-2.63281 -1.14997,-0.84547 -2.29187,-1.69798 -3.3972,-2.60111 -1.04371,-0.94154 -2.47226,-1.42003 -3.55215,-2.31991 -1.34694,-0.94035 -2.6925,-1.88387 -4.00679,-2.86947 -1.39303,-0.99508 -2.78433,-1.99246 -4.1695,-2.99853 -1.48846,-1.1034 -3.02617,-2.14101 -4.4701,-3.30388 -1.51998,-1.20901 -3.15384,-2.2674 -4.65545,-3.50133 -1.40132,-1.08138 -2.72795,-2.26915 -4.25328,-3.17742 -1.18778,-0.63836 -2.38211,-1.25555 -3.7144,-1.54063 -1.53906,-0.39012 -3.08549,-0.73274 -4.66041,-0.94892 -1.64145,-0.18228 -3.29312,-0.17923 -4.93963,-0.0488 -2.24042,0.16371 -4.46979,0.45155 -6.70008,0.71554 -2.52653,0.31874 -5.05176,0.64971 -7.56759,1.04552 -2.68414,0.42547 -5.36399,0.88021 -8.02481,1.4356 -2.77463,0.57902 -5.5415,1.19905 -8.27358,1.95718 -2.83826,0.80079 -5.65402,1.67721 -8.42715,2.68301 -3.00801,1.04732 -5.97768,2.19336 -8.92756,3.39475 -3.15677,1.17053 -6.28116,2.42533 -9.4371,3.59795 -2.98622,1.16214 -5.97306,2.32929 -8.84907,3.74968 -3.02364,1.47445 -6.06434,2.92068 -8.99262,4.58022 -3.05474,1.72978 -6.109,3.46162 -9.09571,5.30751 -3.34329,2.07412 -6.73657,4.05935 -10.15601,6.00515 -3.4678,2.03911 -6.88941,4.15589 -10.3028,6.28439 -3.62167,2.28121 -7.18502,4.65266 -10.76326,7.00116 -3.6558,2.4751 -7.24406,5.0475 -10.83372,7.6172 -3.91132,2.7794 -7.79842,5.5962 -11.85063,8.17 -3.95322,2.5518 -7.89761,5.1186 -11.90874,7.579 -3.99165,2.4603 -8.03982,4.8296 -12.14037,7.104 -3.87671,2.1626 -7.79186,4.2552 -11.69308,6.3732 -3.67039,1.9811 -7.30396,4.0306 -10.96516,6.0287 -3.7531,2.0119 -7.48636,4.0656 -11.32002,5.9219 -3.5322,1.7149 -7.06835,3.4217 -10.58248,5.1736 -2.39803,1.2604 -4.89004,2.4254 -7.01944,4.1213 -0.14193,0.1083 -0.48358,0.4861 -0.43345,0.3147 0.31442,-1.0748 0.79534,-1.93 0.49487,-3.1592 0,0 -15.87642,1.5876 -15.87642,1.5876 z"
         id="path5082"
         style="fill:#000000;fill-opacity:1;stroke:none;stroke-width:4.69999981;stroke-linejoin:round;stroke-miterlimit:4;stroke-dasharray:none;stroke-opacity:1" />
      <path
         sodipodi:nodetypes="cccccccccccccccccccccccccccccccccccccccccccccccccccccccccccccccccccccccccccccccccccccccccccccccccccccccccccccccccccccccccccccccccccccccccccccccccccccccccccccccc"
         inkscape:connector-curvature="0"
         d="m 1884.872,884.465 c -8.8505,-4.69952 -17.3163,-10.04557 -25.5105,-15.80179 -8.1992,-5.73499 -15.7868,-12.2459 -23.202,-18.94403 -7.1749,-6.56717 -14.1927,-13.30242 -21.2069,-20.04003 -6.0343,-5.78308 -12.028,-11.60621 -17.753,-17.6971 -5.4646,-5.7212 -10.3792,-11.92202 -15.1832,-18.19739 -4.6624,-6.12528 -9.1766,-12.35959 -13.6879,-18.59616 -4.0424,-5.56553 -8.1673,-11.07039 -12.3493,-16.53156 -3.7373,-5.01671 -7.6575,-9.89116 -11.5904,-14.75452 -3.7129,-4.51304 -7.611,-8.86828 -11.3826,-13.33142 -3.6844,-4.36752 -7.1516,-8.91014 -10.5117,-13.52976 -3.372,-4.60183 -6.4948,-9.3778 -9.6931,-14.09993 -2.9506,-4.41496 -5.9092,-8.82392 -8.8095,-13.27213 -2.7575,-4.1961 -5.4819,-8.41303 -8.3137,-12.5597 -2.718,-4.04336 -5.6404,-7.94202 -8.6896,-11.73995 -2.7971,-3.43719 -5.7921,-6.70488 -8.7897,-9.96621 -2.8421,-3.05618 -5.8142,-5.98757 -8.766,-8.9368 -2.8803,-2.87082 -5.7635,-5.73869 -8.6424,-8.61085 -2.8037,-2.8039 -5.579,-5.63293 -8.2682,-8.54677 -2.7733,-3.02529 -5.5568,-6.04102 -8.3488,-9.04896 -4.0185,-4.33173 -8.7896,-7.8813 -13.4472,-11.48707 -5.1822,-3.8616 -10.1261,-8.02283 -15.0026,-12.25941 -5.2146,-4.70162 -10.3587,-9.4803 -15.6218,-14.12803 -5.8277,-5.17416 -11.9145,-10.04013 -18.0766,-14.80676 -5.7341,-4.46655 -11.5852,-8.77931 -17.3641,-13.18697 -5.4488,-4.10674 -10.8355,-8.29489 -16.2472,-12.45011 -5.824,-4.50629 -11.6525,-9.00422 -17.6243,-13.31365 -5.837,-4.21524 -11.8256,-8.21147 -17.8763,-12.11153 -5.7781,-3.66601 -11.838,-6.86098 -17.9075,-10.01131 -6.0532,-3.09315 -12.2289,-5.92771 -18.4967,-8.55547 -6.0217,-2.50897 -12.1748,-4.67179 -18.3656,-6.71921 -5.6687,-1.86315 -11.4227,-3.44024 -17.21,-4.88588 -5.4564,-1.33972 -10.9617,-2.46169 -16.4799,-3.51193 -4.936,-0.93634 -9.8924,-1.75922 -14.8568,-2.52865 -4.5024,-0.71228 -9.0239,-1.2874 -13.55,-1.82396 -4.5231,-0.55718 -9.0551,-0.98126 -13.6112,-1.10287 -4.6442,-0.10427 -9.222,0.53705 -13.7454,1.52313 -4.2044,0.97515 -8.2477,2.48472 -12.2287,4.12793 -3.6979,1.59003 -7.3001,3.38226 -10.8543,5.26808 -3.2479,1.80892 -6.5102,3.59092 -9.7339,5.44266 -3.0214,1.84959 -6.0352,3.71387 -9.0219,5.61884 -2.8174,1.84673 -5.5784,3.78333 -8.299,5.76993 -2.7663,1.98832 -5.3966,4.15345 -8.0536,6.28272 -2.6727,2.14362 -5.3431,4.27981 -7.8772,6.58727 -2.3484,2.08731 -4.6033,4.27738 -6.8744,6.44797 -2.1394,2.01582 -4.213,4.10017 -6.3309,6.13838 -2.0163,1.95175 -3.9857,3.95098 -5.9727,5.93225 -1.6416,1.72965 -3.4185,3.31798 -5.2257,4.87033 -1.5802,1.40752 -3.4166,2.46553 -5.2114,3.56706 -2.1499,1.30941 -4.4138,2.41576 -6.6714,3.5241 -2.1086,1.04142 -4.3033,1.88777 -6.5222,2.65974 -2.5134,0.84916 -5.008,1.74769 -7.5421,2.53476 -2.4211,0.74219 -4.8848,1.32894 -7.3572,1.87042 -2.5458,0.5553 -5.1148,0.99205 -7.6879,1.39849 -2.6002,0.4055 -5.2119,0.73014 -7.8261,1.02979 -2.6371,0.2996 -5.2818,0.52343 -7.9257,0.752 -2.6053,0.22216 -5.2144,0.39354 -7.8241,0.55337 -2.6956,0.16007 -5.3931,0.28648 -8.0909,0.40192 -2.8047,0.12744 -5.6117,0.19406 -8.4162,0.32391 -2.9436,0.10226 -5.8697,0.43945 -8.784,0.8509 -2.6927,0.36701 -5.3556,0.90876 -8.0169,1.45146 -2.5755,0.60366 -5.1271,1.30407 -7.6603,2.06462 -2.2879,0.70463 -4.5227,1.5704 -6.7776,2.37347 -2.3104,0.76393 -4.596,1.59919 -6.866,2.47592 -2.1218,0.81789 -4.2153,1.70619 -6.3252,2.55387 -2.267,0.92676 -4.4767,1.98469 -6.6644,3.08338 -1.962,1.01547 -3.9576,1.9619 -5.9512,2.91279 -2.3482,1.08657 -4.7199,2.12358 -7.1172,3.09745 -2.7025,0.9851 -5.3782,2.02762 -8.0053,3.19932 -2.8438,1.22548 -5.4158,2.91632 -7.8213,4.84825 -2.2589,1.85525 -4.1292,4.10434 -5.8649,6.44046 -1.3609,1.79812 -2.4838,3.75383 -3.6407,5.6842 -1.0812,1.88304 -2.3769,3.61578 -3.7125,5.32215 -2.0624,2.59585 -4.5963,4.7397 -7.0534,6.94317 -3.4551,2.96565 -6.9561,5.87707 -10.4574,8.78771 -3.9102,3.25653 -7.7862,6.55416 -11.7115,9.79264 -4.0402,3.33726 -8.1051,6.64539 -12.1836,9.93587 -3.8214,3.04311 -7.5906,6.15152 -11.4392,9.16052 -3.8828,3.08267 -7.8599,6.04362 -11.8393,8.99972 -4.0542,3.02341 -31.1396,7.00274 -35.2771,9.91112 -27.057,54.07143 46.2906,4.91007 46.2906,4.91007 4.0963,-3.04486 8.1989,-6.08373 12.198,-9.25612 3.9403,-3.07279 7.7992,-6.24702 11.6875,-9.38489 4.1006,-3.33692 8.2042,-6.67048 12.2824,-10.03464 3.9509,-3.24325 7.8584,-6.53874 11.7913,-9.80374 3.676,-3.04035 7.3598,-6.07158 10.9955,-9.16021 3.2656,-2.88595 6.5738,-5.74871 9.3058,-9.1679 1.8811,-2.32481 3.7074,-4.69381 5.2305,-7.27413 0.8603,-1.42779 1.6719,-2.88899 2.6607,-4.23446 0.7825,-1.08279 1.602,-2.15351 2.6123,-3.03649 1.1114,-0.9471 2.3264,-1.7228 3.6712,-2.30684 2.3776,-1.09477 4.8125,-2.04666 7.2697,-2.94872 2.745,-1.10105 5.4658,-2.26313 8.1593,-3.48483 2.1396,-1.00919 4.2821,-2.01286 6.3825,-3.10223 1.7109,-0.87183 3.4555,-1.67698 5.2224,-2.42867 2.0407,-0.82595 4.0684,-1.68325 6.1205,-2.4809 2.076,-0.82027 4.1768,-1.57222 6.2978,-2.26714 1.994,-0.69858 3.9654,-1.46357 5.9755,-2.11148 1.9795,-0.60937 3.9812,-1.13921 5.9873,-1.65348 2.2922,-0.47461 4.5824,-0.96745 6.9054,-1.27147 2.3349,-0.34261 4.6788,-0.6254 7.0394,-0.70458 2.7669,-0.14529 5.5385,-0.18491 8.3061,-0.31738 2.803,-0.1219 5.6056,-0.25169 8.4064,-0.41677 2.7695,-0.1633 5.5381,-0.3454 8.3026,-0.5798 2.8165,-0.24003 5.6304,-0.51337 8.4407,-0.81647 2.8907,-0.32688 5.7768,-0.69336 8.6515,-1.14114 2.933,-0.47012 5.863,-0.9663 8.7646,-1.60614 2.9935,-0.66072 5.9766,-1.37468 8.9078,-2.27804 2.7326,-0.85458 5.4306,-1.80595 8.1402,-2.72906 2.9333,-1.02638 5.8329,-2.15508 8.6188,-3.53902 2.7617,-1.36228 5.519,-2.74274 8.1539,-4.34074 2.6699,-1.61964 5.3491,-3.24954 7.686,-5.34122 2.1549,-1.85833 4.268,-3.76733 6.2339,-5.82737 1.9057,-1.90776 3.8004,-3.82675 5.7243,-5.71616 2.1007,-2.03059 4.1662,-4.09756 6.2819,-6.11252 2.1572,-2.07738 4.3164,-4.15552 6.5486,-6.1524 2.2211,-2.04487 4.5832,-3.91454 6.9365,-5.80435 2.4422,-1.95608 4.8496,-3.9578 7.4021,-5.77136 2.4153,-1.7666 4.8683,-3.48714 7.3645,-5.13688 2.7166,-1.75719 5.4714,-3.45684 8.2145,-5.17238 3.052,-1.75079 6.134,-3.44751 9.2085,-5.15842 3.0176,-1.61117 6.0716,-3.15029 9.2122,-4.51016 2.9838,-1.23427 6.0022,-2.39759 9.1469,-3.16145 3.0644,-0.69375 6.1585,-1.16018 9.3128,-1.11248 3.972,0.0641 7.9174,0.46939 11.8599,0.94477 4.312,0.50145 8.6171,1.0607 12.9101,1.70649 4.7563,0.71952 9.5064,1.48127 14.2366,2.35796 5.1747,0.96907 10.3381,2.00448 15.454,3.25172 5.356,1.32928 10.6832,2.77421 15.9351,4.47409 5.7336,1.86355 11.4299,3.84582 17.002,6.15457 5.8121,2.44183 11.5539,5.04134 17.1582,7.93313 5.5735,2.8811 11.1377,5.80315 16.4525,9.14479 5.7924,3.69894 11.5346,7.47799 17.1096,11.49978 5.8281,4.18675 11.4727,8.61225 17.1339,13.02026 5.4371,4.18193 10.8508,8.39492 16.3397,12.50869 5.7571,4.3495 11.5725,8.62188 17.2813,13.03541 5.8446,4.51193 11.6189,9.11628 17.1109,14.05672 5.2864,4.70011 10.454,9.5303 15.7154,14.25815 5.1145,4.46382 10.2954,8.85426 15.7075,12.95647 3.8596,3.03468 7.8668,5.95569 11.1387,9.6484 2.7857,2.9958 5.555,6.00675 8.32,9.0217 2.8659,3.0914 5.8057,6.11018 8.7895,9.08803 2.8781,2.86691 5.7535,5.73667 8.6293,8.60588 2.7699,2.76255 5.554,5.51318 8.2325,8.36509 2.7282,2.95759 5.4578,5.91715 8.0207,9.02095 2.7623,3.41014 5.4066,6.91537 7.8579,10.55716 2.7695,4.03314 5.4292,8.13896 8.1293,12.21852 2.9731,4.52654 6,9.01641 9.0295,13.50544 3.3288,4.88666 6.5752,9.83169 10.0772,14.59806 3.6368,4.96027 7.3538,9.86308 11.3019,14.58175 3.6956,4.36059 7.516,8.61391 11.1646,13.0146 3.8484,4.72933 7.6823,9.4709 11.3339,14.35533 4.1063,5.31108 8.1604,10.6625 12.1312,16.07581 4.6306,6.33651 9.2688,12.66701 14.0354,18.90243 5.1872,6.76937 10.4972,13.4584 16.388,19.63706 5.9701,6.28597 12.1861,12.32415 18.4937,18.27059 7.1772,6.81163 14.3538,13.62481 21.6509,20.30838 7.9628,7.17525 16.1241,14.13159 24.916,20.28607 8.7693,6.16055 17.8168,11.90434 27.3082,16.89975 26.0088,-4.16131 0,0 8.4922,-15.74561 z"
         id="path5080-9"
         style="fill:#000000;fill-opacity:1;stroke:none;stroke-width:4.69999981;stroke-linejoin:round;stroke-miterlimit:4;stroke-dasharray:none;stroke-opacity:1" />
      <path
         sodipodi:nodetypes="ccccccccccccccccccccccccccccccccccccccccccccccccccccccccccccccccccccccccccccccc"
         inkscape:connector-curvature="0"
         d="m 1978.4245,761.90025 c -3.6461,-1.99939 -7.2737,-4.03367 -10.9341,-6.00692 -3.8431,-2.07295 -7.6993,-4.12135 -11.5137,-6.24688 -3.8992,-2.15829 -7.7543,-4.39878 -11.5438,-6.74467 -3.9318,-2.40535 -7.7934,-4.92252 -11.6724,-7.41144 -3.8331,-2.4563 -7.5284,-5.11466 -11.229,-7.76326 -3.6847,-2.65246 -7.3742,-5.29816 -11.1324,-7.84559 -3.7061,-2.4516 -7.4165,-4.89746 -11.1678,-7.27943 -3.5424,-2.22799 -7.1015,-4.43065 -10.7037,-6.56094 -3.3034,-1.89497 -6.593,-3.80684 -9.822,-5.82631 -3.1645,-1.96755 -6.4006,-3.81538 -9.6405,-5.65496 -3.2021,-1.82756 -6.5337,-3.41049 -9.8431,-5.03053 -3.2622,-1.61488 -6.6432,-2.96021 -10.0304,-4.28404 -3.2341,-1.19583 -6.436,-2.47594 -9.6663,-3.68234 -3.0355,-1.25961 -6.1064,-2.42604 -9.2058,-3.51789 -3.0728,-1.11374 -6.1931,-2.08253 -9.3357,-2.97717 -3.0799,-0.86031 -6.1987,-1.56604 -9.3262,-2.22759 -2.9085,-0.61706 -5.8397,-1.11683 -8.7744,-1.58987 -2.6758,-0.42536 -5.3608,-0.79031 -8.0473,-1.14036 -2.4829,-0.31486 -4.9691,-0.60626 -7.4634,-0.81389 -2.5877,-0.23413 -5.1803,-0.18429 -7.7632,0.0609 -2.3504,0.27955 -4.6648,0.76201 -6.9577,1.33949 -2.5932,0.60599 -5.0045,1.70785 -7.3366,2.96585 -2.318,1.22982 -4.2818,2.97045 -6.361,4.54248 -1.5673,1.24417 -3.2273,2.36094 -4.8086,3.5865 -1.3328,1.05508 -2.739,2.0116 -4.1093,3.01646 -1.3244,0.95171 -2.6481,1.90422 -3.9766,2.85009 -1.2633,0.94319 -2.5513,1.85273 -3.8487,2.74839 -1.3299,0.84714 -2.6705,1.67095 -3.9518,2.59102 -1.0945,0.87944 -2.2068,1.72929 -3.3393,2.55861 -0.974,0.69928 -2.003,1.31794 -3.021,1.95031 -1.3295,0.78188 -2.6505,1.56989 -3.9129,2.4562 -0.9961,0.75269 -2.0361,1.44207 -3.0774,2.12984 -0.995,0.67463 -2.0705,1.21475 -3.1168,1.80299 -1.1875,0.73825 -2.4474,1.344 -3.672,2.01555 -1.2483,0.67025 -2.4777,1.3756 -3.735,2.02915 -1.0071,0.49248 -2.0288,0.95707 -3.0675,1.37907 -0.6078,0.24282 -1.2343,0.43301 -1.8592,0.62575 l 4.7216,15.16352 0,0 c 1.0706,-0.33571 2.1417,-0.6737 3.1813,-1.09871 1.4859,-0.61562 2.9494,-1.28579 4.3862,-2.00881 1.3606,-0.71592 2.6973,-1.47563 4.052,-2.20245 1.2611,-0.70888 2.586,-1.30338 3.8095,-2.08068 1.3619,-0.77568 2.7631,-1.48635 4.0529,-2.38263 1.2531,-0.82871 2.5047,-1.66008 3.7131,-2.55362 0.897,-0.63463 1.9504,-1.19644 2.9107,-1.79326 1.3606,-0.84732 2.7291,-1.68614 4.024,-2.63281 1.15,-0.84547 2.2919,-1.69798 3.3972,-2.60111 1.0437,-0.94154 2.4723,-1.42003 3.5521,-2.31991 1.347,-0.94035 2.6925,-1.88387 4.0068,-2.86947 1.3931,-0.99508 2.7844,-1.99246 4.1695,-2.99853 1.4885,-1.1034 3.0262,-2.14101 4.4701,-3.30388 1.52,-1.20901 3.1539,-2.2674 4.6555,-3.50133 1.4013,-1.08138 2.7279,-2.26915 4.2533,-3.17742 1.1877,-0.63836 2.3821,-1.25555 3.7144,-1.54063 1.539,-0.39012 3.0855,-0.73274 4.6604,-0.94892 1.6414,-0.18228 3.2931,-0.17923 4.9396,-0.0488 2.2404,0.16371 4.4698,0.45155 6.7001,0.71554 2.5265,0.31874 5.0517,0.64971 7.5676,1.04552 2.6841,0.42547 5.364,0.88021 8.0248,1.4356 2.7746,0.57902 5.5415,1.19905 8.2736,1.95718 2.8382,0.80079 5.654,1.67721 8.4271,2.68301 3.008,1.04732 5.9777,2.19336 8.9276,3.39475 3.1567,1.17053 6.2811,2.42533 9.4371,3.59795 2.9862,1.16214 5.973,2.32929 8.849,3.74968 3.0237,1.47445 6.0644,2.92068 8.9926,4.58022 3.0548,1.72978 6.109,3.46162 9.0957,5.30751 3.3433,2.07412 6.7366,4.05935 10.1561,6.00515 3.4678,2.03911 6.8894,4.15589 10.3028,6.28439 3.6216,2.28121 7.185,4.6527 10.7632,7.00113 3.6558,2.47512 7.2441,5.0475 10.8337,7.61728 3.9114,2.77932 7.7985,5.59619 11.8507,8.16998 3.9532,2.55179 7.8976,5.11855 11.9087,7.57897 3.9917,2.46026 8.0398,4.8296 12.1404,7.10395 3.8767,2.16269 7.7918,4.25523 11.6931,6.37321 3.6703,1.98111 7.3039,4.0306 10.9651,6.02878 3.7531,2.01182 7.4864,4.0656 11.32,5.92185 -11.32,-5.92185 -3.9326,-19.69677 -3.9326,-19.69677 z"
         id="path5082-2"
         style="fill:#000000;fill-opacity:1;stroke:none;stroke-width:4.69999981;stroke-linejoin:round;stroke-miterlimit:4;stroke-dasharray:none;stroke-opacity:1" />
      <path
         sodipodi:nodetypes="cccccccccccccccccccccccccccccccccccccccccccccccccccccccccccccccccccccccccccccccccccccccccccccccccccccccccccccccccccccccccccccccccccccccccccccccccccccccccccc"
         inkscape:connector-curvature="0"
         d="m 1758.7686,945.7633 c 2.8093,-0.34167 5.6081,-0.71498 8.3819,-1.36449 6.3971,-1.56079 12.6551,-3.82855 18.8892,-6.13972 8.9275,-3.30866 17.7804,-6.89751 26.5668,-10.71927 9.5304,-4.24358 18.988,-8.72564 28.339,-13.51991 9.6395,-5.06804 18.9472,-11.00771 28.1823,-17.06681 8.8505,-5.69791 17.3162,-12.17978 25.5105,-19.15889 8.1992,-6.9534 15.7868,-14.84754 23.202,-22.96865 7.1749,-7.9624 14.1927,-16.12849 21.2069,-24.29761 6.0343,-7.0116 12.028,-14.07194 17.753,-21.45685 5.4646,-6.93667 10.3792,-14.45483 15.1832,-22.06331 4.6624,-7.42665 1.1766,-12.98543 5.6879,-20.54696 4.0424,-6.74793 16.1673,-15.4223 20.3493,-22.04369 3.7373,-6.08251 7.6575,-11.99254 11.5904,-17.88912 3.7129,-5.47183 7.611,-10.75234 11.3826,-16.16367 3.6844,-5.2954 7.1516,-10.8031 10.5117,-16.40416 3.372,-5.57949 6.4948,-11.37011 9.6931,-17.09546 2.9506,-5.35291 5.9092,-10.69856 8.8095,-16.09179 2.7575,-5.08756 5.4819,-10.20038 8.3137,-15.22801 2.718,-4.90237 5.6404,-9.6293 8.6896,-14.2341 2.7971,-4.16742 5.7921,-8.12933 8.7897,-12.08353 2.8421,-3.70546 5.8142,-7.25962 8.766,-10.83542 2.8803,-3.48072 5.7635,-6.95787 8.6424,-10.44022 2.8037,-3.39959 5.579,-6.82965 8.2682,-10.36253 2.7733,-3.66801 5.5568,-7.32443 8.3488,-10.97141 4.0185,-5.25201 8.7896,-9.55568 13.4472,-13.9275 5.1822,-4.68199 10.1261,-9.72728 15.0026,-14.86392 5.2146,-5.70048 10.3587,-11.49438 15.6218,-17.12952 5.8277,-6.27341 11.9145,-12.17316 18.0766,-17.95246 5.7341,-5.41547 11.5852,-10.64447 17.3641,-15.98854 5.4488,-4.97921 10.8355,-10.05714 16.2472,-15.09513 5.824,-5.46365 11.6525,-10.91717 17.6243,-16.14213 5.837,-5.11077 11.8256,-9.956 17.8763,-14.68463 5.7781,-4.44485 11.838,-8.31859 17.9075,-12.13821 6.0532,-3.75029 12.2289,-7.18705 18.4967,-10.37308 6.0217,-3.042 12.1748,-5.66431 18.3656,-8.1467 5.6687,-2.25898 11.4227,-4.17112 17.21,-5.92389 5.4564,-1.62434 10.9617,-2.98467 16.4799,-4.25804 4.936,-1.13526 9.8924,-2.13296 14.8568,-3.06586 4.5024,-0.8636 9.0239,-1.5609 13.55,-2.21146 4.5231,-0.67555 9.0551,-1.18972 13.6112,-1.33717 4.6442,-0.12642 9.222,0.65115 13.7454,1.84672 4.2044,1.18232 8.2477,3.0126 12.2287,5.00491 3.6979,1.92783 7.3001,4.10082 10.8543,6.38728 3.2479,2.19322 6.5102,4.35381 9.7339,6.59895 3.0214,2.24254 6.0352,4.50288 9.0219,6.81256 2.8174,2.23907 5.5784,4.5871 8.299,6.99575 2.7663,2.41074 5.3966,5.03585 8.0536,7.61749 2.6727,2.59903 5.3431,5.18905 7.8772,7.98673 2.3484,2.53076 4.6033,5.18611 6.8744,7.81784 2.1394,2.44408 4.213,4.97125 6.3309,7.44248 2.0163,2.3664 3.9857,4.79036 5.9727,7.19255 1.6416,2.09712 3.4185,4.02289 5.2257,5.90503 1.5802,1.70655 3.4166,2.98934 5.2114,4.32489 2.1499,1.58759 4.4138,2.92898 6.6714,4.27279 2.1086,1.26267 4.3033,2.28883 6.5222,3.2248 2.5134,1.02957 5.008,2.11899 7.5421,3.07327 2.4211,0.89987 4.8848,1.61127 7.3572,2.26779 2.5458,0.67328 5.1148,1.20281 7.6879,1.6956 2.6002,0.49165 5.2119,0.88526 7.8261,1.24857 2.6371,0.36325 5.2818,0.63463 7.9257,0.91176 2.6053,0.26936 5.2144,0.47715 7.8241,0.67094 2.6956,0.19407 5.3931,0.34734 8.0909,0.4873 2.8047,0.15452 5.6117,0.23529 8.4162,0.39273 2.9436,0.12398 5.8697,0.53281 8.784,1.03167 2.6927,0.44498 5.3556,1.10183 8.0169,1.75982 2.5755,0.73191 5.1271,1.58112 7.6603,2.50325 2.2879,0.85433 4.5227,1.90403 6.7776,2.87772 2.3104,0.92622 4.596,1.93893 6.866,3.00192 2.1218,0.99165 4.2153,2.06867 6.3252,3.09644 2.267,1.12365 4.4767,2.40634 6.6644,3.73845 1.962,1.2312 3.9576,2.3787 5.9512,3.53161 2.3482,1.31741 4.7199,2.57473 7.1172,3.7555 2.7025,1.19439 5.3782,2.45839 8.0053,3.87902 2.8438,1.48583 5.4158,3.53589 7.8213,5.87826 2.2589,2.24939 4.1292,4.9763 5.8649,7.80873 1.3609,2.18013 2.4838,4.55133 3.6407,6.89181 1.0812,2.28309 2.3769,4.38395 3.7125,6.45284 -8.8429,22.63547 -19.8201,5.2853 -19.8201,5.2853 -0.8603,-1.73113 -1.6719,-3.50276 -2.6607,-5.13407 -0.7825,-1.31283 -1.602,-2.61103 -2.6123,-3.68159 -1.1114,-1.14832 -2.3264,-2.08881 -3.6712,-2.79693 -2.3776,-1.32736 -4.8125,-2.48147 -7.2697,-3.57518 -2.745,-1.33497 -5.4658,-2.74393 -8.1593,-4.22518 -2.1396,-1.22359 -4.2821,-2.44049 -6.3825,-3.7613 -1.7109,-1.05705 -3.4555,-2.03325 -5.2224,-2.94464 -2.0407,-1.00142 -4.0684,-2.04085 -6.1205,-3.00796 -2.076,-0.99454 -4.1768,-1.90624 -6.2978,-2.7488 -1.994,-0.84699 -3.9654,-1.7745 -5.9755,-2.56006 -1.9795,-0.73883 -3.9812,-1.38124 -5.9873,-2.00476 -2.2922,-0.57544 -4.5824,-1.17299 -6.9054,-1.5416 -2.3349,-0.41539 -4.6788,-0.75826 -7.0394,-0.85426 -2.7669,-0.17616 -5.5385,-0.2242 -8.3061,-0.38481 -2.803,-0.1478 -5.6056,-0.30516 -8.4064,-0.50531 -2.7695,-0.198 -5.5381,-0.41879 -8.3026,-0.70298 -2.8165,-0.29103 -5.6304,-0.62244 -8.4407,-0.98993 -2.8907,-0.39633 -5.7768,-0.84067 -8.6515,-1.38358 -2.933,-0.56999 -5.863,-1.17159 -8.7646,-1.94736 -2.9935,-0.80109 -5.9766,-1.66673 -8.9078,-2.76201 -2.7326,-1.03614 -5.4306,-2.18962 -8.1402,-3.30885 -2.9333,-1.24443 -5.8329,-2.61293 -8.6188,-4.29088 -2.7617,-1.6517 -5.519,-3.32544 -8.1539,-5.26293 -2.6699,-1.96373 -5.3491,-3.93991 -7.686,-6.47596 -2.1549,-2.25314 -4.268,-4.5677 -6.2339,-7.0654 -1.9057,-2.31306 -3.8004,-4.63974 -5.7243,-6.93056 -2.1007,-2.46198 -4.1662,-4.96808 -6.2819,-7.41112 -2.1572,-2.51872 -4.3164,-5.03836 -6.5486,-7.45948 -2.2211,-2.4793 -4.5832,-4.74618 -6.9365,-7.03748 -2.4422,-2.37165 -4.8496,-4.79863 -7.4021,-6.99748 -2.4153,-2.14192 -4.8683,-4.22799 -7.3645,-6.22821 -2.7166,-2.13051 -5.4714,-4.19125 -8.2145,-6.27125 -3.052,-2.12275 -6.134,-4.17994 -9.2085,-6.25433 -3.0176,-1.95346 -6.0716,-3.81957 -9.2122,-5.46834 -2.9838,-1.49649 -6.0022,-2.90696 -9.1469,-3.8331 -3.0644,-0.84114 -6.1585,-1.40666 -9.3128,-1.34883 -3.972,0.0777 -7.9174,0.56911 -11.8599,1.14549 -4.312,0.60798 -8.6171,1.28604 -12.9101,2.06903 -4.7563,0.87238 -9.5064,1.79597 -14.2366,2.85891 -5.1747,1.17495 -10.3381,2.43033 -15.454,3.94255 -5.356,1.61168 -10.6832,3.36359 -15.9351,5.42461 -5.7336,2.25946 -11.4299,4.66286 -17.002,7.4621 -5.8121,2.9606 -11.5539,6.11238 -17.1582,9.61853 -5.5735,3.49319 -11.1377,7.03603 -16.4525,11.0876 -5.7924,4.48478 -11.5346,9.06668 -17.1096,13.9429 -5.8281,5.07623 -11.4727,10.44192 -17.1339,15.78641 -5.4371,5.07038 -10.8508,10.17842 -16.3397,15.16616 -5.7571,5.27355 -11.5725,10.4536 -17.2813,15.80478 -5.8446,5.47049 -11.6189,11.05304 -17.1109,17.04307 -5.2864,5.69865 -10.454,11.55501 -15.7154,17.28729 -5.1145,5.41216 -10.2954,10.73535 -15.7075,15.70907 -3.8596,3.6794 -7.8668,7.22098 -11.1387,11.69821 -2.7857,3.63225 -5.555,7.28288 -8.32,10.93835 -2.8659,3.74817 -5.8057,7.40829 -8.7895,11.01878 -2.8781,3.47599 -5.7535,6.95543 -8.6293,10.4342 -2.7699,3.34946 -5.554,6.68446 -8.2325,10.14225 -2.7282,3.58593 -5.4578,7.17425 -8.0207,10.93745 -2.7623,4.13463 -5.4066,8.38454 -7.8579,12.80003 -2.7695,4.88998 -5.4292,9.86808 -8.1293,14.81434 -2.9731,5.48821 -6,10.93195 -9.0295,16.37467 -3.3288,5.92483 -6.5752,11.92043 -10.0772,17.69942 -3.6368,6.01408 -7.3538,11.95849 -11.3019,17.67964 -3.6956,5.28699 -7.516,10.44393 -11.1646,15.77955 -3.8484,5.73407 -7.6823,11.48299 -11.3339,17.40512 -4.1063,6.43941 -8.1604,12.92774 -12.1312,19.49111 -4.6306,7.68265 -9.2688,15.35806 -14.0354,22.9183 -5.1872,8.20743 -10.4972,16.31763 -16.388,23.80887 -5.9701,7.62146 -12.1861,14.94248 -18.4937,22.15219 -7.1772,8.25872 -14.3538,16.51939 -21.6509,24.62292 -7.9628,8.69957 -16.1241,17.13385 -24.916,24.59587 -8.7693,7.4693 -17.8169,14.43337 -27.3083,20.49004 -9.7399,6.34875 -19.5617,12.55165 -29.6997,17.9228 -9.6513,4.97323 -19.3932,9.68529 -29.2376,14.06987 -9.0132,3.93501 -18.0929,7.63432 -27.2111,11.19601 -6.7919,2.6509 -13.6117,5.2259 -20.5787,7.12605 -2.8987,0.75912 -5.8155,1.38522 -8.7359,1.99982 z"
         id="path5080-2"
         style="fill:#000000;fill-opacity:1;stroke:none;stroke-width:4.69999981;stroke-linejoin:round;stroke-miterlimit:4;stroke-dasharray:none;stroke-opacity:1" />
      <path
         inkscape:connector-curvature="0"
         d="m 2641.6483,548.44802 c 0.7822,1.14333 1.4371,2.45771 2.028,3.6391 0.8082,1.46585 1.5422,2.97024 2.2591,4.48226 0.6818,1.63527 1.4826,3.21392 2.1956,4.8353 0.869,1.89015 1.5837,3.84166 2.279,5.80027 0.6602,1.75763 1.1602,3.57857 1.8609,5.32044 0.6991,1.77997 1.3942,3.56073 2.1213,5.3294 0.6247,1.65128 1.5128,3.18073 2.3777,4.71348 1.0017,1.70794 2.1261,3.3381 3.2581,4.96101 1.148,1.52118 2.3255,3.02831 3.5742,4.46934 1.26,1.35948 2.4667,2.77321 3.8234,4.03929 1.5848,1.45241 3.1176,2.95935 4.6652,4.45105 1.452,1.42966 2.9131,2.84982 4.3509,4.29388 1.4557,1.44905 2.7974,2.99804 4.1146,4.57171 1.4138,1.69148 2.6859,3.49092 3.8695,5.34857 1.286,2.12823 2.4269,4.34114 3.5147,6.57586 1.1696,2.39695 2.1255,4.88542 3.1125,7.36009 0.9742,2.33445 1.7531,4.74539 2.7289,7.07861 1.0349,2.40369 1.9894,4.8407 2.8969,7.295 0.9962,2.30914 1.8294,4.68139 2.7081,7.03599 0.8906,2.40139 1.6789,4.83863 2.5274,7.25463 0.9009,2.54274 1.7608,5.09962 2.6555,7.64455 0.9939,2.90628 1.9063,5.84065 2.7798,8.78523 0.9499,2.99896 1.8238,6.01952 2.6287,9.06039 0.7479,2.93305 1.5433,5.85211 2.3485,8.76984 0.8208,3.03517 1.5738,6.08908 2.2985,9.14857 0.5831,2.75837 1.3959,5.45826 2.2308,8.14835 1.0626,3.35845 2.0641,6.73562 3.089,10.10582 1.2628,3.84882 2.3614,7.74798 3.535,11.62409 1.2391,4.09063 2.5673,8.1535 3.8985,12.21489 1.5318,4.59534 2.867,9.25129 4.1285,13.92693 1.3552,4.92448 2.5636,9.88735 3.8294,14.83522 1.2906,5.00402 2.4571,10.03806 3.5626,15.08575 1.0007,4.51574 1.8303,9.0663 2.6317,13.62078 0.718,4.12311 1.3267,8.26372 1.9011,12.4089 0.5233,3.82851 0.9591,7.66793 1.3701,11.50986 0.3735,3.5817 0.6968,7.16824 0.9872,10.75754 0.2818,3.72337 0.485,7.45215 0.6916,11.18028 0.1931,3.59602 0.3642,7.19313 0.5148,10.79117 0.144,3.41846 0.2637,6.8379 0.3704,10.25771 0.1055,3.29443 0.1868,6.58955 0.2698,9.8846 0.023,2.96873 0.1697,5.93151 0.3821,8.89182 0.1658,2.04426 0.6784,4.02258 1.3101,5.96498 0.7762,2.53033 1.8983,4.9295 2.96,7.34726 1.3552,2.85427 2.6052,5.75642 3.9058,8.63547 1.3928,3.01341 2.7185,6.05632 3.9901,9.12264 1.2297,2.71143 2.4443,5.42941 3.6674,8.1438 1.21,2.73575 2.4209,5.47047 3.6736,8.18707 1.2912,2.80876 2.5515,5.63193 3.786,8.46612 1.1575,2.6873 2.2965,5.38053 3.4975,8.04894 1.1375,2.67818 2.3611,5.31763 3.5327,7.98094 1.1168,2.63532 2.3679,5.21036 3.5667,7.80872 1.3451,2.7838 2.626,5.59746 3.8435,8.43923 1.1037,2.54963 2.3337,5.03876 3.5838,7.5188 1.2224,2.42526 2.6432,4.74095 4.1052,7.02711 1.2345,2.17228 2.7929,4.11916 4.3407,6.06965 1.638,1.93882 3.2236,3.92033 4.8394,5.87728 1.7699,2.1373 3.5259,4.2843 5.201,6.497 1.5677,2.0456 3.095,4.1231 4.5727,6.2347 1.1612,1.6109 2.2672,3.2632 3.5011,4.8203 1.1224,1.4302 2.2671,2.8439 3.4438,4.2299 1.1516,1.3475 2.3918,2.6149 3.5752,3.9339 1.2017,1.3216 2.5335,2.5149 3.8259,3.7457 1.5689,1.4667 3.2229,2.8345 4.8674,4.2143 1.5,1.3062 3.1167,2.4547 4.7353,3.6051 1.5055,1.0647 2.9979,2.1438 4.5756,3.0999 1.5087,0.9135 3.063,1.7431 4.6131,2.5826 1.4615,0.7914 2.9617,1.5095 4.466,2.2155 1.5963,0.7749 3.1738,1.5882 4.7722,2.3588 1.5007,0.7636 3.015,1.4995 4.5193,2.2559 1.1559,0.6145 0.6221,0.3296 1.6018,0.8537 0,0 -9.8281,18.3535 -9.8281,18.3535 l 0,0 c -0.8464,-0.4536 -0.4675,-0.2472 -1.1383,-0.6164 -1.4075,-0.7102 -2.8219,-1.4062 -4.224,-2.1272 -1.5384,-0.7479 -3.0629,-1.5241 -4.5931,-2.2886 -1.8555,-0.8842 -3.7139,-1.7664 -5.5159,-2.7566 -1.8606,-1.021 -3.7283,-2.0275 -5.5393,-3.1363 -1.9759,-1.2229 -3.8798,-2.5474 -5.7611,-3.9106 -2.0582,-1.4761 -4.1047,-2.9653 -6.0223,-4.624 -1.9473,-1.64 -3.9017,-3.2708 -5.766,-5.0061 -1.7334,-1.6212 -3.5073,-3.205 -5.0886,-4.9797 -1.3059,-1.4774 -2.7162,-2.863 -3.9706,-4.3871 -1.339,-1.5991 -2.6545,-3.2185 -3.932,-4.8672 -1.4384,-1.8676 -2.7855,-3.8011 -4.135,-5.7335 -1.3147,-1.9062 -2.6864,-3.7737 -4.0853,-5.6188 -1.4747,-1.9712 -3.0605,-3.8528 -4.6193,-5.7575 -1.714,-2.0694 -3.3931,-4.1675 -5.1079,-6.2364 -1.9887,-2.5196 -3.9496,-5.0675 -5.5686,-7.84718 -1.8059,-2.87075 -3.5731,-5.76986 -5.1099,-8.79594 -1.4415,-2.86777 -2.8498,-5.75177 -4.128,-8.69689 -1.1333,-2.66694 -2.3495,-5.2974 -3.6137,-7.90478 -1.2416,-2.70077 -2.5487,-5.37228 -3.71,-8.10924 -1.1585,-2.61824 -2.3479,-5.22249 -3.4705,-7.85635 -1.2325,-2.74782 -2.4008,-5.52161 -3.5902,-8.28795 -1.1694,-2.69973 -2.3794,-5.38217 -3.6081,-8.05529 -1.2699,-2.76189 -2.498,-5.54146 -3.7237,-8.32316 -1.3187,-2.90984 -2.6186,-5.82846 -3.9136,-8.74895 -1.1843,-2.86038 -2.4211,-5.69787 -3.7208,-8.50785 -1.3346,-2.9385 -2.6072,-5.90526 -3.9978,-8.81838 -1.362,-3.07238 -2.7699,-6.13271 -3.7556,-9.35372 -1.1244,-3.52434 -1.9795,-7.12789 -2.2306,-10.83134 -0.2289,-3.28366 -0.3735,-6.57133 -0.4088,-9.8632 -0.071,-3.24289 -0.1519,-6.48553 -0.2488,-9.72775 -0.104,-3.34898 -0.2126,-6.69784 -0.3474,-10.04576 -0.1441,-3.51056 -0.2934,-7.02098 -0.4786,-10.52965 -0.1884,-3.54954 -0.3937,-7.09845 -0.6835,-10.64141 -0.2742,-3.42206 -0.5656,-6.8429 -0.916,-10.25812 -0.3757,-3.63372 -0.7814,-7.26452 -1.2642,-10.88575 -0.524,-3.90477 -1.087,-7.80451 -1.7452,-11.68921 -0.7282,-4.28083 -1.5023,-8.55403 -2.4131,-12.80037 -1.021,-4.79481 -2.103,-9.57689 -3.3251,-14.32498 -1.2569,-4.86128 -2.4664,-9.7355 -3.8262,-14.56937 -1.1713,-4.31148 -2.3956,-8.61009 -3.8198,-12.84603 -1.4009,-4.20341 -2.8049,-8.40686 -4.0865,-12.64854 -1.1877,-3.86034 -2.2716,-7.75275 -3.5679,-11.5793 -1.0356,-3.33924 -2.0611,-6.68161 -3.1418,-10.00658 -0.981,-3.1417 -1.9226,-6.29955 -2.6156,-9.5196 -0.6694,-2.81999 -1.3636,-5.63485 -2.1107,-8.43527 -0.8209,-2.99136 -1.6422,-5.98163 -2.4102,-8.98715 -0.7438,-2.83843 -1.5685,-5.65347 -2.4739,-8.44485 -0.7725,-2.60538 -1.574,-5.20372 -2.4575,-7.77378 -0.9036,-2.54377 -1.7907,-5.09307 -2.687,-7.6394 -0.8215,-2.31728 -1.5854,-4.65484 -2.4328,-6.96316 -0.8677,-2.36416 -1.7286,-4.72959 -2.7086,-7.05069 -0.8208,-2.229 -1.7087,-4.4325 -2.6351,-6.61964 -0.9639,-2.38448 -1.8093,-4.8136 -2.7767,-7.19672 -0.8157,-2.01492 -1.5821,-4.05076 -2.5395,-6.00531 -0.7529,-1.54309 -1.5717,-3.05399 -2.4346,-4.53825 -0.685,-1.09894 -1.474,-2.12974 -2.2822,-3.14026 -0.9403,-1.12997 -1.8822,-2.25406 -2.9279,-3.29084 -1.3188,-1.34665 -2.6718,-2.65862 -4.0073,-3.98862 -1.5115,-1.46931 -3.0135,-2.94784 -4.566,-4.37423 -1.8332,-1.77338 -3.5602,-3.64892 -5.2525,-5.5568 -1.6738,-1.97462 -3.2995,-3.99674 -4.817,-6.09406 -1.4953,-2.15079 -2.9788,-4.31272 -4.2788,-6.58969 -1.3025,-2.2895 -2.5946,-4.59283 -3.5571,-7.05172 -0.7886,-1.92699 -1.5541,-3.86298 -2.3135,-5.80167 -0.7089,-1.89551 -1.348,-3.81591 -2.0161,-5.72615 -0.5419,-1.50156 -1.0796,-3.00527 -1.766,-4.44917 -0.6227,-1.42822 -1.3563,-2.80624 -1.946,-4.24947 -0.5373,-1.12418 -1.086,-2.24277 -1.7116,-3.32105 -0.4923,-0.91667 -1.0003,-1.88602 -0.8253,-1.56277 0,0 17.0478,-12.17702 17.0478,-12.17702 z"
         id="path5133"
         style="fill:#000000;fill-opacity:1;stroke:none;stroke-width:4.69999981;stroke-linejoin:round;stroke-miterlimit:4;stroke-dasharray:none;stroke-opacity:1" />
    </g>
    <rect
       style="fill:#000000;fill-opacity:1;stroke:none;stroke-width:4.69999981;stroke-linejoin:round;stroke-miterlimit:4;stroke-dasharray:none;stroke-opacity:1"
       id="rect5237"
       width="2850"
       height="18"
       x="1.9998779"
       y="1058.3622" />
    <path
       style="fill:url(#linearGradient5247);fill-opacity:1;stroke:none;stroke-width:4.69999981;stroke-linejoin:round;stroke-miterlimit:4;stroke-dasharray:none;stroke-opacity:1"
       d="m 222.89376,704.07152 c 29.0999,-10.23192 71.46338,-30.82746 89.80819,-43.66138 15.64851,-10.9476 59.22429,-50.39948 70.94211,-64.22834 4.70996,-5.55848 17.4241,-21.80634 28.25366,-36.10634 10.82956,-14.3 24.9212,-32.22688 31.31478,-39.83752 6.39358,-7.61062 19.89204,-26.06062 29.99656,-41 28.83982,-42.63918 78.89062,-90.81624 149.3213,-143.7312 49.14858,-36.9256 78.00898,-50.96548 121.51124,-59.11222 31.13694,-5.83107 40.7314,-6.07913 53.26668,-1.37718 16.92526,6.34862 38.39232,21.20186 60.0268,41.5331 28.74782,27.01606 43.84372,33.0041 92.41768,36.65902 29.67496,2.23288 40.33688,5.07192 69.30814,18.45518 12.244,5.6561 16.5139,8.88102 22.1549,16.73296 7.2285,10.06152 51.6796,47.48358 82.8662,69.76256 23.7761,16.98514 47.9296,29.40754 69.8118,35.9051 68.7317,20.4087 99.3096,29.79066 108.0386,33.14852 5.5213,2.12392 11.0617,3.86168 12.312,3.86168 1.2503,0 3.6565,-4.0594 5.3471,-9.0209 l 3.0737,-9.02092 -7.3857,-3.20584 c -7.594,-3.29622 -33.4044,-11.21248 -94.1803,-28.8858 -39.2272,-11.40708 -56.8852,-19.5584 -83.9191,-38.7388 -37.456,-26.5748 -62.8688,-48.56352 -88.3251,-76.42414 -4.4113,-4.82784 -10.944,-9.08514 -17.5,-11.40446 -9.6864,-3.42674 -13.8276,-7.24464 -7.9612,-7.33962 10.0194,-0.1622 85.5726,-58.6985 100.23,-77.65515 7.6254,-9.86205 10.1071,-11.46883 31.8416,-20.61651 24.5059,-10.31413 38.5997,-13.65663 57.6664,-13.67628 18.9924,-0.0196 45.7277,-5.64068 60.762,-12.77522 9.9057,-4.70078 19.628,-11.88797 33.2446,-24.57608 19.8771,-18.52166 32.7908,-27.97778 51.7554,-37.8981 9.803,-5.12796 12.8498,-5.72326 28,-5.47086 16.8376,0.2805 47.706,5.78462 67,11.94669 24.4001,7.79288 50.197,22.72346 86.0065,49.77839 19.7964,14.95664 41.8068,32.32157 48.912,38.58874 7.1051,6.26717 18.8051,16.36091 26,22.43054 25.9082,21.85642 58.8319,58.2153 76.0882,84.02686 9.1695,13.7156 24.0123,33.93746 32.984,44.93746 8.9716,11 24.7436,31.25 35.0487,45 25.7549,34.36448 69.9045,76.96442 98.457,95.00108 5.223,3.2994 9.4951,6.44892 9.4935,6.99892 -0.01,2.008 -34.4923,20.67028 -55.6108,30.09376 -11.9301,5.32344 -28.5959,11.71042 -37.0351,14.19328 -16.7098,4.9161 -16.6118,4.77376 -14.033,20.38132 1.2455,7.53822 1.3869,7.64588 8.3319,6.34298 9.4522,-1.77324 42.6533,-15.0639 67.5715,-27.04944 25.0823,-12.06444 57.4091,-33.53004 75.5246,-50.14968 23.6253,-21.67462 62.9542,-69.41012 80.0589,-97.17164 8.6888,-14.10232 25.0325,-39.59058 36.3193,-56.64058 11.2868,-17.05 27.4728,-43.5924 35.9688,-58.9831 17.025,-30.84094 17.5804,-31.65146 45.2376,-66.01068 21.4401,-26.63558 80.7326,-87.65466 114.6764,-118.01577 45.0418,-40.28776 78.999,-56.966601 132.7258,-65.191249 20.0874,-3.075019 26.5724,-1.396306 46.6882,12.085711 12.9944,8.709178 26.7962,21.921338 58.1192,55.636008 17.1432,18.45219 40.764,27.02119 83.4668,30.27956 l 25,1.90758 26.6592,13.64763 26.6594,13.64763 4.5464,13.0011 c 7.0826,20.25359 12.7548,29.93845 25.1586,42.95521 6.3102,6.6222 12.9838,15.01223 14.83,18.64449 6.1514,12.10212 16.9734,42.2167 22.2522,61.92182 2.8694,10.71074 8.708,30.72406 12.9748,44.47406 15.8614,51.11546 19.3294,71.17266 23.5138,136 l 1.6138,25 17.6536,40 c 9.7094,22 19.8864,44.5 22.6154,50 7.3352,14.78262 37.5734,53.72528 48.0614,61.89638 l 9.1178,7.10362 -1313.8282,-0.1068 -1313.82824,-0.1068 25,-8.79034 z"
       id="path5239"
       inkscape:connector-curvature="0"
       transform="translate(-1.2207031e-4,343.70079)" />
    <path
       style="fill:url(#linearGradient5275);fill-opacity:1;stroke:none;stroke-width:4.69999981;stroke-linejoin:round;stroke-miterlimit:4;stroke-dasharray:none;stroke-opacity:1"
       d="m 63.363143,698.92938 c 14.292126,-7.78034 37.685687,-22.04109 51.985687,-31.69056 14.3,-9.64947 33.2,-21.64453 42,-26.65568 32.62509,-18.57832 79.74224,-31.52412 91.75172,-25.20949 10.79728,5.67725 45.02408,30.79487 44.56146,32.70181 -0.26684,1.1 -13.04648,8.34713 -28.39918,16.10475 -26.59204,13.43677 -69.66034,29.47955 -87.57414,32.62104 -8.07917,1.41682 -8.33273,1.69403 -8.11174,8.86837 l 0.22813,7.40584 -66.21381,0 -66.213808,0 25.985681,-14.14608 z"
       id="path5267"
       inkscape:connector-curvature="0"
       transform="translate(-1.2207031e-4,343.70079)" />
    <path
       style="fill:url(#linearGradient5285);fill-opacity:1;stroke:none;stroke-width:4.69999981;stroke-linejoin:round;stroke-miterlimit:4;stroke-dasharray:none;stroke-opacity:1"
       d="m 1867.8796,529.27276 c -16.6891,-10.95627 -59.9796,-49.75798 -74.0506,-66.37241 -5.0423,-5.95369 -15.7523,-19.82489 -23.8001,-30.82489 -8.0479,-11 -20.7974,-27.37145 -28.3323,-36.38099 -7.5349,-9.00954 -13.6998,-17.14049 -13.6998,-18.06878 0,-0.92829 2.5874,-3.21625 5.7499,-5.08435 3.1624,-1.86811 14.086,-9.38229 24.2745,-16.69819 l 18.5247,-13.30163 15.2735,1.04687 c 31.4679,2.15686 64.058,16.64396 118.1774,52.53282 17.05,11.30658 38.2,24.52896 47,29.38308 10.0368,5.53635 15.9109,9.99623 15.7609,11.96644 -0.8983,11.79816 -77.8106,101.60473 -87.0166,101.60473 -1.6112,0 -9.6489,-4.41122 -17.8615,-9.8027 z"
       id="path5277"
       inkscape:connector-curvature="0"
       transform="translate(-1.2207031e-4,343.70079)" />
    <path
       transform="translate(-1.2207031e-4,343.70079)"
       inkscape:connector-curvature="0"
       id="path5287"
       d="m 1867.8796,529.27276 c -16.6891,-10.95627 -59.9796,-49.75798 -74.0506,-66.37241 -5.0423,-5.95369 -15.7523,-19.82489 -23.8001,-30.82489 -8.0479,-11 -20.7974,-27.37145 -28.3323,-36.38099 -7.5349,-9.00954 -13.6998,-17.14049 -13.6998,-18.06878 0,-0.92829 2.5874,-3.21625 5.7499,-5.08435 3.1624,-1.86811 14.086,-9.38229 24.2745,-16.69819 l 18.5247,-13.30163 15.2735,1.04687 c 31.4679,2.15686 64.058,16.64396 118.1774,52.53282 17.05,11.30658 38.2,24.52896 47,29.38308 10.0368,5.53635 15.9109,9.99623 15.7609,11.96644 -0.8983,11.79816 -77.8106,101.60473 -87.0166,101.60473 -1.6112,0 -9.6489,-4.41122 -17.8615,-9.8027 z"
       style="fill:url(#linearGradient5285);fill-opacity:1;stroke:none;stroke-width:4.69999981;stroke-linejoin:round;stroke-miterlimit:4;stroke-dasharray:none;stroke-opacity:1" />
  </g>
</svg>
