<?xml version="1.0" encoding="UTF-8" standalone="no"?>
<!-- Created with Inkscape (http://www.inkscape.org/) -->

<svg
   xmlns:osb="http://www.openswatchbook.org/uri/2009/osb"
   xmlns:dc="http://purl.org/dc/elements/1.1/"
   xmlns:cc="http://creativecommons.org/ns#"
   xmlns:rdf="http://www.w3.org/1999/02/22-rdf-syntax-ns#"
   xmlns:svg="http://www.w3.org/2000/svg"
   xmlns="http://www.w3.org/2000/svg"
   xmlns:xlink="http://www.w3.org/1999/xlink"
   xmlns:sodipodi="http://sodipodi.sourceforge.net/DTD/sodipodi-0.dtd"
   xmlns:inkscape="http://www.inkscape.org/namespaces/inkscape"
   width="210mm"
   height="20mm"
   viewBox="0 0 744.09449 70.86614"
   id="svg4337"
   version="1.1"
   inkscape:version="0.91 r13725"
   sodipodi:docname="platform1.svg">
  <defs
     id="defs4339">
    <linearGradient
       inkscape:collect="always"
       id="linearGradient6402">
      <stop
         style="stop-color:#765000;stop-opacity:1"
         offset="0"
         id="stop6404" />
      <stop
         style="stop-color:#9d6c05;stop-opacity:0;"
         offset="1"
         id="stop6406" />
    </linearGradient>
    <linearGradient
       id="linearGradient6384"
       osb:paint="solid">
      <stop
         style="stop-color:#fac75a;stop-opacity:1;"
         offset="0"
         id="stop6386" />
    </linearGradient>
    <linearGradient
       inkscape:collect="always"
       xlink:href="#linearGradient6402"
       id="linearGradient6408"
       x1="327.15607"
       y1="67.316528"
       x2="327.15607"
       y2="7.3165283"
       gradientUnits="userSpaceOnUse"
       gradientTransform="translate(1,980.19684)" />
  </defs>
  <sodipodi:namedview
     id="base"
     pagecolor="#ffffff"
     bordercolor="#666666"
     borderopacity="1.0"
     inkscape:pageopacity="0.0"
     inkscape:pageshadow="2"
     inkscape:zoom="1"
     inkscape:cx="305.3197"
     inkscape:cy="244.12108"
     inkscape:document-units="px"
     inkscape:current-layer="layer1"
     showgrid="false"
     inkscape:window-width="1920"
     inkscape:window-height="1022"
     inkscape:window-x="0"
     inkscape:window-y="0"
     inkscape:window-maximized="1" />
  <metadata
     id="metadata4342">
    <rdf:RDF>
      <cc:Work
         rdf:about="">
        <dc:format>image/svg+xml</dc:format>
        <dc:type
           rdf:resource="http://purl.org/dc/dcmitype/StillImage" />
        <dc:title></dc:title>
      </cc:Work>
    </rdf:RDF>
  </metadata>
  <g
     inkscape:label="Layer 1"
     inkscape:groupmode="layer"
     id="layer1"
     transform="translate(0,-981.49606)">
    <path
       style="fill:none;fill-opacity:1;stroke:none;stroke-width:4.69999981;stroke-linejoin:round;stroke-miterlimit:4;stroke-dasharray:none;stroke-opacity:1"
       id="path4891"
       d="m 10.961543,1089.2593 c 1.882785,2.3107 3.623994,4.7346 5.776465,6.8051 1.892396,1.8603 3.963448,3.4969 5.964977,5.23 1.461789,1.3804 2.824429,2.8448 4.009298,4.4724 0.826932,1.5896 1.992162,2.9624 2.846414,4.5305 0.94929,1.8526 1.671222,3.7475 2.813452,5.4942 1.571226,2.1042 2.344825,4.6306 3.577752,6.9052 1.36923,2.4611 3.057501,4.7206 4.53363,7.1107 0.971138,1.1406 1.788805,2.4681 3.097004,3.2661 0.250576,0.1529 0.527243,0.2581 0.790864,0.3872 0.260421,0.1595 0.520842,0.3189 0.781263,0.4784 1.489865,0.6698 2.708128,1.7706 4.052552,2.6819 0.895274,1.0066 1.454762,2.2617 2.204047,3.38 1.101562,1.0945 2.460307,2.0734 3.901416,2.679 1.211744,0.262 2.205864,1.0447 3.242035,1.6708 0.999369,0.4181 1.888515,0.8095 2.671215,1.5905 1.1083,1.0565 1.290136,0.8848 2.802107,0.9925 1.525496,0.087 3.054186,0.076 4.581532,0.081 2.082312,0.033 4.164482,-0.012 6.24646,-0.023 1.594006,0 3.187978,8e-4 4.781973,-9e-4 1.444225,-0.017 2.888928,0 4.333317,0.01 1.549188,0.01 3.098045,-0.014 4.647235,-0.01 1.299869,-0.086 2.658532,0.2152 3.899902,-0.2204 4.16834,-3.4107 0.62486,-0.4623 -11.714142,6.5497 -0.195618,0.1112 0.393468,-0.2204 0.575945,-0.352 0.662193,-0.4777 1.186169,-1.0601 1.691303,-1.6932 0.888169,-1.1252 1.134437,-2.4902 1.265364,-3.8773 -0.247209,-1.8217 -0.0764,-3.4746 0.674466,-5.1513 1.145602,-1.9832 2.752782,-3.638 4.339541,-5.2689 1.702405,-1.8437 3.612726,-3.4573 5.58725,-4.9975 1.807246,-1.25 3.44132,-2.7183 5.25368,-3.9609 1.71236,-1.0184 3.01559,-2.5041 4.34951,-3.9512 4.74598,-5.1056 11.06915,-9.2516 17.8645,-10.8795 1.75169,-0.1715 3.44315,-0.1951 5.04004,-1.0092 1.68582,-0.5872 3.293,-1.3721 5.02552,-1.8273 1.66912,-0.8414 3.51996,-1.0784 5.35687,-1.239 1.98679,-0.2191 3.92983,-0.7087 5.93,-0.9189 1.57294,-0.1406 3.14283,-0.2143 4.72121,-0.2122 2.28932,0.027 4.57881,0.027 6.86824,0.036 2.30047,0.018 4.60092,-0.017 6.90126,-0.018 1.91141,0.3545 3.29615,-0.8657 4.99963,-1.4293 1.67297,-0.4091 3.41066,-0.5466 5.12933,-0.5813 1.75509,-0.5487 3.58789,-0.7369 5.41307,-0.8706 2.20194,-0.021 4.4814,-0.4266 6.59754,0.2584 0.33713,0.1311 1.67424,0.6752 2.04047,0.7198 0.28959,0.035 0.57876,-0.1151 0.86989,-0.096 1.00196,0.065 2.09977,0.4421 3.03472,0.7775 1.44354,0.4274 2.77455,1.2778 3.73633,2.422 1.50841,1.5071 3.38919,2.3363 5.22637,3.3343 1.91088,0.9982 3.56787,2.4714 5.28168,3.7901 1.3127,1.7527 2.92641,3.1591 4.48657,4.6701 1.34907,1.043 2.48381,2.2494 3.50933,3.5949 0.60548,1.3231 1.67457,2.4259 2.74969,3.3923 1.1026,1.1654 2.25383,2.2815 3.34822,3.4559 1.2364,0.8844 2.06022,2.1112 3.00123,3.2683 1.0185,1.3358 2.31712,1.8998 3.95493,1.7416 0.69573,0.2795 1.62089,0.023 2.29858,0.3431 0.67924,0.3213 1.30405,0.9678 1.97598,1.3442 1.25257,0.6545 2.60078,1.1632 3.75414,1.9914 1.17117,0.5048 2.35535,1.0596 3.35216,1.8679 1.17369,0.5878 2.39849,1.1544 3.6629,1.5494 1.502,0.3696 3.05081,0.4249 4.58942,0.4579 1.1519,0.1355 2.35644,-0.1402 3.50315,0.01 1.29006,0.1673 0.25936,0.3998 1.41523,-0.02 1.81218,-0.5533 3.70084,-0.7447 5.58229,-0.8778 1.81773,-0.1027 3.63819,-0.1232 5.45832,-0.1233 1.87237,0.01 3.74473,0.01 5.6171,0.013 1.84611,0.01 3.69217,-0.01 5.53826,-0.01 1.48003,-0.5826 3.04943,-0.7589 4.6215,-0.8806 1.87158,-0.2291 3.80915,0.1381 5.6401,-0.3259 1.76272,-0.3601 3.48497,-0.7172 5.13121,-1.4639 5.01149,-2.9893 -1.9462,1.1683 -10.81877,6.1658 -0.35075,0.1976 0.68073,-0.431 1.00574,-0.6686 0.9881,-0.7221 1.61652,-1.4247 2.28655,-2.4395 0.65291,-1.7235 1.24196,-4.045 -0.45044,-5.3491 -4.47542,-4.2816 8.89457,-7.2824 12.14955,-9.2019 0.2842,-0.1676 0.6546,0.089 0.98408,0.1065 0.89598,0.048 1.79442,0.016 2.6916,0.027 2.25925,0.1661 4.59242,-0.237 6.83259,0.207 1.45071,0.2875 1.91211,0.6097 3.20452,1.2374 1.60579,1.0695 2.85303,2.7064 3.78791,4.3898 0.24375,0.4389 0.36863,0.9426 0.64829,1.3595 0.25571,0.3813 0.6261,0.6716 0.93916,1.0074 0.59803,-0.044 1.20988,0 1.79411,-0.1327 0.87315,-0.2021 1.73741,-0.4798 2.54358,-0.8714 1.03272,-0.5017 3.97567,-2.2903 2.94102,-1.7927 -3.05233,1.468 -5.77523,3.6859 -9.0041,4.7087 -1.33957,0.4243 2.12355,-1.8448 3.11299,-2.8426 1.05534,-1.0642 2.00952,-2.2242 3.01427,-3.3363 4.33675,-5.145 8.30593,-10.564 13.06954,-15.33 6.12345,-5.4853 13.27496,-10.8205 21.46735,-12.3692 2.12212,-0.3059 4.27154,-0.2942 6.4101,-0.2628 1.49701,0.092 3.03137,-0.1508 4.47971,0.2695 1.34436,0.8098 2.3564,2.1127 3.29609,3.355 1.24112,1.4392 2.59278,2.7754 3.88419,4.1713 1.91686,1.4553 3.38237,3.392 5.09188,5.0663 1.74021,1.5344 3.25271,3.3731 5.07817,4.8121 2.00174,1.5475 3.91517,3.1169 5.5562,5.0561 1.66483,1.5772 3.49753,3 5.35637,4.3451 1.22115,1.1223 2.56895,2.1063 3.94361,3.0295 1.55899,0.7143 2.76168,1.8878 4.38576,2.4744 1.24112,0.4887 2.6299,0.2071 3.89987,0.4612 0.15454,0.031 2.14342,0.7336 2.32114,0.7959 1.94732,0.4724 3.71706,1.41 5.66399,1.8751 1.97751,0.1271 3.85456,0.75 5.80301,1.0658 1.57707,0.6964 3.23448,1.0124 4.93845,1.173 1.67197,0.1252 3.34953,0.1197 5.02502,0.1232 2.1039,10e-4 4.20774,0.01 6.31164,0 2.70047,0 5.40087,0.013 8.10133,0.02 3.13089,10e-4 6.26177,-0.01 9.39265,0 3.32089,0.02 6.64185,6e-4 9.96278,0 3.03298,0 6.06597,-0.01 9.09896,0 0.49359,-7e-4 0.99086,0.058 1.48078,0 3.7424,-0.4591 20.89652,-11.0283 -6.02447,4.2654 2.8668,-1.7901 5.39923,-4.0315 7.87217,-6.3184 2.71644,-2.5434 5.33091,-5.2044 7.73061,-8.0496 1.75006,-2.1648 2.83982,-4.721 3.61824,-7.3697 0.61831,-2.3137 1.41303,-4.5729 2.19024,-6.8364 0.69108,-2.2471 1.76896,-4.2745 3.37509,-5.9904 5.47456,-5.0153 12.01171,-7.927 18.89268,-9.8919 3.06456,-0.6496 6.21759,-0.7018 9.33805,-0.7749 3.57068,-0.038 7.14156,-0.034 10.71239,-0.038 2.96317,0 5.92637,0 8.88954,0 2.9348,-8e-4 5.86959,0 8.80439,0 2.49038,-0.01 5.00623,-0.2206 7.35112,0.7465 2.06553,0.5805 3.44896,2.1915 4.91825,3.6358 1.1857,1.3681 2.57627,2.475 3.73978,3.8736 1.6276,1.2995 3.16196,2.6983 4.74072,4.06 2.20744,1.5397 4.2912,3.2794 6.33893,5.0273 2.29809,1.7692 4.03633,4.1349 6.35279,5.8711 1.89107,1.5644 3.70646,3.2579 5.37857,5.0586 1.19329,1.1008 2.11865,2.3927 3.62389,3.0653 1.58462,0.93 3.22059,1.7009 4.65793,2.8576 0.87372,1.0418 2.18249,1.5102 3.19309,2.3714 0.4595,0.3915 0.86457,0.8433 1.31321,1.2472 0.9808,1.089 1.83256,2.2614 3.24012,2.781 0.17527,0.075 0.37035,0.1138 0.52582,0.2239 1.35718,0.9611 1.32619,1.3413 3.10709,1.8128 1.52464,0.377 3.11076,0.3476 4.67085,0.3635 1.68066,-0.011 3.36087,-0.018 5.04162,0 2.65376,0.028 5.30732,10e-5 7.9609,-0.012 2.41999,-5e-4 4.84007,0 7.26,0.021 3.18066,0.014 6.36142,0.01 9.54209,0 2.13878,0 4.27741,-0.025 6.4162,-0.027 0.9417,0.088 1.78006,-0.1377 2.60883,-0.5762 0.30273,-0.1601 1.17469,-0.7045 0.87679,-0.5355 -11.69977,6.6353 -15.51496,9.2228 -10.73329,6.0231 1.98675,-1.3715 3.45717,-3.2115 4.62367,-5.2959 1.32921,-2.1601 2.05435,-4.5736 2.75015,-6.9895 0.98753,-2.5969 2.12916,-5.1355 3.28236,-7.6635 0.99353,-2.6552 1.53882,-5.3734 2.86301,-7.9006 1.29102,-1.835 2.79559,-3.7786 4.77165,-4.9376 13.82487,-8.1083 9.30714,-6.4384 16.31017,-8.8192 3.55038,-0.6141 6.92723,-1.8871 10.44814,-2.6226 2.95347,-0.5629 5.9693,-0.6234 8.96631,-0.6625 2.76402,-0.029 5.52822,-0.013 8.29234,-0.013 2.43814,0.1898 5.01021,-0.4158 7.3467,0.3806 2.06497,0.5673 3.57028,1.8548 5.01849,3.342 0.94454,1.3947 1.89286,2.7896 2.84523,4.1854 1.31381,2.0222 2.76953,3.9444 4.16165,5.9207 1.12967,2.3691 3.15822,4.1072 4.48163,6.3368 1.57006,2.036 3.43245,3.8227 5.14583,5.7349 1.3216,1.9658 3.16919,3.3692 5.00795,4.7924 1.28151,1.2513 2.95862,1.8694 4.5628,2.5862 1.44673,0.6581 2.81061,1.2711 4.39819,1.5215 1.44719,0.2091 2.91494,0.2062 4.37408,0.1983 1.20161,0.2172 1.5357,-0.5851 2.64159,-0.8206 5.10216,-1.1956 0.40856,-0.1384 -12.08344,6.9356 -0.099,0.056 0.21104,-0.085 0.31672,-0.1275 0.39123,-0.1565 0.46627,-0.3061 0.65671,-0.6782 0.24376,-0.9391 0.22463,-1.9235 0.22376,-2.887 -0.008,-1.2947 -0.004,-2.5893 0.002,-3.884 0.0209,-2.1153 0.0227,-4.2308 0.0203,-6.3463 0.008,-2.1332 -0.007,-4.2663 -0.009,-6.3996 0.006,-1.8703 -0.005,-3.7406 -0.0119,-5.6109 0.008,-1.6263 -0.006,-3.2525 -0.003,-4.8787 -0.005,-1.5641 -0.002,-3.1282 0.005,-4.6923 -0.20127,-1.3691 -0.59998,-2.6888 -0.78235,-4.067 -0.0507,-1.8695 -0.45874,-3.6892 -0.75944,-5.5272 -0.34422,-2.2609 -0.84375,-4.4878 -1.10311,-6.7631 -0.23104,-2.4922 -1.25252,-4.7875 -1.70341,-7.2544 -0.44541,-2.8504 -0.5446,-5.7405 -0.61636,-8.6202 -0.0221,-2.438 -0.024,-4.8762 -0.0253,-7.3143 -3.5e-4,-2.0572 5.1e-4,-4.1145 9.4e-4,-6.1717 3.7e-4,-1.9968 4.4e-4,-3.9935 4.8e-4,-5.9903 3e-5,-1.9989 2e-5,-3.9978 10e-6,-5.9967 0,-2 0,-3.9999 0,-5.9999 -0.021,-1.7258 -0.011,-3.4518 -0.007,-5.1777 -0.0167,-1.6652 -0.005,-3.3305 -4.5e-4,-4.9957 -0.005,-1.6966 -0.007,-3.3932 -0.002,-5.0899 0,0 13.23576,-6.744 13.23576,-6.744 l 0,0 c 0.005,1.6974 0.003,3.3947 -0.002,5.092 0.005,1.6654 0.0163,3.3308 -4.5e-4,4.9961 0.004,1.7283 0.014,3.4567 -0.007,5.1848 0,2 0,4 2e-5,6 3e-5,1.9988 9e-5,3.9977 1.9e-4,5.9966 8e-5,1.997 3.2e-4,3.9941 -7.7e-4,5.9912 -0.002,2.0607 -0.004,4.1214 -0.0152,6.1821 -0.0128,2.4334 -0.0369,4.867 -0.0103,7.3004 0.0252,2.8127 0.0714,5.6354 0.47974,8.4237 0.44088,2.5037 1.51871,4.8119 1.77371,7.3295 0.24264,2.2548 0.73398,4.4525 1.11286,6.6807 0.28201,1.8547 0.78609,3.6733 0.81607,5.5571 0.15871,1.4433 0.54136,2.8183 0.85519,4.2319 0.006,1.5625 0.009,3.125 0.005,4.6876 0.003,1.6273 -0.0109,3.2545 -0.003,4.8819 -0.007,1.8743 -0.0175,3.7487 -0.012,5.6231 -0.003,2.1364 -0.0177,4.2726 -0.009,6.4089 -0.002,2.1065 -7.1e-4,4.2129 0.0265,6.3193 0.0108,1.2895 0.0263,2.579 0.0315,3.8686 10e-4,1.0618 0.0445,2.1275 -0.0524,3.1863 -0.45097,6.1067 -8.8415,7.4818 -14.11811,9.5038 -0.96701,0.4782 -1.86536,0.487 -2.93158,0.395 -1.50972,-0.054 -3.02972,-0.099 -4.50624,-0.4523 -1.61325,-0.4116 -3.07469,-1.1366 -4.59328,-1.8042 -1.66992,-0.812 -3.37206,-1.5545 -4.72479,-2.8738 -1.89949,-1.47 -3.65504,-3.1017 -5.07931,-5.0526 -1.80715,-1.9621 -3.73961,-3.8279 -5.33809,-5.9664 -1.30273,-2.1865 -3.25305,-3.9447 -4.38519,-6.2541 -1.4109,-1.9702 -2.87914,-3.8953 -4.23426,-5.899 -0.92425,-1.3176 -1.8313,-2.6457 -2.73597,-3.9688 -1.26307,-1.3176 -2.70538,-2.2809 -4.53344,-2.6559 -2.35491,-0.2766 -4.74803,-0.026 -7.11403,-0.1203 -2.74618,-0.015 -5.4927,-0.029 -8.23868,0.017 -2.94226,0.087 -5.89903,0.215 -8.77613,0.8951 -3.43729,0.8558 -6.8544,1.8125 -10.27028,2.7376 -5.60679,2.3334 -2.83126,1.279 8.90647,-5.6074 0.52346,-0.3071 -1.04774,0.6165 -1.53916,0.9726 -0.92166,0.6679 -1.67901,1.4351 -2.45548,2.2605 -0.33041,0.3512 -0.64145,0.7202 -0.96217,1.0803 -1.69293,2.6903 -2.03607,4.7721 -2.93387,7.75 -1.03452,2.5229 -2.20374,4.9951 -3.34907,7.4695 -0.66341,2.4923 -1.30921,5.0193 -2.58162,7.2853 -1.16709,2.194 -2.36347,4.3441 -4.38649,5.891 -5.30211,4.3491 -11.47524,9.2499 -18.52065,9.2799 -2.11417,0 -4.22819,-0.021 -6.34236,-0.027 -3.17776,-0.011 -6.35563,-0.018 -9.53339,0 -2.43965,0.017 -4.87944,0.022 -7.31915,0.023 -2.64863,-0.01 -5.29727,-0.034 -7.946,0.01 -1.69934,0.026 -3.39859,0.049 -5.09773,0 -1.67075,-0.054 -3.35728,-0.1334 -4.94027,-0.729 -1.37921,-0.5573 -2.47598,-1.4481 -3.74684,-2.1838 -1.38527,-0.8028 -2.39935,-1.9691 -3.46089,-3.1522 -1.3868,-1.2946 -2.97529,-2.2866 -4.42129,-3.5137 -1.42839,-1.0257 -3.02889,-1.7541 -4.53791,-2.6518 -1.51205,-0.922 -2.63973,-2.2298 -3.86776,-3.4904 -1.62347,-1.7417 -3.33669,-3.4166 -5.20057,-4.9003 -2.24159,-1.8453 -4.06558,-4.1342 -6.38661,-5.8965 -2.09943,-1.7006 -4.10726,-3.5178 -6.34197,-5.0442 -1.65931,-1.3918 -3.34108,-2.7589 -4.93609,-4.2242 -1.1521,-1.3332 -2.52925,-2.4222 -3.65546,-3.777 -1.33215,-1.3423 -2.66109,-2.6026 -4.5658,-3.0574 -2.29482,-0.5743 -4.65946,-0.3757 -7.00485,-0.3982 -2.93092,-0.01 -5.86184,0 -8.79278,-0.01 -2.95654,0 -5.91311,0 -8.86962,-0.019 -3.55924,-0.014 -7.11974,-0.032 -10.67786,0.072 -3.07844,0.1182 -6.19955,0.2254 -9.1686,1.1308 -1.12903,0.3583 -2.28669,0.6699 -3.36496,1.1688 -0.31399,0.1453 -1.21684,0.6585 -0.91817,0.4839 11.58151,-6.7707 15.89356,-8.7623 10.83101,-6.3858 -1.84722,1.3029 -3.01941,3.157 -3.67416,5.3177 -0.87641,2.1966 -1.5533,4.4746 -2.27696,6.7251 -0.68831,2.8291 -1.73894,5.5782 -3.43977,7.9657 -2.29832,2.9636 -4.97069,5.6119 -7.64489,8.2346 -2.4545,2.3247 -4.92653,4.6492 -7.7304,6.556 -0.81871,0.4752 -12.66167,8.6656 -18.19118,9.6171 -1.06018,0.1824 -1.87624,0.1353 -2.94472,0.1338 -3.03,0 -6.06,-6e-4 -9.08999,0 -3.32249,10e-4 -6.64501,-0.018 -9.96746,0 -3.12876,0 -6.25752,0 -9.38628,0 -2.72075,0.01 -5.44143,0.024 -8.16219,0.027 -2.11774,0 -4.23539,0.018 -6.35311,0.016 -1.71119,-0.014 -3.4249,-0.046 -5.12427,-0.2696 -1.70624,-0.2621 -3.32955,-0.7655 -4.98205,-1.2464 -1.96185,-0.4005 -3.91148,-0.8426 -5.88592,-1.1732 -1.9032,-0.6049 -3.72596,-1.4391 -5.66221,-1.9503 -2.08896,-0.6216 -4.2995,-0.5243 -6.3364,-1.341 -1.60017,-0.7793 -2.98782,-1.893 -4.55923,-2.7282 -1.35341,-0.9851 -2.7313,-1.9416 -3.96082,-3.0834 -1.87442,-1.4791 -3.79406,-2.9306 -5.44609,-4.6606 -1.62109,-1.8564 -3.59607,-3.2465 -5.47853,-4.8183 -1.77709,-1.5626 -3.39592,-3.3179 -5.11937,-4.9366 -1.69894,-1.7146 -3.26112,-3.571 -5.13823,-5.1028 -1.33696,-1.4207 -2.76565,-2.7547 -4.01798,-4.253 -0.73182,-0.9275 -1.49807,-2.1391 -2.70044,-2.4315 -1.43792,-0.055 -2.87739,-0.046 -4.31588,-0.081 -2.05383,0 -4.12298,0.02 -6.13354,0.4958 -5.148,1.4507 -10.40362,5.4678 8.55885,-5.6914 0.49624,-0.2921 -1.00719,0.5608 -1.48627,0.8802 -1.44346,0.9622 -1.96106,1.4896 -3.29929,2.6493 -0.1443,0.1396 -3.69058,3.5713 -3.7067,3.5885 -3.47626,3.7236 -6.33111,7.9819 -9.72409,11.7764 -7.4688,8.7961 -8.3902,8.2463 -21.47761,16.0521 -3.20683,1.9127 -5.11877,2.6496 -8.66062,1.3853 -0.3932,-0.4531 -0.84166,-0.8635 -1.17961,-1.3592 -0.24663,-0.3617 -0.34574,-0.806 -0.55785,-1.189 -0.80042,-1.4453 -1.8689,-2.8494 -3.3113,-3.6785 -3.10423,-1.236 -6.39152,-0.9482 -9.67941,-0.9271 -0.35969,0.01 -2.22144,0.042 -2.70909,0.1259 -0.27987,0.048 -1.04605,0.4189 -0.81176,0.2585 15.80945,-10.8284 10.03268,-9.8605 12.29033,-7.7891 1.81649,1.998 1.959,4.4471 1.21049,6.9901 -0.13993,0.485 -0.19532,1.0029 -0.41981,1.455 -0.34087,0.6866 -1.84822,2.0667 -2.49744,2.4522 -12.80997,7.6067 -8.89152,5.9025 -14.66437,8.3403 -1.74799,0.5501 -3.53114,0.9531 -5.34616,1.2146 -1.89085,0.086 -3.78963,0.055 -5.67206,0.2843 -1.5832,0.2197 -3.12292,0.7162 -4.7222,0.7566 -1.83976,-7e-4 -3.67948,-0.015 -5.51925,-0.011 -1.87619,-10e-4 -3.75241,0 -5.62857,0.01 -1.78934,0.019 -3.58152,0.042 -5.36421,0.2117 -1.88707,0.2112 -3.73151,0.6223 -5.60507,0.9091 -1.67457,-0.1554 -3.35305,-0.097 -5.03264,-0.1581 -1.64498,-0.091 -3.29593,-0.2671 -4.85801,-0.8252 -1.34174,-0.5392 -2.7323,-1.0425 -3.91639,-1.8857 -1.08132,-0.6643 -2.21258,-1.2091 -3.3246,-1.8136 -1.18569,-0.7189 -2.47028,-1.2647 -3.68105,-1.9411 -1.3246,-0.8125 -2.25981,-1.124 -3.86663,-1.0901 -1.88975,-0.3083 -3.45436,-1.2916 -4.65053,-2.7931 -0.90518,-1.1344 -1.77768,-2.2652 -2.924,-3.1722 -1.10061,-1.1329 -2.20886,-2.2562 -3.31363,-3.3847 -1.09005,-1.0775 -2.24804,-2.221 -2.92699,-3.6052 -0.91488,-1.3115 -2.07847,-2.369 -3.29477,-3.4124 -1.54541,-1.4517 -3.03247,-2.9114 -4.4059,-4.5305 -1.66081,-1.2645 -3.24538,-2.6811 -5.13435,-3.5986 -1.98629,-1.0434 -3.93221,-2.125 -5.55805,-3.7035 -0.96214,-0.8579 -1.99004,-1.505 -3.2652,-1.7982 -1.95669,-0.4775 -3.99,-0.5472 -5.87797,-1.3163 -2.10232,-0.2259 -4.2313,-0.013 -6.33433,0.1314 -1.84064,0.2133 -3.63989,0.6465 -5.47915,0.8415 -1.64272,0.1391 -3.30504,0.2783 -4.83275,0.9563 -1.70972,0.7815 -3.43435,1.1479 -5.32538,0.9796 -2.28041,0 -4.56091,-0.04 -6.84147,-0.026 -2.3127,0 -4.62581,-0.01 -6.93812,0.041 -1.5312,0.044 -3.0639,0.1275 -4.58453,0.317 -1.98382,0.2916 -3.93674,0.7693 -5.94049,0.9184 -1.80199,0.2819 -3.51072,0.8131 -5.21096,1.4682 -1.66609,0.6098 -3.30701,1.2843 -4.97656,1.8855 -1.68094,0.42 -3.42173,0.4278 -5.07309,0.9631 -4.52973,1.9312 -11.22538,6.3454 10.16398,-6.1259 0.31772,-0.1852 -0.64094,0.3638 -0.93934,0.5788 -0.80595,0.5807 -1.00788,0.8674 -1.68536,1.5909 -1.34985,1.4707 -2.57486,3.1052 -4.21598,4.2646 -1.83097,1.2353 -3.58177,2.5389 -5.29254,3.9316 -2.05663,1.3698 -3.95886,2.9865 -5.67371,4.7643 -1.55764,1.5636 -3.13193,3.1241 -4.4735,4.8824 -0.97215,1.4317 -1.37645,2.8231 -0.92161,4.5479 -0.0572,1.5889 -0.20017,3.1815 -0.916252,4.6312 -3.494018,5.3828 -9.76488,9.234 -16.084754,10.3577 -1.349937,0.037 -2.700528,0.018 -4.05088,0.019 -1.540903,0 -3.081458,-0.018 -4.622359,-0.01 -1.449592,0 -2.899516,0.023 -4.348936,0.01 -1.594445,-10e-4 -3.188861,0 -4.783307,0.01 -2.074602,0 -4.149511,-0.036 -6.224307,10e-4 -1.571347,0 -3.143217,-0.01 -4.704136,-0.2164 -1.364414,-0.2333 -2.372687,-0.7127 -3.333877,-1.7073 -0.798875,-0.5627 -1.726985,-0.8402 -2.535335,-1.3934 -0.989172,-0.6419 -2.056067,-1.1311 -3.150729,-1.5653 -1.559141,-0.9036 -3.111619,-1.937 -4.274402,-3.3275 -0.668905,-0.9578 -1.186164,-2.052 -1.96457,-2.9105 -1.273359,-0.9452 -2.519152,-1.9263 -3.955059,-2.6206 -2.032257,-1.2309 -3.653244,-2.7622 -4.966593,-4.7677 -1.489203,-2.4181 -3.17243,-4.7141 -4.591986,-7.1778 -1.201329,-2.2472 -1.964576,-4.7303 -3.537029,-6.7874 -1.151828,-1.7833 -1.951618,-3.6886 -2.921418,-5.5704 -0.808208,-1.511 -1.928921,-2.8372 -2.710997,-4.3688 -1.139684,-1.5239 -2.457451,-2.8931 -3.825261,-4.2131 -1.985414,-1.7738 -4.0826525,-3.4172 -5.9243423,-5.3491 -2.1527103,-2.1484 -3.9860335,-4.5607 -5.9663616,-6.8635 0,0 12.7269139,-7.6412 12.7269139,-7.6412 z"
       inkscape:connector-curvature="0" />
    <rect
       style="fill:#fac75a;fill-opacity:1;stroke:none;stroke-width:4.69999981;stroke-linejoin:round;stroke-miterlimit:4;stroke-dasharray:none;stroke-opacity:1"
       id="rect4914"
       width="737"
       height="60"
       x="5"
       y="987.36218"
       ry="8"
       rx="11.014946" />
    <path
       style="fill:#fac75a;fill-opacity:1;stroke:none;stroke-width:4.69999981;stroke-linejoin:round;stroke-miterlimit:4;stroke-dasharray:none;stroke-opacity:1"
       d="m 10.48481,1045.598 c -1.744195,-0.763 -3.6566948,-2.2944 -4.2500003,-3.403 -0.6825105,-1.2753 -1.0787372,-10.516 -1.0787372,-25.1583 l 0,-23.14264 2.9271495,-2.92715 2.92715,-2.92715 362.967878,0.25408 c 355.34175,0.24873 363.01211,0.29409 365.07285,2.15906 2.03045,1.83754 2.10497,2.76921 2.10497,26.3157 0,14.0106 -0.41706,25.1901 -0.97889,26.2399 -0.53839,1.006 -2.36723,2.313 -4.06409,2.9045 -2.1791,0.7597 -108.72144,1.0751 -362.77111,1.074 -304.547365,0 -360.17205,-0.2143 -362.85717,-1.389 z"
       id="path6362"
       inkscape:connector-curvature="0" />
    <path
       style="fill:url(#linearGradient6408);fill-opacity:1;stroke:none;stroke-width:4.69999981;stroke-linejoin:round;stroke-miterlimit:4;stroke-dasharray:none;stroke-opacity:1"
       d="m 10.48481,1045.598 c -1.744195,-0.763 -3.6566948,-2.2944 -4.2500003,-3.403 -0.6837793,-1.2776 -1.0787372,-10.6112 -1.0787372,-25.4925 l 0,-23.4768 3.0815595,-2.59297 3.081559,-2.59296 362.813469,0.25407 c 355.18991,0.24873 362.8577,0.2941 364.91844,2.15906 2.03045,1.83754 2.10497,2.76921 2.10497,26.3157 0,14.0106 -0.41706,25.1901 -0.97889,26.2399 -0.53839,1.006 -2.36723,2.313 -4.06409,2.9045 -2.1791,0.7597 -108.72144,1.0751 -362.77111,1.074 -304.547365,0 -360.17205,-0.2143 -362.85717,-1.389 z"
       id="path6374"
       inkscape:connector-curvature="0" />
  </g>
</svg>
