<?xml version="1.0" encoding="UTF-8"?>
<svg viewBox="0 0 600 600" xmlns="http://www.w3.org/2000/svg">
 <path transform="matrix(1.0102 0 0 1.0102 -323.89 -138.96)" d="m486.13 648.44c-3.0247-3.8453-4.4581-12.217-3.2296-18.863 1.2225-6.6132 1.6386-7.4522 14.312-28.857 18.732-31.639 25.404-48.633 38.42-97.864 0.57063-2.1583-2.1968-4.8554-4.982-4.8554-3.6204 0-6.3914 2.702-8.1257 7.9236-1.9563 5.8899-3.2384 7.0941-8.2719 7.7692-4.8026 0.64418-10.524-1.6493-12.807-5.134-1.6148-2.4644-1.6096-3.0976 0.094-11.489 1.7021-8.3846 1.7085-9.1287 0.11342-13.305-4.74-12.411-16.441-13.888-23.154-2.9222-4.515 7.3759-14.351 20.04-20.048 25.811-10.084 10.217-16.676 10.543-23.472 1.161-2.2478-3.103-2.9803-5.2116-2.9803-8.5793 0-3.8803 0.49112-4.9164 3.75-7.9114 4.8011-4.4123 11.574-8.1772 22.25-12.368 14.535-5.7054 20.937-10.774 24.56-19.446 2.6948-6.4494 1.4415-14.368-2.6177-16.541-5.9635-3.1916-12.983 2.163-24.936 19.021-11.089 15.64-17.088 19.477-29.474 18.851-8.562-0.43236-12.623-2.7254-17.302-9.7686-4.2663-6.423-5.499-11.14-5.0707-19.406 0.31546-6.0895 0.8509-7.8607 3.5627-11.785 3.7947-5.4917 10.682-10.117 18.337-12.316 3.1249-0.8976 12.762-1.9972 22-2.5101 20.433-1.1345 26.723-2.3761 49.179-9.7075 11.353-3.7065 14.76-6.2526 14.76-11.03 0-2.8963-4.1285-6.9805-7.829-7.7449-2.7182-0.5615-23.295-2.5701-26.344-2.5716-2.7773-0.0014-7.7044-4.8983-8.7543-8.7006-1.5118-5.4755 0.70663-9.8944 5.6334-11.221 5.2452-1.4124 9.1264-0.18647 18.805 5.9395 4.3941 2.7813 11.052 5.9914 14.795 7.1335 6.5361 1.9942 6.9824 2.0093 11.252 0.37885 8.5892-3.2802 9.624-9.0668 3.6922-20.646-4.8941-9.5533-13.898-19.174-21.568-23.046-11.579-5.8449-19.122-15.128-23.84-29.339-1.8783-5.6576-2.3184-9.1095-2.2951-18 0.02561-9.7507 0.32939-11.65 2.6747-16.724 5.8476-12.652 17.446-13.003 24.969-0.75681 2.4117 3.9255 3.1414 7.271 5.8847 26.981 3.5931 25.815 4.9676 30.066 12.924 39.972 8.238 10.255 15.487 13.541 19.975 9.0538 2.9412-2.9412 3.3591-6.1654 1.5746-12.148-0.88214-2.9574-1.8625-8.5271-2.1785-12.377-0.49712-6.0551-0.15593-8.2964 2.5274-16.603 5.0292-15.57 4.043-22.301-5.5135-37.634-5.5585-8.9183-6.0973-12.803-2.3345-16.83 4.6836-5.0131 11.409-6.9944 13.832-4.0749 0.76931 0.92697 1.0498 7.5067 0.88464 20.75-0.26729 21.426-0.62685 19.805 7.743 34.893 2.8784 5.1885 5.4482 16.235 5.4734 23.527 0.0099 2.8772 0.67456 5.9658 1.554 7.2213 2.7814 3.971 12.274 5.0997 16.28 1.9357 0.72404-0.57182 3.2884-4.0881 5.6987-7.814 2.5071-3.8755 6.1107-7.9181 8.4214-9.4473 3.4619-2.291 4.8179-2.6084 9.4887-2.2211 4.5401 0.3765 6.128 1.0649 9.515 4.1248 3.1956 2.887 4.8871 3.6729 7.9053 3.6729 7.9964 0 17.154-7.5969 17.154-14.23 0-1.614-1.3551-6.022-3.0114-9.7957-4.447-10.132-4.6984-14-1.5269-23.489 5.4691-16.362 10.368-20.908 22.538-20.915 10.121-0.00512 17.07 4.8261 18.833 13.094 1.1798 5.5319 0.32226 9.6396-4.5586 21.835-10.614 26.519-11.27 34.739-3.4036 42.606 2.0233 2.0232 5.5652 4.2438 7.871 4.9347 6.7735 2.0294 11.598-0.41913 20.802-10.558 9.1984-10.132 13.934-12.564 19.741-10.137 3.0645 1.2804 3.8207 2.2722 5.1531 6.7589 0.85883 2.892 1.5615 6.3618 1.5615 7.7107 0 10.634-9.7744 21.176-22.5 24.267-2.75 0.66807-7.1537 2.2885-9.786 3.601-15.098 7.5278-8.6972 23.224 9.4985 23.294 8.0651 0.03101 15.044-2.9348 23.788-10.109 15.914-13.058 35.52-27.029 43.337-30.883 12.552-6.189 29.686-8.5612 41.74-5.7789 12.436 2.8706 17.251 15.409 10.844 28.238-3.3542 6.716-4.3375 7.0137-16.248 4.9184-19.103-3.3607-35.771-1.8545-52.404 4.7356-13.963 5.5324-29.006 13.687-31.587 17.123-5.3188 7.0796-4.0338 14.549 3.353 19.49 8.9153 5.9631 11.125 8.5252 11.692 13.556 0.75324 6.6824-0.97733 9.9168-7.9065 14.777-9.142 6.4128-11.779 12.29-8.4152 18.755 2.0881 4.0132 5.4584 6.7943 11.598 9.5702 8.0332 3.6321 13.567 4.1491 22.689 2.1197 10.917-2.4287 18.495-1.6714 25.974 2.5955 12.228 6.9766 18.707 15.442 22.895 29.915 1.453 5.0209 1.8732 9.6857 1.8463 20.5-0.03926 15.806-1.2794 20.71-6.6355 26.236-12.136 12.521-30.729-4.6721-37.233-34.428-2.8056-12.837-5.9813-19.802-11.442-25.093-7.1481-6.9258-24.861-14.045-31.736-12.755-4.3888 0.82335-10.955 7.4185-12.336 12.391-2.3271 8.3782-0.75164 13.573 7.4906 24.701 15.681 21.17 20.207 29.857 21.228 40.746 0.65475 6.9839-0.55403 9.6777-5.5936 12.466-5.1108 2.8274-9.3412 3.5309-13.881 2.3086-5.3691-1.4458-8.4148-4.9665-8.8756-10.26-2.414-27.731-4.1267-34.805-10.123-41.809-6.2571-7.31-16.477-10.032-24.725-6.5864-6.3959 2.6724-7.5221 6.4271-6.0458 20.156 0.53155 4.9434 0.39604 7.7536-0.45014 9.3346-1.2726 2.3778-6.5945 5.0928-9.9828 5.0928-5.4377 0-13.571-12.516-18.027-27.74-2.7178-9.2866-5.3532-12.46-10.347-12.46-5.6662 1e-5 -8.3898 2.3501-10.287 8.8765-2.6066 8.9664-1.5653 17.288 4.3577 34.824 5.7753 17.098 6.5062 18.86 15.764 38 5.2059 10.763 6.8788 15.305 7.2347 19.644 0.60855 7.4199-1.1323 12.501-5.1152 14.93-6.0309 3.6774-9.6914 2.053-14.475-6.4235-4.648-8.2359-6.0418-14.671-7.112-32.836-1.521-25.815-6.739-48.43-15.599-67.606-4.3203-9.3507-5.9361-11.209-9.7477-11.209-7.9501 0-14.031 8.187-14.112 19-0.04395 5.8546 0.36832 7.2247 4.1521 13.799 2.3105 4.0143 4.8862 9.3176 5.724 11.785 1.5389 4.5328 1.8951 15.813 0.6446 20.416-1.0477 3.8567-6.3708 5.9966-14.921 5.9984-9.1143 0.00192-12.415-1.5788-14.576-6.9803-2.6082-6.5186-2.0371-12.744 2.376-25.898 4.6838-13.961 5.3422-23.569 2.1037-30.699-1.9912-4.384-6.3305-8.4214-9.0514-8.4214-5.8656 0-14.879 19.769-21.546 47.26-3.5545 14.655-4.7652 21.655-8.9496 51.74-2.7895 20.057-4.38 25.706-9.0481 32.139-6.5528 9.0296-21.716 13.226-26.378 7.3006v3e-5z" fill="#f00" fill-rule="evenodd" stroke="#000" stroke-width=".99985"/>
</svg>
