<?xml version="1.0" encoding="UTF-8"?>
<svg width="134.82mm" height="100.75mm" version="1.1" viewBox="0 0 477.70998 356.99595" xmlns="http://www.w3.org/2000/svg">
 <defs>
  <radialGradient id="d" cx="379.66" cy="425.14" r="238.86" gradientTransform="matrix(.28367 -.71754 1.0466 .41378 -220.32 474.65)" gradientUnits="userSpaceOnUse">
   <stop stop-color="#f00" offset="0"/>
   <stop offset="1"/>
  </radialGradient>
  <filter id="c" x="-.011798" y="-.012303" width="1.0236" height="1.0246" color-interpolation-filters="sRGB">
   <feGaussianBlur stdDeviation="1.9466377"/>
  </filter>
 </defs>
 <g transform="translate(-1.4687 -465.95)">
  <g transform="translate(-98.069 254.71)">
   <rect x="99.537" y="255.04" width="477.71" height="261.97" fill="url(#d)"/>
   <g transform="matrix(1.0516 0 0 .91751 -30.077 16.531)" fill-rule="evenodd" filter="url(#c)">
    <path d="m322.25 228.51 4.2157 142.38 2.8785 9.9099-0.27011 1.7041-41.671-76.396 25.762 65.871-0.64025-0.96935-112.82-99.108 97.126 113.14-82.099-27.193 81.659 42.996-104.18 5.1496 87.843 9.3183-106.73 49.161 86.503-13.799-39.545 27.234 66.107-31.471 6.0184-0.9602-87.52 109.63 104.74-98.703-21.446 49.424 36.323-60.525-14.611 121.61 22.77-95.672 6.0224 99.328 5.895-114.13 28.653 72.685-13.115-68.295 90.398 120.56-71.784-128.48 64.478 48.907-52.938-54.079 91.635 41.163-48.467-32.795 58.873 13.208-98.297-52.044 153.38-12.752-160.58-3.6786 76.11-29.761-66.295 13.677 60.299-36.711l-72.01 29.189 106.07-117.04-113.63 94.041 39.35-72.29-58.141 80.013 19.397-65.125-34.827 79.272 1.9308-94.756-8.7448 55.25z" fill="#f00"/>
    <path d="m331.2 216.89-4.3025 149.9 2.4117 10.614-0.3877 1.7716-39.022-83.186 22.982 71.015-0.61209-1.0633-112.25-112.02 94.931 125.67-84.437-34.313 83.007 50.886-109.58-1.8719 91.557 15.932-114.94 44.195 91.567-8.4521-43.143 25.852 71.26-28.447 6.3708-0.5882-98.506 109.07 115.89-96.391-25.52 50.433 41.803-61.057-22.775 126.76 29.742-98.936 0.23017 104.79 13.175-119.51 25.597 78.376-9.5704-72.677 87.421 132.99-67.413-140.02 64.626 55.896-52.206-60.524 93.582 49.658-48.821-37.847 60.935 17.994-99.903-61.557 161.65-2.6768-168.18-15.09 81.645-25.951-70.367 9.7371 65.489-34.358-77.311 25.636 118.41-115.56-124.93 90.87 45.699-73.207-65.879 80.009 24.333-67.074-41.382 80.86 7.8308-99.43-12.557 57.442z" fill="#f00"/>
    <path d="m356.3 237.46-20.913 130.16 0.86367 9.5782-0.53789 1.4935-24.135-77.748 11.687 64.996-0.40628-1.0089-84.026-112.66 67.514 122.25-68.94-41.176 65.804 55.44-94.36-16.232 77.194 26.094-104.28 23.229 80 4.829-40.202 16.798 64.767-15.315 5.566 0.33584-97.534 82.001 111.09-68.624-27.813 40.584 43.086-47.68-34.202 107.52 37.022-82.322-11.825 91.422 25.084-102.47 13.1 71.765 0.0788-64.66 60.192 127.63-42.118-131.1 49.365 57.36-38.114-59.741 75.072 55.777-37.795-39.513 50.528 23.812-79.162-66.997 139.82 19.203-143.42-35.569 73.445-11.754-61.85-0.88354 60.465-21.239-69.668 12.057 115.46-85.007-118.25 62.605 47.842-57.758-66.039 61.001 28.698-55.255-44.994 65.007 18.167-85.673-17.428 48.424z" fill="#d45500"/>
    <path d="m348.55 263.85-12.887 111.35 1.187 8.0682-0.41267 1.2934-24.855-64.592 13.234 54.444-0.40528-0.83329-79.614-91.017 65.359 100.01-63.075-31.259 60.913 43.506-84.576-8.7949 69.751 18.05-91.662 25.153 71.314-0.11084-34.995 16.341 56.893-16.375 4.9617-8e-3 -58.486 77.554 71.116-66.934-22.942 35.839 36.206-42.652-25.69 92.876 29.3-71.679-6.5064 78.063 17.807-88.122 14.785 60.104-2.7613-54.777 59.087 104.96-43.174-108.84 46.386 45.996-36.491-48.604 69.165 43.306-35.321-31.486 45.951 17.517-73.292-52.595 125.11 8.9237-129.03-22.598 64.762-13.814-55.01 2.4998 52.81-21.167-61.391 13.872 85.943-72.134-89.406 53.304 39.992-51.439-56.023 55.141 23.087-48.313-37.144 57.43 12.395-73.527-13.369 41.935z" fill="#ff7f2a"/>
    <path d="m349.47 305.34-11.233 79.545 1.0346 5.7634-0.35968 0.92389-21.664-46.141 11.535 38.891-0.35325-0.59525-69.393-65.016 56.968 71.444-54.977-22.329 53.093 31.078-73.718-6.2825 60.796 12.894-79.894 17.968 62.159-0.0792-30.503 11.673 49.589-11.697 4.3247-6e-3 -72.428 53.278 83.436-45.692-19.997 25.601 31.558-30.468-22.392 66.344 25.538-51.203-5.6711 55.763 15.521-62.948 12.887 42.934-2.4068-39.129 51.501 74.975-37.631-77.748 40.431 32.857-31.806-34.72 60.285 30.935-30.787-22.492 40.052 12.513-63.882-37.57 109.05 6.3745-112.46-16.143 56.447-9.8679-47.947 1.7857 46.03-15.12-53.51 9.9095 86.199-55.77-89.217 42.319 34.858-36.744-48.831 39.389 20.123-34.512-32.375 41.024 10.804-52.523-11.653 29.956z" fill="#fc0"/>
    <path d="m359.84 341.79-14.466 50.878 0.20655 3.8612-0.3236 0.56925-10.736-32.178 4.4842 26.486-0.18858-0.4221-41.509-49.018 32.522 52.039-35.396-19.78 33.364 25.315-49.496-11.075 40.157 14.17-55.774 4.1758 42.198 5.8276-21.708 4.7369 34.665-2.9474 2.9359 0.40539-53.744 27.939 60.563-21.944-15.775 14.825 24.041-16.91-20.905 41.203 21.738-31.018-8.6457 35.876 15.949-39.636 5.0542 29.254 1.732-25.778 28.508 53.828-18.855-54.327 24.617 25.279-18.603-25.68 38.258 25.902-18.962-17.598 26.109 11.959-40.129-30.575 73.471 14.477-74.948-21.178 39.163-1.1044-32.698-3.3691 32.544-5.5195-37.173 1.4094 63.305-28.263-64.197 19.195 26.82-20.696-36.532 21.102 16.627-20.632-25.504 23.726 11.851-33.274-10.486 18.458z" fill="#ff0"/>
    <path d="m357.04 377.43-7.5958 25.103 0.10845 1.9051-0.16991 0.28087-5.6372-15.876 2.3545 13.068-0.099-0.20826-21.795-24.185 17.076 25.676-18.585-9.7595 17.518 12.49-25.989-5.4642 21.085 6.9911-29.285 2.0603 22.157 2.8753-11.398 2.3371 18.202-1.4542 1.5416 0.20001-28.219 13.785 31.8-10.827-8.283 7.3146 12.623-8.3432-10.977 20.329 11.414-15.304-4.5396 17.701 8.3745-19.556 2.6538 14.434 0.9094-12.718 14.969 26.558-9.9004-26.804 12.925 12.472-9.7676-12.67 20.088 12.78-9.9564-8.6828 13.709 5.9005-21.071-15.085 38.577 7.1428-39.353-10.449 20.563-0.54492-17.169-1.6623 17.088-2.7232-19.518 0.69541 33.24-13.945-33.708 9.4704 14.083-10.211-19.182 10.411 8.7303-10.18-13.391 11.706 6.2225-16.417-5.506 9.107z" fill="#fff" opacity=".75"/>
   </g>
   <g transform="matrix(1.0516 0 0 .91751 -23.698 19.341)" fill-rule="evenodd">
    <path d="m322.25 228.51 4.2157 142.38 2.8785 9.9099-0.27011 1.7041-41.671-76.396 25.762 65.871-0.64025-0.96935-112.82-99.108 97.126 113.14-82.099-27.193 81.659 42.996-104.18 5.1496 87.843 9.3183-106.73 49.161 86.503-13.799-39.545 27.234 66.107-31.471 6.0184-0.9602-87.52 109.63 104.74-98.703-21.446 49.424 36.323-60.525-14.611 121.61 22.77-95.672 6.0224 99.328 5.895-114.13 28.653 72.685-13.115-68.295 90.398 120.56-71.784-128.48 64.478 48.907-52.938-54.079 91.635 41.163-48.467-32.795 58.873 13.208-98.297-52.044 153.38-12.752-160.58-3.6786 76.11-29.761-66.295 13.677 60.299-36.711l-72.01 29.189 106.07-117.04-113.63 94.041 39.35-72.29-58.141 80.013 19.397-65.125-34.827 79.272 1.9308-94.756-8.7448 55.25z" fill="#f00"/>
    <path d="m331.2 216.89-4.3025 149.9 2.4117 10.614-0.3877 1.7716-39.022-83.186 22.982 71.015-0.61209-1.0633-112.25-112.02 94.931 125.67-84.437-34.313 83.007 50.886-109.58-1.8719 91.557 15.932-114.94 44.195 91.567-8.4521-43.143 25.852 71.26-28.447 6.3708-0.5882-98.506 109.07 115.89-96.391-25.52 50.433 41.803-61.057-22.775 126.76 29.742-98.936 0.23017 104.79 13.175-119.51 25.597 78.376-9.5704-72.677 87.421 132.99-67.413-140.02 64.626 55.896-52.206-60.524 93.582 49.658-48.821-37.847 60.935 17.994-99.903-61.557 161.65-2.6768-168.18-15.09 81.645-25.951-70.367 9.7371 65.489-34.358-77.311 25.636 118.41-115.56-124.93 90.87 45.699-73.207-65.879 80.009 24.333-67.074-41.382 80.86 7.8308-99.43-12.557 57.442z" fill="#f00"/>
    <path d="m356.3 237.46-20.913 130.16 0.86367 9.5782-0.53789 1.4935-24.135-77.748 11.687 64.996-0.40628-1.0089-84.026-112.66 67.514 122.25-68.94-41.176 65.804 55.44-94.36-16.232 77.194 26.094-104.28 23.229 80 4.829-40.202 16.798 64.767-15.315 5.566 0.33584-97.534 82.001 111.09-68.624-27.813 40.584 43.086-47.68-34.202 107.52 37.022-82.322-11.825 91.422 25.084-102.47 13.1 71.765 0.0788-64.66 60.192 127.63-42.118-131.1 49.365 57.36-38.114-59.741 75.072 55.777-37.795-39.513 50.528 23.812-79.162-66.997 139.82 19.203-143.42-35.569 73.445-11.754-61.85-0.88354 60.465-21.239-69.668 12.057 115.46-85.007-118.25 62.605 47.842-57.758-66.039 61.001 28.698-55.255-44.994 65.007 18.167-85.673-17.428 48.424z" fill="#d45500"/>
    <path d="m348.55 263.85-12.887 111.35 1.187 8.0682-0.41267 1.2934-24.855-64.592 13.234 54.444-0.40528-0.83329-79.614-91.017 65.359 100.01-63.075-31.259 60.913 43.506-84.576-8.7949 69.751 18.05-91.662 25.153 71.314-0.11084-34.995 16.341 56.893-16.375 4.9617-8e-3 -58.486 77.554 71.116-66.934-22.942 35.839 36.206-42.652-25.69 92.876 29.3-71.679-6.5064 78.063 17.807-88.122 14.785 60.104-2.7613-54.777 59.087 104.96-43.174-108.84 46.386 45.996-36.491-48.604 69.165 43.306-35.321-31.486 45.951 17.517-73.292-52.595 125.11 8.9237-129.03-22.598 64.762-13.814-55.01 2.4998 52.81-21.167-61.391 13.872 85.943-72.134-89.406 53.304 39.992-51.439-56.023 55.141 23.087-48.313-37.144 57.43 12.395-73.527-13.369 41.935z" fill="#ff7f2a"/>
    <path d="m349.47 305.34-11.233 79.545 1.0346 5.7634-0.35968 0.92389-21.664-46.141 11.535 38.891-0.35325-0.59525-69.393-65.016 56.968 71.444-54.977-22.329 53.093 31.078-73.718-6.2825 60.796 12.894-79.894 17.968 62.159-0.0792-30.503 11.673 49.589-11.697 4.3247-6e-3 -72.428 53.278 83.436-45.692-19.997 25.601 31.558-30.468-22.392 66.344 25.538-51.203-5.6711 55.763 15.521-62.948 12.887 42.934-2.4068-39.129 51.501 74.975-37.631-77.748 40.431 32.857-31.806-34.72 60.285 30.935-30.787-22.492 40.052 12.513-63.882-37.57 109.05 6.3745-112.46-16.143 56.447-9.8679-47.947 1.7857 46.03-15.12-53.51 9.9095 86.199-55.77-89.217 42.319 34.858-36.744-48.831 39.389 20.123-34.512-32.375 41.024 10.804-52.523-11.653 29.956z" fill="#fc0"/>
    <path d="m359.84 341.79-14.466 50.878 0.20655 3.8612-0.3236 0.56925-10.736-32.178 4.4842 26.486-0.18858-0.4221-41.509-49.018 32.522 52.039-35.396-19.78 33.364 25.315-49.496-11.075 40.157 14.17-55.774 4.1758 42.198 5.8276-21.708 4.7369 34.665-2.9474 2.9359 0.40539-53.744 27.939 60.563-21.944-15.775 14.825 24.041-16.91-20.905 41.203 21.738-31.018-8.6457 35.876 15.949-39.636 5.0542 29.254 1.732-25.778 28.508 53.828-18.855-54.327 24.617 25.279-18.603-25.68 38.258 25.902-18.962-17.598 26.109 11.959-40.129-30.575 73.471 14.477-74.948-21.178 39.163-1.1044-32.698-3.3691 32.544-5.5195-37.173 1.4094 63.305-28.263-64.197 19.195 26.82-20.696-36.532 21.102 16.627-20.632-25.504 23.726 11.851-33.274-10.486 18.458z" fill="#ff0"/>
    <path d="m357.04 377.43-7.5958 25.103 0.10845 1.9051-0.16991 0.28087-5.6372-15.876 2.3545 13.068-0.099-0.20826-21.795-24.185 17.076 25.676-18.585-9.7595 17.518 12.49-25.989-5.4642 21.085 6.9911-29.285 2.0603 22.157 2.8753-11.398 2.3371 18.202-1.4542 1.5416 0.20001-28.219 13.785 31.8-10.827-8.283 7.3146 12.623-8.3432-10.977 20.329 11.414-15.304-4.5396 17.701 8.3745-19.556 2.6538 14.434 0.9094-12.718 14.969 26.558-9.9004-26.804 12.925 12.472-9.7676-12.67 20.088 12.78-9.9564-8.6828 13.709 5.9005-21.071-15.085 38.577 7.1428-39.353-10.449 20.563-0.54492-17.169-1.6623 17.088-2.7232-19.518 0.69541 33.24-13.945-33.708 9.4704 14.083-10.211-19.182 10.411 8.7303-10.18-13.391 11.706 6.2225-16.417-5.506 9.107z" fill="#fff" opacity=".75"/>
   </g>
  </g>
 </g>
</svg>
